<svg width="301" height="131" fill="none" xmlns="http://www.w3.org/2000/svg"><g clip-path="url(#clip0_1321_3906)"><path d="M66.51 112.932c.497-.172.989-.351 1.479-.538v18.07a65.729 65.729 0 01-4.437.051 65.822 65.822 0 01-1.478-.051v-16.232c.495-.12.988-.248 1.478-.383V100.75c.491.021.983.038 1.479.038.496 0 .988-.017 1.479-.038v12.182zm9.074-13.751a34.671 34.671 0 01-2.86.755l2.428 9.062c-.44.253-.885.498-1.332.738l5.169 19.292a67.993 67.993 0 002.874-.698 67.567 67.567 0 002.84-.828l-5.63-21.013c-.426.301-.859.595-1.294.883l-2.195-8.191zm8.347-3.89a35.786 35.786 0 01-2.559 1.481l3.077 5.329c-.368.345-.741.684-1.12 1.018l11.624 20.133a66.703 66.703 0 005.121-2.959l-12.41-21.496c-.344.387-.692.77-1.047 1.145l-2.686-4.652zm7.065-5.906c-.334.363-.672.722-1.021 1.07-.349.349-.708.687-1.07 1.021l2.525 2.525c-.285.411-.575.819-.871 1.221l18.31 18.31c.364-.333.725-.669 1.082-1.009.356-.341.709-.685 1.058-1.033a68.672 68.672 0 002.042-2.14L93.847 90.145c-.251.444-.507.885-.77 1.321l-2.081-2.08v-.001zm5.296-7.532a35.165 35.165 0 01-1.482 2.56l1.459.841c-.196.456-.399.908-.607 1.357l24.15 13.943a62.526 62.526 0 001.538-2.527 66.67 66.67 0 001.421-2.594l-24.92-14.388c-.156.479-.318.954-.487 1.427l-1.072-.62zm3.163-8.648a35.156 35.156 0 01-.755 2.86l.464.123a50.83 50.83 0 01-.334 1.441l28.191 7.554a67.4 67.4 0 001.193-4.273c.116-.478.227-.958.333-1.441l-28.631-7.672c-.062.494-.131.986-.207 1.475l-.253-.067zm30.579-9.172a60.37 60.37 0 00-.051-1.479h-29.766c.029.492.052.984.066 1.48h-.014a41.499 41.499 0 01.038 1.478 41.608 41.608 0 01-.038 1.479h.014a48.12 48.12 0 01-.066 1.478h29.766a66.057 66.057 0 00.07-2.957c0-.494-.008-.986-.019-1.478zM98.7 54.96a35.16 35.16 0 01.756 2.86l.252-.068c.076.49.146.981.207 1.475l28.631-7.672a62.818 62.818 0 00-.698-2.874 62.03 62.03 0 00-.828-2.84l-28.191 7.554c.119.478.23.958.334 1.441l-.464.124zm-3.89-8.348a34.844 34.844 0 011.481 2.56l1.072-.62c.17.473.332.949.487 1.427l24.921-14.388a69.334 69.334 0 00-1.422-2.594 66.227 66.227 0 00-1.538-2.527l-24.15 13.943c.208.45.411.901.607 1.357l-1.459.843zm-5.906-7.063c.363.333.722.671 1.07 1.02.35.349.688.708 1.022 1.07l2.08-2.08c.264.435.52.877.77 1.32l19.206-19.204a66.16 66.16 0 00-3.101-3.173 69.18 69.18 0 00-1.082-1.01l-18.31 18.311c.296.402.586.81.87 1.22l-2.525 2.526zm-7.532-5.297a35.099 35.099 0 012.56 1.482l2.685-4.651c.355.375.703.758 1.046 1.144l12.41-21.495a64.634 64.634 0 00-5.12-2.96L83.328 27.906c.378.333.751.673 1.12 1.018l-3.077 5.328zm-8.648-3.163a34.839 34.839 0 012.86.755l2.194-8.19c.436.287.868.58 1.294.882l5.63-21.013a65.387 65.387 0 00-5.714-1.525l-5.17 19.291c.449.24.894.485 1.333.738l-2.427 9.062zm-9.172-.814c.491-.02.983-.038 1.479-.038.496 0 .988.017 1.479.038V18.092c.497.172.989.351 1.479.537V.56a64.825 64.825 0 00-5.916 0v16.232c.496.12.99.248 1.48.384v13.098zm-9.074 1.57a34.853 34.853 0 012.86-.756l-4.189-15.634c.523.03 1.044.07 1.562.117L51.074 1.997a63.726 63.726 0 00-4.3 1.095c-.473.138-.946.281-1.415.43l3.18 11.87a51.039 51.039 0 011.524-.027l4.415 16.479zm-8.348 3.89a34.987 34.987 0 012.56-1.483L38.564 16.713a50.211 50.211 0 011.514-.336l-4.969-8.605a65.573 65.573 0 00-5.12 2.96l4.177 7.236a53.8 53.8 0 011.443-.459L46.13 35.733zm-7.064 5.905c.334-.363.672-.722 1.021-1.07.349-.35.708-.687 1.07-1.021L24.205 22.594c.435-.264.876-.52 1.32-.77l-4.331-4.332a66.987 66.987 0 00-2.14 2.042 64.432 64.432 0 00-2.043 2.14l3.437 3.437c.403-.297.81-.587 1.22-.871l17.4 17.399zm-5.296 7.53a35.247 35.247 0 011.482-2.56L11.88 33.118c.325-.383.654-.762.99-1.135l-2.619-1.513a68.561 68.561 0 00-1.538 2.527A63.816 63.816 0 007.29 35.59l1.848 1.067c.285-.405.576-.806.873-1.203L33.77 49.171zm-3.163 8.648a35.16 35.16 0 01.755-2.86l-28.001-7.5c.179-.464.363-.925.555-1.382l-.875-.234a67.672 67.672 0 00-.827 2.84 66.11 66.11 0 00-.698 2.874l.43.115c.135-.475.28-.947.43-1.415l28.231 7.564zm-.814 9.172c-.02-.491-.038-.983-.038-1.479 0-.495.017-.987.038-1.478H.028l-.003.183c-.008.431-.016.862-.016 1.295a66.616 66.616 0 00.019 1.478h29.765zm1.57 9.073a34.807 34.807 0 01-.756-2.859L2.375 80.77a49.1 49.1 0 01-.43-1.415l-.43.115a64.167 64.167 0 001.526 5.714l.875-.234a50.178 50.178 0 01-.555-1.382l28-7.503h.001zm3.89 8.349a34.989 34.989 0 01-1.483-2.56L10.013 95.57a51.04 51.04 0 01-.874-1.203l-1.848 1.067a65.92 65.92 0 002.96 5.121l2.619-1.512a49.538 49.538 0 01-.99-1.136l23.373-13.495zm5.905 7.064a35.443 35.443 0 01-1.07-1.021 35.443 35.443 0 01-1.021-1.07l-17.399 17.398a50.335 50.335 0 01-1.22-.87l-3.438 3.436a66.889 66.889 0 002.043 2.14 64.426 64.426 0 002.14 2.043l4.332-4.332a49.902 49.902 0 01-1.321-.77l16.954-16.954zm7.532 5.296a35.601 35.601 0 01-2.56-1.482l-10.52 18.224a50.086 50.086 0 01-1.443-.459l-4.178 7.237a65.264 65.264 0 003.816 2.264c.432.237.867.468 1.305.695l4.968-8.604a53.836 53.836 0 01-1.513-.336l10.126-17.539zm8.648 3.163a35.174 35.174 0 01-2.86-.755l-4.414 16.479a51.343 51.343 0 01-1.524-.028l-3.18 11.87a68.04 68.04 0 004.273 1.193c.478.116.959.227 1.442.333l3.637-13.575a47.41 47.41 0 01-1.562.117l4.189-15.633zm8.142-32.75l-.007-.025zm-1.214 1.182l.15-.557zm.317-1.182l.007-.024z" fill="url(#paint0_linear_1321_3906)"/><path d="M273.273 27.265h-27.907v32.786h-15.759v10.922h15.759v24.986h13.271V38.975h16.1c7.513 0 12.001 3.902 12.001 10.538 0 5.952-4.488 10.538-12.001 10.538h-7.368V70.98h7.466c16.197 0 25.174-10.149 25.174-21.857 0-11.709-7.416-21.857-26.736-21.857zm-78.825-.78c19.418 0 28.883 12.197 31.029 24.199h-13.173c-2.146-6.733-7.123-12.49-17.661-12.49-14.051 0-21.467 10.44-21.467 23.418 0 12.783 7.026 23.419 20.98 23.419 9.952 0 15.514-6.44 17.563-14.051h-16.685V60.05h30.443v35.91h-13.66v-4.49c0-2.244.39-4.293 1.756-7.61l.683-1.66h-2.342l-.585 1.171c-2.83 5.66-8.294 13.368-19.808 13.368-19.808 0-31.615-15.71-31.615-35.127 0-19.418 12.1-35.128 34.542-35.128z" fill="#00F"/></g><defs><linearGradient id="paint0_linear_1321_3906" x1="65.031" y1=".49" x2="65.031" y2="130.534" gradientUnits="userSpaceOnUse"><stop stop-color="#00F"/><stop offset=".5" stop-color="#00EDFF"/><stop offset="1" stop-color="#56C900"/></linearGradient><clipPath id="clip0_1321_3906"><path fill="#fff" d="M0 0h301v131H0z"/></clipPath></defs></svg>