<svg xmlns="http://www.w3.org/2000/svg" width="130" height="31"><g stroke="#2b2a29" stroke-width=".076"><path d="M118.718 7.637h8.576v1.248l-6.686 13.643h7.23v1.504h-9.37v-1.27l6.777-13.62h-6.527V7.637zm-4.48 0V9.14h-6.776v5.728h4.873v1.504h-4.873v6.158h6.935v1.504h-8.71V7.64h8.55zm-12.964 0V9.14h-4.646v14.893h-1.776V9.143h-4.556V7.638h10.978zM78.306 24.032V7.637h4.277c.337.002.652.027.944.073.295.046.567.115.814.205.248.092.474.197.68.316.204.12.39.255.554.404.165.15.314.305.446.47.13.16.248.33.347.506.1.178.188.357.264.535.076.175.138.35.187.522.05.175.093.34.126.5.034.16.06.31.076.455.016.142.03.27.036.382.008.113.01.212.01.295.003.28-.017.56-.058.83-.042.274-.107.543-.195.808-.085.264-.204.523-.354.777s-.333.502-.546.746c-.212.244-.466.48-.76.71-.287.223-.613.44-.976.65l4.412 7.21h-2.153l-3.966-6.8c-.194.007-.39.01-.59.016-.2.004-.406.007-.61.008l-.612.008-.574.013v6.755h-1.776zm1.776-14.89v6.61h1.57c.386 0 .742-.034 1.07-.1.325-.064.624-.16.894-.29.27-.13.508-.293.714-.49.206-.196.38-.425.524-.688.143-.26.25-.556.323-.885.072-.33.108-.696.11-1.093.004-.36-.022-.685-.078-.977-.057-.292-.14-.55-.256-.776-.11-.227-.26-.422-.445-.587-.186-.166-.41-.302-.67-.408-.26-.11-.57-.19-.926-.243-.353-.053-.75-.08-1.193-.077h-1.64zm-11.484-2.95l5.832 17.84h-1.916c-1.284-4.255-2.576-8.5-3.915-12.74-1.327 4.238-2.614 8.49-3.895 12.74H62.79l5.808-17.84zm-17.422 17.84V7.637h3.96c.495 0 .954.05 1.377.146.423.097.81.243 1.16.437.35.192.66.43.93.715.268.284.496.613.68.986.185.375.324.79.417 1.247.093.456.14.955.142 1.495 0 .433-.037.835-.104 1.207-.068.373-.17.717-.303 1.03-.133.313-.295.6-.485.856-.19.258-.41.487-.655.688-.244.2-.51.373-.8.522-.29.15-.605.272-.94.37-.334.094-.686.165-1.055.212-.37.048-.756.072-1.158.072h-1.39v6.414h-1.776zm1.776-14.89v6.972h1.843c.327 0 .633-.033.918-.097.287-.064.553-.16.8-.288.242-.13.46-.29.65-.48.19-.193.352-.416.49-.67.135-.253.238-.538.307-.854.07-.317.105-.664.107-1.043 0-.422-.032-.805-.095-1.147-.064-.342-.158-.643-.283-.903-.125-.26-.276-.486-.455-.676-.178-.19-.384-.343-.618-.462-.235-.12-.495-.21-.78-.268-.284-.06-.594-.09-.93-.087H52.95zm-7.607-.314c.23.18.45.367.663.567l-1.068 1.28c-.135-.12-.27-.24-.41-.358-.128-.11-.26-.22-.392-.327-.133-.107-.27-.21-.41-.307-.14-.098-.28-.19-.424-.28-.147-.087-.295-.166-.446-.236-.15-.07-.305-.13-.465-.183-.155-.052-.315-.09-.48-.117-.166-.027-.338-.042-.513-.043-.24.002-.47.028-.688.08-.218.05-.425.127-.62.23-.195.1-.37.223-.525.365-.155.14-.29.303-.405.487-.115.182-.202.382-.26.597-.06.215-.09.447-.093.694-.004.105 0 .213.01.32.01.102.026.206.05.31.02.103.053.21.1.318.05.11.11.222.187.337.075.114.17.235.29.36.114.124.25.254.41.387.157.136.345.28.56.43.214.15.46.307.73.474l1.292.793c.37.225.712.44 1.023.645.312.206.59.4.837.58h.002c.245.183.467.362.664.538.196.176.366.348.51.518.143.17.265.342.367.52.104.18.186.366.247.555.062.19.107.39.136.603.03.212.042.437.04.675-.002.37-.03.718-.09 1.047-.057.328-.144.64-.26.93-.116.29-.258.56-.423.806-.165.246-.355.47-.57.674h.002c-.216.203-.45.383-.707.538-.255.155-.53.285-.825.392-.297.104-.61.184-.937.238-.328.054-.673.08-1.033.08-.353 0-.692-.028-1.016-.082-.324-.054-.634-.135-.93-.244-.298-.11-.583-.24-.856-.393-.272-.153-.535-.33-.786-.528-.248-.2-.488-.418-.718-.654-.245-.253-.47-.518-.686-.797l1.376-1.093c.14.225.286.435.453.64.155.19.325.372.506.54.182.17.374.32.576.454.202.134.414.25.637.35.22.098.453.173.693.224.24.05.49.077.75.078.21 0 .415-.018.613-.056.197-.038.39-.094.573-.17.184-.07.36-.16.52-.262.163-.103.315-.222.457-.356.14-.132.264-.276.375-.433.11-.158.205-.327.285-.508.08-.18.14-.37.18-.57.04-.198.06-.407.062-.623 0-.128 0-.25-.006-.363-.005-.12-.013-.23-.025-.336-.014-.102-.036-.203-.066-.3-.03-.097-.068-.19-.116-.283-.05-.094-.11-.19-.187-.286-.075-.098-.166-.198-.27-.3-.105-.103-.23-.212-.375-.327-.145-.115-.31-.237-.497-.364-.194-.136-.414-.282-.66-.44-.226-.143-.476-.296-.75-.46l-1.474-.883c-.203-.12-.4-.242-.592-.367-.193-.126-.38-.256-.56-.39-.182-.136-.354-.277-.515-.426-.163-.148-.314-.304-.455-.468-.14-.165-.267-.34-.377-.52-.11-.185-.206-.38-.286-.583-.083-.205-.145-.423-.186-.653-.04-.23-.062-.472-.064-.728.002-.324.032-.63.09-.917.057-.288.143-.56.257-.81.113-.25.248-.485.406-.698.158-.214.34-.408.54-.58.203-.176.422-.33.657-.463.235-.133.486-.245.754-.336.268-.09.546-.157.836-.203.288-.043.587-.066.895-.066.287.002.57.026.848.072.276.046.547.115.812.206.268.092.532.2.79.324.25.122.492.26.73.412.24.155.473.32.697.494zM27.052 27.835c-5.273 0-7.786-1.427-9.578-4.073-.112-.165-.32-.147-.48-.044-1.727 1.112-3.407 1.86-6.648 1.952.062-.07-.045-.236.02-.305.625-.14 1.636-.65 1.25-1.744l-.895-2.356c-.136-.363-.93-1.33-1.057-1.666-.68-1.788-.753-3.387-.17-4.878l.042-.068C2.64 13.657 1.49 21.87 5.3 27.617l-.48.476C-1.955 19.206 1.843 8.64 7.9 4.2 15.132-1.1 24.906.13 30.113 5.99v.465c-2.415.298-4.542 1.35-6.1 2.936-6.33-2.93-11.58.21-13.702 3.71l.21.24c4.107-4.554 12.554-5.023 14.44 1.164l2.426 7.952-.224-.04-.95-.182-1.4-4.25c-.052-.173-.51-.25-.646-.133-1.13.89-1.814 1.583-3.574 2.117l-.024.314c1.37.596 2.542.7 4.145.713l2.34 6.843z"/></g></svg>