<svg xmlns="http://www.w3.org/2000/svg" viewBox="0 0 139.79 156.47"><defs><style>.cls-1{fill:#f7a823;}.cls-1,.cls-2{fill-rule:evenodd;}.cls-2{fill:#141f35;}</style></defs><g id="Warstwa_2" data-name="Warstwa 2"><g id="Warstwa_3" data-name="Warstwa 3"><g id="_1" data-name="1"><path id="path2101-9-5" class="cls-1" d="M33.4,16.18A33.39,33.39,0,0,1,66.78,49.1h0V83H33a33.39,33.39,0,0,1,.39-66.78Zm-.08,13.56A19.58,19.58,0,0,0,14,49.57,19.59,19.59,0,0,0,33.1,69.4H52.65V49.29h0A19.58,19.58,0,0,0,33.32,29.74Z"/><path id="path2103-0-0" class="cls-2" d="M33.4,155.72a33.39,33.39,0,0,0,33.38-32.93h0V88.93H33a33.4,33.4,0,0,0,.39,66.79Zm-.08-13.57a19.84,19.84,0,0,1-.22-39.65H52.65v20.1h0a19.57,19.57,0,0,1-19.33,19.55Z"/><path id="path2105-0-3" class="cls-2" d="M72.81,0c6.65-.15,13.24,2.61,14.07,14.93V43.17h20.77c14.38-.28,18.72-14.83,18.11-26.4h14c.69,18.71-5.45,27.81-13.61,32.88,8.16,5.06,14.3,14.17,13.61,32.88h-14c.68-12.82-1.61-22.67-17.63-26.4l-21.25.12v13.5c-5.8.58-7.63.71-14.07,7.13V0Z"/><path id="path2107-7-3" class="cls-1" d="M87.08,87V74.27A13.69,13.69,0,0,0,73.42,87l0,.94v12.76A13.71,13.71,0,0,0,87.05,88Z"/><path id="path2109-8-3" class="cls-2" d="M125.63,89.37h13.73l0,27.26a13.7,13.7,0,0,1-13.67,12.75V116.63Z"/><path id="path2111-7-4" class="cls-2" d="M73.53,105.44c6.5-.14,11.35-3.31,13.73-6.88l0,45.15a13.69,13.69,0,0,1-13.66,12.76V143.71Z"/></g></g></g></svg>