<?xml version="1.0" encoding="UTF-8"?>
<svg width="600px" height="400px" viewBox="0 0 600 400" version="1.1" xmlns="http://www.w3.org/2000/svg" xmlns:xlink="http://www.w3.org/1999/xlink">
    <!-- Generator: Sketch 55.2 (78181) - https://sketchapp.com -->
    <title>Artboard</title>
    <desc>Created with Sketch.</desc>
    <g id="Artboard" stroke="none" stroke-width="1" fill="none" fill-rule="evenodd">
        <rect fill="#FFFFFF" x="0" y="0" width="600" height="400"></rect>
        <g id="Group" transform="translate(130.000000, 30.000000)">
            <rect id="Rectangle" fill="#CE1041" x="0" y="0" width="340" height="340"></rect>
            <g id="DEVENV" transform="translate(41.437500, 54.010378)" fill="#FFFFFF">
                <polygon id="V" points="210.375 232.156289 227.020833 232.156289 265.270833 140.427122 241.895833 140.427122 218.875 200.635456 218.520833 200.635456 195.5 140.427122 172.125 140.427122"></polygon>
                <polygon id="N" points="98.1041667 232.156289 98.1041667 174.781289 98.4583333 174.781289 135.291667 232.156289 156.1875 232.156289 156.1875 140.072956 135.291667 140.072956 135.291667 197.447956 134.9375 197.447956 98.4583333 140.427122 77.5625 140.427122 77.5625 232.156289"></polygon>
                <polygon id="E" points="0 232.156289 52.4166667 232.156289 52.4166667 214.093789 20.8958333 214.093789 20.8958333 195.322956 51.3541667 195.322956 51.3541667 176.906289 20.8958333 176.906289 20.8958333 158.489622 52.4166667 158.489622 52.4166667 140.427122 0 140.427122"></polygon>
                <polygon id="V" points="205.770833 91.9062888 222.416667 91.9062888 260.666667 0.177122172 237.291667 0.177122172 214.270833 60.3854555 213.916667 60.3854555 190.895833 0.177122172 167.520833 0.177122172"></polygon>
                <polygon id="E" points="99.875 91.9062888 152.291667 91.9062888 152.291667 73.8437888 120.770833 73.8437888 120.770833 55.0729555 151.229167 55.0729555 151.229167 36.6562888 120.770833 36.6562888 120.770833 18.2396222 152.291667 18.2396222 152.291667 0.177122172 99.875 0.177122172"></polygon>
                <path d="M5.13541667,0 L25.7772866,0 L33.9628557,0 C34.9312674,0.047541146 35.8880933,0.10658187 36.8333333,0.177122172 C60.5625,1.94795551 78.2081917,21.781836 78.09375,46.2187888 C77.9797724,70.6100002 60.5625,88.7187888 36.8333333,91.9062888 C36.176333,91.9945426 35.2195071,92.0537027 33.9628557,92.0837691 L25.7772866,92.0837691 L5.13541667,92.0837691 L5.13541667,0 Z M25.8541667,73.4896222 C30.9936603,73.3704647 34.6533825,73.0162981 36.8333333,72.4271222 C49.9375,68.8854555 55.6041667,56.4896222 55.6041667,46.2187888 C55.6041667,34.7756198 49.9375,23.5521222 36.8333333,19.3021222 C35.1425393,18.7537565 31.4828171,18.5176454 25.8541667,18.5937888 L25.8541667,73.4896222 Z" id="Combined-Shape"></path>
            </g>
        </g>
    </g>
</svg>