<?xml version="1.0" encoding="UTF-8"?>
<svg width="600px" height="400px" viewBox="0 0 600 400" version="1.1" xmlns="http://www.w3.org/2000/svg" xmlns:xlink="http://www.w3.org/1999/xlink">
    <!-- Generator: Sketch 55.1 (78136) - https://sketchapp.com -->
    <title>Artboard</title>
    <desc>Created with Sketch.</desc>
    <g id="Artboard" stroke="none" stroke-width="1" fill="none" fill-rule="evenodd">
        <rect fill="#FFFFFF" x="0" y="0" width="600" height="400"></rect>
        <g id="logo-horizontal-inverted" transform="translate(10.000000, 76.000000)">
            <g id="Mark">
                <rect id="Mask" x="0" y="0" width="198.857143" height="249"></rect>
                <path d="M181.25,136.95 C179.458214,139.823875 177.402321,142.298313 173.394107,143.309875 C175.672679,132.078937 177.73375,120.484875 179.359821,109.78825 C181.510236,110.610265 183.539673,111.720091 185.392857,113.0875 C190.317679,116.921063 184.600536,131.580938 181.25,136.95 Z M30.2946429,83.4565 L30.2169643,84.6236875 C40.9107143,82.668 56.695,80.354375 67.8030357,79.36875 C72.7433929,51.02425 82.0389286,25.7715 96.5907143,8.870625 C86.7203571,10.032625 72.4533929,13.4875 59.3619643,23.26075 C41.8480357,36.3125 32.0708929,56.5696875 30.2946429,83.4565 Z M17.5346429,123.40025 C17.9333929,126.409 18.5703571,129.775688 20.0928571,131.897375 C20.6883929,132.722187 22.2730357,134.911313 28.3785714,134.911313 L28.8394643,134.911313 C29.2192262,130.391271 29.7905952,125.710417 30.5535714,120.86875 C32.1071429,109.45625 33.1428571,104.7875 33.1428571,104.7875 C37.2857143,104.7875 37.2857143,107.38125 37.2857143,112.05 C37.2857143,163.857563 49.11875,173.641188 65.3794643,170.777688 C62.7901786,146.199313 62.6710714,119.966125 65.5192857,95.2373125 C55.4625,95.1335625 38.1816071,95.45 34.1785714,95.45 C27.9642857,95.45 18.6428571,88.1875 15.7946429,90.065375 C14.935,90.6308125 13.4642857,92.81475 13.4642857,96.4875 C13.4642857,99.74525 14.7589286,107.044062 15.805,112.911125 C16.4885714,116.775813 17.1410714,120.433 17.5346429,123.405438 L17.5346429,123.40025 Z" id="Shading" fill="#FFD82B" fill-rule="nonzero"></path>
                <path d="M180.374821,102.764375 C182.404821,88.052625 183.435357,75.6285625 182.803571,68.99375 C180.732143,47.20625 156.910714,0 105.642857,0 C76.125,0 26.4107143,16.6 22.0244643,82.906625 C20.3671372,82.0504868 18.5343397,81.5906096 16.6698214,81.5630625 C15.2072097,81.5657051 13.7617418,81.8786342 12.4285714,82.48125 C7.76785714,84.55625 5.17857143,90.2625 5.17857143,96.4875 C5.17857143,102.7125 8.28571429,116.71875 9.32142857,124.5 C10.3571429,132.28125 12.76,143.206125 28.3630357,143.2165 C25.7064286,223.58125 85.5241071,249 116,249 C151.214286,249 161.571429,228.25 157.946429,199.2 C162.130714,191.0245 167.340357,171.825563 171.928571,150.380438 C183.953214,149.104313 188.023571,138.910875 190.571429,130.725 C192.181964,125.5375 195.75,123.98125 195.75,123.98125 C195.75,123.98125 198.857143,117.75625 198.857143,108.41875 C192.826652,106.130482 186.652578,104.241622 180.374821,102.764375 Z M30.2946429,83.4565 C32.0708929,56.5696875 41.8480357,36.3125 59.3619643,23.2451875 C77.4351786,9.7576875 97.7455357,8.3 105.642857,8.3 C115.932467,8.20966754 126.098439,10.5502729 135.316071,15.1319375 C143.36986,19.2465901 150.540873,24.9020014 156.423929,31.778625 C167.682143,44.747375 173.642679,60.2009375 174.548929,69.78225 C175.066786,75.3484375 174.201964,86.67275 172.249643,100.979875 C164.114107,99.382125 155.916429,98.3394375 149.148036,98.303125 C145.291162,98.287875 141.489208,97.3863265 138.034821,95.667875 C123.462321,88.41575 97.0671429,78.85 76.6428571,78.85 C67.2075,78.85 44.2871429,82.0506875 30.2169643,84.6236875 L30.2946429,83.4565 Z M131.535714,108.9375 L127.910714,113.0875 C124.285714,117.2375 117.553571,128.65 117.553571,128.65 C111.339286,131.7625 101.598393,130.974 90.625,127.09375 C81.8214286,123.98125 81.8214286,114.64375 82.3392857,108.41875 C82.8571429,102.19375 82.3392857,89.74375 97.3571429,89.74375 C110.821429,89.74375 127.910714,98.5625 131.535714,100.6375 C135.160714,102.7125 131.535714,108.9375 131.535714,108.9375 Z M145.47125,180.831063 C144.880893,188.612313 140.505,193.86725 133.089286,196.0875 C129.982143,196.60625 137.75,185.19375 123.767857,185.19375 C109.785714,185.19375 112.375,196.0875 108.232143,194.53125 C98.70875,190.459063 95.8553571,183.015 95.0371429,178.133563 C94.8400445,176.945825 95.1676136,175.730889 95.9348413,174.804049 C96.7020689,173.877209 97.8333135,173.329843 99.035,173.304 C112.55625,172.946063 125.393929,171.363875 131.017857,168.075 C134.591071,172.012313 140.132143,175.207813 143.228929,176.81075 C144.71817,177.574384 145.602739,179.160349 145.47125,180.831063 L145.47125,180.831063 Z M159.380893,167.810438 C157.009107,164.013188 152.524464,158.955375 145,157.7 C137.869107,156.506875 132.649107,161.772188 132.571429,161.85 L132.571429,161.85 C132.53,161.735875 129.386607,153.55 118.071429,153.55 C82.8571429,153.55 37.2857143,213.725 37.2857143,112.05 C37.2857143,107.38125 37.2857143,104.7875 33.1428571,104.7875 C33.1428571,104.7875 32.1071429,109.45625 30.5535714,120.86875 C29.7871429,125.710417 29.2192262,130.393 28.8498214,134.9165 L28.3889286,134.9165 C22.2730357,134.9165 20.6883929,132.727375 20.1032143,131.902562 C18.5496429,129.780875 17.94375,126.414187 17.545,123.405438 C17.14625,120.396688 16.5092857,116.775813 15.8153571,112.911125 C14.7589286,107.044062 13.4642857,99.74525 13.4642857,96.4875 C13.4642857,92.81475 14.935,90.6308125 15.7946429,90.065375 C18.6428571,88.1875 27.9642857,95.45 34.1785714,95.45 C39.3571429,95.45 66.7258929,94.93125 71.9821429,95.45 C77.1607143,95.96875 76.125,97.525 75.6071429,110.49375 C75.0892857,123.4625 80.2989286,130.128438 88.0357143,133.31875 C96.8392857,136.95 112.892857,138.999063 120.660714,134.875 C129.464286,130.20625 137.687857,113.793 138.785714,110.49375 C139.821429,107.38125 142.410714,107.9 142.410714,110.49375 L142.410714,115.1625 C142.410714,128.65 147.589286,132.8 147.589286,140.0625 C147.589286,145.794688 145,146.230437 142.410714,146.80625 C137.75,147.84375 137.75,151.99375 137.75,151.99375 C148.625,154.06875 152.628036,149.91875 153.803571,146.2875 C156.751766,148.192899 160.051866,149.485932 163.508214,150.089938 C162.141071,156.408313 160.748036,162.36875 159.380893,167.810438 L159.380893,167.810438 Z M181.25,136.95 C178.660714,141.1 175.5225,144.425188 166.75,143.69375 C160.535714,143.175 154.839286,139.54375 154.839286,139.54375 C154.839286,132.8 151.431786,128.4425 150.028393,120.765 C148.625,113.0875 147.071429,105.30625 159.5,105.825 C170.892857,106.30225 180.732143,109.45625 185.392857,113.0875 C190.317679,116.921062 184.600536,131.580938 181.25,136.95 Z" id="Outline" fill="#000000" fill-rule="nonzero"></path>
            </g>
            <g id="Text" transform="translate(240.285714, 49.800000)">
                <path d="M55.7266071,74.7 L41.6253571,74.7 L41.6253571,43.7150625 C41.6253571,34.600625 36.6176786,28.6713125 28.2025,28.6713125 C20.3569643,28.6713125 14.10125,34.2530625 14.10125,48.606875 L14.10125,74.7 L0,74.7 L0,0 L14.10125,0 L14.10125,24.9 C18.1880901,18.9359495 24.9635137,15.3927384 32.1848214,15.4431875 C50.1544643,15.4431875 55.7266071,28.4119375 55.7266071,41.8994375 L55.7266071,74.7 Z" id="Path" fill="#000000" fill-rule="nonzero"></path>
                <path d="M121.893214,56.242875 C120.753929,65.3573125 110.500357,75.84125 95.3944643,75.84125 C77.8805357,75.84125 64.3230357,65.3573125 64.3230357,45.992375 C64.3230357,28.22 76.8292857,15.45875 94.2292857,15.45875 C114.4775,15.45875 125.735714,30.7255625 123.006607,49.4109375 L78.5641071,49.4109375 C78.5641071,55.3350625 83.5666071,63.194125 94.1464286,63.194125 C102.33375,63.194125 106.196964,59.2049375 107.092857,56.242875 L121.893214,56.242875 Z M80.1539286,38.812875 L108.589464,38.812875 C108.13375,33.231125 101.764107,28.105875 94.2551786,28.105875 C86.4096429,28.105875 80.4957143,33.231125 80.1539286,38.812875 Z" id="Shape" fill="#000000" fill-rule="nonzero"></path>
                <polygon id="Path" fill="#000000" fill-rule="nonzero" points="146.77625 74.7 132.675 74.7 132.675 0 146.77625 0"></polygon>
                <polygon id="Path" fill="#000000" fill-rule="nonzero" points="172.503393 74.7 158.402143 74.7 158.402143 0 172.503393 0"></polygon>
                <path d="M243.330714,45.65 C243.330714,63.2875 230.4775,75.84125 212.849643,75.84125 C196.133214,75.84125 182.37375,63.30825 182.37375,45.65 C182.37375,27.99175 194.77125,15.45875 212.849643,15.45875 C230.928036,15.45875 243.330714,28.0125 243.330714,45.65 Z M212.839286,28.105875 C202.606429,28.105875 196.6925,36.0790625 196.6925,45.65 C196.6925,55.2209375 202.606429,63.194125 212.839286,63.194125 C223.072143,63.194125 228.99125,55.2209375 228.99125,45.65 C228.99125,36.0790625 223.087679,28.105875 212.839286,28.105875 Z" id="Shape" fill="#000000" fill-rule="nonzero"></path>
                <path d="M34.5721429,103.833 C21.7241071,103.833 14.10125,110.664938 14.10125,125.93175 L14.10125,149.4 L0,149.4 L0,91.3 L14.2151786,91.3 L14.2151786,101.5505 C15.9241071,97.224125 24.9089286,88.9085625 34.5721429,90.044625 L34.5721429,103.833 Z" id="Path" fill="#000000" fill-rule="nonzero"></path>
                <path d="M100.257143,120.35 C100.257143,137.9875 87.4039286,150.54125 69.7760714,150.54125 C53.0596429,150.54125 39.3001786,138.00825 39.3001786,120.35 C39.3001786,102.69175 51.6976786,90.15875 69.7760714,90.15875 C87.8544643,90.15875 100.257143,102.7125 100.257143,120.35 Z M69.7760714,102.805875 C59.5432143,102.805875 53.6292857,110.779063 53.6292857,120.35 C53.6292857,129.920938 59.5432143,137.894125 69.7760714,137.894125 C80.0089286,137.894125 85.9280357,129.920938 85.9280357,120.35 C85.9280357,110.779063 80.0141071,102.805875 69.7760714,102.805875 Z" id="Shape" fill="#000000" fill-rule="nonzero"></path>
                <path d="M203.248571,149.4 L189.147321,149.4 L189.147321,117.045562 C189.147321,108.844125 185.051071,102.805875 176.294107,103.14825 C167.878929,103.490625 163.896607,110.322562 163.896607,122.399062 L163.896607,149.4 L149.795357,149.4 L149.795357,117.045562 C149.795357,108.844125 145.3625,102.69175 136.714286,103.14825 C127.620714,103.60475 124.549821,111.007312 124.549821,122.969687 L124.549821,149.4 L110.443393,149.4 L110.443393,91.3 L124.549821,91.3 L124.549821,99.6 C125.797857,96.2955625 130.577679,90.1431875 141.152321,90.1431875 C148.542143,90.1431875 155.823214,93.447625 160.033393,100.855375 C161.395357,96.9803125 169.46875,90.1431875 179.711964,90.1431875 C187.443571,90.1431875 203.25375,93.675875 203.25375,117.03 L203.248571,149.4 Z" id="Path" fill="#000000" fill-rule="nonzero"></path>
                <path d="M266.825893,115.790187 L266.825893,149.4 L253.180357,149.4 L253.180357,140.970312 C252.382857,143.1335 247.038571,150.655375 234.071429,150.54125 C216.5575,150.427125 212.466429,139.714937 212.466429,132.540625 C212.466429,122.399062 221.337321,114.425875 244.879107,114.425875 L252.129107,114.425875 C252.129107,108.615875 249.172143,102.4635 239.053214,102.4635 C231.088571,102.4635 227.225357,107.13225 226.883571,110.436687 L212.238571,110.436687 C212.466429,102.69175 220.425893,90.15875 238.281607,90.15875 C252.714286,90.15875 266.825893,96.88175 266.825893,115.790187 Z M252.155,124.795687 L245.106964,124.795687 C236.82125,124.795687 226.225893,125.361125 226.225893,132.312375 C226.225893,136.301562 230.886607,138.807125 237.484107,138.350625 C247.494286,137.665875 251.813214,131.171125 252.155,124.795687 Z" id="Shape" fill="#000000" fill-rule="nonzero"></path>
                <path d="M334.245714,149.4 L320.139286,149.4 L320.139286,118.415062 C320.139286,109.300625 315.136786,103.371312 306.721607,103.371312 C298.876071,103.371312 292.620357,108.953062 292.620357,123.306875 L292.620357,149.4 L278.519107,149.4 L278.519107,91.3 L292.620357,91.3 L292.620357,99.6 C296.712758,93.6388022 303.492228,90.1013354 310.714286,90.15875 C328.67875,90.15875 334.256071,103.1275 334.256071,116.589062 L334.245714,149.4 Z" id="Path" fill="#000000" fill-rule="nonzero"></path>
                <rect id="Mask-2" x="0" y="0" width="339.714286" height="149.4"></rect>
            </g>
        </g>
    </g>
</svg>