<svg width="367" height="103" viewBox="0 0 367 103" fill="none" xmlns="http://www.w3.org/2000/svg">
<path d="M14.6408 6.72546C14.6408 10.7541 11.5321 13.4509 7.32038 13.4509C3.14208 13.4509 0 10.7541 0 6.72546C0 2.69685 3.10865 0 7.32038 0C11.4987 0 14.6408 2.69685 14.6408 6.72546ZM1.47076 56.101V18.3452H13.17V56.101H1.47076Z" fill="#FF4040"/>
<path d="M45.1591 56.1012V29.4991H33.159V56.1012H21.4263V18.3455H56.8583V56.1012H45.1591Z" fill="#FF4040"/>
<path d="M68.8585 29.2992H62.3738V18.312H68.8585V3.19641H92.023V14.1835H80.5912V18.312H92.023V29.2992H80.5912V56.0678H68.8585V29.2992Z" fill="#FF4040"/>
<path d="M135.811 37.2231C135.811 48.6097 127.053 56.9999 115.956 56.9999C104.858 56.9999 96.1006 48.5432 96.1006 37.2231C96.1006 25.8364 104.992 17.4462 115.956 17.4462C126.92 17.4462 135.811 25.8031 135.811 37.2231ZM107.967 37.2231C107.967 42.5169 111.477 45.8796 115.956 45.8796C120.502 45.8796 123.945 42.5169 123.945 37.2231C123.945 31.9959 120.502 28.5665 115.956 28.5998C111.443 28.5665 107.967 31.9959 107.967 37.2231Z" fill="#FF4040"/>
<path d="M243.512 18.3452V56.101H231.779V29.4988H219.511V56.101H207.812V3.22952H219.511V18.3452H243.512Z" fill="#FF4040"/>
<path d="M278.242 22.6069V18.3452H289.974V56.101H278.242V52.0391C275.802 55.0023 272.292 56.9999 267.478 56.9999C257.818 56.9999 250.397 48.9094 250.397 37.2231C250.397 25.4702 257.985 17.4462 267.412 17.4462C272.258 17.4462 275.802 19.5438 278.242 22.6069ZM262.264 37.2231C262.264 42.5169 265.774 45.8796 270.253 45.8796C274.799 45.8796 278.242 42.5169 278.242 37.2231C278.242 31.9959 274.799 28.5665 270.253 28.5998C265.707 28.5665 262.264 31.9959 262.264 37.2231Z" fill="#FF4040"/>
<path d="M309.93 29.4658V56.068H298.23V18.3455H322.832V29.4991H309.93V29.4658Z" fill="#FF4040"/>
<path d="M346.532 17.4462C356.259 17.4462 364.716 23.8387 365.986 34.16C366.253 36.4573 366.086 38.122 365.919 39.4538H338.877C339.278 44.2482 342.454 47.1115 346.933 47.1115C350.242 47.1115 353.217 45.5467 353.919 42.2505H365.986C364.515 51.6395 356.125 56.9999 346.866 56.9999C335.234 56.9999 326.944 48.41 326.944 37.2564C326.944 26.0362 335.3 17.4462 346.532 17.4462ZM339.713 31.7628H353.618C352.649 28.2669 349.507 27.0017 346.732 27.0017C343.457 26.9684 340.983 28.733 339.713 31.7628Z" fill="#FF4040"/>
<path d="M154.43 27.6009V31.8958H199.556V56.1008H142.698V46.8117H188V41.8176H142.698V18.3117H199.556V27.5676H154.43V27.6009Z" fill="#FF4040"/>
<path d="M218.074 97.312C221.428 97.312 224.444 95.31 225.12 91.774H222.078C221.532 93.542 219.946 94.582 218.074 94.582C215.5 94.582 213.628 92.632 213.628 89.85C213.628 87.094 215.448 85.118 218.1 85.118C219.946 85.118 221.532 86.106 222.078 87.9H225.12C224.47 84.442 221.48 82.388 218.1 82.388C213.836 82.388 210.664 85.586 210.664 89.85C210.664 94.114 213.836 97.312 218.074 97.312ZM234.756 82.388C230.674 82.388 227.346 85.534 227.346 89.85C227.346 94.114 230.622 97.312 234.756 97.312C238.916 97.312 242.166 94.14 242.166 89.85C242.166 85.534 238.864 82.388 234.756 82.388ZM234.756 85.196C237.226 85.196 239.202 87.094 239.202 89.85C239.202 92.606 237.252 94.504 234.756 94.504C232.26 94.504 230.31 92.606 230.31 89.85C230.31 87.094 232.286 85.196 234.756 85.196ZM252.827 82.388C250.591 82.388 249.057 83.402 248.043 85.066V82.7H245.105V97H248.043V89.59C248.043 86.834 249.395 85.196 251.917 85.196C254.075 85.196 255.037 86.366 255.037 88.576V97H257.975V87.978C257.975 84.494 256.051 82.388 252.827 82.388ZM268.741 79.268C269.339 79.268 270.015 79.372 270.691 79.58L271.107 79.71L271.627 77.292C270.743 76.902 269.495 76.668 268.403 76.668C265.335 76.668 262.839 78.592 262.839 82.492V82.7H260.187V85.456H262.839V97H265.777V85.456H271.055V82.7H265.777V82.622C265.777 80.438 266.687 79.268 268.741 79.268ZM280.103 82.388C275.787 82.388 272.719 85.56 272.719 89.876C272.719 94.192 275.813 97.312 280.155 97.312C283.197 97.312 285.927 95.804 287.045 92.606H284.003C283.327 94.01 281.897 94.738 280.181 94.738C277.789 94.738 275.943 93.282 275.709 90.656H287.331C287.617 85.95 284.705 82.388 280.103 82.388ZM280.103 84.936C282.261 84.936 283.743 86.314 284.185 88.264H275.865C276.359 86.34 277.867 84.936 280.103 84.936ZM297.894 82.388C295.632 82.388 293.994 83.532 293.136 85.534V82.7H290.198V97H293.136V90.448C293.136 86.912 295.19 85.404 297.868 85.404C298.258 85.404 298.492 85.43 298.752 85.456V82.466C298.544 82.414 298.258 82.388 297.894 82.388ZM307.753 82.388C303.437 82.388 300.369 85.56 300.369 89.876C300.369 94.192 303.463 97.312 307.805 97.312C310.847 97.312 313.577 95.804 314.695 92.606H311.653C310.977 94.01 309.547 94.738 307.831 94.738C305.439 94.738 303.593 93.282 303.359 90.656H314.981C315.267 85.95 312.355 82.388 307.753 82.388ZM307.753 84.936C309.911 84.936 311.393 86.314 311.835 88.264H303.515C304.009 86.34 305.517 84.936 307.753 84.936ZM325.571 82.388C323.335 82.388 321.801 83.402 320.787 85.066V82.7H317.849V97H320.787V89.59C320.787 86.834 322.139 85.196 324.661 85.196C326.819 85.196 327.781 86.366 327.781 88.576V97H330.719V87.978C330.719 84.494 328.795 82.388 325.571 82.388ZM340.965 97.312C344.319 97.312 347.335 95.31 348.011 91.774H344.969C344.423 93.542 342.837 94.582 340.965 94.582C338.391 94.582 336.519 92.632 336.519 89.85C336.519 87.094 338.339 85.118 340.991 85.118C342.837 85.118 344.423 86.106 344.969 87.9H348.011C347.361 84.442 344.371 82.388 340.991 82.388C336.727 82.388 333.555 85.586 333.555 89.85C333.555 94.114 336.727 97.312 340.965 97.312ZM357.62 82.388C353.304 82.388 350.236 85.56 350.236 89.876C350.236 94.192 353.33 97.312 357.672 97.312C360.714 97.312 363.444 95.804 364.562 92.606H361.52C360.844 94.01 359.414 94.738 357.698 94.738C355.306 94.738 353.46 93.282 353.226 90.656H364.848C365.134 85.95 362.222 82.388 357.62 82.388ZM357.62 84.936C359.778 84.936 361.26 86.314 361.702 88.264H353.382C353.876 86.34 355.384 84.936 357.62 84.936Z" fill="#FF4040"/>
</svg>
