<?xml version="1.0" encoding="UTF-8"?>
<svg width="600px" height="400px" viewBox="0 0 600 400" version="1.1" xmlns="http://www.w3.org/2000/svg" xmlns:xlink="http://www.w3.org/1999/xlink">
    <!-- Generator: Sketch 57.1 (83088) - https://sketch.com -->
    <title>Artboard Copy</title>
    <desc>Created with Sketch.</desc>
    <g id="Artboard-Copy" stroke="none" stroke-width="1" fill="none" fill-rule="evenodd">
        <g id="codete">
            <rect id="Rectangle" fill="#FFFFFF" fill-rule="nonzero" x="0" y="0" width="600" height="400"></rect>
            <g id="infoshare_logo_podstawowa" transform="translate(26.000000, 156.000000)" fill="#FF4040">
                <path d="M2.528,84.733 L20.05,84.733 L20.05,28.039 L2.528,28.039 L2.528,84.733 Z M22.228,10.62 C22.228,16.672 17.555,20.718 11.289,20.718 C5.023,20.718 0.351,16.672 0.351,10.62 C0.351,4.566 5.023,0.519 11.289,0.519 C17.555,0.519 22.228,4.566 22.228,10.62 L22.228,10.62 Z" id="Fill-1"></path>
                <polygon id="Fill-3" points="67.8776 84.7338 67.8776 44.7728 49.9406 44.7728 49.9406 84.7338 32.4146 84.7338 32.4146 28.0398 85.3996 28.0398 85.3996 84.7338"></polygon>
                <polygon id="Fill-4" points="103.3483 44.5316 93.6363 44.5316 93.6363 28.0396 103.3483 28.0396 103.3483 5.3616 137.9973 5.3616 137.9973 21.8536 120.8743 21.8536 120.8743 28.0396 137.9973 28.0396 137.9973 44.5316 120.8743 44.5316 120.8743 84.7336 103.3483 84.7336"></polygon>
                <path d="M161.8678,56.3866 C161.8678,64.3236 167.1238,69.3746 173.8248,69.3746 C180.6278,69.3746 185.7818,64.3236 185.7818,56.3866 C185.7818,48.5526 180.6278,43.3976 173.8248,43.417542 C167.0218,43.3976 161.8678,48.5526 161.8678,56.3866 M203.5148,56.3866 C203.5148,73.4976 190.4218,86.0746 173.8248,86.0746 C157.2308,86.0746 144.1378,73.3936 144.1378,56.3866 C144.1378,39.2756 157.4338,26.6996 173.8248,26.6996 C190.2148,26.6996 203.5148,39.2756 203.5148,56.3866" id="Fill-5"></path>
                <polygon id="Fill-6" points="364.609 28.0395 364.609 84.7335 347.083 84.7335 347.083 44.7725 328.734 44.7725 328.734 84.7335 311.213 84.7335 311.213 5.3615 328.734 5.3615 328.734 28.0395"></polygon>
                <path d="M392.6349,56.3866 C392.6349,64.3236 397.8909,69.3746 404.5919,69.3746 C411.3949,69.3746 416.5489,64.3236 416.5489,56.3866 C416.5489,48.5526 411.3949,43.3976 404.5919,43.417542 C397.7889,43.3976 392.6349,48.5526 392.6349,56.3866 M416.5489,34.4476 L416.5489,28.0396 L434.0739,28.0396 L434.0739,84.7336 L416.5489,84.7336 L416.5489,78.6146 C412.9099,83.0616 407.6699,86.0746 400.4679,86.0746 C386.0399,86.0746 374.9059,73.9106 374.9059,56.3866 C374.9059,38.7616 386.2429,26.6996 400.3659,26.6996 C407.6119,26.6996 412.8869,29.8416 416.5489,34.4476" id="Fill-7"></path>
                <polygon id="Fill-8" points="463.9567 44.7724 463.9567 84.7334 446.4347 84.7334 446.4347 28.0394 483.2337 28.0394 483.2337 44.7724"></polygon>
                <path d="M508.5138,48.1859 L529.3178,48.1859 C527.8848,42.9179 523.1498,41.0279 518.9978,41.0279 C514.0788,41.0279 510.3778,43.6679 508.5138,48.1859 M518.6888,26.6999 C533.2228,26.6999 545.8998,36.2869 547.7878,51.7909 C548.2068,55.2289 547.9598,57.7519 547.6858,59.7469 L507.2448,59.7469 C507.8678,66.9709 512.6108,71.2319 519.3078,71.2319 C524.2538,71.2319 528.6878,68.8609 529.7528,63.9449 L547.7878,63.9469 C545.5948,78.0349 533.0188,86.0749 519.2058,86.0749 C501.7818,86.0749 489.4138,73.1879 489.4138,56.4219 C489.4138,39.5849 501.8878,26.6999 518.6888,26.6999" id="Fill-9"></path>
                <polygon id="Fill-10" points="231.3332 41.955 231.3332 48.384 298.8522 48.384 298.8522 84.734 213.8112 84.734 213.8112 70.819 281.3302 70.819 281.3302 63.33 213.8112 63.33 213.8112 28.039 298.8522 28.039 298.8522 41.955"></polygon>
            </g>
        </g>
    </g>
</svg>