<?xml version="1.0" encoding="utf-8"?>
<!-- Generator: Adobe Illustrator 21.1.0, SVG Export Plug-In . SVG Version: 6.00 Build 0)  -->
<svg version="1.1" xmlns="http://www.w3.org/2000/svg" xmlns:xlink="http://www.w3.org/1999/xlink" x="0px" y="0px"
	 viewBox="0 0 750.3 153.5" style="enable-background:new 0 0 750.3 153.5;" xml:space="preserve">
<style type="text/css">
	.st0{display:none;}
	.st1{display:inline;fill:#696E9E;}
	.st2{fill:#FFFFFF;}
</style>
<g id="Warstwa_2" class="st0">
	<rect x="-357" y="-186.3" class="st1" width="1413" height="504"/>
</g>
<g id="Layer_1">
	<title>logo</title>
	<polygon class="st2" points="502.4,22.8 502.4,100.8 475.4,100.8 475.4,129.8 494.9,129.8 497.2,129.8 532,129.8 540.4,117.4 
		540.4,76.5 540.4,22.8 	"/>
	<polygon class="st2" points="172.6,22.8 132.4,22.8 116.8,54.5 116.8,22.8 76.8,22.8 76.8,129.8 116.8,129.8 116.8,98.4 
		132.4,129.8 172.6,129.8 144.8,76.3 	"/>
	<polygon class="st2" points="722.6,22.8 691.4,22.8 719.1,76.3 691.4,129.8 722.6,129.8 750.3,76.3 	"/>
	<polygon class="st2" points="27.7,129.8 59,129.8 31.3,76.3 59,22.8 27.7,22.8 0,76.3 	"/>
	<polygon class="st2" points="682.4,0 653.4,0 619.9,153.5 648.9,153.5 	"/>
	<polygon class="st2" points="632.9,51.8 639.2,22.8 588,22.8 558.7,22.8 549.5,22.8 549.5,129.8 558.7,129.8 588,129.8 
		615.8,129.8 622.1,100.8 587.5,100.8 587.5,91.8 624.3,91.8 631.1,60.8 587.5,60.8 587.5,51.8 	"/>
	<path class="st2" d="M271.5,30.5"/>
	<path class="st2" d="M260.8,22.8h-78.2l-6.7,13.1v80.8l6.6,13.1h78.2l7.2-12.6V36.3L260.8,22.8z M229.9,100.8h-16v-49h16V100.8z"/>
	<path class="st2" d="M362,22.8h-85.1v107h85.1l6.9-12.6V36.3L362,22.8z M330.8,100.8h-16v-49h16V100.8z"/>
	<polygon class="st2" points="462.1,22.8 460.7,22.8 430.7,22.8 430.7,51.9 430.7,79.1 430.7,79.5 430.7,100.8 415.7,100.8 
		415.7,79.5 415.7,79.1 415.7,51.9 415.7,22.8 384.4,22.8 383.8,22.8 377.7,22.8 377.7,35.8 377.7,49.7 377.7,76.5 377.7,79.1 
		377.7,103.3 377.7,116.7 383.8,129.8 385.2,129.8 419.9,129.8 422.2,129.8 461.4,129.8 462,129.8 468.7,117.1 468.7,103.3 
		468.7,79.1 468.7,76.5 468.7,49.7 468.7,36.3 468.7,22.8 	"/>
</g>
</svg>
