<?xml version="1.0" encoding="utf-8"?>
<!-- Generator: Adobe Illustrator 26.0.3, SVG Export Plug-In . SVG Version: 6.00 Build 0)  -->
<svg version="1.1" id="Layer_1" xmlns="http://www.w3.org/2000/svg" xmlns:xlink="http://www.w3.org/1999/xlink" x="0px" y="0px"
	 viewBox="0 0 2000 2000" style="enable-background:new 0 0 2000 2000;" xml:space="preserve">
<style type="text/css">
	.st0{fill:#000049;}
	.st1{fill:#D10000;}
</style>
<g>
	<g>
		<g>
			<path class="st0" d="M836.7,1114.7H747c-5.6-9.9-10.7-20.1-15.2-30.7c-14.8-34.9-22.9-73.2-22.9-113.3
				c0-57.6,16.8-111.6,45.8-156.8c29-45.3,70.1-81.9,118.9-105.4l31.8,66c-36.5,17.6-67.4,45.1-89.1,79
				c-21.7,33.9-34.3,74-34.3,117.3c0,45.3,13.7,87,37.2,121.8C824.7,1100.2,830.4,1107.7,836.7,1114.7z"/>
			<polygon class="st0" points="1036.6,575.5 1036.6,636.2 1000,648 963.4,636.2 963.4,575.5 			"/>
			<polygon class="st0" points="1010.4,677.7 1036.6,669.3 1036.6,873.2 963.4,873.2 963.4,669.3 989.6,677.7 1000,681.1 			"/>
			<polygon class="st0" points="1557.3,903.3 1295.1,1263.1 1204.6,1263.1 1466.9,903.3 1249.1,600.8 1321.4,577.4 			"/>
			<path class="st0" d="M1291.1,970.7c0,60.2-18.3,116.4-49.7,162.7c-31.4,46.5-75.7,83.3-128,105.4
				c-34.9,14.7-73.2,22.9-113.3,22.9c-7.7,0-297.9,0-297.9,0L442.7,903.3l235.9-325.9l73.4,23.7L533.1,903.3l206.4,285.2
				c0,0,260,0,260.5,0c45.3,0,86.9-13.7,121.7-37.2c34.8-23.5,62.4-56.8,79-95.9c11-26,17.1-54.6,17.1-84.8
				c0-43.4-12.6-83.6-34.4-117.5c-21.8-33.9-52.8-61.5-89.4-79l31.7-66c48.9,23.4,90.2,60.1,119.3,105.4
				C1274.1,858.8,1291.1,912.9,1291.1,970.7z"/>
		</g>
		<g>
			<path class="st0" d="M353.7,1383.5h-50.5v133.4h50.5c39.1,0,67.6-28.2,67.6-66.8C421.3,1411.5,392.9,1383.5,353.7,1383.5z
				 M353,1490.1h-20.9v-79.8H353c22.9,0,38.8,16.3,38.8,39.7C391.8,1473.3,375.9,1490.1,353,1490.1z"/>
			<path class="st0" d="M545.6,1490v26.9h-82.2v-133.4h80.1v26.7h-51.2v26.3h46.3v26.1h-46.3v27.4L545.6,1490L545.6,1490z"/>
			<path class="st0" d="M704.9,1383.5l-50.4,133.4h-27.2L575,1383.5h31.9l33.7,94.3l32.7-94.3H704.9z"/>
			<path class="st0" d="M729.3,1473.6h29.1c0,12.9,10.6,19.1,22.4,19.1c10.9,0,21.5-5.7,21.5-15.7c0-10.3-12.1-13.2-26.6-16.6
				c-20.1-5-44.5-10.8-44.5-39.5c0-25.6,18.9-40,48.4-40c30.7,0,48.1,16.4,48.1,42.9h-28.5c0-11.5-9.5-16.9-20.3-16.9
				c-9.4,0-18.8,4-18.8,12.7c0,9.4,11.6,12.2,25.7,15.6c20.3,5.1,45.9,11.5,45.9,41.4c0,28.8-22.9,42.8-50.5,42.8
				C750.4,1519.5,729.3,1502.3,729.3,1473.6z"/>
			<path class="st0" d="M989.6,1383.5h-51.3v133.4h28.8v-41.6h22.5c26.8,0,47.1-19.6,47.1-45.9
				C1036.7,1403,1016.4,1383.5,989.6,1383.5z M988.4,1448.5h-21.2v-38.3h21.2c11.5,0,19.1,8.1,19.1,19.1
				C1007.5,1440.4,999.8,1448.5,988.4,1448.5z"/>
			<path class="st0" d="M1139.2,1380.5c-40.7,0-71.2,30-71.2,69.6s30.5,69.6,71.2,69.6c40.5,0,70.8-29.8,70.8-69.6
				C1210,1410.4,1179.7,1380.5,1139.2,1380.5z M1139.2,1492.5c-23.8,0-42-18.4-42-42.4c0-24,18.2-42.4,42-42.4
				c23.7,0,41.6,18.2,41.6,42.4C1180.8,1474.4,1162.9,1492.5,1139.2,1492.5z"/>
			<path class="st0" d="M1428.6,1383.5l-41.1,133.4h-25.7l-29.8-74.8l-28.9,74.8h-25.7l-42.1-133.4h30.6l26.2,88.6l35-87.3h9.7
				l36,87.2l25.6-88.6H1428.6z"/>
			<path class="st0" d="M1547.7,1490v26.9h-82.2v-133.4h80.1v26.7h-51.2v26.3h46.3v26.1h-46.3v27.4L1547.7,1490L1547.7,1490z"/>
			<path class="st0" d="M1667.3,1466.4c14.7-7.1,24.3-21.4,24.3-38.8c0-25.7-19.9-44.1-46.6-44.1h-53.8v133.4h28.8v-45.5h18.5
				l26,45.5h32.2L1667.3,1466.4z M1643,1444.7H1620v-34.5h23.1c12.1,0,19.3,7.3,19.3,17.3S1655.1,1444.7,1643,1444.7z"/>
		</g>
	</g>
	<g>
		<polygon class="st1" points="479,513 479,642 446,674 446,502.4 		"/>
		<polygon class="st1" points="1551.8,467.5 1359.5,403.5 999.9,286.1 444.4,468.8 1000,648 1555.6,468.8 		"/>
	</g>
	<g>
		<path class="st1" d="M849.7,1586.4c-11.5,0-28.9,11.8-28.9,28.4c0,16.6,16.9,22,21.8,17.2c-2.9-2.9-4.9-5.7-4.9-13.7
			c0-10,11.6-25.5,28.5-25.5h20.5c-5.2,17.2-34.5,109.2-63.9,109.2c-6.5,0-11.5-5.6-11.5-19.2c0-14.8,12.5-29.4,18.7-29.4
			c0-3.2-5.3-9.1-13.4-9.1c-14.6,0-29.5,19.6-29.5,38.5c0,19.4,14.3,31.2,33.7,31.2c61.6,0,84.9-127.5,84.9-127.5H849.7z"/>
		<path class="st1" d="M977.3,1662c0,0-2.9,6-6.9,13.2c-6.2,11.1-15.1,25.2-20.5,25.2c-5.2,0,9.6-52.1,15.9-61.1
			c0,0-4.8-5.6-12.7-5.6c-5.7,0-12.2,14.1-17.1,29.8c-3.5,7.1-18.8,36.9-26.6,36.9c-5.2,0,9.6-52.1,15.9-61.1c0,0-4.8-5.6-12.8-5.6
			c-10.7,0-24.2,49.4-24.2,66.3c0,8.5,6.1,13.8,13.8,13.8c10.2,0,20.4-13,27.9-25.7c-0.8,4.7-1.2,8.8-1.2,11.9
			c0,8.5,6,13.8,13.8,13.8c8.8,0,17.6-9.7,24.7-20.6c9-13.8,15.2-29.4,15.2-29.4L977.3,1662z"/>
		<path class="st1" d="M1063,1658.1c0,0-7.8,13-16.3,24.8c-7,9.6-14.5,18.4-18.8,18.4c-14.1,0,31.2-69.1-2-69.1
			c-14,0-27.2,22.9-35.1,40.1c3.9-15.9,8.7-31.2,12.2-34.7c0,0-3.5-3.8-11.2-3.8c-9.3,0-17.1,22-21.3,41.5c-1.4,6.7-2.5,13-2.9,18.1
			c-0.3,2.5-0.4,4.7-0.4,6.4c0,7.8,8.6,10.7,17,10.7c0-16.1,20.5-62.4,32.1-62.4c11.6,0-32.7,65.9,3.2,65.9
			c8.7,0,17.5-6.8,25.1-15.4c13.3-15.1,23.1-35.8,23.1-35.8L1063,1658.1z"/>
		<path class="st1" d="M1097.5,1652.6c0,0-6.6,13.5-14,26.2c-6.6,11.2-13.9,21.6-18,21.6c-5.2,0,10.2-53.7,16.5-62.7
			c0,0-4.8-5.6-12.7-5.6c-8.1,0-18.1,29.2-22.5,50.8c-1.2,6.1-2,11.5-2.2,15.5c0,0.6,0,1.1,0,1.6c0,8.5,6,13.8,13.8,13.8
			c8,0,16.8-9.6,24.4-21.1c11.4-17.1,20.2-38.4,20.2-38.4L1097.5,1652.6z M1083.1,1601.5c-5.4,0-9.8,4.4-9.8,9.8
			c0,5.4,4.4,9.7,9.8,9.7c5.4,0,9.7-4.4,9.7-9.7C1092.8,1605.9,1088.4,1601.5,1083.1,1601.5z"/>
		<path class="st1" d="M1163.1,1650.9c0,0-1.3,3.6-4.1,7.9c-3.3,5.2-8.7,11.3-16.6,13.4c1.8-6.1,2.8-12.4,2.8-18.6
			c0-14.3-8.9-21.5-19.8-21.5c-0.4,0-0.8,0-1.2,0c-20.1,1-36.6,25.4-40.7,46.6c-0.7,3.4-1,6.6-1,9.7c0,1.5,0.1,2.9,0.2,4.3
			c1.3,12.9,8.8,21.1,17.9,21.1c15.6,0,30.1-13.9,38.1-31.7c5-0.5,9.3-2,12.9-4.1c12.6-7.3,16.9-21.7,16.9-21.7L1163.1,1650.9z
			 M1108.1,1702.3c-4.4-1-5.3-8.9-2.5-20.9c1.2-5.1,3.2-10.7,5.7-16c2.9,7.8,8.9,14.5,18.6,16.4
			C1123.3,1694.2,1114.4,1703.8,1108.1,1702.3z M1136.6,1663.6c-0.7,3-1.7,6.1-2.8,9.1c-16.6-2.8-11.3-30.3-2-30.3
			c0.3,0,0.5,0,0.8,0.1C1136.7,1643.5,1139.2,1652,1136.6,1663.6z"/>
		<path class="st1" d="M1212.8,1645.3c-0.3-6-3.7-9.7-13.8-9.7c-5.4,0-11.1,5.7-16.2,13c0.2-1.5,0.3-2.8,0.3-4
			c-0.5-9-17.7-7.4-17.7-7.4c0.2,3.6-2.7,12-6.4,21.7c-2.4,6.2-5,12.9-7.4,19.2c-3.6,9.8-6.5,18.6-6.3,23
			c0.4,6.8,7.3,12.8,18.3,12.8c-0.4-7,2.8-17.2,6.7-27.9c4.7-12.6,19.6-39.7,27-39.7c7.5,0-25.5,32.5,10,32.5
			C1206.5,1663.9,1213.2,1653.6,1212.8,1645.3z"/>
	</g>
</g>
</svg>
