<svg enable-background="new 0 0 1772 1772" height="1772" viewBox="0 0 1772 1772" width="1772" xmlns="http://www.w3.org/2000/svg"><path d="m822.529 774.029h1.289v153.878h-1.289z" fill="#f0db4f"/><path d="m893.593 846.593h1.289v81.368h-1.289z" fill="#f0db4f"/><path d="m919.182 889.402h1.289v38.505h-1.289z" fill="#f0db4f"/><path d="m478.663 1716.061-47.763-192.573-48.068 192.572h-17.342l-47.154-208.088h14.908l41.678 194.395 47.764-194.395h16.428l48.372 194.395 41.677-194.395h13.995l-46.851 208.088h-17.644z"/><path d="m666.34 1681.682c0 18.864 4.565 24.337 13.387 27.686l-3.345 10.04c-13.083-3.347-20.689-10.648-22.211-27.987-11.56 18.553-28.291 27.987-50.197 27.987-30.422 0-48.676-19.166-48.676-47.457 0-32.859 25.25-51.11 64.496-51.11h32.552v-16.432c0-25.855-10.343-38.025-38.026-38.025-13.387 0-27.687 3.343-43.201 9.431l-3.957-11.258c17.037-6.694 32.249-10.346 48.372-10.346 35.291 0 50.806 17.344 50.806 49.286zm-13.994-4.258v-45.332h-30.42c-32.553 0-51.719 12.781-51.719 39.555 0 22.811 13.385 35.897 35.593 35.897 21.599 0 36.507-10.954 46.546-30.12z"/><path d="m807.479 1556.037-2.737 13.082c-3.956-1.216-8.517-1.824-13.994-1.824-22.817 0-34.986 16.428-43.81 49.591v99.175h-13.995v-158.808h12.169l.914 36.815c8.518-26.773 22.817-39.858 45.633-39.858 6.694 0 12.171.614 15.82 1.827z"/><path d="m929.151 1571.554-6.993 9.732c-13.692-10.34-25.253-15.211-41.984-15.211-21.906 0-37.421 10.953-37.421 28.903 0 16.428 10.953 23.729 40.156 31.639 35.296 9.43 50.501 20.384 50.501 47.459 0 27.987-24.033 45.331-55.367 45.331-25.556 0-41.981-8.82-55.672-20.382l7.91-9.13c13.69 10.954 27.076 17.344 47.458 17.344 23.729 0 41.072-11.864 41.072-32.556 0-20.685-9.131-27.986-42.896-37.112-33.771-8.821-47.461-20.686-47.461-42.897 0-23.728 22.209-40.464 51.415-40.464 19.472 0 34.38 5.783 49.282 17.344z"/><path d="m1079.116 1681.682c0 18.864 4.562 24.337 13.391 27.686l-3.349 10.04c-13.086-3.347-20.691-10.648-22.209-27.987-11.562 18.553-28.292 27.987-50.199 27.987-30.423 0-48.672-19.166-48.672-47.457 0-32.859 25.247-51.11 64.492-51.11h32.555v-16.432c0-25.855-10.346-38.025-38.029-38.025-13.39 0-27.683 3.343-43.199 9.431l-3.955-11.258c17.036-6.694 32.247-10.346 48.37-10.346 35.29 0 50.805 17.344 50.805 49.286v78.185zm-13.991-4.258v-45.332h-30.423c-32.556 0-51.718 12.781-51.718 39.555 0 22.811 13.385 35.897 35.594 35.897 21.597 0 36.505-10.954 46.547-30.12z"/><path d="m1251.292 1716.061-38.03-145.418-38.029 145.418h-18.553l-40.77-158.808h14.907l35.594 147.246 38.942-147.246h16.425l38.941 147.55 35.29-147.55h13.693l-39.549 158.808z"/><path d="m1361.367 1688.073c0 37.113-13.384 51.109-47.458 64.188l-4.867-13.383c27.685-12.169 34.076-23.427 34.076-51.718v-179.498h18.249z"/><path d="m1534.764 1527.442-10.954 11.865c-15.207-13.693-29.203-19.471-48.368-19.471-25.558 0-43.201 13.384-43.201 35.291 0 21.293 11.258 31.031 48.674 42.287 37.421 11.561 60.239 24.945 60.239 61.753 0 35.6-27.075 60.239-69.06 60.239-28.596 0-49.592-10.04-66.625-26.163l10.952-11.866c14.604 13.693 31.03 22.514 55.368 22.514 29.207 0 50.806-16.122 50.806-44.111 0-25.253-12.473-35.599-49.59-47.159-41.372-12.775-59.324-27.076-59.324-57.189 0-29.514 24.642-51.11 61.152-51.11 27.075-.001 43.502 8.517 59.931 23.12z"/><path d="m571.02 566.348c66.458-46.284 109.993-123.208 109.993-210.341 0-141.495-114.708-256.203-256.205-256.203-141.5 0-256.201 114.708-256.201 256.203 0 141.5 114.701 256.209 256.201 256.209 17.075 0 33.745-1.713 49.881-4.898 28.366 20.704 94.738 58.922 194.924 55.478 0 0-92.292-3.865-98.593-96.448" fill="#f7302f"/><path d="m338.314 246.982v77.172c0 19.117-10.727 27.107-26.819 27.107v26.419c16.092 0 26.819 7.304 26.819 26.421v77.167c0 36.494 16.092 51.793 59.004 51.793v-24.681c-21.457 0-32.185-6.259-32.185-23.638v-83.078c0-25.377-9.729-31.631-26.067-37.194 16.338-5.561 26.067-12.515 26.067-37.892v-83.075c0-17.38 10.728-23.64 32.185-23.64v-24.677c-42.911.003-59.004 15.299-59.004 51.796" fill="#fff"/><path d="m515.325 323.386v-77.171c0-36.495-16.091-51.788-64.367-51.788v24.68c21.455 0 32.183 6.254 32.183 23.632v83.083c0 25.371 9.73 32.323 26.071 37.885-16.34 5.562-26.071 11.823-26.071 37.194v83.076c0 17.385-10.728 23.639-32.183 23.639v24.678c48.276 0 64.367-15.29 64.367-51.787v-77.174c0-19.117 5.364-26.421 21.455-26.421v-26.411c-16.091 0-21.455-7.998-21.455-27.115" fill="#fff"/><path d="m643.166 1197.928h14.767v206.537h-14.767z" fill="#f0db4f"/><path d="m617.24 1197.912h14.766v206.553h-14.766z" fill="#f0db4f"/><path d="m577.471 1197.928h27.653v206.537h-27.653z" fill="#f7302f"/><path d="m1100.893 968.012h13.765v436.453h-13.765z" fill="#f0db4f"/><path d="m1213.277 1197.912h13.762v206.553h-13.762z" fill="#f0db4f"/><path d="m1169.827 968.012h25.965v436.453h-25.965z" fill="#f0db4f"/><path d="m694.778 968.012h25.967v436.453h-25.967z" fill="#f0db4f"/><path d="m777.726 579.383h27.653v825.082h-27.653z" fill="#f0db4f"/><path d="m826.436 579.383h27.649v825.082h-27.649z" fill="#f0db4f"/><path d="m1061.081 579.357h27.647v825.092h-27.647z" fill="#f0db4f"/><path d="m1130.263 968.012h27.651v436.453h-27.651z" fill="#f7302f"/><path d="m737.771 968.012h27.653v436.453h-27.653z" fill="#f7302f"/><path d="m923.935 18.598h25.316v1385.867h-25.316z" fill="#f7302f"/><g fill="#f0db4f"><path d="m964.363 313.483h27.652v1090.981h-27.652z"/><path d="m1007.914 579.357h13.767v825.108h-13.767z"/><path d="m1037.059 579.354h13.767v825.095h-13.767z"/><path d="m898.718 313.483h13.766v1090.981h-13.766z"/><path d="m870.244 313.483h13.765v1090.981h-13.765z"/><path d="m1240.862 1197.912h20.737v206.553h-20.737z"/><path d="m1273.879 1197.912h13.766v206.559h-13.766z"/><path d="m551.624 1197.928h13.765v206.537h-13.765z"/><path d="m669.54 1197.928h13.768v206.537h-13.768z"/><path d="m1299.521 1197.912h30.218v206.553h-30.218z"/><path d="m507.281 1197.928h30.22v206.537h-30.22z"/><path d="m1344.553 1197.912h13.824v206.553h-13.824z"/></g></svg>