<?xml version="1.0" encoding="UTF-8"?>
<svg width="600px" height="400px" viewBox="0 0 600 400" version="1.1" xmlns="http://www.w3.org/2000/svg" xmlns:xlink="http://www.w3.org/1999/xlink">
    <!-- Generator: Sketch 57.1 (83088) - https://sketch.com -->
    <title>Artboard</title>
    <desc>Created with Sketch.</desc>
    <g id="Artboard" stroke="none" stroke-width="1" fill="none" fill-rule="evenodd">
        <rect id="Rectangle" fill="#FFFFFF" x="0" y="0" width="600" height="400"></rect>
        <g id="ReactiveConf_vertical_color_pos_RGB" transform="translate(108.000000, 20.000000)" fill-rule="nonzero">
            <g id="Group" transform="translate(241.276521, 301.942632)" fill="#41B983">
                <path d="M123.886473,0.568551156 C122.712895,0.259391165 120.55339,0.136342412 119.010666,0.136342412 C109.938897,0.136342412 105.309187,3.84010986 105.309187,11.6783154 L105.309187,13.7132341 C105.309187,13.9608698 105.184601,14.0854566 104.940041,14.0854566 L100.864051,14.0854566 C100.494905,14.0854566 100.247269,14.330016 100.247269,14.7022385 L100.247269,22.540444 C100.247269,22.9095903 100.494905,23.158764 100.864051,23.158764 L104.940041,23.158764 C105.184601,23.158764 105.309187,23.2802747 105.309187,23.5279103 L105.309187,46.0550607 C105.309187,46.4242069 105.556823,46.6733806 105.925969,46.6733806 L115.739107,46.6733806 C116.109792,46.6733806 116.355889,46.4242069 116.355889,46.0550607 L116.355889,23.5279103 C116.355889,23.2802747 116.480476,23.158764 116.728112,23.158764 L121.726967,23.158764 C122.096114,23.158764 122.343749,22.9095903 122.343749,22.540444 L122.343749,14.7022385 C122.343749,14.330016 122.096114,14.0854566 121.726967,14.0854566 L116.728112,14.0854566 C116.480476,14.0854566 116.355889,13.9608698 116.355889,13.7132341 L116.355889,12.8503548 C116.355889,10.4432136 117.467942,9.14658732 121.045585,9.14658732 L123.761886,9.14658732 C124.134108,9.14658732 124.317144,8.90048981 124.317144,8.59132982 L124.317144,1.30684367 C124.317144,0.937697414 124.257157,0.690061799 123.886473,0.568551156 M86.4242802,13.3440879 C82.2867659,13.3440879 79.0782696,14.6407141 76.918764,17.4800641 C76.609604,17.8492103 76.3635065,17.787686 76.3635065,17.4185397 L76.3635065,14.7022385 C76.3635065,14.330016 76.1143328,14.0854566 75.7451865,14.0854566 L65.9320485,14.0854566 C65.5613642,14.0854566 65.3137285,14.330016 65.3137285,14.7022385 L65.3137285,46.0550607 C65.3137285,46.4242069 65.5613642,46.6733806 65.9320485,46.6733806 L75.7451865,46.6733806 C76.1143328,46.6733806 76.3635065,46.4242069 76.3635065,46.0550607 L76.3635065,30.5647608 C76.3635065,28.8989883 76.4880934,27.3547265 76.7957153,26.181149 C77.5355459,23.3433371 79.5720027,22.1097734 82.2867659,22.1097734 C86.2366308,22.1097734 86.8549508,24.0831678 86.8549508,28.2822065 L86.8549508,46.0550607 C86.8549508,46.4242069 87.1025864,46.6733806 87.4717327,46.6733806 L97.2864088,46.6733806 C97.655555,46.6733806 97.9031907,46.4242069 97.9031907,46.0550607 L97.9031907,25.9965759 C97.9031907,17.787686 96.1743557,13.3440879 86.4242802,13.3440879 M43.9001694,38.6490639 C39.3935088,38.6490639 37.849247,36.1188739 37.849247,30.3786496 C37.849247,24.9475853 39.3319844,22.1097734 43.9001694,22.1097734 C48.4052918,22.1097734 49.9480156,24.887599 49.9480156,30.3786496 C49.9480156,35.9327626 48.3437675,38.6490639 43.9001694,38.6490639 M43.9001694,13.3440879 C31.678352,13.3440879 26.4333989,18.5290547 26.4333989,30.3171252 C26.4333989,42.1667201 31.678352,47.4132113 43.9001694,47.4132113 C56.1189105,47.4132113 61.3669398,42.1667201 61.3669398,30.3171252 C61.3669398,18.5290547 56.1189105,13.3440879 43.9001694,13.3440879 M17.423154,14.1423667 C19.4011627,14.1423667 21.9959533,14.3930785 23.341799,14.7007004 C23.6478828,14.7591485 23.8985946,14.7007004 23.9555047,14.3346304 L25.3782559,5.57355917 C25.4351659,5.18903182 25.2628977,5.01676356 24.8983658,4.9583154 C22.6681071,4.26616617 19.3257954,3.95854429 16.4233829,3.95854429 C9.39114672,3.95854429 4.10620279,5.57355917 0.513179217,8.95432364 L0.513179217,42.6589151 C4.06928817,45.8874067 9.31424125,47.4055207 16.3095628,47.4055207 C19.4011627,47.4055207 22.8603708,47.0978988 24.8983658,46.4841932 C25.2059876,46.3672969 25.4351659,46.116585 25.3782559,45.6951431 L24.2631266,37.047892 C24.2046784,36.6064546 23.8985946,36.4895583 23.5909728,36.5495445 C22.1113115,36.9909819 19.3257954,37.2986038 17.3647059,37.2986038 C9.2742504,37.2986038 6.48873426,34.1470176 6.48873426,25.998114 C6.48873426,17.7938384 9.14043488,14.1423667 17.423154,14.1423667" id="Shape"></path>
            </g>
            <g id="Group" transform="translate(18.612113, 296.717675)" fill="#1A133E">
                <path d="M223.863584,0.640842298 L222.505434,0.640842298 C222.134749,0.640842298 221.888652,0.888477913 221.888652,1.25762417 L221.888652,61.7453147 C221.888652,62.114461 222.134749,62.3620966 222.505434,62.3620966 L223.863584,62.3620966 C224.234269,62.3620966 224.480366,62.114461 224.480366,61.7453147 L224.480366,1.25762417 C224.480366,0.888477913 224.234269,0.640842298 223.863584,0.640842298 L223.863584,0.640842298 Z M138.107832,19.3104143 L131.257093,19.3104143 C131.010996,19.3104143 130.887947,19.1858274 130.887947,18.9381918 L130.887947,11.4722087 C130.887947,11.0999863 130.640311,10.8538888 130.269627,10.8538888 L128.234708,10.8538888 C127.862486,10.8538888 127.616388,11.0999863 127.616388,11.4722087 L127.616388,18.9381918 C127.616388,19.1858274 127.493339,19.3104143 127.245704,19.3104143 L122.246848,19.3104143 C121.876164,19.3104143 121.628528,19.5549737 121.628528,19.9271962 L121.628528,21.5314443 C121.628528,21.9005905 121.876164,22.1482261 122.246848,22.1482261 L127.245704,22.1482261 C127.493339,22.1482261 127.616388,22.3327993 127.616388,22.5189105 L127.616388,44.429279 C127.616388,50.2925521 129.283699,52.2044221 134.282554,52.2044221 C135.393069,52.2044221 137.058842,52.0829114 138.107832,51.8968002 C138.355468,51.8352758 138.601566,51.6491646 138.601566,51.3415427 L138.601566,49.9234058 C138.601566,49.6142458 138.418531,49.4281346 138.046308,49.4281346 L134.899336,49.4281346 C131.69084,49.4281346 130.887947,48.1330465 130.887947,44.0601328 L130.887947,22.5189105 C130.887947,22.3327993 131.010996,22.1482261 131.257093,22.1482261 L138.107832,22.1482261 C138.480055,22.1482261 138.726152,21.9005905 138.726152,21.5314443 L138.726152,19.9271962 C138.726152,19.5549737 138.480055,19.3104143 138.107832,19.3104143 L138.107832,19.3104143 Z M147.427237,5.54433509 C145.761465,5.54433509 144.463301,6.77943694 144.463301,8.50827192 C144.463301,10.2355688 145.761465,11.4722087 147.427237,11.4722087 C149.156072,11.4722087 150.389636,10.2355688 150.389636,8.50827192 C150.389636,6.77943694 149.156072,5.54433509 147.427237,5.54433509 L147.427237,5.54433509 Z M148.537752,19.3104143 L141.625489,19.3104143 C141.254804,19.3104143 141.007169,19.5549737 141.007169,19.9271962 L141.007169,21.5314443 C141.007169,21.9005905 141.254804,22.1482261 141.625489,22.1482261 L145.513829,22.1482261 C145.761465,22.1482261 145.884514,22.3327993 145.884514,22.5189105 L145.884514,51.2800183 C145.884514,51.6491646 146.130611,51.8968002 146.502834,51.8968002 L148.537752,51.8968002 C148.908437,51.8968002 149.156072,51.6491646 149.156072,51.2800183 L149.156072,19.9271962 C149.156072,19.5549737 148.908437,19.3104143 148.537752,19.3104143 L148.537752,19.3104143 Z M119.530547,49.3066239 C119.469023,48.9959258 119.161401,48.9328634 118.913765,48.9959258 C117.371041,49.4281346 115.580682,49.7372946 113.482701,49.7372946 C104.286345,49.7372946 100.768688,45.1691096 100.768688,35.6651316 C100.768688,26.222678 104.409393,21.4699199 113.359652,21.4699199 C115.334585,21.4699199 117.18493,21.7144793 118.606143,22.1482261 C118.913765,22.2097505 119.161401,22.0867018 119.222925,21.8390661 L119.592071,19.9887205 C119.655134,19.6795605 119.530547,19.4934493 119.161401,19.3719387 C117.740188,18.8766674 115.394571,18.5675074 113.29659,18.5675074 C102.929732,18.5675074 97.4356054,23.9385855 97.4356054,35.6651316 C97.4356054,47.8238865 102.929732,52.6381689 113.29659,52.6381689 C115.519158,52.6381689 117.740188,52.3920714 119.530547,51.7737514 C119.901231,51.6491646 119.962756,51.4030671 119.901231,51.0939071 L119.530547,49.3066239 Z M182.791449,19.3104143 L180.754992,19.3104143 C180.321245,19.3104143 180.136672,19.433463 180.013623,19.9271962 C176.9897,28.9989654 171.681685,42.9480797 169.397592,48.2545571 C169.276081,48.5021927 169.151495,48.5637171 168.903859,48.5637171 C168.719286,48.5637171 168.596237,48.5021927 168.47165,48.2545571 C166.126033,42.8865553 160.879542,28.9989654 157.857157,19.8656718 C157.73257,19.433463 157.484935,19.3104143 157.115789,19.3104143 L154.831696,19.3104143 C154.524074,19.3104143 154.399487,19.5549737 154.399487,19.8026093 C154.399487,19.9887205 154.46255,20.1717556 154.524074,20.4824537 C156.746642,26.9609705 162.176168,41.4053559 166.436732,51.2800183 C166.619767,51.7106889 166.867402,51.8968002 167.299611,51.8968002 L170.323534,51.8968002 C170.817267,51.8968002 171.063365,51.7106889 171.311,51.2800183 C175.570025,41.4053559 181.185663,26.1611536 183.223658,20.2963424 C183.285182,19.9887205 183.346706,19.8656718 183.346706,19.7410849 C183.346706,19.4934493 183.162133,19.3104143 182.791449,19.3104143 L182.791449,19.3104143 Z M76.6972763,49.7372946 C70.4648569,49.7372946 67.4393957,48.379144 67.4393957,42.9480797 C67.4393957,37.0832685 70.4017945,35.7897185 76.9449119,35.7897185 C84.2263218,35.7897185 86.0782055,36.7756466 86.0782055,41.589929 C86.0782055,47.3916777 82.9312337,49.7372946 76.6972763,49.7372946 L76.6972763,49.7372946 Z M93.6087892,49.6142458 L91.5092699,49.6142458 C89.472813,49.6142458 89.163653,48.7498283 89.163653,46.5287984 L89.163653,29.2466011 C89.163653,21.2838087 85.4629618,18.5675074 76.2035431,18.5675074 C74.290135,18.5675074 71.8829938,18.8151431 70.155697,19.0627787 C69.846537,19.124303 69.6004395,19.3104143 69.6004395,19.6795605 L69.6004395,21.345333 C69.6004395,21.7144793 69.9711238,21.9005905 70.2772076,21.8390661 C72.1921538,21.654493 74.0440375,21.4699199 76.2035431,21.4699199 C83.8571756,21.4699199 85.8936324,23.6294255 85.8936324,30.2325292 L85.8936324,34.4315679 C85.8936324,34.6792035 85.7090593,34.8007141 85.522948,34.6792035 C83.3003799,33.3810391 80.5856168,33.0718791 76.5742275,33.0718791 C69.1666926,33.0718791 64.167837,34.9237629 64.167837,42.9480797 C64.167837,50.7247608 69.1067063,52.6381689 76.5742275,52.6381689 C81.6346075,52.6381689 84.5985443,50.9723964 86.2027924,48.4406683 C86.3258412,48.1945708 86.5104143,48.3160815 86.5104143,48.5021927 C86.633463,51.2184939 87.9931518,52.2044221 90.7079149,52.2044221 C91.6953811,52.2044221 92.6828473,52.1444358 93.6703136,51.8968002 C93.9779355,51.8352758 94.2255711,51.6491646 94.2255711,51.2184939 L94.2255711,50.0449165 C94.2255711,49.7372946 93.9779355,49.6142458 93.6087892,49.6142458 L93.6087892,49.6142458 Z M11.5214282,31.5906798 L4.30000458,31.5906798 C4.05236896,31.5906798 3.92932021,31.467631 3.92932021,31.2215335 L3.92932021,13.1995056 C3.92932021,12.95187 4.05236896,12.8288212 4.30000458,12.8288212 L11.0892195,12.8288212 C18.3721675,12.8288212 21.457615,15.2974868 21.457615,21.9005905 C21.457615,28.7513298 18.8043763,31.5906798 11.5214282,31.5906798 L11.5214282,31.5906798 Z M17.81691,33.8747723 C17.6938613,33.688661 17.6938613,33.5656123 18.0030213,33.4425635 C22.56813,31.776791 24.8522225,28.4437079 24.8522225,21.654493 C24.8522225,12.95187 19.6072694,9.92640879 11.5214282,9.92640879 L1.21455711,9.92640879 C0.84387274,9.92640879 0.596237125,10.1740444 0.596237125,10.5431907 L0.596237125,51.2800183 C0.596237125,51.6491646 0.84387274,51.8968002 1.21455711,51.8968002 L3.31253834,51.8968002 C3.68322271,51.8968002 3.92932021,51.6491646 3.92932021,51.2800183 L3.92932021,34.8007141 C3.92932021,34.5546166 4.05236896,34.4315679 4.30000458,34.4315679 L13.8670451,34.4315679 C14.174667,34.4315679 14.3607782,34.4930922 14.5453513,34.8007141 C16.1511376,36.9602197 21.766775,46.0335271 24.9768093,51.4661295 C25.2229068,51.8352758 25.4705425,51.8968002 25.7781643,51.8968002 L28.4329412,51.8968002 C28.8020874,51.8968002 28.9266743,51.6491646 28.7421012,51.3415427 C25.4705425,45.9120165 19.9148913,37.0832685 17.81691,33.8747723 L17.81691,33.8747723 Z M55.8989609,33.505626 L35.4067292,33.505626 C35.1606317,33.505626 35.037583,33.3810391 35.037583,33.1334035 C35.3452049,27.5792905 37.5677729,21.4083955 46.0227604,21.4083955 C53.8609659,21.4083955 56.2681071,25.6658824 56.2681071,33.1334035 C56.2681071,33.3810391 56.2065827,33.505626 55.8989609,33.505626 L55.8989609,33.505626 Z M46.2088716,18.5675074 C36.148098,18.5675074 31.7029618,25.3567224 31.7029618,35.5405447 C31.7029618,47.3286152 36.6418311,52.6381689 47.380911,52.6381689 C51.6999222,52.6381689 54.9099565,51.8968002 56.9464134,50.9723964 C57.2555734,50.8493477 57.3786221,50.5386496 57.2555734,50.2310277 L56.8233646,48.4406683 C56.7618402,48.1330465 56.392694,48.0084596 56.0204715,48.1945708 C53.9240284,49.1820371 50.5294209,49.7372946 47.6270085,49.7372946 C38.9874479,49.7372946 35.037583,45.6013184 34.9745205,36.7141222 C34.9745205,36.4049622 35.0975692,36.2834516 35.3452049,36.2834516 L58.7383108,36.2834516 C59.0459327,36.2834516 59.2305058,36.1588647 59.2920302,35.7897185 C59.415079,35.0483497 59.415079,34.3685054 59.415079,33.4425635 C59.415079,25.3567224 56.8233646,18.5675074 46.2088716,18.5675074 L46.2088716,18.5675074 Z M210.56509,33.505626 L190.074397,33.505626 C189.828299,33.505626 189.705251,33.3810391 189.705251,33.1334035 C190.012873,27.5792905 192.235441,21.4083955 200.690428,21.4083955 C208.527095,21.4083955 210.935775,25.6658824 210.935775,33.1334035 C210.935775,33.3810391 210.87425,33.505626 210.56509,33.505626 L210.56509,33.505626 Z M200.876539,18.5675074 C190.815766,18.5675074 186.372168,25.3567224 186.372168,35.5405447 C186.372168,47.3286152 191.309499,52.6381689 202.048579,52.6381689 C206.369128,52.6381689 209.579162,51.8968002 211.615619,50.9723964 C211.921703,50.8493477 212.04629,50.5386496 211.921703,50.2310277 L211.491032,48.4406683 C211.429508,48.1330465 211.060362,48.0084596 210.691215,48.1945708 C208.590158,49.1820371 205.19555,49.7372946 202.294676,49.7372946 C193.655116,49.7372946 189.705251,45.6013184 189.643726,36.7141222 C189.643726,36.4049622 189.766775,36.2834516 190.012873,36.2834516 L213.40444,36.2834516 C213.712062,36.2834516 213.898173,36.1588647 213.961236,35.7897185 C214.085823,35.0483497 214.085823,34.3685054 214.085823,33.4425635 C214.085823,25.3567224 211.491032,18.5675074 200.876539,18.5675074 L200.876539,18.5675074 Z" id="Shape"></path>
            </g>
            <g id="Group" transform="translate(0.022522, 16.331865)" fill="#1A133E">
                <path d="M331.531243,145.207745 C331.471257,145.604578 331.422037,146.006024 331.371279,146.412085 C331.283607,147.107311 331.195935,147.808688 331.068272,148.434699 C330.962142,148.823841 330.86678,149.222211 330.771417,149.620581 C330.606839,150.292735 330.446876,150.97258 330.233079,151.5909 C330.088496,151.970813 329.954681,152.361492 329.819327,152.752172 C329.590149,153.410483 329.364047,154.076484 329.085649,154.667118 C328.887233,155.037803 328.704198,155.416178 328.518087,155.797629 C328.196622,156.459016 327.890538,157.083488 327.502934,157.687965 C322.447169,165.996832 312.773999,172.321538 299.521648,175.9807 C293.290767,177.734145 286.310826,178.886189 278.737176,179.435294 C293.040055,158.175546 300.229178,132.155349 298.08813,106.730401 C298.077363,106.598123 298.066596,106.465846 298.054292,106.33203 C298.029682,106.027485 297.99892,105.721401 297.969696,105.416855 C297.946624,105.17691 297.922014,104.936965 297.898943,104.698558 C297.871257,104.446308 297.845109,104.194058 297.817423,103.941808 C297.783584,103.640339 297.748208,103.337331 297.712831,103.035862 C297.686683,102.828217 297.662074,102.62211 297.635926,102.416004 C297.589783,102.037629 297.537487,101.660792 297.485191,101.280879 C297.468272,101.143987 297.449815,101.005557 297.429819,100.867127 C297.354452,100.338018 297.276008,99.8073701 297.19295,99.2782605 C296.439277,94.1425132 295.348757,89.0605997 293.932158,84.0755871 C296.530025,86.19664 299.012534,88.3038499 301.279707,90.3772213 C306.38623,95.0807599 310.743694,99.5935729 314.233664,103.79415 C322.26721,113.390414 327.778256,123.055894 330.168478,131.746212 C331.420499,136.263639 331.877317,140.813367 331.531243,145.207745 M255.544024,190.131307 C247.505864,197.558837 238.331041,203.765109 228.450227,208.462495 C206.359899,204.667979 182.934493,197.975665 159.4168,188.642417 C135.397684,179.239954 112.329119,167.411893 91.9414786,154.271824 C86.3704463,139.633637 83.97561,123.651142 85.9074754,108.010108 C91.1324331,113.116631 96.9987823,118.215463 103.431156,123.2297 C121.973065,137.643323 144.698631,150.864912 169.148418,161.465562 C181.760916,166.947384 194.622586,171.661689 207.371975,175.479277 C220.193655,179.361465 232.864601,182.306944 245.029508,184.234195 C250.034516,185.02786 254.927242,185.644642 259.690767,186.083003 C258.347997,187.473454 256.965237,188.822376 255.544024,190.131307 M213.138347,214.344225 C197.348116,218.761675 180.56119,219.256947 164.535628,215.945397 C148.590048,212.347759 133.371994,205.144793 120.822559,194.596439 C112.518306,187.510369 105.350716,179.106139 99.6612497,169.780581 C107.762472,174.328771 115.519158,178.326317 123.158947,181.893193 C135.697615,187.81799 147.202673,192.619968 158.309361,196.55599 C178.941561,204.003516 199.376883,209.389975 218.594022,212.55848 C216.791357,213.202948 214.973312,213.799734 213.138347,214.344225 M33.4287205,103.591119 C29.0574136,97.9754818 25.352108,92.467512 22.4220096,87.2302495 C16.8955825,76.94645 14.0746899,67.6670359 14.0162417,59.5658137 C13.9162646,58.2538064 14.0393133,56.941799 14.1577478,55.6774731 C14.2161959,55.0606912 14.2715679,54.4500618 14.2931014,53.9547906 L14.4884413,52.8581186 C14.7422293,51.4030671 14.9821744,50.0295354 15.4636027,48.6406226 C15.7604578,47.4193637 16.2880293,46.215024 16.7971435,45.0506752 C16.9709499,44.6569192 17.1432181,44.2631632 17.2601144,43.96477 L17.7476951,43.0849714 C18.4152346,41.8714031 19.0473976,40.7224353 19.8918196,39.621149 C21.8298375,36.8663951 24.1693019,34.40542 26.8533028,32.2982101 C29.709572,30.0110414 32.6535134,28.1468528 35.8727764,26.5856718 C47.9146349,20.431696 64.7553948,17.3093339 84.6539162,17.5585077 C89.8650309,17.6169558 95.2684092,17.899968 100.813294,18.4029297 C89.500499,20.1763699 80.0795789,23.4463905 72.8058595,28.1253193 C64.4293156,33.47794 59.0997665,40.8408698 57.4016938,49.4112154 C55.4175326,58.8905837 58.1538293,70.3510369 65.3106523,82.5482444 C68.4068666,87.8531838 72.3982605,93.3073198 77.1894713,98.807599 C76.7203479,101.0194 76.3265919,103.248121 76.0143557,105.490684 C74.0332708,118.450794 74.7515679,131.758517 77.6939712,144.558663 C67.2394415,137.012699 57.7231586,129.151421 49.4358251,121.159405 C43.9770748,115.94829 38.8890089,110.358801 33.4287205,103.591119 M125.536864,30.5555322 C124.963149,30.9016068 124.394049,31.2507576 123.828025,31.6060609 C113.568835,38.0430488 104.41247,46.2719341 97.0541543,56.0173953 C97.0295445,56.0481575 97.0049348,56.0804578 96.9787869,56.11122 C96.7034653,56.4526802 96.4296818,56.7987549 96.1605127,57.1448295 C96.0343877,57.3078691 95.9082628,57.4709087 95.7821378,57.6354864 C95.6360174,57.8262119 95.4914351,58.0184756 95.3468528,58.2107393 C90.4679698,64.701561 86.6273106,71.9291371 83.2773083,79.3259052 C81.5130968,83.6418402 79.9749874,88.0577523 78.7260426,92.5567224 C75.9805173,88.8775647 73.5856809,85.1999451 71.5738338,81.5530877 C65.6044312,70.6186679 63.4818402,60.0887709 65.4337011,51.1031357 C67.1425406,43.4187411 71.9122179,36.978677 79.6073793,31.9629023 C86.4719615,27.5223804 95.4560586,24.4461616 106.308959,22.8219181 C111.549297,22.0328679 117.141863,21.5822019 123.035898,21.471458 C127.72098,22.3281849 132.486043,23.3264179 137.303401,24.4600046 C133.404294,26.1780728 129.605164,28.1314717 125.936773,30.314049 C125.802957,30.3940307 125.67068,30.4755505 125.536864,30.5555322 M336.488569,133.021305 C332.826331,123.288148 326.292442,113.161236 317.065324,102.922042 C310.18536,95.279176 302.031843,87.7839689 292.870863,80.5533165 C289.365512,69.5358389 284.242069,59.06439 277.597436,49.658851 C270.208359,39.1950927 261.139666,29.9833555 250.891243,22.4404669 C247.722737,20.1086931 244.440412,17.9338064 241.059648,15.9342641 C240.10602,15.369778 239.144701,14.8191348 238.175692,14.2807965 C213.42905,0.53317464 183.805063,-3.30287022 156.757409,2.87725338 C149.862065,4.45227741 143.134374,6.67945983 136.697386,9.55726253 C136.698924,9.55726253 136.698924,9.55726253 136.700462,9.55572442 C136.700462,9.55726253 136.698924,9.55726253 136.698924,9.55726253 C148.411627,5.35360952 160.733422,3.08028382 173.049064,2.73113298 C194.973275,2.10819867 216.874415,7.58386816 235.284047,19.1166125 C235.308656,19.1319936 235.333266,19.1473747 235.359414,19.1642939 C249.77919,27.9422843 262.190195,39.8518654 271.340407,53.8748089 C274.248972,58.3368643 276.825306,63.0081025 279.047874,67.8316136 C283.814475,78.1753994 286.95837,89.2282536 288.279606,100.454914 C288.339593,100.933266 288.396503,101.411618 288.450336,101.888432 C288.464179,102.009943 288.476484,102.129915 288.490327,102.251426 C288.525704,102.594424 288.56108,102.938961 288.594919,103.283497 C288.611838,103.454228 288.627219,103.624958 288.644138,103.795688 C288.670286,104.081776 288.694896,104.367864 288.719506,104.653953 C288.736425,104.856983 288.753344,105.060014 288.768725,105.263044 C288.78103,105.415317 288.791797,105.569128 288.802564,105.722939 C288.850245,106.385864 288.893312,107.048789 288.928688,107.713252 L288.928688,107.720943 C289.473179,118.229306 288.345745,128.777661 285.74634,138.944564 C285.757107,138.946102 285.769412,138.949178 285.780179,138.950716 C281.97182,153.85192 274.959579,167.914855 265.281794,179.781369 C258.317235,179.65832 250.986606,179.098448 243.377578,178.095601 C231.90482,176.594406 219.87219,174.11805 207.619611,170.740362 C195.176306,167.264234 182.720696,162.903694 170.601932,157.780252 C146.630497,147.610272 124.595541,134.802435 106.879597,120.742577 C99.3013321,114.770098 92.5567224,108.55306 86.7841978,102.251426 C88.460737,92.9950835 91.4139071,83.9433097 95.6267887,75.5021653 C95.6375555,75.5113939 95.6483223,75.5206226 95.659089,75.5298512 C97.7924468,71.2539071 100.219583,67.119469 102.986642,63.2049805 C103.018943,63.1588373 103.052781,63.1111559 103.085081,63.0650126 C103.461918,62.5343648 103.843369,62.0083314 104.234049,61.4853742 C104.24174,61.4746075 104.247892,61.4638407 104.255583,61.454612 C117.411032,43.1834104 137.427988,30.0202701 159.436796,24.5676722 C169.303767,22.1236164 179.56911,21.2268986 189.799075,22.117464 C190.323571,22.1620691 190.848066,22.2128267 191.371023,22.2681987 C208.074891,24.0277958 224.521895,30.0018128 238.249522,40.1517967 C241.334969,42.1282673 243.960522,44.6769146 246.727581,47.0732891 C247.193628,47.4762737 247.662751,47.8761822 248.139565,48.2684001 C249.165484,49.4127535 250.246775,50.5155779 251.326528,51.6230167 C252.749279,53.0796063 254.165878,54.5454246 255.451737,56.1235248 C255.894713,56.6680156 256.323845,57.2248112 256.729906,57.8000641 C257.465122,58.6475624 258.171115,59.5150561 258.855573,60.3979309 C261.405759,63.6940993 263.628327,67.2286748 265.669398,70.8816846 C267.290565,73.7825589 268.800989,76.7572625 270.269883,79.7458091 C266.833747,70.0249577 261.682618,60.9654932 255.217945,52.8996475 C244.615756,39.6734447 230.475917,29.1173999 214.541103,22.6881025 C214.514955,22.6773358 214.488808,22.6681071 214.46266,22.6573404 C213.335225,22.2035981 212.200101,21.7729274 211.057285,21.3607141 C204.930996,19.1566033 198.569375,17.5538933 192.061634,16.6402564 C189.129998,16.2126619 186.181442,15.9296498 183.228272,15.7819913 C172.644541,15.2513436 161.991595,16.494136 151.743172,19.3165667 C146.827375,18.5767361 141.954644,17.9799496 137.155743,17.5661982 C131.718526,17.1186084 126.499721,16.8986587 121.514708,16.9001968 C118.052424,16.2326574 114.637821,15.6420233 111.281666,15.1298329 C100.607187,13.4794415 90.2064912,12.5135088 80.3595148,12.2535683 C58.7798398,11.7275349 40.14103,14.8375921 26.3718746,21.2453559 C9.48804761,29.1604669 0.180947585,42.1713344 0.114808881,57.9600275 C0.119423209,78.3445914 13.6963149,102.382165 38.6259922,125.821415 C51.3230854,137.818668 65.9335866,149.083781 82.1790982,159.3845 C88.7898924,176.272941 99.7996796,191.374099 113.533458,203.231385 C127.44412,215.039451 144.329485,223.191431 162.111568,227.247425 C180.001318,230.868135 198.747796,230.209824 216.285319,225.18482 C224.457295,222.700774 232.353948,219.346157 239.790707,215.190185 C246.356896,215.722371 252.715441,215.95924 258.810968,215.883873 C268.018091,215.773129 276.617661,214.962545 284.438947,213.425974 L284.020581,211.467961 C272.44477,212.487727 259.923021,212.301616 246.755267,210.972689 C252.560092,207.175097 258.024994,202.8607 263.04846,198.061799 C266.718389,194.567214 270.139144,190.818842 273.293806,186.861286 C274.621195,186.888972 275.93474,186.899739 277.234443,186.896663 C287.899693,186.862824 297.622083,185.781534 306.086299,183.654328 C321.078251,179.779831 331.555853,172.652232 336.377826,163.052891 C340.727599,154.740948 340.766052,144.357171 336.488569,133.021305" id="Shape"></path>
            </g>
            <g id="Group" transform="translate(29.842838, 0.071962)" fill="#41B983">
                <path d="M353.765164,179.285109 C350.548977,166.707988 339.922179,153.134173 324.451875,140.434003 C320.765026,137.390085 316.727489,134.387695 312.534603,131.436063 C308.347869,128.532113 303.944262,125.677382 299.299171,122.893404 C294.66331,120.154031 289.875175,117.466954 284.831714,114.88293 C283.770419,114.344591 282.702971,113.806253 281.630909,113.274067 C282.812177,114.458412 283.962683,115.648908 285.082426,116.842481 C289.192255,118.914314 293.163653,121.059977 297.06276,123.248707 C301.767837,125.934246 306.274498,128.707457 310.598123,131.546807 C314.863301,134.4323 318.982358,137.387008 322.704582,140.384784 C326.405274,143.43024 329.981378,146.532607 333.000687,149.636512 C336.04922,152.791174 338.891646,155.982751 341.144976,159.131261 C343.445988,162.344372 345.374777,165.545177 346.765228,168.679844 C348.149526,171.869883 349.104692,175.009165 349.616883,178.077693 C351.448771,190.943978 344.444221,202.101424 328.841639,209.433591 C323.881236,211.776132 318.087178,213.695692 311.577899,215.166125 C313.056022,207.038755 312.645347,197.696278 310.321263,187.580133 C309.582971,184.317803 308.618576,180.9355 307.434232,177.457835 C307.161987,178.08846 306.868208,178.70678 306.548281,179.315871 C306.222202,179.968029 305.866899,180.607883 305.486986,181.23697 C305.988409,183.081163 306.422156,184.894594 306.78515,186.672648 C309.0877,197.900847 308.663182,208.033912 305.585425,216.361236 C291.122582,218.880659 273.705031,219.431302 254.438672,217.833207 C247.203406,217.257954 239.789718,216.378155 232.27913,215.21073 C227.621735,214.489357 222.927425,213.65724 218.21312,212.718993 L218.210043,212.718993 C196.62883,208.429206 174.655399,201.936846 154.098567,193.697194 C122.544253,181.146221 96.4579171,165.125274 79.8217258,148.805933 L79.0249851,148.876686 C85.9695491,157.059428 95.5473564,165.443662 107.619977,173.51566 C120.086354,181.812222 134.776837,189.736562 151.12694,196.730346 C170.573257,205.08997 191.685347,211.863804 212.775903,216.64271 C217.613257,217.74092 222.453687,218.733001 227.271046,219.614337 C237.58407,221.503136 247.798654,222.89051 257.716384,223.722628 C274.001886,225.045402 289.103044,224.885438 302.195431,223.215051 C296.004541,232.923598 284.993216,239.345205 270.219675,241.826175 C252.491426,244.736278 230.0258,242.019977 205.193024,233.977203 C204.811572,233.851078 204.427045,233.726491 204.042518,233.600366 C199.340517,232.054566 194.587759,230.331884 189.802701,228.444623 L189.801163,228.444623 C166.658769,219.31133 142.741167,206.265086 119.843333,190.225681 C110.539309,183.719478 101.596741,176.850282 93.1171435,169.718068 C61.4459327,142.301268 38.4819593,114.344591 25.698732,89.2780224 C21.7073381,81.301387 18.6941817,73.5523919 16.7453971,66.1756191 C14.170602,56.5562829 13.467686,47.6875441 14.6166537,39.9185534 C15.7779263,32.6663676 18.5911284,26.2093843 23.1393179,20.7352529 C27.8459327,15.3303365 34.3490593,11.1774411 42.2949325,8.5518883 C49.4179171,6.18781415 57.6468025,5.00193179 66.8539254,5.00193179 C69.7717189,5.00193179 72.7910277,5.12190433 75.9041611,5.36031128 C87.3569238,6.23241932 99.9755734,8.74569009 113.404807,12.8309087 C118.794342,14.4766857 124.276164,16.4039368 129.804129,18.5219135 L129.805667,18.5219135 C130.254795,18.431165 130.703923,18.3450309 131.154589,18.2588968 C131.488359,18.1973724 131.820591,18.135848 132.15436,18.0758618 C133.111064,17.9051316 134.070845,17.7467063 135.032163,17.5975097 C129.348849,15.2211307 123.69322,13.046244 118.102193,11.1128405 C118.062202,11.0989975 118.023749,11.0866926 117.983758,11.0713115 C116.201089,10.4560678 114.426111,9.86697185 112.657285,9.30094759 C98.6235752,4.8404303 85.3266194,1.9626276 73.1309499,0.747521172 C58.9788052,-0.658310826 46.5770291,0.110743877 36.271696,3.03468986 C35.5287892,3.24848707 34.7981872,3.47151293 34.078352,3.70838178 C33.9906798,3.73606775 33.9030076,3.76221561 33.8168734,3.79143969 C28.3596612,5.55718929 23.5023117,7.96894484 19.3217304,11.0313207 C19.2755871,11.0651591 19.2263676,11.0974594 19.1802243,11.1312978 C19.1248524,11.1697505 19.0694804,11.2128176 19.0156466,11.2528084 C18.9864225,11.274342 18.9602747,11.2958755 18.9325887,11.3158709 C18.8818311,11.3527855 18.8341497,11.3912383 18.7849302,11.4281529 C15.7548547,13.6799451 13.1108446,16.2362829 10.9051957,19.0725566 C10.8944289,19.0863996 10.8852003,19.1002426 10.8744335,19.1140856 C-0.919789425,33.6461433 -2.73322042,54.0799268 6.52004578,78.4789563 C6.52158389,78.4851087 6.523122,78.4912612 6.52619821,78.4974136 C6.52619821,78.5004898 6.52773632,78.5051041 6.52927443,78.5081804 C7.47521172,81.1921813 8.69493248,84.0546029 10.1576745,87.0662211 C10.1592126,87.0692973 10.1607507,87.0739117 10.1622889,87.0769879 C10.1745937,87.1015976 10.1868986,87.1262074 10.1992035,87.149279 C21.9334401,112.21431 44.6605447,140.950808 79.4402747,171.474589 C79.4541176,171.488432 79.4679606,171.499199 79.4818036,171.511504 C79.6679149,171.67762 79.8540261,171.840659 80.0416754,172.002161 C80.3216114,172.249796 80.6030854,172.494356 80.8845594,172.740453 C82.1596521,173.855583 83.4455116,174.963021 84.7436759,176.064308 C84.7898192,176.105837 84.8390387,176.145827 84.885182,176.185818 C94.4691417,184.322417 104.668345,192.174466 115.404349,199.586615 C134.584573,212.815894 154.58461,223.990259 174.46775,232.654429 C180.311028,235.201538 186.143539,237.530236 191.943749,239.632831 C196.642673,241.33398 201.318526,242.885933 205.959002,244.27946 C223.570355,249.561328 239.952758,252.234562 254.377148,252.234562 C261.809293,252.234562 268.723095,251.523955 275.010886,250.095051 C291.056443,246.389746 302.536892,238.003973 308.209439,225.848295 C308.793921,224.616269 309.319954,223.3381 309.781387,222.016864 C313.971197,221.240119 317.916448,220.314177 321.630982,219.265187 C326.88824,217.650172 331.722518,215.838279 335.835422,213.668006 C351.642573,205.503722 357.415097,193.055802 353.765164,179.285109 M265.713014,106.663273 C265.817606,107.130858 265.920659,107.599982 266.019098,108.067567 C266.41593,108.229068 266.812763,108.393646 267.204981,108.5613 C271.121007,110.230149 274.964743,111.966674 278.740801,113.752419 C277.59491,112.560385 276.389032,111.349892 275.12932,110.122481 C273.228217,109.230378 271.304042,108.352117 269.346029,107.492314 C268.097084,106.940133 266.821991,106.406409 265.534594,105.881913 C265.54536,105.929595 265.556127,105.977276 265.565356,106.026496 C265.616114,106.238755 265.665333,106.449476 265.713014,106.663273 M267.361868,115.541241 C267.378787,115.645832 267.395706,115.750423 267.409549,115.856553 C276.438251,126.412598 284.327214,137.210126 290.455042,147.415482 C294.477198,154.113948 297.884111,160.7755 300.598874,167.232483 C300.723461,166.794122 300.832667,166.335766 300.941872,165.8851 C301.035697,165.486729 301.13106,165.086821 301.240266,164.696141 C301.347933,164.163955 301.426377,163.574859 301.501744,162.981149 C298.99924,157.705434 296.07837,152.317436 292.780664,146.895601 C285.933001,135.607416 276.998123,123.640925 266.800458,112.07588 C267.005026,113.227924 267.192676,114.383044 267.361868,115.541241 M74.4106569,111.660591 C69.9224537,106.56791 66.2617533,101.52445 63.5116136,96.6794049 C61.9381277,93.9031174 60.6599588,91.1929686 59.6986404,88.5704921 C59.284889,87.4430579 58.9295857,86.3325429 58.6358068,85.2435615 C58.6296544,85.2281804 58.6265782,85.2127993 58.6250401,85.1989563 C58.4943008,84.7206043 58.3758663,84.2453285 58.2712749,83.774667 C57.373019,79.8124971 57.2268986,76.0364385 57.8359899,72.5633875 C58.4712291,69.267219 59.8063081,66.2432959 61.7981598,63.5715999 C65.6049805,58.5481346 71.8881575,54.5859648 79.978613,52.1111467 C83.3055436,51.0683085 87.0339208,50.2807965 91.1191394,49.739382 C91.4944381,49.485594 91.8697368,49.2348821 92.2481117,48.9887846 C92.4249943,48.8718883 92.6018769,48.7565301 92.7787594,48.64271 C93.067924,48.4565988 93.3555505,48.2720256 93.6462531,48.0874525 C93.9338796,47.9044175 94.2245823,47.7213825 94.5168231,47.5429618 C94.8075257,47.363003 95.0997665,47.1845823 95.3935454,47.0076997 C95.6857862,46.8277409 95.9795651,46.6539345 96.2748821,46.4785901 C96.6501808,46.2555642 97.0285557,46.0340764 97.4069306,45.817203 C97.5284413,45.74645 97.6484138,45.675697 97.7699245,45.6095583 L98.1329183,45.4019135 C79.5817807,46.6908492 65.3496544,52.3280201 57.6637217,61.5274525 C55.1904417,64.4467842 53.3739345,67.6952712 52.2711101,71.1683223 C51.0175509,74.8951614 50.5807279,78.9649989 50.9729458,83.2655528 C51.3051774,86.9739345 52.2526528,90.8561227 53.7892241,94.8413642 C55.2719615,98.6927901 57.2991897,102.639579 59.8493751,106.621744 C61.3890227,109.0335 63.122472,111.45756 65.0389563,113.880082 C74.5983062,125.91425 88.3382376,137.765383 104.766784,148.153774 C106.158773,149.053568 107.595367,149.917986 109.036576,150.78548 C109.805631,151.249989 110.574685,151.714498 111.348354,152.189773 C112.823401,153.069572 114.333825,153.920146 115.850401,154.769183 C116.630222,155.207544 117.410043,155.645905 118.200632,156.098109 C119.718746,156.924074 121.26916,157.720815 122.821112,158.512941 C123.650153,158.938997 124.482271,159.366592 125.32054,159.801877 C126.884797,160.589389 128.473664,161.346139 130.06407,162.102889 L132.623484,163.328762 C142.018256,167.726217 152.229764,171.702229 162.974997,175.146056 C182.702788,181.409238 202.549014,184.996109 220.37724,185.514452 C221.773843,185.545214 223.131994,185.559057 224.459382,185.559057 C231.691572,185.559057 237.908611,185.106853 243.373513,184.188602 C243.535015,184.163992 243.69344,184.137844 243.853404,184.111696 C248.893788,183.298036 253.438901,182.17214 257.425681,180.752465 C258.753069,180.283342 260.015857,179.777304 261.215583,179.24358 C266.068318,177.216352 270.241209,174.561575 273.609668,171.357693 C276.608981,168.61832 278.965365,165.203717 280.621909,161.19079 C283.38743,154.126253 283.065965,145.809696 279.692891,137.151678 C277.258064,130.822358 273.139007,124.105434 267.646418,117.457725 C267.64488,117.457725 267.64488,117.457725 267.643342,117.456187 C267.663337,117.582312 267.678718,117.711513 267.697176,117.839176 C267.740243,118.16987 267.786386,118.499025 267.824839,118.831257 C267.867906,119.16195 267.906358,119.491106 267.944811,119.824875 C267.983264,120.155569 268.020179,120.486262 268.054017,120.818494 C268.126308,121.519872 268.193985,122.224326 268.253971,122.927242 C268.275505,123.194873 268.298576,123.464042 268.317034,123.731673 C268.323186,123.794736 268.326262,123.85626 268.332415,123.919322 C268.340105,124.042371 268.350872,124.166958 268.358563,124.288469 C268.363177,124.310002 268.363177,124.333074 268.364715,124.354607 C268.372406,124.485347 268.383172,124.616086 268.390863,124.746825 C268.400092,124.871412 268.407782,124.999075 268.413935,125.123662 C268.432392,125.412827 268.449311,125.701991 268.46623,125.991156 C268.484688,126.335692 268.501607,126.680229 268.516988,127.026304 C268.530831,127.315468 268.543136,127.603095 268.552364,127.892259 C268.558517,127.995312 268.561593,128.099904 268.563131,128.204495 C268.575436,128.50135 268.583127,128.801282 268.590817,129.099675 C268.592355,129.104289 268.593893,129.105827 268.59697,129.108904 C270.052021,131.394534 271.337881,133.66786 272.437629,135.92119 C276.587448,144.551522 277.914836,152.598911 276.269059,159.208167 C275.481547,162.67968 273.677345,166.020453 270.921053,169.128972 C268.190909,172.086757 264.38255,174.686162 259.603644,176.853358 C259.440604,176.921035 259.274488,176.987173 259.109911,177.053312 L259.108373,177.053312 C255.029306,178.68986 250.570327,179.920348 245.809879,180.729393 C244.58862,180.938576 243.345827,181.120073 242.08304,181.272346 C234.604752,182.098311 226.858833,182.161373 219.046775,181.461534 C202.370593,180.101845 183.282655,175.59826 163.847105,168.433747 C127.1755,154.927608 93.7416159,133.704775 74.4106569,111.660591" id="Shape"></path>
            </g>
        </g>
    </g>
</svg>