<?xml version="1.0" encoding="UTF-8"?>
<svg width="600px" height="400px" viewBox="0 0 600 400" version="1.1" xmlns="http://www.w3.org/2000/svg" xmlns:xlink="http://www.w3.org/1999/xlink">
    <!-- Generator: Sketch 55.2 (78181) - https://sketchapp.com -->
    <title>typeofweb</title>
    <desc>Created with Sketch.</desc>
    <g id="Page-1" stroke="none" stroke-width="1" fill="none" fill-rule="evenodd">
        <g id="typeofweb" fill-rule="nonzero">
            <rect id="Rectangle" fill="#FFFFFF" x="0" y="0" width="600" height="400"></rect>
            <g id="logo_kwadrat" transform="translate(129.000000, 56.000000)">
                <path d="M0.0994549978,3.55388028 L19.8731486,0.370202114 L19.8731486,20.9302887 L43.6250422,20.9302887 L43.6250422,37.3788677 L19.8731486,37.3788677 L19.8731486,61.9179147 C19.8731486,66.0753039 20.6012102,69.3928036 22.0611586,71.8653159 C23.522382,74.3429262 26.4639549,75.5791823 30.8871522,75.5791823 C33.0101338,75.5791823 35.2019689,75.3816362 37.4550072,74.9839951 C39.7118706,74.5850794 41.769824,74.0344993 43.6250422,73.3258825 L46.4148824,88.7115363 C44.0241372,89.6852472 41.372004,90.5264114 38.4508322,91.2324787 C35.5309355,91.9385469 31.9480055,92.2928552 27.702042,92.2928552 C22.3046958,92.2928552 17.8381464,91.563847 14.2985686,90.104555 C10.7589907,88.645263 7.92962347,86.6137241 5.80536673,84.0022924 C3.68238504,81.3972331 2.20076059,78.2339468 1.36049337,74.5188059 C0.517676014,70.8049395 0.0994549978,66.693432 0.0994549978,62.1830088 L0.0994549978,3.55388028" id="Fill-4" fill="#1F133A"></path>
                <path d="M123.113812,20.9302887 C119.124136,34.3736182 114.954677,46.9745094 110.609258,58.7342366 C106.26384,70.4965127 101.516777,81.9032059 96.3706174,92.9543163 C94.5090238,96.938375 92.6512561,100.320873 90.7896625,103.105636 C88.9280689,105.890399 86.8892409,108.18958 84.6757301,110.004455 C82.4596687,111.815506 79.9567179,113.140977 77.1668777,113.983415 C74.3744874,114.820756 71.1217989,115.243887 67.402437,115.243887 C64.297656,115.243887 61.4402375,114.954577 58.825081,114.378508 C56.2137498,113.803713 54.0665419,113.162643 52.3821823,112.456576 L55.8337807,96.6707314 C57.870058,97.3780742 59.6819241,97.866204 61.2757541,98.1300234 C62.8695843,98.397667 64.5501187,98.5289389 66.3211827,98.5289389 C69.8607606,98.5289389 72.5817474,97.5768942 74.4866931,95.6791776 C76.3890887,93.7725396 78.0045948,91.1432645 79.3332116,87.7837064 C74.8169347,78.9412892 70.3032078,69.0142799 65.789481,58.0052278 C61.2757541,46.9949013 57.0259656,34.6399868 53.0452156,20.9302887 L74.0136443,20.9302887 C74.9010889,24.3790609 75.9466414,28.1158681 77.1452016,32.1394358 C78.3437619,36.164278 79.6111756,40.2311783 80.9461676,44.3426858 C82.2760594,48.4541933 83.6327277,52.4560946 85.0085218,56.3471152 C86.384316,60.2394103 87.6989071,63.774848 88.9433698,66.9585261 C90.0947523,63.774848 91.2971374,60.2394103 92.5390501,56.3471152 C93.7835128,52.4560946 95.0050237,48.4541933 96.2023097,44.3426858 C97.4008698,40.2311783 98.5560773,36.164278 99.6679331,32.1394358 C100.778514,28.1158681 101.778165,24.3790609 102.665609,20.9302887 L123.113812,20.9302887" id="Fill-5" fill="#1F133A"></path>
                <path d="M178.316435,56.3471152 C178.316435,50.244853 176.943192,45.3597295 174.204354,41.6904703 C171.461691,38.0212111 167.390412,36.1846698 161.995615,36.1846698 C160.223277,36.1846698 158.586094,36.2509433 157.085344,36.3834903 C155.579493,36.5160374 154.340131,36.6715253 153.368532,36.8486795 L153.368532,72.5293257 C154.607894,73.3258825 156.22085,73.9886177 158.212501,74.5188059 C160.2016,75.0489941 162.212376,75.3153627 164.252479,75.3153627 C173.628025,75.3153627 178.316435,68.993888 178.316435,56.3471152 Z M198.487949,55.816927 C198.487949,61.2105723 197.824916,66.1186366 196.49885,70.5398454 C195.170233,74.9623287 193.224485,78.7641349 190.659056,81.9478131 C188.091077,85.1302164 184.905967,87.6078274 181.105001,89.3742712 C177.298935,91.1432645 172.917815,92.0290358 167.965466,92.0290358 C165.222803,92.0290358 162.658649,91.762667 160.270454,91.2324787 C157.879708,90.7022905 155.579493,89.951616 153.368532,88.9779043 L153.368532,115.243887 L133.596113,115.243887 L133.596113,23.3174101 C135.363353,22.7872219 137.39963,22.2799745 139.699845,21.793119 C142.000061,21.307538 144.409932,20.8882305 146.932009,20.5326475 C149.45281,20.1796136 152.018239,19.8915787 154.62957,19.6710917 C157.238352,19.4506048 159.738752,19.3384496 162.125672,19.3384496 C167.878761,19.3384496 173.008344,20.2012799 177.522071,21.925666 C182.033247,23.6487777 185.836764,26.0830552 188.935169,29.2208517 C192.028475,32.3599227 194.394994,36.1846698 196.032176,40.6938185 C197.669358,45.2042416 198.487949,50.244853 198.487949,55.816927 L198.487949,55.816927 Z" id="Fill-6" fill="#1F133A"></path>
                <path d="M253.688023,48.785561 C253.597494,47.1070565 253.311879,45.4693357 252.826079,43.8774966 C252.336455,42.2856576 251.584168,40.8735217 250.569216,39.633442 C249.550441,38.397186 248.269001,37.3788677 246.721073,36.582311 C245.170595,35.7870287 243.247799,35.3893875 240.946308,35.3893875 C238.736622,35.3893875 236.834226,35.7653623 235.240396,36.5160374 C233.650391,37.267987 232.320499,38.2646389 231.259646,39.500895 C230.197518,40.7397002 229.378927,42.1773258 228.806423,43.8124976 C228.230094,45.4489439 227.810598,47.1070565 227.545385,48.785561 L253.688023,48.785561 Z M207.239989,56.3471152 C207.239989,50.1581876 208.188637,44.7416014 210.094857,40.0973567 C211.995978,35.4543866 214.492554,31.5888557 217.590959,28.4905685 C220.688089,25.3961046 224.249344,23.0535904 228.273446,21.4617514 C232.298823,19.8686378 236.436406,19.0733555 240.68237,19.0733555 C250.590893,19.0733555 258.419786,22.1040948 264.172875,28.1592009 C269.922139,34.2181304 272.794858,43.128096 272.794858,54.8878231 C272.794858,56.0374139 272.751506,57.2978854 272.664802,58.667963 C272.574272,60.0405897 272.487568,61.253905 272.399588,62.3155559 L227.545385,62.3155559 C227.987832,66.3850052 229.886402,69.6120161 233.251296,71.9978629 C236.613641,74.3862588 241.124817,75.5791823 246.786101,75.5791823 C250.413658,75.5791823 253.974913,75.2478146 257.469863,74.5850794 C260.963539,73.9223441 263.817132,73.1053956 266.028093,72.1316845 L268.682776,88.181348 C267.621923,88.7115363 266.205327,89.2429984 264.436813,89.7731867 C262.665749,90.3033749 260.698325,90.7685646 258.531991,91.1649307 C256.361832,91.563847 254.03994,91.8952145 251.565042,92.1615825 C249.087592,92.4254027 246.608868,92.5592241 244.131418,92.5592241 C237.849177,92.5592241 232.389353,91.6301203 227.744294,89.7731867 C223.100511,87.9162539 219.249817,85.3749191 216.19859,82.1466337 C213.144811,78.9196229 210.891773,75.0961502 209.431825,70.6723925 C207.971876,66.2511837 207.239989,61.4769409 207.239989,56.3471152 L207.239989,56.3471152 Z" id="Fill-7" fill="#1F133A"></path>
                <polyline id="Fill-8" fill="#2AE095" points="84.4640694 199.769395 50.4925373 173.108321 50.4925373 166.475871 84.4640694 139.947343 87.5178477 147.906538 60.4444124 169.790822 87.5178477 191.677653 84.4640694 199.769395"></polyline>
                <path d="M152.94011,167.802615 C152.94011,160.023123 151.193273,153.854588 147.697047,149.298282 C144.202096,144.744527 139.447383,142.467012 133.434181,142.467012 C127.415877,142.467012 122.659889,144.744527 119.167489,149.298282 C115.671263,153.854588 113.924425,160.023123 113.924425,167.802615 C113.924425,175.584656 115.671263,181.751918 119.167489,186.305674 C122.659889,190.860704 127.415877,193.136945 133.434181,193.136945 C139.447383,193.136945 144.202096,190.860704 147.697047,186.305674 C151.193273,181.751918 152.94011,175.584656 152.94011,167.802615 Z M165.811883,167.802615 C165.811883,173.285475 165.017517,178.238146 163.423687,182.659356 C161.833683,187.080564 159.598495,190.88237 156.721951,194.066048 C153.845406,197.249727 150.418034,199.703122 146.436009,201.427508 C142.457809,203.151894 138.121316,204.01345 133.434181,204.01345 C128.741944,204.01345 124.409276,203.151894 120.427251,201.427508 C116.446501,199.703122 113.015305,197.249727 110.142584,194.066048 C107.26604,190.88237 105.034678,187.080564 103.440848,182.659356 C101.849568,178.238146 101.052653,173.285475 101.052653,167.802615 C101.052653,162.40897 101.849568,157.47924 103.440848,153.012149 C105.034678,148.548882 107.26604,144.721586 110.142584,141.537908 C113.015305,138.355504 116.446501,135.902109 120.427251,134.176448 C124.409276,132.453337 128.741944,131.590506 133.434181,131.590506 C138.121316,131.590506 142.457809,132.453337 146.436009,134.176448 C150.418034,135.902109 153.845406,138.355504 156.721951,141.537908 C159.598495,144.721586 161.833683,148.548882 163.423687,153.012149 C165.017517,157.47924 165.811883,162.40897 165.811883,167.802615 L165.811883,167.802615 Z" id="Fill-9" fill="#2AE095"></path>
                <path d="M203.219712,99.3586331 C206.845994,99.3586331 209.966076,99.6224525 212.577408,100.152641 C215.186188,100.684103 217.022281,101.170959 218.084409,101.613207 L215.827546,112.224618 C214.765417,111.69443 213.259567,111.185908 211.316369,110.697778 C209.368071,110.214746 206.979876,109.96877 204.150509,109.96877 C198.398695,109.96877 194.373317,111.540217 192.073102,114.678013 C189.771611,117.817084 188.622779,122.039472 188.622779,127.345178 L188.622779,133.314893 L215.164512,133.314893 L215.164512,143.659935 L188.622779,143.659935 L188.622779,202.290338 L176.280158,202.290338 L176.280158,127.080084 C176.280158,118.238941 178.447767,111.407669 182.782985,106.586271 C187.116928,101.768695 193.93087,99.3586331 203.219712,99.3586331" id="Fill-10" fill="#2AE095"></path>
                <path d="M263.868135,173.240868 L229.896602,199.769395 L226.846649,191.8102 L253.916259,169.790822 C249.406358,166.256658 244.892631,162.628183 240.381454,158.914316 C235.867728,155.201725 231.356551,151.532465 226.846649,147.906538 L229.896602,139.947343 L263.868135,166.475871 L263.868135,173.240868" id="Fill-11" fill="#2AE095"></path>
                <path d="M140.283825,248.313478 C138.511486,255.035143 136.634591,261.710926 134.642941,268.343376 C132.653841,274.975827 130.54871,281.652884 128.339024,288.372 L112.945175,288.372 C111.348795,284.658133 109.617259,280.236925 107.755665,275.107099 C105.891522,269.979822 103.961074,264.387356 101.965599,258.328427 C99.9701236,252.272046 97.9287464,245.858808 95.8427408,239.095085 C93.7567361,232.330087 91.7395847,225.498817 89.7874619,218.599997 L110.623284,218.599997 C111.336045,221.78495 112.111284,225.255389 112.957926,229.012588 C113.804569,232.773611 114.694564,236.64169 115.629186,240.620651 C116.565082,244.598337 117.543057,248.601513 118.566933,252.625081 C119.588259,256.649922 120.633812,260.515453 121.704866,264.230594 C122.853698,260.340848 123.980855,256.360613 125.088886,252.292438 C126.194367,248.226812 127.25522,244.223637 128.273996,240.288009 C129.287672,236.35493 130.263096,232.550574 131.193893,228.881315 C132.120864,225.212057 132.939456,221.78495 133.645841,218.599997 L147.978836,218.599997 C148.687771,221.78495 149.482137,225.212057 150.369581,228.881315 C151.253201,232.550574 152.181447,236.35493 153.155596,240.288009 C154.12592,244.223637 155.144696,248.226812 156.205549,252.292438 C157.270228,256.360613 158.375708,260.340848 159.524542,264.230594 C160.59177,260.515453 161.660274,256.649922 162.727502,252.625081 C163.794731,248.601513 164.798206,244.598337 165.734103,240.620651 C166.664901,236.64169 167.55617,232.773611 168.402812,229.012588 C169.249455,225.255389 170.024694,221.78495 170.737455,218.599997 L191.308064,218.599997 C189.355941,225.498817 187.338789,232.330087 185.250234,239.095085 C183.164229,245.858808 181.125402,252.272046 179.129926,258.328427 C177.134451,264.387356 175.182328,269.979822 173.274832,275.107099 C171.366062,280.236925 169.612848,284.658133 168.019018,288.372 L152.62262,288.372 C150.412933,281.652884 148.2466,274.975827 146.123618,268.343376 C144.000636,261.710926 142.051063,255.035143 140.283825,248.313478" id="Fill-12" fill="#1F133A"></path>
                <path d="M243.328127,246.456544 C243.237598,244.77804 242.951983,243.139045 242.466184,241.54848 C241.976559,239.956641 241.224272,238.543231 240.209321,237.304426 C239.190544,236.066895 237.90783,235.049851 236.361178,234.253294 C234.8107,233.458012 232.886628,233.059096 230.586412,233.059096 C228.376726,233.059096 226.474331,233.436346 224.880501,234.185746 C223.290496,234.93897 221.960604,235.934348 220.899751,237.171878 C219.837622,238.409409 219.019031,239.847035 218.446527,241.482206 C217.870198,243.119927 217.450702,244.77804 217.185488,246.456544 L243.328127,246.456544 Z M196.880093,254.018098 C196.880093,247.829171 197.828742,242.41131 199.733687,237.767066 C201.636082,233.12537 204.132658,229.258564 207.229789,226.161552 C210.328194,223.067088 213.889449,220.724574 217.91355,219.132735 C221.938928,217.539621 226.076511,216.744339 230.322474,216.744339 C240.230997,216.744339 248.05989,219.775079 253.812979,225.830184 C259.562244,231.887839 262.434963,240.797805 262.434963,252.558806 C262.434963,253.708397 262.39161,254.967595 262.304906,256.338946 C262.214377,257.711573 262.127672,258.924888 262.039693,259.985265 L217.185488,259.985265 C217.627936,264.055989 219.526506,267.281725 222.8914,269.668847 C226.253744,272.057243 230.763646,273.250166 236.426206,273.250166 C240.053763,273.250166 243.615017,272.918798 247.109968,272.256063 C250.603643,271.593328 253.457236,270.776379 255.668198,269.802668 L258.322881,285.852331 C257.262028,286.382519 255.845431,286.912708 254.076918,287.442896 C252.305854,287.974359 250.33843,288.439548 248.172096,288.835915 C246.001937,289.233555 243.680045,289.564924 241.205146,289.831292 C238.727696,290.096386 236.248972,290.230207 233.771522,290.230207 C227.489281,290.230207 222.029457,289.301103 217.384399,287.442896 C212.740615,285.587237 208.889922,283.044628 205.838693,279.816343 C202.784916,276.590606 200.530602,272.765859 199.070653,268.343376 C197.610705,263.922168 196.880093,259.14665 196.880093,254.018098 L196.880093,254.018098 Z" id="Fill-13" fill="#1F133A"></path>
                <path d="M319.228867,252.956448 C319.228867,240.22301 314.540456,233.854379 305.16491,233.854379 C303.126082,233.854379 301.115307,234.120748 299.126206,234.650936 C297.133282,235.182398 295.520325,235.845134 294.282238,236.64169 L294.282238,272.587431 C295.252562,272.765859 296.491924,272.918798 297.99905,273.05262 C299.4998,273.185167 301.136983,273.250166 302.908047,273.250166 C308.302842,273.250166 312.374123,271.394507 315.116785,267.68064 C317.855622,263.9655 319.228867,259.05871 319.228867,252.956448 Z M339.40038,253.486636 C339.40038,259.05871 338.581789,264.099321 336.944607,268.607195 C335.307425,273.117619 332.94218,276.965307 329.8476,280.148985 C326.75047,283.331389 322.945678,285.784783 318.435776,287.510444 C313.92205,289.233555 308.791192,290.096386 303.038103,290.096386 C300.651183,290.096386 298.150782,289.984231 295.542001,289.765018 C292.93067,289.543257 290.365241,289.255222 287.84444,288.902188 C285.322363,288.547879 282.913766,288.129846 280.613551,287.642991 C278.312061,287.15741 276.277058,286.648888 274.508544,286.117425 L274.508544,188.623972 L294.282238,185.440294 L294.282238,220.193111 C296.491924,219.220675 298.79214,218.468725 301.182885,217.937263 C303.571079,217.407074 306.136509,217.14198 308.877897,217.14198 C313.831521,217.14198 318.211365,218.004811 322.018707,219.727922 C325.819673,221.453583 329.003508,223.906977 331.571487,227.090656 C334.136916,230.27306 336.082663,234.100355 337.41128,238.563622 C338.737347,243.030713 339.40038,248.00505 339.40038,253.486636 L339.40038,253.486636 Z" id="Fill-14" fill="#1F133A"></path>
            </g>
        </g>
    </g>
</svg>