<?xml version="1.0" encoding="UTF-8"?>
<svg width="600px" height="400px" viewBox="0 0 600 400" version="1.1" xmlns="http://www.w3.org/2000/svg" xmlns:xlink="http://www.w3.org/1999/xlink">
    <!-- Generator: Sketch 57.1 (83088) - https://sketch.com -->
    <title>Artboard Copy</title>
    <desc>Created with Sketch.</desc>
    <defs>
        <polygon id="path-1" points="0 0 548.109375 0 548.109375 241.849609 0 241.849609"></polygon>
    </defs>
    <g id="Artboard-Copy" stroke="none" stroke-width="1" fill="none" fill-rule="evenodd">
        <g id="codete">
            <rect id="Rectangle" fill="#FFFFFF" fill-rule="nonzero" x="0" y="0" width="600" height="400"></rect>
            <g id="up_logo" transform="translate(26.000000, 79.000000)">
                <polygon id="Path" fill="#FFFFFF" fill-rule="nonzero" points="0 0 0 89.375 33.9667969 123.019531 33.9667969 208.226562 67.9121094 241.849609 543.941406 241.849609 545.230469 241.849609 547.464844 241.849609 548.109375 241.849609 548.109375 152.796875 514.464844 118.851563 446.552734 118.851563 446.552734 33.6445313 412.607422 2.28983499e-14"></polygon>
                <g id="Group">
                    <path d="M67.5898438,235.769531 L63.0996094,231.279297 L39.7246094,207.904297 L510.941406,207.904297 L537.216797,234.179688 L540.417969,237.380859 L69.5234375,237.703125 L67.5898438,235.769531 Z M514.464844,205.347656 L514.464844,124.931641 L537.861328,148.242188 L542.330078,152.710938 L544.263672,154.644531 L544.263672,234.716797 L543.941406,234.716797 L514.464844,205.347656 Z M38.1132813,123.341797 L509.996094,123.341797 L509.996094,204.101563 L38.1132813,204.101563 L38.1132813,123.341797 Z M38.1132813,38.1132812 L442.019531,38.1132812 L442.019531,118.851562 L38.1132813,118.851562 L38.1132813,38.1132812 Z M10.5703125,93.5429687 L6.08007813,89.0527344 L4.16796875,87.140625 L4.16796875,7.36914062 L33.6445313,36.8457031 L33.6445313,116.595703 L10.5703125,93.5429687 Z M10.5703125,7.36914062 L7.36914063,4.16796875 L410.673828,4.16796875 L410.673828,4.49023437 L440.150391,33.9667969 L36.8457031,33.9667969 L10.5703125,7.36914062 Z M8.8817842e-15,-7.54951657e-15 L8.8817842e-15,89.375 L33.9667969,123.019531 L33.9667969,208.226562 L67.9121094,241.849609 L548.109375,241.849609 L548.109375,152.796875 L514.464844,118.851562 L446.552734,118.851562 L446.552734,33.6445313 L412.607422,-7.54951657e-15 L8.8817842e-15,-7.54951657e-15 Z" id="Shape" fill="#273580" fill-rule="nonzero"></path>
                    <g id="Clipped">
                        <mask id="mask-2" fill="white">
                            <use xlink:href="#path-1"></use>
                        </mask>
                        <g id="Path"></g>
                        <g id="Group" mask="url(#mask-2)" fill="#273580" fill-rule="nonzero">
                            <g transform="translate(67.601562, 58.007812)">
                                <path d="M12.4921875,87.0976563 L0.6328125,87.0976563 L0.6328125,125.232422 L7.35742187,125.232422 L7.35742187,112.728516 L12.4921875,112.728516 C15.0023721,112.791965 17.4329343,111.844953 19.2385062,110.099971 C21.044078,108.354989 22.0734683,105.958154 22.0957031,103.447266 L22.0957031,96.078125 C21.9090355,90.9529494 17.6183571,86.9406371 12.4921875,87.0976562 L12.4921875,87.0976563 Z M15.3710937,104.091797 C15.225627,105.564682 13.971943,106.678028 12.4921875,106.648437 L7.59375,106.648437 L7.59375,93.5214844 L12.40625,93.5214844 C13.8898863,93.4813054 15.1497448,94.6001349 15.2851562,96.078125 L15.3710937,104.091797 Z" id="Shape"></path>
                                <path d="M51.25,103.125 L51.25,96.4003906 C51.2277639,93.8838059 50.1961101,91.4815072 48.3865097,89.7324961 C46.5769093,87.983485 44.1408831,87.034209 41.625,87.0976563 L29.7871094,87.0976563 L29.7871094,125.232422 L36.5117188,125.232422 L36.5117188,112.341797 L40.3574219,112.341797 L45.7929688,125.232422 L53.1621094,125.232422 L46.7167969,111.138672 C49.4992804,109.418847 51.2093491,106.395835 51.25,103.125 L51.25,103.125 Z M44.5253906,103.125 C44.3895524,104.611512 43.1168073,105.733413 41.625,105.681641 L36.5117187,105.681641 L36.5117187,93.1992187 L41.625,93.1992187 C43.1168073,93.1474464 44.3895524,94.2693476 44.5253906,95.7558594 L44.5253906,103.125 Z" id="Shape"></path>
                                <path d="M71.4238281,86.4746094 C68.3465132,86.403559 65.373843,87.5932635 63.1952454,89.7678042 C61.0166477,91.9423449 59.8214044,94.9127924 59.8867188,97.9902344 L59.8867188,114.339844 C59.8752455,117.403178 61.0870742,120.344358 63.253194,122.510478 C65.4193138,124.676598 68.3604936,125.888426 71.4238281,125.876953 C74.5031553,125.942052 77.4756401,124.747455 79.6535398,122.569555 C81.8314394,120.391656 83.0260365,117.419171 82.9609375,114.339844 L82.9609375,97.9902344 C83.083615,94.8963489 81.9068033,91.8921456 79.7153372,89.7047605 C77.5238712,87.5173754 74.5174795,86.3461653 71.4238281,86.4746094 L71.4238281,86.4746094 Z M76.5585938,114.662109 C76.5585938,117.31998 74.4039641,119.474609 71.7460938,119.474609 C69.0882234,119.474609 66.9335938,117.31998 66.9335938,114.662109 L66.9335938,97.6679688 C67.0018016,95.0424235 69.1202696,92.933413 71.7460938,92.8769531 C73.0257362,92.8535611 74.2601633,93.350105 75.1671807,94.2530732 C76.0741981,95.1560414 76.5762601,96.3882344 76.5585938,97.6679688 L76.5585938,114.662109 Z" id="Shape"></path>
                                <path d="M103.457031,110.816406 L108.269531,110.816406 L108.269531,115.306641 C107.913028,117.683514 105.871234,119.441902 103.467773,119.441902 C101.064313,119.441902 99.0225188,117.683514 98.6660156,115.306641 L98.6660156,96.6796875 C98.8929767,94.2334797 101.002956,92.3978927 103.457031,92.5117188 C104.793279,92.5022801 106.07275,93.0513349 106.986552,94.0263288 C107.900354,95.0013227 108.365441,96.3136497 108.269531,97.6464844 L115.015625,97.6464844 C115.091837,94.5926445 113.889726,91.6456335 111.699287,89.5163797 C109.508848,87.3871258 106.528972,86.2689656 103.478516,86.4316406 C97.3825009,86.1887262 92.2315805,90.9080052 91.9414062,97.0019531 L91.9414062,114.941406 C92.458594,120.928298 97.4693268,125.524832 103.478516,125.524832 C109.487704,125.524832 114.498437,120.928298 115.015625,114.941406 L115.015625,104.414063 L103.779297,104.414063 L103.457031,110.816406 Z" id="Path"></path>
                                <path d="M145.09375,103.125 L145.09375,96.4003906 C145.071514,93.8838059 144.03986,91.4815072 142.23026,89.7324961 C140.420659,87.983485 137.984633,87.034209 135.46875,87.0976563 L123.609375,87.0976563 L123.609375,125.232422 L130.333984,125.232422 L130.333984,112.341797 L134.179688,112.341797 L139.615234,125.232422 L147.027344,125.232422 L140.582031,111.138672 C143.249625,109.313784 144.916987,106.352232 145.09375,103.125 L145.09375,103.125 Z M138.046875,103.125 C137.911037,104.611512 136.638292,105.733413 135.146484,105.681641 L130.054688,105.681641 L130.054688,93.1992187 L135.167969,93.1992187 C136.659776,93.1474464 137.932521,94.2693476 138.068359,95.7558594 L138.046875,103.125 Z" id="Shape"></path>
                                <path d="M159.832031,87.0976563 L153.386719,108.582031 L153.386719,125.253906 L159.832031,125.253906 L159.832031,114.017578 L169.779297,114.017578 L169.779297,125.232422 L176.224609,125.232422 L176.224609,108.560547 L170.144531,87.0761719 L159.832031,87.0976563 Z M160.476562,107.615234 L164.429688,93.5214844 L165.396484,93.5214844 L169.242188,107.615234 L160.476562,107.615234 Z" id="Shape"></path>
                                <path d="M199.234375,102.480469 L192.1875,87.0976562 L185.140625,87.0976562 L185.140625,125.232422 L191.585938,125.232422 L191.585938,111.460938 C191.585938,103.769531 190.941406,96.7226563 190.941406,96.7226563 L196.376953,108.882813 L201.833984,108.882813 L207.248047,96.6796875 C207.248047,96.6796875 206.925781,103.726563 206.925781,111.417969 L206.925781,125.189453 L213.371094,125.189453 L213.371094,87.0976562 L206.302734,87.0976562 L199.234375,102.480469 Z" id="Path"></path>
                                <path d="M234.167969,86.4746094 C231.090654,86.403559 228.117984,87.5932635 225.939386,89.7678042 C223.760788,91.9423449 222.565545,94.9127924 222.630859,97.9902344 L222.630859,114.339844 C222.619386,117.403178 223.831215,120.344358 225.997335,122.510478 C228.163454,124.676598 231.104634,125.888426 234.167969,125.876953 C237.261854,125.999631 240.266058,124.822819 242.453443,122.631353 C244.640828,120.439887 245.812038,117.433495 245.683594,114.339844 L245.683594,97.9902344 C245.700863,94.9308394 244.493159,91.9917509 242.329806,89.8283975 C240.166452,87.6650442 237.227364,86.4573405 234.167969,86.4746094 L234.167969,86.4746094 Z M238.958984,114.662109 C238.789827,117.189581 236.690353,119.15324 234.157227,119.15324 C231.6241,119.15324 229.524626,117.189581 229.355469,114.662109 L229.355469,97.6679688 C229.423677,95.0424235 231.542145,92.933413 234.167969,92.8769531 C235.445702,92.8533944 236.678051,93.3505919 237.581698,94.254239 C238.485346,95.1578862 238.982543,96.3902358 238.958984,97.6679688 L238.958984,114.662109 Z" id="Shape"></path>
                                <polygon id="Path" points="279.005859 103.125 277.738281 117.541016 277.09375 117.541016 273.871094 102.802734 266.201172 102.802734 263 117.541016 262.355469 117.541016 261.388672 103.125 261.388672 87.1191406 254.341797 87.1191406 254.341797 103.447266 257.220703 125.232422 266.824219 125.232422 270.046875 108.259766 273.248047 125.232422 282.851562 125.232422 285.730469 103.447266 285.730469 87.1191406 279.005859 87.1191406"></polygon>
                                <path d="M300.791016,87.0976563 L294.710938,108.582031 L294.710938,125.253906 L301.15625,125.253906 L301.15625,114.017578 L311.082031,114.017578 L311.082031,125.232422 L317.527344,125.232422 L317.527344,108.560547 L311.447266,87.0761719 L300.791016,87.0976563 Z M301.757812,107.615234 L305.603516,93.5214844 L306.548828,93.5214844 L310.394531,107.615234 L301.757812,107.615234 Z" id="Shape"></path>
                                <path d="M343.072266,98.9570312 C343.072266,105.402344 343.394531,111.847656 343.394531,111.847656 L332.501953,87.1621094 L326.056641,87.1621094 L326.056641,125.232422 L332.136719,125.232422 L332.136719,113.050781 C332.136719,107.292969 331.814453,100.568359 331.814453,100.568359 L342.75,125.232422 L349.195312,125.232422 L349.195312,87.0976562 L343.09375,87.0976562 L343.072266,98.9570312 Z" id="Path"></path>
                                <polygon id="Path" points="384.408203 87.0976562 377.039062 87.0976562 365.501953 104.414062 365.501953 87.0976562 358.777344 87.0976562 358.777344 125.232422 365.501953 125.232422 365.501953 105.681641 377.361328 125.232422 385.353516 125.232422 372.548828 105.037109"></polygon>
                                <path d="M401.058594,86.4746094 C397.981279,86.403559 395.008609,87.5932635 392.830011,89.7678042 C390.651413,91.9423449 389.45617,94.9127924 389.521484,97.9902344 L389.521484,114.339844 C389.510011,117.403178 390.72184,120.344358 392.88796,122.510478 C395.054079,124.676598 397.995259,125.888426 401.058594,125.876953 C404.137921,125.942052 407.110406,124.747455 409.288305,122.569555 C411.466205,120.391656 412.660802,117.419171 412.595703,114.339844 L412.595703,97.9902344 C412.661017,94.9127924 411.465774,91.9423449 409.287177,89.7678042 C407.108579,87.5932635 404.135909,86.403559 401.058594,86.4746094 L401.058594,86.4746094 Z M406.193359,114.662109 C406.193359,117.31998 404.03873,119.474609 401.380859,119.474609 C398.722989,119.474609 396.568359,117.31998 396.568359,114.662109 L396.568359,97.6679688 C396.636567,95.0424235 398.755035,92.933413 401.380859,92.8769531 C402.660502,92.8535611 403.894929,93.350105 404.801946,94.2530732 C405.708964,95.1560414 406.211026,96.3882344 406.193359,97.6679688 L406.193359,114.662109 Z" id="Shape"></path>
                                <path d="M12.1699219,40.0253906 C15.2134271,40.1621344 18.1782135,39.0354455 20.3627622,36.9119177 C22.5473109,34.78839 23.7575191,31.8567042 23.7070312,28.8105469 L23.7070312,1.24609375 L16.9609375,1.24609375 L16.9609375,29.1757813 C16.970682,30.4210444 16.4578748,31.6133471 15.5472192,32.4627478 C14.6365636,33.3121486 13.4114946,33.7408245 12.1699219,33.6445312 C10.873889,33.7267954 9.60481041,33.2492756 8.68448047,32.3330543 C7.76415052,31.4168329 7.28095732,30.1499036 7.35742187,28.8535156 L7.35742187,0.923828125 L0.6328125,0.923828125 L0.6328125,28.4882812 C0.456429512,31.5988395 1.61519099,34.6369518 3.81822116,36.839982 C6.02125133,39.0430121 9.05936358,40.2017736 12.1699219,40.0253906" id="Path"></path>
                                <path d="M43.2363281,40.0253906 C49.3608669,40.3050234 54.5580258,35.5785868 54.859375,29.4550781 C54.859375,16.9511719 38.8320313,17.2734375 38.8320313,11.1933594 C38.8909527,10.0777354 39.4045403,9.03501097 40.2530523,8.30829499 C41.1015642,7.58157902 42.2108441,7.23438348 43.3222656,7.34765625 C44.5303354,7.37585295 45.6706942,7.91143529 46.4638222,8.82312366 C47.2569502,9.73481202 47.6295293,10.9383283 47.4902344,12.1386719 L54.2148437,12.1386719 C54.3453788,9.18238542 53.2506206,6.30318353 51.1888948,4.18045989 C49.127169,2.05773626 46.2811008,0.879519297 43.3222656,0.923828125 C40.418212,0.795678726 37.5861988,1.84992836 35.472859,3.84586036 C33.3595192,5.84179236 32.1452921,8.60899201 32.1074219,11.515625 C32.1074219,23.3535156 47.8125,22.0859375 47.8125,29.7558594 C47.7473228,30.9544699 47.1980718,32.0751943 46.2906895,32.8610522 C45.3833071,33.6469101 44.1956335,34.0304866 43,33.9238281 C41.7690024,33.9702661 40.5700524,33.5253509 39.6673437,32.6871214 C38.764635,31.8488919 38.2322493,30.6861383 38.1875,29.4550781 L38.1875,27.9296875 L31.7421875,27.9296875 L31.7421875,29.5410156 C31.8301265,32.4867461 33.1055964,35.2717155 35.2785251,37.2625552 C37.4514538,39.2533948 40.3371353,40.2808772 43.2792969,40.1113281" id="Path"></path>
                                <polygon id="Path" points="82.9609375 33.2792969 68.5449219 33.2792969 82.9609375 7.66992187 82.9609375 1.56835938 61.1757813 1.56835938 61.1757813 7.66992187 74.9472656 7.66992187 60.2089844 33.2792969 60.2089844 39.3808594 82.9609375 39.3808594"></polygon>
                                <path d="M96.7324219,28.1660156 L106.658203,28.1660156 L106.658203,39.3808594 L113.103516,39.3808594 L113.103516,22.7089844 L107.001953,1.22460938 L96.7324219,1.22460938 L90.6523438,22.7089844 L90.6523438,39.3808594 L97.0976562,39.3808594 L96.7324219,28.1660156 Z M101.222656,7.66992188 L102.125,7.66992188 L105.949219,21.7636719 L97.3554688,21.7636719 L101.222656,7.66992188 Z" id="Shape"></path>
                                <path d="M128.121094,27.5214844 C128.121094,21.7636719 127.90625,15.0390625 127.90625,15.0390625 L138.648438,39.703125 L145.09375,39.703125 L145.09375,1.56835938 L139.013672,1.56835938 L139.013672,13.4277344 C139.013672,19.8730469 139.335938,26.3183594 139.335938,26.3183594 L128.443359,1.56835938 L121.998047,1.56835938 L121.998047,39.703125 L128.121094,39.703125 L128.121094,27.5214844 Z" id="Path"></path>
                                <path d="M165.611328,40.0253906 C168.707024,40.1476535 171.713108,38.9714487 173.903802,36.7807547 C176.094496,34.5900607 177.2707,31.583977 177.148438,28.4882813 L177.148438,12.1386719 C177.059446,5.76690243 171.821965,0.673704417 165.450195,0.76269561 C159.078426,0.851686804 153.985228,6.08916805 154.074219,12.4609375 L154.074219,28.4882813 C153.951956,31.583977 155.128161,34.5900607 157.318855,36.7807547 C159.509549,38.9714487 162.515632,40.1476535 165.611328,40.0253906 L165.611328,40.0253906 Z M160.798828,11.8164063 C160.867036,9.19086098 162.985504,7.08185046 165.611328,7.02539063 C166.889061,7.0018319 168.121411,7.49902936 169.025058,8.40267654 C169.928705,9.30632373 170.425902,10.5386733 170.402344,11.8164063 L170.402344,28.8105469 C170.233187,31.3380186 168.133712,33.3016777 165.600586,33.3016777 C163.06746,33.3016777 160.967985,31.3380186 160.798828,28.8105469 L160.798828,11.8164063 Z" id="Shape"></path>
                                <polygon id="Path" points="198.611328 39.3808594 201.8125 22.7304688 205.013672 39.3808594 214.617187 39.3808594 217.496094 17.9179688 217.496094 1.56835938 210.449219 1.56835938 210.449219 17.2734375 209.503906 31.6894531 208.859375 31.6894531 205.658203 17.2734375 197.966797 17.2734375 194.765625 31.6894531 194.121094 31.6894531 192.832031 17.2734375 192.832031 1.56835938 186.107422 1.56835938 186.107422 17.9179688 188.986328 39.3808594"></polygon>
                                <path d="M232.556641,28.1660156 L242.482422,28.1660156 L242.482422,39.3808594 L248.927734,39.3808594 L248.927734,22.7089844 L242.826172,1.22460938 L232.578125,1.22460938 L226.498047,22.7089844 L226.498047,39.3808594 L232.943359,39.3808594 L232.556641,28.1660156 Z M237.046875,7.66992188 L238.013672,7.66992188 L241.773438,21.7636719 L233.179688,21.7636719 L237.046875,7.66992188 Z" id="Shape"></path>
                                <path d="M263.945312,27.5214844 C263.945312,21.7636719 263.623047,15.0390625 263.623047,15.0390625 L274.515625,39.703125 L280.960938,39.703125 L280.960938,1.56835938 L274.859375,1.56835938 L274.859375,13.4277344 C274.859375,19.8730469 275.181641,26.3183594 275.181641,26.3183594 L264.289062,1.6328125 L257.84375,1.6328125 L257.84375,39.703125 L263.923828,39.703125 L263.945312,27.5214844 Z" id="Path"></path>
                                <polygon id="Path" points="297.267578 19.8300781 308.804688 39.3808594 316.818359 39.3808594 303.992188 19.5078125 315.851562 1.56835938 308.482422 1.56835938 297.267578 18.8632813 297.267578 1.56835938 290.220703 1.56835938 290.220703 39.3808594 297.267578 39.3808594"></polygon>
                                <path d="M332.501953,40.0253906 C335.597649,40.1476535 338.603733,38.9714487 340.794427,36.7807547 C342.985121,34.5900607 344.161325,31.583977 344.039062,28.4882812 L344.039062,12.1386719 C343.950071,5.76690243 338.71259,0.673704417 332.34082,0.76269561 C325.969051,0.851686804 320.875853,6.08916805 320.964844,12.4609375 L320.964844,28.4882812 C320.899745,31.5676085 322.094342,34.5400932 324.272241,36.7179929 C326.450141,38.8958926 329.422626,40.0904896 332.501953,40.0253906 L332.501953,40.0253906 Z M327.710938,11.8164062 C327.778664,9.19896763 329.884515,7.0931167 332.501953,7.02539062 C333.781596,7.00199858 335.016023,7.49854247 335.92304,8.40151066 C336.830057,9.30447886 337.332119,10.5366719 337.314453,11.8164062 L337.314453,28.8105469 C337.145296,31.3380186 335.045821,33.3016777 332.512695,33.3016777 C329.979569,33.3016777 327.880095,31.3380186 327.710938,28.8105469 L327.710938,11.8164062 Z" id="Shape"></path>
                            </g>
                        </g>
                    </g>
                </g>
            </g>
        </g>
    </g>
</svg>