<svg id="Warstwa_1" xmlns="http://www.w3.org/2000/svg" width="1285.44" height="218.34"><style>.st0{fill:#69a742}</style><path d="M54.91 96.63V217.4H0V0h54.91l82.39 132.7L219.63 0h54.91v217.4h-55.11l.25-120.77-54.2 92.71H110.1L54.91 96.63zM529.6 0h55.01v217.4H529.6V0zm55.02 112.31L666.46 0h69.84l-84.73 112.31 90.52 105.09h-69.84l-87.63-105.09z"/><path d="M384.36 164.67L384.36 52.48 466.72 52.48 494.17 0.01 384.36 0.01 329.45 0.01 329.45 52.48 329.45 164.93 329.45 217.41 384.36 217.41 494.17 217.41 466.72 164.28z"/><path d="M760.49 1.16h5.32l13.07 37.61 13.07-37.61h5.32l1.35 56.15h-4.47L793.29 9 781.4 43.4h-5.06L764.45 9l-.84 48.31h-4.47l1.35-56.15zm49.49 0h4.72v56.15h-4.72V1.16zm16.78 0h24.03v4.22h-19.31v21.17h17.79v4.21h-17.79v22.35h19.31v4.21c-3.46 3.55-5.9 6.41-5.9 10.71 0 2.19 1.1 3.29 3.12 3.29 1.09 0 1.77-.17 2.53-.34l.26 3.21c-1.1.43-2.45.59-3.71.59-3.88 0-6.41-2.44-6.41-6.57 0-5.15 3.21-8.6 6.33-10.88h-20.24V1.16zm33.71 0h13.07c10.71 0 14.75 5.83 14.75 16.19v23.78c0 10.37-4.05 16.18-14.75 16.18h-13.07V1.16zm13.07 51.95c7.17 0 10.04-3.8 10.04-11.97V17.36c0-8.18-2.87-11.97-10.04-11.97h-8.35v47.73h8.35zm28.58 0h22.43v4.21H897.4v-4.29l22.09-47.64H898.5V1.16h25.71v4.3l-22.09 47.65zm45.1-19.49v23.69h-4.72V33.62L929.94 1.16h4.97l9.95 27.57 9.95-27.57h4.98l-12.57 32.46zm19.9-32.46h4.89l20.66 47.13V1.16h4.47v56.15h-4.89l-20.66-47.13v47.13h-4.47V1.16zm52.43 0h5.23l14.24 56.15h-4.63l-3.63-14.93h-17.28l-3.54 14.93h-4.64l14.25-56.15zm10.2 37.02l-7.58-32.21-7.68 32.21h15.26zm45.36-17.87c0 6.16-2.7 10.71-8.43 12.39l11.05 24.62h-5.15l-10.46-24.02h-10.2v24.02h-4.72V1.16h15.6c8.94 0 12.31 4.73 12.31 12.99v6.16zm-4.72-6.16c0-6.32-2.11-8.77-7.93-8.77h-10.54v23.69h10.04c5.82 0 8.43-2.61 8.43-8.77v-6.15zM1085.3 16c0-9.95 4.46-15.84 14.92-15.84s14.93 5.89 14.93 15.84v26.47c0 9.95-4.72 15.85-14.93 15.85-10.2 0-14.92-5.9-14.92-15.85V16zm14.93 38.12c7.17 0 10.2-3.55 10.2-11.22V16c0-8.09-2.78-11.63-10.2-11.63s-10.2 3.55-10.2 11.63v26.9c-.01 7.67 3.03 11.22 10.2 11.22zm25.88-52.96h13.07c10.71 0 14.76 5.83 14.76 16.19v23.78c0 10.37-4.05 16.18-14.76 16.18h-13.07V1.16zm13.06 51.95c7.17 0 10.04-3.8 10.04-11.97V17.36c0-8.18-2.87-11.97-10.04-11.97h-8.35v47.73h8.35zM1164.05 16c0-9.95 4.46-15.84 14.92-15.84s14.92 5.89 14.92 15.84v26.47c0 9.95-4.72 15.85-14.92 15.85s-14.92-5.9-14.92-15.85V16zm14.92 38.12c7.17 0 10.2-3.55 10.2-11.22V16c0-8.09-2.78-11.63-10.2-11.63s-10.2 3.55-10.2 11.63v26.9c0 7.67 3.03 11.22 10.2 11.22zm61.2-3.63l8.68-49.33h4.55l-10.63 56.15h-5.14l-10.71-50.84-10.71 50.84h-5.14l-10.62-56.15h4.55l8.69 49.33 10.62-49.33h5.23l10.63 49.33zm21.24-49.33h24.03v4.22h-19.31v21.17h17.79v4.21h-17.79v22.35h19.31v4.21h-24.03V1.16zM758.98 95.93c0-10.45 4.38-15.77 14.5-15.77 3.2 0 7.67.67 10.04 1.51l-.68 4.05c-2.78-.76-5.82-1.34-9.19-1.34-7.08 0-9.95 3.04-9.95 11.72v26.3c0 8.68 2.87 11.72 9.95 11.72 3.37 0 6.41-.59 9.19-1.35l.68 4.05c-2.36.84-6.83 1.52-10.04 1.52-10.12 0-14.5-5.32-14.5-15.77V95.93zm33.8-14.76h24.03v4.22H797.5v21.16h17.79v4.22H797.5v22.34h19.31v4.22h-24.03V81.17zm33.72 0h4.89l20.66 47.13V81.17h4.47v56.15h-4.89l-20.66-47.13v47.13h-4.47V81.17zm49.82 4.22h-11.63v-4.22h27.99v4.22h-11.63v51.94h-4.72V85.39zm52.44 14.92c0 6.16-2.7 10.72-8.43 12.4l11.05 24.62h-5.15l-10.46-24.03h-10.2v24.03h-4.72V81.17h15.6c8.94 0 12.31 4.72 12.31 12.99v6.15zm-4.72-6.15c0-6.33-2.11-8.77-7.93-8.77h-10.54v23.69h10.04c5.82 0 8.43-2.62 8.43-8.78v-6.14zm44.93-12.99v42.16c0 9.61-4.8 15.01-14.67 15.01-9.87 0-14.67-5.4-14.67-15.01V81.17h4.72v42.41c0 7.84 3.2 10.54 9.95 10.54 6.75 0 9.95-2.7 9.95-10.54V81.17h4.72zm12.31 0h5.32l13.07 37.61 13.07-37.61h5.32l1.35 56.15h-4.47l-.84-48.31-11.89 34.4h-5.06l-11.89-34.4-.84 48.31h-4.47l1.33-56.15zm-221.46 80h4.72v56.15h-4.72v-56.15zm5.9 27.57l16.52-27.57h5.4l-16.78 27.57 17.37 28.58h-5.4l-17.11-28.58zm27.74-12.73c0-9.95 4.46-15.85 14.92-15.85s14.93 5.9 14.93 15.85v26.47c0 9.95-4.72 15.85-14.93 15.85-10.2 0-14.92-5.9-14.92-15.85v-26.47zm14.92 38.11c7.17 0 10.2-3.54 10.2-11.22v-26.89c0-8.1-2.78-11.63-10.2-11.63s-10.2 3.54-10.2 11.63v26.89c0 7.68 3.03 11.22 10.2 11.22zm25.88-52.95h4.89l20.66 47.13v-47.13h4.47v56.15h-4.89l-20.66-47.13v47.13h-4.47v-56.15zm40.97 15.43c0-11.21 4.8-16.44 16.44-16.44 3.71 0 7.59.5 11.05 1.68l-.59 4.13c-3.21-.93-6.75-1.6-10.46-1.6-8.6 0-11.72 3.04-11.72 12.39v25.46c0 8.1 2.36 11.97 11.13 11.97 2.11 0 4.98-.26 7.08-.59v-21.42h4.55v24.54c-3.46 1.01-8.1 1.61-11.97 1.61-10.88 0-15.51-5.9-15.51-15.85V176.6zm66.77 3.7c0 6.16-2.7 10.72-8.43 12.4l11.05 24.62h-5.15l-10.46-24.03h-10.2v24.03h-4.72v-56.15h15.6c8.94 0 12.31 4.72 12.31 12.99v6.14zm-4.72-6.14c0-6.33-2.11-8.77-7.93-8.77h-10.54v23.69h10.04c5.82 0 8.43-2.62 8.43-8.78v-6.14zm16.18-12.99h24.03v4.22h-19.31v21.16h17.79v4.22h-17.79v22.34h19.31v4.22h-24.03v-56.16zm42.23 57.17c-2.61 0-7.42-.6-10.37-1.77l.76-4.3c2.95 1.1 6.07 1.77 9.78 1.77 7.5 0 9.69-3.88 9.69-10.37 0-8.52-1.35-10.12-9.19-13.57-10.2-4.47-11.72-7.68-11.72-15.69 0-10.45 4.47-14.24 13.83-14.24 4.47 0 8.43 1.01 10.54 1.94l-.67 4.13c-2.95-1.01-6.41-1.85-9.95-1.85-7.25 0-9.02 2.78-9.02 9.87 0 7 .85 7.59 8.6 11.38 9.95 4.8 12.31 7.17 12.31 17.71 0 9.42-4.64 14.99-14.59 14.99zm22.6-42.33c0-9.95 4.46-15.85 14.92-15.85s14.93 5.9 14.93 15.85v26.47c0 9.95-4.72 15.85-14.93 15.85-10.2 0-14.92-5.9-14.92-15.85v-26.47zm14.92 38.11c7.17 0 10.2-3.54 10.2-11.22v-26.89c0-8.1-2.78-11.63-10.2-11.63s-10.2 3.54-10.2 11.63v26.89c0 7.68 3.03 11.22 10.2 11.22zm61.2-3.62l8.68-49.33h4.55l-10.63 56.15h-5.14l-10.71-50.84-10.71 50.84h-5.14l-10.62-56.15h4.55l8.69 49.33 10.62-49.33h5.23l10.63 49.33zm21.24-49.33h24.03v4.22h-19.31v21.16h17.79v4.22h-17.79v22.34h19.31v4.22h-24.03v-56.16z"/><path class="st0" d="M219.68 96.63L165.48 189.34 54.91 0z"/><path class="st0" d="M736.3 0L584.62 214.67 584.62 112.31z"/><path class="st0" d="M384.36 51.88L329.45 217.41 411.81 164.26z"/></svg>