<svg width="120" height="61" xmlns="http://www.w3.org/2000/svg" xmlns:xlink="http://www.w3.org/1999/xlink"><defs><path d="M10.08 44.74c1.06-2.12 1.21-4.58.46-7.32l-.13-.47-.36-.32c-1.62-1.42-2.96-3.04-3.97-4.83-1.88-3.31-2.19-6.35-2.2-7.87-.06-5.8 3.34-9.94 4.46-11.31 4.57-5.57 10.89-7.41 13.27-8.11 2.28-.67 5.4-1.3 9.06-1.3 2.05 0 4.27.2 6.61.7 5.81 1.24 10.52 3.69 14.01 7.27 1 1.02 3.33 3.42 4.63 7.26 1.14 3.36.97 6.38.63 8.31-.61 3.49-2.18 5.99-2.83 6.91-2.74 3.86-6.47 5.66-8.69 6.73-5.61 2.7-10.75 2.95-13.52 3.08-4.41.22-8.82-.29-13.11-1.49l-.98-.27-.67.77a15.027 15.027 0 0 1-4.68 3.63c-1.43.72-2.91 1.18-4.19 1.47.8-.72 1.6-1.65 2.2-2.84M20.69 1.43c-2.64.77-9.65 2.82-14.85 9.16C4.54 12.18.57 17.01.65 23.98c.02 1.83.39 5.48 2.62 9.42 1.11 1.96 2.55 3.75 4.27 5.33.41 1.76.29 3.3-.35 4.58-.81 1.63-2.31 2.6-3.41 3.31-.98.64-2.46 1.6-1.78 3.16.16.36.51.86 1.29 1.14.46.17 1.1.25 1.87.25 2.21 0 5.45-.71 8.33-2.15 1.86-.93 3.53-2.16 4.97-3.65a44.39 44.39 0 0 0 13.17 1.34c2.78-.14 8.56-.41 14.76-3.4 2.34-1.13 6.71-3.23 9.93-7.77.96-1.36 2.68-4.23 3.37-8.22.58-3.31.32-6.73-.75-9.9-1.53-4.54-4.32-7.4-5.37-8.48-3.94-4.04-9.2-6.79-15.64-8.17C35.36.22 32.92 0 30.66 0c-4.03 0-7.46.69-9.97 1.43" id="a"/><linearGradient x1=".004%" y1="50.024%" x2="100.011%" y2="50.024%" id="b"><stop stop-color="#BDDB59" offset="0%"/><stop stop-color="#279EAC" offset="100%"/></linearGradient><path d="M28.51 44.22c-2.76-.13-7.91-.38-13.51-3.08-2.23-1.07-5.96-2.87-8.69-6.74-.65-.91-2.22-3.41-2.83-6.91-.34-1.94-.51-4.95.63-8.31 1.3-3.85 3.63-6.24 4.63-7.26 3.48-3.58 8.2-6.02 14.01-7.27 6.5-1.4 12.11-.44 15.67.6 2.38.69 8.69 2.54 13.27 8.11 1.12 1.36 4.52 5.51 4.46 11.31-.02 1.52-.33 4.56-2.2 7.87a18.784 18.784 0 0 1-3.97 4.83l-.36.32-.13.47c-.75 2.74-.6 5.2.46 7.32.59 1.19 1.4 2.12 2.22 2.86-1.28-.28-2.76-.75-4.19-1.47-1.79-.89-3.36-2.11-4.68-3.63l-.67-.77-.98.27a41.13 41.13 0 0 1-13.14 1.48M22.06 1.5C15.62 2.88 10.35 5.63 6.42 9.67c-1.05 1.08-3.84 3.94-5.37 8.48-1.35 4-1.15 7.59-.75 9.9.7 3.99 2.41 6.86 3.38 8.22 3.22 4.54 7.58 6.64 9.92 7.77 6.2 2.99 11.98 3.27 14.76 3.4 4.43.21 8.85-.24 13.17-1.35a18.44 18.44 0 0 0 4.98 3.65c2.88 1.44 6.12 2.15 8.33 2.15.76 0 1.41-.08 1.87-.25.78-.28 1.13-.77 1.29-1.13.68-1.56-.8-2.52-1.77-3.16-1.1-.71-2.6-1.69-3.41-3.31-.65-1.3-.76-2.8-.35-4.58 1.72-1.57 3.16-3.36 4.27-5.33 2.23-3.94 2.6-7.59 2.62-9.42.08-6.97-3.89-11.8-5.19-13.39-5.2-6.33-12.21-8.38-14.85-9.16-2.51-.73-5.94-1.43-9.97-1.43-2.27 0-4.71.22-7.29.77" id="d"/><linearGradient x1=".004%" y1="50.024%" x2="100.011%" y2="50.024%" id="e"><stop stop-color="#BDDB59" offset="0%"/><stop stop-color="#279EAC" offset="100%"/></linearGradient><path d="M2.39.51a1.609 1.609 0 1 0 0 3.22h26.17a1.609 1.609 0 1 0 0-3.22H2.39z" id="g"/><linearGradient x1=".004%" y1="50.024%" x2="100.011%" y2="50.024%" id="h"><stop stop-color="#BDDB59" offset="0%"/><stop stop-color="#279EAC" offset="100%"/></linearGradient><path d="M2.39.24a1.609 1.609 0 1 0 0 3.22h20.42a1.609 1.609 0 1 0 0-3.22H2.39z" id="j"/><linearGradient x1=".004%" y1="50.024%" x2="100.011%" y2="50.024%" id="k"><stop stop-color="#BDDB59" offset="0%"/><stop stop-color="#279EAC" offset="100%"/></linearGradient><path d="M2.24.84a1.609 1.609 0 1 0 0 3.22h26.17a1.609 1.609 0 1 0 0-3.22H2.24z" id="m"/><path d="M1.99.57a1.609 1.609 0 1 0 0 3.22h20.42a1.609 1.609 0 1 0 0-3.22H1.99z" id="o"/></defs><g fill="none" fill-rule="evenodd"><g transform="translate(60)"><mask id="c" fill="#fff"><use xlink:href="#a"/></mask><path fill="url(#b)" fill-rule="nonzero" mask="url(#c)" d="M.57 0h59.71v51.16H.57z"/></g><g transform="translate(0 9)"><mask id="f" fill="#fff"><use xlink:href="#d"/></mask><path fill="url(#e)" fill-rule="nonzero" mask="url(#f)" d="M-.3.73h59.73v51.15H-.3z"/></g><g transform="translate(13 26)"><mask id="i" fill="#fff"><use xlink:href="#g"/></mask><path fill="url(#h)" fill-rule="nonzero" mask="url(#i)" d="M.78.51h29.4v3.22H.78z"/></g><g transform="translate(13 38)"><mask id="l" fill="#fff"><use xlink:href="#j"/></mask><path fill="url(#k)" fill-rule="nonzero" mask="url(#l)" d="M.78.24h23.64v3.22H.78z"/></g><g transform="translate(75 15)"><mask id="n" fill="#fff"><use xlink:href="#m"/></mask><path fill="url(#h)" fill-rule="nonzero" mask="url(#n)" d="M.63.84h29.4v3.22H.63z"/></g><g transform="translate(81 27)"><mask id="p" fill="#fff"><use xlink:href="#o"/></mask><path fill="url(#k)" fill-rule="nonzero" mask="url(#p)" d="M.38.57h23.64v3.22H.38z"/></g></g></svg>