<svg width="600" height="400" xmlns="http://www.w3.org/2000/svg"><g fill="none" fill-rule="evenodd"><path fill="#FFF" d="M0 0h600v400H0z"/><path d="M519.24 178.708h-4.93c-.58 0-.87.292-.87.875v39.084c0 .583.29.875.87.875h4.93c.58 0 .87-.292.87-.875v-39.084c.29-.583-.29-.875-.87-.875zm0-13.708h-4.93c-.58 0-.87.292-.87.875v4.958c0 .584.29.875.87.875h4.93c.58 0 .87-.291.87-.875v-4.958c.29-.583-.29-.875-.87-.875zm-379.9 0h-22.33c-.58 0-.87.292-.87.875v52.792c0 .583.29.875.87.875h4.93c.58 0 .87-.292.87-.875v-23.042h12.76c.58 0 .87-.292.87-.875v-4.958c0-.584-.29-.875-.87-.875h-12.76v-17.209h16.24c.58 0 .87-.291.87-.875v-4.958c.29-.583 0-.875-.58-.875zm55.1 13.708h-9.86v-12.833c0-.583-.58-.875-.87-.875h-4.93c-.58 0-.87.292-.87.875v43.458c0 5.542 4.64 10.209 10.15 10.209h6.67c.58 0 .87-.292.87-.875v-4.959c0-.583-.29-.875-.87-.875h-6.38c-2.03 0-3.48-1.458-3.48-3.5v-23.916h9.86c.58 0 .87-.292.87-.875v-4.959c-.29-.583-.58-.875-1.16-.875zm-24.36 0h-4.93c-.58 0-.87.292-.87.875v32.375c0 .584-.29.875-.87.875h-9.28c-1.74 0-3.48-1.458-3.48-3.5v-29.75c0-.583-.29-.875-.87-.875h-4.93c-.58 0-.87.292-.87.875v29.75c0 5.542 4.64 10.209 10.15 10.209h14.5c1.45 0 2.61-1.167 2.61-2.625v-37.334c-.29-.583-.58-.875-1.16-.875zm58.29 0h-4.93c-.58 0-.87.292-.87.875v32.375c0 .584-.29.875-.87.875h-9.28c-1.74 0-3.48-1.458-3.48-3.5v-29.75c0-.583-.29-.875-.87-.875h-4.93c-.58 0-.87.292-.87.875v29.75c0 5.542 4.64 10.209 10.15 10.209h14.5c1.45 0 2.61-1.167 2.61-2.625v-37.334c-.29-.583-.58-.875-1.16-.875zm316.39 0h-14.5a2.607 2.607 0 0 0-2.61 2.625v37.625c0 .584.29.875.87.875h4.93c.58 0 .87-.291.87-.875v-32.375c0-.583.29-.875.87-.875h9.28c1.74 0 3.48 1.459 3.48 3.5v29.75c0 .584.29.875.87.875h4.93c.58 0 .87-.291.87-.875v-29.75c.29-5.833-4.35-10.5-9.86-10.5zM323.49 165h-15.95c-.58 0-.87.292-.87.875v52.792c0 .583.29.875.87.875h4.93c.58 0 .87-.292.87-.875v-19.542h10.15c5.51 0 10.15-4.667 10.15-10.208v-13.709c0-5.541-4.35-10.208-10.15-10.208zm3.48 23.917c0 2.041-1.45 3.5-3.48 3.5h-10.15V172h10.15c2.03 0 3.48 1.458 3.48 3.5v13.417zm51.04-10.209h-6.67c-5.51 0-10.15 4.667-10.15 10.209v20.416c0 5.542 4.64 10.209 10.15 10.209h6.67c5.51 0 10.15-4.667 10.15-10.209v-20.416c.29-5.542-4.35-10.209-10.15-10.209zm3.48 30.625c0 2.042-1.45 3.5-3.48 3.5h-6.67c-2.03 0-3.48-1.458-3.48-3.5v-20.416c0-2.042 1.45-3.5 3.48-3.5h6.38c2.03 0 3.48 1.458 3.48 3.5v20.416h.29zm-128.47-30.625h-6.67c-5.51 0-10.15 4.667-10.15 10.209v29.75c0 .583.29.875.87.875H242c.58 0 .87-.292.87-.875v-29.75c0-2.042 1.45-3.5 3.48-3.5h6.67c.58 0 .87-.292.87-.875v-4.959c0-.583-.58-.875-.87-.875zm103.24 0h-6.67c-5.51 0-10.15 4.667-10.15 10.209v29.75c0 .583.29.875.87.875h4.93c.58 0 .87-.292.87-.875v-29.75c0-2.042 1.45-3.5 3.48-3.5h6.67c.58 0 .87-.292.87-.875v-4.959c0-.583-.58-.875-.87-.875zm231.71 0h-15.95c-5.51 0-10.15 4.667-10.15 10.209v20.416c0 5.542 4.64 10.209 10.15 10.209h10.15v3.5c0 2.041-1.45 3.5-3.48 3.5h-6.67c-.58 0-.87.291-.87.875v4.958c0 .583.29.875.87.875h6.67c5.51 0 10.15-4.667 10.15-10.208v-43.459c0-.583-.58-.875-.87-.875zm-6.09 34.125h-10.15c-2.03 0-3.48-1.458-3.48-3.5v-20.416c0-2.042 1.45-3.5 3.48-3.5h10.15v27.416zm-167.04-34.125h-10.73c-5.51 0-10.15 4.667-10.15 10.209v20.416c0 5.542 4.64 10.209 10.15 10.209h10.44c.58 0 .87-.292.87-.875v-4.959c0-.583-.29-.875-.87-.875H404.4c-2.03 0-3.48-1.458-3.48-3.5v-20.416c0-2.042 1.45-3.5 3.48-3.5h10.44c.58 0 .87-.292.87-.875v-4.959c0-.583-.29-.875-.87-.875zm-140.07 0h-6.67c-5.51 0-10.15 4.667-10.15 10.209v20.416c0 5.542 4.64 10.209 10.15 10.209h13.34c.58 0 .87-.292.87-.875v-4.959c0-.583-.29-.875-.87-.875h-13.05c-2.03 0-3.48-1.458-3.48-3.5v-6.708h19.43c.58 0 .87-.292.87-.875v-12.833c-.29-5.542-4.64-10.209-10.44-10.209zm3.48 16.917h-13.63v-6.417c0-2.041 1.45-3.5 3.48-3.5h6.38c2.03 0 3.48 1.459 3.48 3.5v6.417h.29zm160.37-16.917h-6.67c-5.51 0-10.15 4.667-10.15 10.209v20.416c0 5.542 4.64 10.209 10.15 10.209h13.34c.58 0 .87-.292.87-.875v-4.959c0-.583-.29-.875-.87-.875h-13.34c-2.03 0-3.48-1.458-3.48-3.5v-6.708h19.43c.58 0 .87-.292.87-.875v-12.833c0-5.542-4.64-10.209-10.15-10.209zm3.48 16.917h-13.63v-6.708c0-1.75 1.45-3.5 3.48-3.5h6.67c1.74 0 3.48 1.458 3.48 3.5v6.708zm32.19 3.208l-10.73-4.958c-1.16-.583-2.03-1.75-2.03-3.208v-1.75c0-2.042 1.45-3.5 3.48-3.5h11.02c.58 0 .87-.292.87-.875v-4.959c0-.583-.29-.875-.87-.875h-11.02c-5.51 0-10.15 4.667-10.15 10.209v2.041c0 3.5 2.03 6.709 5.22 7.875l10.73 4.959c1.16.583 2.03 1.75 2.03 3.208v2.625c0 1.75-1.45 3.5-3.48 3.5h-13.63c-.58 0-.87.292-.87.875v4.958c0 .584.29.875.87.875h13.63c5.51 0 10.15-4.666 10.15-10.208V207c0-3.792-2.32-6.708-5.22-8.167zm28.13 0l-10.73-4.958c-1.16-.583-2.03-1.75-2.03-3.208v-1.75c0-2.042 1.45-3.5 3.48-3.5h11.02c.58 0 .87-.292.87-.875v-4.959c0-.583-.29-.875-.87-.875h-11.02c-5.51 0-10.15 4.667-10.15 10.209v2.041c0 3.5 2.03 6.709 5.22 7.875l10.73 4.959c1.16.583 2.03 1.75 2.03 3.208v2.625c0 1.75-1.45 3.5-3.48 3.5h-13.63c-.58 0-.87.292-.87.875v4.958c0 .584.29.875.87.875h13.63c5.51 0 10.15-4.666 10.15-10.208V207c0-3.792-2.03-6.708-5.22-8.167zM64.23 165H10.87c-.58 0-.87.292-.87.875v52.792c0 .583.29.875.87.875h53.36c15.08 0 27.26-12.25 27.26-27.417C91.49 177.25 79.31 165 64.23 165zm0 51.333c-13.05 0-23.78-10.5-23.78-23.916 0-13.125 10.73-23.917 23.78-23.917v47.833z" fill="#000" fill-rule="nonzero"/></g></svg>