<svg width="600" height="400" xmlns="http://www.w3.org/2000/svg"><g fill="none" fill-rule="evenodd"><path fill="#FFF" d="M0 0h600v400H0z"/><g transform="translate(114 10)"><path d="M216.891 112.848l-27.04 27.061 27.04-27.06zM167.99 161.98l-42.765 42.798 4.411 4.414 4.602 4.606 91.666-91.737-4.602-4.606-86.296 86.363m114.678-78.303l14.574 14.586-10.164 10.172-6.328-6.334 5.37-5.373M207.302 66.02L188.7 84.636l3.644 3.647 1.534 1.535m10.739 10.748c12.273 12.282 24.738 24.565 37.011 37.04 1.726-1.727 3.452-3.454 4.986-5.182-15.917-15.93-32.025-31.858-47.942-47.788l4.986-4.99 35.094 35.122m-23.204-53.546l63.667 63.717-9.972 9.98-60.407-60.454 4.986-4.99c17.834 17.848 35.669 35.697 53.503 53.737m-131.362-4.99c31.834 31.859 63.668 63.717 95.31 95.576l9.78-9.788-95.31-95.384 2.494-2.495-4.603-4.606c3.836-3.262 7.67-6.717 11.506-9.98 9.589-8.06 18.985-15.737 28.382-23.03-11.122 2.495-28.957 7.869-47.559 20.92-21.478 14.969-33.751 32.818-39.696 43.181l12.273 12.283a144.725 144.725 0 019.014-14.586 205.57 205.57 0 0111.122-14.202l4.794 4.798c.96-.96 1.726-1.727 2.493-2.687z" stroke="#000" stroke-width="2.719"/><path d="M169.332 163.707c-.767.768-2.11.768-2.876 0-.767-.768-.767-2.111 0-2.879.767-.767 2.11-.767 2.876 0 .767.768.767 2.111 0 2.88" fill="#000"/><circle stroke="#000" stroke-width="1.361" transform="rotate(45 167.784 162.323)" cx="167.784" cy="162.323" r="2.11"/><path d="M191.002 142.02c-.767.768-2.11.768-2.876 0-.767-.767-.767-2.11 0-2.879.767-.767 2.11-.767 2.876 0 .767.768.767 2.112 0 2.88" fill="#000"/><ellipse stroke="#000" stroke-width="1.361" cx="189.468" cy="140.485" rx="2.109" ry="2.111"/><path d="M253.327 141.636c-.767.768-2.11.768-2.876 0-.767-.767-.767-2.11 0-2.878.767-.768 2.109-.768 2.876 0 .959.767.959 2.11 0 2.878" fill="#000"/><ellipse stroke="#000" stroke-width="1.361" cx="251.985" cy="140.293" rx="2.109" ry="2.111"/><path d="M242.205 117.838c-.768.768-2.11.768-2.877 0-.767-.767-.767-2.11 0-2.878.767-.768 2.11-.768 2.877 0 .958.767.958 2.11 0 2.878" fill="#000"/><ellipse stroke="#000" stroke-width="1.361" cx="240.862" cy="116.303" rx="2.109" ry="2.111"/><path d="M250.067 125.515c-.767.768-2.11.768-2.876 0-.768-.768-.768-2.111 0-2.879.767-.767 2.109-.767 2.876 0 .959.768.959 2.111 0 2.88" fill="#000"/><ellipse stroke="#000" stroke-width="1.361" cx="248.725" cy="124.172" rx="2.109" ry="2.111"/><path d="M269.628 124.94c-.768.767-2.11.767-2.877 0-.767-.768-.767-2.112 0-2.88.767-.767 2.11-.767 2.877 0 .767.768.767 2.112 0 2.88" fill="#000"/><ellipse stroke="#000" stroke-width="1.361" cx="268.093" cy="123.596" rx="2.109" ry="2.111"/><path d="M196.563 92.505c-.767.768-2.109.768-2.876 0-.767-.768-.767-2.111 0-2.879.767-.767 2.11-.767 2.876 0 .768.768.768 1.92 0 2.88" fill="#000"/><ellipse stroke="#000" stroke-width="1.361" cx="195.221" cy="90.97" rx="2.109" ry="2.111"/><path d="M204.426 100.182c-.767.767-2.11.767-2.877 0-.767-.768-.767-2.111 0-2.879.768-.768 2.11-.768 2.877 0 .959.768.959 2.111 0 2.879" fill="#000"/><ellipse stroke="#000" stroke-width="1.361" cx="203.084" cy="98.838" rx="2.109" ry="2.111"/><path d="M215.357 60.838c-.767.768-2.11.768-2.877 0-.767-.767-.767-2.11 0-2.878.767-.768 2.11-.768 2.877 0 .959.767.959 1.919 0 2.878" fill="#000"/><ellipse stroke="#000" stroke-width="1.361" cx="214.014" cy="59.303" rx="2.109" ry="2.111"/><path d="M213.823 252.758c-8.438 1.919-17.068 2.878-26.08 2.878-66.353 0-120.048-53.737-120.048-120.141S121.39 15.354 187.742 15.354 307.79 69.09 307.79 135.494c0 38.577-18.219 72.93-46.6 95" stroke="#000" stroke-width="2.719"/><path d="M105.281 30.707c50.82-40.303 124.65-38.768 173.935 6.525 54.462 50.091 57.914 134.92 7.863 189.425-50.052 54.505-134.814 57.96-189.277 7.868-46.6-42.99-55.996-111.313-26.272-164.283" stroke="#000" stroke-width="1.361"/><path d="M105.857 31.859c-.192 1.151-1.151 1.919-2.302 1.727-1.15-.192-1.917-1.152-1.726-2.303.192-1.152 1.151-1.92 2.302-1.727 1.15.191 1.917 1.151 1.726 2.303" fill="#000"/><ellipse stroke="#000" stroke-width="1.361" cx="103.747" cy="31.475" rx="2.109" ry="2.111"/><path d="M74.215 68.707c-.192 1.152-1.15 1.92-2.302 1.727-1.15-.192-1.917-1.151-1.725-2.303.191-1.151 1.15-1.919 2.3-1.727 1.151.192 1.918 1.343 1.727 2.303" fill="#000"/><ellipse stroke="#000" stroke-width="1.361" cx="72.297" cy="68.515" rx="2.109" ry="2.111"/><path d="M217.083 253.717c-.767.768-2.11.768-2.877 0-.767-.768-.767-2.11 0-2.879.767-.767 2.11-.767 2.877 0 .767.768.767 2.111 0 2.88" fill="#000"/><ellipse stroke="#000" stroke-width="1.361" cx="215.74" cy="252.374" rx="2.109" ry="2.111"/><path d="M261.573 233.182c-.767.767-2.11.767-2.876 0-.767-.768-.767-2.111 0-2.879.767-.768 2.11-.768 2.876 0 .959.768.959 1.92 0 2.879" fill="#000"/><ellipse stroke="#000" stroke-width="1.361" cx="260.231" cy="231.646" rx="2.109" ry="2.111"/><path d="M207.686 68.707c-.767.768-2.301.768-3.068 0-.767-.768-.767-2.303 0-3.07.767-.768 2.301-.768 3.068 0 .767.767.767 2.302 0 3.07" fill="#000"/><ellipse stroke="#000" stroke-width=".543" cx="206.152" cy="67.172" rx="2.109" ry="2.111"/><path d="M296.859 377.505h-13.424v-13.434h13.424v13.434zm73.64-47.02h-16.301v47.212h-13.424v-47.212h-16.3v-10.556h45.832v10.556h.192zm-52.737 47.02h-13.424v-57.768h13.424v57.768zm-62.709-22.07l-5.37-15.738c-.383-.96-.767-2.111-1.342-3.455-.383-1.343-.959-2.878-1.342-4.414-.384 1.536-.767 3.071-1.343 4.414-.383 1.344-.958 2.495-1.342 3.647l-5.37 15.737h16.109v-.192zm21.286 22.07h-10.355c-1.15 0-2.11-.192-2.877-.768-.767-.575-1.342-1.151-1.534-2.11l-3.452-9.98H236.26l-3.452 9.98c-.384.767-.767 1.343-1.534 1.918a4.708 4.708 0 01-2.877.96H217.85l22.245-57.768h13.616l22.628 57.768zm-81.118-9.98c1.726 0 3.26-.192 4.41-.767 1.151-.384 1.918-.96 2.686-1.728.575-.767 1.15-1.535 1.342-2.495.192-.96.383-1.727.383-2.687 0-1.151-.191-1.919-.383-2.878-.192-.768-.767-1.536-1.342-2.111-.768-.576-1.535-.96-2.685-1.344-1.15-.384-2.493-.384-4.22-.384h-9.396v14.394h9.205zm-9.397-37.616v14.202h6.904c1.534 0 2.877-.192 4.027-.384 1.15-.192 2.11-.575 3.069-1.151.767-.576 1.534-1.344 1.917-2.111.384-.96.576-2.111.576-3.455 0-1.343-.192-2.495-.576-3.454-.383-.96-.959-1.728-1.534-2.112-.767-.575-1.534-.96-2.685-1.151-1.15-.192-2.493-.384-3.835-.384h-7.863 0zm7.863-10.172c4.027 0 7.287.384 10.164 1.152 2.876.768 5.177 1.727 6.903 3.07 1.726 1.344 3.069 3.071 3.836 4.99.767 1.92 1.15 4.03 1.15 6.526 0 1.343-.191 2.495-.575 3.838-.383 1.152-.959 2.303-1.726 3.455-.767.96-1.726 1.919-3.068 2.878-1.15.96-2.685 1.536-4.41 2.303 3.835.96 6.711 2.495 8.437 4.415 1.918 2.11 2.685 4.798 2.685 8.06 0 2.495-.384 4.798-1.343 6.91-.958 2.11-2.3 4.03-4.219 5.565-1.917 1.535-4.027 2.879-6.711 3.646-2.685.96-5.754 1.344-9.205 1.344h-23.013V320.12h21.095v-.384zm-56.572 47.212c1.726 0 3.452-.383 4.794-.96 1.343-.575 2.685-1.534 3.644-2.494.959-1.152 1.726-2.495 2.301-4.03.575-1.536.767-3.455.767-5.374v-34.162h13.424v34.162c0 3.454-.575 6.717-1.726 9.788-1.15 2.879-2.876 5.565-4.986 7.677-2.11 2.11-4.794 3.838-7.862 4.99-3.069 1.151-6.52 1.727-10.356 1.727-3.835 0-7.287-.576-10.356-1.728-3.068-1.151-5.753-2.878-7.862-4.99-2.11-2.11-3.835-4.606-4.986-7.676-1.15-2.879-1.726-6.142-1.726-9.788v-34.162h13.424v34.162c0 2.111.192 3.838.767 5.374.575 1.535 1.342 2.878 2.301 4.03.959 1.151 2.11 1.92 3.644 2.495 1.534.768 3.068.96 4.794.96zm-56.764-19.96c1.726 0 3.452-.191 4.603-.767 1.342-.384 2.301-1.151 3.068-1.919.767-.768 1.342-1.727 1.726-2.879.384-1.151.575-2.303.575-3.454 0-2.495-.767-4.606-2.493-5.95-1.726-1.343-4.219-2.11-7.67-2.11h-5.37v17.08h5.561zm28.382 30.516H96.652c-2.302 0-3.836-.768-4.795-2.495l-9.588-16.697c-.384-.768-.959-1.151-1.534-1.535-.575-.384-1.343-.576-2.301-.576h-3.452v21.303H61.558v-57.768H80.35c4.22 0 7.671.384 10.74 1.344 2.876.767 5.369 2.11 7.287 3.646 1.917 1.536 3.26 3.263 4.027 5.374.767 2.111 1.342 4.414 1.342 6.91 0 1.918-.192 3.646-.767 5.373-.575 1.727-1.15 3.262-2.301 4.606-.959 1.343-2.11 2.687-3.644 3.838-1.342 1.152-3.068 2.111-4.986 2.687.96.384 1.726.96 2.493 1.727.767.768 1.534 1.536 2.11 2.303l12.081 19.96zm-76.708-29.94h20.52v24.374c-2.877 2.112-6.137 3.647-9.397 4.798a37.863 37.863 0 01-10.547 1.536c-4.794 0-9.013-.768-13.04-2.303-3.836-1.536-7.288-3.647-9.973-6.142-2.684-2.687-4.986-5.757-6.328-9.404-1.534-3.646-2.3-7.484-2.3-11.707s.767-8.252 2.11-11.899c1.342-3.646 3.451-6.717 6.136-9.404 2.685-2.687 5.945-4.606 9.588-6.141 3.836-1.536 8.055-2.111 12.657-2.111 2.493 0 4.603.192 6.712.575 2.11.384 4.027.96 5.753 1.536 1.726.767 3.452 1.535 4.986 2.495 1.534.96 2.877 1.919 4.027 3.07l-3.835 5.95c-.575.96-1.342 1.535-2.301 1.727-.96.192-1.918 0-3.069-.768-1.15-.575-2.11-1.151-3.068-1.727l-2.876-1.151c-.96-.384-1.918-.576-3.069-.576-1.15-.192-2.301-.192-3.643-.192-2.493 0-4.795.384-6.712 1.343-1.918.96-3.644 2.112-5.178 3.839-1.342 1.535-2.493 3.454-3.26 5.757-.767 2.303-1.15 4.798-1.15 7.485 0 3.071.383 5.758 1.342 8.253.767 2.303 2.11 4.414 3.643 5.95 1.534 1.727 3.452 2.878 5.562 3.838 2.109.767 4.602 1.343 7.095 1.343 1.534 0 3.068-.192 4.41-.384 1.343-.384 2.494-.767 3.836-1.343v-8.828h-5.753c-.767 0-1.534-.192-1.918-.768-.383-.384-.767-.96-.767-1.727v-7.293h-.192z" stroke="#000" stroke-width="2.719"/></g></g></svg>