<svg width="600" height="400" xmlns="http://www.w3.org/2000/svg"><g fill="none" fill-rule="evenodd"><path fill="#FFF" d="M0 0h600v400H0z"/><path d="M10 76h198.857v249H10z"/><path d="M191.25 212.95c-1.792 2.874-3.848 5.348-7.856 6.36 2.279-11.231 4.34-22.825 5.966-33.522 2.15.822 4.18 1.932 6.033 3.3 4.925 3.833-.792 18.493-4.143 23.862zM40.295 159.457l-.078 1.167c10.694-1.956 26.478-4.27 37.586-5.255 4.94-28.345 14.236-53.597 28.788-70.498-9.87 1.162-24.138 4.617-37.229 14.39-17.514 13.052-27.291 33.309-29.067 60.196zM27.535 199.4c.398 3.009 1.035 6.376 2.558 8.497.595.825 2.18 3.014 8.286 3.014h.46c.38-4.52.952-9.2 1.715-14.042 1.553-11.413 2.589-16.082 2.589-16.082 4.143 0 4.143 2.594 4.143 7.263 0 51.808 11.833 61.591 28.093 58.728-2.589-24.579-2.708-50.812.14-75.54-10.057-.104-27.337.212-31.34.212-6.215 0-15.536-7.263-18.384-5.385-.86.566-2.33 2.75-2.33 6.422 0 3.258 1.294 10.557 2.34 16.424.684 3.865 1.336 7.522 1.73 10.494v-.005z" fill="#FFD82B" fill-rule="nonzero"/><path d="M190.375 178.764c2.03-14.711 3.06-27.135 2.429-33.77C190.732 123.206 166.91 76 115.643 76c-29.518 0-79.232 16.6-83.619 82.907a12.055 12.055 0 0 0-5.354-1.344 10.342 10.342 0 0 0-4.241.918c-4.661 2.075-7.25 7.781-7.25 14.006 0 6.225 3.107 20.232 4.142 28.013 1.036 7.781 3.439 18.706 19.042 18.716C35.706 299.582 95.524 325 126 325c35.214 0 45.571-20.75 41.946-49.8 4.185-8.175 9.394-27.374 13.983-48.82 12.024-1.276 16.095-11.47 18.642-19.655 1.611-5.188 5.179-6.744 5.179-6.744s3.107-6.225 3.107-15.562a147.023 147.023 0 0 0-18.482-5.655zm-150.08-19.308c1.776-26.886 11.553-47.143 29.067-60.21C87.435 85.757 107.746 84.3 115.642 84.3a65.375 65.375 0 0 1 29.674 6.832 69.23 69.23 0 0 1 21.108 16.647c11.258 12.968 17.219 28.422 18.125 38.003.518 5.566-.347 16.89-2.3 31.198-8.135-1.598-16.333-2.64-23.101-2.677a25.174 25.174 0 0 1-11.113-2.635c-14.573-7.252-40.968-16.818-61.392-16.818-9.436 0-32.356 3.2-46.426 5.774l.078-1.168zm101.24 25.482l-3.624 4.15c-3.625 4.15-10.357 15.562-10.357 15.562-6.215 3.112-15.956 2.324-26.929-1.556-8.804-3.113-8.804-12.45-8.286-18.675.518-6.225 0-18.675 15.018-18.675 13.464 0 30.554 8.818 34.179 10.893 3.625 2.075 0 8.3 0 8.3zm13.936 71.893c-.59 7.781-4.966 13.036-12.382 15.256-3.107.52 4.661-10.893-9.321-10.893s-11.393 10.893-15.536 9.337c-9.523-4.072-12.377-11.516-13.195-16.397a4.155 4.155 0 0 1 .898-3.33 4.14 4.14 0 0 1 3.1-1.5c13.521-.358 26.359-1.94 31.983-5.229 3.573 3.937 9.114 7.133 12.21 8.736a4.151 4.151 0 0 1 2.243 4.02zm13.91-13.02c-2.372-3.798-6.857-8.856-14.381-10.111-7.13-1.193-12.35 4.072-12.429 4.15-.041-.114-3.184-8.3-14.5-8.3-35.214 0-80.785 60.175-80.785-41.5 0-4.669 0-7.263-4.143-7.263 0 0-1.036 4.67-2.59 16.082a187.58 187.58 0 0 0-1.703 14.047h-.461c-6.116 0-7.7-2.189-8.286-3.013-1.553-2.122-2.16-5.489-2.558-8.498-.399-3.008-1.036-6.63-1.73-10.494-1.056-5.867-2.35-13.166-2.35-16.424 0-3.672 1.47-5.856 2.33-6.422 2.848-1.878 12.17 5.385 18.384 5.385 5.178 0 32.547-.519 37.803 0 5.179.519 4.143 2.075 3.625 15.044-.518 12.968 4.692 19.634 12.429 22.825 8.803 3.631 24.857 5.68 32.625 1.556 8.803-4.669 17.027-21.082 18.125-24.381 1.035-3.113 3.625-2.594 3.625 0v4.668c0 13.488 5.178 17.638 5.178 24.9 0 5.733-2.589 6.168-5.178 6.744-4.661 1.038-4.661 5.188-4.661 5.188 10.875 2.075 14.878-2.075 16.054-5.707a26.182 26.182 0 0 0 9.704 3.803 554.242 554.242 0 0 1-4.127 17.72zm21.869-30.861c-2.59 4.15-5.727 7.475-14.5 6.744-6.214-.519-11.91-4.15-11.91-4.15 0-6.744-3.408-11.102-4.812-18.779-1.403-7.677-2.957-15.459 9.472-14.94 11.393.477 21.232 3.631 25.893 7.263 4.925 3.833-.792 18.493-4.143 23.862zm114.762-12.45h-14.1v-30.985c0-9.114-5.009-15.044-13.424-15.044-7.845 0-14.101 5.582-14.101 19.936V200.5h-14.101v-74.7h14.101v24.9a21.74 21.74 0 0 1 18.084-9.457c17.97 0 23.541 12.969 23.541 26.456V200.5zm66.167-18.457c-1.14 9.114-11.393 19.598-26.499 19.598-17.514 0-31.071-10.484-31.071-29.849 0-17.772 12.506-30.533 29.906-30.533 20.248 0 31.506 15.267 28.777 33.952H328.85c0 5.924 5.002 13.783 15.582 13.783 8.187 0 12.05-3.99 12.947-6.951h14.8zm-41.74-17.43h28.436c-.456-5.582-6.825-10.707-14.334-10.707-7.846 0-13.76 5.125-14.101 10.707zm66.623 35.887h-14.101v-74.7h14.101zm25.728 0h-14.102v-74.7h14.101zm70.826-29.05c0 17.638-12.853 30.191-30.48 30.191-16.717 0-30.477-12.533-30.477-30.191s12.398-30.191 30.476-30.191c18.079 0 30.481 12.554 30.481 30.191zm-30.491-17.544c-10.233 0-16.147 7.973-16.147 17.544 0 9.57 5.914 17.544 16.147 17.544 10.233 0 16.152-7.973 16.152-17.544 0-9.57-5.904-17.544-16.152-17.544zm-178.267 75.727c-12.848 0-20.471 6.832-20.471 22.099V275.2h-14.101v-58.1H264.5v10.25c1.709-4.326 10.694-12.641 20.357-11.505v13.788zm65.685 16.517c0 17.637-12.853 30.191-30.481 30.191-16.717 0-30.476-12.533-30.476-30.191s12.397-30.191 30.476-30.191c18.078 0 30.48 12.553 30.48 30.191zm-30.481-17.544c-10.233 0-16.147 7.973-16.147 17.544 0 9.57 5.914 17.544 16.147 17.544 10.233 0 16.152-7.973 16.152-17.544 0-9.57-5.914-17.544-16.152-17.544zM453.534 275.2h-14.101v-32.354c0-8.202-4.096-14.24-12.853-13.898-8.415.343-12.398 7.175-12.398 19.251V275.2h-14.1v-32.354c0-8.202-4.434-14.354-13.082-13.898-9.094.457-12.164 7.86-12.164 19.822v26.43h-14.107v-58.1h14.107v8.3c1.248-3.304 6.027-9.457 16.602-9.457 7.39 0 14.67 3.305 18.881 10.712 1.362-3.875 9.435-10.712 19.679-10.712 7.731 0 23.541 3.533 23.541 26.887l-.005 32.37zm63.578-33.61v33.61h-13.646v-8.43c-.797 2.164-6.142 9.685-19.109 9.571-17.514-.114-21.605-10.826-21.605-18 0-10.142 8.871-18.115 32.413-18.115h7.25c0-5.81-2.957-11.962-13.076-11.962-7.965 0-11.828 4.668-12.17 7.973h-14.645c.228-7.745 8.188-20.278 26.043-20.278 14.433 0 28.545 6.723 28.545 25.631zm-14.671 9.006h-7.048c-8.286 0-18.881.565-18.881 7.516 0 3.99 4.66 6.495 11.258 6.039 10.01-.685 14.329-7.18 14.67-13.555zm82.09 24.604h-14.106v-30.985c0-9.114-5.003-15.044-13.418-15.044-7.845 0-14.1 5.582-14.1 19.936V275.2h-14.102v-58.1h14.101v8.3A21.74 21.74 0 0 1 561 215.959c17.964 0 23.542 12.968 23.542 26.43l-.01 32.811z" fill="#000" fill-rule="nonzero"/><path d="M250.286 125.8H590v149.4H250.286z"/></g></svg>