<svg width="600" height="400" xmlns="http://www.w3.org/2000/svg"><g fill="none" fill-rule="evenodd"><path fill="#FFF" d="M0 0h600v400H0z"/><g fill-rule="nonzero"><path d="M61.44 164.92v91.12H20V92h41.44l62.16 100.16L185.76 92h41.44v164.04h-41.6l.2-91.12-40.92 69.96h-41.8l-41.64-69.96zM419.64 92h41.52v164.04h-41.52V92zm41.52 84.76L522.92 92h52.72l-63.92 84.76L580 256.04h-52.72l-66.12-79.28zM392.92 92l-20.72 39.6H268.6V92z" fill="#030303"/><path fill="#030303" d="M372.2 215.96l-62.16.32V92H268.6v164.08h124.32zm-349 54.64h2.44l5.96 17.2 5.96-17.2H40l.6 25.68h-2.04l-.4-22.08-5.44 15.72h-2.28L25 274.2l-.4 22.08h-2l.6-25.68zm22.56 0h2.16v25.68h-2.16V270.6zm7.64 0h11v1.92h-8.84v9.68h8.12v1.92h-8.12v10.2h8.84v1.92c-1.6 1.6-2.68 2.92-2.68 4.88 0 1 .48 1.52 1.44 1.52.48 0 .8-.08 1.16-.16l.12 1.48c-.48.2-1.12.28-1.68.28-1.76 0-2.92-1.12-2.92-3 0-2.36 1.48-3.92 2.88-4.96H53.4V270.6zm15.36 0h5.96c4.88 0 6.76 2.68 6.76 7.4v10.88c0 4.72-1.84 7.4-6.76 7.4h-5.96V270.6zm5.96 23.76c3.28 0 4.6-1.72 4.6-5.48V278c0-3.72-1.32-5.48-4.6-5.48h-3.8v21.8h3.8v.04zm13.04 0H98v1.92H85.6v-1.96l10.08-21.76h-9.6v-1.92h11.76v1.96l-10.08 21.76zm20.56-8.92v10.84h-2.16v-10.84l-5.72-14.84h2.28l4.56 12.6 4.56-12.6h2.28l-5.8 14.84zm9.04-14.84h2.24l9.44 21.56V270.6h2.04v25.68h-2.24l-9.44-21.56v21.56h-2.04V270.6zm23.92 0h2.4l6.52 25.68h-2.12l-1.64-6.84h-7.88l-1.64 6.84h-2.12l6.48-25.68zm4.64 16.92l-3.48-14.72-3.52 14.72h7zm20.68-8.16c0 2.8-1.24 4.88-3.84 5.68l5.04 11.24h-2.36l-4.76-11H156v11h-2.16V270.6h7.12c4.08 0 5.64 2.16 5.64 5.92v2.84zm-2.12-2.8c0-2.88-.96-4-3.64-4h-4.8v10.84h4.6c2.64 0 3.84-1.2 3.84-4v-2.84zm6.76.84c0-4.56 2.04-7.24 6.84-7.24 4.76 0 6.8 2.68 6.8 7.24v12.08c0 4.56-2.16 7.24-6.8 7.24-4.68 0-6.84-2.68-6.84-7.24V277.4zm6.8 17.4c3.28 0 4.68-1.6 4.68-5.12V277.4c0-3.72-1.28-5.32-4.68-5.32-3.4 0-4.68 1.6-4.68 5.32v12.28c.04 3.52 1.4 5.12 4.68 5.12zm11.8-24.2h5.96c4.88 0 6.76 2.68 6.76 7.4v10.88c0 4.72-1.84 7.4-6.76 7.4h-5.96V270.6zm5.96 23.76c3.28 0 4.6-1.72 4.6-5.48V278c0-3.72-1.32-5.48-4.6-5.48H192v21.8h3.8v.04zm11.32-16.96c0-4.56 2.04-7.24 6.8-7.24s6.84 2.68 6.84 7.24v12.08c0 4.56-2.16 7.24-6.84 7.24s-6.8-2.68-6.8-7.24V277.4zm6.84 17.4c3.28 0 4.68-1.6 4.68-5.12V277.4c0-3.72-1.28-5.32-4.68-5.32-3.4 0-4.68 1.6-4.68 5.32v12.28c0 3.52 1.4 5.12 4.68 5.12zm27.92-1.64l3.96-22.56h2.08l-4.84 25.68h-2.36l-4.88-23.24-4.88 23.24h-2.36l-4.84-25.68h2.08l3.96 22.56 4.84-22.56h2.4l4.84 22.56zm9.64-22.56h11v1.92h-8.84v9.68h8.12v1.92h-8.12v10.2h8.84v1.92h-11V270.6zm22.44 6.76c0-4.76 2-7.2 6.64-7.2 1.48 0 3.52.32 4.6.68l-.32 1.84a15.2 15.2 0 0 0-4.2-.6c-3.24 0-4.56 1.4-4.56 5.36v12c0 3.96 1.32 5.36 4.56 5.36 1.56 0 2.92-.28 4.2-.64l.32 1.84c-1.08.4-3.12.68-4.6.68-4.64 0-6.64-2.44-6.64-7.2v-12.12zm15.4-6.76h11v1.92h-8.84v9.68h8.12v1.92h-8.12v10.2h8.84v1.92h-11V270.6zm15.4 0H307l9.44 21.56V270.6h2.04v25.68h-2.24l-9.44-21.56v21.56h-2.04V270.6zm22.72 1.92h-5.32v-1.92h12.8v1.92h-5.32v23.72h-2.16v-23.72zm23.92 6.84c0 2.8-1.24 4.88-3.84 5.68l5.04 11.24h-2.36l-4.76-11h-4.68v11h-2.16V270.6h7.12c4.08 0 5.64 2.16 5.64 5.92v2.84zm-2.16-2.8c0-2.88-.96-4-3.64-4h-4.8v10.84h4.6c2.64 0 3.84-1.2 3.84-4v-2.84zm20.48-5.96v19.28c0 4.4-2.2 6.84-6.72 6.84s-6.72-2.48-6.72-6.84V270.6h2.16V290c0 3.6 1.48 4.8 4.56 4.8 3.08 0 4.56-1.24 4.56-4.8v-19.4h2.16zm5.56 0h2.44l5.96 17.2 5.96-17.2h2.44l.6 25.68h-2.04l-.4-22.08-5.44 15.72h-2.32l-5.44-15.72-.4 22.08h-2.04l.68-25.68zm29.92 0h2.16v25.68h-2.16V270.6zm2.72 12.6l7.56-12.6h2.48l-7.68 12.6 7.92 13.08h-2.48l-7.8-13.08zm12.6-5.8c0-4.56 2.04-7.24 6.8-7.24s6.84 2.68 6.84 7.24v12.08c0 4.56-2.16 7.24-6.84 7.24s-6.8-2.68-6.8-7.24V277.4zm6.84 17.4c3.28 0 4.68-1.6 4.68-5.12V277.4c0-3.72-1.28-5.32-4.68-5.32-3.4 0-4.68 1.6-4.68 5.32v12.28c0 3.52 1.4 5.12 4.68 5.12zm11.76-24.2h2.24l9.44 21.56V270.6h2.04v25.68h-2.24l-9.44-21.56v21.56h-2.04V270.6zm18.68 7.04c0-5.12 2.2-7.52 7.52-7.52 1.68 0 3.48.24 5.04.76l-.28 1.88c-1.48-.44-3.08-.72-4.76-.72-3.92 0-5.36 1.4-5.36 5.68v11.64c0 3.72 1.08 5.48 5.08 5.48.96 0 2.28-.12 3.24-.28v-9.76h2.08V296c-1.6.48-3.72.72-5.48.72-4.96 0-7.08-2.68-7.08-7.24v-11.84zm30.48 1.72c0 2.8-1.24 4.88-3.84 5.68l5.04 11.24h-2.36l-4.76-11h-4.68v11h-2.16V270.6h7.12c4.08 0 5.64 2.16 5.64 5.92v2.84zm-2.16-2.8c0-2.88-.96-4-3.64-4h-4.8v10.84h4.6c2.64 0 3.84-1.2 3.84-4v-2.84zm7.36-5.96h11v1.92h-8.84v9.68h8.12v1.92h-8.12v10.2h8.84v1.92h-11V270.6zm19.24 26.12c-1.2 0-3.4-.28-4.72-.8l.36-1.96c1.36.48 2.76.8 4.48.8 3.44 0 4.44-1.76 4.44-4.72 0-3.88-.6-4.64-4.2-6.2-4.68-2.04-5.36-3.52-5.36-7.16 0-4.76 2.04-6.52 6.32-6.52 2.04 0 3.84.44 4.8.88l-.32 1.88c-1.36-.44-2.92-.84-4.56-.84-3.32 0-4.12 1.28-4.12 4.52 0 3.2.4 3.48 3.92 5.2 4.56 2.2 5.64 3.28 5.64 8.08 0 4.32-2.12 6.84-6.68 6.84zM523 277.4c0-4.56 2.04-7.24 6.8-7.24s6.84 2.68 6.84 7.24v12.08c0 4.56-2.16 7.24-6.84 7.24s-6.8-2.68-6.8-7.24V277.4zm6.84 17.4c3.28 0 4.68-1.6 4.68-5.12V277.4c0-3.72-1.28-5.32-4.68-5.32-3.4 0-4.68 1.6-4.68 5.32v12.28c0 3.52 1.4 5.12 4.68 5.12zm27.92-1.64l3.96-22.56h2.08l-4.84 25.68h-2.36l-4.88-23.24-4.88 23.24h-2.36l-4.84-25.68h2.08l3.96 22.56 4.84-22.56h2.4l4.84 22.56zm9.64-22.56h11v1.92h-8.84v9.68h8.12v1.92h-8.12v10.2h8.84v1.92h-11V270.6z"/><path fill="#C1CD49" d="M185.76 164.92l-40.88 69.96L61.44 92zM575.64 92L461.16 254v-77.24zm-265.6 39.16L268.6 256.08l62.16-40.12z"/></g></g></svg>