<svg width="600" height="400" xmlns="http://www.w3.org/2000/svg"><defs><linearGradient x1="50%" y1="98.732%" x2="50%" y2=".939%" id="a"><stop stop-color="#D46032" offset="0%"/><stop stop-color="#E1972E" offset="100%"/></linearGradient><linearGradient x1="49.967%" y1="275.974%" x2="49.967%" y2="-205.519%" id="b"><stop stop-color="#D46032" offset="0%"/><stop stop-color="#E1972E" offset="100%"/></linearGradient></defs><g fill="none"><path fill="#FFF" d="M0 0h600v400H0z"/><path d="M78.724 176.558c-2.887 0-5.623-.657-7.75-1.87L8.016 138.404a16.669 16.669 0 0 1-7.8-13.442V52.446a16.669 16.669 0 0 1 7.8-13.442L70.974 2.772a17.257 17.257 0 0 1 15.55 0l62.958 36.232a16.669 16.669 0 0 1 7.75 13.442v72.516a16.669 16.669 0 0 1-7.75 13.442l-62.958 36.284a15.73 15.73 0 0 1-7.8 1.87zm0-167.722c-1.419 0-2.837.303-3.749.859L12.017 45.927c-1.925 1.112-3.748 4.296-3.748 6.57v72.465c0 2.274 1.823 5.408 3.748 6.57l62.958 36.233c1.824 1.06 5.724 1.06 7.547 0l62.959-36.233c1.924-1.162 3.748-4.296 3.748-6.57V52.446c0-2.223-1.824-5.407-3.748-6.519L82.522 9.695c-.911-.506-2.33-.86-3.798-.86z" fill="url(#a)" transform="translate(11.232 111.14)"/><path d="M55.982 104.294l-4.508-21.628H69.1c2.026 0 3.748 1.263 4.407 3.133l3.798 18.495h9.725l-4.204-20.416v-.1c-.101-.405-.354-.708-.506-1.112h17.423c2.026 0 3.8 1.263 4.407 3.133l3.799 18.495h9.725l-4.204-20.416v-.1c-1.617-6.246-7.262-10.61-13.727-10.613H39.824l6.382 31.13h9.775z" fill="url(#b)" transform="translate(11.232 111.14)"/><path d="M252.73 188.106c-3.548 0-9.374 2.454-10.228 2.842-.104.051-1.269.464-2.641 1.446a8.548 8.548 0 0 0-7.198-4.288c-3.548 0-9.348 2.454-10.228 2.841a8.242 8.242 0 0 0-1.036.491v-3.358h-6.68v31.982h6.654v-16.895c0-4.547 2.926-5.813 3.47-6.02 2.227-.955 6.214-2.402 7.82-2.402 1.01 0 2.123 1.37 2.123 3.358v21.933h6.654v-16.87c0-4.546 2.926-5.812 3.47-6.018 2.2-.956 6.214-2.403 7.82-2.403.983 0 2.097 1.42 2.097 3.358v21.933h6.68v-21.959c0-5.502-3.936-9.971-8.803-9.971h.025zm326.042 0h-11.418c-5.593 0-10.15 4.03-10.15 8.964v15.19c0 4.934 4.557 8.964 10.15 8.964h11.418c5.593 0 10.15-4.03 10.15-8.964v-15.164c0-4.96-4.557-8.99-10.15-8.99zm3.47 24.128c0 1.111-1.398 2.325-3.47 2.325h-11.418c-2.072 0-3.496-1.214-3.496-2.325V197.07c0-1.085 1.424-2.325 3.496-2.325h11.418c2.072 0 3.47 1.24 3.47 2.325v15.164zm-285.158.181c-.622.62-1.45.956-2.33.956h-14.449c-1.812 0-3.34-1.499-3.34-3.307v-1.033h14.5c5.541 0 10.02-4.004 10.02-8.939v-3.022c0-4.934-4.479-8.964-9.994-8.964h-11.186c-5.515 0-9.994 4.03-9.994 8.964v12.994c.014 5.501 4.48 9.958 9.994 9.972h14.449a9.942 9.942 0 0 0 7.068-2.92l-4.738-4.701zm-20.119-12.555v-2.79c0-1.24 1.554-2.325 3.366-2.325h11.134c1.813 0 3.366 1.085 3.366 2.325v3.023c0 1.24-1.553 2.325-3.366 2.325h-14.5v-2.584.026zm137.155.982h-12.43c-1.812-.104-3.081-1.163-3.081-2.144v-1.55c0-1.034 1.372-2.17 3.34-2.17h13.542c.984 0 1.942.31 2.59.852l4.246-5.115a10.761 10.761 0 0 0-6.836-2.377H401.95c-5.515 0-9.995 3.953-9.995 8.81v1.575c0 4.857 4.48 8.784 9.995 8.784h12.429c1.812.129 3.08 1.188 3.08 2.144v1.576c0 1.033-1.372 2.144-3.34 2.144h-15.328a4.15 4.15 0 0 1-2.59-.827l-4.246 5.115c1.839 1.55 4.273 2.377 6.836 2.377h15.329c5.515 0 9.994-3.953 9.994-8.81v-1.601c0-4.857-4.48-8.81-9.994-8.81v.027zm-93.991-12.736c-5.516 0-9.995 4.03-9.995 8.964v22.966h6.654V197.07c0-1.24 1.554-2.325 3.34-2.325h10.461v-6.64h-10.46zm18.617.077h6.68v31.827h-6.68v-31.827zm102.975 25.369c-1.786 0-3.34-1.085-3.34-2.325v-16.25h6.862v-6.639h-6.862v-8.835h-6.654v31.75c0 4.934 4.48 8.964 9.994 8.964h10.202v-6.665h-10.202zm42.62-25.446v16.017c0 6.277-2.978 7.026-3.625 7.155-2.382.569-9.244 2.093-12.118 2.093-1.294 0-2.408-1.55-2.408-3.333V188.08h-6.654v21.958c0 5.503 4.065 9.972 9.062 9.972 4.195 0 12.74-2.04 13.257-2.196.725-.077 1.554-.31 2.46-.749v2.945h6.68v-31.904h-6.654zm40.005-9.481v11.522a6.485 6.485 0 0 0-1.994-.517c-.389-.026-9.658-1.162-13.723-1.162-4.998 0-9.063 4.469-9.063 9.971v11.6c0 5.502 4.065 9.971 9.063 9.971 4.065 0 13.334-1.11 13.542-1.137a7.735 7.735 0 0 0 2.175-.516v1.679h6.68v-41.411h-6.68zm-2.797 33.635c-.078 0-9.244 1.11-12.946 1.11-1.295 0-2.382-1.523-2.382-3.306v-11.599c0-1.808 1.087-3.358 2.408-3.358 3.676 0 12.842 1.136 12.946 1.162 1.036.155 2.77 1.809 2.77 6.743v2.48c0 4.96-1.734 6.587-2.796 6.768zM369.48 198.775l-8.751-10.643h-8.545l12.998 15.965-13.024 15.913h8.545l8.803-10.67 8.7 10.67h8.597l-13.05-15.913 13.05-15.965h-8.597l-8.726 10.643zm171.411-10.643h7.095v31.878h-7.095v-31.878z" fill="#000"/></g></svg>