<svg width="600" height="400" xmlns="http://www.w3.org/2000/svg"><g fill="none" fill-rule="evenodd"><path fill="#FFF" d="M0 0h600v400H0z"/><path d="M300.505 10c-80.088 0-145.001 65.015-145.001 145.21 0 80.194 64.913 145.198 145.001 145.198 80.088 0 144.991-65.01 144.991-145.199C445.496 75.02 380.588 10 300.506 10zm0 242.007c-53.39 0-96.664-43.342-96.664-96.793 0-53.45 43.284-96.792 96.664-96.792v96.792h96.664c.005 53.456-43.274 96.793-96.664 96.793zm-57.543-96.798h57.543v57.594c-31.773.006-57.535-25.779-57.543-57.594zM153.97 389.596a23.507 23.507 0 01-7.98-1.353 18.92 18.92 0 01-6.648-4.056 19.175 19.175 0 01-4.557-6.755 24.58 24.58 0 01-1.683-9.454 23.657 23.657 0 011.74-9.397 19.851 19.851 0 014.602-6.755 19.313 19.313 0 016.65-4.097 23.038 23.038 0 0115.71 0 19.313 19.313 0 016.65 4.097 19.867 19.867 0 014.603 6.755 23.673 23.673 0 011.739 9.397 24.611 24.611 0 01-1.678 9.46 19.19 19.19 0 01-4.557 6.754 18.92 18.92 0 01-6.649 4.057 23.507 23.507 0 01-7.943 1.347zm0-7.33a13.108 13.108 0 004.47-.808 11.25 11.25 0 004.05-2.561 13.26 13.26 0 002.941-4.445 19.029 19.029 0 000-12.972 13.035 13.035 0 00-2.966-4.446 11.577 11.577 0 00-4.092-2.56 12.392 12.392 0 00-8.817 0 11.572 11.572 0 00-4.092 2.56 13.01 13.01 0 00-2.971 4.446 16.654 16.654 0 00-1.115 6.498 17.038 17.038 0 001.11 6.49 12.902 12.902 0 002.91 4.444 11.25 11.25 0 004.05 2.561c1.45.525 2.98.794 4.521.794zm27.413-34.112a1.061 1.061 0 011.202-1.198h5.396a1.058 1.058 0 011.202 1.198v33.514h20.095a1.058 1.058 0 011.202 1.198v4.927a1.061 1.061 0 01-1.202 1.203h-26.693a1.058 1.058 0 01-1.202-1.203v-39.64zm44.087 18.739l-11.098-18.498a1.538 1.538 0 01-.24-.722c0-.482.3-.723.9-.723h6.536c.359-.023.718.039 1.048.18.283.184.52.43.69.722l6.778 11.471 6.838-11.471a2.17 2.17 0 01.69-.722c.33-.141.69-.203 1.049-.18h6.536c.6 0 .9.241.9.723a1.538 1.538 0 01-.24.722l-11.078 18.498 12.413 20.782c.155.185.24.419.24.66 0 .441-.28.661-.839.661h-7.329a1.615 1.615 0 01-1.14-.302 4.706 4.706 0 01-.66-.901l-7.375-12.67-7.437 12.67a4.752 4.752 0 01-.66.901 1.62 1.62 0 01-1.14.302h-7.201c-.56 0-.84-.22-.84-.66 0-.242.086-.476.241-.661l12.418-20.782zm55.237.901a1.061 1.061 0 011.202-1.198H304.1a1.058 1.058 0 011.202 1.198v.901a25.945 25.945 0 01-1.32 8.471 18.909 18.909 0 01-3.81 6.607 17.195 17.195 0 01-6.03 4.296 19.923 19.923 0 01-7.979 1.537 24.357 24.357 0 01-7.979-1.322 19.394 19.394 0 01-11.635-10.78 23.298 23.298 0 01-1.795-9.526 22.488 22.488 0 011.83-9.34 20.372 20.372 0 014.829-6.787 20.09 20.09 0 016.9-4.097 23.901 23.901 0 018.034-1.383c1.872-.01 3.737.222 5.55.692a22.823 22.823 0 014.827 1.864 19.593 19.593 0 013.96 2.735 20.05 20.05 0 012.94 3.242c.198.234.305.532.302.84a1.655 1.655 0 01-.599 1.08l-3.718 3.303c-.27.281-.634.453-1.023.482a1.31 1.31 0 01-1.023-.66 17.91 17.91 0 00-5.038-4.656 12.538 12.538 0 00-6.48-1.593 13.395 13.395 0 00-4.858.902 11.982 11.982 0 00-4.138 2.673 13.317 13.317 0 00-2.91 4.445 16.28 16.28 0 00-1.11 6.258 15.761 15.761 0 001.11 6.095 13.983 13.983 0 002.91 4.507 11.85 11.85 0 004.168 2.76 13.25 13.25 0 004.89.932c2.8 0 5.138-.683 7.017-2.049 1.879-1.365 3.118-3.456 3.718-6.273H281.91a1.058 1.058 0 01-1.202-1.204v-4.952zm31.07-19.64a1.061 1.061 0 011.202-1.198h15.293c4.432 0 7.871 1.024 10.316 3.072 2.444 2.049 3.663 4.912 3.657 8.589a11.28 11.28 0 01-.9 4.655 10.668 10.668 0 01-2.43 3.452 11.495 11.495 0 01-3.58 2.284 17.58 17.58 0 01-4.409 1.142l12.894 17.535c.155.185.24.42.24.66 0 .441-.259.661-.777.661h-7.452a1.696 1.696 0 01-.962-.21 3.112 3.112 0 01-.66-.69l-13.195-17.956h-1.437v17.658a1.061 1.061 0 01-1.202 1.204h-5.396a1.058 1.058 0 01-1.202-1.204v-39.654zm16.914 14.652c1.76 0 3.139-.36 4.138-1.08a4.125 4.125 0 000-6.366c-1-.72-2.378-1.081-4.138-1.081h-9.114v8.527h9.114zm38.809 26.79a23.507 23.507 0 01-7.979-1.353 18.92 18.92 0 01-6.648-4.056 19.175 19.175 0 01-4.552-6.755 24.575 24.575 0 01-1.693-9.454 23.662 23.662 0 011.739-9.397 19.856 19.856 0 014.603-6.755 19.313 19.313 0 016.649-4.097 23.038 23.038 0 0115.716 0 19.308 19.308 0 016.65 4.097 19.867 19.867 0 014.602 6.755 23.673 23.673 0 011.74 9.397 24.611 24.611 0 01-1.648 9.454 19.201 19.201 0 01-4.557 6.755 18.92 18.92 0 01-6.648 4.056 23.507 23.507 0 01-7.974 1.353zm0-7.33a13.108 13.108 0 004.47-.808 11.25 11.25 0 004.05-2.561 13.27 13.27 0 002.942-4.445 19.029 19.029 0 000-12.972 13.04 13.04 0 00-2.967-4.446 11.582 11.582 0 00-4.091-2.56 12.392 12.392 0 00-8.818 0 11.567 11.567 0 00-4.091 2.56 13.004 13.004 0 00-2.967 4.446 16.643 16.643 0 00-1.125 6.498c-.06 2.21.31 4.41 1.09 6.479a12.902 12.902 0 002.91 4.445 11.25 11.25 0 004.05 2.56c1.457.532 2.996.804 4.547.805zm27.291-34.112a1.061 1.061 0 011.197-1.198h5.396a1.058 1.058 0 011.201 1.198v23a16.601 16.601 0 00.722 5.254 8.878 8.878 0 001.979 3.421 7.353 7.353 0 002.94 1.864c2.299.763 4.781.763 7.08 0a7.359 7.359 0 002.94-1.864 8.883 8.883 0 001.98-3.42c.52-1.702.764-3.476.72-5.255v-23a1.061 1.061 0 011.197-1.198h5.401a1.058 1.058 0 011.197 1.198v22.385c0 6.446-1.49 11.226-4.47 14.34-2.98 3.113-7.157 4.686-12.53 4.716-5.36 0-9.529-1.562-12.506-4.686-2.976-3.124-4.466-7.903-4.47-14.34l.026-22.415zm41.924 0a1.061 1.061 0 011.201-1.198h16.137a16.858 16.858 0 016.137 1.024c1.63.61 3.104 1.573 4.317 2.822a11.602 11.602 0 012.557 4.204c.57 1.663.853 3.41.839 5.168a14.654 14.654 0 01-.839 4.983 11.526 11.526 0 01-2.49 4.097 11.763 11.763 0 01-4.092 2.76 14.937 14.937 0 01-5.76 1.024H444.51v14.775a1.061 1.061 0 01-1.202 1.204h-5.396a1.058 1.058 0 01-1.202-1.204l.006-39.66zm16.494 17.535c4.596 0 6.896-1.901 6.9-5.705.003-3.803-2.297-5.705-6.9-5.705h-8.695v11.41h8.695z" fill="#232323" fill-rule="nonzero"/></g></svg>