<svg width="600" height="400" xmlns="http://www.w3.org/2000/svg"><g fill="none" fill-rule="evenodd"><path fill="#FFF" d="M0 0h600v400H0z"/><g fill-rule="nonzero"><path d="M473.163 322.511c-1.174-.309-3.333-.432-4.876-.432-9.072 0-13.701 3.704-13.701 11.542v2.035c0 .248-.125.372-.37.372h-4.075c-.37 0-.617.245-.617.617v7.838c0 .37.247.618.617.618h4.076c.244 0 .369.122.369.37v22.527c0 .369.247.618.616.618h9.814c.37 0 .616-.25.616-.618V345.47c0-.248.125-.37.373-.37h4.998c.37 0 .617-.249.617-.618v-7.838c0-.372-.247-.617-.617-.617h-4.998c-.248 0-.373-.124-.373-.372v-.863c0-2.407 1.112-3.704 4.69-3.704h2.716c.373 0 .556-.246.556-.555v-7.285c0-.369-.06-.616-.431-.738m-37.462 12.776c-4.138 0-7.346 1.296-9.506 4.136-.309.369-.555.307-.555-.062v-2.716c0-.372-.25-.617-.618-.617h-9.813c-.371 0-.619.245-.619.617v31.353c0 .369.248.618.619.618h9.813c.369 0 .618-.25.618-.618v-15.49c0-1.666.125-3.21.432-4.384.74-2.838 2.777-4.072 5.491-4.072 3.95 0 4.568 1.974 4.568 6.173v17.773c0 .369.248.618.617.618h9.815c.37 0 .617-.25.617-.618v-20.059c0-8.209-1.73-12.652-11.48-12.652m-42.523 25.305c-4.507 0-6.051-2.53-6.051-8.27 0-5.432 1.483-8.27 6.05-8.27 4.506 0 6.049 2.778 6.049 8.27 0 5.553-1.605 8.27-6.048 8.27m0-25.305c-12.222 0-17.467 5.185-17.467 16.973 0 11.85 5.245 17.096 17.467 17.096 12.218 0 17.466-5.247 17.466-17.096 0-11.788-5.248-16.973-17.466-16.973m-26.477.798c1.978 0 4.572.25 5.918.558.306.059.557 0 .614-.366l1.423-8.76c.057-.385-.116-.558-.48-.616-2.23-.692-5.573-1-8.475-1-7.032 0-12.317 1.615-15.91 4.996v33.705c3.556 3.228 8.8 4.746 15.796 4.746 3.092 0 6.55-.307 8.589-.921.308-.117.537-.368.48-.79l-1.115-8.646c-.059-.442-.365-.559-.673-.499-1.48.442-4.265.75-6.226.75-8.09 0-10.876-3.152-10.876-11.301 0-8.205 2.652-11.856 10.935-11.856" fill="#41B983"/><path d="M350.476 317.359h-1.358c-.371 0-.617.247-.617.616v60.488c0 .37.246.617.617.617h1.358c.37 0 .616-.248.616-.617v-60.488c0-.369-.246-.616-.616-.616zm-85.756 18.67h-6.85c-.247 0-.37-.125-.37-.373v-7.466c0-.372-.248-.618-.618-.618h-2.035c-.372 0-.618.246-.618.618v7.466c0 .248-.124.372-.371.372h-4.999c-.37 0-.618.245-.618.617v1.604c0 .37.247.617.618.617h4.999c.247 0 .37.184.37.37v21.911c0 5.863 1.668 7.775 6.667 7.775 1.11 0 2.776-.121 3.825-.308.248-.061.494-.247.494-.555v-1.418c0-.31-.183-.495-.556-.495h-3.147c-3.208 0-4.01-1.295-4.01-5.368v-21.541c0-.187.122-.371.368-.371h6.85c.373 0 .62-.248.62-.617v-1.604c0-.372-.247-.617-.62-.617zm9.32-13.767c-1.666 0-2.965 1.235-2.965 2.964 0 1.727 1.299 2.964 2.964 2.964 1.73 0 2.963-1.237 2.963-2.964 0-1.729-1.234-2.964-2.963-2.964zm1.11 13.766h-6.912c-.371 0-.619.245-.619.617v1.604c0 .37.248.617.619.617h3.888c.248 0 .37.184.37.37v28.762c0 .369.247.616.619.616h2.035c.37 0 .618-.247.618-.616v-31.353c0-.372-.247-.617-.618-.617zm-29.007 29.996c-.062-.31-.37-.373-.617-.31a19.903 19.903 0 01-5.431.741c-9.197 0-12.714-4.568-12.714-14.072 0-9.443 3.64-14.195 12.59-14.195 1.976 0 3.826.244 5.247.678.308.061.556-.062.617-.31l.37-1.85c.062-.309-.062-.495-.431-.616-1.422-.496-3.767-.805-5.865-.805-10.367 0-15.861 5.371-15.861 17.098 0 12.159 5.494 16.973 15.86 16.973 2.223 0 4.444-.246 6.235-.865.37-.124.432-.37.37-.68l-.37-1.787zm63.26-29.996h-2.036c-.434 0-.618.123-.741.617-3.024 9.072-8.332 23.02-10.616 28.327-.122.248-.246.31-.494.31-.185 0-.308-.062-.432-.31-2.346-5.368-7.592-19.255-10.615-28.389-.124-.432-.372-.555-.741-.555h-2.284c-.308 0-.432.245-.432.492 0 .186.063.37.124.68 2.223 6.479 7.652 20.923 11.913 30.798.183.43.43.616.863.616h3.024c.493 0 .74-.186.987-.616 4.26-9.875 9.875-25.12 11.913-30.984.061-.308.123-.43.123-.555 0-.248-.185-.43-.555-.43zM203.31 366.455c-6.232 0-9.257-1.358-9.257-6.79 0-5.864 2.962-7.158 9.505-7.158 7.281 0 9.133.986 9.133 5.8 0 5.802-3.147 8.148-9.38 8.148zm16.912-.123h-2.1c-2.036 0-2.345-.864-2.345-3.086v-17.282c0-7.963-3.7-10.679-12.96-10.679-1.914 0-4.32.248-6.048.495-.31.062-.555.248-.555.617v1.666c0 .37.37.555.676.494 1.915-.185 3.767-.37 5.927-.37 7.653 0 9.69 2.16 9.69 8.763v4.2c0 .247-.185.368-.37.247-2.224-1.298-4.938-1.607-8.95-1.607-7.407 0-12.406 1.851-12.406 9.876 0 7.776 4.939 9.69 12.406 9.69 5.06 0 8.025-1.666 9.629-4.198.123-.246.308-.124.308.062.123 2.716 1.482 3.702 4.197 3.702.987 0 1.975-.06 2.962-.308.308-.061.556-.247.556-.678v-1.173c0-.308-.248-.431-.617-.431zm-82.087-18.024h-7.222c-.248 0-.37-.123-.37-.369v-18.022c0-.247.122-.37.37-.37h6.79c7.282 0 10.368 2.468 10.368 9.071 0 6.851-2.654 9.69-9.936 9.69zm6.295 2.284c-.123-.186-.123-.309.186-.432 4.565-1.666 6.85-4.999 6.85-11.788 0-8.702-5.246-11.728-13.331-11.728h-10.307c-.371 0-.619.248-.619.617v40.737c0 .369.248.616.619.616h2.098c.37 0 .616-.247.616-.616v-16.48c0-.246.123-.369.371-.369h9.567c.308 0 .494.062.678.37 1.606 2.159 7.222 11.232 10.432 16.665.246.369.494.43.801.43h2.655c.37 0 .494-.247.31-.555-3.272-5.43-8.828-14.258-10.926-17.467zm38.082-.369H162.02c-.246 0-.37-.124-.37-.372.308-5.554 2.53-11.725 10.986-11.725 7.838 0 10.245 4.258 10.245 11.725 0 .248-.061.372-.369.372zm-9.69-14.938c-10.06 0-14.506 6.79-14.506 16.973 0 11.788 4.939 17.098 15.678 17.098 4.319 0 7.53-.742 9.566-1.666.309-.123.432-.434.309-.741l-.433-1.79c-.061-.308-.43-.433-.802-.247-2.097.988-5.491 1.543-8.394 1.543-8.64 0-12.59-4.136-12.652-13.023 0-.31.123-.43.37-.43h23.393c.308 0 .493-.125.554-.495.123-.741.123-1.42.123-2.347 0-8.086-2.592-14.875-13.206-14.875zm164.356 14.938h-20.49c-.247 0-.37-.124-.37-.372.308-5.554 2.53-11.725 10.986-11.725 7.836 0 10.245 4.258 10.245 11.725 0 .248-.062.372-.37.372zm-9.688-14.938c-10.061 0-14.505 6.79-14.505 16.973 0 11.788 4.938 17.098 15.677 17.098 4.32 0 7.53-.742 9.567-1.666.306-.123.43-.434.306-.741l-.43-1.79c-.062-.308-.432-.433-.8-.247-2.102.988-5.496 1.543-8.397 1.543-8.64 0-12.59-4.136-12.651-13.023 0-.31.123-.43.369-.43h23.392c.307 0 .493-.125.556-.495.125-.741.125-1.42.125-2.347 0-8.086-2.595-14.875-13.21-14.875zM439.554 181.54c-.06.396-.11.798-.16 1.204-.088.695-.176 1.397-.303 2.023-.106.389-.202.787-.297 1.185-.165.673-.325 1.352-.538 1.97-.145.38-.279.771-.414 1.162-.23.658-.455 1.324-.734 1.915-.198.37-.381.749-.567 1.13-.322.662-.628 1.286-1.016 1.89-5.055 8.31-14.728 14.634-27.98 18.294-6.232 1.753-13.212 2.905-20.785 3.454 14.303-21.26 21.492-47.28 19.35-72.705-.01-.132-.02-.264-.033-.398-.025-.305-.056-.61-.085-.915l-.07-.719-.082-.756-.105-.906c-.026-.208-.05-.414-.077-.62-.046-.379-.098-.755-.15-1.135a20.411 20.411 0 00-.056-.414 95.08 95.08 0 00-.237-1.589 118.67 118.67 0 00-3.26-15.203c2.598 2.122 5.08 4.229 7.347 6.302 5.107 4.704 9.464 9.216 12.954 13.417 8.034 9.596 13.545 19.262 15.935 27.952 1.252 4.518 1.709 9.067 1.363 13.462m-75.987 44.923a108.913 108.913 0 01-27.094 18.331c-22.09-3.794-45.516-10.486-69.034-19.82-24.019-9.402-47.087-21.23-67.475-34.37-5.571-14.638-7.966-30.621-6.034-46.262 5.225 5.106 11.091 10.205 17.524 15.22 18.542 14.413 41.267 27.635 65.717 38.235 12.612 5.482 25.474 10.197 38.223 14.014 12.822 3.882 25.493 6.828 37.658 8.755a225.86 225.86 0 0014.661 1.849 98.977 98.977 0 01-4.146 4.048m-42.406 24.213c-15.79 4.418-32.577 4.913-48.603 1.601-15.945-3.597-31.163-10.8-43.713-21.349a103.629 103.629 0 01-21.161-24.816c8.101 4.549 15.858 8.546 23.497 12.113 12.54 5.925 24.044 10.727 35.15 14.663 20.633 7.447 41.068 12.834 60.286 16.002a104.57 104.57 0 01-5.456 1.786M141.45 139.923c-4.371-5.616-8.076-11.124-11.006-16.36-5.527-10.285-8.348-19.564-8.406-27.665-.1-1.312.023-2.624.141-3.889a36.38 36.38 0 00.136-1.722l.195-1.097c.254-1.455.494-2.829.975-4.218.297-1.22.825-2.425 1.334-3.59.173-.393.346-.787.463-1.085l.487-.88c.668-1.214 1.3-2.363 2.144-3.464a34.668 34.668 0 016.962-7.323 47.2 47.2 0 019.02-5.712c12.041-6.154 28.882-9.277 48.78-9.028a204.67 204.67 0 0116.16.845c-11.313 1.773-20.734 5.043-28.008 9.722-8.376 5.353-13.706 12.716-15.404 21.286-1.984 9.48.752 20.94 7.91 33.137 3.095 5.305 7.087 10.76 11.878 16.26a96.05 96.05 0 00-1.175 6.683c-1.981 12.96-1.263 26.267 1.68 39.068-10.455-7.546-19.971-15.408-28.259-23.4-5.458-5.21-10.546-10.8-16.007-17.568m92.108-73.036c-.573.346-1.142.696-1.708 1.05-10.26 6.438-19.416 14.667-26.774 24.412l-.076.094a75.353 75.353 0 00-1.196 1.524c-.146.191-.291.383-.436.576-4.879 6.49-8.72 13.718-12.07 21.115-1.763 4.316-3.301 8.732-4.55 13.23-2.746-3.679-5.14-7.356-7.153-11.003-5.969-10.934-8.092-21.464-6.14-30.45 1.71-7.684 6.479-14.124 14.174-19.14 6.864-4.44 15.849-7.517 26.701-9.141 5.24-.79 10.833-1.24 16.727-1.35 4.686.856 9.45 1.854 14.268 2.988a105.17 105.17 0 00-11.367 5.854l-.4.241M444.51 169.353c-3.662-9.733-10.196-19.86-19.423-30.1-6.88-7.642-15.034-15.137-24.195-22.368-3.505-11.017-8.628-21.489-15.273-30.894a119.369 119.369 0 00-26.706-27.219 117.605 117.605 0 00-12.716-8.16c-24.746-13.747-54.37-17.583-81.418-11.403a108.169 108.169 0 00-20.06 6.68l.003-.001-.002.001c11.713-4.204 24.035-6.477 36.35-6.826 21.925-.623 43.826 4.853 62.236 16.385l.075.048c14.42 8.778 26.83 20.688 35.98 34.71a109.442 109.442 0 017.708 13.957c4.767 10.344 7.91 21.397 9.232 32.624.06.478.117.956.17 1.433.015.122.027.242.04.363.036.343.072.688.105 1.032l.05.513a161.49 161.49 0 01.124 1.467c.013.152.023.306.034.46.048.663.09 1.326.126 1.99v.008c.545 10.508-.583 21.057-3.182 31.223l.034.007c-3.809 14.9-10.82 28.964-20.499 40.83-6.964-.123-14.295-.683-21.904-1.686-11.473-1.5-23.505-3.977-35.758-7.355a308.737 308.737 0 01-37.018-12.96c-23.971-10.17-46.006-22.978-63.722-37.038-7.578-5.972-14.323-12.19-20.095-18.49 1.676-9.257 4.63-18.309 8.842-26.75l.033.028c2.133-4.276 4.56-8.41 7.327-12.325l.099-.14a78.3 78.3 0 011.149-1.58c.007-.01.013-.021.021-.03 13.156-18.272 33.173-31.435 55.181-36.887 9.867-2.445 20.133-3.341 30.363-2.45.524.044 1.049.095 1.572.15 16.703 1.76 33.15 7.734 46.878 17.884 3.085 1.976 5.711 4.525 8.478 6.921.466.403.935.803 1.412 1.195 1.026 1.145 2.107 2.247 3.187 3.355 1.423 1.456 2.84 2.922 4.125 4.5.443.545.872 1.102 1.278 1.677a60.897 60.897 0 012.126 2.598c2.55 3.296 4.773 6.83 6.814 10.484 1.621 2.9 3.132 5.875 4.6 8.864-3.436-9.721-8.587-18.78-15.052-26.846-10.602-13.227-24.742-23.783-40.676-30.212l-.079-.03a99.953 99.953 0 00-3.405-1.297 95.244 95.244 0 00-18.996-4.72 93.584 93.584 0 00-8.833-.86c-10.584-.53-21.237.713-31.485 3.535a232.275 232.275 0 00-14.588-1.75 190.201 190.201 0 00-15.64-.666 266.33 266.33 0 00-10.234-1.77c-10.674-1.65-21.075-2.617-30.922-2.877-21.58-.526-40.218 2.584-53.988 8.992-16.883 7.915-26.19 20.926-26.257 36.715.005 20.384 13.582 44.422 38.512 67.861 12.697 11.998 27.307 23.263 43.553 33.563 6.61 16.889 17.62 31.99 31.354 43.847 13.91 11.808 30.796 19.96 48.578 24.016 17.89 3.621 36.636 2.963 54.174-2.062a119.416 119.416 0 0023.505-9.995c6.566.532 12.925.77 19.02.694 9.208-.111 17.807-.922 25.628-2.458l-.418-1.958c-11.576 1.02-24.097.833-37.265-.495a113.66 113.66 0 0016.293-12.911 111.14 111.14 0 0010.245-11.2c1.328.027 2.641.038 3.941.035 10.665-.034 20.388-1.116 28.852-3.243 14.992-3.874 25.47-11.002 30.291-20.601 4.35-8.312 4.389-18.696.111-30.032" fill="#1A133E"/><path d="M491.608 199.357c-3.216-12.577-13.843-26.15-29.313-38.851-3.687-3.044-7.725-6.046-11.918-8.998a236.779 236.779 0 00-13.235-8.543c-4.636-2.739-9.424-5.426-14.467-8.01a413.999 413.999 0 00-3.201-1.609 162.243 162.243 0 013.451 3.568 303.913 303.913 0 0111.98 6.407 254.253 254.253 0 0113.536 8.298c4.265 2.885 8.384 5.84 12.106 8.838 3.701 3.045 7.277 6.148 10.297 9.251 3.048 3.155 5.89 6.347 8.144 9.495 2.3 3.213 4.23 6.414 5.62 9.549 1.384 3.19 2.34 6.33 2.852 9.398 1.832 12.866-5.173 24.023-20.776 31.356-4.96 2.342-10.754 4.262-17.263 5.732 1.478-8.127 1.067-17.47-1.257-27.586a99.862 99.862 0 00-2.887-10.122c-.272.63-.566 1.249-.886 1.858a27.563 27.563 0 01-1.061 1.92 87.287 87.287 0 011.298 5.437c2.303 11.228 1.878 21.36-1.2 29.688-14.463 2.52-31.88 3.07-51.146 1.472a298.735 298.735 0 01-22.16-2.622 334.082 334.082 0 01-14.066-2.492h-.003c-21.581-4.29-43.555-10.782-64.112-19.022-31.554-12.55-57.64-28.572-74.276-44.891l-.797.07c6.944 8.183 16.522 16.568 28.595 24.64 12.466 8.296 27.157 16.22 43.507 23.214 19.446 8.36 40.558 15.134 61.649 19.913a350.16 350.16 0 0014.495 2.971c10.313 1.89 20.527 3.276 30.445 4.109 16.286 1.322 31.387 1.162 44.48-.508-6.192 9.709-17.203 16.13-31.976 18.611-17.729 2.91-40.194.194-65.027-7.849-.382-.126-.766-.25-1.15-.377a261.145 261.145 0 01-14.24-5.155h-.002c-23.142-9.134-47.06-22.18-69.958-38.22a379.015 379.015 0 01-26.726-20.507c-31.671-27.417-54.635-55.373-67.418-80.44-3.992-7.977-7.005-15.726-8.954-23.102-2.575-9.62-3.277-18.488-2.129-26.257 1.162-7.253 3.975-13.71 8.523-19.184 4.707-5.405 11.21-9.558 19.156-12.183 7.123-2.364 15.352-3.55 24.559-3.55 2.918 0 5.937.12 9.05.358 11.453.872 24.071 3.386 37.5 7.47 5.39 1.647 10.872 3.574 16.4 5.692h.002c.449-.09.898-.177 1.348-.263a128.96 128.96 0 013.878-.661 287.854 287.854 0 00-16.93-6.485c-.04-.014-.078-.026-.118-.042a248.034 248.034 0 00-5.327-1.77c-14.034-4.46-27.33-7.338-39.526-8.554-14.152-1.405-26.554-.636-36.86 2.288a59.67 59.67 0 00-2.193.673c-.087.028-.175.054-.261.083-5.458 1.766-10.315 4.178-14.495 7.24-.047.034-.096.066-.142.1-.055.039-.11.082-.165.122l-.083.063-.147.112c-3.03 2.252-5.674 4.808-7.88 7.645l-.03.041c-11.795 14.532-13.608 34.966-4.355 59.365l.006.018.003.011c.946 2.684 2.166 5.547 3.629 8.558l.004.01c.012.026.025.05.037.073 11.734 25.065 34.461 53.802 69.241 84.326l.042.036c.186.167.372.33.56.491.28.248.56.492.842.738a338.496 338.496 0 003.86 3.324c.046.042.095.082.141.122a386.606 386.606 0 0030.52 23.4c19.18 13.23 39.18 24.404 59.063 33.068a297.49 297.49 0 0017.476 6.979 265.653 265.653 0 0014.015 4.646c17.611 5.282 33.994 7.956 48.418 7.956 7.432 0 14.346-.711 20.634-2.14 16.045-3.705 27.526-12.091 33.198-24.247a38.732 38.732 0 001.572-3.831c4.19-.777 8.135-1.703 11.85-2.752 5.257-1.615 10.091-3.427 14.204-5.597 15.807-8.164 21.58-20.612 17.93-34.383m-88.052-72.622c.104.468.207.937.306 1.405.397.161.794.326 1.186.493a325.198 325.198 0 0111.536 5.191 156.776 156.776 0 00-3.612-3.63 254.05 254.05 0 00-5.783-2.63 141.026 141.026 0 00-3.812-1.61c.011.048.022.095.031.144.051.213.1.423.148.637m1.649 8.878c.017.105.034.21.047.316 9.03 10.556 16.918 21.353 23.046 31.558 4.022 6.699 7.429 13.36 10.144 19.817.124-.438.234-.896.343-1.347.094-.398.189-.798.298-1.189a24.34 24.34 0 00.262-1.715c-2.503-5.276-5.424-10.664-8.721-16.085-6.848-11.289-15.783-23.255-25.98-34.82.204 1.152.392 2.307.56 3.465m-192.95-3.88c-4.489-5.093-8.15-10.137-10.9-14.982-1.573-2.776-2.851-5.486-3.813-8.109a39.647 39.647 0 01-1.073-3.371c-.13-.478-.25-.954-.354-1.424-.898-3.963-1.044-7.739-.435-11.212a21.833 21.833 0 013.962-8.991c3.807-5.024 10.09-8.986 18.18-11.46 3.327-1.044 7.056-1.831 11.141-2.373.375-.253.75-.504 1.129-.75.177-.117.354-.233.53-.346.29-.186.577-.371.868-.556a83.177 83.177 0 011.747-1.08c.293-.18.586-.353.882-.528a79.63 79.63 0 011.132-.662c.121-.07.241-.141.363-.207l.363-.208c-18.551 1.289-32.784 6.926-40.47 16.125-2.473 2.92-4.29 6.168-5.392 9.641-1.254 3.727-1.69 7.797-1.298 12.098.332 3.708 1.28 7.59 2.816 11.575 1.483 3.852 3.51 7.799 6.06 11.78a88.402 88.402 0 005.19 7.259c9.56 12.034 23.3 23.885 39.728 34.274 1.392.9 2.828 1.764 4.27 2.631.768.465 1.538.93 2.311 1.405 1.475.88 2.986 1.73 4.502 2.58.78.438 1.56.876 2.35 1.328 1.519.826 3.069 1.623 4.62 2.415.83.426 1.662.854 2.5 1.289a237.03 237.03 0 004.744 2.3l2.56 1.227c9.394 4.397 19.606 8.373 30.35 11.817 19.729 6.263 39.575 9.85 57.403 10.368 1.397.031 2.755.045 4.082.045 7.232 0 13.45-.452 18.914-1.37l.48-.077c5.04-.814 9.586-1.94 13.573-3.36a52.12 52.12 0 003.79-1.508c4.852-2.028 9.025-4.682 12.394-7.886 2.999-2.74 5.355-6.154 7.012-10.167 2.765-7.065 2.444-15.381-.93-24.04-2.434-6.329-6.553-13.046-12.046-19.693l-.003-.002c.02.126.036.255.054.383.043.33.09.66.128.992.043.33.081.66.12.994a120.662 120.662 0 01.31 3.102c.02.268.043.537.062.805l.015.187c.008.123.019.248.026.37.005.021.005.044.007.066.007.13.018.261.026.392a163.99 163.99 0 01.075 1.244 113.71 113.71 0 01.097 2.213c.012.297.02.597.028.896a69.454 69.454 0 013.847 6.822c4.15 8.63 5.477 16.677 3.83 23.286-.787 3.472-2.59 6.812-5.347 9.92-2.73 2.959-6.539 5.558-11.318 7.725-.163.068-.329.134-.493.2h-.002c-4.079 1.637-8.538 2.867-13.298 3.676-1.222.21-2.464.391-3.727.543-7.478.826-15.224.89-23.036.19-16.677-1.36-35.765-5.864-55.2-13.028-36.672-13.506-70.106-34.73-89.437-56.773" fill="#41B983"/></g></g></svg>