<svg width="600" height="400" xmlns="http://www.w3.org/2000/svg"><defs><radialGradient cx="45.431%" cy="11.905%" fx="45.431%" fy="11.905%" r="139.428%" gradientTransform="matrix(1 0 0 .73704 0 .031)" id="a"><stop stop-color="#00D0FE" offset="0%"/><stop stop-color="#0093E9" offset="69.1%"/><stop stop-color="#0077B2" offset="100%"/></radialGradient><radialGradient cx="26.515%" cy="5.021%" fx="26.515%" fy="5.021%" r="145.793%" gradientTransform="matrix(1 0 0 .7369 0 .013)" id="b"><stop stop-color="#F79606" offset="0%"/><stop stop-color="#F96603" offset="100%"/></radialGradient></defs><g fill="none" fill-rule="evenodd"><path fill="#FFF" d="M0 0h600v400H0z"/><g fill-rule="nonzero"><path d="M53.982 2.882C43.45 5.547 37.57 15.652 38.38 26.242c1.51 19.734-3.772 31.314-26.07 41.568h.005c-.555.255-1.097.535-1.62.84-.007.006-.02.013-.026.019a20.888 20.888 0 00-5.468 4.545 18.093 18.093 0 00-1.104 1.413c-.013.025-.031.037-.044.062a20.996 20.996 0 00-1.777 3c-.006.013-.012.02-.019.032a17.27 17.27 0 00-.654 1.525c-.025.062-.044.118-.069.18a18.199 18.199 0 00-.505 1.526 1.4 1.4 0 00-.056.218 18.869 18.869 0 00-.412 1.706c-.1.548-.187 1.09-.25 1.643 0 .019-.005.05-.005.069-.057.548-.088 1.09-.106 1.643 0 .087-.007.162-.007.256-.012.529.007 1.064.044 1.6 0 .1.012.199.019.292.037.548.1 1.09.187 1.619l.037.236c.094.573.206 1.14.356 1.712.143.573.318 1.121.498 1.675l.075.218c.181.517.387 1.021.611 1.513.038.093.081.18.119.274.224.48.467.965.73 1.432.037.068.08.143.124.211.274.48.561.947.88 1.395a.3.3 0 00.043.056c.312.46.648.903 1.004 1.332a.81.81 0 01.075.106c.355.417.717.822 1.097 1.208.05.05.094.1.144.156.38.386.767.753 1.178 1.101.05.038.094.075.144.125.424.355.86.703 1.303 1.027a21.887 21.887 0 003.024 1.812.68.68 0 00.069.037c.511.255 1.035.48 1.565.685.025.019.056.025.08.031a21.11 21.11 0 006.979 1.413h.037c.605.013 1.216.007 1.827-.03 17.672-.735 29.844 3.535 37.22 13.279 1.859 2.633 3.517 5.621 4.927 9.008.03.075.068.143.093.218 3.573 9.14 11.542 15.57 20.765 15.402a20.39 20.39 0 004.583-.591 20.973 20.973 0 0015.19-15.153c.05-.212.081-.43.13-.648.1-.448.2-.89.275-1.338.1-.648.169-1.302.206-1.968 0-.025.006-.05.006-.068.106-1.887-.075-3.81-.505-5.728-.044-.18-.062-.355-.112-.535-2.663-10.528-12.833-16.834-23.396-15.59-.087.013-.169.013-.256.02-5.2.385-9.784.08-13.993-.517-13.587-1.924-22.666-10.802-25.61-21.666-4.258-15.682 3.942-30.68 22.455-38.368 10.638-4.42 17.884-14.244 15.047-25.413-2.4-9.488-10.944-15.807-20.322-15.813a20.205 20.205 0 00-5.163.628" fill="url(#a)" transform="translate(14.603 103.513)"/><path d="M88.047 49.3c-1.49.02-3.024.2-4.583.592-7.726 1.955-13.35 7.95-15.19 15.153-.056.212-.087.43-.131.648-.1.448-.206.89-.274 1.338-.1.648-.169 1.308-.2 1.968-.006.03-.012.05-.012.068-.1 1.887.074 3.81.51 5.734.044.18.063.361.113.535v.007c2.663 10.515 12.827 16.828 23.396 15.582.087-.012.168-.012.256-.024 5.2-.386 9.783-.075 13.999.516 13.587 1.924 22.66 10.808 25.603 21.672 4.26 15.682-3.94 30.68-22.454 38.362-10.638 4.42-17.878 14.244-15.047 25.407 2.844 11.219 14.255 18.01 25.491 15.172 10.532-2.665 16.413-12.769 15.602-23.365-1.51-19.729 3.773-31.315 26.065-41.569a18.991 18.991 0 001.621-.84c.013-.006.019-.012.025-.012a20.881 20.881 0 005.519-4.62c.367-.442.717-.884 1.047-1.345.013-.03.031-.043.038-.068a20.112 20.112 0 001.79-3.026c.242-.504.46-1.02.66-1.531.019-.063.044-.119.063-.175.193-.498.361-1.008.51-1.525.026-.068.038-.143.057-.205.15-.53.28-1.052.387-1.588.006-.043.012-.087.025-.13.106-.536.187-1.084.249-1.638 0-.019.006-.05.006-.068a20.58 20.58 0 00.106-1.65c0-.087.006-.162.006-.255.013-.53-.006-1.065-.037-1.6 0-.1-.012-.193-.019-.287a19.92 19.92 0 00-.187-1.625c-.012-.08-.03-.162-.037-.236a18.557 18.557 0 00-.356-1.712 24.946 24.946 0 00-.505-1.675c-.025-.069-.05-.15-.075-.218a20.316 20.316 0 00-.61-1.519c-.038-.087-.075-.18-.12-.268a20.596 20.596 0 00-.729-1.432 7.985 7.985 0 00-.124-.218c-.281-.473-.562-.946-.88-1.394a.224.224 0 00-.043-.062 17.526 17.526 0 00-1.004-1.333c-.031-.03-.05-.068-.075-.1a25.696 25.696 0 00-1.097-1.213c-.05-.05-.1-.106-.15-.15a17.77 17.77 0 00-1.179-1.102l-.143-.124a20.11 20.11 0 00-1.31-1.027c-.012-.013-.024-.019-.03-.025a21.677 21.677 0 00-2.988-1.793.68.68 0 00-.068-.038 20.524 20.524 0 00-1.565-.684.246.246 0 00-.088-.031 20.881 20.881 0 00-6.971-1.407h-.037a19.78 19.78 0 00-1.821.03v-.006c-17.678.747-29.844-3.53-37.227-13.266-1.852-2.634-3.51-5.628-4.926-9.015-.031-.069-.069-.143-.1-.218-3.523-9.027-11.342-15.402-20.422-15.402-.1.03-.218.03-.33.03" fill="url(#b)" transform="translate(14.603 103.513)"/><path d="M261.605 232.995c6.006 0 8.187-1.905 8.187-5.45 0-4.36-4.093-6.131-10.92-8.175-12.419-3.685-25.932-8.72-25.932-24.527 0-11.586 7.507-19.08 24.567-19.08 12.28 0 21.838 2.723 21.838 2.723.686.277 1.227.818 1.366 1.364 0 0 1.367 10.356 1.367 10.897 0 .823-.542 1.364-1.367 1.364-.68 0-11.6-2.723-23.2-2.723-5.46 0-8.187 1.904-8.187 5.455 0 4.355 4.094 6.126 10.92 8.174 12.42 3.68 25.932 8.581 25.932 24.527 0 10.902-8.873 19.076-24.566 19.076-15.013 0-25.932-4.087-25.932-4.087-.686-.278-1.228-.823-1.362-1.364 0 0-1.366-10.356-1.366-10.902 0-.818.547-1.359 1.366-1.359.671 0 15.008 4.087 27.289 4.087m52.823-28.619H345c-.541-7.628-3.954-14.988-13.512-14.988-12.962 0-16.106 6.403-17.06 14.988zm0 13.63c1.093 8.72 4.78 14.989 18.426 14.989 10.92 0 22.52-2.723 23.205-2.723.82 0 1.361.545 1.361 1.364 0 .407-1.361 10.897-1.361 10.897-.14.684-.547 1.23-1.362 1.364 0 0-9.558 2.723-21.843 2.723-29.345 0-35.486-15.946-35.486-35.429 0-19.487 6.285-35.294 34.12-35.294 19.365 0 30.17 10.767 30.17 35.294v5.451c0 .685-.69 1.364-1.501 1.364h-45.729zm62.65-72.35c0-.819.546-1.364 1.366-1.364l13.651-1.364c.815 0 1.366.545 1.366 1.364v90.076c0 5.451 1.362 8.993 1.362 9.538 0 .819-.547 1.364-1.362 1.364H379.81c-.547 0-1.098-.545-1.366-1.364 0 0-1.366-4.087-1.366-9.538v-88.712m36.477 0c0-.819.547-1.364 1.366-1.364l13.652-1.364c.815 0 1.361.545 1.361 1.364v90.076c0 5.451 1.362 8.993 1.362 9.538 0 .819-.547 1.364-1.362 1.364h-13.651c-.547 0-1.093-.545-1.362-1.364 0 0-1.366-4.087-1.366-9.538v-88.712m49.66 58.72h30.572c-.542-7.628-3.954-14.988-13.512-14.988-12.971 0-16.106 6.403-17.06 14.988zm0 13.63c1.093 8.72 4.779 14.989 18.426 14.989 10.919 0 22.519-2.723 23.204-2.723.82 0 1.362.545 1.362 1.364 0 .407-1.362 10.897-1.362 10.897-.134.684-.546 1.23-1.36 1.364 0 0-9.559 2.723-21.844 2.723-29.345 0-35.486-15.946-35.486-35.429 0-19.487 6.284-35.294 34.12-35.294 19.365 0 30.17 10.767 30.17 35.294v5.451c0 .685-.691 1.364-1.501 1.364h-45.73zm92.656 14.989c13.647 0 17.74-8.174 17.74-21.804 0-13.63-4.093-21.803-17.74-21.803-13.651 0-17.745 8.174-17.745 21.803-.005 13.63 4.094 21.804 17.745 21.804m0-57.237c20.473 0 34.12 10.902 34.12 35.433 0 24.527-13.652 35.429-34.12 35.429-20.472 0-34.124-10.902-34.124-35.429 0-24.531 13.647-35.433 34.124-35.433" fill="#2F3033"/></g></g></svg>