<svg width="600" height="400" xmlns="http://www.w3.org/2000/svg"><g fill="none" fill-rule="evenodd"><path fill="#FFF" d="M0 0h600v400H0z"/><path d="M276.172 158.437h-14.906c-5.252.007-9.508 4.254-9.515 9.495v61.35c.007 5.24 4.263 9.487 9.515 9.494h14.906c5.253-.007 9.509-4.254 9.516-9.495v-61.35c-.007-5.24-4.263-9.487-9.516-9.494zm.653 70.844c0 .36-.292.651-.653.651h-14.906a.652.652 0 01-.653-.65v-61.35c0-.36.293-.652.653-.652h14.906c.36 0 .653.292.653.652v61.35zm51.101-70.844h-14.873c-5.253.007-9.509 4.254-9.516 9.495v61.35c.007 5.24 4.263 9.487 9.516 9.494h14.906c5.252-.007 9.508-4.254 9.515-9.495v-61.35a9.497 9.497 0 00-2.802-6.72 9.54 9.54 0 00-6.746-2.774zm.653 70.844c0 .36-.292.651-.653.651h-14.873a.652.652 0 01-.653-.65v-61.35c0-.36.292-.652.653-.652h14.906c.36 0 .653.292.653.652l-.033 61.35zm134.893-70.844h-14.9c-5.254.004-9.514 4.251-9.522 9.495v61.35c.008 5.242 4.268 9.49 9.522 9.494h14.9c5.252-.007 9.508-4.254 9.515-9.495v-61.35c-.007-5.24-4.263-9.487-9.515-9.494zm.653 70.844c0 .36-.293.651-.653.651h-14.9a.652.652 0 01-.652-.65v-61.35c0-.36.292-.652.652-.652h14.9c.36 0 .653.292.653.652v61.35zm51.114-70.844h-14.88c-5.252.007-9.508 4.254-9.515 9.495v61.35c.007 5.24 4.263 9.487 9.515 9.494h14.88c5.252-.007 9.508-4.254 9.515-9.495v-61.35c-.007-5.24-4.263-9.487-9.515-9.494zm.653 70.844c0 .36-.293.651-.653.651h-14.88a.652.652 0 01-.653-.65v-61.35c0-.36.293-.652.653-.652h14.88c.36 0 .653.292.653.652v61.35zm-103.397-70.427h-8.85v79.505h26.49v-8.83h-17.64zm-34.596-.007h-24.422v79.512h8.85v-24.505h15.598c5.257 0 9.52-4.248 9.528-9.494v-36.018a9.497 9.497 0 00-2.805-6.724 9.54 9.54 0 00-6.75-2.77zm.691 45.513c0 .36-.292.651-.652.651h-15.585v-37.64h15.572c.36 0 .652.292.652.652l.013 36.337zm185.48-8.668l12.96-36.838h-9.587l-8.373 23.873-8.373-23.873h-9.588l13.184 37.483-14.743 42.022h9.378l10.403-29.636 10.534 29.636h9.384zm-396.555-35.08l-39.008-31.622a.255.255 0 00-.17-.059H62.31a.285.285 0 00-.163.052l-41.383 31.584a.267.267 0 00-.06.358L94.42 271.134a.274.274 0 00.45 0l72.717-110.17a.26.26 0 00-.072-.352zm-32.501-20.076l21.98 17.816a.267.267 0 01-.17.476H142.54a.268.268 0 01-.248-.163l-7.669-17.817a.267.267 0 01.411-.312h-.02zm-8.223-6.512l4.418 10.653a.266.266 0 01-.248.371H76.074a.267.267 0 01-.052-.527l50.482-10.654a.268.268 0 01.306.137l-.02.02zm-66.922 9.455l4.634-9.527a.261.261 0 01.242-.156h42.989a.27.27 0 01.276.375.27.27 0 01-.218.159l-47.642 9.533a.274.274 0 01-.28-.384zm-2.95 6.42h76.3c.108 0 .206.064.248.164l3.485 8.394a.266.266 0 01-.248.37h-30.393a.267.267 0 00-.268.268v33.96c0 .147-.12.267-.267.267H83.527a.267.267 0 01-.267-.267v-33.96a.267.267 0 00-.268-.267H52.841a.268.268 0 01-.242-.384l4.08-8.394a.268.268 0 01.24-.15zm77.71 14.25l-23.24 24.354a.268.268 0 01-.464-.182v-24.355a.267.267 0 01.274-.267h23.24a.268.268 0 01.19.45zm-56.25-.183v24.355a.267.267 0 01-.464.182l-23.24-24.355a.267.267 0 01.195-.45h23.234a.268.268 0 01.274.268zm-40.83 13.375L27.303 162.02a.254.254 0 01.059-.358l28.109-21.49a.275.275 0 01.41.332l-17.868 36.773a.267.267 0 01-.464.065zm28.67 42.85l-25.185-37.64a.26.26 0 010-.267l6.847-14.092a.268.268 0 01.496 0l18.332 51.731a.278.278 0 01-.251.412.28.28 0 01-.238-.145zm25.989 37.958a.267.267 0 01-.49.15l-15.01-22.415v-.065l-21.831-63.674a.267.267 0 01.45-.267l36.828 38.584a.261.261 0 01.072.182l-.02 47.505zm2.61-52.317a.274.274 0 01-.392 0l-6.859-7.164a.267.267 0 01.196-.449h13.705a.268.268 0 01.196.45l-6.846 7.163zm19.436 27.063l-16.695 25.3a.268.268 0 01-.496-.15v-41.957a.267.267 0 01.457-.189l16.7 16.658a.273.273 0 01.06.338h-.026zm2.016-5.177l-18.052-18.012a.267.267 0 010-.371l36.098-37.822a.275.275 0 01.456.267l-18.032 55.86a.267.267 0 01-.444.078h-.026zm43.413-63.602l-33.65 50.982a.268.268 0 01-.476-.228l16.923-50.989a.274.274 0 01.255-.182h16.72a.268.268 0 01.228.417zm43.61-5.262v7.567h13.313v71.938h8.85v-71.932h13.497v-7.573z" fill="#1D1D1B" fill-rule="nonzero"/></g></svg>