<svg width="600" height="400" xmlns="http://www.w3.org/2000/svg"><g fill="none" fill-rule="evenodd"><path fill="#FFF" d="M0 0h600v400H0z"/><g fill-rule="nonzero"><path d="M244.813 112.435h-13.481v51.468h-12.403v-51.468h-13.48v-10.196h39.364z" fill="#FFF"/><path d="M244.813 112.435h-13.481v51.468h-12.403v-51.468h-13.48v-10.196h39.364z" fill="#2B2B2B"/><path d="M262.657 102.239v23.553h14.485v-23.553h12.476v61.615h-12.427v-27.352h-14.534v27.352h-12.501v-61.615z" fill="#FFF"/><path d="M262.657 102.239v23.553h14.485v-23.553h12.476v61.615h-12.427v-27.352h-14.534v27.352h-12.501v-61.615z" fill="#2B2B2B"/><path d="M332.561 112.435h-22.06v14.484h20.786v10.196h-20.712v16.543h22.869v10.196h-35.296v-61.615h34.315z" fill="#FFF"/><path d="M332.561 112.435h-22.06v14.484h20.786v10.196h-20.712v16.543h22.869v10.196h-35.296v-61.615h34.315z" fill="#2B2B2B"/><path d="M218.733 226.057c-.012 1.317.111 2.63.368 3.922a6.936 6.936 0 0 0 1.274 2.99 6.275 6.275 0 0 0 2.452 1.887c1.279.499 2.647.732 4.02.686a7.966 7.966 0 0 0 5.122-1.838 6.936 6.936 0 0 0 2.304-5.735 10.342 10.342 0 0 0-.564-3.578 7.353 7.353 0 0 0-1.862-2.72 12.795 12.795 0 0 0-3.407-2.207 45.935 45.935 0 0 0-5-2.034 42.21 42.21 0 0 1-7.354-3.014 19.608 19.608 0 0 1-4.902-3.848 13.578 13.578 0 0 1-2.966-5.074 21.395 21.395 0 0 1-.956-6.69c0-6.095 1.691-10.637 5.074-13.627a20.468 20.468 0 0 1 13.996-4.485c2.569-.026 5.13.278 7.622.906a16.006 16.006 0 0 1 6.055 2.917 13.946 13.946 0 0 1 3.97 5.171 18.6 18.6 0 0 1 1.422 7.549v1.74h-11.986a12.254 12.254 0 0 0-1.544-6.764 5.736 5.736 0 0 0-5.196-2.451 8.702 8.702 0 0 0-3.432.588c-.846.358-1.6.903-2.206 1.593a5.343 5.343 0 0 0-1.127 2.304 11.91 11.91 0 0 0-.294 2.671 8.872 8.872 0 0 0 1.2 4.78 10.687 10.687 0 0 0 5.074 3.651l9.805 4.142a31.595 31.595 0 0 1 5.662 3.211 16.127 16.127 0 0 1 3.578 3.627 12.769 12.769 0 0 1 1.863 4.265c.358 1.708.53 3.45.515 5.196 0 6.535-1.888 11.266-5.662 14.19a24.88 24.88 0 0 1-15.76 4.583c-7.035 0-12.035-1.52-15.075-4.583a17.817 17.817 0 0 1-4.534-13.234v-2.451h12.402l.05 1.764z" fill="#FFF"/><path d="M218.733 226.057c-.012 1.317.111 2.63.368 3.922a6.936 6.936 0 0 0 1.274 2.99 6.275 6.275 0 0 0 2.452 1.887c1.279.499 2.647.732 4.02.686a7.966 7.966 0 0 0 5.122-1.838 6.936 6.936 0 0 0 2.304-5.735 10.342 10.342 0 0 0-.564-3.578 7.353 7.353 0 0 0-1.862-2.72 12.795 12.795 0 0 0-3.407-2.207 45.935 45.935 0 0 0-5-2.034 42.21 42.21 0 0 1-7.354-3.014 19.608 19.608 0 0 1-4.902-3.848 13.578 13.578 0 0 1-2.966-5.074 21.395 21.395 0 0 1-.956-6.69c0-6.095 1.691-10.637 5.074-13.627a20.468 20.468 0 0 1 13.996-4.485c2.569-.026 5.13.278 7.622.906a16.006 16.006 0 0 1 6.055 2.917 13.946 13.946 0 0 1 3.97 5.171 18.6 18.6 0 0 1 1.422 7.549v1.74h-11.986a12.254 12.254 0 0 0-1.544-6.764 5.736 5.736 0 0 0-5.196-2.451 8.702 8.702 0 0 0-3.432.588c-.846.358-1.6.903-2.206 1.593a5.343 5.343 0 0 0-1.127 2.304 11.91 11.91 0 0 0-.294 2.671 8.872 8.872 0 0 0 1.2 4.78 10.687 10.687 0 0 0 5.074 3.651l9.805 4.142a31.595 31.595 0 0 1 5.662 3.211 16.127 16.127 0 0 1 3.578 3.627 12.769 12.769 0 0 1 1.863 4.265c.358 1.708.53 3.45.515 5.196 0 6.535-1.888 11.266-5.662 14.19a24.88 24.88 0 0 1-15.76 4.583c-7.035 0-12.035-1.52-15.075-4.583a17.817 17.817 0 0 1-4.534-13.234v-2.451h12.402l.05 1.764z" fill="#2B2B2B"/><path d="M252.852 199.784a28.232 28.232 0 0 1 2.843-10.122 16.03 16.03 0 0 1 6.349-6.618 27.503 27.503 0 0 1 22.256 0 16.03 16.03 0 0 1 6.348 6.618 29.262 29.262 0 0 1 2.843 10.122c.85 8.598.85 17.259 0 25.857a28.968 28.968 0 0 1-2.843 10.073 15.049 15.049 0 0 1-6.324 6.397 28.876 28.876 0 0 1-22.256 0 15.049 15.049 0 0 1-6.348-6.495 27.963 27.963 0 0 1-2.868-9.975 126.602 126.602 0 0 1 0-25.857zm12.084 23.48a28.477 28.477 0 0 0 1.201 7.058 7.867 7.867 0 0 0 2.451 3.97 7.354 7.354 0 0 0 4.461 1.25 7.354 7.354 0 0 0 4.437-1.25 7.892 7.892 0 0 0 2.598-3.97 29.653 29.653 0 0 0 1.2-7.059c.197-2.916.295-6.421.295-10.563s0-7.671-.294-10.539a30.83 30.83 0 0 0-1.201-7.083 7.867 7.867 0 0 0-2.598-3.995 7.354 7.354 0 0 0-4.437-1.25 7.354 7.354 0 0 0-4.46 1.25 7.818 7.818 0 0 0-2.452 3.995 29.555 29.555 0 0 0-1.201 7.083c-.22 2.868-.319 6.397-.319 10.539 0 4.142.123 7.647.344 10.563h-.025z" fill="#FFF"/><path d="M252.852 199.784a28.232 28.232 0 0 1 2.843-10.122 16.03 16.03 0 0 1 6.349-6.618 27.503 27.503 0 0 1 22.256 0 16.03 16.03 0 0 1 6.348 6.618 29.262 29.262 0 0 1 2.843 10.122c.85 8.598.85 17.259 0 25.857a28.968 28.968 0 0 1-2.843 10.073 15.049 15.049 0 0 1-6.324 6.397 28.876 28.876 0 0 1-22.256 0 15.049 15.049 0 0 1-6.348-6.495 27.963 27.963 0 0 1-2.868-9.975 126.602 126.602 0 0 1 0-25.857zm12.084 23.48a28.477 28.477 0 0 0 1.201 7.058 7.867 7.867 0 0 0 2.451 3.97 7.354 7.354 0 0 0 4.461 1.25 7.354 7.354 0 0 0 4.437-1.25 7.892 7.892 0 0 0 2.598-3.97 29.653 29.653 0 0 0 1.2-7.059c.197-2.916.295-6.421.295-10.563s0-7.671-.294-10.539a30.83 30.83 0 0 0-1.201-7.083 7.867 7.867 0 0 0-2.598-3.995 7.354 7.354 0 0 0-4.437-1.25 7.354 7.354 0 0 0-4.46 1.25 7.818 7.818 0 0 0-2.452 3.995 29.555 29.555 0 0 0-1.201 7.083c-.22 2.868-.319 6.397-.319 10.539 0 4.142.123 7.647.344 10.563h-.025z" fill="#2B2B2B"/><path d="M335.92 181.892v10.172h-22.06v14.509h20.711v10.17H313.86v26.74h-12.427v-61.59z" fill="#FFF"/><path d="M335.92 181.892v10.172h-22.06v14.509h20.711v10.17H313.86v26.74h-12.427v-61.59z" fill="#2B2B2B"/><path d="M377.514 192.064h-13.456v51.468H351.63v-51.468h-13.48v-10.172h39.364z" fill="#FFF"/><path d="M377.514 192.064h-13.456v51.468H351.63v-51.468h-13.48v-10.172h39.364z" fill="#2B2B2B"/><path d="M391.142 181.892l6.814 45.513h.172l7.353-45.562h11.887l7.06 45.562h.171l6.814-45.562h11.912L432.1 243.434h-13.873l-6.912-44.68h-.171l-6.814 44.729h-13.873l-11.226-61.59z" fill="#FFF"/><path d="M391.142 181.892l6.814 45.513h.172l7.353-45.562h11.887l7.06 45.562h.171l6.814-45.562h11.912L432.1 243.434h-13.873l-6.912-44.68h-.171l-6.814 44.729h-13.873l-11.226-61.59z" fill="#2B2B2B"/><path d="M474.233 181.892l16.374 61.591h-12.942l-2.843-13.014h-16.398l-2.843 13.014h-13.015l16.3-61.59h15.367zm-1.642 38.381l-5.956-27.695h-.171l-5.957 27.695h12.084z" fill="#FFF"/><path d="M474.233 181.892l16.374 61.591h-12.942l-2.843-13.014h-16.398l-2.843 13.014h-13.015l16.3-61.59h15.367zm-1.642 38.381l-5.956-27.695h-.171l-5.957 27.695h12.084z" fill="#2B2B2B"/><path d="M517.814 181.892a17.158 17.158 0 0 1 12.01 3.848 15.317 15.317 0 0 1 4.314 11.96 18.552 18.552 0 0 1-2.451 10.123 11.496 11.496 0 0 1-7.77 5.049v.171a11.398 11.398 0 0 1 6.838 3.015 12.989 12.989 0 0 1 2.672 7.524c0 1.152.196 2.45.245 3.75.049 1.299.123 2.867.172 4.534.13 3.268.302 5.768.514 7.5a4.902 4.902 0 0 0 2.255 3.529v.514h-13.456a6.495 6.495 0 0 1-1.201-2.965 31.425 31.425 0 0 1-.368-3.505l-.343-11.813a9.46 9.46 0 0 0-1.814-5.686 6.545 6.545 0 0 0-5.515-2.083h-6.642v26.126h-12.427v-61.59h22.967zm-5.368 26.96a10.27 10.27 0 0 0 6.912-2.108 9.043 9.043 0 0 0 2.45-7.132c0-5.686-2.875-8.529-8.627-8.529h-5.907v17.77h5.172z" fill="#FFF"/><path d="M517.814 181.892a17.158 17.158 0 0 1 12.01 3.848 15.317 15.317 0 0 1 4.314 11.96 18.552 18.552 0 0 1-2.451 10.123 11.496 11.496 0 0 1-7.77 5.049v.171a11.398 11.398 0 0 1 6.838 3.015 12.989 12.989 0 0 1 2.672 7.524c0 1.152.196 2.45.245 3.75.049 1.299.123 2.867.172 4.534.13 3.268.302 5.768.514 7.5a4.902 4.902 0 0 0 2.255 3.529v.514h-13.456a6.495 6.495 0 0 1-1.201-2.965 31.425 31.425 0 0 1-.368-3.505l-.343-11.813a9.46 9.46 0 0 0-1.814-5.686 6.545 6.545 0 0 0-5.515-2.083h-6.642v26.126h-12.427v-61.59h22.967zm-5.368 26.96a10.27 10.27 0 0 0 6.912-2.108 9.043 9.043 0 0 0 2.45-7.132c0-5.686-2.875-8.529-8.627-8.529h-5.907v17.77h5.172z" fill="#2B2B2B"/><path d="M577.252 192.064h-22.06v14.509h20.712v10.17h-20.712v16.569h22.869v10.171h-35.246v-61.59h34.315z" fill="#FFF"/><path d="M577.252 192.064h-22.06v14.509h20.712v10.17h-20.712v16.569h22.869v10.171h-35.246v-61.59h34.315z" fill="#2B2B2B"/><path d="M221.16 261.521v23.553h14.535v-23.553h12.427v61.616h-12.427v-27.352H221.16v27.352h-12.427V261.52z" fill="#FFF"/><path d="M221.16 261.521v23.553h14.535v-23.553h12.427v61.616h-12.427v-27.352H221.16v27.352h-12.427V261.52z" fill="#2B2B2B"/><path d="M256.063 279.437a28.722 28.722 0 0 1 2.843-10.146 15.833 15.833 0 0 1 6.349-6.593 27.233 27.233 0 0 1 22.255 0 15.833 15.833 0 0 1 6.349 6.593 28.722 28.722 0 0 1 2.843 10.146c.85 8.59.85 17.243 0 25.833a28.6 28.6 0 0 1-2.843 10.097 15.122 15.122 0 0 1-6.349 6.47 28.876 28.876 0 0 1-22.255 0 15.122 15.122 0 0 1-6.349-6.47 28.6 28.6 0 0 1-2.843-10.097 131.21 131.21 0 0 1 0-25.833zm12.084 23.455a28.698 28.698 0 0 0 1.201 7.083 7.892 7.892 0 0 0 2.598 3.97 8.506 8.506 0 0 0 8.873 0 7.892 7.892 0 0 0 2.598-3.97 28.698 28.698 0 0 0 1.3-7.083c.195-2.892.293-6.421.293-10.563s0-7.647-.294-10.514a29.114 29.114 0 0 0-1.2-7.083 7.94 7.94 0 0 0-2.599-4.02 8.506 8.506 0 0 0-8.873 0 7.94 7.94 0 0 0-2.598 4.02 29.114 29.114 0 0 0-1.201 7.083c-.196 2.867-.319 6.372-.319 10.514 0 4.142.025 7.671.22 10.563z" fill="#FFF"/><path d="M256.063 279.437a28.722 28.722 0 0 1 2.843-10.146 15.833 15.833 0 0 1 6.349-6.593 27.233 27.233 0 0 1 22.255 0 15.833 15.833 0 0 1 6.349 6.593 28.722 28.722 0 0 1 2.843 10.146c.85 8.59.85 17.243 0 25.833a28.6 28.6 0 0 1-2.843 10.097 15.122 15.122 0 0 1-6.349 6.47 28.876 28.876 0 0 1-22.255 0 15.122 15.122 0 0 1-6.349-6.47 28.6 28.6 0 0 1-2.843-10.097 131.21 131.21 0 0 1 0-25.833zm12.084 23.455a28.698 28.698 0 0 0 1.201 7.083 7.892 7.892 0 0 0 2.598 3.97 8.506 8.506 0 0 0 8.873 0 7.892 7.892 0 0 0 2.598-3.97 28.698 28.698 0 0 0 1.3-7.083c.195-2.892.293-6.421.293-10.563s0-7.647-.294-10.514a29.114 29.114 0 0 0-1.2-7.083 7.94 7.94 0 0 0-2.599-4.02 8.506 8.506 0 0 0-8.873 0 7.94 7.94 0 0 0-2.598 4.02 29.114 29.114 0 0 0-1.201 7.083c-.196 2.867-.319 6.372-.319 10.514 0 4.142.025 7.671.22 10.563z" fill="#2B2B2B"/><path d="M316.335 304.485a28.771 28.771 0 0 0 .245 4.29 9.803 9.803 0 0 0 1.128 3.357 5.907 5.907 0 0 0 2.23 2.23 7.01 7.01 0 0 0 3.603.834 6.765 6.765 0 0 0 3.603-.834 5.833 5.833 0 0 0 2.206-2.23 9.803 9.803 0 0 0 1.128-3.358c.205-1.42.303-2.854.294-4.289v-42.964h12.427v42.964a24.507 24.507 0 0 1-1.642 9.804 15.318 15.318 0 0 1-4.388 6.103 14.903 14.903 0 0 1-6.299 3.014 34.318 34.318 0 0 1-7.353.76c-2.468.01-4.93-.22-7.353-.686a14.707 14.707 0 0 1-6.3-2.794 14.313 14.313 0 0 1-4.387-6.005 26.026 26.026 0 0 1-1.642-10.098v-43.062h12.427l.073 42.964z" fill="#FFF"/><path d="M316.335 304.485a28.771 28.771 0 0 0 .245 4.29 9.803 9.803 0 0 0 1.128 3.357 5.907 5.907 0 0 0 2.23 2.23 7.01 7.01 0 0 0 3.603.834 6.765 6.765 0 0 0 3.603-.834 5.833 5.833 0 0 0 2.206-2.23 9.803 9.803 0 0 0 1.128-3.358c.205-1.42.303-2.854.294-4.289v-42.964h12.427v42.964a24.507 24.507 0 0 1-1.642 9.804 15.318 15.318 0 0 1-4.388 6.103 14.903 14.903 0 0 1-6.299 3.014 34.318 34.318 0 0 1-7.353.76c-2.468.01-4.93-.22-7.353-.686a14.707 14.707 0 0 1-6.3-2.794 14.313 14.313 0 0 1-4.387-6.005 26.026 26.026 0 0 1-1.642-10.098v-43.062h12.427l.073 42.964z" fill="#2B2B2B"/><path d="M361.116 305.833a21.419 21.419 0 0 0 .343 3.922 6.69 6.69 0 0 0 1.3 2.965 6.373 6.373 0 0 0 2.45 1.912c1.271.5 2.631.733 3.996.686a7.917 7.917 0 0 0 5.147-1.862 6.936 6.936 0 0 0 2.28-5.735 10.44 10.44 0 0 0-.564-3.579 6.862 6.862 0 0 0-1.863-2.72 12.795 12.795 0 0 0-3.407-2.206 46.328 46.328 0 0 0-5.22-2.01 45.175 45.175 0 0 1-7.158-3.039 18.898 18.898 0 0 1-5.05-3.823 13.823 13.823 0 0 1-2.965-5.098 21.174 21.174 0 0 1-.956-6.69c0-6.08 1.691-10.638 5.098-13.628a20.37 20.37 0 0 1 13.972-4.485 30.028 30.028 0 0 1 7.647.907 16.129 16.129 0 0 1 6.03 2.941 13.75 13.75 0 0 1 3.97 5.171 18.11 18.11 0 0 1 1.422 7.549v1.716h-11.912a12.45 12.45 0 0 0-1.545-6.765 5.687 5.687 0 0 0-5.171-2.45 8.31 8.31 0 0 0-3.456.612 5.588 5.588 0 0 0-2.206 1.593 5.857 5.857 0 0 0-1.128 2.28 12.057 12.057 0 0 0-.294 2.67 8.896 8.896 0 0 0 1.201 4.903 10.956 10.956 0 0 0 5.196 3.578l9.56 4.142a28.948 28.948 0 0 1 5.784 3.235c1.409.96 2.65 2.144 3.677 3.505a11.666 11.666 0 0 1 1.863 4.264c.358 1.7.53 3.434.514 5.172 0 6.535-1.887 11.266-5.662 14.19a24.782 24.782 0 0 1-15.736 4.436c-7.01 0-12.026-1.52-15.05-4.558a17.866 17.866 0 0 1-4.534-13.112v-2.451h12.427v1.862z" fill="#FFF"/><path d="M361.116 305.833a21.419 21.419 0 0 0 .343 3.922 6.69 6.69 0 0 0 1.3 2.965 6.373 6.373 0 0 0 2.45 1.912c1.271.5 2.631.733 3.996.686a7.917 7.917 0 0 0 5.147-1.862 6.936 6.936 0 0 0 2.28-5.735 10.44 10.44 0 0 0-.564-3.579 6.862 6.862 0 0 0-1.863-2.72 12.795 12.795 0 0 0-3.407-2.206 46.328 46.328 0 0 0-5.22-2.01 45.175 45.175 0 0 1-7.158-3.039 18.898 18.898 0 0 1-5.05-3.823 13.823 13.823 0 0 1-2.965-5.098 21.174 21.174 0 0 1-.956-6.69c0-6.08 1.691-10.638 5.098-13.628a20.37 20.37 0 0 1 13.972-4.485 30.028 30.028 0 0 1 7.647.907 16.129 16.129 0 0 1 6.03 2.941 13.75 13.75 0 0 1 3.97 5.171 18.11 18.11 0 0 1 1.422 7.549v1.716h-11.912a12.45 12.45 0 0 0-1.545-6.765 5.687 5.687 0 0 0-5.171-2.45 8.31 8.31 0 0 0-3.456.612 5.588 5.588 0 0 0-2.206 1.593 5.857 5.857 0 0 0-1.128 2.28 12.057 12.057 0 0 0-.294 2.67 8.896 8.896 0 0 0 1.201 4.903 10.956 10.956 0 0 0 5.196 3.578l9.56 4.142a28.948 28.948 0 0 1 5.784 3.235c1.409.96 2.65 2.144 3.677 3.505a11.666 11.666 0 0 1 1.863 4.264c.358 1.7.53 3.434.514 5.172 0 6.535-1.887 11.266-5.662 14.19a24.782 24.782 0 0 1-15.736 4.436c-7.01 0-12.026-1.52-15.05-4.558a17.866 17.866 0 0 1-4.534-13.112v-2.451h12.427v1.862z" fill="#2B2B2B"/><path d="M430.31 271.717h-22.06v14.51h20.712v10.17H408.25v16.544h22.869v10.196h-35.295V261.52h34.486z" fill="#FFF"/><path d="M430.31 271.717h-22.06v14.51h20.712v10.17H408.25v16.544h22.869v10.196h-35.295V261.52h34.486z" fill="#2B2B2B"/><path d="M193.414 325.538l-.834-226.02L20 73v199.869l58.826 17.475v-93.526l49.021 11.152v63.674l-50.443 18.798 50.443 15.293z" fill="#FFF"/><path d="M193.414 325.538l-.834-226.02L20 73v199.869l58.826 17.475v-93.526l49.021 11.152v63.674l-50.443 18.798 50.443 15.293z" fill="#2B2B2B"/></g></g></svg>