<svg width="600" height="400" xmlns="http://www.w3.org/2000/svg"><g fill="none" fill-rule="evenodd"><path fill="#FFF" d="M0 0h600v400H0z"/><g fill-rule="nonzero"><path d="M101.116 36.14l23.03-3.709v23.952h27.664v19.161h-27.664v28.587c0 4.843.848 8.708 2.549 11.588 1.702 2.887 5.128 4.327 10.28 4.327 2.472 0 5.025-.23 7.65-.694 2.628-.464 5.025-1.106 7.185-1.931l3.25 17.923c-2.785 1.135-5.874 2.115-9.276 2.937-3.4.823-7.574 1.235-12.52 1.235-6.286 0-11.488-.849-15.61-2.549-4.123-1.7-7.418-4.066-9.892-7.109-2.473-3.034-4.199-6.72-5.177-11.047-.982-4.327-1.47-9.117-1.47-14.371v-68.3m143.276 20.243c-4.646 15.66-9.503 30.34-14.564 44.04a527.121 527.121 0 01-16.584 39.864c-2.168 4.641-4.332 8.582-6.5 11.826-2.168 3.244-4.543 5.922-7.12 8.037-2.582 2.11-5.497 3.653-8.746 4.635-3.253.975-7.041 1.468-11.373 1.468-3.616 0-6.944-.337-9.99-1.008-3.042-.67-5.542-1.416-7.504-2.239l4.02-18.39c2.372.824 4.482 1.393 6.338 1.7 1.857.312 3.814.465 5.877.465 4.122 0 7.291-1.109 9.51-3.32 2.216-2.22 4.097-5.284 5.645-9.198-5.26-10.3-10.517-21.865-15.775-34.69-5.257-12.826-10.207-27.22-14.843-43.19h24.422a362.273 362.273 0 003.647 13.058 607.221 607.221 0 004.427 14.216 546.36 546.36 0 004.732 13.984 402.792 402.792 0 004.583 12.362 343.398 343.398 0 004.188-12.362 558.782 558.782 0 004.266-13.984c1.396-4.79 2.742-9.527 4.037-14.216a778.498 778.498 0 003.491-13.058h23.816m64.295 41.258c0-7.108-1.6-12.8-4.79-17.074-3.194-4.274-7.935-6.414-14.219-6.414-2.064 0-3.97.077-5.719.232-1.754.154-3.197.335-4.329.542v41.566c1.444.928 3.322 1.7 5.642 2.318 2.317.617 4.659.928 7.035.928 10.92 0 16.38-7.365 16.38-22.098zm23.494-.617c0 6.283-.772 12-2.317 17.151-1.547 5.152-3.813 9.581-6.801 13.29-2.991 3.707-6.7 6.594-11.128 8.651-4.433 2.061-9.536 3.093-15.304 3.093-3.194 0-6.18-.31-8.962-.928a42.968 42.968 0 01-8.039-2.626v30.598H256.6V59.163c2.058-.617 4.43-1.208 7.11-1.775a125.968 125.968 0 018.423-1.469 165.7 165.7 0 018.965-1.003c3.038-.257 5.95-.388 8.73-.388 6.701 0 12.676 1.005 17.933 3.014 5.254 2.008 9.684 4.843 13.293 8.499 3.603 3.657 6.359 8.112 8.266 13.365 1.907 5.255 2.86 11.127 2.86 17.618zm64.292-8.191a23.943 23.943 0 00-1.004-5.718 14.402 14.402 0 00-2.629-4.944c-1.186-1.44-2.679-2.627-4.482-3.554-1.805-.927-4.045-1.39-6.725-1.39-2.574 0-4.79.438-6.646 1.312-1.852.876-3.4 2.037-4.637 3.478-1.237 1.443-2.19 3.117-2.857 5.022a32.842 32.842 0 00-1.469 5.794h30.449zm-54.098 8.808c0-7.21 1.105-13.52 3.325-18.93 2.214-5.408 5.122-9.912 8.73-13.521 3.608-3.605 7.756-6.334 12.442-8.188 4.689-1.856 9.508-2.783 14.453-2.783 11.54 0 20.659 3.531 27.36 10.585 6.696 7.058 10.042 17.438 10.042 31.137a69.4 69.4 0 01-.152 4.404 258.605 258.605 0 01-.309 4.25h-52.242c.516 4.74 2.727 8.5 6.646 11.279 3.916 2.782 9.17 4.172 15.764 4.172a66.63 66.63 0 0012.444-1.158c4.069-.772 7.392-1.724 9.967-2.858l3.092 18.697c-1.235.617-2.885 1.236-4.945 1.854-2.063.618-4.354 1.16-6.877 1.621a110.2 110.2 0 01-8.115 1.161 81.708 81.708 0 01-8.658.464c-7.317 0-13.676-1.083-19.086-3.246-5.409-2.163-9.893-5.124-13.447-8.884-3.557-3.76-6.181-8.214-7.882-13.367-1.7-5.15-2.552-10.713-2.552-16.689z" fill="#1F133A"/><path fill="#2AE095" d="M199.376 264.721l-39.567-31.059v-7.726l39.567-30.905 3.557 9.272-31.533 25.495 31.533 25.497-3.557 9.426m79.754-37.24c0-9.062-2.034-16.248-6.106-21.556-4.071-5.305-9.609-7.958-16.612-7.958-7.01 0-12.55 2.653-16.617 7.958-4.072 5.308-6.107 12.494-6.107 21.556 0 9.066 2.035 16.25 6.107 21.556 4.068 5.306 9.607 7.958 16.617 7.958 7.003 0 12.541-2.652 16.612-7.958 4.072-5.305 6.106-12.49 6.106-21.556zm14.992 0c0 6.388-.925 12.157-2.781 17.308-1.852 5.15-4.456 9.58-7.806 13.288-3.35 3.709-7.342 6.567-11.98 8.576-4.634 2.008-9.684 3.012-15.143 3.012-5.465 0-10.512-1.004-15.15-3.012-4.636-2.01-8.632-4.867-11.978-8.576-3.35-3.709-5.95-8.138-7.806-13.288-1.853-5.15-2.781-10.92-2.781-17.308 0-6.283.928-12.026 2.781-17.23 1.857-5.2 4.455-9.658 7.806-13.367 3.346-3.707 7.342-6.565 11.978-8.575 4.638-2.008 9.685-3.013 15.15-3.013 5.459 0 10.51 1.005 15.143 3.013 4.638 2.01 8.63 4.868 11.98 8.575 3.35 3.71 5.954 8.168 7.806 13.367 1.856 5.204 2.781 10.947 2.781 17.23zm43.569-79.733c4.224 0 7.858.307 10.9.925 3.038.619 5.176 1.186 6.413 1.701l-2.628 12.362c-1.237-.618-2.991-1.21-5.255-1.779-2.269-.563-5.05-.85-8.346-.85-6.699 0-11.387 1.832-14.066 5.487-2.68 3.657-4.019 8.576-4.019 14.757v6.954h30.913v12.051H320.69v68.302h-14.375v-87.616c0-10.3 2.524-18.258 7.573-23.874 5.048-5.613 12.984-8.42 23.803-8.42m70.638 86.069l-39.567 30.904-3.552-9.272 31.528-25.651a840.426 840.426 0 01-15.764-12.671c-5.257-4.325-10.512-8.6-15.764-12.824l3.552-9.272 39.567 30.905v7.88"/><path d="M264.39 321.272a714.825 714.825 0 01-6.57 23.334 928.627 928.627 0 01-7.343 23.333h-17.93c-1.858-4.327-3.875-9.477-6.043-15.453a679.647 679.647 0 01-6.744-19.547 1232.41 1232.41 0 01-7.131-22.406 1066.56 1066.56 0 01-7.053-23.875h24.268c.83 3.71 1.733 7.753 2.719 12.13.986 4.381 2.022 8.887 3.111 13.523a801.1 801.1 0 003.422 13.984 435.584 435.584 0 003.654 13.52 680.143 680.143 0 003.942-13.907c1.287-4.737 2.523-9.4 3.71-13.985a3763.98 3763.98 0 003.4-13.288 423.911 423.911 0 002.856-11.977h16.694c.826 3.71 1.75 7.702 2.784 11.977 1.03 4.274 2.11 8.706 3.245 13.288 1.13 4.585 2.317 9.248 3.553 13.985a462.613 462.613 0 003.865 13.907 683.027 683.027 0 003.73-13.52 511.665 511.665 0 003.502-13.984 1630.73 1630.73 0 003.109-13.523c.986-4.377 1.889-8.42 2.719-12.13h23.959a1051.107 1051.107 0 01-7.056 23.875 1233.12 1233.12 0 01-7.128 22.406c-2.324 7.059-4.598 13.574-6.82 19.547-2.223 5.976-4.265 11.126-6.121 15.453H278.76a3090.24 3090.24 0 01-7.569-23.333 461.372 461.372 0 01-6.802-23.334m120.017-2.162a23.93 23.93 0 00-1.004-5.718 14.388 14.388 0 00-2.629-4.945c-1.186-1.441-2.68-2.626-4.482-3.554-1.806-.926-4.047-1.391-6.726-1.391-2.573 0-4.789.44-6.645 1.312-1.852.878-3.401 2.037-4.637 3.479-1.237 1.442-2.19 3.116-2.857 5.021a32.89 32.89 0 00-1.469 5.795h30.449zm-54.099 8.808c0-7.21 1.105-13.521 3.324-18.932 2.216-5.407 5.124-9.912 8.73-13.52 3.61-3.604 7.757-6.333 12.444-8.188 4.689-1.856 9.508-2.782 14.453-2.782 11.54 0 20.659 3.53 27.36 10.585 6.696 7.056 10.042 17.436 10.042 31.137 0 1.34-.05 2.806-.152 4.404a257.116 257.116 0 01-.309 4.247h-52.242c.516 4.743 2.727 8.5 6.646 11.281 3.916 2.783 9.169 4.172 15.764 4.172a66.63 66.63 0 0012.443-1.158c4.07-.772 7.393-1.723 9.968-2.858l3.092 18.697c-1.235.618-2.885 1.236-4.945 1.853-2.063.62-4.354 1.161-6.877 1.623-2.528.463-5.232.85-8.115 1.16a81.318 81.318 0 01-8.658.464c-7.317 0-13.676-1.082-19.086-3.247-5.409-2.162-9.894-5.124-13.447-8.884-3.557-3.758-6.183-8.214-7.883-13.366-1.7-5.15-2.552-10.714-2.552-16.688zm142.501-1.237c0-14.834-5.46-22.253-16.38-22.253-2.375 0-4.717.31-7.034.928-2.321.62-4.2 1.391-5.642 2.32v41.874c1.13.208 2.574.386 4.33.542a65.3 65.3 0 005.717.23c6.283 0 11.025-2.161 14.22-6.488 3.19-4.328 4.789-10.044 4.789-17.153zm23.494.618c0 6.491-.954 12.363-2.86 17.615-1.907 5.254-4.662 9.736-8.267 13.445-3.607 3.707-8.038 6.566-13.291 8.576-5.257 2.007-11.233 3.012-17.934 3.012-2.78 0-5.692-.13-8.73-.386-3.042-.258-6.03-.594-8.966-1.005a123.98 123.98 0 01-8.422-1.467c-2.68-.565-5.05-1.158-7.11-1.777V251.737l23.03-3.709v40.486a43.14 43.14 0 018.037-2.628c2.782-.618 5.77-.927 8.963-.927 5.77 0 10.87 1.005 15.305 3.013 4.427 2.01 8.135 4.868 11.126 8.577 2.988 3.707 5.254 8.166 6.802 13.365 1.544 5.204 2.317 11 2.317 17.385z" fill="#1F133A"/></g></g></svg>