<svg width="600" height="400" xmlns="http://www.w3.org/2000/svg"><g fill="none"><path fill="#FFF" d="M0 0h600v400H0z"/><path d="M129.1 59.554l19.773-3.184v20.56h23.752v16.45h-23.752v24.539c0 4.157.728 7.475 2.188 9.947 1.461 2.478 4.403 3.714 8.826 3.714a37.75 37.75 0 006.568-.595c2.257-.399 4.315-.95 6.17-1.658l2.79 15.386c-2.39.973-5.043 1.814-7.964 2.52-2.92.707-6.503 1.06-10.749 1.06-5.397 0-9.864-.728-13.403-2.187-3.54-1.46-6.37-3.491-8.494-6.103-2.123-2.605-3.604-5.768-4.445-9.483-.842-3.714-1.26-7.826-1.26-12.336v-58.63M252.114 76.93c-3.99 13.444-8.16 26.045-12.505 37.804a452.432 452.432 0 01-14.238 34.22c-1.862 3.984-3.72 7.367-5.581 10.152-1.862 2.784-3.9 5.084-6.114 6.898a21.616 21.616 0 01-7.51 3.98c-2.792.837-6.044 1.26-9.764 1.26-3.104 0-5.962-.29-8.577-.865-2.611-.575-4.758-1.216-6.443-1.922l3.452-15.786c2.036.707 3.848 1.195 5.442 1.459 1.594.268 3.274.399 5.045.399 3.54 0 6.26-.952 8.166-2.85 1.902-1.906 3.518-4.536 4.846-7.895-4.516-8.843-9.03-18.77-13.544-29.779-4.513-11.01-8.763-23.365-12.744-37.075h20.969a310.927 310.927 0 003.131 11.21 521.164 521.164 0 003.801 12.203 468.932 468.932 0 004.063 12.004 345.713 345.713 0 003.934 10.612 294.733 294.733 0 003.596-10.612 479.588 479.588 0 003.663-12.004 898.07 898.07 0 003.466-12.204 668.15 668.15 0 002.998-11.209h20.448m55.202 35.417c0-6.102-1.373-10.987-4.112-14.657-2.742-3.669-6.814-5.505-12.208-5.505-1.773 0-3.41.066-4.91.198-1.507.133-2.746.289-3.717.466v35.68c1.239.797 2.852 1.46 4.844 1.99 1.989.53 4 .796 6.04.796 9.375 0 14.063-6.321 14.063-18.968zm20.172-.53c0 5.394-.663 10.302-1.99 14.723-1.328 4.422-3.274 8.224-5.839 11.408-2.568 3.182-5.753 5.66-9.554 7.426-3.806 1.77-8.187 2.655-13.14 2.655-2.742 0-5.306-.266-7.695-.797a36.897 36.897 0 01-6.901-2.254v26.266h-19.773V79.317c1.767-.53 3.804-1.037 6.104-1.524 2.3-.485 4.71-.905 7.232-1.26 2.52-.353 5.086-.641 7.698-.862a89.369 89.369 0 017.496-.333c5.753 0 10.882.863 15.396 2.588 4.511 1.723 8.315 4.157 11.413 7.295 3.093 3.139 5.46 6.964 7.097 11.473 1.637 4.51 2.456 9.55 2.456 15.123zm55.2-7.031a20.549 20.549 0 00-.862-4.909 12.362 12.362 0 00-2.257-4.244c-1.019-1.236-2.3-2.254-3.848-3.05-1.55-.796-3.473-1.194-5.775-1.194-2.21 0-4.112.376-5.706 1.127-1.59.752-2.92 1.749-3.98 2.985-1.062 1.239-1.881 2.676-2.454 4.311a28.187 28.187 0 00-1.26 4.974h26.142zm-46.448 7.561c0-6.189.949-11.605 2.855-16.25 1.901-4.643 4.398-8.508 7.496-11.606 3.097-3.095 6.658-5.437 10.682-7.03 4.026-1.592 8.163-2.388 12.41-2.388 9.908 0 17.737 3.031 23.49 9.086 5.75 6.06 8.622 14.97 8.622 26.729 0 1.15-.043 2.41-.13 3.78-.09 1.373-.177 2.586-.265 3.648h-44.855c.443 4.069 2.341 7.296 5.706 9.682 3.363 2.388 7.874 3.581 13.535 3.581 3.628 0 7.189-.331 10.684-.994 3.494-.663 6.347-1.48 8.558-2.453l2.655 16.05c-1.061.53-2.478 1.061-4.246 1.591-1.771.53-3.739.996-5.905 1.392-2.17.399-4.492.73-6.967.997a70.168 70.168 0 01-7.434.397c-6.282 0-11.742-.929-16.387-2.786-4.643-1.857-8.494-4.398-11.545-7.626-3.054-3.227-5.307-7.05-6.767-11.475-1.46-4.42-2.192-9.195-2.192-14.325z" fill="#1F133A"/><path fill="#2AE095" d="M213.464 255.77l-33.971-26.662v-6.632l33.971-26.529 3.054 7.96-27.074 21.884 27.074 21.887-3.054 8.091m68.476-31.966c0-7.78-1.747-13.948-5.243-18.505-3.495-4.553-8.25-6.831-14.263-6.831-6.018 0-10.774 2.278-14.267 6.831-3.496 4.557-5.243 10.725-5.243 18.505 0 7.782 1.747 13.949 5.243 18.503 3.493 4.555 8.249 6.83 14.267 6.83 6.013 0 10.768-2.275 14.263-6.83 3.496-4.554 5.243-10.721 5.243-18.503zm12.872 0c0 5.482-.794 10.435-2.388 14.856-1.59 4.422-3.826 8.223-6.702 11.407-2.877 3.184-6.304 5.637-10.286 7.362-3.978 1.724-8.315 2.585-13.002 2.585-4.692 0-9.025-.861-13.007-2.585-3.98-1.725-7.412-4.178-10.284-7.362-2.877-3.184-5.108-6.985-6.702-11.407-1.591-4.42-2.388-9.374-2.388-14.856 0-5.394.797-10.324 2.388-14.79 1.594-4.464 3.825-8.291 6.702-11.475 2.872-3.182 6.304-5.636 10.284-7.362 3.982-1.723 8.315-2.585 13.007-2.585 4.687 0 9.024.862 13.002 2.585 3.982 1.726 7.41 4.18 10.286 7.362 2.876 3.184 5.112 7.01 6.702 11.474 1.594 4.467 2.388 9.397 2.388 14.79zm37.408-68.444c3.626 0 6.746.263 9.357.794 2.61.531 4.445 1.018 5.507 1.46l-2.256 10.612c-1.063-.53-2.568-1.04-4.512-1.527-1.948-.483-4.336-.73-7.165-.73-5.752 0-9.778 1.572-12.078 4.71-2.301 3.14-3.45 7.361-3.45 12.667v5.97h26.542v10.345h-26.542v58.63H305.28v-75.21c0-8.841 2.168-15.672 6.503-20.494 4.334-4.817 11.148-7.227 20.437-7.227m60.648 73.881l-33.971 26.53-3.05-7.96 27.07-22.02a721.556 721.556 0 01-13.536-10.876 1565.115 1565.115 0 00-13.534-11.007l3.05-7.96 33.971 26.529v6.765"/><path d="M269.284 304.313a613.51 613.51 0 01-5.641 20.03 797.024 797.024 0 01-6.304 20.029h-15.394c-1.596-3.714-3.328-8.135-5.19-13.265a583.332 583.332 0 01-5.79-16.779 1057.75 1057.75 0 01-6.122-19.233 915.396 915.396 0 01-6.056-20.495h20.836c.713 3.185 1.488 6.655 2.335 10.413.847 3.76 1.737 7.629 2.671 11.608.936 3.977 1.914 7.98 2.938 12.004a373.846 373.846 0 003.138 11.606 581.55 581.55 0 003.384-11.939 1018.76 1018.76 0 003.185-12.004c1.014-3.933 1.99-7.737 2.92-11.407a365.613 365.613 0 002.452-10.281h14.333a577.938 577.938 0 002.39 10.281c.884 3.67 1.812 7.474 2.787 11.407a906.06 906.06 0 003.05 12.004 397.114 397.114 0 003.319 11.939 586.22 586.22 0 003.203-11.606 439.141 439.141 0 003.006-12.004c.93-3.98 1.822-7.847 2.669-11.608a6976.98 6976.98 0 002.334-10.413h20.571a902.138 902.138 0 01-6.058 20.495 1058.357 1058.357 0 01-6.12 19.233 469.53 469.53 0 01-5.855 16.78c-1.909 5.129-3.662 9.55-5.256 13.264h-15.396a2652.26 2652.26 0 01-6.5-20.029 395.98 395.98 0 01-5.84-20.03m103.045-1.856a20.538 20.538 0 00-.862-4.909 12.35 12.35 0 00-2.257-4.244c-1.018-1.237-2.301-2.254-3.848-3.05-1.55-.796-3.474-1.195-5.775-1.195-2.21 0-4.112.377-5.705 1.127-1.59.753-2.92 1.748-3.981 2.986-1.062 1.237-1.881 2.675-2.453 4.31a28.229 28.229 0 00-1.262 4.975h26.143zm-46.448 7.561c0-6.189.949-11.607 2.854-16.25 1.902-4.643 4.399-8.51 7.496-11.606 3.098-3.095 6.66-5.437 10.684-7.03 4.025-1.592 8.163-2.388 12.408-2.388 9.909 0 17.738 3.031 23.491 9.086 5.75 6.058 8.622 14.968 8.622 26.729 0 1.15-.043 2.409-.13 3.78-.09 1.373-.177 2.586-.265 3.646h-44.855c.443 4.071 2.342 7.297 5.706 9.684 3.363 2.388 7.873 3.581 13.535 3.581 3.628 0 7.189-.331 10.684-.994 3.494-.663 6.347-1.48 8.558-2.453l2.655 16.05c-1.061.53-2.478 1.06-4.246 1.59-1.771.531-3.739.997-5.905 1.393-2.17.398-4.492.729-6.967.995a69.833 69.833 0 01-7.433.4c-6.283 0-11.743-.93-16.388-2.788-4.643-1.856-8.494-4.398-11.545-7.627-3.054-3.225-5.308-7.05-6.768-11.473-1.46-4.42-2.19-9.196-2.19-14.325zm122.349-1.062c0-12.733-4.689-19.102-14.064-19.102-2.039 0-4.05.267-6.039.797-1.993.531-3.606 1.194-4.844 1.99v35.946c.97.179 2.21.332 3.717.466 1.5.132 3.138.197 4.909.197 5.395 0 9.466-1.855 12.209-5.57 2.739-3.714 4.112-8.621 4.112-14.724zm20.171.53c0 5.573-.818 10.613-2.455 15.121-1.638 4.51-4.003 8.358-7.097 11.542-3.098 3.182-6.902 5.636-11.412 7.361-4.514 1.724-9.645 2.586-15.398 2.586a89.7 89.7 0 01-7.496-.331 142.32 142.32 0 01-7.698-.863c-2.522-.354-4.93-.772-7.23-1.259-2.302-.486-4.337-.994-6.105-1.526v-97.493l19.773-3.184v34.753a37.045 37.045 0 016.9-2.256c2.39-.53 4.955-.795 7.696-.795 4.954 0 9.333.863 13.14 2.586 3.802 1.726 6.986 4.179 9.553 7.363 2.566 3.182 4.512 7.01 5.84 11.473 1.326 4.467 1.99 9.441 1.99 14.923z" fill="#1F133A"/></g></svg>