<svg width="600" height="400" xmlns="http://www.w3.org/2000/svg" xmlns:xlink="http://www.w3.org/1999/xlink"><defs><path id="a" d="M0 0h548.11v241.85H0z"/></defs><g fill="none" fill-rule="evenodd"><path fill="#FFF" fill-rule="nonzero" d="M0 0h600v400H0z"/><path fill="#FFF" fill-rule="nonzero" d="M26 79v89.375l33.967 33.645v85.207l33.945 33.623H574.11v-89.053l-33.644-33.945h-67.912v-85.207L438.607 79z"/><path d="M93.59 314.77l-4.49-4.49-23.375-23.376H536.94l26.276 26.276 3.201 3.2-470.895.323-1.933-1.933zm446.875-30.422v-80.416l23.396 23.31 4.47 4.469 1.933 1.934v80.072h-.323l-29.476-29.37zM64.113 202.342h471.883v80.76H64.113v-80.76zm0-85.229H468.02v80.739H64.113v-80.739zm-27.543 55.43l-4.49-4.49-1.912-1.912V86.369l29.477 29.477v79.75L36.57 172.543zm0-86.174l-3.2-3.201h403.304v.322l29.476 29.477H62.846L36.57 86.369zM26 79v89.375l33.967 33.645v85.207l33.945 33.623H574.11v-89.053l-33.644-33.945h-67.912v-85.207L438.607 79H26z" fill="#273580" fill-rule="nonzero"/><g transform="translate(26 79)"><mask id="b" fill="#fff"><use xlink:href="#a"/></mask><g mask="url(#b)" fill="#273580" fill-rule="nonzero"><path d="M80.094 145.105h-11.86v38.135h6.725v-12.504h5.135a9.367 9.367 0 009.603-9.28v-7.37a9.324 9.324 0 00-9.603-8.98zm2.879 16.995a2.836 2.836 0 01-2.88 2.556h-4.898V151.53h4.813a2.814 2.814 0 012.879 2.557l.086 8.014zm35.879-.967v-6.725a9.389 9.389 0 00-9.625-9.303H97.389v38.135h6.724v-12.89h3.846l5.436 12.89h7.369l-6.446-14.094a9.56 9.56 0 004.534-8.013zm-6.725 0a2.814 2.814 0 01-2.9 2.556h-5.114v-12.482h5.114a2.814 2.814 0 012.9 2.557v7.369zm26.898-16.651a11.28 11.28 0 00-11.537 11.516v16.35a11.494 11.494 0 0011.537 11.537 11.3 11.3 0 0011.537-11.537v-16.35a11.086 11.086 0 00-11.537-11.516zm5.135 28.188a4.812 4.812 0 11-9.625 0v-16.994a4.92 4.92 0 014.813-4.791 4.727 4.727 0 014.812 4.79v16.995zm26.899-3.846h4.812v4.49a4.855 4.855 0 01-9.603 0v-18.627a4.598 4.598 0 014.79-4.167 4.791 4.791 0 014.813 5.134h6.746a10.957 10.957 0 00-11.537-11.215c-6.096-.242-11.247 4.477-11.537 10.57v17.94a11.58 11.58 0 0023.074 0v-10.527h-11.236l-.322 6.402zm41.636-7.691v-6.725a9.389 9.389 0 00-9.625-9.303h-11.86v38.135h6.726v-12.89h3.845l5.436 12.89h7.412l-6.445-14.094a10.398 10.398 0 004.511-8.013zm-7.047 0a2.814 2.814 0 01-2.9 2.556h-5.092v-12.482h5.114a2.814 2.814 0 012.9 2.557l-.022 7.369zm21.786-16.028l-6.446 21.485v16.672h6.446v-11.237h9.947v11.215h6.445v-16.672l-6.08-21.484-10.312.021zm.644 20.518l3.953-14.094h.967l3.846 14.094h-8.766zm38.758-5.135l-7.047-15.383h-7.047v38.135h6.446v-13.77c0-7.692-.645-14.739-.645-14.739l5.436 12.16h5.457l5.414-12.203s-.323 7.047-.323 14.739v13.771h6.446v-38.092h-7.069l-7.068 15.383zm34.934-16.006a11.28 11.28 0 00-11.538 11.516v16.35a11.494 11.494 0 0011.538 11.537 11.086 11.086 0 0011.515-11.537v-16.35a11.451 11.451 0 00-11.515-11.516zm4.79 28.188a4.812 4.812 0 01-9.603 0v-16.994a4.92 4.92 0 014.813-4.791 4.705 4.705 0 014.79 4.79v16.995zm40.047-11.537l-1.267 14.416h-.645l-3.222-14.738h-7.67l-3.201 14.738h-.645l-.967-14.416v-16.006h-7.047v16.328l2.88 21.785h9.603l3.222-16.972 3.202 16.972h9.603l2.879-21.785v-16.328h-6.725zm21.786-16.028l-6.08 21.485v16.672h6.445v-11.237h9.926v11.215h6.445v-16.672l-6.08-21.484-10.656.021zm.966 20.518l3.846-14.094h.945l3.846 14.094h-8.637zm41.315-8.658c0 6.445.322 12.89.322 12.89l-10.892-24.685h-6.446v38.07h6.08v-12.18c0-5.758-.322-12.483-.322-12.483l10.936 24.664h6.445v-38.135h-6.102l-.021 11.86zm41.336-11.86h-7.37l-11.536 17.317v-17.317h-6.725v38.135h6.725v-19.55l11.859 19.55h7.992l-12.805-20.195zm16.65-.623a11.28 11.28 0 00-11.537 11.516v16.35a11.494 11.494 0 0011.537 11.537 11.3 11.3 0 0011.537-11.537v-16.35a11.28 11.28 0 00-11.537-11.516zm5.135 28.188a4.812 4.812 0 11-9.625 0v-16.994a4.92 4.92 0 014.812-4.791 4.727 4.727 0 014.813 4.79v16.995zM79.771 98.033A11.043 11.043 0 0091.31 86.818V59.254h-6.747v27.93a4.447 4.447 0 01-4.79 4.468 4.533 4.533 0 01-4.813-4.79v-27.93h-6.725v27.564a10.936 10.936 0 0011.537 11.537m31.066 0c6.124.28 11.322-4.447 11.623-10.57 0-12.504-16.027-12.182-16.027-18.262a4.082 4.082 0 014.49-3.846 4.297 4.297 0 014.168 4.791h6.724a10.742 10.742 0 00-10.892-11.214 10.742 10.742 0 00-11.215 10.591c0 11.838 15.705 10.57 15.705 18.24a4.426 4.426 0 01-4.812 4.169 4.64 4.64 0 01-4.813-4.47v-1.525h-6.445v1.612a10.914 10.914 0 0011.537 10.57m39.681-6.832h-14.416l14.416-25.61v-6.1h-21.785v6.1h13.772l-14.738 25.61v6.102h22.751zm13.772-5.113h9.926v11.215h6.445V80.717l-6.101-21.485h-10.27l-6.08 21.485v16.672h6.445l-.365-11.215zm4.49-20.496h.903l3.824 14.093h-8.594l3.867-14.093zm26.899 19.852c0-5.759-.215-12.483-.215-12.483L206.25 97.71h6.445V59.576h-6.08v11.86c0 6.445.322 12.89.322 12.89l-10.892-24.75H189.6v38.135h6.123V85.529zm37.49 12.503a11.107 11.107 0 0011.537-11.537v-16.35c-.089-6.371-5.326-11.464-11.698-11.375-6.372.088-11.465 5.326-11.376 11.698v16.027a11.107 11.107 0 0011.537 11.537zM228.4 69.824a4.92 4.92 0 014.813-4.79 4.705 4.705 0 014.79 4.79v16.994a4.813 4.813 0 01-9.603 0V69.824zm37.813 27.565l3.201-16.65 3.201 16.65h9.604l2.879-21.463v-16.35h-7.047v15.705l-.946 14.416h-.644l-3.201-14.416h-7.692l-3.2 14.416h-.645l-1.29-14.416V59.576h-6.724v16.35l2.879 21.463zm33.945-11.215h9.926v11.215h6.445V80.717l-6.101-21.485H300.18l-6.08 21.485v16.672h6.445l-.387-11.215zm4.49-20.496h.967l3.76 14.093h-8.594l3.867-14.093zm26.899 19.852c0-5.759-.322-12.483-.322-12.483l10.892 24.664h6.445V59.576h-6.101v11.86c0 6.445.322 12.89.322 12.89l-10.892-24.685h-6.446v38.07h6.08l.022-12.182zm33.323-7.692l11.536 19.55h8.014l-12.826-19.872 11.86-17.94h-7.37l-11.215 17.295V59.576h-7.047V97.39h7.047zm35.234 20.195a11.107 11.107 0 0011.537-11.537v-16.35c-.09-6.371-5.327-11.464-11.699-11.375-6.371.088-11.465 5.326-11.376 11.698v16.027a11.3 11.3 0 0011.538 11.537zm-4.791-28.209a4.92 4.92 0 014.79-4.79 4.727 4.727 0 014.813 4.79v16.994a4.813 4.813 0 01-9.603 0V69.824z"/></g></g></g></svg>