<svg width="600" height="400" xmlns="http://www.w3.org/2000/svg"><g fill="none" fill-rule="evenodd"><path fill="#FFF" d="M0 0h600v400H0z"/><path d="M164.004 225.823c-.21.625-.629 1.146-1.047 1.668-.943.937-2.094 1.458-3.35 1.458-1.257 0-2.408-.52-3.35-1.458a4.077 4.077 0 0 1-1.048-1.668l-18.635-37.099c-.523-.833-.838-1.667-.838-2.71 0-1.25.42-2.396 1.361-3.334.943-.938 2.094-1.355 3.35-1.355 1.362 0 2.513.417 3.35 1.355.315.313.524.625.734 1.042l14.866 29.7 14.971-29.7c.21-.417.524-.73.838-1.042.942-.938 1.989-1.355 3.35-1.355s2.513.417 3.35 1.355c.942.938 1.361 2.084 1.361 3.335 0 1.042-.314 1.98-.942 2.71l-18.321 37.098zm61.559-37.411c4.607 4.585 7.015 10.212 7.015 16.777 0 6.566-2.304 12.193-7.015 16.778-4.606 4.586-10.26 6.982-16.855 6.982-6.596 0-12.25-2.292-16.856-6.982-4.607-4.585-7.014-10.212-7.014-16.778 0-6.565 2.303-12.192 7.014-16.777 4.606-4.586 10.26-6.983 16.856-6.983 6.595 0 12.249 2.293 16.855 6.983zm-16.855 2.605c-3.874 0-7.224 1.355-10.051 4.064-2.722 2.71-4.188 6.044-4.188 10.004s1.361 7.19 4.188 10.004c2.722 2.71 6.072 4.169 10.05 4.169 3.874 0 7.224-1.355 10.051-4.169 2.722-2.709 4.083-6.044 4.083-10.004s-1.36-7.19-4.083-10.004c-2.827-2.71-6.177-4.064-10.05-4.064zm128.458-2.605c.942.937 1.466 2.084 1.466 3.439 0 1.25-.419 2.396-1.361 3.334-.942.938-2.094 1.355-3.35 1.355-1.361 0-2.513-.521-3.35-1.459-2.723-2.71-6.073-4.064-9.946-4.064-3.874 0-7.224 1.355-10.051 4.064-2.722 2.71-4.188 6.044-4.188 10.004s1.361 7.19 4.188 10.004c2.722 2.71 6.072 4.169 10.05 4.169 3.874 0 7.224-1.355 9.946-4.064l.105-.105c.942-.937 2.094-1.354 3.35-1.354 1.361 0 2.513.417 3.455 1.354.942.938 1.466 2.085 1.466 3.44 0 1.354-.524 2.5-1.466 3.438l-.105.105c-4.606 4.585-10.26 6.877-16.855 6.877-6.596 0-12.25-2.292-16.856-6.982-4.606-4.585-7.014-10.212-7.014-16.778 0-6.565 2.303-12.192 7.014-16.777 4.607-4.586 10.26-6.983 16.856-6.983 6.386 0 12.04 2.293 16.646 6.983zm9.318-16.257c0-1.355.523-2.501 1.465-3.44.943-.937 2.094-1.458 3.455-1.458 1.361 0 2.513.52 3.455 1.459.942.938 1.466 2.084 1.466 3.439v13.756c3.874-2.814 8.48-4.377 13.82-4.69h.732c6.7.417 12.25 2.71 16.542 7.086 4.606 4.586 6.91 10.109 7.014 16.57v19.279c0 1.563-.523 2.71-1.465 3.439-.943.833-2.094 1.146-3.455 1.146-1.361 0-2.513-.417-3.455-1.146-.942-.834-1.466-1.876-1.466-3.335v-20.113c-.21-3.439-1.57-6.46-4.083-8.962-2.722-2.71-6.072-4.168-10.05-4.168h-.21c-3.874 0-7.224 1.355-10.05 4.168-2.408 2.397-3.77 5.107-4.083 8.337v20.738c0 1.459-.524 2.605-1.466 3.335-.942.833-2.094 1.146-3.455 1.146-1.361 0-2.513-.417-3.455-1.146-.942-.834-1.466-1.98-1.466-3.44v-52h.21zm84.592 20.112c-1.78-.833-3.664-1.146-5.758-1.146-3.874 0-7.224 1.355-10.05 4.064-2.723 2.71-4.189 6.044-4.189 10.004s1.361 7.191 4.188 10.005c2.722 2.71 6.072 4.168 10.05 4.168 3.874 0 7.225-1.355 9.947-4.064l.104-.104c.942-.938 2.094-1.355 3.35-1.355 1.257 0 2.513.417 3.455 1.355.943.938 1.466 2.084 1.466 3.439 0 1.354-.523 2.5-1.466 3.439l-.104.104c-4.607 4.585-10.26 6.878-16.856 6.878-6.596 0-12.25-2.293-16.856-6.982-4.606-4.586-7.014-10.213-7.014-16.778 0-6.566 2.303-12.193 7.014-16.778 4.607-4.585 10.26-6.982 16.856-6.982 6.596 0 12.25 2.292 16.856 6.878.942.937 1.36 2.084 1.36 3.334s-.418 2.397-1.36 3.335l-13.715 13.547c-.942.938-2.094 1.355-3.455 1.355-1.361 0-2.513-.417-3.455-1.355-.942-.937-1.361-2.084-1.361-3.439 0-1.354.419-2.5 1.361-3.438l9.632-9.484zm44.285-10.942c1.361 0 2.513.521 3.455 1.46.942.937 1.466 2.083 1.466 3.438s-.524 2.501-1.466 3.44c-.942.937-2.094 1.458-3.455 1.458-3.874 0-7.224 1.355-10.05 4.168-2.513 2.502-3.874 5.524-4.084 8.963v19.174c0 1.772-.523 3.127-1.465 4.065-.943.937-2.094 1.458-3.455 1.458-1.361 0-2.513-.52-3.455-1.458-.942-.938-1.466-2.397-1.466-4.169v-18.445c.105-6.461 2.408-11.984 7.015-16.57 4.397-4.272 10.05-6.67 16.96-6.982zm16.751-4.689c-1.361 0-2.513-.521-3.455-1.46-.942-.937-1.466-2.083-1.466-3.438s.524-2.501 1.466-3.44c.942-.937 2.094-1.458 3.455-1.458 1.36 0 2.513.521 3.455 1.459.942.938 1.465 2.084 1.465 3.439s-.523 2.5-1.465 3.439c-.942 1.042-2.094 1.459-3.455 1.459zm0 52.21c-1.361 0-2.513-.522-3.455-1.46-.942-.938-1.466-2.084-1.466-3.439v-37.932c0-1.355.524-2.501 1.466-3.44.942-.937 2.094-1.458 3.455-1.458 1.36 0 2.513.52 3.455 1.459.942.938 1.465 2.084 1.465 3.439v38.037c0 1.354-.523 2.5-1.465 3.439-.942.937-2.094 1.354-3.455 1.354zm23.242-47.625v-7.086c0-3.23 1.151-6.044 3.455-8.441 2.303-2.293 5.13-3.543 8.48-3.543 1.256 0 2.408.416 3.35 1.354.942.938 1.361 2.084 1.361 3.335 0 1.25-.419 2.397-1.361 3.335-.942.938-2.094 1.354-3.35 1.354-.628 0-1.257.209-1.675.73-.42.521-.733 1.042-.733 1.667v7.295h5.444c1.36 0 2.513.521 3.455 1.459.942.938 1.465 2.084 1.465 3.439s-.523 2.501-1.465 3.439c-.942.938-2.094 1.459-3.455 1.459h-5.235v33.139c0 1.355-.523 2.5-1.465 3.439-.943.938-2.094 1.459-3.455 1.459-1.361 0-2.513-.521-3.455-1.46-.942-.937-1.466-2.083-1.466-3.438v-33.243h-5.444c-1.361 0-2.513-.521-3.455-1.46-.942-.937-1.466-2.084-1.466-3.438 0-1.355.524-2.501 1.466-3.44.942-.937 2.094-1.458 3.455-1.458h5.549v.104zm26.801 7.191c-.419-.73-.523-1.46-.523-2.293 0-1.355.419-2.501 1.36-3.335.943-.938 2.095-1.355 3.351-1.355 1.256 0 2.408.417 3.35 1.355a3.82 3.82 0 0 1 1.047 1.772l14.657 29.075 14.552-29.075c.21-.625.629-1.25 1.152-1.772.942-.938 2.094-1.355 3.35-1.355 1.257 0 2.408.417 3.35 1.355.943.938 1.361 2.084 1.361 3.335 0 .73-.209 1.459-.523 2.084l-28.267 56.586a6.846 6.846 0 0 1-1.256 1.772c-.943.938-2.094 1.459-3.35 1.459-1.362 0-2.513-.417-3.35-1.355-.943-.938-1.362-2.084-1.362-3.334 0-1.043.21-1.98.628-2.71l8.376-16.257-17.903-35.952zm-278.588 40.433c-6.805-.417-12.354-2.71-16.751-7.086-4.607-4.585-7.015-11.463-7.015-18.028v-1.251c0-1.876.524-3.23 1.466-4.273.942-.938 2.094-1.459 3.455-1.459 1.361 0 2.513.521 3.455 1.46.942.937 1.466 2.292 1.466 4.168v2.084c.209 3.543 1.57 7.816 4.187 10.317 2.827 2.814 6.177 4.168 10.156 4.168h.209c3.978 0 7.328-1.354 10.155-4.168 2.618-2.501 3.979-6.774 4.188-10.317v-2.084c0-1.772.523-3.127 1.466-4.169.942-.938 2.093-1.459 3.454-1.459 1.361 0 2.513.521 3.455 1.46.943.937 1.466 2.396 1.466 4.272v1.25c-.105 6.566-2.408 13.34-7.014 18.029-4.397 4.377-9.946 6.774-16.751 7.086h-1.047zM51.25 157.982c4.71 4.69 7.014 10.317 7.014 16.986 0 6.67-2.304 12.297-7.015 16.987-4.711 4.69-10.365 6.982-17.065 6.982-6.7 0-12.354-2.293-17.065-6.982C12.303 187.369 10 181.638 10 175.073c0-6.566 2.303-12.401 7.014-17.09 4.712-4.69 10.47-6.983 17.17-6.983 6.596 0 12.354 2.293 17.065 6.982zm-17.066 2.71c-3.978 0-7.328 1.354-10.155 4.168-2.827 2.814-4.188 6.148-4.188 10.108 0 3.96 1.361 7.295 4.188 10.109s6.177 4.168 10.155 4.168c3.978 0 7.329-1.354 10.155-4.168 2.827-2.814 4.188-6.149 4.188-10.109s-1.36-7.294-4.188-10.108c-2.826-2.71-6.177-4.168-10.155-4.168zm53.394 88.37c-6.805-.417-12.354-2.71-16.751-7.086-4.607-4.585-7.015-11.463-7.015-18.029v-1.25c0-1.876.524-3.23 1.466-4.273.942-.938 2.094-1.459 3.455-1.459 1.36 0 2.512.521 3.455 1.46.942.937 1.465 2.292 1.465 4.168v2.084c.21 3.543 1.57 7.816 4.188 10.317 2.827 2.813 6.177 4.168 10.155 4.168h.21c3.978 0 7.328-1.355 10.155-4.168 2.617-2.501 3.978-6.774 4.188-10.317v-2.084c0-1.772.523-3.127 1.465-4.169.943-.938 2.094-1.459 3.455-1.459 1.361 0 2.513.521 3.455 1.46.942.937 1.466 2.396 1.466 4.272v1.25c-.105 6.566-2.408 13.34-7.015 18.029-4.397 4.377-9.945 6.773-16.75 7.086h-1.047zm-63.968-3.647c-1.256 0-2.513-.521-3.56-1.46-1.989-1.98-1.989-5.106 0-6.981l79.986-79.513c1.99-1.98 5.13-1.98 7.015 0 1.989 1.98 1.989 5.106 0 6.982L27.17 243.956c-.943.938-2.304 1.459-3.56 1.459z" fill="#231F20" fill-rule="nonzero"/></g></svg>