<svg width="600" height="400" xmlns="http://www.w3.org/2000/svg"><g fill="none" fill-rule="evenodd"><path fill="#FFF" d="M0 0h600v400H0z"/><path d="M10.046 153H589.09v93.329H10.046z"/><path d="M392.557 167.464c-4.408-4.938-10.636-7.407-18.685-7.407-6.644 0-11.483 1.267-14.517 3.799-3.035 2.533-4.552 5.948-4.552 10.245 0 2.18.383 3.991 1.15 5.435.767 1.442 1.964 2.677 3.593 3.703 1.63 1.026 3.69 1.892 6.181 2.597 2.491.706 5.494 1.442 9.007 2.213 3.641.769 6.948 1.619 9.918 2.548 2.97.93 5.494 2.1 7.57 3.512 2.076 1.41 3.673 3.142 4.79 5.194 1.119 2.051 1.678 4.585 1.678 7.598 0 3.015-.59 5.644-1.773 7.889-1.182 2.244-2.842 4.12-4.983 5.626-2.14 1.507-4.695 2.646-7.666 3.415-2.97.77-6.276 1.155-9.917 1.155-10.605 0-19.58-3.4-26.927-10.196l2.588-3.945c2.875 3.014 6.388 5.404 10.54 7.167 4.153 1.763 8.816 2.645 13.99 2.645 5.941 0 10.589-1.09 13.943-3.27 3.354-2.181 5.03-5.484 5.03-9.908 0-2.245-.446-4.153-1.34-5.724-.895-1.57-2.22-2.933-3.978-4.088-1.756-1.154-3.977-2.148-6.66-2.982-2.683-.833-5.812-1.634-9.39-2.405-3.641-.769-6.852-1.586-9.63-2.452-2.779-.866-5.11-1.956-6.996-3.271-1.884-1.314-3.305-2.901-4.263-4.761-.959-1.86-1.437-4.2-1.437-7.022 0-3.078.59-5.804 1.772-8.176a17.258 17.258 0 0 1 4.935-6.012c2.108-1.635 4.63-2.87 7.57-3.703 2.938-.834 6.197-1.251 9.774-1.251 4.408 0 8.336.657 11.786 1.972 3.45 1.315 6.58 3.319 9.39 6.012l-2.49 3.848zm13.128 56.944v-50.02h4.791v50.02h-4.79zm0-61.37v-8.849h4.791v8.85h-4.79zm36.125 62.14c-3.449 0-6.612-.722-9.486-2.164a23.827 23.827 0 0 1-7.426-5.772c-2.077-2.404-3.706-5.146-4.888-8.224a26.35 26.35 0 0 1-1.772-9.523c0-3.399.559-6.669 1.677-9.811 1.118-3.142 2.7-5.916 4.743-8.32a22.855 22.855 0 0 1 7.33-5.724c2.843-1.411 5.989-2.116 9.44-2.116 4.343 0 8.128 1.138 11.354 3.414a32.657 32.657 0 0 1 8.193 8.321v-10.87h4.408v50.981c0 3.399-.64 6.38-1.917 8.946-1.277 2.565-2.987 4.697-5.126 6.397-2.14 1.7-4.631 2.982-7.474 3.847-2.843.866-5.83 1.299-8.96 1.299-2.874 0-5.462-.273-7.762-.818-2.3-.544-4.327-1.315-6.084-2.308a20.15 20.15 0 0 1-4.696-3.656 26.174 26.174 0 0 1-3.593-4.761l3.258-2.212c1.98 3.398 4.664 5.884 8.05 7.455 3.384 1.57 6.994 2.356 10.827 2.356 2.555 0 4.967-.353 7.234-1.059 2.269-.705 4.249-1.746 5.942-3.126 1.693-1.378 3.034-3.094 4.024-5.146.99-2.051 1.485-4.456 1.485-7.214v-10.966c-2.044 3.27-4.758 5.884-8.145 7.84-3.385 1.956-6.931 2.934-10.636 2.934zm1.15-4.136c2.108 0 4.169-.401 6.18-1.203a21.82 21.82 0 0 0 5.463-3.126c1.628-1.283 2.97-2.725 4.025-4.328 1.054-1.604 1.708-3.207 1.963-4.81v-16.448a21.632 21.632 0 0 0-3.066-5.34 20.708 20.708 0 0 0-4.36-4.183 21.67 21.67 0 0 0-5.27-2.742 16.837 16.837 0 0 0-5.701-1.01c-3.003 0-5.686.641-8.05 1.924-2.364 1.282-4.36 2.95-5.989 5.002-1.628 2.051-2.874 4.377-3.737 6.974-.862 2.596-1.294 5.21-1.294 7.84 0 2.885.512 5.61 1.534 8.175 1.022 2.565 2.428 4.842 4.216 6.83a19.938 19.938 0 0 0 6.324 4.713c2.428 1.154 5.015 1.732 7.762 1.732zm71.388 3.366h-4.791v-27.895c0-6.477-.91-11.19-2.731-14.14-1.82-2.95-4.71-4.425-8.671-4.425-2.11 0-4.2.385-6.277 1.154a21.247 21.247 0 0 0-5.797 3.271 23.804 23.804 0 0 0-4.696 4.954 20.433 20.433 0 0 0-2.97 6.108v30.973h-4.791v-50.02h4.503v11.93a23.546 23.546 0 0 1 3.785-5.244 23.934 23.934 0 0 1 5.078-4.04 25.498 25.498 0 0 1 5.99-2.596c2.107-.61 4.28-.914 6.516-.914 5.43 0 9.263 1.907 11.499 5.723 2.235 3.816 3.353 9.282 3.353 16.4v28.761zm22.902.962c-2.3 0-4.44-.4-6.42-1.202-1.98-.801-3.721-1.892-5.222-3.27a14.519 14.519 0 0 1-3.499-4.906c-.83-1.892-1.245-3.928-1.245-6.109 0-2.18.512-4.167 1.533-5.963 1.022-1.795 2.444-3.351 4.265-4.665 1.82-1.315 4.008-2.34 6.563-3.078 2.556-.738 5.366-1.107 8.432-1.107 2.684 0 5.383.24 8.097.722 2.716.48 5.16 1.138 7.331 1.971v-4.905c0-4.745-1.341-8.513-4.024-11.302-2.684-2.79-6.325-4.185-10.924-4.185-2.428 0-5 .513-7.714 1.54-2.714 1.026-5.478 2.5-8.289 4.424l-1.82-3.27c6.388-4.361 12.457-6.541 18.206-6.541 6.005 0 10.733 1.747 14.182 5.242 3.45 3.495 5.174 8.32 5.174 14.477v24.432c0 1.603.703 2.405 2.108 2.405v4.328a9.34 9.34 0 0 1-1.006.144c-.35.033-.655.05-.91.05-1.277 0-2.3-.434-3.066-1.3-.767-.866-1.214-1.907-1.342-3.127v-4.136c-2.3 3.015-5.239 5.323-8.815 6.927-3.578 1.603-7.443 2.404-11.595 2.404zm.958-3.848c3.706 0 7.107-.705 10.205-2.116 3.099-1.41 5.478-3.27 7.139-5.578 1.022-1.347 1.533-2.63 1.533-3.849v-8.85a38.479 38.479 0 0 0-7.186-2.02 43.707 43.707 0 0 0-7.762-.672c-2.492 0-4.76.273-6.803.818-2.045.545-3.801 1.298-5.27 2.26-1.47.962-2.604 2.132-3.402 3.511-.8 1.378-1.199 2.902-1.199 4.569 0 1.668.32 3.238.959 4.713a11.09 11.09 0 0 0 2.683 3.8c1.15 1.057 2.507 1.892 4.072 2.501 1.565.61 3.242.913 5.031.913zm33.825-67.332h4.888v60.31c0 1.86.526 3.335 1.58 4.426 1.054 1.09 2.508 1.635 4.36 1.635.704 0 1.55-.08 2.54-.24.99-.16 1.9-.402 2.731-.722l.958 3.847c-1.086.45-2.428.818-4.024 1.106-1.598.289-2.971.434-4.12.434-2.684 0-4.84-.818-6.47-2.454-1.628-1.634-2.443-3.83-2.443-6.588v-61.755z" fill="#000"/><path d="M35.544 224.07v-29.41l-25.498-40.47H26.52l16.382 27.648 16.05-27.648h16.19L49.55 194.754v29.317H35.544zm40.154-25.312c0 5.021 1.188 8.865 3.562 11.537 2.375 2.667 5.302 4.004 8.784 4.004 3.482 0 6.403-1.337 8.761-4.004 2.358-2.672 3.536-6.547 3.536-11.633 0-4.959-1.178-8.77-3.536-11.44s-5.28-4.002-8.761-4.002c-3.482 0-6.409 1.332-8.784 4.003-2.374 2.67-3.562 6.514-3.562 11.535zm-13.677-.715c0-4.447 1.094-8.751 3.279-12.918 2.184-4.16 5.276-7.339 9.283-9.533 4.002-2.192 8.474-3.29 13.412-3.29 7.63 0 13.882 2.487 18.758 7.46 4.875 4.975 7.314 11.255 7.314 18.855 0 7.656-2.464 14.002-7.387 19.04-4.922 5.04-11.118 7.557-18.59 7.557-4.621 0-9.029-1.048-13.223-3.147-4.195-2.098-7.383-5.172-9.567-9.224-2.185-4.052-3.279-8.982-3.279-14.8zm89.847 26.027v-7.579c-1.836 2.702-4.25 4.83-7.241 6.386a20.268 20.268 0 0 1-9.472 2.337c-3.39 0-6.429-.747-9.119-2.242-2.69-1.49-4.637-3.59-5.84-6.293-1.204-2.7-1.804-6.433-1.804-11.198v-32.034h13.342v23.262c0 7.12.244 11.479.737 13.087.49 1.6 1.383 2.872 2.684 3.812 1.296.935 2.942 1.405 4.937 1.405 2.28 0 4.32-.628 6.125-1.882 1.804-1.257 3.04-2.813 3.704-4.673.665-1.86.998-6.41.998-13.656v-21.355h13.342v50.623h-12.393z" fill="#E8342D"/><path d="M204.723 198.378v-11.772h30.295v27.834c-2.944 2.862-7.21 5.379-12.796 7.554-5.587 2.177-11.248 3.267-16.977 3.267-7.278 0-13.627-1.534-19.04-4.601-5.414-3.067-9.482-7.45-12.203-13.152-2.724-5.705-4.083-11.914-4.083-18.617 0-7.277 1.519-13.742 4.557-19.399 3.038-5.657 7.487-9.994 13.344-13.012 4.464-2.32 10.019-3.48 16.665-3.48 8.642 0 15.393 1.818 20.253 5.456 4.86 3.638 7.985 8.669 9.378 15.087l-13.96 2.623c-.982-3.433-2.826-6.141-5.532-8.125-2.707-1.991-6.085-2.983-10.139-2.983-6.14 0-11.023 1.956-14.648 5.866-3.626 3.906-5.435 9.706-5.435 17.396 0 8.296 1.834 14.514 5.505 18.659 3.676 4.147 8.485 6.22 14.436 6.22 2.944 0 5.895-.58 8.857-1.739 2.96-1.157 5.499-2.564 7.62-4.217v-8.865h-16.097zm47.917.38c0 5.021 1.188 8.865 3.562 11.537 2.373 2.667 5.302 4.004 8.785 4.004 3.48 0 6.4-1.337 8.761-4.004 2.355-2.672 3.538-6.547 3.538-11.633 0-4.959-1.183-8.77-3.538-11.44-2.36-2.67-5.281-4.002-8.761-4.002-3.483 0-6.412 1.332-8.785 4.003-2.374 2.67-3.562 6.514-3.562 11.535zm-13.674-.715c0-4.447 1.09-8.751 3.274-12.918 2.184-4.16 5.28-7.339 9.286-9.533 4.004-2.192 8.474-3.29 13.412-3.29 7.63 0 13.882 2.487 18.758 7.46 4.873 4.975 7.31 11.255 7.31 18.855 0 7.656-2.46 14.002-7.38 19.04-4.925 5.04-11.121 7.557-18.592 7.557-4.623 0-9.03-1.048-13.224-3.147-4.195-2.098-7.386-5.172-9.57-9.224-2.184-4.052-3.274-8.982-3.274-14.8zm70.518 26.027l-20.324-50.623h14.009l9.497 25.836 2.753 8.625c.727-2.19 1.187-3.634 1.376-4.336a117.7 117.7 0 0 1 1.427-4.289l9.591-25.836h13.724l-20.04 50.623h-12.013z" fill="#A7A9AC"/></g></svg>