<?xml version="1.0" encoding="utf-8"?>
<!-- Generator: Adobe Illustrator 21.1.0, SVG Export Plug-In . SVG Version: 6.00 Build 0)  -->
<svg version="1.1" id="Layer_1" xmlns="http://www.w3.org/2000/svg" xmlns:xlink="http://www.w3.org/1999/xlink" x="0px" y="0px"
	 viewBox="0 0 841.9 245.3" style="enable-background:new 0 0 841.9 245.3;" xml:space="preserve">
<g>
	<g>
		<g>
			<path d="M600.5,198.3c0-2-1-3-4.2-3c-0.9,0-2.1,0.1-2.8,0.2v8.8h2.1v-3h0.9l1.6,3h2.5l-2.1-3.4
				C599.7,200.5,600.5,199.6,600.5,198.3z M596.4,199.8h-0.7V197c0.2,0,0.5,0,0.7,0c1.8,0,2,0.4,2,1.4
				C598.4,199.4,597.9,199.8,596.4,199.8z"/>
			<path d="M596.9,191c-5.9,0-8.9,3-8.9,8.9c0,5.9,3,8.9,8.9,8.9c5.9,0,8.9-3,8.9-8.9C605.8,194.1,602.8,191,596.9,191z
				 M596.9,207.1c-5.2,0-7.2-1.9-7.2-7.2c0-5.3,2-7.2,7.2-7.2c5.1,0,7.2,1.9,7.2,7.2C604.1,205.2,602,207.1,596.9,207.1z"/>
			<path d="M9.8,110.7c0-1.5,0.3-1.8,1.8-1.8h58.2c1.5,0,1.8,0.3,1.8,1.8v17.5c0,1.5-0.3,1.8-1.8,1.8H33.7v21.3h30.1
				c1.5,0,1.8,0.3,1.8,1.8v17.2c0,1.5-0.3,1.8-1.8,1.8H33.7v33.1c0,1.5-0.3,1.8-1.8,1.8H11.6c-1.5,0-1.8-0.3-1.8-1.8V110.7z"/>
			<path d="M82.7,172.3c-1.5,0-1.8-0.3-1.8-1.8v-17.2c0-1.5,0.3-1.8,1.8-1.8h29.8c1.5,0,1.8,0.3,1.8,1.8v17.2c0,1.5-0.3,1.8-1.8,1.8
				H82.7z"/>
			<path d="M147.7,135.7c0,6.5,3.8,7.8,18.5,12.1c21,6.1,28.8,14.2,28.8,30.6c0,21.3-17.9,30.4-38.2,30.4c-11.6,0-22.6-3.3-28.9-6.8
				c-1-0.5-1.5-1-1.5-2.3v-12.9c0-1.1,0.3-1.5,1.3-1.5c2.1,0,15,3.6,27.4,3.6c11.1,0,16.2-2.6,16.2-9.3c0-6.6-4.6-8.4-17.7-11.9
				c-22-6-29.4-14.1-29.4-30.4c0-19.3,15.6-30.1,34.6-30.1c11.1,0,20,2.3,28.6,6.8c1.2,0.7,1.5,1,1.5,2.3v12.9
				c0,1.2-0.7,1.5-1.5,1.5c-2.8,0-14.4-3.6-27.3-3.6C151.1,127.1,147.7,130.6,147.7,135.7z"/>
			<path d="M228,176.4c0.8,10.6,6.6,13.6,19.3,13.6c12.7,0,22.3-3.2,24.6-3.2c1,0,1.5,0.2,1.5,1.5v12.2c0,1.5-0.7,1.8-1.8,2.3
				c-6.9,3-16.9,6-28.8,6c-24.3,0-38.4-11.1-38.4-38.2c0-25.6,13.9-39.5,37.4-39.5c26.5,0,34.7,15.9,34.7,37.4v6.1
				c0,1.5-0.3,1.8-1.8,1.8H228z M227.9,163.2h26.5c0-10.7-3.5-15-12.4-15C233.8,148.1,228.4,152.4,227.9,163.2z"/>
			<path d="M323.6,131.1c9.4,0,18.8,2.8,25.1,5.8c1.5,0.7,1.7,1,1.7,2.5v11.9c0,0.8-0.2,1.5-1.2,1.5c-2.3,0-11.2-2.8-21.7-2.8
				c-12.9,0-17.7,6.9-17.7,20c0,13.1,4.8,20,17.7,20c10.4,0,20-3.2,22.3-3.2c1,0,1.2,0.7,1.2,1.5v12.2c0,1.5-0.2,1.8-1.7,2.5
				c-6.3,3-16.4,5.8-25.8,5.8c-25.6,0-37.4-15.9-37.4-38.9C286.2,147,298,131.1,323.6,131.1z"/>
			<path d="M398.4,208.8c-20.3,0-35.7-6.4-35.7-30.3v-44.3c0-1.5,0.3-1.8,1.8-1.8h19.8c1.5,0,1.8,0.3,1.8,1.8v41.2
				c0,10.1,3.3,14.5,13.4,14.5c4.1,0,8.3-0.2,11.4-0.5v-55.3c0-1.5,0.3-1.8,1.8-1.8h19.8c1.5,0,1.8,0.3,1.8,1.8v68.7
				c0,1.5-0.2,1.7-1.3,2C423.4,207.2,410.3,208.8,398.4,208.8z"/>
			<path d="M485.4,150.4c-4.3,0-8.4,0.5-10.9,1.5v53.4c0,1.5-0.3,1.8-1.8,1.8h-19.8c-1.5,0-1.8-0.3-1.8-1.8v-66.2
				c0-1.2,0.5-1.7,1.5-2c8.9-3.5,18.3-6.1,28.9-6.1c6.3,0,12.4,0.5,17.9,2.1c1,0.3,1.2,0.7,1.2,1.7v14.9c0,1.5-0.5,1.6-1.5,1.6
				C497.1,151.4,492.8,150.4,485.4,150.4z"/>
			<path d="M528.9,176.4c0.8,10.6,6.6,13.6,19.3,13.6c12.7,0,22.3-3.2,24.6-3.2c1,0,1.5,0.2,1.5,1.5v12.2c0,1.5-0.6,1.8-1.8,2.3
				c-7,3-16.9,6-28.8,6c-24.3,0-38.4-11.1-38.4-38.2c0-25.6,13.9-39.5,37.4-39.5c26.5,0,34.7,15.9,34.7,37.4v6.1
				c0,1.5-0.3,1.8-1.8,1.8H528.9z M528.7,163.2h26.5c0-10.7-3.5-15-12.4-15C534.6,148.1,529.2,152.4,528.7,163.2z"/>
		</g>
		<path d="M830.6,31.8C754.9,5.4,675.4,4.2,605.2,25.7c-15,4.6-19,17.2-16.4,27.9c4,16.3,9.9,34.9,17,51.8c0.1,0.3,0.3,0.2,0.3-0.3
			c-0.9-7.9,5.1-17.9,17.1-21.6c66.5-20.2,124.6-15.2,176.3,2.3c8.7,3,18.5-1.7,21.3-10.7c7.1-22.8,10-38.4,10.7-42.2"/>
		<g>
			<path d="M655.4,81.9c-8.8,1.9-20.8,4.7-29.8,7.8c-18.1,6.2-17.3,28.1-7.6,35.2c0.7-4.1,5-9.6,9.9-11.5c18.1-7,37.4-11.3,57-13
				C675,96.3,665.2,90.5,655.4,81.9z"/>
		</g>
		<path d="M799.2,126c-52.2-25-115.1-26.8-166.9-6.7c-8.5,3.3-14,13.7-8.5,23.7c8.7,15.8,19.5,32.6,31.9,48.7
			c-1.7-5.9,1.3-16.9,12.9-20.5c31.9-9.8,65.4-5.7,87.8,3.3c6.3,2.6,15.1,1,20.2-6.5c11-16.5,21-36.3,23.2-40.7
			C800.1,126.8,799.8,126.3,799.2,126z"/>
		<g>
			<path d="M747.4,204.8c-5.7-1.6-19.8-12.7-25.3-18.2c-3.5-3.5-8.5-8.4-13.9-14.3c-12.2,0-24.1,1.3-36.7,5.3
				c-11.7,3.7-12.8,17.4-7.7,24.4c8.8,10.8,14.8,16.8,24.6,26.8c10.2,10.5,28.3,10.8,38.8,0.2c7.6-7.7,12.3-12.7,20.9-22.4
				C748.4,205.9,748.2,205,747.4,204.8z"/>
		</g>
	</g>
</g>
</svg>
