<svg xmlns="http://www.w3.org/2000/svg" width="225" height="70">
  <g transform="matrix(1.95615 0 0 1.95615 -469 -789.5)">
    <linearGradient id="a" x1="255.74" x2="255.74" y1="438.29" y2="404.3" gradientUnits="userSpaceOnUse">
      <stop offset="0" stop-color="#d46032"/>
      <stop offset="1" stop-color="#e1972e"/>
    </linearGradient>
    <path fill="url(#a)" d="M255.74 438.73c-.57 0-1.11-.13-1.53-.37l-12.43-7.18a3.3 3.3 0 0 1-1.54-2.66v-14.35a3.3 3.3 0 0 1 1.54-2.66l12.43-7.17a3.4 3.4 0 0 1 3.07 0l12.43 7.17a3.3 3.3 0 0 1 1.53 2.66v14.35a3.3 3.3 0 0 1-1.53 2.66l-12.43 7.18a3.1 3.1 0 0 1-1.54.37zm0-33.19c-.28 0-.56.06-.74.17l-12.43 7.17c-.38.22-.74.85-.74 1.3v14.34c0 .45.36 1.07.74 1.3l12.43 7.17c.36.21 1.13.21 1.49 0l12.43-7.17c.38-.23.74-.85.74-1.3v-14.35c0-.44-.36-1.07-.74-1.29l-12.43-7.17c-.18-.1-.46-.17-.75-.17z"/>
    <linearGradient id="b" x1="255.74" x2="255.74" y1="435.27" y2="405.61" gradientUnits="userSpaceOnUse">
      <stop offset="0" stop-color="#d46032"/>
      <stop offset="1" stop-color="#e1972e"/>
    </linearGradient>
    <path fill="url(#b)" d="M251.25 424.43l-.89-4.28h3.48c.4 0 .74.25.87.62l.75 3.66h1.92l-.83-4.04v-.02c-.02-.08-.07-.14-.1-.22h3.44c.4 0 .75.25.87.62l.75 3.66h1.92l-.83-4.04v-.02a2.8 2.8 0 0 0-2.71-2.1h-11.83l1.26 6.16h1.92z"/>
  </g>
  <path d="M94.13 30.17c-1.37 0-3.62.95-3.95 1.1-.04.02-.49.18-1.02.56a3.3 3.3 0 0 0-2.78-1.66c-1.37 0-3.61.95-3.95 1.1-.03.01-.18.07-.4.19v-1.3h-2.58V42.54h2.57V36c0-1.76 1.13-2.25 1.34-2.33.86-.37 2.4-.93 3.02-.93.39 0 .82.53.82 1.3v8.49h2.57V36c0-1.76 1.13-2.25 1.34-2.33.85-.37 2.4-.93 3.02-.93.38 0 .81.55.81 1.3v8.49h2.58v-8.5c0-2.13-1.52-3.86-3.4-3.86zM220.05 30.17h-4.41c-2.16 0-3.92 1.56-3.92 3.47v5.88c0 1.91 1.76 3.47 3.92 3.47h4.41c2.16 0 3.92-1.56 3.92-3.47v-5.87c0-1.92-1.76-3.48-3.92-3.48zm1.34 9.34c0 .43-.54.9-1.34.9h-4.41c-.8 0-1.35-.47-1.35-.9v-5.87c0-.42.55-.9 1.35-.9h4.41c.8 0 1.34.48 1.34.9v5.87zM111.26 39.58c-.24.24-.56.37-.9.37h-5.58c-.7 0-1.29-.58-1.29-1.28v-.4h5.6c2.14 0 3.87-1.55 3.87-3.46v-1.17c0-1.91-1.73-3.47-3.86-3.47h-4.32c-2.13 0-3.86 1.56-3.86 3.47v5.03a3.87 3.87 0 0 0 3.86 3.86h5.58c1.03 0 2-.4 2.73-1.13l-1.83-1.82zm-7.77-4.86v-1.08c0-.48.6-.9 1.3-.9h4.3c.7 0 1.3.42 1.3.9v1.17c0 .48-.6.9-1.3.9h-5.6v-1zM156.46 35.1h-4.8c-.7-.04-1.19-.45-1.19-.83v-.6c0-.4.53-.84 1.29-.84h5.23c.38 0 .75.12 1 .33l1.64-1.98a4.15 4.15 0 0 0-2.64-.92h-5.23c-2.13 0-3.86 1.53-3.86 3.41V34.28c0 1.88 1.73 3.4 3.86 3.4h4.8c.7.05 1.19.46 1.19.83v.61c0 .4-.53.83-1.29.83h-5.92a1.6 1.6 0 0 1-1-.32l-1.64 1.98c.71.6 1.65.92 2.64.92h5.92c2.13 0 3.86-1.53 3.86-3.41V38.5c0-1.88-1.73-3.41-3.86-3.41zM120.16 30.17c-2.13 0-3.86 1.56-3.86 3.47v8.89h2.57V33.64c0-.48.6-.9 1.29-.9h4.04v-2.57h-4.04zM127.35 30.2h2.58v12.32h-2.58zM167.12 40.02c-.69 0-1.29-.42-1.29-.9v-6.29h2.65v-2.57h-2.65v-3.42h-2.57v12.29c0 1.91 1.73 3.47 3.86 3.47h3.94v-2.58h-3.94zM183.58 30.17v6.2c0 2.43-1.15 2.72-1.4 2.77-.92.22-3.57.81-4.68.81-.5 0-.93-.6-.93-1.29v-8.5H174v8.5c0 2.13 1.57 3.86 3.5 3.86 1.62 0 4.92-.79 5.12-.85.28-.03.6-.12.95-.29v1.14h2.58V30.17h-2.57zM199.03 26.5v4.46a2.5 2.5 0 0 0-.77-.2c-.15-.01-3.73-.45-5.3-.45-1.93 0-3.5 1.73-3.5 3.86v4.49c0 2.13 1.57 3.86 3.5 3.86 1.57 0 5.15-.43 5.23-.44.24-.02.54-.08.84-.2v.65h2.58V26.5h-2.58zm-1.08 13.02c-.03 0-3.57.43-5 .43-.5 0-.92-.59-.92-1.28v-4.49c0-.7.42-1.3.93-1.3 1.42 0 4.96.44 5 .45.4.06 1.07.7 1.07 2.61v.96c0 1.92-.67 2.55-1.08 2.62zM139.22 34.3l-3.38-4.12h-3.3l5.02 6.18-5.03 6.16h3.3l3.4-4.13 3.36 4.13h3.32l-5.04-6.16 5.04-6.18h-3.32zM205.42 30.18h2.74v12.34h-2.74z"/>
</svg>
