<?xml version="1.0" encoding="UTF-8"?>
<svg width="600px" height="400px" viewBox="0 0 600 400" version="1.1" xmlns="http://www.w3.org/2000/svg" xmlns:xlink="http://www.w3.org/1999/xlink">
    <!-- Generator: Sketch 55.1 (78136) - https://sketchapp.com -->
    <title>Artboard</title>
    <desc>Created with Sketch.</desc>
    <g id="Artboard" stroke="none" stroke-width="1" fill="none" fill-rule="evenodd">
        <rect fill="#FFFFFF" x="0" y="0" width="600" height="400"></rect>
        <g id="gamedevjs-logo-two-lines-01" transform="translate(21.000000, 34.000000)" fill-rule="nonzero">
            <path d="M407.306667,70.50825 C407.306667,31.6215 375.784739,0.0855 336.915341,0.0855 C332.118233,0.0855 327.435823,0.56925 322.906345,1.485 L322.843373,1.2375 L183.461847,37.68075 C179.865703,38.331 176.366265,39.249 172.983775,40.42125 L170.581847,41.049 L170.64257,41.28075 C144.313574,51.47325 125.628916,77.0355 125.628916,106.9695 C125.628916,124.425 132.016064,140.36175 142.525622,152.6715 L131.372851,184.35825 L167.869558,171.4995 C176.496707,175.2705 186.00996,177.39675 196.024739,177.39675 C232.350522,177.39675 262.250924,149.85 266.011245,114.5025 L279.457992,111.17025 C292.209799,129.1725 313.186185,140.9355 336.915341,140.9355 C346.93012,140.9355 356.436627,138.80925 365.061526,135.04275 L401.558233,147.9015 L390.405462,116.21475 C400.921767,103.90725 407.306667,87.966 407.306667,70.50825 Z M229.467309,113.37975 C229.467309,116.60175 226.82249,119.2365 223.595181,119.2365 L212.86747,119.2365 C209.644659,119.2365 207.011084,121.87125 207.011084,125.1135 L207.011084,135.846 C207.011084,139.05675 204.382008,141.71625 201.154699,141.71625 L191.504257,141.71625 C188.281446,141.71625 185.647871,139.0545 185.647871,135.846 L185.647871,125.1135 C185.647871,121.87125 183.014297,119.2365 179.780241,119.2365 L169.068273,119.2365 C165.834217,119.2365 163.191647,116.60175 163.191647,113.37975 L163.191647,103.7205 C163.191647,100.49625 165.834217,97.8525 169.068273,97.8525 L179.780241,97.8525 C183.014297,97.8525 185.647871,95.22675 185.647871,91.98225 L185.647871,81.2655 C185.647871,78.04125 188.281446,75.4065 191.504257,75.4065 L201.154699,75.4065 C204.384257,75.4065 207.011084,78.04125 207.011084,81.2655 L207.011084,91.98225 C207.011084,95.22675 209.644659,97.8525 212.86747,97.8525 L223.595181,97.8525 C226.82249,97.8525 229.467309,100.4985 229.467309,103.7205 L229.467309,113.37975 Z M311.515181,85.56075 C305.137028,85.78575 299.752932,80.78175 299.516787,74.412 C299.280643,68.04 304.28241,62.6535 310.656064,62.41275 C317.029719,62.181 322.422811,67.1805 322.656707,73.54575 C322.886104,79.92675 317.888835,85.32 311.515181,85.56075 Z M335.525462,35.6175 C341.892369,35.3835 347.292209,40.38525 347.514859,46.76625 C347.76,53.136 342.758233,58.53375 336.389076,58.77 C330.024418,59.00175 324.622329,53.99775 324.392932,47.62125 C324.152289,41.24475 329.158554,35.85375 335.525462,35.6175 Z M338.302972,110.4435 C331.931566,110.67975 326.545221,105.678 326.304578,99.306 C326.07743,92.925 331.070201,87.534 337.439357,87.30225 C343.815261,87.06825 349.201606,92.07 349.44,98.4465 C349.671647,104.82075 344.66988,110.20725 338.302972,110.4435 Z M363.165622,83.63475 C356.796466,83.88 351.403373,78.876 351.169478,72.50625 C350.937831,66.1365 355.939598,60.73425 362.308755,60.5025 C368.686908,60.26175 374.071004,65.27025 374.313896,71.64 C374.55004,78.012 369.541526,83.4075 363.165622,83.63475 Z" id="Shape" fill="#00ADDC"></path>
            <g id="Group" transform="translate(0.000000, 252.000000)" fill="#120907">
                <polygon id="Path" points="41.1161446 47.71125 26.5741365 47.71125 26.5741365 39.276 49.5453815 39.276 49.5453815 68.2695 38.5860241 79.866 10.9751004 79.866 0.0157429719 68.2695 0.0157429719 12.393 10.9751004 0.7965 38.5860241 0.7965 49.5453815 12.393 49.5453815 25.67475 41.1138956 25.67475 41.1138956 16.71525 34.4748594 9.86175 15.1897189 9.86175 9.70891566 15.4485 9.70891566 65.21175 15.0840161 70.7985 34.3691566 70.7985 41.1138956 63.945 41.1138956 47.71125"></polygon>
                <path d="M95.9129317,79.866 L95.9129317,71.43075 L102.869076,71.43075 L98.3373494,58.35825 L71.9926104,58.35825 L67.4608835,71.43075 L74.5227309,71.43075 L74.5227309,79.866 L52.1812048,79.866 L52.1812048,71.43075 L57.7677108,71.43075 L75.575261,19.77075 L71.1492369,19.77075 L71.1492369,11.33775 L99.2864257,11.33775 L99.2864257,19.77075 L94.7546988,19.77075 L112.564498,71.43075 L118.254458,71.43075 L118.254458,79.866 L95.9129317,79.866 Z M85.1649799,20.088 L74.8375904,49.92525 L95.4923695,49.92525 L85.1649799,20.088 Z" id="Shape"></path>
                <polygon id="Path" points="139.01494 71.43075 146.391647 71.43075 146.391647 79.866 121.942811 79.866 121.942811 71.43075 129.319518 71.43075 129.319518 19.77075 121.942811 19.77075 121.942811 11.33775 143.440964 11.33775 163.358072 61.2045 183.275181 11.33775 204.773333 11.33775 204.773333 19.77075 197.396627 19.77075 197.396627 71.43075 204.773333 71.43075 204.773333 79.866 180.324498 79.866 180.324498 71.43075 187.701205 71.43075 187.701205 23.2515 167.995502 71.43075 158.720643 71.43075 139.01494 23.2515 139.01494 71.43075"></polygon>
                <polygon id="Path" points="213.20257 11.33775 263.364177 11.33775 263.364177 32.00175 254.932691 32.00175 254.932691 19.77075 230.274699 19.77075 230.274699 41.38425 254.93494 41.38425 254.93494 49.81725 230.274699 49.81725 230.274699 71.4285 254.93494 71.4285 254.93494 59.19975 263.366426 59.19975 263.366426 79.86375 213.204819 79.86375 213.204819 71.4285 220.581526 71.4285 220.581526 19.7685 213.204819 19.7685 213.204819 11.33775"></polygon>
                <path d="M269.686104,11.33775 L314.580562,11.33775 L325.53992,22.93425 L325.53992,68.26725 L314.580562,79.86375 L269.686104,79.86375 L269.686104,71.4285 L277.062811,71.4285 L277.062811,19.7685 L269.686104,19.7685 L269.686104,11.33775 Z M286.758233,70.80075 L310.363695,70.80075 L315.844498,65.214 L315.844498,25.992 L310.469398,20.40525 L286.758233,20.40525 L286.758233,70.80075 L286.758233,70.80075 Z" id="Shape"></path>
                <polygon id="Path" points="329.752289 11.33775 379.916145 11.33775 379.916145 32.00175 371.484659 32.00175 371.484659 19.77075 346.824418 19.77075 346.824418 41.38425 371.484659 41.38425 371.484659 49.81725 346.824418 49.81725 346.824418 71.4285 371.484659 71.4285 371.484659 59.19975 379.916145 59.19975 379.916145 79.86375 329.752289 79.86375 329.752289 71.4285 337.128996 71.4285 337.128996 19.7685 329.752289 19.7685"></polygon>
                <polygon id="Path" points="384.128514 19.77075 384.128514 11.33775 406.47004 11.33775 406.47004 19.77075 399.621847 19.77075 418.167068 71.5365 436.820241 19.77075 429.969799 19.77075 429.969799 11.33775 452.311325 11.33775 452.311325 19.77075 446.517912 19.77075 424.914056 79.866 411.53253 79.866 389.928675 19.77075"></polygon>
                <polygon id="Path" points="440.717751 67.21425 451.256546 67.21425 451.256546 79.866 440.717751 79.866"></polygon>
                <polygon id="Path" points="491.088514 19.77075 483.711807 19.77075 483.711807 11.33775 507.105863 11.33775 507.105863 19.77075 500.783936 19.77075 500.783936 68.2695 489.824578 79.866 469.590361 79.866 458.631004 68.2695 458.631004 49.71375 467.06249 49.71375 467.06249 63.94725 473.701526 70.80075 485.60996 70.80075 491.090763 65.214 491.090763 19.77075"></polygon>
                <polygon id="Path" points="557.69253 36.2205 548.943936 36.2205 548.943936 26.9415 542.619759 20.40525 526.496707 20.40525 521.015904 25.992 521.015904 36.32625 526.179598 41.598 548.098313 41.598 558.742811 52.77375 558.742811 68.27175 547.783454 79.86825 521.22506 79.86825 510.265703 68.27175 510.265703 54.98775 519.012048 54.98775 519.012048 64.26675 525.439679 70.803 543.67004 70.803 549.045141 65.21625 549.045141 55.8315 543.987149 50.6655 522.068434 50.6655 511.320482 39.384 511.320482 22.9365 522.279839 11.34 546.728675 11.34 557.688032 22.9365 557.688032 36.2205"></polygon>
            </g>
        </g>
    </g>
</svg>