<?xml version="1.0" encoding="UTF-8"?>
<svg width="600px" height="400px" viewBox="0 0 600 400" version="1.1" xmlns="http://www.w3.org/2000/svg" xmlns:xlink="http://www.w3.org/1999/xlink">
    <!-- Generator: Sketch 55.2 (78181) - https://sketchapp.com -->
    <title>Artboard</title>
    <desc>Created with Sketch.</desc>
    <g id="Artboard" stroke="none" stroke-width="1" fill="none" fill-rule="evenodd">
        <rect fill="#FFFFFF" x="0" y="0" width="600" height="400"></rect>
        <g id="Gatsby_Logo" transform="translate(20.000000, 127.000000)" fill-rule="nonzero">
            <g id="Group" transform="translate(198.878505, 26.250000)" fill="#000000">
                <path d="M130.317757,36.75 L144.971963,36.75 L144.971963,89.25 L130.317757,89.25 L130.317757,82.425 C125.084112,90.3 118.280374,90.825 114.093458,90.825 C97.8691589,90.825 87.4018692,78.225 87.4018692,63 C87.4018692,47.25 97.8691589,35.175 113.046729,35.175 C117.233645,35.175 125.084112,35.7 129.794393,43.575 L129.794393,36.75 L130.317757,36.75 Z M103.102804,63 C103.102804,71.4 108.859813,77.7 117.757009,77.7 C126.130841,77.7 132.411215,71.4 132.411215,63 C132.411215,54.6 126.654206,48.3 117.757009,48.3 C109.383178,48.3 103.102804,54.6 103.102804,63 Z" id="Shape"></path>
                <polygon id="Path" points="173.757009 49.35 173.757009 89.25 159.102804 89.25 159.102804 49.35 153.345794 49.35 153.345794 36.75 159.102804 36.75 159.102804 18.9 173.757009 18.9 173.757009 36.75 183.700935 36.75 183.700935 49.35"></polygon>
                <path d="M218.242991,49.35 C214.579439,46.2 211.439252,45.675 209.869159,45.675 C206.205607,45.675 204.11215,47.25 204.11215,49.875 C204.11215,51.45 204.635514,53.025 208.82243,54.6 L212.485981,55.65 C216.672897,57.225 222.953271,58.8 225.570093,63 C227.140187,65.1 228.186916,68.25 228.186916,71.925 C228.186916,76.65 226.616822,81.375 222.429907,85.05 C218.242991,88.725 213.009346,90.825 206.728972,90.825 C195.738318,90.825 189.981308,85.575 186.317757,81.9 L194.168224,72.975 C197.308411,76.125 201.495327,79.275 205.682243,79.275 C209.869159,79.275 213.009346,77.175 213.009346,73.5 C213.009346,70.35 210.392523,68.775 208.299065,68.25 L205.158879,67.2 C201.495327,65.625 197.308411,64.05 194.168224,60.9 C191.551402,58.275 189.981308,55.125 189.981308,50.925 C189.981308,45.675 192.598131,41.475 195.214953,38.85 C199.401869,35.7 204.635514,35.175 208.82243,35.175 C212.485981,35.175 218.766355,35.7 225.570093,40.95 L218.242991,49.35 Z" id="Path"></path>
                <path d="M250.168224,43.575 C255.401869,36.225 262.728972,35.175 266.915888,35.175 C282.093458,35.175 292.560748,47.25 292.560748,63 C292.560748,78.75 282.093458,90.825 266.392523,90.825 C263.252336,90.825 255.401869,90.3 249.64486,82.425 L249.64486,89.25 L235.514019,89.25 L235.514019,1.05 L250.168224,1.05 L250.168224,43.575 Z M248.598131,63 C248.598131,71.4 254.35514,77.7 263.252336,77.7 C271.626168,77.7 277.906542,71.4 277.906542,63 C277.906542,54.6 272.149533,48.3 263.252336,48.3 C254.35514,48.3 248.598131,54.6 248.598131,63 Z" id="Shape"></path>
                <polygon id="Path" points="316.635514 81.375 291.514019 36.75 308.785047 36.75 325.009346 66.675 339.663551 36.75 356.411215 36.75 314.542056 117.075 297.794393 117.075"></polygon>
                <path d="M83.7383178,45.675 L69.0841121,45.675 C69.0841121,45.675 47.1028037,45.675 47.1028037,45.675 L47.1028037,60.375 L66.4672897,60.375 C63.3271028,70.35 56,77.175 42.3925234,77.175 C27.2149533,77.175 16.2242991,64.575 16.2242991,49.35 C16.2242991,34.125 26.6915888,21 41.8691589,21 C50.2429907,21 58.6168224,25.2 63.8504673,32.025 L75.8878505,24.15 C68.0373832,13.125 55.4766355,6.825 41.8691589,6.825 C18.8411215,6.825 0,25.725 0,49.35 C0,72.975 17.7943925,91.875 41.8691589,91.875 C65.9439252,91.875 83.7383178,72.975 83.7383178,49.35 C84.2616822,47.775 83.7383178,46.725 83.7383178,45.675 Z" id="Path"></path>
            </g>
            <g id="Group">
                <g transform="translate(15.700935, 15.750000)" fill="#FFFFFF" id="Path">
                    <path d="M115.140187,57.75 L78.5046729,57.75 L78.5046729,68.25 L103.626168,68.25 C99.9626168,84 88.4485981,97.125 73.271028,102.375 L13.0841121,42 C19.364486,23.625 37.1588785,10.5 57.5700935,10.5 C73.271028,10.5 87.4018692,18.375 96.2990654,30.45 L104.149533,23.625 C93.682243,9.45 76.9345794,0 57.5700935,0 C30.3551402,0 7.3271028,19.425 1.57009346,45.15 L70.6542056,114.45 C95.7757009,108.15 115.140187,85.05 115.140187,57.75 Z"></path>
                    <path d="M0,58.275 C0,72.975 5.75700935,87.15 16.7476636,98.175 C27.7383178,109.2 42.3925234,114.975 56.5233645,114.975 L0,58.275 Z"></path>
                </g>
                <path d="M73.271028,0 C32.9719626,0 0,33.075 0,73.5 C0,113.925 32.9719626,147 73.271028,147 C113.570093,147 146.542056,113.925 146.542056,73.5 C146.542056,33.075 113.570093,0 73.271028,0 Z M32.4485981,114.45 C21.4579439,103.425 15.7009346,88.725 15.7009346,74.55 L72.7476636,131.25 C58.0934579,130.725 43.4392523,125.475 32.4485981,114.45 Z M85.8317757,129.675 L17.271028,60.9 C23.0280374,35.175 46.0560748,15.75 73.271028,15.75 C92.635514,15.75 109.383178,25.2 119.850467,39.375 L112,46.2 C103.102804,34.125 88.9719626,26.25 73.271028,26.25 C52.8598131,26.25 35.588785,39.375 28.7850467,57.75 L88.9719626,118.125 C104.149533,112.875 115.663551,99.75 119.327103,84 L94.2056075,84 L94.2056075,73.5 L130.841121,73.5 C130.841121,100.8 111.476636,123.9 85.8317757,129.675 Z" id="Shape" fill="#663399"></path>
            </g>
        </g>
    </g>
</svg>