<?xml version="1.0" encoding="UTF-8"?>
<svg width="600px" height="400px" viewBox="0 0 600 400" version="1.1" xmlns="http://www.w3.org/2000/svg" xmlns:xlink="http://www.w3.org/1999/xlink">
    <!-- Generator: Sketch 56.3 (81716) - https://sketch.com -->
    <title>Artboard</title>
    <desc>Created with Sketch.</desc>
    <g id="Artboard" stroke="none" stroke-width="1" fill="none" fill-rule="evenodd">
        <rect fill="#FFFFFF" x="0" y="0" width="600" height="400"></rect>
        <g id="pusher_full-logo_2Colours" transform="translate(20.000000, 126.000000)" fill-rule="nonzero">
            <path d="M47.7488372,147.311628 L47.7488372,110.330233 C47.7478024,110.250884 47.7907703,110.177481 47.8604651,110.139535 L95.3860465,82.6976744 C95.4557413,82.6597287 95.4987092,82.5863252 95.4976927,82.5069767 L95.4976927,71.9906977 C95.4986702,71.9116265 95.4568854,71.8381819 95.3884057,71.7986372 C95.319926,71.7590926 95.2354286,71.7596137 95.1674419,71.8 L48.0790698,98.9860465 C48.011083,99.0264328 47.9265857,99.0269539 47.8581059,98.9874093 C47.7896262,98.9478647 47.7478415,98.8744201 47.7488372,98.7953488 L47.7488372,88.2744186 C47.7488167,88.1953416 47.7915035,88.1224182 47.8604651,88.0837209 L95.3860465,60.6418605 C95.4536433,60.6017897 95.4958292,60.5297223 95.4976927,60.4511628 L95.4976927,49.9348837 C95.4958512,49.8570146 95.4535761,49.785725 95.3861243,49.746774 C95.3186725,49.707823 95.2357966,49.7068422 95.1674419,49.744186 L48.0790698,76.9302326 C48.011083,76.9706188 47.9265857,76.9711399 47.8581059,76.9315953 C47.7896262,76.8920507 47.7478415,76.8186061 47.7488372,76.7395349 L47.7488372,66.2232558 C47.7478024,66.1439074 47.7907703,66.0705039 47.8604651,66.0325581 L95.3860465,38.6046512 C95.4550081,38.5659539 95.4976927,38.4930305 95.4976927,38.4139535 L95.4976927,27.7534884 C95.4932741,27.5977701 95.41121,27.4545945 95.2790698,27.372093 L47.9674419,0.0604651163 C47.832431,-0.0186070661 47.6652434,-0.0186070661 47.5302326,0.0604651163 L38.5302326,5.25581395 C38.461232,5.294485 38.4185035,5.36741339 38.4185035,5.44651163 C38.4185035,5.52560987 38.461232,5.59853825 38.5302326,5.6372093 L85.6186047,32.8232558 C85.6851527,32.8637689 85.7257676,32.9360436 85.7257676,33.0139535 C85.7257676,33.0918634 85.6851527,33.1641381 85.6186047,33.2046512 L76.6186047,38.4 C76.4807203,38.4744274 76.3146285,38.4744274 76.1767442,38.4 L28.8697674,11.0883721 C28.72586,11.0052871 28.5485586,11.0052871 28.4046512,11.0883721 L19.4325581,16.2790698 C19.3635575,16.3177408 19.3208291,16.3906692 19.3208291,16.4697674 C19.3208291,16.5488657 19.3635575,16.6217941 19.4325581,16.6604651 L66.5116279,43.8511628 C66.5806285,43.8898338 66.623357,43.9627622 66.623357,44.0418605 C66.623357,44.1209587 66.5806285,44.1938871 66.5116279,44.2325581 L57.5162791,49.427907 C57.3723716,49.510992 57.1950703,49.510992 57.0511628,49.427907 L9.76744186,22.1116279 C9.62353438,22.0285429 9.44623306,22.0285429 9.30232558,22.1116279 L-1.8279874e-05,27.4976744 L-1.8279874e-05,120 C-0.00103480992,120.079348 0.0419330815,120.152752 0.111627907,120.190698 L9.21860465,125.451163 C9.2865914,125.491549 9.37108876,125.49207 9.43956847,125.452526 C9.50804819,125.412981 9.54983294,125.339536 9.54883721,125.260465 L9.54883721,33.3953488 C9.54784147,33.3162776 9.58962623,33.242833 9.65810594,33.2032884 C9.72658566,33.1637438 9.81108301,33.1642649 9.87906977,33.2046512 L18.9906977,38.4651163 C19.0578688,38.5050014 19.0986508,38.5776997 19.0976744,38.655814 L19.0976744,131.027907 C19.0976539,131.106984 19.1403407,131.179907 19.2093023,131.218605 L28.3162791,136.47907 C28.3856653,136.519134 28.4712001,136.518945 28.5404082,136.478573 C28.6096162,136.438202 28.6518837,136.36384 28.6511628,136.283721 L28.6511628,44.4232558 C28.6501671,44.3441846 28.6919518,44.27074 28.7604315,44.2311954 C28.8289112,44.1916508 28.9134086,44.1921719 28.9813953,44.2325581 L38.0883721,49.4883721 C38.1573337,49.5270694 38.2000205,49.5999927 38.2,49.6790698 L38.2,142.055814 C38.2008477,142.133452 38.2411625,142.205318 38.3069767,142.246512 L47.4418605,147.502326 C47.5079913,147.53163 47.5843362,147.526325 47.6457787,147.488157 C47.7072212,147.449988 47.7458052,147.383897 47.7488372,147.311628 Z" id="Path" fill="#00DE72"></path>
            <path d="M143.255784,118.190698 L143.255784,29.1627907 C143.253114,28.7138513 143.432827,28.2830586 143.753769,27.9691317 C144.074711,27.6552048 144.509369,27.4850554 144.95814,27.4970194 L171.423256,27.4970194 C188.204651,27.4970194 198.627907,37.2651163 198.627907,53.627907 C198.627907,69.9906977 186.8,80.4093023 171.274419,80.4093023 L157.144186,80.4093023 C156.662492,80.4091372 156.268424,80.7928896 156.255814,81.2744186 L156.255814,118.334884 C156.258475,118.782994 156.079397,119.213049 155.759476,119.526834 C155.439556,119.840619 155.006114,120.011337 154.55814,120.000531 L144.948837,120.000531 C144.013341,119.90132 143.292227,119.130679 143.255784,118.190698 L143.255784,118.190698 Z M171.423256,69.4046512 C180.293023,69.4046512 185.32093,62.0232558 185.32093,53.627907 C185.32093,44.9395349 180.739535,38.3534884 171.423256,38.3534884 L157.144186,38.3534884 C156.670798,38.368134 156.291177,38.7497964 156.27907,39.2232558 L156.27907,68.5255814 C156.289195,69.0089351 156.683982,69.3954549 157.167442,69.3953488 L171.423256,69.4046512 Z" id="Shape" fill="#300D4F"></path>
            <path d="M253.4,27.3528333 L263.009302,27.3528333 C263.458072,27.3408694 263.892731,27.5110188 264.213673,27.8249457 C264.534615,28.1388726 264.714327,28.5696652 264.711658,29.0186047 L264.711658,96.2790698 C264.711658,111.553488 252.218605,120.888372 237.581395,120.888372 C223.237209,120.888372 210.744157,111.47907 210.744157,96.2790698 L210.744157,29.0186047 C210.741525,28.5704942 210.920603,28.1404395 211.240524,27.8266546 C211.560444,27.5128696 211.993886,27.3421516 212.44186,27.3528333 L221.906977,27.3528333 C222.355747,27.3408694 222.790405,27.5110188 223.111347,27.8249457 C223.43229,28.1388726 223.612002,28.5696652 223.609302,29.0186047 L223.609302,96.0418605 C223.609302,104.362791 229.962791,109.646512 237.506977,109.646512 C245.051163,109.646512 251.553488,104.362791 251.553488,96.0418605 L251.553488,29.0651163 C251.670194,28.1211121 252.44987,27.3983906 253.4,27.3528333 Z" id="Path" fill="#300D4F"></path>
            <path d="M297.75814,73.0976744 C288.590698,66.944186 282.455814,60.0744186 282.455814,49.7162791 C282.455814,34.8790698 294.948837,26.3395349 309.144186,26.3395349 C322.52093,26.3395349 334.260465,33.7813953 334.944186,52.6139535 C334.960243,53.5784997 334.205596,54.3805708 333.24186,54.4232558 L324.446512,54.4232558 C323.546441,54.4298454 322.798563,53.7310084 322.744186,52.8325581 C322.153488,42.6 316.018605,37.7023256 308.325581,37.7023256 C300.930233,37.7023256 295.386047,42.0465116 295.386047,48.9953488 C295.386047,55 299.009302,58.2604651 308.474419,64.9162791 L321.706977,74.4697674 C330.874419,81.1302326 336.046512,87.1395349 336.046512,96.6186047 C336.046512,111.967442 323.404651,121.083721 308.544186,121.083721 C294.497674,121.083721 283.427907,113.413953 282.227907,94.5953488 C282.194148,94.1241503 282.358796,93.6602765 282.682071,93.3158039 C283.005345,92.9713312 283.457842,92.777592 283.930233,92.7813953 L292.874419,92.7813953 C293.764559,92.8019113 294.496351,93.4895951 294.572093,94.3767442 C295.386047,104.869767 301.669767,109.725581 309.065116,109.725581 C316.162791,109.725581 322.813953,105.888372 322.813953,96.9116279 C322.813953,91.3302326 320.302326,88.5906977 313.046512,83.7395349 L297.75814,73.0976744 Z" id="Path" fill="#300D4F"></path>
            <path d="M397.930233,118.190698 L397.930233,79.2511628 C397.920108,78.7678091 397.52532,78.3812893 397.04186,78.3813953 L368.730233,78.3813953 C368.246773,78.3812893 367.851985,78.7678091 367.84186,79.2511628 L367.84186,118.190698 C367.843296,118.638832 367.663028,119.068411 367.342228,119.381323 C367.021428,119.694234 366.587494,119.863753 366.139535,119.851163 L356.530233,119.851163 C356.082273,119.863753 355.64834,119.694234 355.327539,119.381323 C355.006739,119.068411 354.826471,118.638832 354.827877,118.190698 L354.827877,29.1627907 C354.825207,28.7138513 355.00492,28.2830586 355.325862,27.9691317 C355.646804,27.6552048 356.081462,27.4850554 356.530233,27.4970194 L366.139535,27.4970194 C366.588305,27.4850554 367.022964,27.6552048 367.343906,27.9691317 C367.664848,28.2830586 367.84456,28.7138513 367.84186,29.1627907 L367.84186,66.372093 C367.85447,66.853622 368.248539,67.2373744 368.730233,67.2372093 L397.04186,67.2372093 C397.523555,67.2373744 397.917623,66.853622 397.930233,66.372093 L397.930233,29.1627907 C397.927533,28.7138513 398.107245,28.2830586 398.428187,27.9691317 C398.749129,27.6552048 399.183788,27.4850554 399.632558,27.4970194 L409.24186,27.4970194 C409.690631,27.4850554 410.125289,27.6552048 410.446231,27.9691317 C410.767173,28.2830586 410.946886,28.7138513 410.944216,29.1627907 L410.944216,118.260465 C410.946886,118.709405 410.767173,119.140197 410.446231,119.454124 C410.125289,119.768051 409.690631,119.9382 409.24186,119.926236 L399.632558,119.926236 C399.176554,119.921901 398.740762,119.736895 398.421377,119.411401 C398.101992,119.085908 397.925274,118.646689 397.930233,118.190698 L397.930233,118.190698 Z" id="Path" fill="#300D4F"></path>
            <path d="M435.265116,118.190698 L435.265116,29.1627907 C435.262455,28.7146802 435.441534,28.2846256 435.761454,27.9708406 C436.081374,27.6570557 436.514816,27.4863377 436.962791,27.4970194 L483.981395,27.4970194 C484.430165,27.4850554 484.864824,27.6552048 485.185766,27.9691317 C485.506708,28.2830586 485.68642,28.7138513 485.683751,29.1627907 L485.683751,36.9069767 C485.68642,37.3559162 485.506708,37.7867088 485.185766,38.1006357 C484.864824,38.4145626 484.430165,38.584712 483.981395,38.572093 L449.162791,38.572093 C448.680336,38.5744424 448.286977,38.9595637 448.274419,39.4418605 L448.274419,66.7255814 C448.284543,67.2089351 448.679331,67.5954549 449.162791,67.5953488 L473.116279,67.5953488 C473.564254,67.5840121 473.997695,67.7547301 474.317616,68.0685151 C474.637536,68.3823 474.816614,68.8123547 474.813953,69.2604651 L474.813953,77.0046512 C474.816614,77.4527616 474.637536,77.8828163 474.317616,78.1966012 C473.997695,78.5103862 473.564254,78.6811042 473.116279,78.6697674 L449.162791,78.6697674 C448.680336,78.6721168 448.286977,79.0572382 448.274419,79.5395349 L448.274419,107.911628 C448.286977,108.393925 448.680336,108.779046 449.162791,108.781395 L483.981395,108.781395 C484.907222,108.781174 485.663484,109.520906 485.683751,110.446512 L485.683751,118.190698 C485.660998,119.114479 484.905456,119.851442 483.981395,119.851163 L436.962791,119.851163 C436.511847,119.876215 436.07113,119.710624 435.748254,119.394825 C435.425378,119.079026 435.250062,118.642086 435.265116,118.190698 L435.265116,118.190698 Z" id="Path" fill="#300D4F"></path>
            <path d="M545.711628,118.190698 L531.52093,79.4651163 C531.39893,79.1200448 531.072979,78.8890856 530.706977,78.8883721 L517.548837,78.8883721 C517.067143,78.888207 516.673075,79.2719594 516.660465,79.7534884 L516.660465,118.190698 C516.661901,118.638832 516.481633,119.068411 516.160833,119.381323 C515.840033,119.694234 515.406099,119.863753 514.95814,119.851163 L505.348837,119.851163 C504.901301,119.863783 504.467825,119.694124 504.147755,119.381069 C503.827685,119.068014 503.648463,118.638404 503.651133,118.190698 L503.651133,29.1627907 C503.648502,28.7146802 503.82758,28.2846256 504.147501,27.9708406 C504.467421,27.6570557 504.900862,27.4863377 505.348837,27.4971438 L531.669767,27.4971438 C547.786047,27.4971438 558.874419,37.7023256 558.874419,52.8325581 C558.874419,62.8930233 553.548837,71.2883721 543.790698,76.2093023 C543.69109,76.2431777 543.610479,76.3176379 543.568821,76.4142495 C543.527163,76.510861 543.528352,76.6205927 543.572093,76.7162791 L559.613953,117.753488 C559.823223,118.284828 559.752132,118.885698 559.424648,119.353533 C559.097164,119.821367 558.55692,120.093831 557.986047,120.07964 L548.004651,120.07964 C546.970923,119.87625 546.108904,119.166352 545.711628,118.190698 L545.711628,118.190698 Z M530.632558,68.3209302 C538.395349,68.3209302 545.344186,62.8930233 545.344186,53.3395349 C545.344186,44.7953488 539.8,38.353474 530.632558,38.353474 L517.548837,38.353474 C517.105456,38.3508744 516.742521,38.7055141 516.734884,39.1488372 L516.734884,67.3767442 C516.745009,67.8600978 517.139796,68.2466177 517.623256,68.2465116 L530.632558,68.3209302 Z" id="Shape" fill="#300D4F"></path>
        </g>
    </g>
</svg>