<?xml version="1.0" encoding="UTF-8"?>
<svg width="600px" height="400px" viewBox="0 0 600 400" version="1.1" xmlns="http://www.w3.org/2000/svg" xmlns:xlink="http://www.w3.org/1999/xlink">
    <!-- Generator: Sketch 56.3 (81716) - https://sketch.com -->
    <title>Artboard</title>
    <desc>Created with Sketch.</desc>
    <g id="Artboard" stroke="none" stroke-width="1" fill="none" fill-rule="evenodd">
        <rect fill="#FFFFFF" x="0" y="0" width="600" height="400"></rect>
        <g id="Slack_RGB" transform="translate(20.000000, 129.000000)" fill-rule="nonzero">
            <g id="Group" transform="translate(178.795181, 2.248996)" fill="#000000">
                <path d="M0.562248996,109.638554 L7.53413655,93.4457831 C15.0682731,99.0682731 25.0763052,101.991968 34.9718876,101.991968 C42.2811245,101.991968 46.8915663,99.1807229 46.8915663,94.9076305 C46.7791165,82.9879518 3.14859438,92.3212851 2.81124498,62.4096386 C2.69879518,47.2289157 16.1927711,35.5341365 35.3092369,35.5341365 C46.6666667,35.5341365 58.0240964,38.3453815 66.1204819,44.7550201 L59.5983936,61.2851406 C52.1767068,56.562249 42.9558233,53.188755 34.184739,53.188755 C28.2248996,53.188755 24.2891566,56 24.2891566,59.5983936 C24.4016064,71.2931727 68.3694779,64.8835341 68.8192771,93.4457831 C68.8192771,108.963855 55.6626506,119.871486 36.7710843,119.871486 C22.939759,119.871486 10.2329317,116.610442 0.562248996,109.638554" id="Path"></path>
                <path d="M268.080321,87.5983936 C264.594378,93.6706827 258.072289,97.8313253 250.538153,97.8313253 C239.405622,97.8313253 230.409639,88.8353414 230.409639,77.7028112 C230.409639,66.5702811 239.405622,57.5742972 250.538153,57.5742972 C258.072289,57.5742972 264.594378,61.7349398 268.080321,67.8072289 L287.309237,57.124498 C280.11245,44.3052209 266.281124,35.5341365 250.538153,35.5341365 C227.261044,35.5341365 208.369478,54.4257028 208.369478,77.7028112 C208.369478,100.97992 227.261044,119.871486 250.538153,119.871486 C266.393574,119.871486 280.11245,111.212851 287.309237,98.2811245 L268.080321,87.5983936 Z" id="Path"></path>
                <rect id="Rectangle" x="78.4899598" y="0.562248996" width="24.064257" height="117.73494"></rect>
                <polygon id="Path" points="296.75502 0.562248996 296.75502 118.297189 320.819277 118.297189 320.819277 82.9879518 349.381526 118.297189 380.192771 118.297189 343.871486 76.3534137 377.493976 37.2208835 348.032129 37.2208835 320.819277 69.7188755 320.819277 0.562248996"></polygon>
                <path d="M174.072289,87.8232932 C170.586345,93.5582329 163.389558,97.8313253 155.293173,97.8313253 C144.160643,97.8313253 135.164659,88.8353414 135.164659,77.7028112 C135.164659,66.5702811 144.160643,57.5742972 155.293173,57.5742972 C163.389558,57.5742972 170.586345,62.0722892 174.072289,67.9196787 L174.072289,87.8232932 Z M174.072289,37.2208835 L174.072289,46.7791165 C170.136546,40.1445783 160.353414,35.5341365 150.120482,35.5341365 C128.97992,35.5341365 112.337349,54.2008032 112.337349,77.5903614 C112.337349,100.97992 128.97992,119.871486 150.120482,119.871486 C160.353414,119.871486 170.136546,115.261044 174.072289,108.626506 L174.072289,118.184739 L198.136546,118.184739 L198.136546,37.2208835 L174.072289,37.2208835 Z" id="Shape"></path>
            </g>
            <g id="Group">
                <g transform="translate(0.000000, 74.216867)" fill="#E01E5A" id="Path">
                    <path d="M30.5863454,15.7429719 C30.5863454,23.9518072 23.9518072,30.5863454 15.7429719,30.5863454 C7.53413655,30.5863454 0.899598394,23.9518072 0.899598394,15.7429719 C0.899598394,7.53413655 7.53413655,0.899598394 15.7429719,0.899598394 L30.5863454,0.899598394 L30.5863454,15.7429719 Z"></path>
                    <path d="M38.0080321,15.7429719 C38.0080321,7.53413655 44.6425703,0.899598394 52.8514056,0.899598394 C61.060241,0.899598394 67.6947791,7.53413655 67.6947791,15.7429719 L67.6947791,52.8514056 C67.6947791,61.060241 61.060241,67.6947791 52.8514056,67.6947791 C44.6425703,67.6947791 38.0080321,61.060241 38.0080321,52.8514056 L38.0080321,15.7429719 Z"></path>
                </g>
                <g fill="#36C5F0" id="Path">
                    <path d="M52.8514056,30.3614458 C44.6425703,30.3614458 38.0080321,23.7269076 38.0080321,15.5180723 C38.0080321,7.30923695 44.6425703,0.674698795 52.8514056,0.674698795 C61.060241,0.674698795 67.6947791,7.30923695 67.6947791,15.5180723 L67.6947791,30.3614458 L52.8514056,30.3614458 Z"></path>
                    <path d="M52.8514056,37.8955823 C61.060241,37.8955823 67.6947791,44.5301205 67.6947791,52.7389558 C67.6947791,60.9477912 61.060241,67.5823293 52.8514056,67.5823293 L15.6305221,67.5823293 C7.42168675,67.5823293 0.787148594,60.9477912 0.787148594,52.7389558 C0.787148594,44.5301205 7.42168675,37.8955823 15.6305221,37.8955823 L52.8514056,37.8955823 Z"></path>
                </g>
                <g transform="translate(75.216867, 0.000000)" fill="#2EB67D" id="Path">
                    <path d="M37.1204819,52.7389558 C37.1204819,44.5301205 43.7550201,37.8955823 51.9638554,37.8955823 C60.1726908,37.8955823 66.8072289,44.5301205 66.8072289,52.7389558 C66.8072289,60.9477912 60.1726908,67.5823293 51.9638554,67.5823293 L37.1204819,67.5823293 L37.1204819,52.7389558 Z"></path>
                    <path d="M29.6987952,52.7389558 C29.6987952,60.9477912 23.064257,67.5823293 14.8554217,67.5823293 C6.64658635,67.5823293 0.0120481928,60.9477912 0.0120481928,52.7389558 L0.0120481928,15.5180723 C0.0120481928,7.30923695 6.64658635,0.674698795 14.8554217,0.674698795 C23.064257,0.674698795 29.6987952,7.30923695 29.6987952,15.5180723 L29.6987952,52.7389558 Z"></path>
                </g>
                <g transform="translate(75.216867, 74.216867)" fill="#ECB22E" id="Path">
                    <path d="M14.8554217,38.0080321 C23.064257,38.0080321 29.6987952,44.6425703 29.6987952,52.8514056 C29.6987952,61.060241 23.064257,67.6947791 14.8554217,67.6947791 C6.64658635,67.6947791 0.0120481928,61.060241 0.0120481928,52.8514056 L0.0120481928,38.0080321 L14.8554217,38.0080321 Z"></path>
                    <path d="M14.8554217,30.5863454 C6.64658635,30.5863454 0.0120481928,23.9518072 0.0120481928,15.7429719 C0.0120481928,7.53413655 6.64658635,0.899598394 14.8554217,0.899598394 L52.0763052,0.899598394 C60.2851406,0.899598394 66.9196787,7.53413655 66.9196787,15.7429719 C66.9196787,23.9518072 60.2851406,30.5863454 52.0763052,30.5863454 L14.8554217,30.5863454 Z"></path>
                </g>
            </g>
        </g>
    </g>
</svg>