<svg enable-background="new 0 0 600 400" height="400" viewBox="0 0 600 400" width="600" xmlns="http://www.w3.org/2000/svg"><g fill="#111"><path d="m0 140.8v-.5.9zm280.7 8.3c-6.3-5.5-14.4-8.5-22.8-8.5-19.2 0-34.8 15.6-34.8 34.8v67.4c0 1.2 1 2.2 2.3 2.3h19.5c1.2 0 2.2-1 2.2-2.3v-67.4c0-6 4.8-10.8 10.8-10.8s10.8 4.8 10.8 10.8v4.4-.4.9 62.4c0 1.2 1 2.2 2.3 2.3h19.5c1.2 0 2.2-1 2.2-2.3v-67.3c0-6 4.8-10.8 10.8-10.8s10.8 4.8 10.8 10.8v67.4c0 1.2 1 2.2 2.3 2.3h19.5c1.2 0 2.2-1 2.2-2.3v-67.4c0-8.4-3-16.5-8.5-22.8-12.6-14.6-34.6-16.1-49.1-3.5zm91.3-8.4h-19.7c-1.2 0-2.2 1-2.3 2.3v99.7c0 1.2 1 2.2 2.3 2.3h19.7c1.2 0 2.2-1 2.3-2.3v-99.7c0-1.2-1-2.3-2.3-2.3zm228 58.6v-54.4c0-2.3-1.8-4.4-4.7-4.4h-30c-8.7 0-16.5 3.7-22.8 8.5-6.4 4.9-11.1 14.4-12 25.2-.2 2.4 0 6.1 0 6.1v6.2c0 .2-.1.4-.1.6v24c0 19.2 15.6 34.8 34.8 34.8 8.7 0 16.5-3.7 22.8-8.5 6.4-4.9 11.1-14.3 12-25.2.2-2.4 0-6.1 0-6.1v-6.2c-.1-.2 0-.4 0-.6zm-24.1-12.2v24c0 6-4.8 10.8-10.8 10.8s-10.8-4.8-10.8-10.8v-11.2c0-.2.1-.4.1-.6v-24c0-6 4.8-10.8 10.8-10.8h10.8v22c-.1.2-.1.4-.1.6zm-60.6-46.5h-30.1c-8.7 0-16.5 3.7-22.8 8.5-6.4 4.9-11.1 14.4-12 25.2-.2 2.4 0 6.1 0 6.1v6.2c0 .2-.1.4-.1.6v24c0 19.2 15.6 34.8 34.8 34.8 8.7 0 16.5-3.7 22.8-8.5 6.4-4.9 11.1-14.3 12-25.2.2-2.4 0-6.1 0-6.1v-6.2c0-.2.1-.4.1-.6v-54.4c0-2.4-1.8-4.4-4.7-4.4zm-19.3 45.9c0 .2-.1.4-.1.6v24c0 6-4.8 10.8-10.8 10.8s-10.8-4.8-10.8-10.8v-11.2c0-.2.1-.4.1-.6v-24c0-6 4.8-10.8 10.8-10.8h10.8zm-317.3-46.2h-1.2-21.2c-1.2 0-2.2 1-2.3 2.2v19.3c0 1.2 1 2.2 2.3 2.2h21.3c.3.1.6.1 1 .1 6 0 10.8 4.8 10.8 11.1h-14.5c-19.2 0-34.8 15.6-34.8 34.8 0 8.7 3.7 16.5 8.5 22.8 4.9 6.4 14.3 11.1 25.2 12 2.4.2 6.1 0 6.1 0h19c.3 0 .6-.1.9-.2h11.4c1.2 0 2.2-1 2.2-2.3v-67.4c.1-19.1-15.5-34.6-34.7-34.6zm10.8 80.6h-14.5c-6 0-10.8-4.8-10.8-10.8s4.8-10.8 10.8-10.8h14.5zm-99.8-80.2h-19.7c-1.2 0-2.2 1-2.3 2.3v99.7c0 1.2 1 2.2 2.3 2.3h19.7c1.2 0 2.2-1 2.3-2.3v-99.7c-.1-1.3-1.1-2.3-2.3-2.3zm-37.5-.3h-50c-1.2 0-2.2 1-2.2 2.3v19.7c0 1.2 1 2.2 2.3 2.3h12.9v45c0 22.9 14.8 35.3 32.4 35.3.4 0 2.2-.1 2.2-2.5 0-4.3.1-14.6.1-19.6.1-1.4-1-2.7-2.4-2.8-4.3 0-9.2-1.8-9.2-12.6v-42.8h13.9c1.2 0 2.2-1 2.3-2.3v-19.7c0-1.2-1.1-2.3-2.3-2.3zm91.1 21.1v-18.4c0-1.3-.8-2.7-2.7-2.9h-.9c-19.2 0-34.8 15.6-34.8 34.8v67.4c0 1.2 1 2.2 2.2 2.3h19.5c1.2 0 2.2-1 2.3-2.3v-67.4c0-6 4.8-10.8 10.8-10.8 2.2 0 3.6-1.4 3.6-2.7zm301.7-20.8h-56c-1.2 0-2.2 1-2.3 2.3v17.4c0 1.2 1 2.2 2.3 2.3h23.7l-30.4 78.8c-1.2 1.9-.3 3.5 1.9 3.5h56.8c1.2 0 2.3-1 2.3-2.3v-18.5c0-1.2-1-2.3-2.3-2.3h-25l30.9-77.7c1.2-1.8.3-3.5-1.9-3.5z"/><path d="m441.6 255.8h12.9c4.4 0 7.8 1.6 10.2 4.7 2.1 2.8 3.2 6.5 3.2 10.9 0 3.4-.6 6.5-1.9 9.3-2.2 4.9-6.1 7.3-11.5 7.3h-12.9zm12 28.6c1.5 0 2.6-.1 3.6-.4 1.6-.6 3-1.7 4.1-3.3.9-1.3 1.5-3 1.8-5 .2-1.2.3-2.3.3-3.4 0-4-.8-7.1-2.3-9.3s-4-3.3-7.5-3.3h-7.6v24.8zm34.3-19.2c1.6.8 2.7 1.8 3.6 3 .8 1.2 1.3 2.6 1.6 4.2.2 1.1.3 2.8.3 5.2h-17.1c.1 2.4.6 4.3 1.7 5.8 1 1.5 2.7 2.2 4.9 2.2 2.1 0 3.7-.7 4.9-2.1.7-.8 1.2-1.7 1.5-2.8h3.9c-.1.9-.4 1.8-1 2.9-.6 1-1.2 1.9-1.9 2.6-1.2 1.2-2.7 1.9-4.4 2.4-.9.2-2 .3-3.2.3-2.9 0-5.4-1-7.4-3.2s-3-5.1-3-9c0-3.8 1-6.9 3.1-9.2 2-2.4 4.7-3.5 8-3.5 1.3 0 2.9.4 4.5 1.2zm1.4 9.3c-.1-1.7-.5-3.1-1.1-4.1-1.1-1.9-2.9-2.8-5.4-2.8-1.8 0-3.3.6-4.5 1.9s-1.9 3-1.9 5zm9.2-18.7h3.9v32.3h-3.9zm9.9 0h4v4.5h-4zm0 8.9h4v23.4h-4zm11.9-.1 6.3 19.2 6.6-19.2h4.3l-8.8 23.5h-4.2l-8.7-23.5zm35.1.6c1.6.8 2.7 1.8 3.6 3 .8 1.2 1.3 2.6 1.6 4.2.2 1.1.3 2.8.3 5.2h-17.1c.1 2.4.6 4.3 1.7 5.8 1 1.5 2.7 2.2 4.9 2.2 2.1 0 3.7-.7 4.9-2.1.7-.8 1.2-1.7 1.5-2.8h3.9c-.1.9-.4 1.8-1 2.9-.6 1-1.2 1.9-1.9 2.6-1.2 1.2-2.7 1.9-4.4 2.4-.9.2-2 .3-3.2.3-2.9 0-5.4-1-7.4-3.2-2-2.1-3-5.1-3-9 0-3.8 1-6.9 3.1-9.2 2-2.4 4.7-3.5 8-3.5 1.3 0 2.9.4 4.5 1.2zm1.4 9.3c-.1-1.7-.5-3.1-1.1-4.1-1.1-1.9-2.9-2.8-5.4-2.8-1.8 0-3.3.6-4.5 1.9s-1.9 3-1.9 5zm9.2-9.9h3.7v4c.3-.8 1-1.8 2.2-2.9s2.6-1.7 4.2-1.7h.4c.2 0 .5 0 .9.1v4.2c-.2 0-.4-.1-.6-.1s-.4 0-.6 0c-2 0-3.5.6-4.6 1.9s-1.6 2.8-1.6 4.5v13.5h-4zm29.6 0h4.4c-.6 1.5-1.8 4.9-3.7 10.3-1.4 4-2.6 7.3-3.6 9.9-2.3 6-3.9 9.7-4.8 11s-2.5 2-4.8 2c-.6 0-1 0-1.3-.1s-.7-.1-1.1-.2v-3.6c.7.2 1.2.3 1.5.3s.6.1.8.1c.7 0 1.3-.1 1.6-.4s.6-.5.9-.9c.1-.1.3-.7.8-1.8s.8-1.9 1-2.4l-8.7-24.2h4.5l6.3 19.2z"/></g></svg>