<?xml version="1.0" encoding="UTF-8"?>
<svg width="600px" height="400px" viewBox="0 0 600 400" version="1.1" xmlns="http://www.w3.org/2000/svg" xmlns:xlink="http://www.w3.org/1999/xlink">
    <!-- Generator: Sketch 55.2 (78181) - https://sketchapp.com -->
    <title>Artboard</title>
    <desc>Created with Sketch.</desc>
    <defs>
        <linearGradient x1="114.720775%" y1="181.283245%" x2="39.5399306%" y2="100%" id="linearGradient-1">
            <stop stop-color="#FFFFFF" offset="0%"></stop>
            <stop stop-color="#000000" offset="100%"></stop>
        </linearGradient>
    </defs>
    <g id="Artboard" stroke="none" stroke-width="1" fill="none" fill-rule="evenodd">
        <rect fill="#FFFFFF" x="0" y="0" width="600" height="400"></rect>
        <g id="zeit-black-full-logo" transform="translate(20.000000, 144.000000)" fill-rule="nonzero">
            <polygon id="Triangle" fill="url(#linearGradient-1)" points="62.066553 0 124.133106 110.116489 0 110.116489"></polygon>
            <path d="M208.782609,82.7826087 L258.573913,82.7826087 L258.573913,74.1391304 L221.2,74.1391304 L257.965217,21.6695652 L257.965217,14.1217391 L209.391304,14.1217391 L209.391304,22.7652174 L245.547826,22.7652174 L208.782609,75.2347826 L208.782609,82.7826087 Z M310.678261,82.7826087 L355.356522,82.7826087 L355.356522,74.1391304 L320.782609,74.1391304 L320.782609,52.1043478 L350.852174,52.1043478 L350.852174,43.4608696 L320.782609,43.4608696 L320.782609,22.7652174 L355.356522,22.7652174 L355.356522,14.1217391 L310.678261,14.1217391 L310.678261,82.7826087 Z M409.165217,82.7826087 L452.747826,82.7826087 L452.747826,74.1391304 L436.069565,74.1391304 L436.069565,22.7652174 L452.747826,22.7652174 L452.747826,14.1217391 L409.165217,14.1217391 L409.165217,22.7652174 L425.965217,22.7652174 L425.965217,74.1391304 L409.165217,74.1391304 L409.165217,82.7826087 Z M524.452174,82.7826087 L534.556522,82.7826087 L534.556522,22.7652174 L557.930435,22.7652174 L557.930435,14.1217391 L501.321739,14.1217391 L501.321739,22.7652174 L524.452174,22.7652174 L524.452174,82.7826087 Z" id="ZEIT" fill="#333333"></path>
        </g>
    </g>
</svg>