<svg width="70" height="133" viewBox="0 0 70 133" fill="none" xmlns="http://www.w3.org/2000/svg">
<path d="M27.877 93.343C18.8931 91.2785 11.095 85.7347 6.19337 77.9279C1.29171 70.1212 -0.313207 60.6889 1.73069 51.7003C1.86554 51.1084 2.23001 50.5942 2.74393 50.271C3.25785 49.9478 3.87912 49.842 4.47107 49.9768C5.06301 50.1117 5.57715 50.4761 5.90037 50.99C6.22358 51.504 6.32941 52.1252 6.19456 52.7172C4.57351 60.4629 6.05747 68.5354 10.3272 75.1981C14.597 81.8609 21.3113 86.5816 29.0259 88.3447C36.7405 90.1077 44.8389 88.7723 51.579 84.6257C58.3191 80.4791 63.1623 73.8526 65.0668 66.1717C65.2068 65.5862 65.5722 65.0796 66.0835 64.762C66.5949 64.4443 67.2109 64.3413 67.7978 64.4752C68.3847 64.6092 68.895 64.9693 69.218 65.4773C69.5409 65.9854 69.6503 66.6003 69.5224 67.1885C67.4604 76.1749 61.9171 83.9759 54.1093 88.8794C46.3015 93.7829 36.8672 95.3883 27.877 93.343Z" fill="#BDD35E"/>
<path d="M31.4408 77.7553C25.995 76.5069 21.2669 73.1487 18.2945 68.4179C15.322 63.6871 14.348 57.9702 15.5863 52.522L23.653 17.2594C24.8981 11.813 28.2559 7.08425 32.9875 4.11351C35.3304 2.64255 37.94 1.64746 40.6675 1.18505C43.3949 0.722639 46.1867 0.801967 48.8835 1.4185C51.5803 2.03504 54.1293 3.17671 56.3848 4.77833C58.6404 6.37995 60.5584 8.41016 62.0294 10.753C63.5003 13.0959 64.4954 15.7056 64.9578 18.433C65.4202 21.1605 65.3409 23.9523 64.7244 26.6491L56.6604 61.9117C55.4101 67.353 52.0531 72.0764 47.3255 75.0464C42.5979 78.0164 36.8855 78.9906 31.4408 77.7553ZM47.8776 5.86324C43.6125 4.89277 39.1367 5.6538 35.4321 7.97938C31.7274 10.3049 29.0966 14.0051 28.1168 18.268L20.0529 53.5416C19.0778 57.807 19.8371 62.2851 22.1637 65.9907C24.4903 69.6963 28.1936 72.3259 32.4591 73.301C36.7245 74.2761 41.2026 73.5168 44.9082 71.1902C48.6138 68.8636 51.2433 65.1602 52.2184 60.8948L60.2824 25.6322C61.2561 21.3655 60.4967 16.8869 58.1708 13.1798C55.8449 9.47264 52.1429 6.84018 47.8776 5.8605V5.86324Z" fill="#BDD35E"/>
<path d="M37.7363 132.942C37.1464 132.806 36.6343 132.442 36.312 131.93C35.9898 131.418 35.8837 130.799 36.0169 130.208C36.437 128.371 36.1104 126.442 35.1087 124.846C34.1071 123.25 32.5125 122.117 30.6756 121.696L13.0278 117.661C11.1908 117.242 9.26243 117.569 7.66671 118.572C6.071 119.574 4.93856 121.168 4.51834 123.005C4.45418 123.3 4.33212 123.58 4.15924 123.828C3.98635 124.076 3.76605 124.286 3.5111 124.449C3.25615 124.611 2.9716 124.72 2.67391 124.772C2.37622 124.823 2.0713 124.815 1.77677 124.748C1.48225 124.681 1.20398 124.556 0.958056 124.38C0.71213 124.205 0.50343 123.982 0.344028 123.726C0.184626 123.469 0.0776822 123.183 0.0293887 122.885C-0.0189048 122.587 -0.00758955 122.282 0.0626737 121.988C0.755845 118.971 2.61758 116.352 5.23938 114.706C7.86118 113.06 11.0289 112.522 14.0475 113.208L31.6842 117.24C34.7034 117.932 37.3248 119.793 38.9726 122.416C40.6204 125.038 41.1599 128.208 40.4726 131.228C40.4055 131.52 40.2815 131.796 40.1077 132.04C39.9339 132.285 39.7136 132.492 39.4595 132.652C39.2054 132.811 38.9224 132.918 38.6268 132.968C38.3311 133.018 38.0285 133.009 37.7363 132.942Z" fill="#BDD35E"/>
<path d="M22.0898 118.654C21.4997 118.519 20.9873 118.156 20.6653 117.643C20.3434 117.13 20.2383 116.511 20.3731 115.921L26.0042 91.286C26.063 90.9855 26.1817 90.6999 26.3531 90.4461C26.5244 90.1924 26.7451 89.9757 27.0018 89.8088C27.2586 89.642 27.5463 89.5285 27.8478 89.475C28.1493 89.4215 28.4584 89.4292 28.7569 89.4975C29.0554 89.5659 29.3371 89.6935 29.5853 89.8729C29.8335 90.0522 30.0431 90.2796 30.2017 90.5415C30.3603 90.8035 30.4646 91.0946 30.5085 91.3976C30.5524 91.7007 30.5349 92.0095 30.4571 92.3056L24.8261 116.938C24.6906 117.528 24.3263 118.04 23.8132 118.362C23.3001 118.684 22.6803 118.789 22.0898 118.654Z" fill="#BDD35E"/>
</svg>
