<?xml version="1.0" encoding="UTF-8"?>
<svg width="338px" height="271px" viewBox="0 0 338 271" version="1.1" xmlns="http://www.w3.org/2000/svg" xmlns:xlink="http://www.w3.org/1999/xlink">
    <!-- Generator: Sketch 43.2 (39069) - http://www.bohemiancoding.com/sketch -->
    <title>gdansk-ecs</title>
    <desc>Created with Sketch.</desc>
    <defs>
        <linearGradient x1="18.9370926%" y1="50.886121%" x2="102.99679%" y2="49.5343276%" id="linearGradient-1">
            <stop stop-color="#62466A" offset="0%"></stop>
            <stop stop-color="#2B1C34" offset="100%"></stop>
        </linearGradient>
        <linearGradient x1="9645%" y1="1909.04522%" x2="12677%" y2="1843.12521%" id="linearGradient-2">
            <stop stop-color="#62466A" offset="0%"></stop>
            <stop stop-color="#2B1C34" offset="100%"></stop>
        </linearGradient>
        <linearGradient x1="2025%" y1="2568.56387%" x2="5164%" y2="2512.12208%" id="linearGradient-3">
            <stop stop-color="#62466A" offset="0%"></stop>
            <stop stop-color="#2B1C34" offset="100%"></stop>
        </linearGradient>
        <linearGradient x1="-7.78879076%" y1="49.6612714%" x2="92.5198659%" y2="50.5790502%" id="linearGradient-4">
            <stop stop-color="#3E2E4A" offset="0%"></stop>
            <stop stop-color="#2B1C34" offset="100%"></stop>
        </linearGradient>
        <linearGradient x1="16513%" y1="15338%" x2="16513%" y2="14405%" id="linearGradient-5">
            <stop stop-color="#3E2E4A" offset="0%"></stop>
            <stop stop-color="#2B1C34" offset="100%"></stop>
        </linearGradient>
        <linearGradient x1="12467%" y1="14837%" x2="12467%" y2="14124%" id="linearGradient-6">
            <stop stop-color="#3E2E4A" offset="0%"></stop>
            <stop stop-color="#2B1C34" offset="100%"></stop>
        </linearGradient>
        <linearGradient x1="9587%" y1="15104%" x2="9587%" y2="13784%" id="linearGradient-7">
            <stop stop-color="#3E2E4A" offset="0%"></stop>
            <stop stop-color="#2B1C34" offset="100%"></stop>
        </linearGradient>
        <linearGradient x1="5926%" y1="14124%" x2="5926%" y2="13110%" id="linearGradient-8">
            <stop stop-color="#3E2E4A" offset="0%"></stop>
            <stop stop-color="#2B1C34" offset="100%"></stop>
        </linearGradient>
        <linearGradient x1="0.189796493%" y1="29.086082%" x2="99.8542774%" y2="62.6948688%" id="linearGradient-9">
            <stop stop-color="#669933" offset="0%"></stop>
            <stop stop-color="#BDDB59" offset="100%"></stop>
        </linearGradient>
        <linearGradient x1="5926%" y1="2277%" x2="26451%" y2="2277%" id="linearGradient-10">
            <stop stop-color="#3E2E4A" offset="0%"></stop>
            <stop stop-color="#2B1C34" offset="100%"></stop>
        </linearGradient>
        <linearGradient x1="3845%" y1="3508%" x2="14747%" y2="3508%" id="linearGradient-11">
            <stop stop-color="#3E2E4A" offset="0%"></stop>
            <stop stop-color="#2B1C34" offset="100%"></stop>
        </linearGradient>
        <linearGradient x1="0.744606697%" y1="43.5574333%" x2="101.086337%" y2="43.5574333%" id="linearGradient-12">
            <stop stop-color="#A3C74E" offset="0%"></stop>
            <stop stop-color="#BDDB59" offset="100%"></stop>
        </linearGradient>
        <linearGradient x1="50.7836449%" y1="54.7208627%" x2="46.7770261%" y2="30.5694813%" id="linearGradient-13">
            <stop stop-color="#669933" offset="0%"></stop>
            <stop stop-color="#2B1C34" offset="100%"></stop>
        </linearGradient>
        <linearGradient x1="49.1819335%" y1="99.6084972%" x2="50.7462992%" y2="-1.1418767%" id="linearGradient-14">
            <stop stop-color="#2B1C34" stop-opacity="0.9" offset="0%"></stop>
            <stop stop-color="#3EA14A" stop-opacity="0.5" offset="40%"></stop>
            <stop stop-color="#ECEFF1" offset="100%"></stop>
        </linearGradient>
    </defs>
    <g id="Page-1" stroke="none" stroke-width="1" fill="none" fill-rule="evenodd">
        <g id="gdansk-ecs" transform="translate(-1.000000, 0.000000)" fill-rule="nonzero">
            <path d="M327.29,189.49 L324.08,190.69 L323.99,193.05 L188.41,245.16 L114,270.08 L112,270.08 C138.868208,271.443417 165.805378,270.019145 192.38,265.83 C279.7,252.33 331.93,222 338.27,204 C342.27,192.63 327.29,189.49 327.29,189.49 L327.29,189.49 Z" id="Shape" fill="#249FAB"></path>
            <path d="M188.41,245.16 L182.66,243.26 L175.43,246.88 L111.61,243.77 L111.17,239.43 L94.17,238.79 L91,241.33 L55,236.47 L54.35,230.13 L21.5,225.48 L21.12,219.93 L18.51,220.18 C14.9214861,221.936338 11.8074387,224.529091 9.43,227.74 C7.55243991,230.814174 7.03460009,234.529585 8,238 C12.3,248.1 50.15,266.73 112,270.07 L114,270.07 L188.41,245.16 Z" id="Shape" fill="#166E77"></path>
            <polygon id="Shape" fill="#BDDB59" points="21.12 219.94 21.5 225.49 54.35 230.14 55 236.48 91 241.34 94.14 238.79 111.14 239.43 111.58 243.77 175.4 246.88 182.63 243.26 188.38 245.16 324 193.05 324.09 190.69 327.3 189.49 330.54 145.75 253.13 135.23 246.54 135.73 247.34 114.63 206.9 113.1 41.9 115.36 41.66 121.74 20.66 126.42 23.66 152.49 1 162.47 10.34 219.87 18.54 220.18"></polygon>
            <polygon id="Shape" fill="url(#linearGradient-1)" points="159.16 172.26 177.54 169 182.66 243.26 175.43 246.88 174.35 238.12 167.45 239.68"></polygon>
            <polygon id="Shape" fill="#2B1C34" points="92.1 168.28 159.16 172.26 167.45 239.68 105.46 234.66 92.1 168.28"></polygon>
            <polygon id="Shape" fill="url(#linearGradient-2)" points="101.29 166.89 101.38 164.46 76.77 167.7 91.33 233.13 104.93 232.05 92.1 168.28"></polygon>
            <polygon id="Shape" fill="#2B1C34" points="16.21 164.43 76.77 167.7 91.33 233.13 31.19 222.79 16.21 164.43"></polygon>
            <polygon id="Shape" fill="url(#linearGradient-3)" points="26.85 162.86 26.85 160.73 0.97 162.47 18.51 220.18 30.23 219.07 16.21 164.43 26.85 162.86"></polygon>
            <polygon id="Shape" fill="#2B1C34" points="10.31 219.87 18.51 220.18 0.97 162.47"></polygon>
            <polygon id="Shape" fill="url(#linearGradient-4)" points="177.54 169 195.93 171.24 193.34 239.52 188.68 238.04 188.41 245.16 182.66 243.26"></polygon>
            <polygon id="Shape" fill="url(#linearGradient-5)" points="175.43 246.88 111.61 243.76 110.72 235.09 167.45 239.68 174.35 238.12 175.43 246.88"></polygon>
            <polygon id="Shape" fill="url(#linearGradient-6)" points="111.17 239.42 94.16 238.78 94.38 232.89 104.93 232.05 105.46 234.66 110.72 235.09 111.17 239.42"></polygon>
            <polygon id="Shape" fill="url(#linearGradient-7)" points="94.16 238.78 91.02 241.33 55 236.47 54 226.72 91.33 233.13 94.38 232.89 94.16 238.78"></polygon>
            <polygon id="Shape" fill="url(#linearGradient-8)" points="54.35 230.13 21.51 225.48 21.12 219.94 30.23 219.07 31.19 222.79 54 226.72"></polygon>
            <polygon id="Shape" fill="url(#linearGradient-9)" points="330.52 145.75 253.11 135.23 23.68 152.5 0.97 162.47 26.85 160.73 26.85 162.86 16.21 164.43 76.77 167.7 101.38 164.46 101.29 166.89 92.1 168.28 159.16 172.26 177.54 169 195.93 171.24 330.52 145.75"></polygon>
            <polygon id="Shape" fill="url(#linearGradient-10)" points="130.12 116.58 247.32 114.63 206.9 113.1 41.89 115.37 130.12 116.58"></polygon>
            <polygon id="Shape" fill="url(#linearGradient-11)" points="41.65 121.75 20.65 126.42 129.88 122.96 41.65 121.75"></polygon>
            <polygon id="Shape" fill="#2B1C34" points="129.88 122.96 130.12 116.58 41.89 115.37 41.65 121.75 129.88 122.96"></polygon>
            <polyline id="Shape" fill="url(#linearGradient-12)" points="247.32 114.63 130.12 116.58 129.88 122.96 20.65 126.42 23.68 152.5 246.52 135.73 247.32 114.63"></polyline>
            <polygon id="Shape" fill="url(#linearGradient-13)" points="188.68 238.04 188.41 245.16 323.99 193.05 324.08 190.69 193.34 239.52 188.68 238.04"></polygon>
            <polygon id="Shape" fill="#BDDB59" points="330.52 145.75 327.29 189.49 193.34 239.52 195.93 171.24"></polygon>
            <polygon id="Shape" fill="url(#linearGradient-14)" opacity="0.5" style="mix-blend-mode: multiply;" points="327.3 189.54 195.94 171.29 253.12 135.29 246.53 135.79 130.13 116.64 206.92 113.16 41.92 115.42 41.68 121.8 20.68 126.48 23.68 152.55 1 162.52 10.34 219.92 18.54 220.23 21.14 219.93 21.52 225.48 54.37 230.13 55.02 236.47 91.02 241.33 94.16 238.78 111.16 239.42 111.6 243.76 175.42 246.87 182.65 243.25 188.4 245.15 324 193.05 324.09 190.69"></polygon>
            <polygon id="Shape" fill="#BDDB59" opacity="0.5" points="31.32 78.028 35.373 82.078 31.321 86.131 27.271 82.081"></polygon>
            <polygon id="Shape" fill="#BDDB59" style="mix-blend-mode: color-dodge;" points="29.137 82.08 31.329 79.89 33.519 82.08 31.329 84.273"></polygon>
            <polygon id="Shape" fill="#BDDB59" points="31.33 79.887 33.52 82.079 31.33 84.269 29.137 82.079"></polygon>
            <polygon id="Shape" fill="#BDDB59" opacity="0.5" points="118.12 15.638 122.567 20.086 118.119 24.533 113.669 20.086"></polygon>
            <polygon id="Shape" fill="#BDDB59" style="mix-blend-mode: color-dodge;" points="115.72 20.084 118.126 17.68 120.53 20.084 118.126 22.488"></polygon>
            <polygon id="Shape" fill="#BDDB59" points="118.126 17.68 120.53 20.086 118.126 22.49 115.722 20.086"></polygon>
            <polygon id="Shape" fill="#BDDB59" opacity="0.5" points="123.693 0.134 129.251 5.692 123.694 11.25 118.136 5.692"></polygon>
            <polygon id="Shape" fill="#BDDB59" style="mix-blend-mode: color-dodge;" points="120.687 5.694 123.692 2.689 126.697 5.693 123.692 8.698"></polygon>
            <polygon id="Shape" fill="#BDDB59" points="123.686 2.687 126.691 5.692 123.687 8.697 120.682 5.692"></polygon>
            <polygon id="Shape" fill="#BDDB59" opacity="0.5" points="12.33 79.25 2.61 75.87 1.64 65.63 11.36 69.01"></polygon>
            <polygon id="Shape" fill="#BDDB59" style="mix-blend-mode: color-dodge;" points="4.62 74.29 4.09 68.75 9.35 70.58 9.88 76.12 4.62 74.29"></polygon>
            <polygon id="Shape" fill="#BDDB59" points="9.88 76.12 4.62 74.29 4.09 68.75 9.35 70.58 9.88 76.12"></polygon>
            <polygon id="Shape" fill="#BDDB59" opacity="0.5" points="152.25 47.54 146.26 48.02 143.32 42.78 149.31 42.29 152.25 47.54"></polygon>
            <polygon id="Shape" fill="#BDDB59" style="mix-blend-mode: color-dodge;" points="146.96 46.71 145.37 43.87 148.61 43.61 150.2 46.45"></polygon>
            <polygon id="Shape" fill="#BDDB59" points="150.2 46.45 146.96 46.71 145.37 43.87 148.61 43.61"></polygon>
            <polygon id="Shape" fill="#BDDB59" opacity="0.5" points="308.346 89.226 303.899 93.674 299.449 89.226 303.899 84.778"></polygon>
            <polygon id="Shape" fill="#BDDB59" style="mix-blend-mode: color-dodge;" points="301.49 89.224 303.894 86.82 306.298 89.224 303.894 91.628"></polygon>
            <polygon id="Shape" fill="#BDDB59" points="306.31 89.226 303.906 91.63 301.502 89.226 303.906 86.822"></polygon>
            <polygon id="Shape" fill="#BDDB59" opacity="0.5" points="303.91 74.84 298.353 80.398 292.795 74.84 298.353 69.282"></polygon>
            <polygon id="Shape" fill="#BDDB59" style="mix-blend-mode: color-dodge;" points="295.34 74.83 298.344 71.825 301.35 74.83 298.344 77.836"></polygon>
            <polygon id="Shape" fill="#BDDB59" points="301.35 74.84 298.346 77.845 295.34 74.84 298.346 71.834"></polygon>
            <polygon id="Shape" fill="#BDDB59" opacity="0.5" points="269.78 116.22 277.93 116.88 281.92 109.75 273.77 109.09"></polygon>
            <polygon id="Shape" fill="#BDDB59" style="mix-blend-mode: color-dodge;" points="276.97 115.09 279.13 111.23 274.73 110.88 272.57 114.73"></polygon>
            <polygon id="Shape" fill="#BDDB59" points="272.57 114.73 276.97 115.09 279.13 111.23 274.73 110.88"></polygon>
        </g>
    </g>
</svg>