<?xml version="1.0" encoding="UTF-8"?>
<svg width="600px" height="400px" viewBox="0 0 600 400" version="1.1" xmlns="http://www.w3.org/2000/svg" xmlns:xlink="http://www.w3.org/1999/xlink">
    <!-- Generator: Sketch 55.2 (78181) - https://sketchapp.com -->
    <title>Artboard</title>
    <desc>Created with Sketch.</desc>
    <g id="Artboard" stroke="none" stroke-width="1" fill="none" fill-rule="evenodd">
        <rect fill="#FFFFFF" x="0" y="0" width="600" height="400"></rect>
        <g id="codete_logo_color_dark" transform="translate(20.000000, 155.000000)" fill-rule="nonzero">
            <path d="M126.014933,0.0975 L157.542933,43.545 L125.936533,87.4125 L106.217067,87.4125 L137.618133,43.545 L117.936,16.12125 L126.014933,0.0975 Z M51.128,0.135 L19.9285333,43.60125 L39.7114667,71.25375 L31.5989333,87.4875 L0,43.60125 L31.3936,0.6975 C31.6624,0.33 31.808,0.14625 31.808,0.14625 L51.128,0.14625 L51.128,0.135 Z" id="Shape" fill="#37465D"></path>
            <path d="M81.928,87.46125 L62.4885333,87.45375 L106.280533,0.0975 L126.014933,0.0975 L81.928,87.46125 Z M51.1056,87.39 L31.5690667,87.42375 L75.4954667,0 L95.2224,0 L51.1056,87.39 Z" id="Shape" fill="#F15726"></path>
            <g id="Group" transform="translate(194.133333, 11.250000)" fill="#37465D">
                <path d="M35.0112,0.1275 C51.5162667,0.1275 59.0128,10.2525 59.0128,10.2525 L49.0186667,19.04625 C49.0186667,19.04625 44.4677333,12.76875 34.8357333,12.76875 C23.7813333,12.76875 15.6613333,21.285 15.6613333,32.3925 C15.6613333,43.59375 23.7813333,52.095 34.8357333,52.095 C45.0053333,52.095 49.9072,44.83875 49.9072,44.83875 L59.5392,53.4375 C59.5392,53.4375 51.7776,64.63875 34.5632,64.63875 C15.9152,64.63875 2.0048,50.745 2.0048,32.6475 C2.01226667,14.56125 16.3706667,0.1275 35.0112,0.1275 L35.0112,0.1275 Z M129.546667,32.21625 C129.546667,50.32125 115.188267,64.6575 96.5402667,64.6575 C77.8922667,64.6575 63.9818667,50.76375 63.9818667,32.66625 C63.9818667,14.56875 78.3402667,0.138743217 96.9882667,0.138743217 C115.625067,0.1275 129.546667,14.11125 129.546667,32.21625 Z M115.9872,32.3925 C115.9872,21.2775 107.7776,12.76875 96.8128,12.76875 C85.7584,12.76875 77.6384,21.285 77.6384,32.3925 C77.6384,43.59375 85.7584,52.095005 96.8128,52.095005 C107.7776,52.1025 115.9872,43.59375 115.9872,32.3925 Z M162.250667,1.0275 C182.321067,1.0275 196.5936,14.38125 196.5936,32.2125 C196.5936,50.04375 181.873067,63.75375 161.802667,63.75375 L139.947733,63.75375 L139.947733,1.0275 L162.250667,1.0275 Z M153.593067,51.92625 L162.512,51.92625 C174.4624,51.92625 183.0304,43.59375 183.0304,32.3925 C183.0304,21.18375 174.469867,12.945 162.512,12.945 L153.593067,12.945 L153.593067,51.92625 Z M207.778667,63.75375 L207.778667,1.0275 L253.721067,1.0275 L253.721067,12.9525 L221.424,12.9525 L221.424,25.93875 L249.256,25.93875 L249.256,37.05375 L221.424,37.05375 L221.424,51.92625 L254.6096,51.92625 L254.6096,63.75375 L207.778667,63.75375 Z M292.603733,12.9525 L292.603733,63.75375 L279.044267,63.75375 L279.044267,12.9525 L260.844267,12.9525 L260.844267,1.0275 L310.796267,1.0275 L310.796267,12.9525 L292.603733,12.9525 Z M319.035733,63.75375 L319.035733,1.0275 L364.978133,1.0275 L364.978133,12.9525 L332.681067,12.9525 L332.681067,25.93875 L360.513067,25.93875 L360.513067,37.05375 L332.681067,37.05375 L332.681067,51.92625 L365.866667,51.92625 L365.866667,63.75375 L319.035733,63.75375 Z" id="Shape"></path>
            </g>
        </g>
    </g>
</svg>