<?xml version="1.0" encoding="UTF-8"?>
<svg width="600px" height="400px" viewBox="0 0 600 400" version="1.1" xmlns="http://www.w3.org/2000/svg" xmlns:xlink="http://www.w3.org/1999/xlink">
    <!-- Generator: Sketch 55.2 (78181) - https://sketchapp.com -->
    <title>Artboard</title>
    <desc>Created with Sketch.</desc>
    <g id="Artboard" stroke="none" stroke-width="1" fill="none" fill-rule="evenodd">
        <rect fill="#FFFFFF" x="0" y="0" width="600" height="400"></rect>
        <g id="codete_navi_logo" transform="translate(20.000000, 155.000000)">
            <path d="M125.813333,0 L157.173333,43.5 L125.44,87.375 L105.653333,87.375 L137.013333,43.5 L117.226667,16.125 C117.6,16.125 125.813333,0 125.813333,0 Z M51.1466667,0 L19.7866667,43.5 L39.5733333,71.25 L31.36,87.375 L0,43.5 C0,43.5 27.6266667,5.625 31.36,0.75 L31.7333333,0 L51.1466667,0 Z" id="Shape" fill="#32465D"></path>
            <path d="M81.76,87.375 L62.3466667,87.375 L106.026667,0 L125.813333,0 L81.76,87.375 Z M51.1466667,87.375 L31.7333333,87.375 L75.4133333,0 L95.2,0 L51.1466667,87.375 Z" id="Shape" fill="#F15726"></path>
            <path d="M227.36,12 C243.786667,12 251.253333,22.125 251.253333,22.125 L241.173333,30.75 C241.173333,30.75 236.693333,24.375 226.986667,24.375 C215.786667,24.375 207.946667,33 207.946667,43.875 C207.946667,55.125 216.16,63.375 226.986667,63.375 C237.066667,63.375 241.92,56.25 241.92,56.25 L251.626667,64.875 C251.626667,64.875 243.786667,76.125 226.613333,76.125 C207.946667,76.125 194.133333,62.25 194.133333,44.25 C194.506667,26.25 209.066667,12 227.36,12 L227.36,12 Z M321.813333,43.875 C321.813333,61.875 307.626667,76.125 288.96,76.125 C270.293333,76.125 256.48,62.25 256.48,44.25 C256.48,26.25 270.666667,11.625 289.333333,11.625 C308,12 321.813333,25.875 321.813333,43.875 Z M308.373333,44.25 C308.373333,33 300.16,24.75 289.333333,24.75 C278.133333,24.75 270.293333,33.375 270.293333,44.25 C270.293333,55.5 278.506667,63.75 289.333333,63.75 C300.16,63.75 308.373333,55.5 308.373333,44.25 Z M354.666667,12.75 C374.826667,12.75 389.013333,26.25 389.013333,43.875 C389.013333,61.5 374.453333,75.375 354.293333,75.375 L332.266667,75.375 L332.266667,12.75 L354.666667,12.75 Z M346.08,63.75 L354.666667,63.75 C366.613333,63.75 375.2,55.5 375.2,44.25 C375.2,33 366.613333,24.75 354.666667,24.75 L345.706667,24.75 L346.08,63.75 L346.08,63.75 Z M399.84,75.375 L399.84,12.75 L445.76,12.75 L445.76,24.75 L413.653333,24.75 L413.653333,37.875 L441.28,37.875 L441.28,49.125 L413.653333,49.125 L413.653333,64.125 L446.88,64.125 L446.88,75.75 L399.84,75.375 L399.84,75.375 Z M484.586667,24.75 L484.586667,75.375 L471.146667,75.375 L471.146667,24.75 L452.853333,24.75 L452.853333,12.75 L502.88,12.75 L502.88,24.75 L484.586667,24.75 L484.586667,24.75 Z M511.093333,75.375 L511.093333,12.75 L557.013333,12.75 L557.013333,24.75 L524.906667,24.75 L524.906667,37.875 L552.533333,37.875 L552.533333,49.125 L524.906667,49.125 L524.906667,64.125 L558.133333,64.125 L558.133333,75.75 L511.093333,75.375 L511.093333,75.375 Z" id="Shape" fill="#32465D" fill-rule="nonzero"></path>
        </g>
    </g>
</svg>