<svg xmlns="http://www.w3.org/2000/svg" width="191" height="58">
  <g fill="#1d1e1c" fill-rule="evenodd">
    <path d="M17.55 28.95h11.5v11.49c-6.36 0-11.5-5.14-11.5-11.49zm11.5 19.3a19.3 19.3 0 1 1 0-38.6v19.3h19.3a19.3 19.3 0 0 1-19.3 19.3zm0-48.25A28.96 28.96 0 1 0 58 28.95 28.96 28.96 0 0 0 29.04 0zM76.6 33.35c.53 0 1.08-.1 1.62-.3a4.1 4.1 0 0 0 1.48-.92c.43-.42.79-.96 1.07-1.62.27-.65.41-1.44.41-2.36 0-.91-.14-1.7-.41-2.35a4.74 4.74 0 0 0-1.08-1.62 4.22 4.22 0 0 0-1.49-.93c-.55-.2-1.08-.3-1.6-.3-.53 0-1.07.1-1.61.3-.55.2-1.04.5-1.49.93-.44.42-.8.96-1.08 1.62a6.04 6.04 0 0 0-.41 2.35c0 .92.13 1.7.4 2.36.27.66.62 1.2 1.06 1.62.44.42.93.73 1.47.93.55.2 1.1.29 1.65.29zm0 2.66a8.58 8.58 0 0 1-2.91-.49 6.89 6.89 0 0 1-4.09-3.93 8.92 8.92 0 0 1-.6-3.44c0-1.3.2-2.43.63-3.41a7.04 7.04 0 0 1 4.1-3.94 8.29 8.29 0 0 1 5.73 0 7.04 7.04 0 0 1 4.1 3.94c.42.98.64 2.12.64 3.41 0 1.31-.2 2.46-.62 3.44a6.9 6.9 0 0 1-4.09 3.93c-.9.33-1.88.5-2.9.5zM86.58 20.95c0-.3.14-.44.43-.44h1.97c.3 0 .44.15.44.44v12.18h7.31c.3 0 .44.15.44.44v1.79c0 .29-.14.44-.44.44h-9.72c-.29 0-.43-.15-.43-.44V20.95M102.63 27.76l-4.04-6.72a.55.55 0 0 1-.09-.26c0-.18.11-.27.33-.27h2.38c.18 0 .3.02.39.07a.8.8 0 0 1 .25.26l2.46 4.17 2.5-4.17a.8.8 0 0 1 .25-.26c.08-.05.2-.07.38-.07h2.38c.22 0 .33.1.33.27 0 .07-.03.16-.09.26l-4.04 6.72 4.52 7.55c.06.08.09.16.09.25 0 .16-.1.24-.3.24h-2.67c-.2 0-.35-.04-.42-.11a1.72 1.72 0 0 1-.24-.33l-2.69-4.6-2.7 4.6-.24.33c-.08.07-.22.1-.42.1h-2.62c-.2 0-.3-.07-.3-.23 0-.1.02-.17.08-.25l4.52-7.55M122.75 28.09c0-.3.15-.44.44-.44h8.08c.3 0 .44.15.44.44v.33c0 1.12-.16 2.14-.48 3.07a6.87 6.87 0 0 1-1.39 2.4 6.27 6.27 0 0 1-2.2 1.57c-.86.37-1.82.55-2.9.55-1 0-1.97-.16-2.9-.48a7.17 7.17 0 0 1-4.24-3.92 8.46 8.46 0 0 1-.66-3.46c0-1.28.22-2.4.67-3.4a7.33 7.33 0 0 1 4.27-3.96 8.72 8.72 0 0 1 4.95-.24c.63.16 1.21.39 1.75.67a7.13 7.13 0 0 1 2.52 2.17c.07.1.1.2.1.31 0 .12-.07.25-.21.4l-1.36 1.2c-.13.11-.25.17-.37.17-.13 0-.25-.08-.37-.24a6.5 6.5 0 0 0-1.83-1.7 4.58 4.58 0 0 0-2.36-.57c-.62 0-1.2.1-1.77.33a4.37 4.37 0 0 0-2.57 2.58c-.27.65-.4 1.41-.4 2.28 0 .83.13 1.57.4 2.22.27.65.62 1.2 1.06 1.64.44.44.94.78 1.52 1a4.83 4.83 0 0 0 4.33-.41 3.64 3.64 0 0 0 1.36-2.28h-5.44c-.3 0-.44-.15-.44-.44v-1.8M140.23 26.28c.64 0 1.14-.13 1.5-.4.37-.26.55-.64.55-1.15 0-.51-.18-.9-.55-1.16-.36-.26-.86-.4-1.5-.4h-3.32v3.1h3.32zm-6.16-5.33c0-.3.14-.44.43-.44h5.57c1.62 0 2.87.37 3.76 1.12a3.84 3.84 0 0 1 1.33 3.12 3.87 3.87 0 0 1-2.52 3.78c-.5.2-1.04.34-1.6.41l4.7 6.37c.05.08.08.16.08.25 0 .16-.1.24-.28.24h-2.71c-.16 0-.28-.03-.35-.08a1.13 1.13 0 0 1-.24-.25l-4.8-6.53h-.53v6.42c0 .29-.15.44-.44.44h-1.97c-.29 0-.43-.15-.43-.44V20.95zM154.36 33.35c.54 0 1.08-.1 1.63-.3a4.1 4.1 0 0 0 1.47-.92c.44-.42.8-.96 1.07-1.62.28-.65.42-1.44.42-2.36 0-.91-.14-1.7-.42-2.35a4.75 4.75 0 0 0-1.08-1.62 4.2 4.2 0 0 0-1.48-.93c-.55-.2-1.08-.3-1.6-.3-.53 0-1.07.1-1.62.3-.54.2-1.04.5-1.48.93-.44.42-.8.96-1.08 1.62a6.03 6.03 0 0 0-.42 2.35c0 .92.14 1.7.4 2.36.28.66.63 1.2 1.07 1.62.43.42.93.73 1.47.93.55.2 1.1.29 1.65.29zm0 2.66a8.58 8.58 0 0 1-2.9-.49 6.9 6.9 0 0 1-4.09-3.93 8.93 8.93 0 0 1-.61-3.44c0-1.3.2-2.43.63-3.41a7.04 7.04 0 0 1 4.1-3.94 8.3 8.3 0 0 1 5.73 0 7.03 7.03 0 0 1 4.11 3.94c.42.98.63 2.12.63 3.41 0 1.31-.2 2.46-.6 3.44a6.9 6.9 0 0 1-4.09 3.93c-.92.33-1.89.5-2.91.5zM164.3 20.95c0-.3.15-.44.44-.44h1.96c.3 0 .44.15.44.44v8.36a6 6 0 0 0 .26 1.91c.18.52.42.93.72 1.25.3.3.67.53 1.07.67a3.98 3.98 0 0 0 2.58 0c.4-.14.77-.36 1.07-.67.3-.32.55-.73.72-1.25a6 6 0 0 0 .26-1.9v-8.37c0-.3.15-.44.44-.44h1.97c.29 0 .43.15.43.44v8.14c0 2.35-.54 4.09-1.62 5.22-1.09 1.14-2.6 1.7-4.56 1.7-1.95 0-3.47-.56-4.55-1.7-1.09-1.13-1.63-2.87-1.63-5.22v-8.14M185.58 27.32c1.67 0 2.5-.69 2.5-2.07s-.83-2.07-2.5-2.07h-3.17v4.14h3.17zm-6.01-6.37c0-.3.15-.44.44-.44h5.87c.86 0 1.6.13 2.24.37a4.21 4.21 0 0 1 2.5 2.55 5.65 5.65 0 0 1 0 3.7 4.2 4.2 0 0 1-2.4 2.49c-.6.24-1.3.37-2.1.37h-3.71v5.37c0 .29-.15.44-.44.44h-1.96c-.3 0-.44-.15-.44-.44V20.95z"/>
  </g>
</svg>
