<?xml version="1.0" encoding="UTF-8"?>
<svg width="600px" height="400px" viewBox="0 0 600 400" version="1.1" xmlns="http://www.w3.org/2000/svg" xmlns:xlink="http://www.w3.org/1999/xlink">
    <!-- Generator: Sketch 55.1 (78136) - https://sketchapp.com -->
    <title>Artboard</title>
    <desc>Created with Sketch.</desc>
    <g id="Artboard" stroke="none" stroke-width="1" fill="none" fill-rule="evenodd">
        <rect fill="#FFFFFF" x="0" y="0" width="600" height="400"></rect>
        <g id="logo_signature_rgb-01" transform="translate(133.000000, 10.000000)" fill="#232323" fill-rule="nonzero">
            <path d="M167.505115,0 C87.4170992,0 22.5038168,65.0148248 22.5038168,145.209164 C22.5038168,225.403504 87.4170992,290.408086 167.505115,290.408086 C247.59313,290.408086 312.496183,225.398383 312.496183,145.209164 C312.496183,65.0199461 247.588015,0 167.505115,0 Z M167.505115,242.006739 C114.114809,242.006739 70.8409924,198.665229 70.8409924,145.214286 C70.8409924,91.7633423 114.125038,48.4218329 167.505115,48.4218329 L167.505115,145.214286 L264.169237,145.214286 C264.174351,198.67035 220.89542,242.006739 167.505115,242.006739 Z M109.961832,145.209164 L167.505115,145.209164 L167.505115,202.803235 C135.732483,202.808892 109.970305,177.023976 109.961832,145.209164 Z" id="Shape"></path>
            <path d="M20.9694656,379.595735 C18.2519011,379.609549 15.5524375,379.15211 12.9908397,378.243396 C10.5177525,377.367441 8.25355531,375.986191 6.34198473,374.187332 C4.35700394,372.288762 2.80287858,369.985044 1.78496183,367.432345 C0.608067997,364.422672 0.0362413132,361.209925 0.102290076,357.978437 C0.0366089701,354.760008 0.628355045,351.56208 1.84122137,348.580863 C2.8907277,346.033702 4.45833947,343.73323 6.44427481,341.825876 C8.35899343,340.021319 10.6214743,338.627174 13.0931298,337.728841 C18.1690082,335.887755 23.7290071,335.887755 28.8048855,337.728841 C31.276541,338.627174 33.5390218,340.021319 35.4537405,341.825876 C37.439332,343.733521 39.0068912,346.033916 40.0567939,348.580863 C41.2692441,351.562202 41.8609741,354.760043 41.7957252,357.978437 C41.8632705,361.211238 41.2932001,364.425622 40.1181679,367.437466 C39.0998262,369.98994 37.5457584,372.293573 35.561145,374.192453 C33.6495745,375.991313 31.3853773,377.372563 28.9122901,378.248518 C26.361709,379.151414 23.674718,379.607059 20.9694656,379.595735 L20.9694656,379.595735 Z M20.9694656,372.266846 C22.4951355,372.259351 24.0078156,371.985529 25.439542,371.457682 C26.9576752,370.905168 28.3392092,370.031829 29.490229,368.897035 C30.7610178,367.629972 31.7615261,366.117635 32.4310687,364.451752 C33.9504569,360.261498 33.9504569,355.669769 32.4310687,351.479515 C31.759651,349.808421 30.7496007,348.294821 29.4646565,347.034232 C28.2954895,345.90246 26.9013594,345.029972 25.3730534,344.473585 C22.5330485,343.392603 19.3956538,343.392603 16.5556489,344.473585 C15.0272754,345.029833 13.633118,345.902338 12.4640458,347.034232 C11.1766853,348.29386 10.1647845,349.807623 9.49251908,351.479515 C8.69147232,353.549613 8.31237052,355.759332 8.37755725,357.978437 C8.32221257,360.193046 8.69921414,362.397171 9.48740458,364.467116 C10.138782,366.135087 11.129866,367.648976 12.3975573,368.912399 C13.548577,370.047193 14.930111,370.920531 16.4482443,371.473046 C17.8979718,371.998071 19.4278331,372.266846 20.9694656,372.266846 L20.9694656,372.266846 Z" id="Shape"></path>
            <path d="M48.3832061,338.153908 C48.3361143,337.822921 48.4477118,337.489085 48.6843076,337.253183 C48.9209034,337.017281 49.2547702,336.90696 49.5851145,336.955526 L54.980916,336.955526 C55.3112604,336.90696 55.6451272,337.017281 55.8817229,337.253183 C56.1183187,337.489085 56.2299162,337.822921 56.1828244,338.153908 L56.1828244,371.667655 L76.2777099,371.667655 C76.6080543,371.61909 76.9419211,371.729411 77.1785168,371.965312 C77.4151126,372.201214 77.5267101,372.535051 77.4796183,372.866038 L77.4796183,377.792722 C77.5285136,378.124524 77.4177181,378.459924 77.1808726,378.697084 C76.944027,378.934244 76.609072,379.045187 76.2777099,378.996226 L49.5851145,378.996226 C49.2537524,379.045187 48.9187974,378.934244 48.6819519,378.697084 C48.4451063,378.459924 48.3343108,378.124524 48.3832061,377.792722 L48.3832061,338.153908 Z" id="Path"></path>
            <path d="M92.470229,356.892722 L81.3717557,338.394609 C81.2324089,338.177908 81.1497449,337.929587 81.131374,337.672507 C81.131374,337.191105 81.4314249,336.950404 82.0315267,336.950404 L88.5678626,336.950404 C88.9265367,336.927358 89.2856161,336.988746 89.6163359,337.12965 C89.8990847,337.313736 90.1354124,337.560895 90.3067939,337.851752 L97.0835115,349.32345 L103.921603,337.851752 C104.092535,337.560554 104.328953,337.313301 104.612061,337.12965 C104.942727,336.988562 105.30185,336.927167 105.660534,336.950404 L112.19687,336.950404 C112.796972,336.950404 113.097023,337.191105 113.097023,337.672507 C113.078652,337.929587 112.995988,338.177908 112.856641,338.394609 L101.778626,356.892722 L114.191527,377.674933 C114.346995,377.859847 114.431909,378.093861 114.431909,378.33558 C114.431909,378.776011 114.152316,378.996226 113.59313,378.996226 L106.264046,378.996226 C105.859426,379.043015 105.452083,378.9351 105.123511,378.69407 C104.868619,378.420925 104.647134,378.118343 104.46374,377.792722 L97.088626,365.122642 L89.6521374,377.792722 C89.4683793,378.118107 89.246925,378.420648 88.9923664,378.69407 C88.6635741,378.934636 88.2564149,379.042503 87.8518321,378.996226 L80.6506107,378.996226 C80.0914249,378.996226 79.8118316,378.776011 79.8118316,378.33558 C79.8118316,378.093861 79.8967457,377.859847 80.0522137,377.674933 L92.470229,356.892722 Z" id="Path"></path>
            <path d="M147.70687,357.79407 C147.659778,357.463083 147.771376,357.129247 148.007972,356.893345 C148.244567,356.657443 148.578434,356.547122 148.908779,356.595687 L171.100611,356.595687 C171.430955,356.547122 171.764822,356.657443 172.001418,356.893345 C172.238013,357.129247 172.349611,357.463083 172.302519,357.79407 L172.302519,358.695418 C172.335395,361.572734 171.889446,364.43544 170.982977,367.166038 C170.17449,369.604618 168.877987,371.85255 167.172672,373.772507 C165.497972,375.626058 163.440316,377.092271 161.142672,378.069272 C158.616564,379.124096 155.900689,379.647073 153.164046,379.60566 C150.449599,379.612948 147.752985,379.166377 145.18542,378.284367 C139.949719,376.515783 135.716661,372.593842 133.549924,367.504043 C132.290391,364.490225 131.678726,361.244618 131.754733,357.978437 C131.691553,354.769462 132.315903,351.584193 133.585725,348.637197 C134.711058,346.066397 136.354792,343.756187 138.413817,341.851482 C140.415287,340.035382 142.761852,338.641946 145.313282,337.754447 C147.892826,336.83654 150.610585,336.368832 153.348168,336.371347 C155.219981,336.361031 157.085275,336.593427 158.897405,337.063073 C160.572092,337.499323 162.191847,338.124719 163.725496,338.927224 C165.152184,339.672581 166.481739,340.591089 167.684122,341.661995 C168.77962,342.631877 169.765775,343.718947 170.624962,344.903774 C170.82331,345.138195 170.930464,345.436443 170.926718,345.743666 C170.874131,346.167737 170.65969,346.554978 170.328321,346.824259 L166.610076,350.127493 C166.339746,350.408337 165.975625,350.579702 165.587176,350.608895 C165.158493,350.570414 164.776075,350.323427 164.564275,349.948248 C163.200195,348.086013 161.489571,346.505281 159.526489,345.292992 C157.549545,344.186353 155.310389,343.635996 153.046412,343.70027 C151.385043,343.696752 149.737485,344.002389 148.187634,344.601617 C146.638477,345.196304 145.229524,346.106626 144.05,347.274933 C142.791451,348.545794 141.801684,350.057672 141.139847,351.720216 C140.36235,353.712869 139.985196,355.839567 140.03,357.978437 C139.9932,360.063437 140.370451,362.134983 141.139847,364.072776 C141.810153,365.749104 142.798407,367.279541 144.05,368.579515 C145.227683,369.785877 146.648717,370.726925 148.218321,371.339892 C149.77472,371.95703 151.433801,372.2733 153.107786,372.271968 C155.907125,372.271968 158.246158,371.589128 160.124885,370.22345 C162.003613,368.857772 163.243028,366.766577 163.84313,363.949865 L148.908779,363.949865 C148.577417,363.998825 148.242462,363.887883 148.005616,363.650723 C147.76877,363.413563 147.657975,363.078163 147.70687,362.746361 L147.70687,357.79407 Z" id="Path"></path>
            <path d="M178.777481,338.153908 C178.730389,337.822921 178.841987,337.489085 179.078582,337.253183 C179.315178,337.017281 179.649045,336.90696 179.979389,336.955526 L195.271756,336.955526 C199.704326,336.955526 203.142977,337.979784 205.58771,340.028302 C208.032443,342.076819 209.251399,344.939623 209.24458,348.616712 C209.277717,350.214833 208.970872,351.801723 208.344427,353.271968 C207.772422,354.573153 206.946445,355.746727 205.915038,356.72372 C204.873586,357.701002 203.659511,358.475567 202.334885,359.007817 C200.920914,359.578078 199.438943,359.961974 197.926183,360.149865 L210.819847,377.685175 C210.975315,377.87009 211.060229,378.104103 211.060229,378.345822 C211.060229,378.786253 210.801094,379.006469 210.282824,379.006469 L202.830992,379.006469 C202.496811,379.033054 202.162248,378.959994 201.869466,378.796496 C201.615302,378.60143 201.392754,378.368222 201.209695,378.105121 L188.014275,360.149865 L186.577099,360.149865 L186.577099,377.808086 C186.625995,378.139888 186.515199,378.475288 186.278353,378.712448 C186.041508,378.949608 185.706553,379.060551 185.375191,379.01159 L179.979389,379.01159 C179.648027,379.060551 179.313072,378.949608 179.076227,378.712448 C178.839381,378.475288 178.728586,378.139888 178.777481,377.808086 L178.777481,338.153908 Z M195.691145,352.80593 C197.450534,352.80593 198.829746,352.445732 199.828779,351.725337 C200.778819,350.942212 201.329233,349.774629 201.329233,348.542453 C201.329233,347.310277 200.778819,346.142693 199.828779,345.359569 C198.829746,344.639173 197.450534,344.278976 195.691145,344.278976 L186.577099,344.278976 L186.577099,352.80593 L195.691145,352.80593 Z" id="Shape"></path>
            <path d="M234.5,379.595735 C231.782435,379.609549 229.082972,379.15211 226.521374,378.243396 C224.048287,377.367441 221.78409,375.986191 219.872519,374.187332 C217.889385,372.288259 216.337029,369.984579 215.320611,367.432345 C214.140094,364.423416 213.564782,361.21062 213.62771,357.978437 C213.562173,354.76002 214.153914,351.56212 215.366641,348.580863 C216.41628,346.033773 217.983874,343.733327 219.969695,341.825876 C221.884413,340.021319 224.146894,338.627174 226.61855,337.728841 C231.695969,335.886518 237.258001,335.886518 242.33542,337.728841 C244.807138,338.627044 247.069644,340.021204 248.984275,341.825876 C250.969866,343.733521 252.537426,346.033916 253.587328,348.580863 C254.799778,351.562202 255.391508,354.760043 255.32626,357.978437 C255.402903,361.207474 254.843284,364.419983 253.679389,367.432345 C252.660765,369.984669 251.106735,372.288245 249.122366,374.187332 C247.210796,375.986191 244.946599,377.367441 242.473511,378.243396 C239.913531,379.151527 237.215848,379.608957 234.5,379.595735 L234.5,379.595735 Z M234.5,372.266846 C236.02567,372.259351 237.53835,371.985529 238.970076,371.457682 C240.48821,370.905168 241.869744,370.031829 243.020763,368.897035 C244.291331,367.629791 245.291808,366.117502 245.961603,364.451752 C247.480991,360.261498 247.480991,355.669769 245.961603,351.479515 C245.290054,349.80849 244.28002,348.294917 242.995191,347.034232 C241.825929,345.902581 240.431826,345.03011 238.903588,344.473585 C236.063583,343.392603 232.926188,343.392603 230.086183,344.473585 C228.557742,345.029695 227.163557,345.902217 225.99458,347.034232 C224.708947,348.294249 223.698794,349.808002 223.028168,351.479515 C222.223363,353.548823 221.84077,355.75862 221.902977,357.978437 C221.842702,360.18825 222.212717,362.388673 222.992366,364.456873 C223.643744,366.124844 224.634828,367.638734 225.902519,368.902156 C227.053539,370.03695 228.435073,370.910289 229.953206,371.462803 C231.410386,371.994251 232.949174,372.266366 234.5,372.266846 Z" id="Shape"></path>
            <path d="M261.790992,338.153908 C261.744287,337.823941 261.855261,337.491188 262.090603,337.255534 C262.325945,337.01988 262.658256,336.908758 262.987786,336.955526 L268.383588,336.955526 C268.713932,336.90696 269.047799,337.017281 269.284395,337.253183 C269.52099,337.489085 269.632588,337.822921 269.585496,338.153908 L269.585496,361.153639 C269.542516,362.932535 269.786017,364.706748 270.306641,366.408086 C270.701134,367.682944 271.37769,368.852297 272.285954,369.829111 C273.10316,370.677155 274.11168,371.316439 275.226794,371.693261 C277.524845,372.455765 280.007216,372.455765 282.305267,371.693261 C283.420295,371.316258 284.428774,370.676999 285.246107,369.829111 C286.154229,368.852192 286.830766,367.682873 287.22542,366.408086 C287.746044,364.706748 287.989545,362.932535 287.946565,361.153639 L287.946565,338.153908 C287.89986,337.823941 288.010834,337.491188 288.246176,337.255534 C288.481517,337.01988 288.813829,336.908758 289.143359,336.955526 L294.544275,336.955526 C294.873805,336.908758 295.206116,337.01988 295.441458,337.255534 C295.6768,337.491188 295.787774,337.823941 295.741069,338.153908 L295.741069,360.539084 C295.741069,366.985085 294.251043,371.76496 291.270992,374.878706 C288.290941,377.992453 284.114097,379.56469 278.740458,379.595418 C273.380458,379.595418 269.212137,378.033423 266.235496,374.909434 C263.258855,371.785445 261.76883,367.005571 261.76542,360.569811 L261.790992,338.153908 Z" id="Path"></path>
            <path d="M303.71458,338.153908 C303.667488,337.822921 303.779086,337.489085 304.015682,337.253183 C304.252277,337.017281 304.586144,336.90696 304.916489,336.955526 L321.052748,336.955526 C323.144263,336.913137 325.225422,337.260457 327.190153,337.979784 C328.819697,338.589241 330.293974,339.552991 331.506794,340.801617 C332.649825,342.003792 333.521879,343.437605 334.064046,345.006199 C334.633597,346.668736 334.917217,348.41601 334.902824,350.173585 C334.913863,351.870723 334.630041,353.556854 334.064046,355.156604 C333.529983,356.682107 332.681346,358.078023 331.573282,359.253639 C330.419612,360.453027 329.025078,361.393842 327.481679,362.014016 C325.648077,362.731672 323.691008,363.079748 321.722748,363.038275 L311.509084,363.038275 L311.509084,377.813208 C311.557979,378.14501 311.447184,378.480409 311.210338,378.717569 C310.973493,378.954729 310.638538,379.065672 310.307176,379.016712 L304.911374,379.016712 C304.580012,379.065672 304.245057,378.954729 304.008211,378.717569 C303.771366,378.480409 303.66057,378.14501 303.709466,377.813208 L303.71458,338.153908 Z M320.208855,355.689218 C324.805089,355.689218 327.104911,353.787511 327.108324,349.984097 C327.11173,346.180683 324.811908,344.278976 320.208855,344.278976 L311.514198,344.278976 L311.514198,355.689218 L320.208855,355.689218 Z" id="Shape"></path>
        </g>
    </g>
</svg>