<svg width="457" height="131" viewBox="0 0 457 131" fill="none" xmlns="http://www.w3.org/2000/svg">
<path d="M64.4902 127.55C99.5824 127.55 128.03 99.1019 128.03 64.0098C128.03 28.9176 99.5824 0.469727 64.4902 0.469727C29.398 0.469727 0.950195 28.9176 0.950195 64.0098C0.950195 99.1019 29.398 127.55 64.4902 127.55Z" fill="#FB9A42"/>
<path d="M97.7803 60.71H127.9V126.49C119.912 126.49 112.251 123.317 106.602 117.668C100.954 112.019 97.7803 104.358 97.7803 96.3699V60.71Z" fill="#FB9A42"/>
<path d="M257.88 11.0801H273.66V40.6301C277.37 37.2801 282.87 35.3601 289.09 35.3601C303.33 35.3601 313.38 45.3601 313.38 59.8901V98.4C311.304 98.4 309.248 97.9907 307.33 97.1953C305.413 96.3999 303.671 95.2341 302.204 93.7646C300.737 92.2952 299.575 90.551 298.783 88.6318C297.991 86.7126 297.586 84.6562 297.59 82.5801V62.4901C297.59 55.3101 292.68 49.9301 285.86 49.9301C284.263 49.9142 282.68 50.215 281.2 50.8149C279.721 51.4149 278.375 52.3022 277.24 53.4255C276.106 54.5489 275.205 55.8859 274.591 57.3594C273.976 58.8329 273.66 60.4136 273.66 62.0101V98.3701H257.88V11.0801Z" fill="#FB9A42"/>
<path d="M414.04 95.89L389.52 37.3999H406.74L422.74 78.7799L439.01 37.3999H456.229L415.52 130.19C413.71 129.48 412.062 128.413 410.674 127.053C409.286 125.693 408.186 124.067 407.439 122.272C406.693 120.478 406.315 118.552 406.329 116.608C406.343 114.665 406.748 112.744 407.52 110.96L414.04 95.89Z" fill="#FB9A42"/>
<path d="M231 68H246.81V98.48C244.732 98.48 242.675 98.0704 240.755 97.2746C238.836 96.4788 237.092 95.3125 235.624 93.8423C234.155 92.3721 232.991 90.6268 232.198 88.7064C231.404 86.7859 230.997 84.7279 231 82.65V68Z" fill="#FB9A42"/>
<path d="M213.83 34.2798C207.289 34.2798 200.895 36.2197 195.456 39.8539C190.018 43.4881 185.779 48.6534 183.276 54.6968C180.773 60.7401 180.119 67.39 181.396 73.8052C182.673 80.2204 185.823 86.1129 190.449 90.7374C195.075 95.362 200.969 98.5108 207.384 99.7856C213.8 101.061 220.449 100.404 226.492 97.8997C232.535 95.3951 237.699 91.1549 241.331 85.7152C244.964 80.2756 246.902 73.8809 246.9 67.3398C246.9 62.9975 246.044 58.6977 244.382 54.686C242.72 50.6744 240.284 47.0294 237.213 43.9594C234.142 40.8893 230.497 38.4543 226.484 36.7935C222.472 35.1326 218.172 34.2785 213.83 34.2798ZM213.83 84.5698C210.422 84.5698 207.091 83.5593 204.257 81.666C201.424 79.7728 199.215 77.0818 197.911 73.9335C196.607 70.7851 196.266 67.3207 196.931 63.9784C197.596 60.6361 199.237 57.566 201.646 55.1564C204.056 52.7467 207.126 51.1057 210.468 50.4409C213.811 49.7761 217.275 50.1173 220.423 51.4214C223.572 52.7255 226.263 54.9339 228.156 57.7673C230.049 60.6008 231.06 63.9321 231.06 67.3398C231.062 69.6037 230.619 71.8459 229.754 73.9381C228.889 76.0303 227.62 77.9314 226.02 79.5327C224.419 81.134 222.519 82.404 220.427 83.27C218.336 84.1361 216.094 84.5812 213.83 84.5798V84.5698Z" fill="#FB9A42"/>
<path d="M355.26 34.2798C348.718 34.2778 342.323 36.216 336.883 39.849C331.443 43.482 327.203 48.6467 324.699 54.6898C322.195 60.733 321.539 67.3832 322.815 73.7991C324.09 80.215 327.24 86.1084 331.866 90.7339C336.491 95.3594 342.385 98.5092 348.8 99.7849C355.216 101.061 361.866 100.405 367.91 97.9006C373.953 95.3964 379.118 91.1562 382.751 85.7163C386.384 80.2764 388.322 73.8813 388.32 67.3398C388.317 58.5726 384.833 50.1652 378.634 43.9658C372.434 37.7664 364.027 34.2824 355.26 34.2798V34.2798ZM355.26 84.5698C351.851 84.5718 348.519 83.563 345.684 81.6709C342.85 79.7788 340.64 77.0886 339.334 73.9404C338.028 70.7922 337.686 67.3276 338.35 63.9846C339.013 60.6417 340.653 57.5706 343.063 55.1599C345.472 52.7493 348.542 51.1073 351.885 50.4417C355.227 49.776 358.692 50.1166 361.841 51.4204C364.99 52.7242 367.682 54.9327 369.575 57.7664C371.469 60.6 372.48 63.9316 372.48 67.3398C372.482 69.6029 372.039 71.8443 371.175 73.9358C370.31 76.0273 369.042 77.928 367.443 79.5292C365.844 81.1303 363.945 82.4005 361.854 83.2671C359.764 84.1337 357.523 84.5798 355.26 84.5798V84.5698Z" fill="#FB9A42"/>
<path d="M64.6302 127.54C99.6396 127.54 128.02 99.1591 128.02 64.1498C128.02 29.1404 99.6396 0.759766 64.6302 0.759766C29.6209 0.759766 1.24023 29.1404 1.24023 64.1498C1.24023 99.1591 29.6209 127.54 64.6302 127.54Z" fill="#FB9A42"/>
<path d="M100.07 63.52H47.5801L38.5801 72.3801V87.7601C38.5811 89.2785 38.9773 90.7704 39.7297 92.0894C40.482 93.4083 41.5646 94.5088 42.8711 95.2826C44.1776 96.0564 45.6628 96.4768 47.181 96.5027C48.6992 96.5285 50.198 96.1589 51.5301 95.4301L95.5301 71.4301C96.9106 70.687 98.0631 69.5827 98.8646 68.2352C99.666 66.8878 100.086 65.3478 100.08 63.78L100.07 63.52Z" fill="white"/>
<path d="M100.07 63.5202C100.046 61.9915 99.6161 60.4967 98.8256 59.188C98.0351 57.8794 96.9119 56.8036 95.5703 56.0702L51.5703 31.6303C50.2383 30.8901 48.736 30.5106 47.2122 30.5295C45.6884 30.5483 44.196 30.9647 42.8826 31.7376C41.5693 32.5105 40.4805 33.6129 39.7242 34.9358C38.9678 36.2588 38.5701 37.7563 38.5703 39.2802V54.6502L47.5703 63.5202H100.07Z" fill="white"/>
</svg>
