<?xml version="1.0" encoding="UTF-8"?>
<svg width="600px" height="400px" viewBox="0 0 600 400" version="1.1" xmlns="http://www.w3.org/2000/svg" xmlns:xlink="http://www.w3.org/1999/xlink">
    <!-- Generator: Sketch 54.1 (76490) - https://sketchapp.com -->
    <title>Artboard</title>
    <desc>Created with Sketch.</desc>
    <g id="Artboard" stroke="none" stroke-width="1" fill="none" fill-rule="evenodd">
        <rect fill="#FFFFFF" x="0" y="0" width="600" height="400"></rect>
        <g id="diginate_logo" transform="translate(25.000000, 121.000000)">
            <g id="Group">
                <polygon id="Path" points="30.4410256 143.733333 30.5846154 143.733333"></polygon>
                <path d="M94.1948718,102.379487 C96.2051282,101.661538 97.7846154,100.65641 99.2205128,99.3641026 C100.65641,98.0717949 101.517949,96.4923077 102.235897,94.625641 C102.953846,92.7589744 103.241026,90.7487179 103.241026,88.4512821 C103.241026,83.7128205 101.805128,80.1230769 99.0769231,77.6820513 C96.3487179,75.0974359 92.4717949,73.9487179 87.3025641,73.9487179 L73.5179487,73.9487179 L73.5179487,103.528205 L87.1589744,103.528205 C89.8871795,103.528205 92.1846154,103.097436 94.1948718,102.379487 Z" id="Path"></path>
                <path d="M126.071795,37.7641026 C128.65641,39.0564103 131.097436,40.3487179 133.394872,41.9282051 C133.394872,41.9282051 133.394872,41.9282051 133.394872,41.9282051 C131.097436,40.4923077 128.94359,39.0564103 126.071795,37.7641026 C126.071795,37.7641026 126.071795,37.7641026 126.071795,37.7641026 Z" id="Path"></path>
                <polygon id="Path" points="17.9487179 17.8051282 17.9487179 17.8051282 17.9487179 130.523077 17.9487179 130.523077"></polygon>
                <rect id="Rectangle" x="17.9487179" y="131.384615" width="1" height="12.3487179"></rect>
                <path d="M138.564103,46.0923077 C136.841026,44.5128205 135.117949,43.2205128 133.394872,41.9282051 C133.394872,41.9282051 133.394872,41.9282051 133.394872,41.9282051 C133.394872,41.9282051 133.394872,41.9282051 133.394872,41.9282051 C133.394872,41.9282051 133.394872,41.9282051 133.394872,41.9282051 C133.394872,41.9282051 133.394872,41.9282051 133.538462,41.9282051 C140.287179,51.8358974 143.733333,64.3282051 143.733333,79.6923077 C143.733333,89.4564103 142.297436,98.2153846 139.425641,106.112821 C136.553846,114.010256 132.246154,120.758974 126.646154,126.215385 C121.046154,131.671795 114.010256,135.979487 105.394872,138.994872 C96.9230769,142.010256 87.0153846,143.589744 75.8153846,143.446154 L30.7282051,143.302564 L30.5846154,143.302564 L30.5846154,155.794872 L88.1641026,155.794872 C99.3641026,155.794872 109.271795,154.215385 117.74359,151.2 C126.358974,148.184615 133.394872,143.876923 138.994872,138.420513 C144.594872,132.964103 148.902564,126.215385 151.774359,118.317949 C154.646154,110.420513 156.082051,101.517949 156.082051,91.8974359 C156.082051,72.225641 150.194872,56.8615385 138.564103,46.0923077 Z" id="Path" fill="#1F9DD9" fill-rule="nonzero"></path>
                <path d="M92.7589744,126.789744 C101.374359,123.774359 108.266667,119.610256 114.010256,114.010256 C119.753846,108.410256 124.061538,101.805128 126.789744,93.9076923 C129.661538,86.0102564 131.097436,77.2512821 131.097436,67.4871795 C131.097436,55.8564103 129.087179,45.9487179 125.353846,37.6205128 C125.353846,37.6205128 125.353846,37.6205128 125.353846,37.4769231 C115.446154,32.7384615 103.241026,30.4410256 88.8820513,30.4410256 L30.5846154,30.4410256 L30.5846154,128.94359 L30.5846154,131.528205 L63.3230769,131.528205 C74.3794872,131.384615 84.1435897,129.805128 92.7589744,126.789744 Z M73.5179487,73.8051282 L87.3025641,73.8051282 C92.3282051,73.8051282 96.3487179,75.0974359 99.0769231,77.5384615 C101.805128,80.1230769 103.241026,83.5692308 103.241026,88.3076923 C103.241026,90.6051282 102.810256,92.6153846 102.235897,94.4820513 C101.517949,96.3487179 100.512821,97.9282051 99.2205128,99.2205128 C97.7846154,100.65641 96.2051282,101.517949 94.1948718,102.235897 C92.1846154,102.953846 89.8871795,103.384615 87.3025641,103.384615 L73.6615385,103.384615 L73.6615385,73.8051282 L73.5179487,73.8051282 Z" id="Shape" fill="#3F3B3C" fill-rule="nonzero"></path>
                <path d="M126.071795,37.7641026 C125.784615,37.6205128 125.641026,37.4769231 125.353846,37.4769231 C125.641026,37.6205128 125.928205,37.7641026 126.071795,37.7641026 C126.071795,37.7641026 126.071795,37.7641026 126.071795,37.7641026 Z" id="Path" fill="#3F3B3C" fill-rule="nonzero"></path>
                <path d="M17.9487179,130.523077 L17.9487179,130.523077 L17.9487179,17.8051282 L18.0923077,17.8051282 L76.2461538,17.8051282 L76.5333333,17.8051282 C94.7692308,17.8051282 109.415385,21.6820513 120.615385,29.2923077 C118.605128,26.4205128 116.164103,23.6923077 113.579487,21.2512821 C101.948718,10.625641 85.2923077,5.31282051 63.7538462,5.31282051 L5.45641026,5.31282051 L5.45641026,131.384615 L17.9487179,143.733333 L17.9487179,131.384615 L17.9487179,130.523077 Z" id="Path" fill="#FDEC0A" fill-rule="nonzero"></path>
                <polygon id="Path" fill="#E4087E" fill-rule="nonzero" points="17.9487179 143.733333 17.9487179 143.733333 30.4410256 156.225641 30.4410256 143.733333"></polygon>
                <path d="M125.353846,37.4769231 C129.230769,45.8051282 131.097436,55.7128205 131.097436,67.3435897 C131.097436,77.1076923 129.661538,85.8666667 126.789744,93.7641026 C123.917949,101.661538 119.753846,108.266667 114.010256,113.866667 C108.266667,119.466667 101.374359,123.774359 92.7589744,126.646154 C84.1435897,129.661538 74.3794872,131.241026 63.1794872,131.241026 L30.4410256,131.241026 L30.4410256,131.384615 L30.4410256,143.733333 L30.5846154,143.733333 L75.6717949,143.876923 C86.8717949,144.020513 96.7794872,142.441026 105.251282,139.425641 C113.866667,136.410256 120.902564,132.102564 126.502564,126.646154 C132.102564,121.189744 136.410256,114.441026 139.282051,106.54359 C142.153846,98.6461538 143.589744,89.7435897 143.589744,80.1230769 C143.589744,64.7589744 140.14359,52.2666667 133.394872,42.3589744 C133.394872,42.3589744 133.394872,42.3589744 133.251282,42.3589744 C131.097436,40.7794872 128.65641,39.4871795 125.928205,38.1948718 C125.928205,37.7641026 125.641026,37.6205128 125.353846,37.4769231 Z" id="Path" fill="#303084" fill-rule="nonzero"></path>
                <path d="M76.2461538,17.8051282 L17.9487179,17.8051282 L17.9487179,17.9487179 L17.9487179,130.666667 L17.9487179,131.528205 L17.9487179,131.528205 L17.9487179,143.876923 L30.4410256,143.876923 L30.4410256,143.876923 L30.4410256,131.528205 L30.4410256,131.384615 L30.4410256,128.8 L30.4410256,30.2974359 L88.7384615,30.2974359 C103.097436,30.2974359 115.302564,32.7384615 125.210256,37.3333333 C123.917949,34.6051282 122.482051,32.0205128 120.902564,29.5794872 C120.902564,29.5794872 120.902564,29.5794872 121.046154,29.5794872 C121.046154,29.5794872 121.046154,29.4358974 120.902564,29.4358974 C120.758974,29.2923077 120.615385,29.2923077 120.471795,29.1487179 C109.271795,21.5384615 94.625641,17.6615385 76.3897436,17.6615385 L76.2461538,17.6615385 L76.2461538,17.8051282 Z" id="Path" fill="#E21E26" fill-rule="nonzero"></path>
                <path d="M125.353846,37.3333333 C125.353846,37.3333333 125.353846,37.4769231 125.353846,37.3333333 C125.641026,37.4769231 125.928205,37.6205128 126.215385,37.7641026 C128.94359,39.0564103 131.241026,40.4923077 133.394872,41.9282051 C133.394872,41.9282051 133.394872,41.9282051 133.394872,41.9282051 C133.394872,41.9282051 133.394872,41.9282051 133.394872,41.9282051 C131.241026,38.9128205 128.8,36.1846154 126.215385,33.6 C124.635897,32.1641026 122.912821,30.8717949 121.046154,29.5794872 C121.046154,29.5794872 121.046154,29.5794872 120.902564,29.5794872 C122.625641,32.0205128 124.061538,34.6051282 125.353846,37.3333333 Z" id="Path" fill="#E4087E" fill-rule="nonzero"></path>
            </g>
            <text id="diginate" fill="#000000" font-family="Helvetica" font-size="104.840615" font-weight="normal">
                <tspan x="177.307487" y="107.641641">diginate</tspan>
            </text>
        </g>
    </g>
</svg>