<?xml version="1.0" encoding="UTF-8"?>
<svg id="a" data-name="Warstwa 1" xmlns="http://www.w3.org/2000/svg" xmlns:xlink="http://www.w3.org/1999/xlink" viewBox="0 0 1720.21 462.8">
  <defs>
    <style>
      .c {
        fill: #fff;
      }

      .d {
        fill: url(#b);
      }

      .e {
        fill: #7f7f7f;
      }
    </style>
    <linearGradient id="b" data-name="Gradient bez nazwy 10" x1="1034.8" y1="353.15" x2="1700.74" y2="-31.34" gradientUnits="userSpaceOnUse">
      <stop offset="0" stop-color="#ff4750"/>
      <stop offset=".69" stop-color="#f92b4d"/>
      <stop offset="1" stop-color="#f71d4c"/>
    </linearGradient>
  </defs>
  <g>
    <path d="m70.43,246.8c-13.44,0-25.38-2.87-35.82-8.62-10.44-5.75-18.62-13.68-24.53-23.8-5.91-10.12-8.86-21.73-8.86-34.85s2.79-24.97,8.38-35.09c5.59-10.12,13.31-18.05,23.19-23.8,9.87-5.75,21.21-8.62,34-8.62s23.47,2.79,32.54,8.38c9.06,5.58,15.98,13.28,20.76,23.07,4.77,9.8,7.16,21.09,7.16,33.88,0,3.08-1.06,5.63-3.16,7.65-2.1,2.03-4.78,3.04-8.01,3.04H18.22v-19.43h97.13l-9.96,6.8c-.16-8.09-1.78-15.33-4.86-21.73-3.08-6.39-7.45-11.45-13.11-15.18-5.67-3.72-12.55-5.59-20.64-5.59-9.23,0-17.12,2.03-23.68,6.07-6.56,4.05-11.53,9.59-14.93,16.63-3.4,7.04-5.1,15.02-5.1,23.92s2.02,16.84,6.07,23.8c4.04,6.96,9.63,12.47,16.75,16.51,7.12,4.05,15.3,6.07,24.53,6.07,5.02,0,10.16-.93,15.42-2.79,5.26-1.86,9.51-4.01,12.75-6.43,2.43-1.78,5.06-2.71,7.89-2.79,2.83-.08,5.3.77,7.41,2.55,2.75,2.43,4.21,5.1,4.37,8.01.16,2.91-1.13,5.42-3.88,7.53-5.51,4.37-12.35,7.93-20.52,10.69-8.18,2.75-15.99,4.13-23.43,4.13Z"/>
    <path d="m244.78,245.83c-1.62,0-3.16-.24-4.61-.73-1.46-.48-2.83-1.54-4.13-3.16l-42.49-51-8.74-8.74-42.25-50.02c-2.1-2.59-3.24-5.38-3.4-8.38-.16-2.99.64-5.54,2.43-7.65,1.78-2.1,4.45-3.16,8.01-3.16,3.88,0,6.96,1.38,9.23,4.13l41.52,49.54,6.31,5.83,45.65,54.64c2.43,2.91,3.6,5.79,3.52,8.62-.08,2.83-1.13,5.22-3.16,7.16-2.03,1.94-4.65,2.92-7.89,2.92Zm-92.76,0c-3.24,0-5.79-1.01-7.65-3.04-1.86-2.02-2.79-4.49-2.79-7.4s1.13-5.83,3.4-8.74l41.28-51.72,13.11,18.45-38.61,48.57c-2.43,2.59-5.34,3.88-8.74,3.88Zm59.98-62.41l-16.75-14.33,39.1-51.97c1.29-1.62,2.67-2.71,4.13-3.28,1.46-.57,3.07-.85,4.86-.85,3.56,0,6.23,1.09,8.01,3.28,1.78,2.19,2.63,4.82,2.55,7.89-.08,3.08-1.26,6.07-3.52,8.98l-38.37,50.27Z"/>
    <path d="m299.17,302.65c-3.56,0-6.52-1.18-8.86-3.52s-3.52-5.3-3.52-8.86v-110.73c.16-12.79,3.16-24.28,8.98-34.48,5.83-10.2,13.76-18.25,23.8-24.16,10.04-5.91,21.37-8.86,34-8.86s24.2,2.96,34.24,8.86c10.04,5.91,18.01,13.96,23.92,24.16,5.91,10.2,8.86,21.7,8.86,34.48s-2.71,24.24-8.13,34.36c-5.43,10.12-12.83,18.13-22.22,24.04-9.39,5.91-20,8.86-31.81,8.86-9.55,0-18.33-1.98-26.35-5.95-8.01-3.96-14.85-9.35-20.52-16.15v65.56c0,3.56-1.13,6.51-3.4,8.86-2.27,2.35-5.26,3.52-8.98,3.52Zm54.39-77.71c8.26,0,15.62-1.98,22.1-5.95,6.47-3.96,11.61-9.38,15.42-16.27,3.8-6.88,5.71-14.61,5.71-23.19s-1.9-16.55-5.71-23.43c-3.81-6.88-8.95-12.3-15.42-16.27-6.48-3.97-13.84-5.95-22.1-5.95s-15.42,1.98-21.98,5.95c-6.56,3.97-11.7,9.39-15.42,16.27-3.73,6.88-5.58,14.69-5.58,23.43s1.86,16.31,5.58,23.19c3.72,6.88,8.86,12.3,15.42,16.27,6.56,3.97,13.88,5.95,21.98,5.95Z"/>
    <path d="m469.64,245.83c-3.88,0-6.88-1.01-8.98-3.04-2.1-2.02-3.16-5.06-3.16-9.1v-108.55c0-3.89,1.05-6.88,3.16-8.98s5.1-3.16,8.98-3.16,7.08,1.01,9.11,3.04c2.02,2.03,3.04,5.06,3.04,9.11v108.55c0,3.88-1.01,6.88-3.04,8.98-2.03,2.1-5.06,3.16-9.11,3.16Zm-.24-83.05c0-9.71,2.39-18.41,7.16-26.1,4.77-7.69,11.21-13.8,19.3-18.33,8.09-4.53,17-6.8,26.71-6.8s16.96,1.58,21.73,4.74c4.77,3.16,6.59,6.92,5.46,11.29-.48,2.27-1.42,4.01-2.79,5.22-1.38,1.21-2.96,1.98-4.74,2.31-1.78.33-3.73.24-5.83-.24-10.36-2.1-19.67-2.26-27.93-.49-8.26,1.78-14.77,5.1-19.55,9.96-4.78,4.86-7.16,11.01-7.16,18.45h-12.39Z"/>
    <path d="m628.21,246.8c-13.44,0-25.38-2.87-35.82-8.62-10.44-5.75-18.62-13.68-24.53-23.8-5.91-10.12-8.86-21.73-8.86-34.85s2.79-24.97,8.38-35.09c5.59-10.12,13.31-18.05,23.19-23.8,9.87-5.75,21.21-8.62,34-8.62s23.47,2.79,32.54,8.38c9.06,5.58,15.98,13.28,20.76,23.07,4.77,9.8,7.16,21.09,7.16,33.88,0,3.08-1.06,5.63-3.16,7.65-2.1,2.03-4.78,3.04-8.01,3.04h-97.86v-19.43h97.13l-9.96,6.8c-.16-8.09-1.78-15.33-4.86-21.73-3.08-6.39-7.45-11.45-13.11-15.18-5.67-3.72-12.55-5.59-20.64-5.59-9.23,0-17.12,2.03-23.68,6.07-6.56,4.05-11.53,9.59-14.93,16.63-3.4,7.04-5.1,15.02-5.1,23.92s2.02,16.84,6.07,23.8c4.04,6.96,9.63,12.47,16.75,16.51,7.12,4.05,15.3,6.07,24.53,6.07,5.02,0,10.16-.93,15.42-2.79,5.26-1.86,9.51-4.01,12.75-6.43,2.43-1.78,5.06-2.71,7.89-2.79,2.83-.08,5.3.77,7.41,2.55,2.75,2.43,4.21,5.1,4.37,8.01.16,2.91-1.13,5.42-3.88,7.53-5.51,4.37-12.35,7.93-20.52,10.69-8.18,2.75-15.99,4.13-23.43,4.13Z"/>
    <path d="m764.92,246.8c-11.33,0-21.82-1.74-31.45-5.22-9.63-3.48-17.12-7.89-22.46-13.23-2.43-2.59-3.44-5.54-3.03-8.86.4-3.31,1.98-6.03,4.74-8.13,3.24-2.59,6.43-3.68,9.59-3.28,3.16.41,5.87,1.82,8.14,4.25,2.75,3.08,7.16,5.95,13.23,8.62,6.07,2.67,12.83,4.01,20.28,4.01,9.39,0,16.55-1.54,21.49-4.61,4.94-3.07,7.49-7.04,7.65-11.9.16-4.86-2.15-9.06-6.92-12.63-4.78-3.56-13.48-6.47-26.1-8.74-16.35-3.24-28.21-8.09-35.58-14.57-7.37-6.47-11.05-14.41-11.05-23.8,0-8.26,2.43-15.09,7.29-20.52,4.86-5.42,11.09-9.47,18.7-12.14,7.61-2.67,15.54-4.01,23.8-4.01,10.68,0,20.16,1.7,28.41,5.1,8.26,3.4,14.81,8.1,19.67,14.08,2.27,2.59,3.32,5.3,3.16,8.13-.16,2.83-1.54,5.22-4.13,7.16-2.59,1.78-5.67,2.35-9.23,1.7-3.56-.65-6.56-2.1-8.98-4.37-4.05-3.88-8.42-6.56-13.11-8.01-4.7-1.46-10.12-2.19-16.27-2.19-7.13,0-13.16,1.21-18.09,3.64-4.94,2.43-7.41,5.99-7.41,10.68,0,2.91.77,5.55,2.31,7.89,1.54,2.35,4.57,4.46,9.11,6.31,4.53,1.86,11.17,3.68,19.91,5.46,12.14,2.43,21.73,5.51,28.78,9.23,7.04,3.73,12.1,8.06,15.18,12.99,3.07,4.94,4.61,10.65,4.61,17.12,0,7.45-1.98,14.17-5.95,20.16-3.97,5.99-9.8,10.77-17.48,14.32-7.69,3.56-17.28,5.34-28.77,5.34Z"/>
    <path d="m896.78,246.8c-11.33,0-21.82-1.74-31.45-5.22-9.63-3.48-17.12-7.89-22.46-13.23-2.43-2.59-3.44-5.54-3.04-8.86.4-3.31,1.98-6.03,4.74-8.13,3.24-2.59,6.43-3.68,9.59-3.28,3.16.41,5.87,1.82,8.14,4.25,2.75,3.08,7.16,5.95,13.23,8.62,6.07,2.67,12.83,4.01,20.28,4.01,9.39,0,16.55-1.54,21.49-4.61,4.94-3.07,7.49-7.04,7.65-11.9.16-4.86-2.15-9.06-6.92-12.63-4.77-3.56-13.48-6.47-26.1-8.74-16.35-3.24-28.21-8.09-35.57-14.57-7.37-6.47-11.05-14.41-11.05-23.8,0-8.26,2.43-15.09,7.28-20.52,4.86-5.42,11.09-9.47,18.7-12.14,7.61-2.67,15.54-4.01,23.8-4.01,10.69,0,20.16,1.7,28.41,5.1,8.26,3.4,14.81,8.1,19.67,14.08,2.27,2.59,3.32,5.3,3.16,8.13-.16,2.83-1.54,5.22-4.13,7.16-2.59,1.78-5.67,2.35-9.23,1.7-3.56-.65-6.55-2.1-8.98-4.37-4.05-3.88-8.42-6.56-13.11-8.01-4.7-1.46-10.12-2.19-16.27-2.19-7.13,0-13.15,1.21-18.09,3.64-4.94,2.43-7.41,5.99-7.41,10.68,0,2.91.77,5.55,2.31,7.89,1.54,2.35,4.57,4.46,9.11,6.31,4.53,1.86,11.17,3.68,19.91,5.46,12.14,2.43,21.73,5.51,28.78,9.23,7.04,3.73,12.1,8.06,15.18,12.99,3.07,4.94,4.61,10.65,4.61,17.12,0,7.45-1.98,14.17-5.95,20.16-3.97,5.99-9.8,10.77-17.48,14.32-7.69,3.56-17.28,5.34-28.78,5.34Z"/>
  </g>
  <path class="d" d="m1080.02,0h638.81v246.09c0,51.15-41.53,92.67-92.67,92.67h-546.14c-51.15,0-92.67-41.53-92.67-92.67V92.67c0-51.15,41.53-92.67,92.67-92.67Z"/>
  <g>
    <path class="c" d="m1103.62,245.01c-12.9,0-24.35-2.87-34.37-8.62-10.02-5.74-17.86-13.68-23.54-23.8-5.67-10.12-8.5-21.73-8.5-34.85s2.68-24.97,8.04-35.09c5.36-10.12,12.78-18.05,22.25-23.8,9.47-5.75,20.35-8.62,32.62-8.62s22.52,2.79,31.22,8.38c8.7,5.58,15.34,13.28,19.92,23.07,4.58,9.8,6.87,21.09,6.87,33.88,0,3.08-1.01,5.63-3.03,7.65-2.02,2.03-4.58,3.04-7.69,3.04h-93.9v-19.43h93.2l-9.55,6.8c-.16-8.09-1.71-15.33-4.66-21.73-2.95-6.39-7.15-11.45-12.58-15.18-5.44-3.72-12.04-5.59-19.81-5.59-8.85,0-16.43,2.03-22.72,6.07-6.29,4.05-11.07,9.59-14.33,16.63-3.26,7.04-4.9,15.02-4.9,23.92s1.94,16.84,5.83,23.8c3.88,6.96,9.24,12.47,16.08,16.51,6.84,4.05,14.68,6.07,23.54,6.07,4.81,0,9.75-.93,14.79-2.79,5.05-1.86,9.13-4.01,12.23-6.44,2.33-1.78,4.85-2.71,7.57-2.79,2.72-.08,5.09.77,7.11,2.55,2.64,2.43,4.04,5.1,4.19,8.01s-1.09,5.42-3.73,7.53c-5.28,4.37-11.85,7.93-19.69,10.69-7.85,2.75-15.34,4.13-22.48,4.13Z"/>
    <path class="c" d="m1226.88,243.8c-4.82,0-8.54-2.67-11.18-8.01l-49.4-108.55c-1.24-2.75-1.36-5.46-.35-8.13,1.01-2.67,2.99-4.74,5.94-6.19,2.64-1.46,5.32-1.7,8.04-.73,2.71.97,4.77,2.83,6.17,5.58l46.13,103.69h-11.18l45.67-103.69c1.4-2.75,3.53-4.61,6.41-5.58,2.87-.97,5.79-.73,8.74.73,2.8,1.3,4.66,3.32,5.59,6.07.93,2.75.78,5.51-.47,8.26l-49.4,108.55c-2.33,5.34-5.91,8.01-10.72,8.01Z"/>
    <path class="c" d="m1366.68,245.01c-12.9,0-24.35-2.87-34.37-8.62-10.02-5.74-17.86-13.68-23.54-23.8-5.67-10.12-8.5-21.73-8.5-34.85s2.68-24.97,8.04-35.09c5.36-10.12,12.78-18.05,22.25-23.8,9.47-5.75,20.35-8.62,32.62-8.62s22.52,2.79,31.22,8.38c8.7,5.58,15.34,13.28,19.92,23.07,4.58,9.8,6.87,21.09,6.87,33.88,0,3.08-1.01,5.63-3.03,7.65-2.02,2.03-4.58,3.04-7.69,3.04h-93.9v-19.43h93.2l-9.55,6.8c-.16-8.09-1.71-15.33-4.66-21.73-2.95-6.39-7.15-11.45-12.58-15.18-5.44-3.72-12.04-5.59-19.81-5.59-8.85,0-16.43,2.03-22.72,6.07-6.29,4.05-11.07,9.59-14.33,16.63-3.26,7.04-4.9,15.02-4.9,23.92s1.94,16.84,5.83,23.8c3.88,6.96,9.24,12.47,16.08,16.51,6.84,4.05,14.68,6.07,23.54,6.07,4.81,0,9.75-.93,14.79-2.79,5.05-1.86,9.13-4.01,12.23-6.44,2.33-1.78,4.85-2.71,7.57-2.79,2.72-.08,5.09.77,7.11,2.55,2.64,2.43,4.04,5.1,4.19,8.01.16,2.91-1.09,5.42-3.73,7.53-5.28,4.37-11.85,7.93-19.69,10.69-7.85,2.75-15.34,4.13-22.48,4.13Z"/>
    <path class="c" d="m1463.37,244.29c-3.42,0-6.26-1.17-8.5-3.52-2.25-2.35-3.38-5.3-3.38-8.86v-108.3c0-3.72,1.12-6.72,3.38-8.98,2.25-2.27,5.09-3.4,8.5-3.4s6.44,1.13,8.62,3.4c2.17,2.27,3.26,5.26,3.26,8.98v108.3c0,3.56-1.09,6.52-3.26,8.86-2.18,2.35-5.05,3.52-8.62,3.52Zm95.76,0c-3.42,0-6.25-1.17-8.5-3.52-2.25-2.35-3.38-5.3-3.38-8.86v-59.74c0-9.23-1.63-16.75-4.89-22.58-3.26-5.83-7.65-10.16-13.17-12.99-5.52-2.83-11.85-4.25-18.99-4.25-6.53,0-12.43,1.38-17.71,4.13-5.28,2.75-9.48,6.43-12.58,11.05-3.11,4.61-4.66,9.92-4.66,15.9h-14.68c0-10.2,2.37-19.3,7.11-27.32,4.74-8.01,11.22-14.37,19.46-19.06,8.23-4.69,17.48-7.04,27.73-7.04s20.31,2.39,28.78,7.16c8.46,4.78,15.14,11.78,20.04,21s7.34,20.56,7.34,34v59.74c0,3.56-1.13,6.52-3.38,8.86-2.25,2.35-5.09,3.52-8.5,3.52Z"/>
    <path class="c" d="m1605.04,136.95c-3.26,0-5.91-.97-7.92-2.91-2.02-1.94-3.03-4.37-3.03-7.29,0-3.24,1.01-5.83,3.03-7.77,2.02-1.94,4.66-2.91,7.92-2.91h53.82c3.26,0,5.9.97,7.92,2.91,2.02,1.94,3.03,4.53,3.03,7.77,0,2.91-1.01,5.34-3.03,7.29-2.02,1.94-4.66,2.91-7.92,2.91h-53.82Zm51.73,107.09c-7.77,0-14.76-2.06-20.97-6.19-6.22-4.13-11.11-9.75-14.68-16.88-3.57-7.12-5.36-15.13-5.36-24.04v-115.83c0-3.56,1.09-6.47,3.26-8.74,2.17-2.26,4.97-3.4,8.39-3.4s6.21,1.13,8.39,3.4c2.17,2.27,3.26,5.18,3.26,8.74v115.83c0,6.48,1.71,11.9,5.13,16.27,3.41,4.37,7.61,6.56,12.58,6.56h7.92c2.8,0,5.16,1.13,7.11,3.4,1.94,2.27,2.91,5.18,2.91,8.74s-1.28,6.48-3.84,8.74c-2.56,2.27-5.87,3.4-9.9,3.4h-4.19Z"/>
  </g>
  <g>
    <path class="e" d="m24.4,442.2c-4.64,0-8.8-1.09-12.47-3.28-3.67-2.19-6.58-5.17-8.72-8.95-2.14-3.78-3.21-8.03-3.21-12.77s1.1-9.08,3.3-12.86c2.2-3.78,5.2-6.76,8.99-8.95,3.8-2.19,8.07-3.28,12.83-3.28s9.02,1.09,12.79,3.28c3.76,2.19,6.75,5.17,8.95,8.95,2.2,3.78,3.33,8.07,3.39,12.86l-2.8,2.16c0,4.32-1.01,8.2-3.03,11.65-2.02,3.45-4.76,6.18-8.22,8.18-3.46,2.01-7.4,3.02-11.79,3.02Zm.72-6.3c3.49,0,6.61-.81,9.35-2.43,2.74-1.62,4.91-3.85,6.51-6.7,1.59-2.85,2.39-6.04,2.39-9.58s-.8-6.8-2.39-9.62c-1.6-2.82-3.77-5.05-6.51-6.7-2.74-1.65-5.86-2.47-9.35-2.47s-6.54.83-9.31,2.47c-2.77,1.65-4.97,3.88-6.6,6.7-1.63,2.82-2.44,6.03-2.44,9.62s.81,6.73,2.44,9.58c1.63,2.85,3.82,5.08,6.6,6.7,2.77,1.62,5.87,2.43,9.31,2.43Zm21.6,5.85c-1.02,0-1.87-.32-2.53-.95-.66-.63-.99-1.45-.99-2.47v-15.38l1.72-7.11,5.33,1.35v21.14c0,1.02-.33,1.84-.99,2.47-.66.63-1.51.95-2.53.95Z"/>
    <path class="e" d="m99.76,442.2c-4.76,0-8.98-1.07-12.65-3.19-3.68-2.13-6.55-5.08-8.63-8.86s-3.12-8.09-3.12-12.95,1.08-9.26,3.25-13.04c2.17-3.78,5.15-6.73,8.95-8.86,3.79-2.13,8.1-3.19,12.92-3.19s9.2,1.06,12.97,3.19c3.76,2.13,6.72,5.08,8.86,8.86,2.14,3.78,3.24,8.12,3.3,13.04l-4.07,2.16c0,4.44-.94,8.38-2.8,11.82-1.87,3.45-4.44,6.15-7.72,8.09-3.28,1.95-7.03,2.92-11.25,2.92Zm.9,18.98c-4.76,0-8.95-.89-12.56-2.66s-6.6-4.18-8.95-7.24c-.66-.72-.95-1.5-.86-2.34.09-.84.53-1.53,1.31-2.07.78-.54,1.66-.72,2.62-.54.96.18,1.72.63,2.26,1.35,1.75,2.16,3.99,3.9,6.73,5.21,2.74,1.32,5.92,1.98,9.53,1.98,3.37,0,6.41-.81,9.13-2.43s4.86-3.9,6.46-6.84c1.59-2.94,2.39-6.39,2.39-10.34v-13.67l2.62-5.22,4.25.81v18.35c0,4.86-1.08,9.22-3.25,13.09-2.17,3.87-5.12,6.93-8.85,9.18-3.74,2.25-8.01,3.37-12.83,3.37Zm-.18-25.27c3.55,0,6.7-.79,9.44-2.38,2.74-1.59,4.89-3.79,6.46-6.61,1.57-2.82,2.35-6.05,2.35-9.71s-.78-6.91-2.35-9.76c-1.57-2.85-3.72-5.06-6.46-6.65-2.74-1.59-5.89-2.38-9.44-2.38s-6.72.8-9.49,2.38c-2.77,1.59-4.94,3.81-6.51,6.65-1.57,2.85-2.35,6.1-2.35,9.76s.78,6.9,2.35,9.71c1.56,2.82,3.73,5.02,6.51,6.61,2.77,1.59,5.93,2.38,9.49,2.38Z"/>
    <path class="e" d="m175.74,442.2c-4.88,0-9.2-1.07-12.97-3.19-3.76-2.13-6.72-5.08-8.85-8.86-2.14-3.78-3.21-8.09-3.21-12.95s1.01-9.25,3.03-13c2.02-3.74,4.8-6.7,8.36-8.86,3.55-2.16,7.65-3.24,12.29-3.24s8.57,1.03,11.97,3.1c3.4,2.07,6.04,4.93,7.91,8.59,1.87,3.66,2.8,7.83,2.8,12.5,0,.96-.3,1.72-.9,2.3-.6.57-1.39.85-2.35.85h-38.4v-5.76h39.13l-3.88,2.79c.06-3.48-.57-6.6-1.9-9.35s-3.21-4.92-5.65-6.48c-2.44-1.56-5.35-2.34-8.72-2.34s-6.45.81-9.04,2.43c-2.59,1.62-4.59,3.85-6.01,6.7-1.42,2.85-2.12,6.1-2.12,9.76s.8,6.9,2.39,9.71c1.6,2.82,3.78,5.04,6.55,6.65,2.77,1.62,5.96,2.43,9.58,2.43,2.17,0,4.35-.37,6.55-1.12,2.2-.75,3.96-1.69,5.29-2.83.66-.54,1.41-.82,2.26-.85.84-.03,1.57.2,2.17.68.78.72,1.19,1.5,1.22,2.34.03.84-.32,1.56-1.04,2.16-1.99,1.68-4.52,3.07-7.59,4.18-3.07,1.11-6.02,1.67-8.85,1.67Z"/>
    <path class="e" d="m226.52,441.75c-1.08,0-1.94-.32-2.57-.95-.63-.63-.95-1.45-.95-2.47v-42.27c0-1.08.32-1.93.95-2.56.63-.63,1.49-.95,2.57-.95,1.02,0,1.85.32,2.48.95s.95,1.48.95,2.56v42.27c0,1.02-.32,1.84-.95,2.47s-1.46.95-2.48.95Zm38.85,0c-1.02,0-1.87-.33-2.53-.99-.66-.66-.99-1.47-.99-2.43v-23.39c0-3.72-.71-6.77-2.12-9.17-1.42-2.4-3.34-4.2-5.78-5.4s-5.2-1.8-8.27-1.8-5.62.57-8,1.71c-2.38,1.14-4.26,2.7-5.65,4.68-1.39,1.98-2.08,4.22-2.08,6.75h-4.97c.12-3.78,1.14-7.15,3.07-10.12,1.93-2.97,4.49-5.31,7.68-7.02,3.19-1.71,6.75-2.56,10.66-2.56,4.28,0,8.1.88,11.47,2.65,3.37,1.77,6.04,4.36,8,7.78,1.96,3.42,2.94,7.59,2.94,12.5v23.39c0,.96-.33,1.77-.99,2.43-.66.66-1.48.99-2.44.99Z"/>
    <path class="e" d="m320.4,442.2c-4.76,0-8.99-1.09-12.7-3.28-3.7-2.19-6.63-5.17-8.76-8.95-2.14-3.78-3.21-8.03-3.21-12.77s1.02-9.08,3.07-12.86c2.05-3.78,4.85-6.76,8.4-8.95,3.55-2.19,7.65-3.28,12.29-3.28,3.67,0,7.06.72,10.16,2.16,3.1,1.44,5.83,3.6,8.18,6.48.66.72.9,1.48.72,2.29-.18.81-.69,1.51-1.54,2.11-.66.48-1.4.64-2.21.49-.81-.15-1.52-.59-2.12-1.31-3.49-3.96-7.89-5.93-13.19-5.93-3.38,0-6.34.81-8.9,2.43-2.56,1.62-4.55,3.84-5.96,6.66s-2.12,6.05-2.12,9.71.75,6.81,2.26,9.62c1.5,2.82,3.61,5.04,6.33,6.66s5.81,2.43,9.31,2.43c2.35,0,4.5-.31,6.46-.94s3.69-1.6,5.2-2.92c.72-.6,1.48-.93,2.26-.99.78-.06,1.5.18,2.17.72.72.66,1.13,1.41,1.22,2.25.09.84-.2,1.56-.86,2.16-4.4,4.02-9.88,6.03-16.44,6.03Z"/>
    <path class="e" d="m353.2,462.8c-1.02,0-1.87-.31-2.53-.94s-.99-1.48-.99-2.56c0-1.02.33-1.86.99-2.52s1.51-.99,2.53-.99c2.77,0,5.21-.6,7.32-1.8,2.11-1.2,3.78-2.85,5.02-4.95,1.23-2.1,1.85-4.53,1.85-7.28v-45.69c0-1.08.32-1.93.95-2.56s1.46-.95,2.49-.95,1.87.32,2.53.95.99,1.48.99,2.56v45.69c0,4.08-.9,7.7-2.71,10.88-1.81,3.18-4.31,5.66-7.5,7.47-3.19,1.8-6.84,2.7-10.93,2.7Zm17.53-79.59c-1.33,0-2.47-.48-3.43-1.44s-1.44-2.13-1.44-3.51c0-1.5.5-2.68,1.49-3.55.99-.87,2.15-1.3,3.48-1.3s2.39.44,3.39,1.3c.99.87,1.49,2.06,1.49,3.55,0,1.38-.48,2.55-1.45,3.51s-2.14,1.44-3.52,1.44Z"/>
    <path class="e" d="m424.4,442.2c-4.64,0-8.8-1.09-12.47-3.28-3.67-2.19-6.58-5.17-8.72-8.95-2.14-3.78-3.21-8.03-3.21-12.77s1.1-9.08,3.3-12.86c2.2-3.78,5.2-6.76,8.99-8.95,3.8-2.19,8.07-3.28,12.83-3.28s9.02,1.09,12.79,3.28c3.76,2.19,6.75,5.17,8.95,8.95,2.2,3.78,3.33,8.07,3.39,12.86l-2.8,2.16c0,4.32-1.01,8.2-3.03,11.65-2.02,3.45-4.76,6.18-8.22,8.18-3.46,2.01-7.4,3.02-11.79,3.02Zm.72-6.3c3.49,0,6.61-.81,9.35-2.43,2.74-1.62,4.91-3.85,6.51-6.7,1.59-2.85,2.39-6.04,2.39-9.58s-.8-6.8-2.39-9.62c-1.6-2.82-3.77-5.05-6.51-6.7-2.74-1.65-5.86-2.47-9.35-2.47s-6.54.83-9.31,2.47c-2.77,1.65-4.97,3.88-6.6,6.7-1.63,2.82-2.44,6.03-2.44,9.62s.81,6.73,2.44,9.58c1.63,2.85,3.82,5.08,6.6,6.7,2.77,1.62,5.87,2.43,9.31,2.43Zm21.6,5.85c-1.02,0-1.87-.32-2.53-.95-.66-.63-.99-1.45-.99-2.47v-15.38l1.72-7.11,5.33,1.35v21.14c0,1.02-.33,1.84-.99,2.47-.66.63-1.51.95-2.53.95Z"/>
    <path class="e" d="m541.05,442.2c-4.88,0-9.2-1.07-12.97-3.19-3.76-2.13-6.72-5.08-8.85-8.86-2.14-3.78-3.21-8.09-3.21-12.95s1.01-9.25,3.03-13c2.02-3.74,4.8-6.7,8.36-8.86,3.55-2.16,7.65-3.24,12.29-3.24s8.57,1.03,11.97,3.1c3.4,2.07,6.04,4.93,7.91,8.59,1.87,3.66,2.8,7.83,2.8,12.5,0,.96-.3,1.72-.9,2.3-.6.57-1.39.85-2.35.85h-38.4v-5.76h39.13l-3.88,2.79c.06-3.48-.57-6.6-1.9-9.35s-3.21-4.92-5.65-6.48c-2.44-1.56-5.35-2.34-8.72-2.34s-6.45.81-9.04,2.43c-2.59,1.62-4.59,3.85-6.01,6.7-1.42,2.85-2.12,6.1-2.12,9.76s.8,6.9,2.39,9.71c1.6,2.82,3.78,5.04,6.55,6.65,2.77,1.62,5.96,2.43,9.58,2.43,2.17,0,4.35-.37,6.55-1.12,2.2-.75,3.96-1.69,5.29-2.83.66-.54,1.41-.82,2.26-.85.84-.03,1.57.2,2.17.68.78.72,1.19,1.5,1.22,2.34.03.84-.32,1.56-1.04,2.16-1.99,1.68-4.52,3.07-7.59,4.18-3.07,1.11-6.02,1.67-8.85,1.67Z"/>
    <path class="e" d="m603.4,441.75c-1.44,0-2.53-.78-3.25-2.34l-20.06-42.36c-.36-.78-.39-1.56-.09-2.34.3-.78.9-1.38,1.81-1.8.84-.42,1.66-.48,2.44-.18.78.3,1.38.84,1.81,1.62l19.25,41.46h-3.7l18.98-41.46c.36-.84.98-1.4,1.85-1.67.87-.27,1.73-.23,2.57.13.84.42,1.42,1.04,1.72,1.84.3.81.27,1.58-.09,2.29l-19.79,42.45c-.72,1.56-1.87,2.34-3.43,2.34Z"/>
    <path class="e" d="m671.26,442.2c-4.88,0-9.2-1.07-12.97-3.19-3.76-2.13-6.72-5.08-8.85-8.86-2.14-3.78-3.21-8.09-3.21-12.95s1.01-9.25,3.03-13c2.02-3.74,4.8-6.7,8.36-8.86,3.55-2.16,7.65-3.24,12.29-3.24s8.57,1.03,11.97,3.1c3.4,2.07,6.04,4.93,7.91,8.59,1.87,3.66,2.8,7.83,2.8,12.5,0,.96-.3,1.72-.9,2.3-.6.57-1.39.85-2.35.85h-38.4v-5.76h39.13l-3.88,2.79c.06-3.48-.57-6.6-1.9-9.35s-3.21-4.92-5.65-6.48c-2.44-1.56-5.35-2.34-8.72-2.34s-6.45.81-9.04,2.43c-2.59,1.62-4.59,3.85-6.01,6.7-1.42,2.85-2.12,6.1-2.12,9.76s.8,6.9,2.39,9.71c1.6,2.82,3.78,5.04,6.55,6.65,2.77,1.62,5.96,2.43,9.58,2.43,2.17,0,4.35-.37,6.55-1.12,2.2-.75,3.96-1.69,5.29-2.83.66-.54,1.41-.82,2.26-.85.84-.03,1.57.2,2.17.68.78.72,1.19,1.5,1.22,2.34.03.84-.32,1.56-1.04,2.16-1.99,1.68-4.52,3.07-7.59,4.18-3.07,1.11-6.02,1.67-8.85,1.67Z"/>
    <path class="e" d="m722.04,441.75c-1.08,0-1.94-.32-2.57-.95-.63-.63-.95-1.45-.95-2.47v-42.27c0-1.08.32-1.93.95-2.56.63-.63,1.49-.95,2.57-.95,1.02,0,1.85.32,2.48.95s.95,1.48.95,2.56v42.27c0,1.02-.32,1.84-.95,2.47s-1.46.95-2.48.95Zm38.85,0c-1.02,0-1.87-.33-2.53-.99-.66-.66-.99-1.47-.99-2.43v-23.39c0-3.72-.71-6.77-2.12-9.17-1.42-2.4-3.34-4.2-5.78-5.4s-5.2-1.8-8.27-1.8-5.62.57-8,1.71c-2.38,1.14-4.26,2.7-5.65,4.68-1.39,1.98-2.08,4.22-2.08,6.75h-4.97c.12-3.78,1.14-7.15,3.07-10.12,1.93-2.97,4.49-5.31,7.68-7.02,3.19-1.71,6.75-2.56,10.66-2.56,4.28,0,8.1.88,11.47,2.65,3.37,1.77,6.04,4.36,8,7.78,1.96,3.42,2.94,7.59,2.94,12.5v23.39c0,.96-.33,1.77-.99,2.43-.66.66-1.48.99-2.44.99Z"/>
    <path class="e" d="m790.71,400.38c-.9,0-1.66-.28-2.26-.85-.6-.57-.9-1.27-.9-2.11,0-.9.3-1.63.9-2.2.6-.57,1.36-.85,2.26-.85h23.04c.9,0,1.66.28,2.26.85.6.57.9,1.31.9,2.2,0,.84-.3,1.55-.9,2.11-.6.57-1.36.85-2.26.85h-23.04Zm22.5,41.37c-3.19,0-6.04-.75-8.54-2.25-2.5-1.5-4.47-3.55-5.92-6.16-1.45-2.61-2.17-5.59-2.17-8.95v-43.98c0-1.02.32-1.86.95-2.52s1.46-.99,2.49-.99,1.87.33,2.53.99.99,1.5.99,2.52v43.98c0,3.06.9,5.56,2.71,7.51,1.81,1.95,4.13,2.92,6.96,2.92h2.44c.96,0,1.75.33,2.35.99.6.66.9,1.5.9,2.52s-.36,1.84-1.08,2.47-1.63.95-2.71.95h-1.9Z"/>
    <path class="e" d="m866.88,442.2c-4.82,0-9.13-1.08-12.92-3.24-3.79-2.16-6.78-5.13-8.94-8.91-2.17-3.78-3.25-8.06-3.25-12.86s1.08-9.17,3.25-12.95c2.17-3.78,5.15-6.75,8.94-8.91,3.8-2.16,8.1-3.24,12.92-3.24s9.11,1.08,12.88,3.24c3.76,2.16,6.73,5.13,8.9,8.91s3.28,8.09,3.34,12.95c0,4.8-1.1,9.08-3.3,12.86-2.2,3.78-5.18,6.75-8.94,8.91-3.76,2.16-8.06,3.24-12.88,3.24Zm0-6.3c3.49,0,6.63-.81,9.4-2.43,2.77-1.62,4.94-3.84,6.51-6.66,1.57-2.82,2.35-6.03,2.35-9.62s-.78-6.82-2.35-9.67c-1.57-2.85-3.74-5.08-6.51-6.7-2.77-1.62-5.91-2.43-9.4-2.43s-6.63.81-9.4,2.43c-2.77,1.62-4.96,3.86-6.55,6.7-1.6,2.85-2.39,6.07-2.39,9.67s.8,6.81,2.39,9.62c1.6,2.82,3.78,5.04,6.55,6.66,2.77,1.62,5.9,2.43,9.4,2.43Z"/>
    <path class="e" d="m928.24,441.75c-.78,0-1.48-.21-2.08-.63-.6-.42-1.02-.96-1.26-1.62l-14.1-42.09c-.36-1.5-.33-2.68.09-3.55s1.26-1.31,2.53-1.31c.78,0,1.48.21,2.08.63.6.42,1.05,1.08,1.36,1.98l12.56,38.22h-1.99l11.65-38.13c.24-.78.65-1.42,1.22-1.94.57-.51,1.31-.76,2.21-.76s1.64.24,2.21.72c.57.48.98,1.14,1.22,1.98l11.11,37.23h-1.53l12.29-37.32c.6-1.74,1.72-2.61,3.34-2.61,1.32,0,2.23.49,2.71,1.48.48.99.48,2.11,0,3.37l-14.1,42.09c-.24.66-.65,1.2-1.22,1.62-.57.42-1.25.63-2.03.63s-1.49-.21-2.12-.63-1.04-.96-1.22-1.62l-11.39-37.59h1.09l-11.39,37.59c-.24.72-.66,1.27-1.26,1.66-.6.39-1.26.59-1.99.59Z"/>
    <path class="e" d="m1018.77,442.2c-4.82,0-9.13-1.08-12.92-3.24-3.79-2.16-6.78-5.13-8.94-8.91-2.17-3.78-3.25-8.06-3.25-12.86s1.08-9.17,3.25-12.95c2.17-3.78,5.15-6.75,8.94-8.91,3.8-2.16,8.1-3.24,12.92-3.24s9.11,1.08,12.88,3.24c3.76,2.16,6.73,5.13,8.9,8.91s3.28,8.09,3.34,12.95c0,4.8-1.1,9.08-3.3,12.86-2.2,3.78-5.18,6.75-8.94,8.91-3.76,2.16-8.06,3.24-12.88,3.24Zm0-6.3c3.49,0,6.63-.81,9.4-2.43,2.77-1.62,4.94-3.84,6.51-6.66,1.57-2.82,2.35-6.03,2.35-9.62s-.78-6.82-2.35-9.67c-1.57-2.85-3.74-5.08-6.51-6.7-2.77-1.62-5.91-2.43-9.4-2.43s-6.63.81-9.4,2.43c-2.77,1.62-4.96,3.86-6.55,6.7-1.6,2.85-2.39,6.07-2.39,9.67s.8,6.81,2.39,9.62c1.6,2.82,3.78,5.04,6.55,6.66,2.77,1.62,5.9,2.43,9.4,2.43Z"/>
    <path class="e" d="m1070.37,420.62c-.97,0-1.78-.33-2.44-.99s-.99-1.47-.99-2.43c0-1.02.33-1.86.99-2.52.66-.66,1.48-.99,2.44-.99h21.23c1.02,0,1.86.33,2.53.99.66.66.99,1.5.99,2.52,0,.96-.33,1.77-.99,2.43-.66.66-1.51.99-2.53.99h-21.23Z"/>
    <path class="e" d="m1124.58,441.75c-1.09,0-1.93-.3-2.53-.9s-.9-1.44-.9-2.52v-42.36c0-1.08.3-1.92.9-2.52.6-.6,1.45-.9,2.53-.9s1.93.3,2.53.9c.6.6.9,1.44.9,2.52v42.36c0,1.08-.3,1.92-.9,2.52-.6.6-1.45.9-2.53.9Zm-.54-30.31c.18-3.72,1.16-7.04,2.94-9.98,1.78-2.94,4.1-5.24,6.96-6.92,2.86-1.68,6.04-2.52,9.53-2.52,2.77,0,4.91.39,6.41,1.17,1.5.78,2.08,1.92,1.72,3.42-.24.9-.65,1.5-1.22,1.8-.57.3-1.26.42-2.08.36s-1.73-.12-2.75-.18c-3.38-.3-6.37.05-8.99,1.04s-4.7,2.5-6.24,4.54c-1.53,2.04-2.3,4.47-2.3,7.28h-3.98Z"/>
    <path class="e" d="m1195.51,442.2c-4.88,0-9.2-1.07-12.97-3.19-3.76-2.13-6.72-5.08-8.86-8.86s-3.21-8.09-3.21-12.95,1.01-9.25,3.03-13c2.02-3.74,4.8-6.7,8.36-8.86,3.55-2.16,7.65-3.24,12.29-3.24s8.57,1.03,11.97,3.1c3.4,2.07,6.04,4.93,7.91,8.59,1.86,3.66,2.8,7.83,2.8,12.5,0,.96-.3,1.72-.9,2.3-.6.57-1.39.85-2.35.85h-38.4v-5.76h39.13l-3.89,2.79c.06-3.48-.57-6.6-1.9-9.35s-3.21-4.92-5.65-6.48c-2.44-1.56-5.35-2.34-8.72-2.34s-6.45.81-9.03,2.43c-2.59,1.62-4.6,3.85-6.01,6.7-1.42,2.85-2.12,6.1-2.12,9.76s.8,6.9,2.39,9.71c1.6,2.82,3.78,5.04,6.55,6.65,2.77,1.62,5.96,2.43,9.58,2.43,2.17,0,4.35-.37,6.55-1.12s3.96-1.69,5.29-2.83c.66-.54,1.41-.82,2.26-.85.84-.03,1.56.2,2.17.68.78.72,1.19,1.5,1.22,2.34.03.84-.32,1.56-1.04,2.16-1.99,1.68-4.52,3.07-7.59,4.18-3.07,1.11-6.03,1.67-8.86,1.67Z"/>
    <path class="e" d="m1246.2,441.75c-1.03,0-1.85-.32-2.49-.95s-.95-1.45-.95-2.47v-63.41c0-1.02.32-1.84.95-2.47s1.46-.94,2.49-.94,1.85.31,2.48.94.95,1.46.95,2.47v63.41c0,1.02-.32,1.84-.95,2.47s-1.46.95-2.48.95Zm2.26-16.46l-4.25-4.58,30.9-27.79c.72-.66,1.48-.97,2.26-.95.78.03,1.51.41,2.17,1.12.66.72.98,1.48.95,2.3-.03.81-.41,1.51-1.13,2.11l-30.9,27.79Zm31.17,16.01c-.78.66-1.6.95-2.44.85-.85-.09-1.57-.52-2.17-1.3l-20.15-24.64,4.88-4.32,20.33,24.91c.6.72.87,1.48.81,2.3-.06.81-.48,1.54-1.26,2.2Z"/>
    <path class="e" d="m1319.3,441.75c-2.41,0-4.56-.66-6.46-1.98-1.9-1.32-3.38-3.15-4.43-5.49-1.06-2.34-1.58-5.04-1.58-8.09v-51.26c0-1.02.32-1.84.95-2.47.63-.63,1.46-.94,2.48-.94s1.85.31,2.49.94.95,1.46.95,2.47v51.26c0,2.58.53,4.68,1.58,6.3s2.39,2.43,4.02,2.43h2.26c.9,0,1.63.32,2.17.95s.81,1.46.81,2.47-.38,1.84-1.13,2.47c-.76.63-1.73.95-2.94.95h-1.17Z"/>
    <path class="e" d="m1367.37,442.2c-4.64,0-8.8-1.09-12.47-3.28-3.68-2.19-6.58-5.17-8.72-8.95-2.14-3.78-3.21-8.03-3.21-12.77s1.1-9.08,3.3-12.86c2.2-3.78,5.2-6.76,8.99-8.95,3.79-2.19,8.07-3.28,12.83-3.28s9.02,1.09,12.79,3.28,6.75,5.17,8.94,8.95c2.2,3.78,3.33,8.07,3.39,12.86l-2.8,2.16c0,4.32-1.01,8.2-3.03,11.65-2.02,3.45-4.76,6.18-8.22,8.18-3.47,2.01-7.4,3.02-11.79,3.02Zm.72-6.3c3.49,0,6.61-.81,9.35-2.43s4.91-3.85,6.51-6.7c1.6-2.85,2.39-6.04,2.39-9.58s-.8-6.8-2.39-9.62c-1.6-2.82-3.76-5.05-6.51-6.7s-5.86-2.47-9.35-2.47-6.54.83-9.31,2.47c-2.77,1.65-4.97,3.88-6.6,6.7-1.63,2.82-2.44,6.03-2.44,9.62s.81,6.73,2.44,9.58c1.62,2.85,3.82,5.08,6.6,6.7,2.77,1.62,5.87,2.43,9.31,2.43Zm21.59,5.85c-1.02,0-1.87-.32-2.53-.95-.66-.63-1-1.45-1-2.47v-15.38l1.72-7.11,5.33,1.35v21.14c0,1.02-.33,1.84-1,2.47s-1.5.95-2.53.95Z"/>
    <path class="e" d="m1424.47,441.75c-1.08,0-1.94-.32-2.57-.95s-.95-1.45-.95-2.47v-42.27c0-1.02.32-1.86.95-2.52.63-.66,1.49-.99,2.57-.99,1.02,0,1.85.33,2.49.99.63.66.95,1.5.95,2.52v42.27c0,1.02-.32,1.84-.95,2.47s-1.46.95-2.49.95Zm31.72,0c-1.03,0-1.87-.32-2.53-.95-.66-.63-.99-1.45-.99-2.47v-25.9c0-4.26-1.12-7.63-3.34-10.12-2.23-2.49-5.09-3.73-8.58-3.73-3.74,0-6.81,1.21-9.22,3.64-2.41,2.43-3.62,5.59-3.62,9.49h-4.97c.12-3.84.98-7.24,2.57-10.21s3.78-5.29,6.55-6.97c2.77-1.68,5.9-2.52,9.4-2.52s6.7.84,9.44,2.52c2.74,1.68,4.88,4.05,6.41,7.11,1.54,3.06,2.3,6.65,2.3,10.79v25.9c0,1.02-.32,1.84-.95,2.47s-1.46.95-2.48.95Zm31.53,0c-1.02,0-1.87-.32-2.53-.95-.66-.63-1-1.45-1-2.47v-25.9c0-4.26-1.12-7.63-3.34-10.12-2.23-2.49-5.09-3.73-8.58-3.73-3.74,0-6.79,1.25-9.17,3.73-2.38,2.49-3.54,5.8-3.48,9.94h-6.23c.06-4.02.93-7.56,2.62-10.61,1.69-3.06,4.01-5.42,6.96-7.11,2.95-1.68,6.29-2.52,10.03-2.52s6.7.84,9.44,2.52c2.74,1.68,4.88,4.05,6.42,7.11,1.53,3.06,2.3,6.65,2.3,10.79v25.9c0,1.02-.32,1.84-.95,2.47s-1.46.95-2.49.95Z"/>
    <path class="e" d="m1543.2,442.2c-4.82,0-9.13-1.08-12.92-3.24-3.79-2.16-6.78-5.13-8.94-8.91-2.17-3.78-3.25-8.06-3.25-12.86s1.08-9.17,3.25-12.95c2.17-3.78,5.15-6.75,8.94-8.91,3.8-2.16,8.1-3.24,12.92-3.24s9.11,1.08,12.88,3.24c3.76,2.16,6.73,5.13,8.9,8.91s3.28,8.09,3.34,12.95c0,4.8-1.1,9.08-3.3,12.86-2.2,3.78-5.18,6.75-8.94,8.91-3.76,2.16-8.06,3.24-12.88,3.24Zm0-6.3c3.49,0,6.63-.81,9.4-2.43,2.77-1.62,4.94-3.84,6.51-6.66,1.57-2.82,2.35-6.03,2.35-9.62s-.78-6.82-2.35-9.67c-1.57-2.85-3.74-5.08-6.51-6.7-2.77-1.62-5.91-2.43-9.4-2.43s-6.63.81-9.4,2.43c-2.77,1.62-4.96,3.86-6.55,6.7-1.6,2.85-2.39,6.07-2.39,9.67s.8,6.81,2.39,9.62c1.6,2.82,3.78,5.04,6.55,6.66,2.77,1.62,5.9,2.43,9.4,2.43Z"/>
    <path class="e" d="m1604.56,441.75c-.78,0-1.48-.21-2.08-.63-.6-.42-1.02-.96-1.26-1.62l-14.1-42.09c-.36-1.5-.33-2.68.09-3.55s1.26-1.31,2.53-1.31c.78,0,1.48.21,2.08.63.6.42,1.05,1.08,1.36,1.98l12.56,38.22h-1.99l11.65-38.13c.24-.78.65-1.42,1.22-1.94.57-.51,1.31-.76,2.21-.76s1.64.24,2.21.72c.57.48.98,1.14,1.22,1.98l11.11,37.23h-1.53l12.29-37.32c.6-1.74,1.72-2.61,3.34-2.61,1.32,0,2.23.49,2.71,1.48.48.99.48,2.11,0,3.37l-14.1,42.09c-.24.66-.65,1.2-1.22,1.62-.57.42-1.25.63-2.03.63s-1.49-.21-2.12-.63-1.04-.96-1.22-1.62l-11.39-37.59h1.09l-11.39,37.59c-.24.72-.66,1.27-1.26,1.66-.6.39-1.26.59-1.99.59Z"/>
    <path class="e" d="m1694.37,442.2c-4.64,0-8.8-1.09-12.47-3.28-3.68-2.19-6.58-5.17-8.72-8.95-2.14-3.78-3.21-8.03-3.21-12.77s1.1-9.08,3.3-12.86c2.2-3.78,5.2-6.76,8.99-8.95s8.07-3.28,12.83-3.28,9.02,1.09,12.79,3.28,6.75,5.17,8.94,8.95c2.2,3.78,3.33,8.07,3.39,12.86l-2.8,2.16c0,4.32-1.01,8.2-3.03,11.65-2.02,3.45-4.76,6.18-8.22,8.18-3.47,2.01-7.4,3.02-11.79,3.02Zm.72-6.3c3.49,0,6.61-.81,9.35-2.43,2.74-1.62,4.91-3.85,6.51-6.7,1.6-2.85,2.39-6.04,2.39-9.58s-.8-6.8-2.39-9.62c-1.6-2.82-3.76-5.05-6.51-6.7s-5.86-2.47-9.35-2.47-6.54.83-9.31,2.47c-2.77,1.65-4.97,3.88-6.6,6.7-1.63,2.82-2.44,6.03-2.44,9.62s.81,6.73,2.44,9.58c1.62,2.85,3.82,5.08,6.6,6.7,2.77,1.62,5.87,2.43,9.31,2.43Zm21.59,5.85c-1.02,0-1.87-.32-2.53-.95-.66-.63-1-1.45-1-2.47v-15.38l1.72-7.11,5.33,1.35v21.14c0,1.02-.33,1.84-1,2.47s-1.5.95-2.53.95Z"/>
  </g>
</svg>