<?xml version="1.0" encoding="UTF-8"?>
<svg width="600px" height="400px" viewBox="0 0 600 400" version="1.1" xmlns="http://www.w3.org/2000/svg" xmlns:xlink="http://www.w3.org/1999/xlink">
    <!-- Generator: Sketch 54.1 (76490) - https://sketchapp.com -->
    <title>Artboard</title>
    <desc>Created with Sketch.</desc>
    <g id="Artboard" stroke="none" stroke-width="1" fill="none" fill-rule="evenodd">
        <rect fill="#FFFFFF" x="0" y="0" width="600" height="400"></rect>
        <g id="Gruba-logo" transform="translate(114.000000, 10.000000)">
            <g>
                <path d="M216.890971,112.848485 L189.851513,139.909091 L216.890971,112.848485 Z M167.989824,161.979798 C153.798903,176.181818 139.416212,190.575758 125.225291,204.777778 C126.567675,206.121212 128.293598,207.848485 129.635983,209.191919 C131.170136,210.727273 132.70429,212.262626 134.238444,213.79798 C164.729747,183.282828 195.41282,152.575758 225.904124,122.060606 C224.36997,120.525253 222.835816,118.989899 221.301663,117.454545 C192.536282,146.242424 163.770901,175.030303 135.00552,203.818182 M249.683505,125.515152 L264.257965,140.10101 C260.806119,143.555556 257.546043,146.818182 254.094197,150.272727 C251.984736,148.161616 249.875274,146.050505 247.765813,143.939394 C249.491736,142.212121 251.409428,140.292929 253.135351,138.565657 M207.302511,66.020202 C201.165896,72.1616162 194.837512,78.4949495 188.700898,84.6363636 C189.851513,85.7878788 191.193898,87.1313131 192.344513,88.2828283 C192.91982,88.8585859 193.303359,89.2424242 193.878666,89.8181818 M204.617742,100.565657 C216.890971,112.848485 229.355969,125.131313 241.629199,137.606061 C243.355121,135.878788 245.081044,134.151515 246.615198,132.424242 C230.698354,116.494949 214.589741,100.565657 198.672897,84.6363636 C200.398819,82.9090909 202.124742,81.1818182 203.658896,79.6464646 C215.356817,91.3535354 227.054739,103.060606 238.75266,114.767677 M215.548587,61.2222222 C236.834968,82.5252525 257.929581,103.636364 279.215963,124.939394 C275.955886,128.20202 272.504041,131.656566 269.243964,134.919192 C249.108198,114.767677 228.972431,94.6161616 208.836664,74.4646465 C210.562587,72.7373737 212.28851,71.010101 213.822664,69.4747475 C231.6572,87.3232323 249.491736,105.171717 267.326272,123.212121 M135.964366,118.222222 C167.798055,150.080808 199.631743,181.939394 231.273661,213.79798 C234.533738,210.535354 237.793814,207.272727 241.053891,204.010101 C209.411972,172.343434 177.578284,140.484848 145.744596,108.626263 C146.511673,107.858586 147.27875,107.090909 148.237596,106.131313 C146.703442,104.59596 145.169288,103.060606 143.635135,101.525253 C147.470519,98.2626263 151.305903,94.8080808 155.141287,91.5454545 C164.729747,83.4848485 174.126438,75.8080808 183.523129,68.5151515 C172.400515,71.010101 154.565979,76.3838384 135.964366,89.4343434 C114.486215,104.40404 102.212986,122.252525 96.268141,132.616162 C100.295294,136.646465 104.514217,140.868687 108.54137,144.89899 C111.03437,140.292929 113.910908,135.494949 117.554523,130.313131 C121.389907,124.939394 125.225291,120.141414 128.677137,116.111111 C130.21129,117.646465 131.937213,119.373737 133.471367,120.909091 C134.430213,119.949495 135.19729,119.181818 135.964366,118.222222 Z" id="XMLID_96_" stroke="#000000" stroke-width="2.71949495"></path>
                <path d="M169.332208,163.707071 C168.565131,164.474747 167.222747,164.474747 166.45567,163.707071 C165.688593,162.939394 165.688593,161.59596 166.45567,160.828283 C167.222747,160.060606 168.565131,160.060606 169.332208,160.828283 C170.099285,161.59596 170.099285,162.939394 169.332208,163.707071" id="XMLID_42_" fill="#000000"></path>
                <circle id="XMLID_41_" stroke="#000000" stroke-width="1.36069402" transform="translate(167.783653, 162.322777) rotate(45.000000) translate(-167.783653, -162.322777) " cx="167.783653" cy="162.322777" r="2.11026611"></circle>
                <path d="M191.002128,142.020202 C190.235052,142.787879 188.892667,142.787879 188.12559,142.020202 C187.358513,141.252525 187.358513,139.909091 188.12559,139.141414 C188.892667,138.373737 190.235052,138.373737 191.002128,139.141414 C191.769205,139.909091 191.769205,141.252525 191.002128,142.020202" id="XMLID_40_" fill="#000000"></path>
                <ellipse id="XMLID_39_" stroke="#000000" stroke-width="1.36070707" cx="189.467975" cy="140.484848" rx="2.10946126" ry="2.11111111"></ellipse>
                <path d="M253.32712,141.636364 C252.560043,142.40404 251.217659,142.40404 250.450582,141.636364 C249.683505,140.868687 249.683505,139.525253 250.450582,138.757576 C251.217659,137.989899 252.560043,137.989899 253.32712,138.757576 C254.285966,139.525253 254.285966,140.868687 253.32712,141.636364" id="XMLID_38_" fill="#000000"></path>
                <ellipse id="XMLID_37_" stroke="#000000" stroke-width="1.36070707" cx="251.984736" cy="140.292929" rx="2.10946126" ry="2.11111111"></ellipse>
                <path d="M242.204506,117.838384 C241.437429,118.606061 240.095045,118.606061 239.327968,117.838384 C238.560891,117.070707 238.560891,115.727273 239.327968,114.959596 C240.095045,114.191919 241.437429,114.191919 242.204506,114.959596 C243.163352,115.727273 243.163352,117.070707 242.204506,117.838384" id="XMLID_36_" fill="#000000"></path>
                <ellipse id="XMLID_35_" stroke="#000000" stroke-width="1.36070707" cx="240.862122" cy="116.30303" rx="2.10946126" ry="2.11111111"></ellipse>
                <path d="M250.067044,125.515152 C249.299967,126.282828 247.957582,126.282828 247.190505,125.515152 C246.423429,124.747475 246.423429,123.40404 247.190505,122.636364 C247.957582,121.868687 249.299967,121.868687 250.067044,122.636364 C251.02589,123.40404 251.02589,124.747475 250.067044,125.515152" id="XMLID_34_" fill="#000000"></path>
                <ellipse id="XMLID_33_" stroke="#000000" stroke-width="1.36070707" cx="248.724659" cy="124.171717" rx="2.10946126" ry="2.11111111"></ellipse>
                <path d="M269.627502,124.939394 C268.860426,125.707071 267.518041,125.707071 266.750964,124.939394 C265.983888,124.171717 265.983888,122.828283 266.750964,122.060606 C267.518041,121.292929 268.860426,121.292929 269.627502,122.060606 C270.394579,122.828283 270.394579,124.171717 269.627502,124.939394" id="XMLID_32_" fill="#000000"></path>
                <ellipse id="XMLID_31_" stroke="#000000" stroke-width="1.36070707" cx="268.093349" cy="123.59596" rx="2.10946126" ry="2.11111111"></ellipse>
                <path d="M196.563435,92.5050505 C195.796358,93.2727273 194.453974,93.2727273 193.686897,92.5050505 C192.91982,91.7373737 192.91982,90.3939394 193.686897,89.6262626 C194.453974,88.8585859 195.796358,88.8585859 196.563435,89.6262626 C197.330512,90.3939394 197.330512,91.5454545 196.563435,92.5050505" id="XMLID_30_" fill="#000000"></path>
                <ellipse id="XMLID_29_" stroke="#000000" stroke-width="1.36070707" cx="195.221051" cy="90.969697" rx="2.10946126" ry="2.11111111"></ellipse>
                <path d="M204.425973,100.181818 C203.658896,100.949495 202.316511,100.949495 201.549435,100.181818 C200.782358,99.4141414 200.782358,98.0707071 201.549435,97.3030303 C202.316511,96.5353535 203.658896,96.5353535 204.425973,97.3030303 C205.384819,98.0707071 205.384819,99.4141414 204.425973,100.181818" id="XMLID_28_" fill="#000000"></path>
                <ellipse id="XMLID_27_" stroke="#000000" stroke-width="1.36070707" cx="203.083588" cy="98.8383838" rx="2.10946126" ry="2.11111111"></ellipse>
                <path d="M215.356817,60.8383838 C214.589741,61.6060606 213.247356,61.6060606 212.480279,60.8383838 C211.713203,60.0707071 211.713203,58.7272727 212.480279,57.959596 C213.247356,57.1919192 214.589741,57.1919192 215.356817,57.959596 C216.315663,58.7272727 216.315663,59.8787879 215.356817,60.8383838" id="XMLID_26_" fill="#000000"></path>
                <ellipse id="XMLID_25_" stroke="#000000" stroke-width="1.36070707" cx="214.014433" cy="59.3030303" rx="2.10946126" ry="2.11111111"></ellipse>
                <path d="M213.822664,252.757576 C205.384819,254.676768 196.755205,255.636364 187.742052,255.636364 C121.389907,255.636364 67.6945294,201.89899 67.6945294,135.494949 C67.6945294,69.0909091 121.389907,15.3535354 187.742052,15.3535354 C254.094197,15.3535354 307.789574,69.0909091 307.789574,135.494949 C307.789574,174.070707 289.5715,208.424242 261.189657,230.494949" id="XMLID_24_" stroke="#000000" stroke-width="2.71949495"></path>
                <path d="M105.281294,30.7070707 C156.100133,-9.5959596 229.931277,-8.06060606 279.215963,37.2323232 C333.678417,87.3232323 337.130263,172.151515 287.0785,226.656566 C237.026738,281.161616 152.264749,284.616162 97.8022946,234.525253 C51.2023778,191.535354 41.8056867,123.212121 71.5299135,70.2424242" id="XMLID_23_" stroke="#000000" stroke-width="1.36070707"></path>
                <path d="M105.856601,31.8585859 C105.664832,33.010101 104.705986,33.7777778 103.555371,33.5858586 C102.404756,33.3939394 101.637679,32.4343434 101.829448,31.2828283 C102.021217,30.1313131 102.980063,29.3636364 104.130678,29.5555556 C105.281294,29.7474747 106.04837,30.7070707 105.856601,31.8585859" id="XMLID_22_" fill="#000000"></path>
                <ellipse id="XMLID_21_" stroke="#000000" stroke-width="1.36070707" cx="103.74714" cy="31.4747475" rx="2.10946126" ry="2.11111111"></ellipse>
                <path d="M74.2146824,68.7070707 C74.0229132,69.8585859 73.0640672,70.6262626 71.9134519,70.4343434 C70.7628367,70.2424242 69.9957599,69.2828283 70.1875291,68.1313131 C70.3792983,66.979798 71.3381443,66.2121212 72.4887596,66.4040404 C73.6393748,66.5959596 74.4064516,67.7474747 74.2146824,68.7070707" id="XMLID_20_" fill="#000000"></path>
                <ellipse id="XMLID_19_" stroke="#000000" stroke-width="1.36070707" cx="72.2969904" cy="68.5151515" rx="2.10946126" ry="2.11111111"></ellipse>
                <path d="M217.08274,253.717172 C216.315663,254.484848 214.973279,254.484848 214.206202,253.717172 C213.439125,252.949495 213.439125,251.606061 214.206202,250.838384 C214.973279,250.070707 216.315663,250.070707 217.08274,250.838384 C217.849817,251.606061 217.849817,252.949495 217.08274,253.717172" id="XMLID_18_" fill="#000000"></path>
                <ellipse id="XMLID_17_" stroke="#000000" stroke-width="1.36070707" cx="215.740356" cy="252.373737" rx="2.10946126" ry="2.11111111"></ellipse>
                <path d="M261.573196,233.181818 C260.806119,233.949495 259.463735,233.949495 258.696658,233.181818 C257.929581,232.414141 257.929581,231.070707 258.696658,230.30303 C259.463735,229.535354 260.806119,229.535354 261.573196,230.30303 C262.532042,231.070707 262.532042,232.222222 261.573196,233.181818" id="XMLID_16_" fill="#000000"></path>
                <ellipse id="XMLID_15_" stroke="#000000" stroke-width="1.36070707" cx="260.230811" cy="231.646465" rx="2.10946126" ry="2.11111111"></ellipse>
                <path d="M207.686049,68.7070707 C206.918972,69.4747475 205.384819,69.4747475 204.617742,68.7070707 C203.850665,67.9393939 203.850665,66.4040404 204.617742,65.6363636 C205.384819,64.8686869 206.918972,64.8686869 207.686049,65.6363636 C208.453126,66.4040404 208.453126,67.9393939 207.686049,68.7070707" id="XMLID_14_" fill="#000000"></path>
                <ellipse id="XMLID_13_" stroke="#000000" stroke-width="0.543131313" cx="206.151896" cy="67.1717172" rx="2.10946126" ry="2.11111111"></ellipse>
                <path d="M296.85873,377.505051 L283.434885,377.505051 L283.434885,364.070707 L296.85873,364.070707 L296.85873,377.505051 Z M370.498104,330.484848 L354.197722,330.484848 L354.197722,377.69697 L340.773878,377.69697 L340.773878,330.484848 L324.473495,330.484848 L324.473495,319.929293 L370.306335,319.929293 L370.306335,330.484848 L370.498104,330.484848 Z M317.761573,377.505051 L304.337729,377.505051 L304.337729,319.737374 L317.761573,319.737374 L317.761573,377.505051 Z M255.053043,355.434343 L249.683505,339.69697 C249.299967,338.737374 248.916428,337.585859 248.341121,336.242424 C247.957582,334.89899 247.382275,333.363636 246.998736,331.828283 C246.615198,333.363636 246.231659,334.89899 245.656352,336.242424 C245.272813,337.585859 244.697506,338.737374 244.313967,339.888889 L238.94443,355.626263 L255.053043,355.626263 L255.053043,355.434343 Z M276.339425,377.505051 L265.983888,377.505051 C264.833272,377.505051 263.874426,377.313131 263.10735,376.737374 C262.340273,376.161616 261.764965,375.585859 261.573196,374.626263 L258.12135,364.646465 L236.259661,364.646465 L232.807815,374.626263 C232.424277,375.393939 232.040738,375.969697 231.273661,376.545455 C230.506585,377.121212 229.547739,377.505051 228.397123,377.505051 L217.849817,377.505051 L240.095045,319.737374 L253.710658,319.737374 L276.339425,377.505051 Z M195.221051,367.525253 C196.946974,367.525253 198.481127,367.333333 199.631743,366.757576 C200.782358,366.373737 201.549435,365.79798 202.316511,365.030303 C202.891819,364.262626 203.467127,363.494949 203.658896,362.535354 C203.850665,361.575758 204.042434,360.808081 204.042434,359.848485 C204.042434,358.69697 203.850665,357.929293 203.658896,356.969697 C203.467127,356.20202 202.891819,355.434343 202.316511,354.858586 C201.549435,354.282828 200.782358,353.89899 199.631743,353.515152 C198.481127,353.131313 197.138743,353.131313 195.41282,353.131313 L186.016129,353.131313 L186.016129,367.525253 L195.221051,367.525253 Z M185.82436,329.909091 L185.82436,344.111111 L192.728051,344.111111 C194.262205,344.111111 195.604589,343.919192 196.755205,343.727273 C197.90582,343.535354 198.864666,343.151515 199.823512,342.575758 C200.590589,342 201.357665,341.232323 201.741204,340.464646 C202.124742,339.505051 202.316511,338.353535 202.316511,337.010101 C202.316511,335.666667 202.124742,334.515152 201.741204,333.555556 C201.357665,332.59596 200.782358,331.828283 200.20705,331.444444 C199.439973,330.868687 198.672897,330.484848 197.522281,330.292929 C196.371666,330.10101 195.029282,329.909091 193.686897,329.909091 L185.82436,329.909091 L185.82436,329.909091 Z M193.686897,319.737374 C197.714051,319.737374 200.974127,320.121212 203.850665,320.888889 C206.727203,321.656566 209.028434,322.616162 210.754357,323.959596 C212.480279,325.30303 213.822664,327.030303 214.589741,328.949495 C215.356817,330.868687 215.740356,332.979798 215.740356,335.474747 C215.740356,336.818182 215.548587,337.969697 215.165048,339.313131 C214.78151,340.464646 214.206202,341.616162 213.439125,342.767677 C212.672049,343.727273 211.713203,344.686869 210.370818,345.646465 C209.220203,346.606061 207.686049,347.181818 205.960126,347.949495 C209.79551,348.909091 212.672049,350.444444 214.397971,352.363636 C216.315663,354.474747 217.08274,357.161616 217.08274,360.424242 C217.08274,362.919192 216.699202,365.222222 215.740356,367.333333 C214.78151,369.444444 213.439125,371.363636 211.521433,372.89899 C209.603741,374.434343 207.49428,375.777778 204.809511,376.545455 C202.124742,377.505051 199.056435,377.888889 195.604589,377.888889 L172.592285,377.888889 L172.592285,320.121212 L193.686897,320.121212 L193.686897,319.737374 Z M137.114982,366.949495 C138.840905,366.949495 140.566827,366.565657 141.909212,365.989899 C143.251596,365.414141 144.593981,364.454545 145.552827,363.494949 C146.511673,362.343434 147.27875,361 147.854057,359.464646 C148.429365,357.929293 148.621134,356.010101 148.621134,354.090909 L148.621134,319.929293 L162.044978,319.929293 L162.044978,354.090909 C162.044978,357.545455 161.469671,360.808081 160.319056,363.878788 C159.16844,366.757576 157.442517,369.444444 155.333056,371.555556 C153.223595,373.666667 150.538826,375.393939 147.470519,376.545455 C144.402212,377.69697 140.950366,378.272727 137.114982,378.272727 C133.279598,378.272727 129.827752,377.69697 126.759445,376.545455 C123.691137,375.393939 121.006368,373.666667 118.896907,371.555556 C116.787446,369.444444 115.061523,366.949495 113.910908,363.878788 C112.760293,361 112.184985,357.737374 112.184985,354.090909 L112.184985,319.929293 L125.608829,319.929293 L125.608829,354.090909 C125.608829,356.20202 125.800599,357.929293 126.375906,359.464646 C126.951214,361 127.718291,362.343434 128.677137,363.494949 C129.635983,364.646465 130.786598,365.414141 132.320752,365.989899 C133.854905,366.757576 135.389059,366.949495 137.114982,366.949495 Z M80.351297,346.989899 C82.0772198,346.989899 83.8031427,346.79798 84.9537579,346.222222 C86.2961423,345.838384 87.2549884,345.070707 88.0220652,344.30303 C88.789142,343.535354 89.3644496,342.575758 89.747988,341.424242 C90.1315264,340.272727 90.3232956,339.121212 90.3232956,337.969697 C90.3232956,335.474747 89.5562188,333.363636 87.830296,332.020202 C86.1043731,330.676768 83.6113735,329.909091 80.1595278,329.909091 L74.78999,329.909091 L74.78999,346.989899 L80.351297,346.989899 Z M108.733139,377.505051 L96.6516794,377.505051 C94.350449,377.505051 92.8162953,376.737374 91.8574493,375.010101 L82.268989,358.313131 C81.8854506,357.545455 81.310143,357.161616 80.7348354,356.777778 C80.1595278,356.393939 79.3924509,356.20202 78.4336049,356.20202 L74.9817592,356.20202 L74.9817592,377.505051 L61.5579149,377.505051 L61.5579149,319.737374 L80.351297,319.737374 C84.5702195,319.737374 88.0220652,320.121212 91.0903725,321.080808 C93.9669105,321.848485 96.4599102,323.191919 98.3776023,324.727273 C100.295294,326.262626 101.637679,327.989899 102.404756,330.10101 C103.171832,332.212121 103.74714,334.515152 103.74714,337.010101 C103.74714,338.929293 103.555371,340.656566 102.980063,342.383838 C102.404756,344.111111 101.829448,345.646465 100.678833,346.989899 C99.7199867,348.333333 98.5693715,349.676768 97.0352178,350.828283 C95.6928334,351.979798 93.9669105,352.939394 92.0492185,353.515152 C93.0080645,353.89899 93.7751413,354.474747 94.5422182,355.242424 C95.309295,356.010101 96.0763718,356.777778 96.6516794,357.545455 L108.733139,377.505051 Z M32.0254573,347.565657 L52.5447622,347.565657 L52.5447622,371.939394 C49.6682241,374.050505 46.4081477,375.585859 43.1480712,376.737374 C39.8879947,377.69697 36.2443798,378.272727 32.6007649,378.272727 C27.8065348,378.272727 23.5876122,377.505051 19.5604589,375.969697 C15.7250748,374.434343 12.2732291,372.323232 9.58846026,369.828283 C6.90369139,367.141414 4.60246092,364.070707 3.26007649,360.424242 C1.72592285,356.777778 0.958846026,352.939394 0.958846026,348.717172 C0.958846026,344.494949 1.72592285,340.464646 3.06830728,336.818182 C4.41069172,333.171717 6.52015298,330.10101 9.20492185,327.414141 C11.8896907,324.727273 15.1497672,322.808081 18.7933821,321.272727 C22.6287662,319.737374 26.8476887,319.161616 31.4501497,319.161616 C33.9431493,319.161616 36.0526106,319.353535 38.1620718,319.737374 C40.2715331,320.121212 42.1892251,320.69697 43.915148,321.272727 C45.6410708,322.040404 47.3669937,322.808081 48.9011473,323.767677 C50.435301,324.727273 51.7776854,325.686869 52.9283006,326.838384 L49.0929165,332.787879 C48.5176089,333.747475 47.7505321,334.323232 46.7916861,334.515152 C45.83284,334.707071 44.873994,334.515152 43.7233788,333.747475 C42.5727636,333.171717 41.6139175,332.59596 40.6550715,332.020202 C39.6962255,331.636364 38.7373794,331.252525 37.7785334,330.868687 C36.8196874,330.484848 35.8608414,330.292929 34.7102261,330.292929 C33.5596109,330.10101 32.4089957,330.10101 31.0666112,330.10101 C28.5736116,330.10101 26.2723811,330.484848 24.3546891,331.444444 C22.436997,332.40404 20.7110742,333.555556 19.1769205,335.282828 C17.8345361,336.818182 16.6839209,338.737374 15.916844,341.040404 C15.1497672,343.343434 14.7662288,345.838384 14.7662288,348.525253 C14.7662288,351.59596 15.1497672,354.282828 16.1086132,356.777778 C16.8756901,359.080808 18.2180745,361.191919 19.7522281,362.727273 C21.2863818,364.454545 23.2040738,365.606061 25.3135351,366.565657 C27.4229963,367.333333 29.915996,367.909091 32.4089957,367.909091 C33.9431493,367.909091 35.477303,367.717172 36.8196874,367.525253 C38.1620718,367.141414 39.3126871,366.757576 40.6550715,366.181818 L40.6550715,357.353535 L34.9019953,357.353535 C34.1349185,357.353535 33.3678417,357.161616 32.9843033,356.585859 C32.6007649,356.20202 32.2172265,355.626263 32.2172265,354.858586 L32.2172265,347.565657 L32.0254573,347.565657 Z" id="XMLID_53_" stroke="#000000" stroke-width="2.71949495"></path>
            </g>
        </g>
    </g>
</svg>