<svg id="Layer_1" xmlns="http://www.w3.org/2000/svg" width="125.42" height="127.36"><style>.st0{fill:none;stroke:#000;stroke-width:1.417;stroke-miterlimit:10}.st1{fill:#fff}.st2{stroke-width:.709}.st2,.st3{fill:none;stroke:#000;stroke-miterlimit:10}</style><path class="st0" d="M73.2 37.61l-9.08 9.08m-7.33 7.4L42.43 68.45l1.48 1.48 1.55 1.55L76.23 40.7c-.51-.52-1.03-1.03-1.54-1.55-9.66 9.66-19.32 19.31-28.97 28.97m38.49-26.26l4.89 4.89-3.41 3.41-2.12-2.12 1.8-1.8M69.98 21.9l-6.24 6.25 1.22 1.22.51.51m3.61 3.61c4.12 4.12 8.3 8.24 12.43 12.43.58-.58 1.16-1.16 1.67-1.74-5.34-5.34-10.75-10.69-16.1-16.03l1.67-1.67 11.78 11.78m-7.78-17.97c7.15 7.15 14.23 14.23 21.37 21.38l-3.35 3.35L70.5 24.73l1.67-1.67c5.99 5.99 11.97 11.97 17.96 18.03m-44.1-1.68c10.69 10.69 21.37 21.37 32 32.06l3.28-3.28-32-32c.26-.26.51-.52.84-.84L48.6 33.8c1.29-1.09 2.58-2.25 3.86-3.35 3.22-2.7 6.37-5.28 9.53-7.73-3.73.84-9.72 2.64-15.97 7.02-7.21 5.02-11.33 11.01-13.33 14.49l4.12 4.12c.84-1.55 1.8-3.15 3.03-4.89 1.29-1.8 2.58-3.41 3.73-4.76l1.61 1.61c.34-.32.6-.58.85-.9z"/><path class="st1" d="M57.24 54.67a.7.7 0 0 1-.97 0 .7.7 0 0 1 0-.97.7.7 0 0 1 .97 0c.25.26.25.71 0 .97"/><path d="M57.22 53.7a.7.7 0 0 1 0 1 .7.7 0 0 1-1 0 .7.7 0 0 1 0-1c.27-.27.72-.27 1 0"/><ellipse transform="rotate(-45.001 56.716 54.205)" class="st2" cx="56.72" cy="54.2" rx=".71" ry=".71"/><path class="st1" d="M64.51 47.39a.7.7 0 0 1-.97 0 .7.7 0 0 1 0-.97.7.7 0 0 1 .97 0c.26.27.26.72 0 .97"/><path d="M64 46.17c.39 0 .71.32.71.71 0 .39-.32.71-.71.71-.39 0-.71-.32-.71-.71 0-.39.32-.71.71-.71"/><circle class="st2" cx="64" cy="46.88" r=".71"/><path d="M85.44 47.26a.7.7 0 0 1-.97 0 .7.7 0 0 1 0-.97.7.7 0 0 1 .97 0c.32.27.32.72 0 .97"/><path class="st3" d="M85.44 47.26a.7.7 0 0 1-.97 0 .7.7 0 0 1 0-.97.7.7 0 0 1 .97 0c.32.27.32.72 0 .97"/><path class="st1" d="M81.7 39.28a.7.7 0 0 1-.97 0 .7.7 0 0 1 0-.97.7.7 0 0 1 .97 0c.32.26.32.71 0 .97"/><path d="M81.25 38.06c.39 0 .71.32.71.71 0 .39-.32.71-.71.71-.39 0-.71-.32-.71-.71 0-.39.32-.71.71-.71"/><circle class="st2" cx="81.25" cy="38.77" r=".71"/><path d="M84.34 41.86a.7.7 0 0 1-.97 0 .7.7 0 0 1 0-.97.7.7 0 0 1 .97 0c.32.26.32.71 0 .97"/><path class="st3" d="M84.34 41.86a.7.7 0 0 1-.97 0 .7.7 0 0 1 0-.97.7.7 0 0 1 .97 0c.32.26.32.71 0 .97"/><path class="st1" d="M90.91 41.66a.7.7 0 0 1-.97 0 .7.7 0 0 1 0-.97.7.7 0 0 1 .97 0c.26.27.26.72 0 .97"/><path d="M90.39 40.5c.39 0 .71.32.71.71 0 .39-.32.71-.71.71-.39 0-.71-.32-.71-.71 0-.39.32-.71.71-.71"/><circle class="st2" cx="90.39" cy="41.21" r=".71"/><path d="M66.38 30.78a.7.7 0 0 1-.97 0 .7.7 0 0 1 0-.97.7.7 0 0 1 .97 0c.26.26.26.65 0 .97"/><path class="st3" d="M66.38 30.78a.7.7 0 0 1-.97 0 .7.7 0 0 1 0-.97.7.7 0 0 1 .97 0c.26.26.26.65 0 .97"/><path class="st1" d="M69.02 33.36a.7.7 0 0 1-.97 0 .7.7 0 0 1 0-.97.7.7 0 0 1 .97 0c.32.26.32.71 0 .97"/><path d="M68.57 32.2c.39 0 .71.32.71.71 0 .39-.32.71-.71.71-.39 0-.71-.32-.71-.71 0-.39.32-.71.71-.71"/><circle class="st2" cx="68.57" cy="32.91" r=".71"/><path d="M72.69 20.16a.7.7 0 0 1-.97 0 .7.7 0 0 1 0-.97.7.7 0 0 1 .97 0c.32.26.32.65 0 .97"/><path class="st3" d="M72.69 20.16a.7.7 0 0 1-.97 0 .7.7 0 0 1 0-.97.7.7 0 0 1 .97 0c.32.26.32.65 0 .97"/><path class="st0" d="M72.17 84.54c-2.83.64-5.73.97-8.76.97-22.28 0-40.3-18.03-40.3-40.3S41.14 4.9 63.42 4.9s40.3 18.03 40.3 40.3c0 12.94-6.12 24.46-15.64 31.87"/><path class="st2" d="M35.73 10.05c17.06-13.52 41.85-13 58.4 2.19 18.28 16.8 19.44 45.26 2.64 63.55-16.8 18.28-45.26 19.44-63.55 2.64C17.58 64 14.42 41.08 24.4 23.31"/><path class="st1" d="M35.93 10.44c-.06.39-.39.64-.77.58-.39-.06-.64-.39-.58-.77.06-.39.39-.64.77-.58.38.06.64.38.58.77"/><path d="M35.22 9.6c.39 0 .71.32.71.71 0 .39-.32.71-.71.71s-.71-.32-.71-.71c0-.39.32-.71.71-.71"/><circle class="st2" cx="35.22" cy="10.31" r=".71"/><path class="st1" d="M25.3 22.8c-.06.39-.39.64-.77.58-.39-.06-.64-.39-.58-.77.06-.39.39-.64.77-.58.39.06.65.45.58.77"/><path d="M24.66 22.03c.39 0 .71.32.71.71 0 .39-.32.71-.71.71-.39 0-.71-.32-.71-.71 0-.4.32-.71.71-.71"/><circle class="st2" cx="24.66" cy="22.74" r=".71"/><path d="M73.27 84.86a.7.7 0 0 1-.97 0 .7.7 0 0 1 0-.97.7.7 0 0 1 .97 0c.25.27.25.72 0 .97"/><path class="st3" d="M73.27 84.86a.7.7 0 0 1-.97 0 .7.7 0 0 1 0-.97.7.7 0 0 1 .97 0c.25.27.25.72 0 .97"/><path class="st1" d="M88.2 77.98a.7.7 0 0 1-.97 0 .7.7 0 0 1 0-.97.7.7 0 0 1 .97 0c.33.26.33.64 0 .97"/><path d="M87.75 76.75c.39 0 .71.32.71.71 0 .39-.32.71-.71.71-.39 0-.71-.32-.71-.71 0-.39.32-.71.71-.71"/><circle class="st2" cx="87.75" cy="77.46" r=".71"/><path class="st1" d="M70.11 22.8c-.26.26-.77.26-1.03 0s-.26-.77 0-1.03.77-.26 1.03 0 .26.77 0 1.03"/><path d="M69.6 21.58c.39 0 .71.32.71.71 0 .39-.32.71-.71.71s-.71-.32-.71-.71c0-.4.32-.71.71-.71"/><circle class="st3" cx="69.6" cy="22.28" r=".71"/><path class="st0" d="M100.05 126.39h-4.51v-4.51h4.51v4.51zm24.65-15.78c-1.8 0-3.6.01-5.4.01v15.84h-4.51v-15.84h-5.47v-3.54h15.39l-.01 3.53zm-17.63 15.78h-4.51v-19.38h4.51v19.38zm-21.03-7.36c-.91-2.65-1.82-5.31-2.73-7.96l-2.7 7.98 5.43-.02zm7.12 7.36h-3.48c-.39 0-.71-.06-.97-.26-.26-.19-.45-.39-.51-.71l-1.16-3.35H79.7l-1.16 3.35c-.13.26-.26.45-.52.64s-.58.32-.97.32h-3.54L80.98 107h4.57l7.61 19.39zm-27.23-3.35c.58 0 1.09-.06 1.48-.26.39-.13.64-.32.9-.58.19-.26.39-.51.45-.84.06-.32.13-.58.13-.9 0-.39-.06-.64-.13-.97-.06-.26-.26-.51-.45-.71-.26-.19-.51-.32-.9-.45s-.84-.13-1.42-.13h-3.15v4.83h3.09zm-3.16-12.62v4.76h2.32c.51 0 .97-.06 1.35-.13.39-.06.71-.19 1.03-.39.26-.19.51-.45.64-.71.13-.32.19-.71.19-1.16 0-.45-.06-.84-.19-1.16-.13-.32-.32-.58-.51-.71-.26-.19-.52-.32-.9-.39-.39-.06-.84-.13-1.29-.13h-2.64zm3.29-3.44c.37 0 1.52-.01 2.92.4 1.35.39 1.98.89 2.16 1.04.85.71 1.22 1.51 1.29 1.67.26.64.39 1.35.39 2.19 0 .45-.06.84-.19 1.29-.13.39-.32.77-.58 1.16-.26.32-.58.64-1.03.97-.39.32-.9.52-1.48.77 1.29.32 2.25.84 2.83 1.48.64.71.9 1.61.9 2.7 0 .84-.13 1.61-.45 2.32-.32.71-.77 1.35-1.42 1.87-.64.51-1.35.97-2.25 1.22-.9.32-1.93.45-3.09.45h-7.73V107c3.15-.02 5.76-.01 7.73-.02zm-19.64 15.87c.58 0 1.16-.13 1.61-.32.45-.19.9-.51 1.22-.84.32-.39.58-.84.77-1.35.19-.51.26-1.16.26-1.8v-11.46h4.51v11.46c0 1.16-.19 2.25-.58 3.28-.39.97-.97 1.87-1.67 2.58a7.31 7.31 0 0 1-2.64 1.67c-1.03.39-2.19.58-3.48.58s-2.45-.19-3.48-.58a7.588 7.588 0 0 1-2.64-1.67c-.71-.71-1.29-1.54-1.67-2.58-.39-.97-.58-2.06-.58-3.28v-11.46h4.51v11.46c0 .71.06 1.29.26 1.8.19.51.45.97.77 1.35.32.39.71.64 1.22.84.52.25 1.03.32 1.61.32zm-19.06-6.7c.58 0 1.16-.06 1.55-.26.45-.13.77-.39 1.03-.64.26-.26.45-.58.58-.97.13-.39.19-.77.19-1.16 0-.84-.26-1.54-.84-2-.58-.45-1.42-.71-2.58-.71h-1.8v5.73h1.87zm9.53 10.24h-4.06c-.77 0-1.29-.26-1.61-.84l-3.22-5.6c-.13-.26-.32-.39-.51-.51-.19-.13-.45-.19-.77-.19h-1.16v7.15h-4.51v-19.38h6.31c1.42 0 2.58.13 3.61.45.97.26 1.8.71 2.45 1.22.64.51 1.09 1.09 1.35 1.8s.45 1.48.45 2.32c0 .64-.06 1.22-.26 1.8-.19.58-.39 1.09-.77 1.54-.42.49-.74.86-1.22 1.29-.45.4-.86.71-1.16.92.33.53.66 1.06.99 1.58 1.36 2.15 2.73 4.3 4.09 6.45zm-25.75-10.04h6.89v8.18c-.97.71-2.06 1.22-3.15 1.61-1.09.32-2.32.51-3.54.51-1.61 0-3.03-.26-4.38-.77-1.29-.52-2.45-1.22-3.35-2.06-.9-.9-1.67-1.93-2.12-3.15-.52-1.22-.77-2.51-.77-3.93 0-1.42.26-2.77.71-3.99.45-1.22 1.16-2.25 2.06-3.15.9-.9 2-1.54 3.22-2.06 1.29-.52 2.7-.71 4.25-.71.84 0 1.55.06 2.25.19.71.13 1.35.32 1.93.52.58.26 1.16.51 1.67.84.51.32.97.64 1.35 1.03l-1.29 2c-.19.32-.45.51-.77.58-.32.06-.64 0-1.03-.26-.39-.19-.71-.39-1.03-.58-.31-.16-.78-.37-1.37-.51-.53-.13-2.27-.54-4.1.32-.97.46-1.56 1.08-1.74 1.29a5.47 5.47 0 0 0-1.09 1.93c-.26.77-.39 1.61-.39 2.51 0 1.03.13 1.93.45 2.77.26.77.71 1.48 1.22 2 .52.58 1.16.97 1.87 1.29.71.26 1.55.45 2.38.45.52 0 1.03-.06 1.48-.13.45-.13.84-.26 1.29-.45v-2.96H12.1c-.26 0-.52-.06-.64-.26a.812.812 0 0 1-.26-.58l-.06-2.47z"/></svg>