<svg width="300" height="66" viewBox="0 0 300 66" fill="none" xmlns="http://www.w3.org/2000/svg">
<g clip-path="url(#clip0)">
<path d="M89.6542 49.4893H82.6335V26.0042H89.6542V49.4893ZM90.3795 19.5683C90.383 20.1104 90.267 20.6466 90.0397 21.1388C89.8151 21.6248 89.4996 22.0633 89.1101 22.4306C88.7115 22.8048 88.2484 23.1036 87.7432 23.3124C87.2154 23.5344 86.6483 23.6478 86.0758 23.6459C85.5222 23.6486 84.9742 23.5349 84.4673 23.3124C83.9779 23.0988 83.5301 22.8003 83.1446 22.4306C82.7626 22.0621 82.4551 21.6235 82.2389 21.1388C82.019 20.6445 81.9063 20.1093 81.9082 19.5683C81.9058 19.015 82.0184 18.4673 82.2389 17.9598C82.455 17.4684 82.7623 17.0224 83.1446 16.6455C83.5268 16.2719 83.9754 15.9729 84.4673 15.7637C84.9762 15.5493 85.5235 15.4411 86.0758 15.4457C86.647 15.4419 87.2135 15.5499 87.7432 15.7637C88.2508 15.968 88.7147 16.2673 89.1101 16.6455C89.4999 17.0212 89.8153 17.4671 90.0397 17.9598C90.2676 18.4652 90.3835 19.0139 90.3795 19.5683Z" fill="#4B2CFF"/>
<path d="M118.845 22.5584H109.562V49.4865H101.905V22.5584H92.6191V16.489H118.845V22.5584Z" fill="#4B2CFF"/>
<path d="M131.148 34.9254C131.151 34.3748 131.08 33.8263 130.937 33.2945C130.8 32.779 130.562 32.2963 130.235 31.8749C129.889 31.4458 129.449 31.1023 128.949 30.871C128.346 30.5974 127.687 30.4654 127.025 30.4848C126.454 30.4515 125.881 30.5355 125.344 30.7316C124.806 30.9276 124.314 31.2317 123.898 31.625C123.069 32.5432 122.547 33.6964 122.403 34.9247L131.148 34.9254ZM122.313 39.0017C122.54 40.9675 123.137 42.3836 124.103 43.2682C125.131 44.1743 126.469 44.6491 127.839 44.5937C128.552 44.6093 129.263 44.5105 129.945 44.3009C130.488 44.1251 131.016 43.9053 131.523 43.6438C131.982 43.403 132.405 43.1861 132.791 42.9874C133.164 42.7938 133.578 42.6927 133.999 42.6925C134.245 42.6787 134.49 42.7277 134.712 42.8349C134.934 42.9421 135.125 43.104 135.267 43.3054L137.303 45.8195C136.628 46.6066 135.84 47.2884 134.963 47.8422C134.153 48.3491 133.287 48.7593 132.381 49.0645C131.52 49.3548 130.633 49.5601 129.732 49.6774C128.894 49.788 128.05 49.8459 127.205 49.8508C125.626 49.8606 124.059 49.5872 122.577 49.0435C121.161 48.5248 119.872 47.7111 118.795 46.6564C117.673 45.5388 116.8 44.1956 116.235 42.7157C115.575 40.9658 115.255 39.1059 115.292 37.236C115.285 35.7113 115.559 34.1983 116.1 32.7729C116.615 31.4004 117.401 30.1453 118.41 29.0821C119.444 28.0042 120.686 27.1487 122.061 26.568C123.589 25.9286 125.233 25.6123 126.889 25.6391C128.345 25.6221 129.792 25.8668 131.162 26.3615C132.409 26.8169 133.544 27.5352 134.489 28.4678C135.446 29.4277 136.188 30.5803 136.666 31.849C137.206 33.3023 137.47 34.8439 137.444 36.3942C137.449 36.8252 137.425 37.256 137.374 37.6839C137.347 37.9641 137.262 38.2358 137.125 38.4815C137.016 38.6697 136.846 38.8142 136.642 38.8901C136.389 38.973 136.124 39.0112 135.858 39.0031L122.313 39.0017Z" fill="#4B2CFF"/>
<path d="M158.212 31.5766C158.032 31.8024 157.828 32.0073 157.602 32.1874C157.355 32.3532 157.06 32.4331 156.763 32.4148C156.434 32.4194 156.109 32.3326 155.826 32.1642C155.545 31.9971 155.229 31.8096 154.883 31.6074C154.493 31.3835 154.084 31.1975 153.659 31.0521C153.096 30.8714 152.506 30.7876 151.915 30.8043C151.146 30.7845 150.383 30.9474 149.689 31.2796C149.065 31.5938 148.529 32.0603 148.133 32.636C147.697 33.292 147.39 34.0249 147.227 34.7956C147.021 35.7445 146.922 36.7136 146.932 37.6846C146.932 39.9312 147.371 41.664 148.238 42.8715C148.635 43.451 149.172 43.9208 149.8 44.2376C150.427 44.5543 151.124 44.7077 151.826 44.6836C152.485 44.7103 153.144 44.6063 153.763 44.3775C154.191 44.1997 154.597 43.9718 154.971 43.6986C155.304 43.4479 155.613 43.2233 155.892 43.0112C156.197 42.7917 156.566 42.6798 156.941 42.6932C157.187 42.6795 157.433 42.7286 157.655 42.8358C157.876 42.943 158.067 43.1048 158.21 43.3061L160.246 45.8202C159.58 46.5967 158.809 47.2774 157.957 47.8429C157.19 48.3477 156.365 48.7581 155.5 49.0652C154.68 49.3554 153.833 49.5607 152.972 49.6781C152.154 49.7894 151.328 49.8466 150.502 49.8494C149.093 49.8547 147.697 49.578 146.397 49.0357C145.097 48.4941 143.925 47.6868 142.956 46.6655C141.924 45.5646 141.123 44.2684 140.6 42.8533C139.994 41.1987 139.699 39.4463 139.73 37.6846C139.72 36.0716 139.978 34.4682 140.494 32.94C140.97 31.5221 141.735 30.2184 142.741 29.1116C143.764 28.0088 145.014 27.1404 146.405 26.5658C148.011 25.9203 149.73 25.6052 151.46 25.6391C153.12 25.6036 154.77 25.9037 156.311 26.5216C157.722 27.126 159 28.0038 160.07 29.1045L158.212 31.5766Z" fill="#4B2CFF"/>
<path d="M170.016 28.062C170.844 27.3461 171.771 26.7538 172.768 26.3033C173.889 25.8333 175.096 25.607 176.311 25.6391C177.483 25.6154 178.646 25.8418 179.723 26.3033C180.684 26.7279 181.538 27.3622 182.221 28.1596C182.922 28.9894 183.446 29.953 183.762 30.9917C184.119 32.1482 184.295 33.3529 184.283 34.5632V49.4879H177.263V34.5625C177.321 33.6015 177.04 32.6505 176.47 31.8749C176.181 31.5462 175.82 31.2886 175.415 31.1222C175.011 30.9557 174.573 30.8849 174.136 30.9152C173.388 30.9092 172.649 31.0749 171.975 31.3996C171.265 31.7519 170.606 32.1985 170.016 32.7273V49.4879H162.995V15.5826H170.016V28.062Z" fill="#4B2CFF"/>
<path d="M190.148 49.4886V26.952H191.348C191.429 26.9446 191.51 26.9535 191.588 26.9783C191.665 27.003 191.736 27.0431 191.798 27.096C191.859 27.1489 191.909 27.2137 191.945 27.2864C191.981 27.3591 192.002 27.4383 192.006 27.5193L192.21 30.7804C193.019 29.5925 194.041 28.5635 195.222 27.7446C196.349 26.9757 197.685 26.5721 199.049 26.5883C199.771 26.5529 200.492 26.6609 201.171 26.9061C201.85 27.1512 202.474 27.5285 203.006 28.0163C204.064 29.1007 204.763 30.4844 205.009 31.9795C205.251 31.1196 205.639 30.3075 206.156 29.5784C206.619 28.9248 207.189 28.3531 207.841 27.8872C208.474 27.4455 209.176 27.1133 209.919 26.9042C210.665 26.6918 211.438 26.5847 212.214 26.5862C213.244 26.5689 214.268 26.7563 215.226 27.1373C216.101 27.4977 216.878 28.0625 217.491 28.7844C218.144 29.5687 218.629 30.4783 218.918 31.4572C219.267 32.6325 219.436 33.854 219.418 35.0799V49.4886H217.26V35.0827C217.26 32.8787 216.785 31.1979 215.834 30.0404C215.333 29.4571 214.705 28.9974 213.997 28.6973C213.289 28.3972 212.522 28.2648 211.755 28.3105C210.985 28.309 210.223 28.4548 209.508 28.7402C208.791 29.0271 208.143 29.4626 207.606 30.0179C207.028 30.6287 206.581 31.3506 206.292 32.1396C205.95 33.0826 205.783 34.0804 205.8 35.0834V49.4886H203.628V35.0827C203.628 32.8927 203.196 31.2166 202.33 30.0545C201.884 29.4725 201.301 29.0092 200.634 28.7051C199.967 28.401 199.235 28.2655 198.503 28.3105C197.285 28.3088 196.096 28.6891 195.105 29.398C193.987 30.2071 193.042 31.2311 192.325 32.4099V49.4886H190.148Z" fill="#4B2CFF"/>
<path d="M242.424 35.9442C242.442 34.8382 242.27 33.7374 241.917 32.6893C241.61 31.7884 241.119 30.9611 240.475 30.2602C239.859 29.5963 239.108 29.0727 238.271 28.7247C237.375 28.3639 236.415 28.1847 235.448 28.1975C234.381 28.1808 233.321 28.3652 232.322 28.7409C231.425 29.0881 230.612 29.6207 229.935 30.3037C229.244 31.0096 228.694 31.8401 228.312 32.7511C227.888 33.7704 227.613 34.846 227.497 35.9442H242.424ZM227.385 37.3251V37.7548C227.359 39.2637 227.558 40.768 227.974 42.2186C228.311 43.3941 228.881 44.4899 229.65 45.4411C230.355 46.2977 231.256 46.972 232.277 47.4069C233.367 47.8566 234.538 48.08 235.717 48.0634C236.714 48.0807 237.708 47.9521 238.667 47.6814C239.394 47.4767 240.098 47.1965 240.766 46.8453C241.232 46.5976 241.68 46.3174 242.108 46.007C242.31 45.8204 242.56 45.6923 242.83 45.6363C242.919 45.6327 243.007 45.6519 243.086 45.692C243.165 45.732 243.233 45.7916 243.282 45.8652L243.87 46.5897C243.463 47.0846 242.98 47.5124 242.44 47.8577C241.813 48.2638 241.144 48.6007 240.444 48.8623C239.679 49.1512 238.892 49.3757 238.09 49.5335C237.257 49.7003 236.411 49.7838 235.562 49.7827C234.118 49.7998 232.685 49.5252 231.35 48.9754C230.099 48.4536 228.983 47.653 228.089 46.6346C227.141 45.5319 226.429 44.247 225.997 42.8589C225.48 41.2078 225.231 39.4847 225.258 37.7548C225.245 36.2346 225.479 34.7223 225.953 33.2777C226.374 31.9792 227.052 30.7784 227.945 29.7462C228.827 28.7487 229.918 27.9576 231.14 27.4294C232.494 26.8517 233.954 26.5656 235.425 26.5897C236.634 26.5779 237.834 26.8008 238.959 27.2462C240.029 27.6718 240.995 28.3231 241.791 29.1558C242.624 30.0499 243.267 31.1027 243.684 32.2512C244.165 33.6024 244.398 35.0296 244.371 36.4637C244.393 36.6983 244.346 36.9343 244.234 37.1419C244.179 37.2066 244.11 37.257 244.031 37.2887C243.953 37.3204 243.868 37.3324 243.783 37.3237L227.385 37.3251Z" fill="#4B2CFF"/>
<path d="M265.617 31.7991C264.918 30.652 263.932 29.7072 262.756 29.0582C261.637 28.5145 260.405 28.243 259.161 28.2656C257.958 28.2391 256.766 28.4868 255.673 28.9901C254.69 29.4643 253.834 30.1655 253.175 31.036C252.472 31.987 251.957 33.0636 251.658 34.2079C251.304 35.5359 251.131 36.9057 251.144 38.28C251.144 41.6326 251.761 44.0964 252.994 45.6714C253.629 46.463 254.444 47.0911 255.372 47.5032C256.299 47.9153 257.312 48.0994 258.325 48.0402C259.759 48.0524 261.167 47.651 262.379 46.8839C263.673 46.0426 264.776 44.9393 265.617 43.6452V31.7991ZM267.768 16.5311V49.4893H266.592C266.508 49.4974 266.423 49.4883 266.343 49.4628C266.263 49.4372 266.189 49.3956 266.125 49.3406C266.061 49.2855 266.01 49.2181 265.973 49.1424C265.936 49.0667 265.915 48.9843 265.911 48.9002L265.686 45.3435C264.75 46.6459 263.563 47.7474 262.195 48.5829C260.84 49.3904 259.288 49.8058 257.712 49.7827C256.482 49.846 255.254 49.6184 254.128 49.1182C253.002 48.6181 252.01 47.8596 251.232 46.9042C249.692 44.9852 248.922 42.1091 248.921 38.2757C248.911 36.7141 249.131 35.1595 249.573 33.6617C249.962 32.3158 250.602 31.0556 251.46 29.9477C252.289 28.9051 253.339 28.0598 254.535 27.4729C255.844 26.8485 257.281 26.5384 258.731 26.5673C260.1 26.533 261.457 26.8196 262.694 27.4041C263.85 27.9951 264.851 28.8485 265.617 29.8958V16.5311H267.768Z" fill="#4B2CFF"/>
<path d="M277.599 49.4893H275.448V26.9527H277.599V49.4893ZM278.529 19.1842C278.532 19.4451 278.475 19.7032 278.362 19.9383C278.249 20.1712 278.098 20.3832 277.914 20.5652C277.733 20.7476 277.518 20.8934 277.282 20.9949C277.04 21.1016 276.779 21.1559 276.514 21.1543C276.248 21.156 275.985 21.1017 275.742 20.9949C275.506 20.8921 275.292 20.7464 275.11 20.5652C274.93 20.3843 274.784 20.1718 274.68 19.9383C274.574 19.7012 274.52 19.4441 274.522 19.1842C274.521 18.9141 274.575 18.6467 274.68 18.3979C274.78 18.1581 274.926 17.9404 275.11 17.7576C275.291 17.5749 275.506 17.4284 275.742 17.3259C275.986 17.2202 276.248 17.1661 276.514 17.1672C276.778 17.1662 277.04 17.2202 277.282 17.3259C277.519 17.427 277.734 17.5737 277.914 17.7576C278.102 17.9413 278.254 18.1585 278.362 18.3979C278.474 18.6449 278.531 18.9131 278.529 19.1842Z" fill="#4B2CFF"/>
<path d="M297.894 38.5924C296.039 38.6394 294.19 38.809 292.358 39.1C291.042 39.2988 289.757 39.661 288.532 40.1784C287.666 40.5275 286.899 41.0816 286.295 41.7931C285.818 42.4048 285.563 43.1602 285.571 43.9359C285.557 44.6074 285.685 45.2743 285.947 45.8925C286.176 46.4131 286.516 46.8771 286.944 47.2518C287.364 47.6092 287.852 47.8762 288.38 48.036C288.931 48.2036 289.504 48.2876 290.08 48.2852C290.894 48.2912 291.706 48.195 292.496 47.9988C293.204 47.8174 293.888 47.5513 294.532 47.2061C295.158 46.8675 295.745 46.4631 296.285 46C296.827 45.5319 297.363 45.0257 297.894 44.4814V38.5924ZM284.642 30.1443C285.714 29.0432 286.971 28.139 288.356 27.4729C289.744 26.8496 291.253 26.5396 292.774 26.5651C293.859 26.5411 294.938 26.737 295.945 27.1408C296.82 27.5017 297.594 28.0687 298.203 28.7935C298.824 29.5602 299.281 30.4463 299.546 31.3968C299.86 32.5068 300.013 33.6562 299.999 34.8096V49.4872H299.137C298.943 49.5063 298.749 49.452 298.593 49.3351C298.437 49.2181 298.331 49.0469 298.295 48.8553L297.979 45.9564C297.393 46.5308 296.778 47.0749 296.137 47.5867C295.543 48.0588 294.901 48.4682 294.223 48.8083C293.538 49.1484 292.816 49.4076 292.071 49.5805C291.238 49.7684 290.386 49.8591 289.533 49.8508C288.773 49.852 288.017 49.7371 287.292 49.5103C286.586 49.2938 285.929 48.94 285.36 48.4692C284.776 47.9787 284.312 47.3619 284.002 46.6655C283.639 45.8353 283.464 44.9355 283.488 44.0299C283.486 43.0841 283.77 42.1599 284.304 41.3789C284.964 40.4652 285.844 39.7332 286.863 39.2509C288.281 38.5627 289.787 38.075 291.338 37.8018C293.502 37.4051 295.695 37.1937 297.894 37.17V34.8096C297.894 32.7308 297.448 31.116 296.55 29.9927C296.062 29.4179 295.445 28.966 294.75 28.6733C294.055 28.3806 293.3 28.2554 292.548 28.3077C291.604 28.2833 290.665 28.4367 289.778 28.7598C289.095 29.0204 288.443 29.356 287.834 29.7603C287.382 30.0637 286.951 30.3967 286.544 30.7572C286.326 31.0015 286.029 31.1615 285.706 31.2094C285.561 31.2153 285.419 31.1755 285.298 31.0956C285.189 31.0173 285.096 30.9174 285.025 30.8022L284.642 30.1443Z" fill="#4B2CFF"/>
<path d="M26.6022 18.6098V47.3999H17.739V27.9722L26.6022 18.6098Z" fill="#4B2CFF"/>
<path d="M32.3197 18.609H41.1829V47.3992H32.3197V18.609Z" fill="#4B2CFF"/>
<path d="M57.1318 0V0.0139377H0V65.995H65.995V0H57.1318ZM8.8597 9.28911H57.1318V56.7213H8.8597V9.28911Z" fill="#4B2CFF"/>
<path d="M17.7397 27.8857L26.6814 18.6098H48.4662V27.8857H17.7397Z" fill="#4B2CFF"/>
<path d="M32.3197 18.609H41.1829V47.3992H32.3197V18.609Z" fill="#4B2CFF"/>
<path d="M57.1318 0V0.0139377H0V65.995H65.995V0H57.1318ZM8.8597 9.28911H57.1318V56.7213H8.8597V9.28911Z" fill="#4B2CFF"/>
<path d="M17.7397 27.8857L26.6814 18.6098H48.4662V27.8857H17.7397Z" fill="#4B2CFF"/>
</g>
<defs>
<clipPath id="clip0">
<rect width="300" height="65.995" fill="white"/>
</clipPath>
</defs>
</svg>
