<?xml version="1.0" encoding="UTF-8"?>
<svg width="600px" height="400px" viewBox="0 0 600 400" version="1.1" xmlns="http://www.w3.org/2000/svg" xmlns:xlink="http://www.w3.org/1999/xlink">
    <!-- Generator: Sketch 54.1 (76490) - https://sketchapp.com -->
    <title>Artboard</title>
    <desc>Created with Sketch.</desc>
    <defs>
        <polygon id="path-1" points="0 379.950356 379.950356 379.950356 379.950356 0 0 0"></polygon>
    </defs>
    <g id="Artboard" stroke="none" stroke-width="1" fill="none" fill-rule="evenodd">
        <rect fill="#FFFFFF" x="0" y="0" width="600" height="400"></rect>
        <g id="Katowice-Logo-pion-kolor" transform="translate(110.000000, 10.000000)">
            <path d="M45.0927316,258.948653 L45.0927316,295.897561 C45.0927316,296.950007 45.5923278,297.451409 46.644323,297.451409 L51.0851781,297.451409 C52.0852732,297.451409 52.5835154,296.950007 52.5835154,295.897561 L52.5835154,283.027656 C52.5835154,282.527608 52.8055582,282.308273 53.3024466,282.308273 C53.5809026,282.308273 53.747886,282.416587 53.9148694,282.637727 L65.0111401,296.950007 C65.2336342,297.283974 65.6199525,297.451409 66.1195487,297.451409 L71.5568884,297.451409 C72.3922565,297.451409 72.999715,296.840791 72.999715,296.007679 C72.999715,295.731931 72.8900475,295.397062 72.6675534,295.121765 L58.575962,277.424235 L72.6675534,259.725352 C72.8900475,259.448249 72.999715,259.114283 72.999715,258.837632 C72.999715,258.003618 72.3922565,257.394805 71.5568884,257.394805 L66.1195487,257.394805 C65.6199525,257.394805 65.2336342,257.558629 65.0111401,257.891694 L53.9148694,272.206682 C53.747886,272.431432 53.5809026,272.537038 53.3024466,272.537038 C52.8055582,272.537038 52.5835154,272.320411 52.5835154,271.81901 L52.5835154,258.948653 C52.5835154,257.891694 52.0852732,257.394805 51.0851781,257.394805 L46.644323,257.394805 C45.5923278,257.394805 45.0927316,257.891694 45.0927316,258.948653" id="Fill-1" fill="#524F54"></path>
            <path d="M91.3783112,283.858691 L102.363561,283.858691 C102.918216,283.858691 103.193964,284.136245 103.193964,284.691803 L103.193964,295.896838 C103.193964,296.951993 103.692658,297.451589 104.69185,297.451589 L109.130449,297.451589 C110.184701,297.451589 110.683394,296.951993 110.683394,295.896838 L110.683394,265.826743 C110.683394,260.668311 107.411423,257.395437 102.252539,257.395437 L91.4875273,257.395437 C86.3272898,257.395437 83.0526105,260.668311 83.0526105,265.826743 L83.0526105,295.896838 C83.0526105,296.951993 83.5531093,297.451589 84.6064584,297.451589 L89.0464109,297.451589 C90.0456033,297.451589 90.5438456,296.951993 90.5438456,295.896838 L90.5438456,284.691803 C90.5438456,284.136245 90.822753,283.858691 91.3783112,283.858691 M102.363561,277.036292 L91.3783112,277.036292 C90.822753,277.036292 90.5438456,276.757836 90.5438456,276.203181 L90.5438456,266.49242 C90.5438456,264.994534 91.3783112,264.162325 92.8734893,264.162325 L100.864772,264.162325 C102.363561,264.162325 103.193964,264.994534 103.193964,266.49242 L103.193964,276.203181 C103.193964,276.757836 102.918216,277.036292 102.363561,277.036292" id="Fill-3" fill="#524F54"></path>
            <path d="M136.280456,297.931147 C137.279648,297.931147 137.776086,297.431551 137.776086,296.377299 L137.776086,265.474093 C137.776086,264.921242 138.054993,264.642786 138.609648,264.642786 L146.2101,264.642786 C147.264803,264.642786 147.762594,264.14319 147.762594,263.088036 L147.762594,259.371076 C147.762594,258.371432 147.264803,257.87319 146.2101,257.87319 L121.853544,257.87319 C120.797938,257.87319 120.298793,258.371432 120.298793,259.371076 L120.298793,263.088036 C120.298793,264.14319 120.797938,264.642786 121.853544,264.642786 L129.454898,264.642786 C130.0082,264.642786 130.286204,264.921242 130.286204,265.474093 L130.286204,296.377299 C130.286204,297.431551 130.787154,297.931147 131.783188,297.931147 L136.280456,297.931147 Z" id="Fill-5" fill="#524F54"></path>
            <path d="M168.570888,297.931147 L175.782314,297.931147 C182.829012,297.931147 186.824428,293.937086 186.824428,286.891741 L186.824428,268.915304 C186.824428,261.869057 182.829012,257.87319 175.782314,257.87319 L168.570888,257.87319 C161.525544,257.87319 157.527872,261.869057 157.527872,268.915304 L157.527872,286.891741 C157.527872,293.937086 161.525544,297.931147 168.570888,297.931147 M174.616589,291.163356 L169.737967,291.163356 C166.572504,291.163356 165.020912,289.609508 165.020912,286.501361 L165.020912,269.301171 C165.020912,266.194378 166.572504,264.642786 169.737967,264.642786 L174.616589,264.642786 C177.781601,264.642786 179.332741,266.194378 179.332741,269.301171 L179.332741,286.501361 C179.332741,289.609508 177.781601,291.163356 174.616589,291.163356" id="Fill-7" fill="#524F54"></path>
            <path d="M220.412952,268.582105 L225.629603,297.210276 C225.738368,297.708067 226.016373,297.931012 226.461812,297.931012 L234.173736,297.931012 C234.616017,297.931012 234.892667,297.708067 235.003689,297.210276 L243.383095,259.316333 C243.55053,258.594242 243.048677,257.873957 242.383451,257.873957 L237.05939,257.873957 C236.224924,257.873957 235.724425,258.316689 235.557893,258.982817 L230.178321,290.053458 L224.79604,258.982817 C224.62996,258.316689 224.129912,257.873957 223.2968,257.873957 L217.526848,257.873957 C216.695542,257.873957 216.196848,258.316689 216.030316,258.982817 L210.647133,290.053458 L205.267109,258.982817 C205.101029,258.316689 204.599627,257.873957 203.766967,257.873957 L198.440648,257.873957 C197.776325,257.873957 197.277632,258.594242 197.445518,259.316333 L205.822216,297.210276 C205.932335,297.708067 206.208986,297.931012 206.653523,297.931012 L214.364995,297.931012 C214.810435,297.931012 215.08528,297.708067 215.19901,297.210276 L220.412952,268.582105 Z" id="Fill-9" fill="#524F54"></path>
            <path d="M256.313385,257.87328 C255.256876,257.87328 254.760439,258.371523 254.760439,259.428031 L254.760439,296.376938 C254.760439,297.43119 255.256876,297.931238 256.313385,297.931238 L260.750178,297.931238 C261.748468,297.931238 262.247613,297.43119 262.247613,296.376938 L262.247613,259.428031 C262.247613,258.371523 261.748468,257.87328 260.750178,257.87328 L256.313385,257.87328 Z" id="Fill-11" fill="#524F54"></path>
            <path d="M288.346888,297.931147 L296.503349,297.931147 C301.662233,297.931147 304.935558,294.657371 304.935558,289.498938 L304.935558,287.501907 C304.935558,286.448558 304.435962,285.947608 303.382162,285.947608 L298.943112,285.947608 C297.943468,285.947608 297.44342,286.448558 297.44342,287.501907 L297.44342,288.833713 C297.44342,290.331147 296.613468,291.163356 295.115131,291.163356 L289.511259,291.163356 C286.349406,291.163356 284.794204,289.609508 284.794204,286.501361 L284.794204,269.301171 C284.794204,266.194378 286.349406,264.642786 289.511259,264.642786 L295.115131,264.642786 C296.613468,264.642786 297.44342,265.474093 297.44342,266.97243 L297.44342,268.305138 C297.44342,269.358487 297.943468,269.858534 298.943112,269.858534 L303.382162,269.858534 C304.435962,269.858534 304.935558,269.358487 304.935558,268.305138 L304.935558,266.307204 C304.935558,261.147869 301.662233,257.87319 296.503349,257.87319 L288.346888,257.87319 C281.301544,257.87319 277.305226,261.869057 277.305226,268.915304 L277.305226,286.891741 C277.305226,293.937086 281.301544,297.931147 288.346888,297.931147" id="Fill-13" fill="#524F54"></path>
            <path d="M341.480727,291.163311 L326.389492,291.163311 C325.835287,291.163311 325.55638,290.884855 325.55638,290.331102 L325.55638,282.064974 C325.55638,281.508513 325.835287,281.230057 326.389492,281.230057 L337.763316,281.230057 C338.928589,281.230057 339.483245,280.734071 339.483245,279.78723 L339.483245,276.072527 C339.483245,275.072432 338.928589,274.575995 337.763316,274.575995 L326.389492,274.575995 C325.835287,274.575995 325.55638,274.297539 325.55638,273.742884 L325.55638,265.474048 C325.55638,264.921648 325.835287,264.642741 326.389492,264.642741 L341.480727,264.642741 C342.536333,264.642741 343.034124,264.143145 343.034124,263.08799 L343.034124,259.371031 C343.034124,258.371387 342.536333,257.873145 341.480727,257.873145 L319.620347,257.873145 C318.567449,257.873145 318.065596,258.371387 318.065596,259.428347 L318.065596,296.377254 C318.065596,297.431506 318.567449,297.931102 319.620347,297.931102 L341.480727,297.931102 C342.536333,297.931102 343.034124,297.431506 343.034124,296.377254 L343.034124,292.658941 C343.034124,291.662907 342.536333,291.163311 341.480727,291.163311" id="Fill-15" fill="#524F54"></path>
            <mask id="mask-2" fill="white">
                <use xlink:href="#path-1"></use>
            </mask>
            <g id="Clip-18"></g>
            <polygon id="Fill-17" fill="#A60082" mask="url(#mask-2)" points="99.604228 110.264086 126.568884 110.264086 126.568884 56.3325178 99.604228 56.3325178"></polygon>
            <polygon id="Fill-19" fill="#524F54" mask="url(#mask-2)" points="99.60319 114.907216 288.364805 114.907216 288.364805 141.872774 261.398796 141.872774 261.398796 168.838784 234.432786 168.838784 234.432786 195.806147 207.469033 195.806147 207.469033 222.770803 180.500767 222.770803 180.500767 195.806147 153.534758 195.806147 153.534758 168.838784 126.568748 168.838784 126.568748 141.872774 99.60319 141.872774"></polygon>
            <polygon id="Fill-20" fill="#E60008" mask="url(#mask-2)" points="126.568432 110.264537 153.534442 110.264537 153.534442 29.3678622 126.568432 29.3678622"></polygon>
            <polygon id="Fill-21" fill="#FFC900" mask="url(#mask-2)" points="153.534893 110.264537 180.500903 110.264537 180.500903 29.3678622 153.534893 29.3678622"></polygon>
            <polygon id="Fill-22" fill="#73C9E8" mask="url(#mask-2)" points="180.500903 110.264086 207.469169 110.264086 207.469169 56.3325178 180.500903 56.3325178"></polygon>
            <polygon id="Fill-23" fill="#E60085" mask="url(#mask-2)" points="207.469169 110.264537 234.432922 110.264537 234.432922 29.3678622 207.469169 29.3678622"></polygon>
            <polygon id="Fill-24" fill="#B3C900" mask="url(#mask-2)" points="234.432922 110.264537 261.398931 110.264537 261.398931 29.3678622 234.432922 29.3678622"></polygon>
            <polygon id="Fill-25" fill="#D9B363" mask="url(#mask-2)" points="261.398931 110.264086 288.364941 110.264086 288.364941 56.3325178 261.398931 56.3325178"></polygon>
            <path d="M120.163853,325.582466 C119.286062,325.344627 117.767416,325.177192 116.855777,325.177192 C113.918223,325.177192 113.074732,325.986385 112.50067,329.227216 L111.454993,335.202513 C111.386846,335.607335 111.3539,335.94401 111.3539,336.249093 C111.3539,337.059188 111.656727,337.499663 112.669458,337.499663 C114.627677,337.499663 116.686988,336.282489 118.543663,334.763843 L120.163853,325.582466 Z M120.467131,339.557169 L118.037297,339.557169 L118.206086,337.566005 C116.315563,339.186195 114.087463,339.895648 111.994304,339.895648 C109.462926,339.895648 108.551739,338.511492 108.551739,336.619164 C108.551739,336.317691 108.584684,335.743178 108.652831,335.338356 L109.800504,328.857145 C110.508603,324.804865 111.960907,322.780304 117.159055,322.780304 C118.27333,322.780304 119.45485,322.948641 120.568223,323.219425 L121.784043,316.401088 L124.619601,315.994912 L120.467131,339.557169 Z" id="Fill-26" fill="#524F54" mask="url(#mask-2)"></path>
            <polygon id="Fill-27" fill="#524F54" mask="url(#mask-2)" points="129.947815 316.401223 132.783373 315.995048 128.631805 339.557304 125.863492 339.557304"></polygon>
            <path d="M145.642401,325.582466 C144.764159,325.344627 143.616938,325.177192 142.469266,325.177192 C139.936986,325.177192 138.688221,325.952537 138.114159,329.193819 L137.068031,335.134817 C137.000786,335.54009 136.93309,335.978309 136.93309,336.282489 C136.93309,337.059188 137.270667,337.499663 138.282948,337.499663 C140.342259,337.499663 142.165537,336.351088 144.056059,334.628903 L145.642401,325.582466 Z M145.946131,339.557169 L143.650335,339.557169 L143.751879,337.566005 C141.928601,339.186195 139.700501,339.895648 137.607793,339.895648 C135.076416,339.895648 134.130477,338.511492 134.130477,336.619164 C134.130477,336.215696 134.198625,335.776575 134.265869,335.338356 L135.413993,328.821943 C136.122544,324.838713 137.607793,322.780304 142.806843,322.780304 C144.832306,322.780304 147.093352,323.286219 148.714444,323.893677 L145.946131,339.557169 Z" id="Fill-28" fill="#524F54" mask="url(#mask-2)"></path>
            <path d="M170.243204,328.821853 C170.3109,328.450879 170.345651,328.113302 170.345651,327.845226 C170.345651,326.054893 169.29862,325.177102 166.969428,325.177102 C164.268359,325.177102 162.850805,326.458812 162.412135,329.026295 L161.568192,333.784418 C161.196767,336.046366 161.736981,337.500024 164.808572,337.500024 C167.644131,337.500024 168.927195,336.282399 169.366316,333.817815 L170.243204,328.821853 Z M158.800781,333.648575 L159.643822,328.857055 C160.352373,324.838622 162.64862,322.780214 167.374701,322.780214 C171.154843,322.780214 173.113062,324.873824 173.113062,327.675986 C173.113062,327.912019 173.113062,328.281639 173.011969,328.821853 L172.10033,333.986152 C171.459024,337.700855 169.500354,339.895558 164.403751,339.895558 C159.711969,339.895558 158.158572,337.194038 158.800781,333.648575 L158.800781,333.648575 Z" id="Fill-29" fill="#524F54" mask="url(#mask-2)"></path>
            <path d="M187.420874,325.582466 C186.542632,325.344627 185.023534,325.177192 184.112347,325.177192 C181.174793,325.177192 180.331302,325.986385 179.75724,329.227216 L178.711112,335.202513 C178.643867,335.607335 178.61047,335.94401 178.61047,336.249093 C178.61047,337.059188 178.913748,337.499663 179.92648,337.499663 C181.884247,337.499663 183.943558,336.282489 185.799781,334.763843 L187.420874,325.582466 Z M187.723701,339.557169 L185.293867,339.557169 L185.462204,337.566005 C183.572133,339.186195 181.344033,339.895648 179.250874,339.895648 C176.719948,339.895648 175.808309,338.511492 175.808309,336.619164 C175.808309,336.317691 175.841705,335.743178 175.909401,335.338356 L177.057074,328.857145 C177.765625,324.804865 179.217477,322.780304 184.415625,322.780304 C185.530352,322.780304 186.71142,322.948641 187.825245,323.219425 L189.040613,316.401088 L191.876171,315.994912 L187.723701,339.557169 Z" id="Fill-30" fill="#524F54" mask="url(#mask-2)"></path>
            <path d="M215.096428,326.898475 C215.129824,326.696741 215.163672,326.458451 215.163672,326.324865 C215.163672,325.649259 214.825644,325.413226 214.015549,325.413226 C212.361511,325.413226 209.627496,326.696741 207.837615,327.87781 L205.779658,339.557169 L203.010442,339.557169 L205.238993,326.898475 C205.271938,326.696741 205.30714,326.458451 205.30714,326.324865 C205.30714,325.649259 204.969563,325.413226 204.159017,325.413226 C202.504527,325.413226 199.972698,326.627691 197.947235,327.87781 L195.888375,339.557169 L193.120513,339.557169 L195.989468,323.319615 L198.420656,322.915245 L198.218019,325.244888 C199.837758,324.097216 203.21353,322.780304 205.171297,322.780304 C207.028874,322.780304 207.940062,323.726242 208.074551,325.244888 C209.86353,323.993867 213.070513,322.780304 215.028732,322.780304 C217.087591,322.780304 217.965382,323.893677 217.965382,325.68401 C217.965382,326.054983 217.931083,326.5618 217.830893,327.101112 L215.635739,339.557169 L212.867876,339.557169 L215.096428,326.898475 Z" id="Fill-31" fill="#524F54" mask="url(#mask-2)"></path>
            <path d="M224.944069,316.401223 L227.78053,315.995048 L227.037679,320.215214 L224.201219,320.586188 L224.944069,316.401223 Z M223.730055,323.319751 L226.56471,322.91538 L223.628962,339.557304 L220.859295,339.557304 L223.730055,323.319751 Z" id="Fill-32" fill="#524F54" mask="url(#mask-2)"></path>
            <path d="M240.638881,325.582466 C239.76109,325.344627 238.613869,325.177192 237.466197,325.177192 C234.933466,325.177192 233.684701,325.952537 233.110639,329.193819 L232.064962,335.134817 C231.997266,335.54009 231.929119,335.978309 231.929119,336.282489 C231.929119,337.059188 232.267147,337.499663 233.278976,337.499663 C235.33919,337.499663 237.161565,336.351088 239.052088,334.628903 L240.638881,325.582466 Z M240.943062,339.557169 L238.646815,339.557169 L238.748359,337.566005 C236.925081,339.186195 234.696981,339.895648 232.604273,339.895648 C230.073347,339.895648 229.127409,338.511492 229.127409,336.619164 C229.127409,336.215696 229.195105,335.776575 229.2628,335.338356 L230.410473,328.821943 C231.119024,324.838713 232.604273,322.780304 237.803323,322.780304 C239.828335,322.780304 242.089831,323.286219 243.710924,323.893677 L240.943062,339.557169 Z" id="Fill-33" fill="#524F54" mask="url(#mask-2)"></path>
            <path d="M261.326226,325.683829 C261.326226,326.054803 261.292378,326.56162 261.191285,327.101382 L258.997485,339.556988 L256.229171,339.556988 L258.456819,326.898295 C258.490216,326.696561 258.524515,326.458722 258.524515,326.324684 C258.524515,325.64953 258.186938,325.413045 257.376843,325.413045 C255.721903,325.413045 253.191428,326.627962 251.165513,327.877629 L249.106653,339.556988 L246.33834,339.556988 L249.207746,323.319886 L251.638482,322.915064 L251.435394,325.244708 C253.055584,324.097036 256.431808,322.780124 258.389575,322.780124 C260.448886,322.780124 261.326226,323.893496 261.326226,325.683829" id="Fill-34" fill="#524F54" mask="url(#mask-2)"></path>
            <path d="M263.447907,346.578819 L262.705057,344.45091 C265.33843,343.507679 266.890924,342.224615 268.410473,339.556943 L267.431138,339.556943 L264.865912,323.355043 L267.532682,322.982264 L269.62539,337.363143 L274.283323,327.640648 C274.79014,326.595423 274.891233,326.022264 274.891233,325.141765 C274.891233,324.669247 274.79014,323.893451 274.6209,323.319841 L277.287219,322.915019 C277.423062,323.488178 277.558454,324.265779 277.558454,325.075874 C277.558454,325.952762 277.524154,326.864853 276.983941,327.944829 L271.279428,339.556943 C269.45615,342.898867 267.869808,345.127869 263.447907,346.578819" id="Fill-35" fill="#524F54" mask="url(#mask-2)"></path>
        </g>
    </g>
</svg>