<svg id="Layer_1" xmlns="http://www.w3.org/2000/svg" width="228" height="67.92"><style>.st0,.st1,.st2,.st3,.st4,.st5,.st6,.st7{fill-rule:evenodd;clip-rule:evenodd;fill:#a03e90}.st1,.st2,.st3,.st4,.st5,.st6,.st7{fill:#56585e}.st2,.st3,.st4,.st5,.st6,.st7{fill:#ed2e31}.st3,.st4,.st5,.st6,.st7{fill:#ffcc40}.st4,.st5,.st6,.st7{fill:#5fcae9}.st5,.st6,.st7{fill:#dc338c}.st6,.st7{fill:#b7ce4b}.st7{fill:#e1b872}.st8{fill:#56585e}</style><path class="st0" d="M0 9.47H9.47V28.410000000000004H0z"/><path class="st1" d="M0 30.04L66.29 30.04 66.29 39.51 56.82 39.51 56.82 48.98 47.35 48.98 47.35 58.45 37.88 58.45 37.88 67.92 28.41 67.92 28.41 58.45 18.94 58.45 18.94 48.98 9.47 48.98 9.47 39.51 0 39.51z"/><path class="st2" d="M9.47 0H18.94V28.41H9.47z"/><path class="st3" d="M18.94 0H28.410000000000004V28.41H18.94z"/><path class="st4" d="M28.41 9.47H37.88V28.410000000000004H28.41z"/><path class="st5" d="M37.88 0H47.35V28.41H37.88z"/><path class="st6" d="M47.35 0H56.82V28.41H47.35z"/><path class="st7" d="M56.82 9.47H66.29V28.410000000000004H56.82z"/><path class="st8" d="M84.97 11.24v17.74c0 .5.24.74.74.74h2.13c.48 0 .72-.24.72-.74V22.8c0-.24.11-.35.35-.35.13 0 .21.05.29.16l5.33 6.87c.11.16.29.24.53.24h2.61c.4 0 .69-.29.69-.69 0-.13-.05-.29-.16-.43l-6.77-8.5 6.77-8.5c.11-.13.16-.29.16-.43 0-.4-.29-.69-.69-.69h-2.61c-.24 0-.43.08-.53.24l-5.33 6.87c-.08.11-.16.16-.29.16-.24 0-.35-.11-.35-.35v-6.18c0-.51-.24-.75-.72-.75h-2.13c-.5.03-.74.27-.74.77m27.49 8.69h-5.27c-.27 0-.4-.13-.4-.4v-4.66c0-.72.4-1.12 1.12-1.12h3.84c.72 0 1.12.4 1.12 1.12v4.66c-.01.26-.14.4-.41.4m-5.27 3.27h5.27c.27 0 .4.13.4.4v5.38c0 .51.24.75.72.75h2.13c.51 0 .75-.24.75-.75V14.55c0-2.48-1.57-4.05-4.05-4.05h-5.17c-2.48 0-4.05 1.57-4.05 4.05v14.44c0 .51.24.75.75.75h2.13c.48 0 .72-.24.72-.75V23.6c0-.26.13-.4.4-.4zm21.55 6.76c.48 0 .72-.24.72-.75V14.38c0-.26.14-.4.4-.4h3.65c.51 0 .74-.24.74-.75v-1.79c0-.48-.24-.72-.74-.72h-11.69c-.51 0-.75.24-.75.72v1.79c0 .51.24.75.75.75h3.65c.26 0 .4.13.4.4v14.84c0 .51.24.75.72.75h2.15zm18.41-3.25h-2.34c-1.52 0-2.26-.75-2.26-2.24v-8.26c0-1.49.74-2.24 2.26-2.24h2.34c1.52 0 2.26.74 2.26 2.24v8.26c0 1.49-.74 2.24-2.26 2.24m-2.9 3.25h3.46c3.38 0 5.3-1.92 5.3-5.3v-8.63c0-3.38-1.92-5.3-5.3-5.3h-3.46c-3.38 0-5.3 1.92-5.3 5.3v8.63c-.01 3.38 1.91 5.3 5.3 5.3zm24.88-14.09l2.5 13.74c.05.24.19.35.4.35h3.7c.21 0 .35-.11.4-.35l4.02-18.19c.08-.35-.16-.69-.48-.69h-2.56c-.4 0-.64.21-.72.53l-2.58 14.92-2.58-14.92c-.08-.32-.32-.53-.72-.53h-2.77c-.4 0-.64.21-.72.53l-2.58 14.92-2.58-14.92c-.08-.32-.32-.53-.72-.53h-2.56c-.32 0-.56.35-.48.69l4.02 18.19c.05.24.18.35.4.35h3.7c.21 0 .35-.11.4-.35l2.51-13.74zm17.24-5.14c-.51 0-.75.24-.75.75v17.74c0 .51.24.75.75.75h2.13c.48 0 .72-.24.72-.75V11.48c0-.51-.24-.75-.72-.75h-2.13zm15.38 19.23h3.92c2.48 0 4.05-1.57 4.05-4.05v-.96c0-.51-.24-.75-.74-.75h-2.13c-.48 0-.72.24-.72.75v.64c0 .72-.4 1.12-1.12 1.12h-2.69c-1.52 0-2.26-.75-2.26-2.24v-8.26c0-1.49.75-2.24 2.26-2.24H205c.72 0 1.12.4 1.12 1.12v.64c0 .5.24.74.72.74h2.13c.51 0 .74-.24.74-.74v-.96c0-2.48-1.57-4.05-4.05-4.05h-3.92c-3.38 0-5.3 1.92-5.3 5.3v8.63c.01 3.39 1.92 5.31 5.31 5.31m25.5-3.25H220c-.27 0-.4-.13-.4-.4v-3.97c0-.27.13-.4.4-.4h5.46c.56 0 .83-.24.83-.69v-1.78c0-.48-.27-.72-.83-.72H220c-.27 0-.4-.13-.4-.4v-3.97c0-.26.13-.4.4-.4h7.25c.51 0 .75-.24.75-.75v-1.79c0-.48-.24-.72-.75-.72h-10.49c-.5 0-.75.24-.75.75v17.74c0 .51.24.75.75.75h10.49c.51 0 .75-.24.75-.75v-1.79c0-.47-.24-.71-.75-.71M91.1 48.67h-1.17l.08-.95a4.55 4.55 0 0 1-2.98 1.12c-1.21 0-1.65-.66-1.65-1.57 0-.15.02-.42.05-.61l.55-3.11c.34-1.94 1.04-2.91 3.53-2.91.53 0 1.1.08 1.63.21l.58-3.27 1.36-.19-1.98 11.28zm-.15-6.7c-.42-.11-1.15-.19-1.59-.19-1.41 0-1.81.39-2.09 1.94l-.5 2.86c-.03.19-.05.36-.05.5 0 .39.15.6.63.6.94 0 1.93-.58 2.82-1.31l.78-4.4zm4.7-4.4l1.36-.19-1.99 11.3h-1.33l1.96-11.11zm7.67 11.1h-1.1l.05-.95c-.87.78-1.94 1.12-2.94 1.12-1.21 0-1.67-.66-1.67-1.57 0-.19.03-.4.06-.61l.55-3.12c.34-1.91 1.05-2.9 3.54-2.9.97 0 2.06.24 2.83.53l-1.32 7.5zm-.15-6.7c-.42-.11-.97-.19-1.52-.19-1.21 0-1.81.37-2.09 1.93l-.5 2.85c-.03.18-.06.39-.06.54 0 .37.16.58.65.58.99 0 1.86-.55 2.77-1.38l.75-4.33zm6.31 3.87l.4-2.3c.34-1.93 1.44-2.91 3.71-2.91 1.81 0 2.75 1 2.75 2.35 0 .11 0 .29-.05.55l-.43 2.47c-.31 1.78-1.25 2.83-3.69 2.83-2.25 0-3-1.29-2.69-2.99zm5.49-2.32c.03-.18.05-.34.05-.47 0-.86-.5-1.28-1.62-1.28-1.29 0-1.97.62-2.18 1.84l-.41 2.28c-.18 1.08.08 1.78 1.55 1.78 1.36 0 1.97-.58 2.18-1.76l.43-2.39zm8.38 5.15h-1.17l.08-.95a4.55 4.55 0 0 1-2.98 1.12c-1.21 0-1.65-.66-1.65-1.57 0-.15.02-.42.05-.61l.55-3.11c.34-1.94 1.04-2.91 3.53-2.91.53 0 1.1.08 1.63.21l.58-3.27 1.36-.19-1.98 11.28zm-.15-6.7c-.42-.11-1.15-.19-1.59-.19-1.41 0-1.81.39-2.09 1.94l-.5 2.86c-.03.19-.05.36-.05.5 0 .39.15.6.63.6.94 0 1.93-.58 2.82-1.31l.78-4.4zm13.27.63c.02-.1.03-.21.03-.28 0-.32-.16-.44-.55-.44-.79 0-2.1.62-2.96 1.18l-.99 5.6h-1.33l1.07-6.07c.02-.1.03-.21.03-.28 0-.32-.16-.44-.55-.44-.79 0-2.01.58-2.98 1.18l-.99 5.6h-1.33l1.38-7.78 1.17-.19-.1 1.12c.78-.55 2.4-1.18 3.33-1.18.89 0 1.33.45 1.39 1.18.86-.6 2.39-1.18 3.33-1.18.99 0 1.41.53 1.41 1.39 0 .18-.02.42-.06.68l-1.05 5.97h-1.33l1.08-6.06zm4.15-1.72l1.36-.19-1.41 7.98h-1.33l1.38-7.79zm.58-3.31l1.36-.19-.36 2.02-1.36.18.36-2.01zm7.67 11.1h-1.1l.05-.95c-.87.78-1.94 1.12-2.95 1.12-1.21 0-1.67-.66-1.67-1.57 0-.19.03-.4.06-.61l.55-3.12c.34-1.91 1.05-2.9 3.54-2.9.97 0 2.06.24 2.83.53l-1.31 7.5zm-.15-6.7c-.42-.11-.97-.19-1.52-.19-1.21 0-1.81.37-2.09 1.93l-.5 2.85c-.03.19-.06.4-.06.55 0 .37.16.58.65.58.99 0 1.86-.55 2.77-1.38l.75-4.34zm9.92.05c0 .18-.02.42-.07.68l-1.05 5.97h-1.33l1.07-6.07c.02-.1.03-.21.03-.28 0-.32-.16-.44-.55-.44-.79 0-2.01.58-2.98 1.18l-.99 5.6h-1.33l1.38-7.78 1.16-.19-.1 1.12c.78-.55 2.4-1.18 3.33-1.18 1.01 0 1.43.53 1.43 1.39zm1.02 10.01l-.36-1.02c1.26-.45 2.01-1.07 2.73-2.35h-.47l-1.23-7.77 1.28-.18 1 6.89 2.23-4.66c.24-.5.29-.78.29-1.2 0-.23-.05-.6-.13-.87l1.28-.19c.06.28.13.65.13 1.04 0 .42-.02.86-.27 1.38l-2.74 5.57c-.86 1.6-1.62 2.67-3.74 3.36z"/></svg>