<svg height="32" viewBox="0 0 117 32" width="117" xmlns="http://www.w3.org/2000/svg"><path d="m59 79.3087141h1.633179v-29.6418755h-1.633179zm7.8718825-29.6418755h-1.6090136v29.6418755h1.6087259zm1.5103382 21.7892857c.5506261-.0283885 1.0885942-.0741576 1.6087259-.1431009v-21.6204034c-.2784776-.015353-.5606951-.0257814-.8512554-.0257814h-.7574705zm-6.2387035 7.8525898h1.6090136v-29.6418755h-1.6090136zm14.0861329-27.2725995c-.4812944-.4374137-1.0172487-.8180505-1.6090136-1.138724v18.9938934c.582559-.3198045 1.1216778-.6891438 1.6090136-1.1152601zm-4.7283654 19.0054805c.5604074-.1280376 1.0975124-.284174 1.6090136-.4701473v-20.3235152c-.5057475-.1662751-1.0422771-.2972096-1.6090136-.3928033zm6.2387035-17.1625494v13.1435576c1.0405511-1.6132165 1.6210963-3.7072984 1.6210963-6.3636452 0-2.7134134-.543434-5.0030279-1.6210963-6.7799124zm56.7087388-1.968941c-1.731854-1.4889447-4.137176-2.2429764-6.965679-2.2429764h-10.098841v2.2429764zm-17.06452 2.0277456v2.5636499h19.715523c-.211735-.9541992-.542571-1.8078801-.976973-2.5636499zm0 25.3711535h7.686615v-2.4150451h-7.686615zm11.935124-2.4150451 1.025592 2.4150451h8.667615l-1.060114-2.4150451zm-3.899549-9.1822116 1.088594 2.5633602h8.53902l-1.12513-2.5633602zm-8.035575 2.5633602h7.686615v-2.5636499h-7.686615zm0-9.1825013h19.776512c.138664-.6158553.216626-1.2580714.216626-1.9153506 0-.2201553-.006042-.435386-.015823-.6480096h-19.977315zm0 2.0277456v2.5636499h16.880115c.859886-.5842804 1.619658-1.4770679 2.17201-2.5636499zm0 11.7458615h7.686615v-2.5633602h-7.686615zm18.553282-2.5633602h-8.568076l1.088594 2.5633602h8.604612zm12.988621-17.9385966c-2.331963 2.7189172-3.745639 6.2590714-3.745639 10.133514 0 3.8747322 1.413676 7.4145968 3.745639 10.133514zm23.311853-.0191188v20.3052655c2.341744-2.721814 3.762037-6.2689205 3.762037-10.1526327 0-3.8834226-1.420293-7.4308188-3.762037-10.1526328zm-1.510338-1.5280512c-1.170584-1.0312535-2.497092-1.8866724-3.939825-2.5259917v28.4133513c1.442733-.6393192 2.769241-1.4947382 3.939825-2.5259917zm-10.900614-3.8167966c-1.368222.0672053-2.688689.3157489-3.9404.71956v29.5558411c1.251711.4035214 2.572178.6523548 3.9404.7192704zm5.450451.7140561c-1.251998-.402073-2.572465-.6485889-3.940113-.7143458v30.9955405c1.367648-.0660465 2.688115-.3122728 3.940113-.7143458zm-10.901189.5839908c-1.44302.6416366-2.769529 1.4990834-3.939825 2.532944v23.3329794c1.170296 1.0338606 2.496805 1.8913073 3.939825 2.532944zm-66.7975104-.631498h7.6866143v18.8557171c0 1.9758933.5313514 3.5404439 2.4122258 3.5404439 1.8805868 0 2.4122263-1.5645506 2.4122263-3.5404439v-18.8557171h7.686326v20.0083457c0 6.9986192-3.597769 10.3748157-10.0985523 10.3748157-6.5007831 0-10.0988401-3.3761965-10.0988401-10.3748157z" fill-rule="evenodd" transform="translate(-59 -49)"/></svg>