<svg id="Layer_1" xmlns="http://www.w3.org/2000/svg" width="140" height="53.06"><style>.st0{fill:#030303}.st1{fill:#c1cd49}</style><path class="st0" d="M10.36 18.23v22.78H0V0h10.36L25.9 25.04 41.44 0H51.8v41.01H41.4l.05-22.78-10.23 17.49H20.77L10.36 18.23zM99.91 0h10.38v41.01H99.91V0zm10.38 21.19L125.73 0h13.18l-15.98 21.19L140 41.01h-13.18l-16.53-19.82z"/><path class="st0" d="M93.23 0L88.05 9.9 62.15 9.9 62.15 0z"/><path class="st0" d="M88.05 30.99L72.51 31.07 72.51 0 62.15 0 62.15 31.12 62.15 41.02 72.51 41.02 93.23 41.02z"/><path class="st0" d="M.8 44.65h.61l1.49 4.3 1.49-4.3H5l.15 6.42h-.51l-.1-5.52-1.36 3.93h-.57l-1.36-3.93-.1 5.52h-.5l.15-6.42zm5.64 0h.54v6.42h-.54v-6.42zm1.91 0h2.75v.48H8.89v2.42h2.03v.48H8.89v2.55h2.21v.48c-.4.4-.67.73-.67 1.22 0 .25.12.38.36.38.12 0 .2-.02.29-.04l.03.37c-.12.05-.28.07-.42.07-.44 0-.73-.28-.73-.75 0-.59.37-.98.72-1.24H8.35v-6.42zm3.84 0h1.49c1.22 0 1.69.67 1.69 1.85v2.72c0 1.18-.46 1.85-1.69 1.85h-1.49v-6.42zm1.49 5.94c.82 0 1.15-.43 1.15-1.37V46.5c0-.93-.33-1.37-1.15-1.37h-.95v5.45h.95zm3.26 0h2.56v.48h-3.1v-.49l2.52-5.44h-2.4v-.48h2.94v.49l-2.52 5.44zm5.14-2.23v2.71h-.54v-2.71l-1.43-3.71h.57l1.14 3.15 1.14-3.15h.57l-1.45 3.71zm2.26-3.71h.56l2.36 5.39v-5.39h.51v6.42h-.56l-2.36-5.39v5.39h-.51v-6.42zm5.98 0h.6l1.63 6.42h-.53l-.41-1.71h-1.97l-.41 1.71h-.53l1.62-6.42zm1.16 4.23l-.87-3.68-.88 3.68h1.75zm5.17-2.04c0 .7-.31 1.22-.96 1.42l1.26 2.81h-.59l-1.19-2.75H34v2.75h-.54v-6.42h1.78c1.02 0 1.41.54 1.41 1.48v.71zm-.53-.7c0-.72-.24-1-.91-1h-1.2v2.71h1.15c.66 0 .96-.3.96-1v-.71zm1.69.21c0-1.14.51-1.81 1.71-1.81 1.19 0 1.7.67 1.7 1.81v3.02c0 1.14-.54 1.81-1.7 1.81-1.17 0-1.71-.67-1.71-1.81v-3.02zm1.7 4.35c.82 0 1.17-.4 1.17-1.28v-3.07c0-.93-.32-1.33-1.17-1.33-.85 0-1.17.4-1.17 1.33v3.07c.01.88.35 1.28 1.17 1.28zm2.95-6.05h1.49c1.22 0 1.69.67 1.69 1.85v2.72c0 1.18-.46 1.85-1.69 1.85h-1.49v-6.42zm1.49 5.94c.82 0 1.15-.43 1.15-1.37V46.5c0-.93-.33-1.37-1.15-1.37H43v5.45h.95zm2.83-4.24c0-1.14.51-1.81 1.7-1.81s1.71.67 1.71 1.81v3.02c0 1.14-.54 1.81-1.71 1.81s-1.7-.67-1.7-1.81v-3.02zm1.71 4.35c.82 0 1.17-.4 1.17-1.28v-3.07c0-.93-.32-1.33-1.17-1.33-.85 0-1.17.4-1.17 1.33v3.07c0 .88.35 1.28 1.17 1.28zm6.98-.41l.99-5.64h.52l-1.21 6.42h-.59l-1.22-5.81-1.22 5.81h-.59l-1.21-6.42h.52l.99 5.64 1.21-5.64h.6l1.21 5.64zm2.41-5.64h2.75v.48h-2.21v2.42h2.03v.48h-2.03v2.55h2.21v.48h-2.75v-6.41zm5.61 1.69c0-1.19.5-1.8 1.66-1.8.37 0 .88.08 1.15.17l-.08.46a3.8 3.8 0 0 0-1.05-.15c-.81 0-1.14.35-1.14 1.34v3c0 .99.33 1.34 1.14 1.34.39 0 .73-.07 1.05-.16l.08.46c-.27.1-.78.17-1.15.17-1.16 0-1.66-.61-1.66-1.8v-3.03zm3.85-1.69h2.75v.48h-2.21v2.42h2.03v.48h-2.03v2.55h2.21v.48h-2.75v-6.41zm3.85 0h.56l2.36 5.39v-5.39h.51v6.42h-.56l-2.36-5.39v5.39h-.51v-6.42zm5.68.48h-1.33v-.48h3.2v.48h-1.33v5.93h-.54v-5.93zm5.98 1.71c0 .7-.31 1.22-.96 1.42l1.26 2.81h-.59l-1.19-2.75H80.2v2.75h-.54v-6.42h1.78c1.02 0 1.41.54 1.41 1.48v.71zm-.54-.7c0-.72-.24-1-.91-1h-1.2v2.71h1.15c.66 0 .96-.3.96-1v-.71zm5.12-1.49v4.82c0 1.1-.55 1.71-1.68 1.71s-1.68-.62-1.68-1.71v-4.82h.54v4.85c0 .9.37 1.2 1.14 1.2.77 0 1.14-.31 1.14-1.2v-4.85h.54zm1.39 0h.61l1.49 4.3 1.49-4.3h.61l.15 6.42h-.51l-.1-5.52-1.36 3.93h-.58l-1.36-3.93-.1 5.52h-.51l.17-6.42zm7.48 0h.54v6.42h-.54v-6.42zm.68 3.15l1.89-3.15h.62l-1.92 3.15 1.98 3.27h-.62l-1.95-3.27zm3.15-1.45c0-1.14.51-1.81 1.7-1.81s1.71.67 1.71 1.81v3.02c0 1.14-.54 1.81-1.71 1.81s-1.7-.67-1.7-1.81v-3.02zm1.71 4.35c.82 0 1.17-.4 1.17-1.28v-3.07c0-.93-.32-1.33-1.17-1.33-.85 0-1.17.4-1.17 1.33v3.07c0 .88.35 1.28 1.17 1.28zm2.94-6.05h.56l2.36 5.39v-5.39h.51v6.42h-.56l-2.36-5.39v5.39h-.51v-6.42zm4.67 1.76c0-1.28.55-1.88 1.88-1.88.42 0 .87.06 1.26.19l-.07.47c-.37-.11-.77-.18-1.19-.18-.98 0-1.34.35-1.34 1.42v2.91c0 .93.27 1.37 1.27 1.37.24 0 .57-.03.81-.07V48.2h.52V51c-.4.12-.93.18-1.37.18-1.24 0-1.77-.67-1.77-1.81v-2.96zm7.62.43c0 .7-.31 1.22-.96 1.42l1.26 2.81h-.59l-1.19-2.75h-1.17v2.75h-.54v-6.42h1.78c1.02 0 1.41.54 1.41 1.48v.71zm-.54-.7c0-.72-.24-1-.91-1h-1.2v2.71h1.15c.66 0 .96-.3.96-1v-.71zm1.84-1.49h2.75v.48h-2.21v2.42h2.03v.48h-2.03v2.55h2.21v.48h-2.75v-6.41zm4.81 6.53c-.3 0-.85-.07-1.18-.2l.09-.49c.34.12.69.2 1.12.2.86 0 1.11-.44 1.11-1.18 0-.97-.15-1.16-1.05-1.55-1.17-.51-1.34-.88-1.34-1.79 0-1.19.51-1.63 1.58-1.63.51 0 .96.11 1.2.22l-.08.47c-.34-.11-.73-.21-1.14-.21-.83 0-1.03.32-1.03 1.13 0 .8.1.87.98 1.3 1.14.55 1.41.82 1.41 2.02 0 1.08-.53 1.71-1.67 1.71zm2.57-4.83c0-1.14.51-1.81 1.7-1.81s1.71.67 1.71 1.81v3.02c0 1.14-.54 1.81-1.71 1.81s-1.7-.67-1.7-1.81v-3.02zm1.71 4.35c.82 0 1.17-.4 1.17-1.28v-3.07c0-.93-.32-1.33-1.17-1.33-.85 0-1.17.4-1.17 1.33v3.07c0 .88.35 1.28 1.17 1.28zm6.98-.41l.99-5.64h.52l-1.21 6.42h-.59l-1.22-5.81-1.22 5.81h-.59l-1.21-6.42h.52l.99 5.64 1.21-5.64h.6l1.21 5.64zm2.41-5.64h2.75v.48h-2.21v2.42h2.03v.48h-2.03v2.55h2.21v.48h-2.75v-6.41z"/><path class="st1" d="M41.44 18.23L31.22 35.72 10.36 0z"/><path class="st1" d="M138.91 0L110.29 40.5 110.29 21.19z"/><path class="st1" d="M72.51 9.79L62.15 41.02 77.69 30.99z"/></svg>