<?xml version="1.0" encoding="UTF-8"?>
<svg width="600px" height="400px" viewBox="0 0 600 400" version="1.1" xmlns="http://www.w3.org/2000/svg" xmlns:xlink="http://www.w3.org/1999/xlink">
    <!-- Generator: Sketch 54.1 (76490) - https://sketchapp.com -->
    <title>Artboard</title>
    <desc>Created with Sketch.</desc>
    <g id="Artboard" stroke="none" stroke-width="1" fill="none" fill-rule="evenodd">
        <rect fill="#FFFFFF" x="0" y="0" width="600" height="400"></rect>
        <g id="mck-logo" transform="translate(20.000000, 92.000000)" fill-rule="nonzero">
            <path d="M41.44,72.92 L41.44,164.04 L0,164.04 L0,0 L41.44,0 L103.6,100.16 L165.76,0 L207.2,0 L207.2,164.04 L165.6,164.04 L165.8,72.92 L124.88,142.88 L83.08,142.88 L41.44,72.92 Z M399.64,0 L441.16,0 L441.16,164.04 L399.64,164.04 L399.64,0 Z M441.16,84.76 L502.92,0 L555.64,0 L491.72,84.76 L560,164.04 L507.28,164.04 L441.16,84.76 Z" id="Shape" fill="#030303"></path>
            <polygon id="Path" fill="#030303" points="372.92 0 352.2 39.6 248.6 39.6 248.6 0"></polygon>
            <polygon id="Path" fill="#030303" points="352.2 123.96 290.04 124.28 290.04 0 248.6 0 248.6 124.48 248.6 164.08 290.04 164.08 372.92 164.08"></polygon>
            <path d="M3.2,178.6 L5.64,178.6 L11.6,195.8 L17.56,178.6 L20,178.6 L20.6,204.28 L18.56,204.28 L18.16,182.2 L12.72,197.92 L10.44,197.92 L5,182.2 L4.6,204.28 L2.6,204.28 L3.2,178.6 L3.2,178.6 Z M25.76,178.6 L27.92,178.6 L27.92,204.28 L25.76,204.28 L25.76,178.6 Z M33.4,178.6 L44.4,178.6 L44.4,180.52 L35.56,180.52 L35.56,190.2 L43.68,190.2 L43.68,192.12 L35.56,192.12 L35.56,202.32 L44.4,202.32 L44.4,204.24 C42.8,205.84 41.72,207.16 41.72,209.12 C41.72,210.12 42.2,210.64 43.16,210.64 C43.64,210.64 43.96,210.56 44.32,210.48 L44.44,211.96 C43.96,212.16 43.32,212.24 42.76,212.24 C41,212.24 39.84,211.12 39.84,209.24 C39.84,206.88 41.32,205.32 42.72,204.28 L33.4,204.28 L33.4,178.6 L33.4,178.6 Z M48.76,178.6 L54.72,178.6 C59.6,178.6 61.48,181.28 61.48,186 L61.48,196.88 C61.48,201.6 59.64,204.28 54.72,204.28 L48.76,204.28 L48.76,178.6 Z M54.72,202.36 C58,202.36 59.32,200.64 59.32,196.88 L59.32,186 C59.32,182.28 58,180.52 54.72,180.52 L50.92,180.52 L50.92,202.32 L54.72,202.32 L54.72,202.36 Z M67.76,202.36 L78,202.36 L78,204.28 L65.6,204.28 L65.6,202.32 L75.68,180.56 L66.08,180.56 L66.08,178.64 L77.84,178.64 L77.84,180.6 L67.76,202.36 Z M88.32,193.44 L88.32,204.28 L86.16,204.28 L86.16,193.44 L80.44,178.6 L82.72,178.6 L87.28,191.2 L91.84,178.6 L94.12,178.6 L88.32,193.44 L88.32,193.44 Z M97.36,178.6 L99.6,178.6 L109.04,200.16 L109.04,178.6 L111.08,178.6 L111.08,204.28 L108.84,204.28 L99.4,182.72 L99.4,204.28 L97.36,204.28 L97.36,178.6 Z M121.28,178.6 L123.68,178.6 L130.2,204.28 L128.08,204.28 L126.44,197.44 L118.56,197.44 L116.92,204.28 L114.8,204.28 L121.28,178.6 Z M125.92,195.52 L122.44,180.8 L118.92,195.52 L125.92,195.52 Z M146.6,187.36 C146.6,190.16 145.36,192.24 142.76,193.04 L147.8,204.28 L145.44,204.28 L140.68,193.28 L136,193.28 L136,204.28 L133.84,204.28 L133.84,178.6 L140.96,178.6 C145.04,178.6 146.6,180.76 146.6,184.52 L146.6,187.36 Z M144.48,184.56 C144.48,181.68 143.52,180.56 140.84,180.56 L136.04,180.56 L136.04,191.4 L140.64,191.4 C143.28,191.4 144.48,190.2 144.48,187.4 L144.48,184.56 Z M151.24,185.4 C151.24,180.84 153.28,178.16 158.08,178.16 C162.84,178.16 164.88,180.84 164.88,185.4 L164.88,197.48 C164.88,202.04 162.72,204.72 158.08,204.72 C153.4,204.72 151.24,202.04 151.24,197.48 L151.24,185.4 Z M158.04,202.8 C161.32,202.8 162.72,201.2 162.72,197.68 L162.72,185.4 C162.72,181.68 161.44,180.08 158.04,180.08 C154.64,180.08 153.36,181.68 153.36,185.4 L153.36,197.68 C153.4,201.2 154.76,202.8 158.04,202.8 Z M169.84,178.6 L175.8,178.6 C180.68,178.6 182.56,181.28 182.56,186 L182.56,196.88 C182.56,201.6 180.72,204.28 175.8,204.28 L169.84,204.28 L169.84,178.6 Z M175.8,202.36 C179.08,202.36 180.4,200.64 180.4,196.88 L180.4,186 C180.4,182.28 179.08,180.52 175.8,180.52 L172,180.52 L172,202.32 L175.8,202.32 L175.8,202.36 Z M187.12,185.4 C187.12,180.84 189.16,178.16 193.92,178.16 C198.68,178.16 200.76,180.84 200.76,185.4 L200.76,197.48 C200.76,202.04 198.6,204.72 193.92,204.72 C189.24,204.72 187.12,202.04 187.12,197.48 L187.12,185.4 Z M193.96,202.8 C197.24,202.8 198.64,201.2 198.64,197.68 L198.64,185.4 C198.64,181.68 197.36,180.08 193.96,180.08 C190.56,180.08 189.28,181.68 189.28,185.4 L189.28,197.68 C189.28,201.2 190.68,202.8 193.96,202.8 Z M221.88,201.16 L225.84,178.6 L227.92,178.6 L223.08,204.28 L220.72,204.28 L215.84,181.04 L210.96,204.28 L208.6,204.28 L203.76,178.6 L205.84,178.6 L209.8,201.16 L214.64,178.6 L217.04,178.6 L221.88,201.16 L221.88,201.16 Z M231.52,178.6 L242.52,178.6 L242.52,180.52 L233.68,180.52 L233.68,190.2 L241.8,190.2 L241.8,192.12 L233.68,192.12 L233.68,202.32 L242.52,202.32 L242.52,204.24 L231.52,204.24 L231.52,178.6 L231.52,178.6 Z M253.96,185.36 C253.96,180.6 255.96,178.16 260.6,178.16 C262.08,178.16 264.12,178.48 265.2,178.84 L264.88,180.68 C263.514934,180.284638 262.101165,180.082671 260.68,180.08 C257.44,180.08 256.12,181.48 256.12,185.44 L256.12,197.44 C256.12,201.4 257.44,202.8 260.68,202.8 C262.24,202.8 263.6,202.52 264.88,202.16 L265.2,204 C264.12,204.4 262.08,204.68 260.6,204.68 C255.96,204.68 253.96,202.24 253.96,197.48 L253.96,185.36 L253.96,185.36 Z M269.36,178.6 L280.36,178.6 L280.36,180.52 L271.52,180.52 L271.52,190.2 L279.64,190.2 L279.64,192.12 L271.52,192.12 L271.52,202.32 L280.36,202.32 L280.36,204.24 L269.36,204.24 L269.36,178.6 L269.36,178.6 Z M284.76,178.6 L287,178.6 L296.44,200.16 L296.44,178.6 L298.48,178.6 L298.48,204.28 L296.24,204.28 L286.8,182.72 L286.8,204.28 L284.76,204.28 L284.76,178.6 Z M307.48,180.52 L302.16,180.52 L302.16,178.6 L314.96,178.6 L314.96,180.52 L309.64,180.52 L309.64,204.24 L307.48,204.24 L307.48,180.52 Z M331.4,187.36 C331.4,190.16 330.16,192.24 327.56,193.04 L332.6,204.28 L330.24,204.28 L325.48,193.28 L320.8,193.28 L320.8,204.28 L318.64,204.28 L318.64,178.6 L325.76,178.6 C329.84,178.6 331.4,180.76 331.4,184.52 L331.4,187.36 L331.4,187.36 Z M329.24,184.56 C329.24,181.68 328.28,180.56 325.6,180.56 L320.8,180.56 L320.8,191.4 L325.4,191.4 C328.04,191.4 329.24,190.2 329.24,187.4 L329.24,184.56 Z M349.72,178.6 L349.72,197.88 C349.72,202.28 347.52,204.72 343,204.72 C338.48,204.72 336.28,202.24 336.28,197.88 L336.28,178.6 L338.44,178.6 L338.44,198 C338.44,201.6 339.92,202.8 343,202.8 C346.08,202.8 347.56,201.56 347.56,198 L347.56,178.6 L349.72,178.6 Z M355.28,178.6 L357.72,178.6 L363.68,195.8 L369.64,178.6 L372.08,178.6 L372.68,204.28 L370.64,204.28 L370.24,182.2 L364.8,197.92 L362.48,197.92 L357.04,182.2 L356.64,204.28 L354.6,204.28 L355.28,178.6 Z M385.2,178.6 L387.36,178.6 L387.36,204.28 L385.2,204.28 L385.2,178.6 Z M387.92,191.2 L395.48,178.6 L397.96,178.6 L390.28,191.2 L398.2,204.28 L395.72,204.28 L387.92,191.2 Z M400.52,185.4 C400.52,180.84 402.56,178.16 407.32,178.16 C412.08,178.16 414.16,180.84 414.16,185.4 L414.16,197.48 C414.16,202.04 412,204.72 407.32,204.72 C402.64,204.72 400.52,202.04 400.52,197.48 L400.52,185.4 Z M407.36,202.8 C410.64,202.8 412.04,201.2 412.04,197.68 L412.04,185.4 C412.04,181.68 410.76,180.08 407.36,180.08 C403.96,180.08 402.68,181.68 402.68,185.4 L402.68,197.68 C402.68,201.2 404.08,202.8 407.36,202.8 Z M419.12,178.6 L421.36,178.6 L430.8,200.16 L430.8,178.6 L432.84,178.6 L432.84,204.28 L430.6,204.28 L421.16,182.72 L421.16,204.28 L419.12,204.28 L419.12,178.6 Z M437.8,185.64 C437.8,180.52 440,178.12 445.32,178.12 C447,178.12 448.8,178.36 450.36,178.88 L450.08,180.76 C448.6,180.32 447,180.04 445.32,180.04 C441.4,180.04 439.96,181.44 439.96,185.72 L439.96,197.36 C439.96,201.08 441.04,202.84 445.04,202.84 C446,202.84 447.32,202.72 448.28,202.56 L448.28,192.8 L450.36,192.8 L450.36,204 C448.76,204.48 446.64,204.72 444.88,204.72 C439.92,204.72 437.8,202.04 437.8,197.48 L437.8,185.64 L437.8,185.64 Z M468.28,187.36 C468.28,190.16 467.04,192.24 464.44,193.04 L469.48,204.28 L467.12,204.28 L462.36,193.28 L457.68,193.28 L457.68,204.28 L455.52,204.28 L455.52,178.6 L462.64,178.6 C466.72,178.6 468.28,180.76 468.28,184.52 L468.28,187.36 Z M466.12,184.56 C466.12,181.68 465.16,180.56 462.48,180.56 L457.68,180.56 L457.68,191.4 L462.28,191.4 C464.92,191.4 466.12,190.2 466.12,187.4 L466.12,184.56 Z M473.48,178.6 L484.48,178.6 L484.48,180.52 L475.64,180.52 L475.64,190.2 L483.76,190.2 L483.76,192.12 L475.64,192.12 L475.64,202.32 L484.48,202.32 L484.48,204.24 L473.48,204.24 L473.48,178.6 L473.48,178.6 Z M492.72,204.72 C491.52,204.72 489.32,204.44 488,203.92 L488.36,201.96 C489.72,202.44 491.12,202.76 492.84,202.76 C496.28,202.76 497.28,201 497.28,198.04 C497.28,194.16 496.68,193.4 493.08,191.84 C488.4,189.8 487.72,188.32 487.72,184.68 C487.72,179.92 489.76,178.16 494.04,178.16 C496.08,178.16 497.88,178.6 498.84,179.04 L498.52,180.92 C497.16,180.48 495.6,180.08 493.96,180.08 C490.64,180.08 489.84,181.36 489.84,184.6 C489.84,187.8 490.24,188.08 493.76,189.8 C498.32,192 499.4,193.08 499.4,197.88 C499.4,202.2 497.28,204.72 492.72,204.72 Z M503,185.4 C503,180.84 505.04,178.16 509.8,178.16 C514.56,178.16 516.64,180.84 516.64,185.4 L516.64,197.48 C516.64,202.04 514.48,204.72 509.8,204.72 C505.12,204.72 503,202.04 503,197.48 L503,185.4 L503,185.4 Z M509.84,202.8 C513.12,202.8 514.52,201.2 514.52,197.68 L514.52,185.4 C514.52,181.68 513.24,180.08 509.84,180.08 C506.44,180.08 505.16,181.68 505.16,185.4 L505.16,197.68 C505.16,201.2 506.56,202.8 509.84,202.8 L509.84,202.8 Z M537.76,201.16 L541.72,178.6 L543.8,178.6 L538.96,204.28 L536.6,204.28 L531.72,181.04 L526.84,204.28 L524.48,204.28 L519.64,178.6 L521.72,178.6 L525.68,201.16 L530.52,178.6 L532.92,178.6 L537.76,201.16 L537.76,201.16 Z M547.4,178.6 L558.4,178.6 L558.4,180.52 L549.56,180.52 L549.56,190.2 L557.68,190.2 L557.68,192.12 L549.56,192.12 L549.56,202.32 L558.4,202.32 L558.4,204.24 L547.4,204.24 L547.4,178.6 L547.4,178.6 Z" id="Shape" fill="#030303"></path>
            <polygon id="Path" fill="#C1CD49" points="165.76 72.92 124.88 142.88 41.44 0"></polygon>
            <polygon id="Path" fill="#C1CD49" points="555.64 0 441.16 162 441.16 84.76"></polygon>
            <polygon id="Path" fill="#C1CD49" points="290.04 39.16 248.6 164.08 310.76 123.96"></polygon>
        </g>
    </g>
</svg>