<?xml version="1.0" encoding="utf-8"?>
<!-- Generator: Adobe Illustrator 18.0.0, SVG Export Plug-In . SVG Version: 6.00 Build 0)  -->
<!DOCTYPE svg PUBLIC "-//W3C//DTD SVG 1.1//EN" "http://www.w3.org/Graphics/SVG/1.1/DTD/svg11.dtd">
<svg version="1.1" id="Слой_1_copy" xmlns="http://www.w3.org/2000/svg" xmlns:xlink="http://www.w3.org/1999/xlink" x="0px"
	 y="0px" viewBox="0 0 2000 1500" enable-background="new 0 0 2000 1500" xml:space="preserve">
<path fill="#3401F9" d="M925.6,706l32.9,51.8h-24.9l-31.2-50.5h-12.6v50.5h-20.4V633.6h43c14.1,0,24.9,3.5,32.7,10.6
	c7.5,7,11.6,15.8,11.6,26.6c0,8.3-2.5,15.8-7.5,22.6C944,699.5,936.2,704,925.6,706L925.6,706z M929.9,654.7
	c-3.8-3.8-9.6-5.5-17.3-5.5h-22.6v42h22.6c7.8,0,13.6-1.8,17.3-5.5s5.8-8.8,5.8-15.6C935.7,663.5,933.7,658.5,929.9,654.7
	L929.9,654.7z M1072.4,715.3h-75.6c0.5,8.3,3.3,14.8,8.3,19.6c5,4.8,11.3,7.3,19.1,7.3c11.1,0,18.8-4.5,23.4-13.8h22.1
	c-3,9-8.3,16.6-16.3,22.4c-7.8,5.8-17.6,8.8-29.2,8.8c-14.3,0-25.9-4.5-34.9-13.8c-9-9.3-13.3-21.6-13.3-36.9s4.5-27.6,13.6-36.9
	c9-9.3,20.9-13.8,35.2-13.8c14.3,0,26.1,4.5,34.9,13.3c9,8.8,13.3,20.4,13.3,34.7C1073.1,709,1072.9,712.3,1072.4,715.3
	L1072.4,715.3z M1043.7,681.9c-5.3-4.8-11.6-7.3-19.1-7.3s-13.8,2.5-18.8,7.3c-5,4.8-8,11.3-8.8,19.4h54.8
	C1051.8,693.2,1049,686.7,1043.7,681.9L1043.7,681.9z M1167.1,757.5v-18.3c-3.3,6-8,11.1-13.8,14.6c-5.8,3.5-12.6,5.5-20.4,5.5
	c-13.1,0-24.1-4.8-33.2-14.3c-9-9.6-13.3-21.9-13.3-36.9s4.5-27.1,13.3-36.4c8.8-9.3,19.9-14.1,33.2-14.1c7.8,0,14.6,1.8,20.6,5.3
	c6,3.5,10.6,8,13.6,13.8V659h20.6v98.5H1167.1L1167.1,757.5z M1158.3,684.2c-6-6-12.8-9-21.1-9c-8,0-15.1,3-21.1,8.8
	c-6,5.8-8.8,13.8-8.8,23.9c0,10.1,3,18.3,8.8,24.4c6,6,12.8,9.3,21.1,9.3c8,0,15.1-3,21.1-9c6-6,8.8-14.1,8.8-24.1
	S1164.1,690.2,1158.3,684.2L1158.3,684.2z M1256.1,674.6c-8.3,0-15.1,3-19.9,8.8c-5,5.8-7.5,14.1-7.5,24.9c0,10.6,2.5,18.8,7.5,24.9
	c5,6,11.6,9,19.9,9c11.8,0,19.6-5.3,23.4-15.6h22.1c-2.8,10.1-8.3,18.1-16.1,23.9c-7.8,5.8-17.6,8.8-29.4,8.8
	c-14.3,0-25.9-4.5-34.9-13.8c-9-9.3-13.3-21.6-13.3-36.9c0-15.3,4.5-27.6,13.6-36.9s20.6-13.8,34.9-13.8c11.8,0,21.9,2.8,29.7,8.5
	c7.8,5.8,13.1,13.8,15.8,24.1h-22.1C1275.9,679.9,1267.9,674.6,1256.1,674.6L1256.1,674.6z M1348.3,738.2c1.8,1.5,4.8,2.5,8.8,2.5
	h12.6v17.1h-16.1c-19.1,0-28.4-9-28.4-27.4v-54.5h-11.6v-16.6h11.6v-24.4h20.6v24.4h23.9v16.6h-23.9v54.5
	C1345.8,733.9,1346.6,736.7,1348.3,738.2L1348.3,738.2z M1477.3,741.2c-12.1,11.1-27.9,16.6-48,16.6h-40.7V633.6h40.7
	c20.1,0,36.2,5.5,48,16.8c12.1,11.3,18.1,26.4,18.1,45.5S1489.3,730.1,1477.3,741.2L1477.3,741.2z M1462.7,662
	c-7.8-8-18.8-12.3-33.4-12.3h-20.4V742h20.4c14.3,0,25.6-4,33.4-12.3c7.8-8.3,11.8-19.6,11.8-33.9
	C1474.2,681.4,1470.5,670.3,1462.7,662L1462.7,662z M1589.3,757.5v-18.3c-3.3,6-8,11.1-13.8,14.6c-5.8,3.5-12.6,5.5-20.4,5.5
	c-13.1,0-24.1-4.8-33.2-14.3c-9-9.6-13.3-21.9-13.3-36.9s4.5-27.1,13.3-36.4c8.8-9.3,19.9-14.1,33.2-14.1c7.8,0,14.6,1.8,20.6,5.3
	c6,3.5,10.6,8,13.6,13.8V659h20.6v98.5H1589.3L1589.3,757.5z M1580.5,684.2c-6-6-12.8-9-21.1-9c-8,0-15.1,3-21.1,8.8
	c-6,5.8-8.8,13.8-8.8,23.9c0,10.1,3,18.3,8.8,24.4c6,6,12.8,9.3,21.1,9.3c8,0,15.1-3,21.1-9s8.8-14.1,8.8-24.1
	S1586.6,690.2,1580.5,684.2L1580.5,684.2z M1665.2,804h-21.1l20.1-48l-39-97h22.6l27.6,75.1l28.9-75.1h21.1L1665.2,804L1665.2,804z
	 M885.9,968.6c-2.5,2.3-5.3,3.5-8.8,3.5c-3.5,0-6.3-1.3-8.8-3.5c-2.3-2.3-3.5-5.3-3.5-8.8c0-3.5,1.3-6.3,3.5-8.8
	c2.3-2.3,5.3-3.5,8.8-3.5c3.5,0,6.3,1.3,8.8,3.5c2.3,2.3,3.5,5.3,3.5,8.8C889.4,963.6,888.2,966.4,885.9,968.6L885.9,968.6z
	 M999.5,959.3c-8.8,9.6-19.9,14.3-32.9,14.3c-7.8,0-14.6-1.8-20.4-5.5c-5.8-3.5-10.6-8.5-14.1-14.6v18.3h-20.4V839.7h20.4V891
	c3.3-5.8,8-10.3,13.8-13.8c6-3.5,12.8-5.3,20.6-5.3c13.3,0,24.4,4.8,33.2,14.1c8.8,9.3,13.3,21.6,13.3,36.4
	C1012.8,937.5,1008.3,949.8,999.5,959.3L999.5,959.3z M983.2,898.5c-6-5.8-13.1-8.8-21.1-8.8c-8.3,0-15.3,3-21.1,9
	c-6,6-8.8,14.1-8.8,24.1c0,10.1,3,18.1,8.8,24.1c6,6,12.8,9,21.1,9c8,0,15.1-3,21.1-9.3c6-6,9-14.3,9-24.4
	C992,912.4,988.9,904.3,983.2,898.5L983.2,898.5z M1122.6,929.9H1047c0.5,8.3,3.3,14.8,8.3,19.6c5,4.8,11.3,7.3,19.1,7.3
	c11.1,0,18.8-4.5,23.4-13.8h22.1c-3,9-8.3,16.6-16.3,22.4c-7.8,5.8-17.6,8.8-29.2,8.8c-14.3,0-25.9-4.8-34.9-13.8
	c-9-9.3-13.3-21.6-13.3-36.9c0-15.3,4.5-27.6,13.6-36.9c9-9.3,20.9-13.8,35.2-13.8c14.3,0,26.1,4.5,34.9,13.3
	c9,8.8,13.3,20.4,13.3,34.7C1123.4,923.7,1123.1,926.9,1122.6,929.9L1122.6,929.9z M1094,896.5c-5.3-4.8-11.6-7.3-19.1-7.3
	s-13.8,2.5-18.8,7.3c-5,4.8-8,11.3-8.8,19.4h54.8C1102,907.8,1099.3,901.3,1094,896.5L1094,896.5z M1188.2,893.3c-8,0-14.1,2-18.1,6
	c-4,4-6.3,11.1-6.3,21.1v51.8h-20.4v-98.5h20.4v17.1c6.3-12.6,16.1-18.8,29.7-18.8V893h-5.3V893.3z M1212.1,972.2V840h20.4v132.2
	H1212.1L1212.1,972.2z M1279,856.8c-2.5,2.5-5.5,3.8-9.3,3.8c-3.5,0-6.8-1.3-9.3-3.8c-2.5-2.5-3.8-5.5-3.8-9.3
	c0-3.8,1.3-6.8,3.8-9.3c2.5-2.5,5.5-3.8,9.3-3.8c3.5,0,6.8,1.3,9.3,3.8s3.8,5.5,3.8,9.3C1282.7,851.3,1281.5,854.3,1279,856.8
	L1279,856.8z M1280,972.2h-20.4v-98.5h20.4V972.2L1280,972.2z M1376.7,972.2v-55c0-8.8-2.3-15.6-6.5-20.4c-4.5-4.8-10.6-7-18.1-7
	c-7.5,0-13.6,2.3-18.1,7c-4.5,4.8-6.8,11.6-6.8,20.4v55h-20.4v-98.5h20.4v15.6c6.5-11.6,17.1-17.1,31.4-17.1
	c11.1,0,20.4,3.8,27.4,11.1c7.3,7.3,10.8,17.6,10.8,30.9v58.1H1376.7L1376.7,972.2z"/>
<path fill="#3401F9" d="M680.6,884c-3,1-6,2-9.3,2.8c1,4.5,2.3,8.8,3,13.1c11.3,56,2.5,102-24.4,117.1c-21.9,12.3-55.3,4-90.7-20.4
	l-0.3-7.3l-0.5-19.4c34.4,27.4,65.6,37.4,80.7,28.9c7.5-4.3,13.3-14.6,16.3-30.4c3.3-17.6,2.5-40-2.5-64.6
	c-0.8-3.8-1.8-7.8-2.8-11.8c-20.9,4.8-43.7,8-67.9,10.3c-8.3,11.6-16.6,22.6-25.1,32.9l-1.5-52c5-0.3,9.8-0.5,14.6-0.8
	c8.5-12.3,16.3-25.1,24.1-37.9c7.5-13.1,14.8-26.1,21.6-39.7c-6.8-13.3-14.1-26.4-21.6-39.2c-7.5-12.8-15.6-25.4-24.1-37.7
	c-4.8-0.3-9.8-0.8-14.6-1v-0.8c0-5.3-1.5-10.3-4-14.8c2.5-3.3,4-7.3,4-11.8c0-6-2.8-11.3-7-14.8l-0.8-19.9
	c11.6,12.8,23.1,27.1,34.2,42.7c23.6,2.3,46.2,5.8,67.1,10.3c0.8-3.3,1.5-6.5,2.3-9.8c10.6-50,4-88.2-12.8-97.5
	c-15.8-8.8-50.3,3.5-87.5,34.9c-1.3,1-2.5,2.3-4,3.5l-1-26.6c40-31.2,78.7-43.5,103-29.9c27.4,15.3,35.2,62.1,23.1,119.9
	c-0.8,3.5-1.5,7.3-2.5,10.8c5.5,1.5,10.8,3.3,16.1,5c54,18.1,89.2,46.7,89.2,76.1C775.6,835.2,738.1,865.4,680.6,884L680.6,884z
	 M613.5,854.8c-5,8.3-10.1,16.6-15.3,24.9c16.6-2,32.2-4.5,46.7-7.8c-4.5-13.8-10.1-28.1-16.8-43
	C623.3,837.7,618.5,846.3,613.5,854.8L613.5,854.8z M598.1,730.4c5.3,8,10.3,16.3,15.3,24.4c5,8.3,9.8,16.8,14.3,25.4
	c6.3-14.6,11.8-28.7,16.1-42.2C629.3,735.2,614,732.4,598.1,730.4L598.1,730.4z M679.3,748c-4.8-1.5-9.8-3.3-14.8-4.5
	c-6.3,19.6-14.3,40-24.4,61.1c10.6,21.6,19.1,42.5,25.4,62.1c2.8-0.8,5.8-1.8,8.3-2.5l0,0c49.5-16.1,80.2-40.7,80.2-59.6
	C754.2,786.7,725.8,763.6,679.3,748L679.3,748z M501.9,648.7c-38.7-33.4-75.4-46.7-92.2-37.2c-15.8,8.8-22.1,44.5-12.6,91.5
	c1,5,2.3,10.1,3.5,15.1c20.9-4.5,43.2-8,66.9-10.1c11.1-15.1,22.4-29.2,33.7-42l-0.8,19.1c-4,3.5-6.8,8.8-6.8,14.6
	c0,4.3,1.5,8.5,4,11.8c-0.3,0.5-0.5,1-0.8,1.3c-2.3,4.3-3.3,8.8-3.3,13.6v0.8c-4.8,0.3-9.8,0.5-14.6,1
	c-8.5,12.3-16.6,24.9-24.4,37.7l0,0c-7.5,12.8-14.8,26.1-21.4,39.5c6.5,13.3,13.8,26.6,21.4,39.5c7.8,13.1,15.8,25.6,24.6,37.9
	c4.5,0.3,9,0.5,13.8,0.8l-1.5,50.3c-8.3-9.8-16.3-20.1-24.1-30.9c-24.4-2-47-5-67.6-9.6c-1.3,5.3-2.5,10.8-3.8,16.3
	c-9,46-2.5,80.4,13.3,89.5c7.5,4.3,19.6,4,35.2-1.3l0,0c14.1-4.8,29.9-13.6,45.7-25.9l-0.5,17.8l-0.3,8.5
	c-35.4,23.4-69.1,31.2-91,18.8c-26.1-14.6-34.2-57.6-23.9-111.3c1.3-5.8,2.5-11.8,4-17.6c-4.5-1.3-9-2.8-13.6-4
	c-55.3-18.3-91.7-48.8-91.7-79.2c0-29.4,33.9-57.8,87-75.6c6-2,12.1-4,18.6-5.8c-1.3-5.3-2.5-10.8-3.8-16.3
	c-11.1-54.8-3.3-98.8,22.9-113.6c24.4-13.8,63.3-2,103.8,28.9V648.7L501.9,648.7z M436.3,755c5-8.3,10.1-16.6,15.3-24.6
	c-15.8,2-31.2,4.5-45.5,7.5c4.3,13.8,9.8,27.9,15.8,42.5C426.7,771.9,431.5,763.3,436.3,755L436.3,755z M452.1,880.2
	c-5.5-8.3-10.8-16.6-15.8-25.1c-5-8.3-9.8-16.8-14.3-25.4c-6.3,14.8-11.8,29.2-16.3,43.2C420.2,875.9,435.8,878.2,452.1,880.2
	L452.1,880.2z M385.5,743.2c-5.8,1.5-11.6,3.3-17.3,5.3c-45.5,15.3-72.6,38.2-72.6,56c0,8.3,6.3,18.6,18.6,29.2
	c13.8,11.6,33.9,22.1,58.6,30.4c4,1.3,8.3,2.5,12.3,3.8c6.3-20.1,14.6-41.2,24.6-62.6C400.1,783.9,391.8,763.1,385.5,743.2
	L385.5,743.2z M560.4,805c0,14.6-9.3,27.1-22.4,32.2l0.3,7.8h3.3c2.3,0,3.8,1.8,3.8,3.8v4.3c0,2-1.8,3.8-3.8,3.8h-2.8l3,112.3
	l1,22.4c-5.3-1.5-11.6-2.5-18.3-2.5c-6.8,0-13.1,0.8-18.3,2.3l1-22.4l3-112.3h-2.5c-2,0-3.8-1.8-3.8-3.8v-4.3c0-2,1.8-3.8,3.8-3.8h3
	l0.3-8c-12.8-5.3-22.1-17.6-22.1-32.2c0-15.3,10.3-28.4,24.4-32.9l0.3-4h-6c-2,0-3.8-1.8-3.8-3.8v-4.3c0-2,1.8-3.8,3.8-3.8h2.3v-3.3
	v-7.8v-6.5v-4.5v-6.5c0-4.5,2.3-8.5,5.5-11.3l0.5-12.1h-2.5c-2,0-3.5-1.5-3.5-3.5c0-1.8,1.5-3.5,3.5-3.5h2.8l8.3-220.2l8.3,220.2h3
	c2,0,3.5,1.5,3.5,3.5c0,2-1.5,3.5-3.5,3.5h-2.8l0.5,11.8c0.3,0.3,0.8,0.5,1,0.8c3,2.5,4.8,6.5,4.8,10.6v11.1v14.3v0.3v3h2.3
	c2.3,0,3.8,1.8,3.8,3.8v4.3c0,2-1.8,3.8-3.8,3.8h-6l0.3,4C550.1,776.4,560.4,789.5,560.4,805L560.4,805z"/>
</svg>
