<?xml version="1.0" encoding="UTF-8"?>
<svg id="a" data-name="Warstwa 1" xmlns="http://www.w3.org/2000/svg" xmlns:xlink="http://www.w3.org/1999/xlink" viewBox="0 0 1290.64 466.58">
  <defs>
    <style>
      .c, .d, .e, .f {
        stroke-width: 0px;
      }

      .d {
        fill: url(#b);
      }

      .e {
        fill: #7f7f7f;
      }

      .f {
        fill: #fff;
      }
    </style>
    <linearGradient id="b" data-name="Gradient bez nazwy 14" x1="585.27" y1="357.15" x2="1251.21" y2="-27.34" gradientUnits="userSpaceOnUse">
      <stop offset="0" stop-color="#0871c4"/>
      <stop offset=".67" stop-color="#0660a8"/>
      <stop offset="1" stop-color="#065899"/>
    </linearGradient>
  </defs>
  <path class="d" d="m630.49,4h638.81v246.09c0,51.15-41.53,92.67-92.67,92.67h-546.14c-51.15,0-92.67-41.53-92.67-92.67V96.67c0-51.15,41.53-92.67,92.67-92.67Z"/>
  <g>
    <path class="c" d="m62.05,251.97c-2.49,0-4.73-.7-6.72-2.12-1.99-1.41-3.4-3.19-4.23-5.35L13.5,131.72c-1.16-4.81-1.08-8.67.25-11.58,1.33-2.9,4.15-4.36,8.46-4.36,2.82,0,5.19.75,7.1,2.24,1.91,1.49,3.44,3.98,4.61,7.47l32.61,101.07h-7.47l30.37-102.07c.83-2.65,2.16-4.77,3.98-6.35,1.82-1.58,4.31-2.37,7.47-2.37,2.99,0,5.43.79,7.34,2.37,1.91,1.58,3.19,3.7,3.86,6.35l26.64,97.59h-3.98l31.12-96.59c1.99-6.47,5.81-9.71,11.45-9.71,4.31,0,7.22,1.54,8.71,4.61,1.49,3.07,1.41,6.85-.25,11.33l-37.59,112.77c-.67,2.16-1.95,3.94-3.86,5.35-1.91,1.41-4.19,2.12-6.85,2.12-2.33,0-4.57-.7-6.72-2.12-2.16-1.41-3.48-3.19-3.98-5.35l-27.88-98.33h2.74l-28.63,98.33c-.67,2.16-2.03,3.94-4.11,5.35-2.08,1.41-4.36,2.12-6.85,2.12Z"/>
    <path class="c" d="m271.66,252.96c-13.78,0-25.93-2.95-36.47-8.84-10.54-5.89-18.8-14.02-24.77-24.4-5.98-10.37-8.96-22.28-8.96-35.72s2.82-25.6,8.46-35.97c5.64-10.37,13.44-18.5,23.4-24.4,9.96-5.89,21.49-8.84,34.6-8.84s23.81,2.86,33.11,8.59c9.29,5.73,16.43,13.61,21.41,23.65,4.98,10.04,7.47,21.62,7.47,34.73,0,2.82-.96,5.19-2.86,7.1-1.91,1.91-4.44,2.86-7.59,2.86h-102.32v-18.42h102.57l-10.21,7.22c-.17-8.79-1.91-16.68-5.23-23.65-3.32-6.97-8.05-12.45-14.19-16.43-6.14-3.98-13.53-5.97-22.16-5.97-9.46,0-17.64,2.16-24.52,6.47-6.89,4.32-12.16,10.21-15.81,17.68-3.65,7.47-5.48,15.93-5.48,25.39s2.12,17.89,6.35,25.27c4.23,7.39,10.04,13.24,17.43,17.55,7.38,4.32,15.97,6.47,25.77,6.47,5.31,0,10.83-1,16.56-2.99,5.73-1.99,10.25-4.31,13.57-6.97,2.32-1.82,4.81-2.78,7.47-2.86,2.65-.08,4.98.71,6.97,2.37,2.49,2.33,3.82,4.85,3.98,7.59.16,2.74-1,5.1-3.49,7.1-5.64,4.48-12.66,8.18-21.04,11.08-8.38,2.91-16.39,4.36-24.02,4.36Z"/>
    <path class="c" d="m430.99,252.96c-12.95,0-24.61-2.99-34.98-8.96-10.37-5.97-18.55-14.19-24.52-24.65-5.97-10.46-9.05-22.16-9.21-35.1v-115.26c0-3.49,1.08-6.26,3.24-8.34,2.15-2.07,4.89-3.11,8.21-3.11,3.49,0,6.26,1.04,8.34,3.11,2.07,2.08,3.11,4.85,3.11,8.34v69.71c5.81-7.3,12.94-13.11,21.41-17.43,8.46-4.31,17.92-6.47,28.38-6.47,12.28,0,23.32,3.03,33.11,9.09,9.79,6.06,17.55,14.28,23.28,24.65,5.73,10.37,8.59,22.12,8.59,35.23s-3.03,24.89-9.09,35.35c-6.06,10.46-14.28,18.71-24.65,24.77-10.37,6.06-22.12,9.09-35.23,9.09Zm0-20.41c8.79,0,16.72-2.12,23.78-6.35,7.05-4.23,12.61-10.04,16.68-17.43,4.07-7.38,6.1-15.72,6.1-25.02s-2.03-17.59-6.1-24.9c-4.07-7.3-9.63-13.07-16.68-17.3-7.06-4.23-14.98-6.35-23.78-6.35s-16.72,2.12-23.77,6.35c-7.06,4.23-12.57,10-16.56,17.3-3.98,7.31-5.97,15.6-5.97,24.9s1.99,17.64,5.97,25.02c3.98,7.39,9.5,13.19,16.56,17.43,7.05,4.23,14.97,6.35,23.77,6.35Z"/>
  </g>
  <g>
    <path class="f" d="m643.54,253.06c-2.49,0-4.73-.7-6.72-2.12-1.99-1.41-3.4-3.19-4.23-5.35l-37.59-112.77c-1.16-4.81-1.08-8.67.25-11.58,1.33-2.9,4.15-4.36,8.46-4.36,2.82,0,5.19.75,7.1,2.24,1.91,1.49,3.44,3.98,4.61,7.47l32.61,101.07h-7.47l30.37-102.07c.83-2.65,2.16-4.77,3.98-6.35,1.82-1.58,4.31-2.37,7.47-2.37,2.99,0,5.43.79,7.34,2.37,1.91,1.58,3.19,3.7,3.86,6.35l26.64,97.59h-3.98l31.12-96.59c1.99-6.47,5.81-9.71,11.45-9.71,4.31,0,7.22,1.54,8.71,4.61,1.49,3.07,1.41,6.85-.25,11.33l-37.59,112.77c-.67,2.16-1.95,3.94-3.86,5.35-1.91,1.41-4.19,2.12-6.85,2.12-2.33,0-4.57-.7-6.72-2.12-2.16-1.41-3.48-3.19-3.98-5.35l-27.88-98.33h2.74l-28.63,98.33c-.67,2.16-2.04,3.94-4.11,5.35-2.08,1.41-4.36,2.12-6.85,2.12Z"/>
    <path class="f" d="m806.1,253.06c-3.49,0-6.22-.95-8.22-2.86-1.99-1.91-2.99-4.69-2.99-8.34v-113.77c0-3.48,1-6.22,2.99-8.21,1.99-1.99,4.73-2.99,8.22-2.99,3.82,0,6.68.96,8.59,2.86,1.91,1.91,2.86,4.69,2.86,8.34v113.77c0,3.48-.96,6.22-2.86,8.21-1.91,1.99-4.77,2.99-8.59,2.99Zm-.75-84.64c.33-10.12,2.94-19.17,7.84-27.14,4.89-7.97,11.41-14.27,19.54-18.92,8.13-4.64,17.09-6.97,26.89-6.97,9.12,0,15.97,1.41,20.54,4.23,4.56,2.82,6.26,6.39,5.1,10.7-.5,2.49-1.49,4.27-2.99,5.35-1.49,1.08-3.24,1.66-5.23,1.74-1.99.09-4.15-.04-6.47-.37-10.12-1.66-19.17-1.41-27.13.75-7.97,2.16-14.28,5.89-18.92,11.2-4.65,5.31-6.97,11.79-6.97,19.42h-12.2Z"/>
    <path class="f" d="m927.59,93.23c-4.15,0-7.72-1.49-10.7-4.48-2.99-2.99-4.48-6.64-4.48-10.95s1.53-7.92,4.61-10.83c3.07-2.9,6.68-4.36,10.83-4.36s7.51,1.45,10.58,4.36c3.07,2.91,4.61,6.52,4.61,10.83s-1.49,7.97-4.48,10.95-6.64,4.48-10.95,4.48Zm.25,159.82c-3.49,0-6.31-1.08-8.46-3.24-2.16-2.16-3.24-4.89-3.24-8.21v-113.27c0-3.49,1.08-6.26,3.24-8.34,2.15-2.07,4.98-3.11,8.46-3.11s6.06,1.04,8.22,3.11c2.15,2.08,3.24,4.85,3.24,8.34v113.27c0,3.32-1.08,6.06-3.24,8.21-2.16,2.16-4.9,3.24-8.22,3.24Z"/>
    <path class="f" d="m980.12,141.53c-2.99,0-5.48-.91-7.47-2.74-1.99-1.82-2.99-4.15-2.99-6.97,0-2.99,1-5.39,2.99-7.22,1.99-1.82,4.48-2.74,7.47-2.74h60c2.99,0,5.48.91,7.47,2.74,1.99,1.83,2.99,4.23,2.99,7.22,0,2.82-1,5.15-2.99,6.97-1.99,1.83-4.48,2.74-7.47,2.74h-60Zm58,111.53c-8.46,0-16.1-2.12-22.9-6.35-6.81-4.23-12.12-9.96-15.93-17.18-3.82-7.22-5.73-15.47-5.73-24.77v-119.74c0-3.32,1.03-6.06,3.11-8.21,2.07-2.16,4.77-3.24,8.09-3.24s6.06,1.08,8.22,3.24c2.15,2.16,3.24,4.9,3.24,8.21v119.74c0,7.47,2.07,13.61,6.22,18.42,4.15,4.82,9.37,7.22,15.68,7.22h7.72c2.82,0,5.18,1.08,7.09,3.24,1.91,2.16,2.86,4.9,2.86,8.22s-1.21,6.02-3.61,8.09c-2.41,2.08-5.52,3.11-9.34,3.11h-4.73Z"/>
    <path class="f" d="m1150.14,254.05c-13.78,0-25.93-2.95-36.47-8.84-10.54-5.89-18.8-14.02-24.77-24.4-5.97-10.37-8.96-22.28-8.96-35.72s2.82-25.6,8.46-35.97c5.64-10.37,13.44-18.5,23.4-24.4,9.96-5.89,21.49-8.84,34.6-8.84s23.81,2.86,33.11,8.59c9.29,5.73,16.43,13.61,21.41,23.65,4.98,10.04,7.47,21.62,7.47,34.73,0,2.82-.96,5.19-2.86,7.1-1.91,1.91-4.44,2.86-7.59,2.86h-102.32v-18.42h102.57l-10.21,7.22c-.17-8.79-1.91-16.68-5.23-23.65-3.32-6.97-8.05-12.45-14.19-16.43-6.14-3.98-13.53-5.97-22.16-5.97-9.46,0-17.64,2.16-24.52,6.47-6.89,4.32-12.16,10.21-15.81,17.68-3.65,7.47-5.48,15.93-5.48,25.39s2.12,17.89,6.35,25.27c4.23,7.39,10.04,13.24,17.43,17.55,7.38,4.32,15.97,6.47,25.77,6.47,5.31,0,10.83-1,16.55-2.99,5.73-1.99,10.25-4.31,13.57-6.97,2.32-1.82,4.81-2.78,7.47-2.86,2.65-.08,4.98.71,6.97,2.37,2.49,2.33,3.82,4.85,3.98,7.59.16,2.74-1,5.1-3.49,7.1-5.64,4.48-12.66,8.18-21.04,11.08-8.38,2.91-16.39,4.36-24.02,4.36Z"/>
  </g>
  <g>
    <path class="e" d="m17.07,465.7c-1.18,0-2.16-.39-2.93-1.15s-1.15-1.75-1.15-2.93v-41.09c.06-4.62,1.17-8.79,3.33-12.51,2.16-3.73,5.07-6.66,8.74-8.79,3.67-2.13,7.81-3.19,12.42-3.19s8.86,1.08,12.56,3.24c3.7,2.16,6.62,5.09,8.79,8.79,2.16,3.7,3.24,7.91,3.24,12.65s-1.02,8.87-3.06,12.6c-2.04,3.73-4.81,6.66-8.3,8.79-3.49,2.13-7.43,3.19-11.8,3.19-3.73,0-7.1-.77-10.12-2.31-3.02-1.54-5.56-3.61-7.63-6.21v24.85c0,1.18-.37,2.16-1.11,2.93-.74.77-1.73,1.15-2.97,1.15Zm20.41-27.69c3.14,0,5.96-.75,8.48-2.26,2.51-1.51,4.5-3.58,5.95-6.21,1.45-2.63,2.17-5.58,2.17-8.83s-.73-6.29-2.17-8.92c-1.45-2.63-3.43-4.7-5.95-6.21-2.52-1.51-5.34-2.26-8.48-2.26s-5.96.77-8.47,2.31c-2.52,1.54-4.48,3.61-5.9,6.21-1.42,2.6-2.13,5.56-2.13,8.87s.71,6.2,2.13,8.83c1.42,2.63,3.39,4.7,5.9,6.21,2.51,1.51,5.34,2.26,8.47,2.26Z"/>
    <path class="e" d="m99.33,444.94c-1.24,0-2.22-.34-2.93-1.02-.71-.68-1.06-1.67-1.06-2.97v-40.55c0-1.24.35-2.22,1.06-2.93s1.69-1.06,2.93-1.06c1.36,0,2.38.34,3.06,1.02.68.68,1.02,1.67,1.02,2.97v40.55c0,1.24-.34,2.22-1.02,2.93-.68.71-1.7,1.06-3.06,1.06Zm-.27-30.17c.12-3.61,1.05-6.83,2.8-9.67,1.74-2.84,4.07-5.09,6.97-6.74,2.9-1.66,6.09-2.49,9.58-2.49,3.25,0,5.69.5,7.32,1.51,1.63,1.01,2.23,2.28,1.82,3.82-.18.89-.53,1.52-1.06,1.91-.53.39-1.15.59-1.86.62-.71.03-1.48-.01-2.31-.13-3.61-.59-6.83-.5-9.67.27-2.84.77-5.09,2.1-6.74,3.99-1.66,1.89-2.48,4.2-2.48,6.92h-4.35Z"/>
    <path class="e" d="m175.74,445.29c-4.73,0-8.95-1.05-12.65-3.15-3.7-2.1-6.6-5-8.7-8.7-2.1-3.7-3.15-7.94-3.15-12.73s1.05-9.12,3.15-12.82c2.1-3.7,5-6.6,8.7-8.7,3.7-2.1,7.91-3.15,12.65-3.15s8.95,1.05,12.65,3.15c3.7,2.1,6.6,5,8.7,8.7,2.1,3.7,3.18,7.97,3.24,12.82,0,4.79-1.06,9.04-3.19,12.73-2.13,3.7-5.03,6.6-8.7,8.7-3.67,2.1-7.9,3.15-12.69,3.15Zm0-7.28c3.25,0,6.12-.74,8.61-2.22,2.48-1.48,4.44-3.52,5.86-6.12,1.42-2.6,2.13-5.59,2.13-8.96s-.71-6.37-2.13-9.01c-1.42-2.63-3.37-4.69-5.86-6.17-2.48-1.48-5.35-2.22-8.61-2.22s-6.05.74-8.56,2.22c-2.52,1.48-4.48,3.54-5.9,6.17-1.42,2.63-2.13,5.63-2.13,9.01s.71,6.36,2.13,8.96c1.42,2.6,3.39,4.65,5.9,6.12,2.51,1.48,5.37,2.22,8.56,2.22Z"/>
    <path class="e" d="m220.9,465.7c-1.18,0-2.16-.39-2.93-1.15-.77-.77-1.15-1.75-1.15-2.93,0-1.24.39-2.25,1.15-3.02.77-.77,1.75-1.15,2.93-1.15,2.48,0,4.67-.55,6.57-1.64,1.89-1.1,3.4-2.59,4.53-4.48,1.12-1.89,1.69-4.05,1.69-6.48v-44.37c0-1.24.37-2.23,1.11-2.97s1.73-1.11,2.97-1.11,2.16.37,2.93,1.11c.77.74,1.15,1.73,1.15,2.97v44.37c0,4.02-.9,7.6-2.71,10.74-1.81,3.13-4.27,5.6-7.41,7.41-3.14,1.8-6.74,2.71-10.83,2.71Zm16.77-77.74c-1.48,0-2.75-.53-3.82-1.6-1.06-1.06-1.6-2.37-1.6-3.9s.55-2.82,1.64-3.86c1.09-1.03,2.38-1.55,3.86-1.55s2.68.52,3.77,1.55c1.09,1.04,1.64,2.32,1.64,3.86s-.53,2.84-1.6,3.9c-1.06,1.07-2.37,1.6-3.9,1.6Z"/>
    <path class="e" d="m297.67,445.29c-4.91,0-9.24-1.05-13-3.15-3.76-2.1-6.7-5-8.83-8.7-2.13-3.7-3.19-7.94-3.19-12.73s1.01-9.12,3.02-12.82c2.01-3.7,4.79-6.6,8.34-8.7,3.55-2.1,7.66-3.15,12.33-3.15s8.49,1.02,11.8,3.06c3.31,2.04,5.86,4.85,7.63,8.43,1.77,3.58,2.66,7.71,2.66,12.38,0,1.01-.34,1.85-1.02,2.53-.68.68-1.58,1.02-2.71,1.02h-36.47v-6.57h36.56l-3.64,2.57c-.06-3.13-.68-5.95-1.86-8.43-1.18-2.48-2.87-4.44-5.06-5.86-2.19-1.42-4.82-2.13-7.9-2.13-3.37,0-6.29.77-8.74,2.31-2.46,1.54-4.33,3.64-5.63,6.3-1.3,2.66-1.95,5.68-1.95,9.05s.75,6.38,2.26,9.01c1.51,2.63,3.58,4.72,6.21,6.26,2.63,1.54,5.69,2.31,9.18,2.31,1.89,0,3.86-.36,5.9-1.07s3.65-1.54,4.84-2.48c.83-.65,1.72-.99,2.66-1.02.95-.03,1.77.25,2.48.84.89.83,1.36,1.73,1.42,2.71.06.98-.35,1.82-1.24,2.53-2.01,1.6-4.51,2.92-7.5,3.95-2.99,1.04-5.84,1.55-8.56,1.55Z"/>
    <path class="e" d="m353.75,444.94c-1.18,0-2.15-.37-2.88-1.11-.74-.74-1.11-1.7-1.11-2.88v-61.32c0-1.18.37-2.14,1.11-2.88.74-.74,1.7-1.11,2.88-1.11s2.14.37,2.88,1.11c.74.74,1.11,1.7,1.11,2.88v61.32c0,1.18-.37,2.14-1.11,2.88-.74.74-1.7,1.11-2.88,1.11Zm3.37-17.13l-4.97-5.5,28.49-25.47c.77-.77,1.64-1.14,2.62-1.11.98.03,1.82.46,2.53,1.29.77.83,1.14,1.73,1.11,2.71-.03.98-.46,1.82-1.29,2.53l-28.49,25.56Zm28.75,16.68c-.89.71-1.85,1.02-2.88.93-1.04-.09-1.91-.58-2.62-1.46l-18.64-22.98,5.59-5.32,19.08,23.52c.71.83,1.02,1.73.93,2.71-.09.98-.58,1.85-1.46,2.62Z"/>
    <path class="e" d="m417.64,405.18c-1.06,0-1.95-.32-2.66-.98-.71-.65-1.06-1.48-1.06-2.48,0-1.07.35-1.92,1.06-2.57.71-.65,1.6-.98,2.66-.98h21.39c1.06,0,1.95.33,2.66.98.71.65,1.06,1.51,1.06,2.57,0,1.01-.35,1.83-1.06,2.48-.71.65-1.6.98-2.66.98h-21.39Zm20.68,39.76c-3.02,0-5.74-.75-8.16-2.26-2.43-1.51-4.32-3.55-5.68-6.12-1.36-2.57-2.04-5.52-2.04-8.83v-42.68c0-1.18.37-2.16,1.11-2.93.74-.77,1.7-1.15,2.88-1.15s2.16.39,2.93,1.15c.77.77,1.15,1.75,1.15,2.93v42.68c0,2.66.74,4.85,2.22,6.57,1.48,1.72,3.34,2.57,5.59,2.57h2.75c1,0,1.85.38,2.53,1.15.68.77,1.02,1.75,1.02,2.93s-.43,2.14-1.29,2.88c-.86.74-1.97,1.11-3.33,1.11h-1.69Z"/>
    <path class="e" d="m497.51,445.29c-4.73,0-8.95-1.05-12.65-3.15-3.7-2.1-6.6-5-8.7-8.7-2.1-3.7-3.15-7.94-3.15-12.73s1.05-9.12,3.15-12.82c2.1-3.7,5-6.6,8.7-8.7,3.7-2.1,7.91-3.15,12.65-3.15s8.95,1.05,12.65,3.15c3.7,2.1,6.6,5,8.7,8.7,2.1,3.7,3.18,7.97,3.24,12.82,0,4.79-1.07,9.04-3.2,12.73-2.13,3.7-5.03,6.6-8.7,8.7-3.67,2.1-7.9,3.15-12.69,3.15Zm0-7.28c3.25,0,6.12-.74,8.61-2.22,2.48-1.48,4.44-3.52,5.86-6.12,1.42-2.6,2.13-5.59,2.13-8.96s-.71-6.37-2.13-9.01c-1.42-2.63-3.37-4.69-5.86-6.17-2.49-1.48-5.36-2.22-8.61-2.22s-6.05.74-8.56,2.22c-2.51,1.48-4.48,3.54-5.9,6.17-1.42,2.63-2.13,5.63-2.13,9.01s.71,6.36,2.13,8.96c1.42,2.6,3.39,4.65,5.9,6.12,2.51,1.48,5.37,2.22,8.56,2.22Z"/>
    <path class="e" d="m563.71,444.94c-.89,0-1.69-.25-2.4-.75-.71-.5-1.21-1.14-1.51-1.91l-13.4-40.2c-.41-1.71-.38-3.09.09-4.13.47-1.03,1.48-1.55,3.02-1.55,1,0,1.85.27,2.53.8.68.53,1.23,1.42,1.64,2.66l11.62,36.03h-2.66l10.83-36.38c.29-.95.77-1.7,1.42-2.26.65-.56,1.54-.84,2.66-.84,1.07,0,1.94.28,2.62.84.68.56,1.14,1.32,1.38,2.26l9.5,34.79h-1.42l11.09-34.43c.71-2.31,2.07-3.46,4.08-3.46,1.54,0,2.57.55,3.11,1.64s.5,2.44-.09,4.04l-13.4,40.2c-.24.77-.7,1.41-1.38,1.91-.68.5-1.5.75-2.44.75-.83,0-1.63-.25-2.4-.75-.77-.5-1.24-1.14-1.42-1.91l-9.94-35.05h.98l-10.21,35.05c-.24.77-.73,1.41-1.46,1.91-.74.5-1.55.75-2.44.75Z"/>
    <path class="e" d="m656.35,445.29c-4.44,0-8.4-1.06-11.89-3.19-3.49-2.13-6.24-5.06-8.25-8.79-2.01-3.73-3.02-7.93-3.02-12.6s1.08-8.95,3.24-12.65c2.16-3.7,5.09-6.62,8.79-8.79,3.7-2.16,7.85-3.24,12.47-3.24s8.84,1.08,12.51,3.24c3.67,2.16,6.58,5.1,8.74,8.83,2.16,3.73,3.27,7.93,3.33,12.6l-3.2.8c0,4.5-1.01,8.55-3.02,12.16-2.01,3.61-4.72,6.45-8.12,8.52-3.4,2.07-7.26,3.11-11.58,3.11Zm1.33-7.28c3.2,0,6.04-.75,8.52-2.26s4.45-3.58,5.9-6.21c1.45-2.63,2.17-5.58,2.17-8.83s-.72-6.29-2.17-8.92c-1.45-2.63-3.42-4.7-5.9-6.21s-5.32-2.26-8.52-2.26-5.89.75-8.43,2.26c-2.54,1.51-4.54,3.58-5.99,6.21-1.45,2.63-2.17,5.61-2.17,8.92s.72,6.2,2.17,8.83c1.45,2.63,3.45,4.7,5.99,6.21,2.54,1.51,5.35,2.26,8.43,2.26Zm20.41,7.01c-1.18,0-2.16-.38-2.93-1.15-.77-.77-1.15-1.75-1.15-2.93v-14.2l1.69-8.52,6.57,2.48v20.23c0,1.18-.4,2.16-1.2,2.93-.8.77-1.79,1.15-2.97,1.15Z"/>
    <path class="e" d="m719.54,445.02c-1.18,0-2.16-.38-2.93-1.15-.77-.77-1.15-1.75-1.15-2.93v-40.47c0-1.24.38-2.23,1.15-2.97.77-.74,1.74-1.11,2.93-1.11,1.24,0,2.23.37,2.97,1.11.74.74,1.11,1.73,1.11,2.97v40.47c0,1.18-.37,2.16-1.11,2.93-.74.77-1.73,1.15-2.97,1.15Zm37.18,0c-1.18,0-2.17-.4-2.97-1.2s-1.2-1.76-1.2-2.88v-22.36c0-3.49-.65-6.34-1.95-8.56-1.3-2.22-3.05-3.87-5.24-4.97-2.19-1.09-4.7-1.64-7.54-1.64-2.66,0-5.06.53-7.19,1.6-2.13,1.07-3.83,2.48-5.1,4.26-1.27,1.77-1.91,3.82-1.91,6.12h-5.33c.06-3.73,1.01-7.05,2.84-9.98,1.83-2.93,4.32-5.24,7.45-6.92,3.14-1.69,6.66-2.53,10.56-2.53,4.14,0,7.84.87,11.09,2.62,3.25,1.75,5.83,4.3,7.72,7.68,1.89,3.37,2.84,7.49,2.84,12.33v22.36c0,1.12-.4,2.08-1.2,2.88-.8.8-1.76,1.2-2.88,1.2Z"/>
    <path class="e" d="m800.74,387.96c-1.48,0-2.75-.53-3.82-1.6s-1.6-2.37-1.6-3.9.55-2.82,1.64-3.86c1.09-1.03,2.38-1.55,3.86-1.55s2.68.52,3.77,1.55c1.09,1.04,1.64,2.32,1.64,3.86s-.53,2.84-1.6,3.9c-1.06,1.07-2.37,1.6-3.9,1.6Zm.09,56.97c-1.24,0-2.25-.38-3.02-1.15-.77-.77-1.15-1.75-1.15-2.93v-40.38c0-1.24.38-2.23,1.15-2.97.77-.74,1.78-1.11,3.02-1.11s2.16.37,2.93,1.11c.77.74,1.15,1.73,1.15,2.97v40.38c0,1.18-.39,2.16-1.15,2.93-.77.77-1.75,1.15-2.93,1.15Z"/>
    <path class="e" d="m864.27,445.29c-4.91,0-9.25-1.05-13-3.15-3.76-2.1-6.7-5-8.83-8.7-2.13-3.7-3.19-7.94-3.19-12.73s1-9.12,3.02-12.82c2.01-3.7,4.79-6.6,8.34-8.7,3.55-2.1,7.66-3.15,12.34-3.15s8.49,1.02,11.8,3.06c3.31,2.04,5.86,4.85,7.63,8.43,1.78,3.58,2.66,7.71,2.66,12.38,0,1.01-.34,1.85-1.02,2.53s-1.58,1.02-2.71,1.02h-36.47v-6.57h36.56l-3.64,2.57c-.06-3.13-.68-5.95-1.86-8.43-1.18-2.48-2.87-4.44-5.06-5.86-2.19-1.42-4.82-2.13-7.9-2.13-3.37,0-6.29.77-8.74,2.31-2.46,1.54-4.33,3.64-5.64,6.3-1.3,2.66-1.95,5.68-1.95,9.05s.75,6.38,2.26,9.01c1.51,2.63,3.58,4.72,6.21,6.26,2.63,1.54,5.69,2.31,9.19,2.31,1.89,0,3.86-.36,5.9-1.07,2.04-.71,3.65-1.54,4.84-2.48.83-.65,1.71-.99,2.66-1.02.95-.03,1.78.25,2.48.84.89.83,1.36,1.73,1.42,2.71.06.98-.35,1.82-1.24,2.53-2.01,1.6-4.51,2.92-7.5,3.95-2.99,1.04-5.84,1.55-8.56,1.55Z"/>
    <path class="e" d="m979.55,445.29c-3.9,0-7.6-.61-11.09-1.82-3.49-1.21-6.24-2.88-8.25-5.01-.77-.89-1.09-1.86-.98-2.93.12-1.07.65-1.98,1.6-2.75,1.01-.77,2.04-1.09,3.11-.98,1.06.12,1.95.59,2.66,1.42,1.18,1.3,2.91,2.43,5.19,3.37,2.28.95,4.78,1.42,7.5,1.42,3.85,0,6.7-.63,8.56-1.91,1.86-1.27,2.82-2.85,2.88-4.75,0-1.95-.92-3.59-2.75-4.93-1.83-1.33-5.06-2.38-9.67-3.15-5.98-1.12-10.32-2.87-13.04-5.24-2.72-2.37-4.08-5.24-4.08-8.61,0-3.02.84-5.52,2.53-7.5,1.69-1.98,3.9-3.46,6.66-4.44,2.75-.98,5.66-1.46,8.74-1.46,3.9,0,7.33.64,10.29,1.91,2.96,1.27,5.32,3.03,7.1,5.28.77.89,1.11,1.8,1.02,2.75-.09.95-.58,1.75-1.46,2.4-.89.53-1.91.71-3.06.53-1.15-.18-2.12-.68-2.88-1.51-1.48-1.54-3.12-2.62-4.93-3.24s-3.89-.93-6.26-.93c-2.84,0-5.19.53-7.05,1.6-1.86,1.07-2.8,2.52-2.8,4.35,0,1.18.31,2.22.93,3.11.62.89,1.79,1.7,3.51,2.44,1.71.74,4.17,1.41,7.37,2,4.44.83,7.94,1.92,10.52,3.28,2.57,1.36,4.42,2.96,5.55,4.79,1.12,1.83,1.69,3.91,1.69,6.21,0,2.72-.75,5.16-2.26,7.32-1.51,2.16-3.68,3.86-6.52,5.1s-6.27,1.86-10.29,1.86Z"/>
    <path class="e" d="m1027.47,405.18c-1.06,0-1.95-.32-2.66-.98-.71-.65-1.07-1.48-1.07-2.48,0-1.07.36-1.92,1.07-2.57.71-.65,1.6-.98,2.66-.98h21.39c1.06,0,1.95.33,2.66.98.71.65,1.06,1.51,1.06,2.57,0,1.01-.35,1.83-1.06,2.48-.71.65-1.6.98-2.66.98h-21.39Zm20.68,39.76c-3.02,0-5.74-.75-8.16-2.26-2.43-1.51-4.32-3.55-5.68-6.12-1.36-2.57-2.04-5.52-2.04-8.83v-42.68c0-1.18.37-2.16,1.11-2.93.74-.77,1.7-1.15,2.88-1.15s2.16.39,2.93,1.15c.77.77,1.15,1.75,1.15,2.93v42.68c0,2.66.74,4.85,2.22,6.57,1.48,1.72,3.34,2.57,5.59,2.57h2.75c1,0,1.85.38,2.53,1.15.68.77,1.02,1.75,1.02,2.93s-.43,2.14-1.29,2.88c-.86.74-1.97,1.11-3.33,1.11h-1.69Z"/>
    <path class="e" d="m1089.32,444.94c-1.24,0-2.22-.34-2.93-1.02-.71-.68-1.07-1.67-1.07-2.97v-40.55c0-1.24.36-2.22,1.07-2.93s1.69-1.06,2.93-1.06c1.36,0,2.38.34,3.06,1.02.68.68,1.02,1.67,1.02,2.97v40.55c0,1.24-.34,2.22-1.02,2.93-.68.71-1.7,1.06-3.06,1.06Zm-.27-30.17c.12-3.61,1.05-6.83,2.79-9.67s4.07-5.09,6.97-6.74c2.9-1.66,6.09-2.49,9.58-2.49,3.25,0,5.69.5,7.32,1.51,1.63,1.01,2.23,2.28,1.82,3.82-.18.89-.53,1.52-1.07,1.91-.53.39-1.15.59-1.86.62-.71.03-1.48-.01-2.31-.13-3.61-.59-6.83-.5-9.67.27-2.84.77-5.09,2.1-6.74,3.99-1.66,1.89-2.48,4.2-2.48,6.92h-4.35Z"/>
    <path class="e" d="m1165.72,445.29c-4.73,0-8.95-1.05-12.65-3.15-3.7-2.1-6.6-5-8.7-8.7-2.1-3.7-3.15-7.94-3.15-12.73s1.05-9.12,3.15-12.82c2.1-3.7,5-6.6,8.7-8.7,3.7-2.1,7.91-3.15,12.65-3.15s8.95,1.05,12.65,3.15c3.7,2.1,6.6,5,8.7,8.7,2.1,3.7,3.18,7.97,3.24,12.82,0,4.79-1.07,9.04-3.2,12.73-2.13,3.7-5.03,6.6-8.7,8.7-3.67,2.1-7.9,3.15-12.69,3.15Zm0-7.28c3.25,0,6.12-.74,8.61-2.22,2.48-1.48,4.44-3.52,5.86-6.12,1.42-2.6,2.13-5.59,2.13-8.96s-.71-6.37-2.13-9.01c-1.42-2.63-3.37-4.69-5.86-6.17-2.49-1.48-5.36-2.22-8.61-2.22s-6.05.74-8.56,2.22c-2.51,1.48-4.48,3.54-5.9,6.17-1.42,2.63-2.13,5.63-2.13,9.01s.71,6.36,2.13,8.96c1.42,2.6,3.39,4.65,5.9,6.12,2.51,1.48,5.37,2.22,8.56,2.22Z"/>
    <path class="e" d="m1227.58,445.02c-1.18,0-2.16-.38-2.93-1.15-.77-.77-1.15-1.75-1.15-2.93v-40.47c0-1.24.38-2.23,1.15-2.97.77-.74,1.74-1.11,2.93-1.11,1.24,0,2.23.37,2.97,1.11.74.74,1.11,1.73,1.11,2.97v40.47c0,1.18-.37,2.16-1.11,2.93-.74.77-1.73,1.15-2.97,1.15Zm37.18,0c-1.18,0-2.17-.4-2.97-1.2s-1.2-1.76-1.2-2.88v-22.36c0-3.49-.65-6.34-1.95-8.56-1.3-2.22-3.05-3.87-5.24-4.97-2.19-1.09-4.7-1.64-7.54-1.64-2.66,0-5.06.53-7.19,1.6-2.13,1.07-3.83,2.48-5.1,4.26-1.27,1.77-1.91,3.82-1.91,6.12h-5.33c.06-3.73,1.01-7.05,2.84-9.98,1.83-2.93,4.32-5.24,7.45-6.92,3.14-1.69,6.66-2.53,10.56-2.53,4.14,0,7.84.87,11.09,2.62,3.25,1.75,5.83,4.3,7.72,7.68,1.89,3.37,2.84,7.49,2.84,12.33v22.36c0,1.12-.4,2.08-1.2,2.88-.8.8-1.76,1.2-2.88,1.2Z"/>
  </g>
</svg>