<svg width="338" height="271" viewBox="0 0 338 271" xmlns="http://www.w3.org/2000/svg"><title>gdansk-ecs</title><defs><linearGradient x1="18.937%" y1="50.886%" x2="102.997%" y2="49.534%" id="a"><stop stop-color="#62466A" offset="0%"/><stop stop-color="#2B1C34" offset="100%"/></linearGradient><linearGradient x1="9645%" y1="1909.045%" x2="12677%" y2="1843.125%" id="b"><stop stop-color="#62466A" offset="0%"/><stop stop-color="#2B1C34" offset="100%"/></linearGradient><linearGradient x1="2025%" y1="2568.564%" x2="5164%" y2="2512.122%" id="c"><stop stop-color="#62466A" offset="0%"/><stop stop-color="#2B1C34" offset="100%"/></linearGradient><linearGradient x1="-7.789%" y1="49.661%" x2="92.52%" y2="50.579%" id="d"><stop stop-color="#3E2E4A" offset="0%"/><stop stop-color="#2B1C34" offset="100%"/></linearGradient><linearGradient x1="16513%" y1="15338%" x2="16513%" y2="14405%" id="e"><stop stop-color="#3E2E4A" offset="0%"/><stop stop-color="#2B1C34" offset="100%"/></linearGradient><linearGradient x1="12467%" y1="14837%" x2="12467%" y2="14124%" id="f"><stop stop-color="#3E2E4A" offset="0%"/><stop stop-color="#2B1C34" offset="100%"/></linearGradient><linearGradient x1="9587%" y1="15104%" x2="9587%" y2="13784%" id="g"><stop stop-color="#3E2E4A" offset="0%"/><stop stop-color="#2B1C34" offset="100%"/></linearGradient><linearGradient x1="5926%" y1="14124%" x2="5926%" y2="13110%" id="h"><stop stop-color="#3E2E4A" offset="0%"/><stop stop-color="#2B1C34" offset="100%"/></linearGradient><linearGradient x1=".19%" y1="29.086%" x2="99.854%" y2="62.695%" id="i"><stop stop-color="#693" offset="0%"/><stop stop-color="#BDDB59" offset="100%"/></linearGradient><linearGradient x1="5926%" y1="2277%" x2="26451%" y2="2277%" id="j"><stop stop-color="#3E2E4A" offset="0%"/><stop stop-color="#2B1C34" offset="100%"/></linearGradient><linearGradient x1="3845%" y1="3508%" x2="14747%" y2="3508%" id="k"><stop stop-color="#3E2E4A" offset="0%"/><stop stop-color="#2B1C34" offset="100%"/></linearGradient><linearGradient x1=".745%" y1="43.557%" x2="101.086%" y2="43.557%" id="l"><stop stop-color="#A3C74E" offset="0%"/><stop stop-color="#BDDB59" offset="100%"/></linearGradient><linearGradient x1="50.784%" y1="54.721%" x2="46.777%" y2="30.569%" id="m"><stop stop-color="#693" offset="0%"/><stop stop-color="#2B1C34" offset="100%"/></linearGradient><linearGradient x1="49.182%" y1="99.608%" x2="50.746%" y2="-1.142%" id="n"><stop stop-color="#2B1C34" stop-opacity=".9" offset="0%"/><stop stop-color="#3EA14A" stop-opacity=".5" offset="40%"/><stop stop-color="#ECEFF1" offset="100%"/></linearGradient></defs><g fill-rule="nonzero" fill="none"><path d="M326.29 189.49l-3.21 1.2-.09 2.36-135.58 52.11L113 270.08h-2a389.45 389.45 0 0 0 80.38-4.25C278.7 252.33 330.93 222 337.27 204c4-11.37-10.98-14.51-10.98-14.51z" fill="#249FAB"/><path d="M187.41 245.16l-5.75-1.9-7.23 3.62-63.82-3.11-.44-4.34-17-.64-3.17 2.54-36-4.86-.65-6.34-32.85-4.65-.38-5.55-2.61.25a24.94 24.94 0 0 0-9.08 7.56A13 13 0 0 0 7 238c4.3 10.1 42.15 28.73 104 32.07h2l74.41-24.91z" fill="#166E77"/><path fill="#BDDB59" d="M20.12 219.94l.38 5.55 32.85 4.65.65 6.34 36 4.86 3.14-2.55 17 .64.44 4.34 63.82 3.11 7.23-3.62 5.75 1.9L323 193.05l.09-2.36 3.21-1.2 3.24-43.74-77.41-10.52-6.59.5.8-21.1-40.44-1.53-165 2.26-.24 6.38-21 4.68 3 26.07L0 162.47l9.34 57.4 8.2.31z"/><path fill="url(#a)" d="M159.16 172.26l18.38-3.26 5.12 74.26-7.23 3.62-1.08-8.76-6.9 1.56z" transform="translate(-1)"/><path fill="#2B1C34" d="M91.1 168.28l67.06 3.98 8.29 67.42-61.99-5.02-13.36-66.38z"/><path fill="url(#b)" d="M101.29 166.89l.09-2.43-24.61 3.24 14.56 65.43 13.6-1.08-12.83-63.77z" transform="translate(-1)"/><path fill="#2B1C34" d="M15.21 164.43l60.56 3.27 14.56 65.43-60.14-10.34-14.98-58.36z"/><path fill="url(#c)" d="M26.85 162.86v-2.13L.97 162.47l17.54 57.71 11.72-1.11-14.02-54.64 10.64-1.57z" transform="translate(-1)"/><path fill="#2B1C34" d="M9.31 219.87l8.2.31-17.54-57.71z"/><path fill="url(#d)" d="M177.54 169l18.39 2.24-2.59 68.28-4.66-1.48-.27 7.12-5.75-1.9z" transform="translate(-1)"/><path fill="url(#e)" d="M175.43 246.88l-63.82-3.12-.89-8.67 56.73 4.59 6.9-1.56 1.08 8.76z" transform="translate(-1)"/><path fill="url(#f)" d="M111.17 239.42l-17.01-.64.22-5.89 10.55-.84.53 2.61 5.26.43.45 4.33z" transform="translate(-1)"/><path fill="url(#g)" d="M94.16 238.78l-3.14 2.55L55 236.47l-1-9.75 37.33 6.41 3.05-.24-.22 5.89z" transform="translate(-1)"/><path fill="url(#h)" d="M54.35 230.13l-32.84-4.65-.39-5.54 9.11-.87.96 3.72L54 226.72z" transform="translate(-1)"/><path fill="url(#i)" d="M330.52 145.75l-77.41-10.52L23.68 152.5.97 162.47l25.88-1.74v2.13l-10.64 1.57 60.56 3.27 24.61-3.24-.09 2.43-9.19 1.39 67.06 3.98 18.38-3.26 18.39 2.24 134.59-25.49z" transform="translate(-1)"/><path fill="url(#j)" d="M130.12 116.58l117.2-1.95-40.42-1.53-165.01 2.27 88.23 1.21z" transform="translate(-1)"/><path fill="url(#k)" d="M41.65 121.75l-21 4.67 109.23-3.46-88.23-1.21z" transform="translate(-1)"/><path fill="#2B1C34" d="M128.88 122.96l.24-6.38-88.23-1.21-.24 6.38 88.23 1.21z"/><path fill="url(#l)" d="M247.32 114.63l-117.2 1.95-.24 6.38-109.23 3.46 3.03 26.08 222.84-16.77.8-21.1" transform="translate(-1)"/><path fill="url(#m)" d="M188.68 238.04l-.27 7.12 135.58-52.11.09-2.36-130.74 48.83-4.66-1.48z" transform="translate(-1)"/><path fill="#BDDB59" d="M329.52 145.75l-3.23 43.74-133.95 50.03 2.59-68.28z"/><path fill="url(#n)" opacity=".5" style="mix-blend-mode:multiply" d="M327.3 189.54l-131.36-18.25 57.18-36-6.59.5-116.4-19.15 76.79-3.48-165 2.26-.24 6.38-21 4.68 3 26.07L1 162.52l9.34 57.4 8.2.31 2.6-.3.38 5.55 32.85 4.65.65 6.34 36 4.86 3.14-2.55 17 .64.44 4.34 63.82 3.11 7.23-3.62 5.75 1.9 135.6-52.1.09-2.36z" transform="translate(-1)"/><path fill="#BDDB59" opacity=".5" d="M30.32 78.028l4.053 4.05-4.052 4.053-4.05-4.05z"/><path fill="#BDDB59" style="mix-blend-mode:color-dodge" d="M28.137 82.08l2.192-2.19 2.19 2.19-2.19 2.193z"/><path fill="#BDDB59" d="M30.33 79.887l2.19 2.192-2.19 2.19-2.193-2.19z"/><path fill="#BDDB59" opacity=".5" d="M117.12 15.638l4.447 4.448-4.448 4.447-4.45-4.447z"/><path fill="#BDDB59" style="mix-blend-mode:color-dodge" d="M114.72 20.084l2.406-2.404 2.404 2.404-2.404 2.404z"/><path fill="#BDDB59" d="M117.126 17.68l2.404 2.406-2.404 2.404-2.404-2.404z"/><path fill="#BDDB59" opacity=".5" d="M122.693.134l5.558 5.558-5.557 5.558-5.558-5.558z"/><path fill="#BDDB59" style="mix-blend-mode:color-dodge" d="M119.687 5.694l3.005-3.005 3.005 3.004-3.005 3.005z"/><path fill="#BDDB59" d="M122.686 2.687l3.005 3.005-3.004 3.005-3.005-3.005z"/><path fill="#BDDB59" opacity=".5" d="M11.33 79.25l-9.72-3.38-.97-10.24 9.72 3.38z"/><path fill="#BDDB59" style="mix-blend-mode:color-dodge" d="M3.62 74.29l-.53-5.54 5.26 1.83.53 5.54-5.26-1.83z"/><path fill="#BDDB59" d="M8.88 76.12l-5.26-1.83-.53-5.54 5.26 1.83.53 5.54z"/><path fill="#BDDB59" opacity=".5" d="M151.25 47.54l-5.99.48-2.94-5.24 5.99-.49 2.94 5.25z"/><path fill="#BDDB59" style="mix-blend-mode:color-dodge" d="M145.96 46.71l-1.59-2.84 3.24-.26 1.59 2.84z"/><path fill="#BDDB59" d="M149.2 46.45l-3.24.26-1.59-2.84 3.24-.26z"/><path fill="#BDDB59" opacity=".5" d="M307.346 89.226l-4.447 4.448-4.45-4.448 4.45-4.448z"/><path fill="#BDDB59" style="mix-blend-mode:color-dodge" d="M300.49 89.224l2.404-2.404 2.404 2.404-2.404 2.404z"/><path fill="#BDDB59" d="M305.31 89.226l-2.404 2.404-2.404-2.404 2.404-2.404z"/><path fill="#BDDB59" opacity=".5" d="M302.91 74.84l-5.557 5.558-5.558-5.558 5.558-5.558z"/><path fill="#BDDB59" style="mix-blend-mode:color-dodge" d="M294.34 74.83l3.004-3.005 3.006 3.005-3.006 3.006z"/><path fill="#BDDB59" d="M300.35 74.84l-3.004 3.005-3.006-3.005 3.006-3.006z"/><path fill="#BDDB59" opacity=".5" d="M268.78 116.22l8.15.66 3.99-7.13-8.15-.66z"/><path fill="#BDDB59" style="mix-blend-mode:color-dodge" d="M275.97 115.09l2.16-3.86-4.4-.35-2.16 3.85z"/><path fill="#BDDB59" d="M271.57 114.73l4.4.36 2.16-3.86-4.4-.35z"/></g></svg>