<?xml version="1.0" encoding="utf-8"?>
<!-- Generator: Adobe Illustrator 23.1.1, SVG Export Plug-In . SVG Version: 6.00 Build 0)  -->
<svg version="1.1" id="Warstwa_1" xmlns="http://www.w3.org/2000/svg" xmlns:xlink="http://www.w3.org/1999/xlink" x="0px" y="0px"
	 viewBox="0 0 806.67 181.46" style="enable-background:new 0 0 806.67 181.46;" xml:space="preserve">
<style type="text/css">
	.st0{enable-background:new    ;}
	.st1{fill-rule:evenodd;clip-rule:evenodd;fill:#4919AA;}
	.st2{fill-rule:evenodd;clip-rule:evenodd;fill:#24BEFC;}
	.st3{fill-rule:evenodd;clip-rule:evenodd;fill:#2697F7;}
	.st4{fill-rule:evenodd;clip-rule:evenodd;fill:#2B185C;}
	.st5{clip-path:url(#SVGID_4_);fill:#2B185C;}
	.st6{clip-path:url(#SVGID_8_);fill:#2B185C;}
	.st7{clip-path:url(#SVGID_12_);fill:#2B185C;}
	.st8{clip-path:url(#SVGID_16_);fill:#2B185C;}
	.st9{clip-path:url(#SVGID_20_);fill:#2B185C;}
	.st10{clip-path:url(#SVGID_24_);fill:#2B185C;}
	.st11{clip-path:url(#SVGID_27_);fill:#2B185C;}
	.st12{clip-path:url(#SVGID_29_);}
	.st13{fill:#2B185C;}
	.st14{clip-path:url(#SVGID_31_);fill:#2B185C;}
	.st15{clip-path:url(#SVGID_33_);}
	.st16{clip-path:url(#SVGID_35_);fill:#2B185C;}
	.st17{clip-path:url(#SVGID_37_);}
	.st18{clip-path:url(#SVGID_39_);fill:#2B185C;}
</style>
<g>
	<g>
		<g class="st0">
			<g>
				<path class="st1" d="M89.96,31.31c0,0-47.01-27.2-47.57-27.52C28.88-4.02,11.59,0.62,3.78,14.14C1.21,18.6-0.01,23.47,0,28.27
					v121.79c0-10.52,5.74-19.69,14.27-24.56L91.35,81c13.52-7.8,18.15-25.09,10.34-38.61C98.83,37.46,94.7,33.7,89.96,31.31"/>
			</g>
		</g>
	</g>
	<g>
		<g class="st0">
			<g>
				<path class="st2" d="M91.34,100.46l-77.08-44.5C5.74,51.09,0,41.92,0,31.4v121.79c0,4.8,1.21,9.67,3.78,14.13
					c7.8,13.52,25.1,18.16,38.61,10.34c0.56-0.32,47.57-27.52,47.57-27.52c4.74-2.39,8.87-6.14,11.73-11.09
					C109.49,125.55,104.86,108.27,91.34,100.46"/>
			</g>
		</g>
	</g>
	<g>
		<g class="st0">
			<g>
				<path class="st3" d="M14.26,55.96C5.74,51.09-0.01,41.92-0.01,31.4v118.66c0-10.52,5.74-19.69,14.27-24.56
					c0,0,37.54-21.68,60.23-34.77C51.81,77.64,14.26,55.96,14.26,55.96"/>
			</g>
		</g>
	</g>
</g>
<g>
	<g>
		<g>
			<path id="SVGID_1_" class="st4" d="M191.39,80.64V44.43c0-0.92-0.74-1.66-1.66-1.66h-13.65c-0.92,0-1.66,0.74-1.66,1.66v93.81
				c0,0.92,0.74,1.66,1.66,1.66h12.68c0.84,0,1.54-0.62,1.65-1.46l0.98-8c5.29,8.21,13.77,10.99,22.12,10.99
				c20.17,0,35.33-13.36,35.33-35.89c0-23.64-14.88-35.88-34.91-35.88C206.69,69.65,195.42,73.55,191.39,80.64z M192.5,105.54
				c0-11.96,9.18-20.03,19.89-20.03c10.85,0,19.47,7.65,19.47,20.03c0,11.96-8.62,20.17-19.47,20.17
				C201.68,125.71,192.5,117.92,192.5,105.54z"/>
		</g>
		<g>
			<defs>
				<path id="SVGID_2_" d="M191.39,80.64V44.43c0-0.92-0.74-1.66-1.66-1.66h-13.65c-0.92,0-1.66,0.74-1.66,1.66v93.81
					c0,0.92,0.74,1.66,1.66,1.66h12.68c0.84,0,1.54-0.62,1.65-1.46l0.98-8c5.29,8.21,13.77,10.99,22.12,10.99
					c20.17,0,35.33-13.36,35.33-35.89c0-23.64-14.88-35.88-34.91-35.88C206.69,69.65,195.42,73.55,191.39,80.64z M192.5,105.54
					c0-11.96,9.18-20.03,19.89-20.03c10.85,0,19.47,7.65,19.47,20.03c0,11.96-8.62,20.17-19.47,20.17
					C201.68,125.71,192.5,117.92,192.5,105.54z"/>
			</defs>
			<clipPath id="SVGID_4_">
				<use xlink:href="#SVGID_2_"  style="overflow:visible;"/>
			</clipPath>
			<rect x="174.15" y="42.49" class="st5" width="74.97" height="99.21"/>
		</g>
	</g>
	<g>
		<g>
			<path id="SVGID_3_" class="st4" d="M256.11,51.99c0,13.21,20.03,13.21,20.03,0C276.14,38.77,256.11,38.77,256.11,51.99"/>
		</g>
		<g>
			<defs>
				<path id="SVGID_6_" d="M256.11,51.99c0,13.21,20.03,13.21,20.03,0C276.14,38.77,256.11,38.77,256.11,51.99"/>
			</defs>
			<clipPath id="SVGID_8_">
				<use xlink:href="#SVGID_6_"  style="overflow:visible;"/>
			</clipPath>
			<rect x="255.84" y="41.8" class="st6" width="20.58" height="20.37"/>
		</g>
	</g>
	<g>
		<g>
			<path id="SVGID_5_" class="st4" d="M259.3,139.9h13.65c0.92,0,1.66-0.74,1.66-1.66V72.71c0-0.92-0.74-1.66-1.66-1.66H259.3
				c-0.92,0-1.66,0.74-1.66,1.66v65.53C257.64,139.15,258.39,139.9,259.3,139.9z"/>
		</g>
		<g>
			<defs>
				<path id="SVGID_10_" d="M259.3,139.9h13.65c0.92,0,1.66-0.74,1.66-1.66V72.71c0-0.92-0.74-1.66-1.66-1.66H259.3
					c-0.92,0-1.66,0.74-1.66,1.66v65.53C257.64,139.15,258.39,139.9,259.3,139.9z"/>
			</defs>
			<clipPath id="SVGID_12_">
				<use xlink:href="#SVGID_10_"  style="overflow:visible;"/>
			</clipPath>
			<rect x="257.37" y="70.77" class="st7" width="17.52" height="69.4"/>
		</g>
	</g>
	<g>
		<g>
			<path id="SVGID_7_" class="st4" d="M302.06,80.5l-0.94-7.86c-0.1-0.83-0.81-1.46-1.65-1.46h-12.03c-0.92,0-1.66,0.74-1.66,1.66
				v65.39c0,0.92,0.74,1.66,1.66,1.66h13.51c0.92,0,1.66-0.74,1.66-1.66v-33.39c0-10.43,7.09-19.2,17.53-19.2
				c10.85,0,16.55,7.93,16.55,18.36v34.23c0,0.92,0.74,1.66,1.66,1.66H352c0.92,0,1.66-0.74,1.66-1.66v-34.37
				c0-21.56-12.94-33.66-29.07-33.66C315.97,70.21,309.01,73.68,302.06,80.5z"/>
		</g>
		<g>
			<defs>
				<path id="SVGID_14_" d="M302.06,80.5l-0.94-7.86c-0.1-0.83-0.81-1.46-1.65-1.46h-12.03c-0.92,0-1.66,0.74-1.66,1.66v65.39
					c0,0.92,0.74,1.66,1.66,1.66h13.51c0.92,0,1.66-0.74,1.66-1.66v-33.39c0-10.43,7.09-19.2,17.53-19.2
					c10.85,0,16.55,7.93,16.55,18.36v34.23c0,0.92,0.74,1.66,1.66,1.66H352c0.92,0,1.66-0.74,1.66-1.66v-34.37
					c0-21.56-12.94-33.66-29.07-33.66C315.97,70.21,309.01,73.68,302.06,80.5z"/>
			</defs>
			<clipPath id="SVGID_16_">
				<use xlink:href="#SVGID_14_"  style="overflow:visible;"/>
			</clipPath>
			<rect x="285.51" y="69.93" class="st8" width="68.43" height="70.24"/>
		</g>
	</g>
	<g>
		<g>
			<path id="SVGID_9_" class="st4" d="M419.62,80.78c-3.89-6.82-12.66-11.13-21.84-11.13c-20.03-0.14-35.75,12.24-35.75,35.89
				c0,24.06,15.02,36.58,35.33,36.44c7.65-0.14,18.36-4.03,22.25-12.1l0.71,8.49c0.07,0.86,0.79,1.52,1.65,1.52h12.81
				c0.92,0,1.66-0.74,1.66-1.66V72.98c0-0.91-0.74-1.66-1.66-1.66h-13.05c-0.88,0-1.6,0.69-1.66,1.56L419.62,80.78z M379.01,105.54
				c0-13.08,9.04-20.72,20.31-20.72c26.71,0,26.71,41.59,0,41.59C388.05,126.4,379.01,118.61,379.01,105.54z"/>
		</g>
		<g>
			<defs>
				<path id="SVGID_18_" d="M419.62,80.78c-3.89-6.82-12.66-11.13-21.84-11.13c-20.03-0.14-35.75,12.24-35.75,35.89
					c0,24.06,15.02,36.58,35.33,36.44c7.65-0.14,18.36-4.03,22.25-12.1l0.71,8.49c0.07,0.86,0.79,1.52,1.65,1.52h12.81
					c0.92,0,1.66-0.74,1.66-1.66V72.98c0-0.91-0.74-1.66-1.66-1.66h-13.05c-0.88,0-1.6,0.69-1.66,1.56L419.62,80.78z M379.01,105.54
					c0-13.08,9.04-20.72,20.31-20.72c26.71,0,26.71,41.59,0,41.59C388.05,126.4,379.01,118.61,379.01,105.54z"/>
			</defs>
			<clipPath id="SVGID_20_">
				<use xlink:href="#SVGID_18_"  style="overflow:visible;"/>
			</clipPath>
			<rect x="361.76" y="69.38" class="st9" width="74.97" height="72.88"/>
		</g>
	</g>
	<g>
		<g>
			<path id="SVGID_11_" class="st4" d="M461.37,71.32h-12.64c-0.92,0-1.66,0.74-1.66,1.66v65.26c0,0.92,0.74,1.66,1.66,1.66h13.65
				c0.92,0,1.66-0.74,1.66-1.66v-34.51c0-12.66,8.21-17.39,17.11-17.39c5.56,0,8.76,1.53,12.24,4.45l7.65-14.75
				c-3.75-3.75-10.57-6.54-17.66-6.54c-6.96,0-14.05,1.25-19.34,9.74l-1.03-6.53C462.88,71.92,462.18,71.32,461.37,71.32z"/>
		</g>
		<g>
			<defs>
				<path id="SVGID_22_" d="M461.37,71.32h-12.64c-0.92,0-1.66,0.74-1.66,1.66v65.26c0,0.92,0.74,1.66,1.66,1.66h13.65
					c0.92,0,1.66-0.74,1.66-1.66v-34.51c0-12.66,8.21-17.39,17.11-17.39c5.56,0,8.76,1.53,12.24,4.45l7.65-14.75
					c-3.75-3.75-10.57-6.54-17.66-6.54c-6.96,0-14.05,1.25-19.34,9.74l-1.03-6.53C462.88,71.92,462.18,71.32,461.37,71.32z"/>
			</defs>
			<clipPath id="SVGID_24_">
				<use xlink:href="#SVGID_22_"  style="overflow:visible;"/>
			</clipPath>
			<rect x="446.79" y="69.24" class="st10" width="54.52" height="70.93"/>
		</g>
	</g>
	<g>
		<g>
			<path id="SVGID_13_" class="st4" d="M565.52,86.2c-5.7-10.71-16.97-15.86-28.1-15.86c-19.19,0-34.91,14.19-34.91,35.19
				S518.23,141,537.42,141c11.13,0,21.42-5.01,28.1-15.72v12.95c0,0.92,0.74,1.66,1.66,1.66h3.5c0.92,0,1.66-0.74,1.66-1.66V72.84
				c0-0.92-0.74-1.66-1.66-1.66h-3.5c-0.92,0-1.66,0.74-1.66,1.66V86.2z M509.32,105.54c0-17.25,12.52-28.65,28.1-28.65
				c38.25,0,38.25,57.45,0,57.45C521.84,134.33,509.32,122.79,509.32,105.54z"/>
		</g>
		<g>
			<defs>
				<path id="SVGID_26_" d="M565.52,86.2c-5.7-10.71-16.97-15.86-28.1-15.86c-19.19,0-34.91,14.19-34.91,35.19
					S518.23,141,537.42,141c11.13,0,21.42-5.01,28.1-15.72v12.95c0,0.92,0.74,1.66,1.66,1.66h3.5c0.92,0,1.66-0.74,1.66-1.66V72.84
					c0-0.92-0.74-1.66-1.66-1.66h-3.5c-0.92,0-1.66,0.74-1.66,1.66V86.2z M509.32,105.54c0-17.25,12.52-28.65,28.1-28.65
					c38.25,0,38.25,57.45,0,57.45C521.84,134.33,509.32,122.79,509.32,105.54z"/>
			</defs>
			<clipPath id="SVGID_27_">
				<use xlink:href="#SVGID_26_"  style="overflow:visible;"/>
			</clipPath>
			<rect x="502.23" y="70.07" class="st11" width="70.38" height="71.21"/>
		</g>
	</g>
	<g>
		<g class="st0">
			<g>
				<g>
					<g>
						<path id="SVGID_15_" class="st4" d="M594.41,87.46V72.84c0-0.92-0.74-1.66-1.66-1.66h-3.36c-0.92,0-1.66,0.74-1.66,1.66v94.05
							c0,0.92,0.74,1.66,1.66,1.66h3.22c0.92,0,1.66-0.74,1.66-1.66v-42.85c5.84,11.41,16.69,17.11,28.38,17.11
							c19.33,0,34.91-12.52,34.91-35.61c0-22.12-14.74-34.63-33.38-35.33C610.83,70.21,599.84,77.02,594.41,87.46z M594.83,105.68
							c0-16.83,11.82-28.93,27.82-28.93c15.58,0,28.1,9.46,28.1,28.79c0,19.33-12.52,29.07-28.1,29.07
							C606.93,134.61,594.83,122.51,594.83,105.68z"/>
					</g>
					<g>
						<defs>
							<path id="SVGID_28_" d="M594.41,87.46V72.84c0-0.92-0.74-1.66-1.66-1.66h-3.36c-0.92,0-1.66,0.74-1.66,1.66v94.05
								c0,0.92,0.74,1.66,1.66,1.66h3.22c0.92,0,1.66-0.74,1.66-1.66v-42.85c5.84,11.41,16.69,17.11,28.38,17.11
								c19.33,0,34.91-12.52,34.91-35.61c0-22.12-14.74-34.63-33.38-35.33C610.83,70.21,599.84,77.02,594.41,87.46z M594.83,105.68
								c0-16.83,11.82-28.93,27.82-28.93c15.58,0,28.1,9.46,28.1,28.79c0,19.33-12.52,29.07-28.1,29.07
								C606.93,134.61,594.83,122.51,594.83,105.68z"/>
						</defs>
						<clipPath id="SVGID_29_">
							<use xlink:href="#SVGID_28_"  style="overflow:visible;"/>
						</clipPath>
						<g class="st12">
							<g>
								<rect id="SVGID_17_" x="587.7" y="70.2" class="st13" width="69.88" height="98.4"/>
							</g>
							<g>
								<defs>
									<rect id="SVGID_30_" x="587.7" y="70.2" width="69.88" height="98.4"/>
								</defs>
								<clipPath id="SVGID_31_">
									<use xlink:href="#SVGID_30_"  style="overflow:visible;"/>
								</clipPath>
								<rect x="587.46" y="69.93" class="st14" width="70.38" height="98.89"/>
							</g>
						</g>
					</g>
				</g>
			</g>
		</g>
	</g>
	<g>
		<g class="st0">
			<g>
				<g>
					<g>
						<path id="SVGID_19_" class="st4" d="M677.22,87.46V72.84c0-0.92-0.74-1.66-1.66-1.66h-3.36c-0.92,0-1.66,0.74-1.66,1.66v94.05
							c0,0.92,0.74,1.66,1.66,1.66h3.22c0.92,0,1.66-0.74,1.66-1.66v-42.85c5.84,11.41,16.69,17.11,28.38,17.11
							c19.33,0,34.91-12.52,34.91-35.61c0-22.12-14.74-34.63-33.38-35.33C693.63,70.21,682.65,77.02,677.22,87.46z M677.64,105.68
							c0-16.83,11.83-28.93,27.82-28.93c15.58,0,28.1,9.46,28.1,28.79c0,19.33-12.52,29.07-28.1,29.07
							C689.74,134.61,677.64,122.51,677.64,105.68z"/>
					</g>
					<g>
						<defs>
							<path id="SVGID_32_" d="M677.22,87.46V72.84c0-0.92-0.74-1.66-1.66-1.66h-3.36c-0.92,0-1.66,0.74-1.66,1.66v94.05
								c0,0.92,0.74,1.66,1.66,1.66h3.22c0.92,0,1.66-0.74,1.66-1.66v-42.85c5.84,11.41,16.69,17.11,28.38,17.11
								c19.33,0,34.91-12.52,34.91-35.61c0-22.12-14.74-34.63-33.38-35.33C693.63,70.21,682.65,77.02,677.22,87.46z M677.64,105.68
								c0-16.83,11.83-28.93,27.82-28.93c15.58,0,28.1,9.46,28.1,28.79c0,19.33-12.52,29.07-28.1,29.07
								C689.74,134.61,677.64,122.51,677.64,105.68z"/>
						</defs>
						<clipPath id="SVGID_33_">
							<use xlink:href="#SVGID_32_"  style="overflow:visible;"/>
						</clipPath>
						<g class="st15">
							<g>
								<rect id="SVGID_21_" x="670.51" y="70.2" class="st13" width="69.88" height="98.4"/>
							</g>
							<g>
								<defs>
									<rect id="SVGID_34_" x="670.51" y="70.2" width="69.88" height="98.4"/>
								</defs>
								<clipPath id="SVGID_35_">
									<use xlink:href="#SVGID_34_"  style="overflow:visible;"/>
								</clipPath>
								<rect x="670.27" y="69.93" class="st16" width="70.38" height="98.89"/>
							</g>
						</g>
					</g>
				</g>
			</g>
		</g>
	</g>
	<g>
		<g class="st0">
			<g>
				<g>
					<g>
						<path id="SVGID_23_" class="st4" d="M757.41,89.13c-0.28-8.76,10.01-12.8,20.72-12.66c6.52,0,12.43,0.81,18.34,4.83
							c0.47,0.32,1.1,0.8,1.9,1.43c0.68,0.54,1.65,0.47,2.25-0.16l1.93-2.05c0.63-0.67,0.59-1.72-0.08-2.35
							c-0.02-0.02-0.04-0.04-0.07-0.06c-1.03-0.86-1.86-1.51-2.5-1.94c-6.15-4.22-13.54-6.1-21.77-6.1
							c-13.91-0.14-27.4,5.7-27.26,19.2c0.14,13.77,13.35,16.27,26.71,18.5c11.27,1.81,22.67,3.76,22.39,13.63
							c-0.42,10.85-13.08,13.08-21.42,13.08c-8.04,0-16.94-2.67-22.86-8.85c-0.34-0.35-0.75-0.84-1.25-1.45
							c-0.57-0.71-1.62-0.83-2.33-0.26c-0.02,0.02-0.04,0.04-0.06,0.05l-2.55,2.27c-0.65,0.57-0.74,1.55-0.22,2.24
							c0.79,1.05,1.45,1.85,1.98,2.4c6.49,6.76,16.77,10.14,27.15,10.14c12.1,0,27.82-4.03,28.24-19.2
							c0.7-15.99-16.13-18.08-28.38-20.17C769.65,100.11,757.69,98.3,757.41,89.13z"/>
					</g>
					<g>
						<defs>
							<path id="SVGID_36_" d="M757.41,89.13c-0.28-8.76,10.01-12.8,20.72-12.66c6.52,0,12.43,0.81,18.34,4.83
								c0.47,0.32,1.1,0.8,1.9,1.43c0.68,0.54,1.65,0.47,2.25-0.16l1.93-2.05c0.63-0.67,0.59-1.72-0.08-2.35
								c-0.02-0.02-0.04-0.04-0.07-0.06c-1.03-0.86-1.86-1.51-2.5-1.94c-6.15-4.22-13.54-6.1-21.77-6.1
								c-13.91-0.14-27.4,5.7-27.26,19.2c0.14,13.77,13.35,16.27,26.71,18.5c11.27,1.81,22.67,3.76,22.39,13.63
								c-0.42,10.85-13.08,13.08-21.42,13.08c-8.04,0-16.94-2.67-22.86-8.85c-0.34-0.35-0.75-0.84-1.25-1.45
								c-0.57-0.71-1.62-0.83-2.33-0.26c-0.02,0.02-0.04,0.04-0.06,0.05l-2.55,2.27c-0.65,0.57-0.74,1.55-0.22,2.24
								c0.79,1.05,1.45,1.85,1.98,2.4c6.49,6.76,16.77,10.14,27.15,10.14c12.1,0,27.82-4.03,28.24-19.2
								c0.7-15.99-16.13-18.08-28.38-20.17C769.65,100.11,757.69,98.3,757.41,89.13z"/>
						</defs>
						<clipPath id="SVGID_37_">
							<use xlink:href="#SVGID_36_"  style="overflow:visible;"/>
						</clipPath>
						<g class="st17">
							<g>
								<rect id="SVGID_25_" x="748.35" y="70.04" class="st13" width="58.38" height="70.98"/>
							</g>
							<g>
								<defs>
									<rect id="SVGID_38_" x="748.35" y="70.04" width="58.38" height="70.98"/>
								</defs>
								<clipPath id="SVGID_39_">
									<use xlink:href="#SVGID_38_"  style="overflow:visible;"/>
								</clipPath>
								<rect x="748.67" y="69.79" class="st18" width="58.28" height="71.5"/>
							</g>
						</g>
					</g>
				</g>
			</g>
		</g>
	</g>
</g>
</svg>
