<svg width="605" height="194" viewBox="0 0 605 194" fill="none" xmlns="http://www.w3.org/2000/svg">
<path fill-rule="evenodd" clip-rule="evenodd" d="M2.20316 122.867C0.281957 126 0.311691 129.955 2.2798 133.059L37.902 189.252C40.214 192.899 44.6703 194.562 48.8063 193.321L151.604 162.482C157.214 160.799 160.036 154.541 157.584 149.222L91.5009 5.87265C88.2782 -1.11816 78.563 -1.69199 74.5397 4.87082L2.20316 122.867ZM89.7451 38.6438C88.3406 35.3938 83.5845 35.8944 82.8873 39.3656L57.4457 166.044C56.9092 168.715 59.4101 170.996 62.0207 170.217L133.045 149.015C135.118 148.397 136.186 146.107 135.328 144.121L89.7451 38.6438Z" fill="#2D3748"/>
<path fill-rule="evenodd" clip-rule="evenodd" d="M220.059 96.6332H226.32C232.172 96.6332 236.547 95.478 239.454 93.1656C242.36 90.8532 243.812 87.4876 243.812 83.0686C243.812 78.6107 242.594 75.3165 240.16 73.1884C237.724 71.0602 233.91 69.9961 228.713 69.9961H220.059V96.6332ZM263.023 82.3945C263.023 92.0516 260.006 99.4352 253.968 104.55C247.935 109.667 239.353 112.222 228.224 112.222H220.06V144.138H201.034V54.4072H229.695C240.581 54.4072 248.856 56.75 254.523 61.4333C260.19 66.1188 263.023 73.1059 263.023 82.3945V82.3945Z" fill="#2D3748"/>
<path fill-rule="evenodd" clip-rule="evenodd" d="M313.458 74.229C315.996 74.229 318.103 74.4132 319.78 74.7816L318.369 92.3338C316.854 91.9264 315.015 91.7205 312.845 91.7205C306.87 91.7205 302.217 93.2549 298.88 96.3236C295.547 99.3924 293.88 103.69 293.88 109.214V144.137H275.16V75.5185H289.338L292.101 87.0567H293.02C295.148 83.2121 298.021 80.1108 301.645 77.7572C305.264 75.4058 309.202 74.229 313.458 74.229" fill="#2D3748"/>
<path fill-rule="evenodd" clip-rule="evenodd" d="M329.708 144.137H348.428V75.5191H329.708V144.137ZM328.914 57.7797C328.914 51.6833 332.31 48.6362 339.102 48.6362C345.892 48.6362 349.29 51.6833 349.29 57.7797C349.29 60.6859 348.441 62.9463 346.744 64.563C345.045 66.1797 342.498 66.9859 339.102 66.9859C332.31 66.9859 328.914 63.9172 328.914 57.7797V57.7797Z" fill="#2D3748"/>
<path fill-rule="evenodd" clip-rule="evenodd" d="M414.336 123.758C414.336 130.797 411.891 136.157 407 139.839C402.11 143.521 394.796 145.363 385.059 145.363C380.066 145.363 375.814 145.025 372.294 144.349C368.775 143.675 365.48 142.682 362.412 141.373V125.906C365.89 127.544 369.806 128.914 374.167 130.019C378.523 131.122 382.359 131.675 385.672 131.675C392.464 131.675 395.862 129.712 395.862 125.785C395.862 124.311 395.412 123.115 394.512 122.194C393.611 121.272 392.057 120.23 389.846 119.062C387.638 117.896 384.69 116.537 381.008 114.981C375.731 112.773 371.852 110.727 369.379 108.844C366.902 106.962 365.101 104.804 363.979 102.368C362.852 99.9342 362.288 96.937 362.288 93.3762C362.288 87.2799 364.65 82.5662 369.379 79.2309C374.104 75.8956 380.803 74.229 389.478 74.229C397.744 74.229 405.784 76.03 413.599 79.6297L407.953 93.1314C404.516 91.6577 401.302 90.4527 398.316 89.51C395.329 88.5694 392.28 88.0991 389.172 88.0991C383.648 88.0991 380.885 89.5923 380.885 92.5787C380.885 94.2583 381.778 95.7103 383.555 96.937C385.336 98.1636 389.233 99.9862 395.247 102.4C400.609 104.57 404.538 106.594 407.032 108.475C409.527 110.358 411.369 112.526 412.556 114.981C413.744 117.437 414.336 120.362 414.336 123.758" fill="#2D3748"/>
<path fill-rule="evenodd" clip-rule="evenodd" d="M488.494 144.137H469.774V104.058C469.774 99.1085 468.944 95.3939 467.29 92.919C465.63 90.444 463.023 89.2044 459.462 89.2044C454.677 89.2044 451.199 90.9642 449.029 94.4837C446.86 98.0032 445.776 103.792 445.776 111.854V144.137H427.056V75.5185H441.358L443.874 84.2957H444.918C446.758 81.1446 449.42 78.6783 452.896 76.899C456.374 75.1197 460.364 74.229 464.865 74.229C475.136 74.229 482.09 77.586 485.733 84.2957H487.389C489.231 81.1034 491.942 78.6284 495.522 76.8687C499.103 75.1089 503.142 74.229 507.644 74.229C515.417 74.229 521.301 76.225 525.289 80.2127C529.279 84.2025 531.273 90.5957 531.273 99.3924V144.137H512.492V104.058C512.492 99.1085 511.662 95.3939 510.008 92.919C508.348 90.444 505.741 89.2044 502.18 89.2044C497.599 89.2044 494.172 90.8428 491.899 94.1153C489.63 97.3899 488.494 102.585 488.494 109.704V144.137Z" fill="#2D3748"/>
<path fill-rule="evenodd" clip-rule="evenodd" d="M585.75 112.344L578.507 112.589C573.065 112.754 569.015 113.735 566.355 115.536C563.694 117.337 562.366 120.077 562.366 123.761C562.366 129.038 565.393 131.678 571.448 131.678C575.785 131.678 579.255 130.429 581.851 127.933C584.449 125.438 585.75 122.125 585.75 117.99V112.344ZM591.273 144.136L587.652 134.806H587.16C584.009 138.777 580.767 141.527 577.431 143.061C574.098 144.595 569.751 145.363 564.391 145.363C557.801 145.363 552.617 143.482 548.831 139.717C545.047 135.953 543.155 130.593 543.155 123.636C543.155 116.355 545.701 110.984 550.794 107.525C555.891 104.069 563.572 102.155 573.842 101.787L585.749 101.418V98.4102C585.749 91.4556 582.188 87.9773 575.069 87.9773C569.586 87.9773 563.141 89.633 555.735 92.9488L549.537 80.3054C557.434 76.1725 566.192 74.105 575.806 74.105C585.012 74.105 592.071 76.1118 596.982 80.1211C601.89 84.1305 604.346 90.2268 604.346 98.4102V144.136H591.273Z" fill="#2D3748"/>
</svg>
