<svg width="309" height="82" viewBox="0 0 309 82" fill="none" xmlns="http://www.w3.org/2000/svg">
<path fill-rule="evenodd" clip-rule="evenodd" d="M272.49 41.8353C273.014 40.5311 273.568 39.2116 274.152 37.877C274.837 36.3136 275.511 34.8441 276.174 33.4684C276.423 32.718 276.703 32.051 277.014 31.4673C277.325 30.8837 277.647 30.2375 277.979 29.5288C278.062 29.4454 278.352 29.362 278.85 29.2786C279.348 29.1953 279.959 29.1223 280.685 29.0598C281.411 28.9972 282.189 28.9764 283.019 28.9972C283.848 29.0181 284.636 29.091 285.383 29.2161C286.13 29.3412 286.783 29.5184 287.343 29.7476C287.903 29.9769 288.266 30.2792 288.432 30.6544C288.1 31.2797 287.582 32.2177 286.876 33.4684C286.171 34.7191 285.445 36.0948 284.699 37.5956C283.952 39.0964 283.257 40.6493 282.614 42.2543C281.971 43.8594 281.567 45.308 281.401 46.6004C281.111 48.4347 281.079 49.7062 281.308 50.4149C281.536 51.1237 281.919 51.4363 282.459 51.3529C282.998 51.2696 283.641 50.8527 284.388 50.1023C285.134 49.3519 285.881 48.4347 286.628 47.3508C287.996 44.5576 289.137 42.2335 290.05 40.3783C290.962 38.5232 291.75 36.9494 292.414 35.6571C293.078 34.3647 293.627 33.2912 294.063 32.4366C294.499 31.582 294.944 30.7586 295.401 29.9665C296.023 29.7581 296.78 29.5913 297.672 29.4662C298.564 29.3412 299.466 29.3099 300.378 29.3724C301.291 29.435 302.152 29.5809 302.961 29.8102C303.77 30.0395 304.361 30.4042 304.734 30.9045L303.303 34.2188C302.722 35.5945 302.09 37.0953 301.405 38.7212C300.721 40.3471 300.016 41.9938 299.29 43.6613C298.564 45.3289 297.869 46.9652 297.205 48.5702C296.541 50.1752 295.94 51.6447 295.401 52.9788C295.816 52.6453 296.241 52.2284 296.676 51.7281C297.112 51.2279 297.62 50.54 298.201 49.6645C298.781 48.7891 299.507 47.6635 300.378 46.2877C301.25 44.912 302.328 43.1611 303.614 41.0349C304.278 39.9093 304.993 39.2423 305.761 39.0339C306.528 38.8254 307.192 38.8775 307.752 39.1902C308.312 39.5029 308.695 39.9823 308.903 40.6285C309.11 41.2746 308.986 41.9104 308.529 42.5357C307.617 44.2033 306.58 46.0063 305.418 47.9449C304.257 49.8834 303.002 51.7073 301.654 53.4165C300.306 55.1258 298.896 56.6057 297.423 57.8564C295.95 59.1071 294.467 59.8783 292.974 60.1701C292.601 61.7126 292.072 63.3593 291.387 65.1103C290.703 66.8612 289.946 68.5913 289.116 70.3006C288.287 72.0098 287.426 73.6565 286.534 75.2407C285.642 76.8249 284.802 78.2215 284.014 79.4304C283.433 80.3476 282.666 81.0146 281.712 81.4315C280.758 81.8484 279.794 82.036 278.819 81.9943C277.844 81.9526 276.921 81.6921 276.05 81.2126C275.179 80.7332 274.536 80.0141 274.121 79.0552C273.748 77.9713 273.654 76.877 273.841 75.7722C274.028 74.6675 274.411 73.5627 274.992 72.458C275.573 71.3532 276.288 70.2484 277.139 69.1437C277.989 68.0389 278.871 66.9446 279.783 65.8607C280.447 65.0686 281.079 64.3078 281.681 63.5782C282.282 62.8487 282.842 62.1087 283.361 61.3583C283.879 60.6079 284.346 59.8158 284.761 58.982C285.176 58.1482 285.508 57.2519 285.756 56.2931C285.051 56.9601 284.325 57.5646 283.579 58.1065C282.832 58.6485 282.044 59.0967 281.214 59.451C280.385 59.8054 279.503 60.0242 278.57 60.1076C277.637 60.191 276.651 60.0868 275.614 59.7949C273.416 59.2113 271.86 58.117 270.948 56.5119C270.69 56.0579 270.476 55.5763 270.308 55.0672C269.668 55.9507 268.958 56.7553 268.179 57.4812C267.329 58.2733 266.385 58.9299 265.348 59.451C264.311 59.9721 263.149 60.2327 261.863 60.2327C259.706 59.9409 258.099 59.1071 257.041 57.7313C256.273 56.7327 255.702 55.6079 255.328 54.3567C255.018 54.7443 254.708 55.1188 254.397 55.4801C253.069 57.0226 251.711 58.2316 250.321 59.1071C248.932 59.9825 247.511 60.4203 246.059 60.4203C245.354 60.4203 244.421 60.1597 243.259 59.6386C242.098 59.1175 240.843 58.4401 239.495 57.6063C238.147 56.7725 236.819 55.8345 235.513 54.7923C234.206 53.75 233.076 52.7078 232.122 51.6656C231.665 52.9997 231.313 54.6047 231.064 56.4807C230.815 58.3567 230.981 60.7538 231.562 63.672C229.944 63.3385 228.585 62.9112 227.486 62.3901C226.387 61.869 225.474 61.327 224.748 60.7642C224.022 60.2014 223.462 59.6595 223.068 59.1383C222.674 58.6172 222.415 58.1899 222.291 57.8564C222.022 57.0871 221.833 56.2531 221.724 55.3542C221.177 55.9618 220.62 56.5458 220.051 57.106C219.014 58.0649 217.707 58.8257 216.131 59.3885C214.554 59.9513 212.854 60.2327 211.029 60.2327C209.784 60.2327 208.56 60.0555 207.357 59.7011C206.155 59.3468 205.035 58.8465 203.997 58.2003C202.96 57.5542 202.048 56.7725 201.26 55.8553C200.818 55.341 200.441 54.7873 200.129 54.1943C199.886 54.4622 199.641 54.724 199.393 54.9799C197.858 56.5641 196.189 57.8356 194.384 58.7944C192.58 59.7533 190.578 60.2327 188.38 60.2327C187.384 60.2327 186.327 60.0972 185.207 59.8262C184.087 59.5552 183.029 59.1592 182.033 58.6381C181.038 58.117 180.146 57.4604 179.358 56.6683C178.774 56.0817 178.316 55.4265 177.982 54.7026C177.555 55.2426 177.122 55.7519 176.682 56.2305C175.189 57.8564 173.582 59.0654 171.86 59.8575C170.139 60.6496 168.179 60.858 165.98 60.4828C165.068 60.3161 164.311 60.0555 163.709 59.7011C163.108 59.3468 162.62 58.9507 162.247 58.513C161.874 58.0753 161.594 57.5959 161.407 57.0747C161.22 56.5536 161.106 56.0221 161.065 55.4801C160.982 54.4379 161.054 53.3019 161.282 52.0721C161.511 50.8422 161.811 49.602 162.185 48.3513C162.558 47.1007 162.973 45.8813 163.429 44.6931C163.885 43.505 164.3 42.4315 164.674 41.4727C165.005 40.5138 165.254 39.753 165.42 39.1902C165.586 38.6274 165.607 38.2418 165.482 38.0333C165.358 37.8249 165.057 37.7728 164.58 37.877C164.103 37.9812 163.408 38.2209 162.496 38.5961C161.459 39.0547 160.525 39.7634 159.696 40.7223C158.866 41.6811 158.14 42.8171 157.518 44.1303C156.896 45.4435 156.367 46.8401 155.931 48.3201C155.496 49.8 155.164 51.28 154.936 52.7599C154.708 54.2399 154.573 55.6573 154.531 57.0122C154.49 58.3671 154.531 59.524 154.656 60.4828C152.955 59.9825 151.555 59.5657 150.456 59.2321C149.357 58.8986 148.465 58.5547 147.78 58.2003C147.096 57.846 146.598 57.4604 146.287 57.0435C145.976 56.6266 145.738 56.0846 145.572 55.4176C145.646 54.4472 145.774 53.412 145.957 52.3121C145.383 52.9651 144.778 53.6043 144.141 54.2295C142.398 55.9387 140.49 57.4395 138.416 58.7319C136.342 60.0242 134.144 61.0456 131.821 61.796C129.498 62.5464 127.154 62.9216 124.79 62.9216C122.301 62.9216 119.791 62.463 117.261 61.5459C114.731 60.6287 112.459 59.2947 110.448 57.5437C108.436 55.7928 106.808 53.6563 105.563 51.1341C104.319 48.6119 103.738 45.7249 103.821 42.4732C103.904 40.5138 104.329 38.4815 105.097 36.3762C105.864 34.2709 106.901 32.1865 108.208 30.1228C109.514 28.0592 111.049 26.0373 112.812 24.0571C114.575 22.0769 116.462 20.2217 118.474 18.4916C120.486 16.7615 122.591 15.1982 124.79 13.8016C126.988 12.405 129.207 11.2273 131.447 10.2685C133.895 9.30964 136.332 8.66347 138.758 8.32996C141.185 7.99644 143.352 8.12151 145.26 8.70516C147.169 9.28881 148.703 10.4457 149.865 12.1758C151.026 13.9059 151.586 16.3551 151.545 19.5234C151.503 21.6079 150.933 23.6089 149.834 25.5266C148.735 27.4443 147.386 29.1432 145.789 30.6231C144.192 32.1031 142.471 33.2808 140.625 34.1562C138.779 35.0317 137.109 35.4695 135.616 35.4695C134.952 35.4695 134.175 35.261 133.283 34.8441C132.391 34.4272 131.489 33.8644 130.576 33.1557C132.692 31.905 134.558 30.3834 136.176 28.5908C137.794 26.7981 138.976 25.0681 139.723 23.4005C140.677 20.8158 140.915 19.0544 140.438 18.1164C139.961 17.1784 139.069 16.7824 137.763 16.9283C136.456 17.0742 134.88 17.6474 133.034 18.648C131.188 19.6485 129.394 20.8054 127.652 22.1186C125.91 23.4318 124.354 24.7867 122.985 26.1832C121.616 27.5798 120.745 28.7367 120.372 29.6538C119.127 31.1963 118.101 32.8743 117.292 34.6878C116.483 36.5013 115.933 38.3147 115.643 40.1282C115.353 41.9417 115.332 43.703 115.581 45.4123C115.83 47.1215 116.41 48.6431 117.323 49.9772C118.236 51.3113 119.501 52.3847 121.119 53.1977C122.736 54.0106 124.748 54.4588 127.154 54.5421C128.938 54.6255 130.887 54.1357 133.003 53.0726C135.118 52.0095 137.296 50.6338 139.536 48.9454C141.776 47.257 144.016 45.3602 146.256 43.2549C147.18 42.3868 148.082 41.5277 148.963 40.6774C149.125 40.1744 149.29 39.6683 149.46 39.1589C150.477 36.1156 151.597 33.0724 152.82 30.029C154.044 26.9857 155.289 24.1509 156.554 21.5245C157.819 18.8981 159.053 16.5948 160.256 14.6146C161.459 12.6343 162.517 11.2065 163.429 10.331C163.844 9.95582 164.632 9.74738 165.794 9.70569C166.955 9.664 168.106 9.7578 169.247 9.98709C170.388 10.2164 171.362 10.5499 172.171 10.9876C172.98 11.4254 173.239 11.9152 172.949 12.4572C172.534 13.2076 171.985 14.1456 171.3 15.2712C170.616 16.3968 169.89 17.6162 169.122 18.9294C168.355 20.2426 167.557 21.5975 166.727 22.994C165.897 24.3906 165.13 25.7351 164.425 27.0274C163.72 28.3198 163.097 29.4975 162.558 30.5606C162.019 31.6237 161.645 32.4887 161.438 33.1557C163.554 30.9879 165.597 29.6017 167.567 28.9972C169.537 28.3928 171.165 28.5178 172.451 29.3724C173.737 30.2271 174.556 31.7695 174.909 33.9999C175.262 36.2303 174.899 39.0547 173.82 42.4732C173.198 44.3909 172.762 45.8291 172.513 46.788C172.265 47.7468 172.078 48.5181 171.953 49.1017C171.788 49.9772 171.767 50.54 171.891 50.7901C172.016 51.0403 172.244 51.0715 172.576 50.8839C172.908 50.6963 173.312 50.3524 173.789 49.8521C174.266 49.3519 174.753 48.7474 175.251 48.0387C175.749 47.4133 176.247 46.7567 176.745 46.0689C177.104 45.5717 177.448 45.0962 177.775 44.6426C177.794 44.5864 177.814 44.5303 177.833 44.4743C178.186 43.4737 178.59 42.5149 179.047 41.5977C179.918 39.8885 180.955 38.2939 182.158 36.8139C183.361 35.334 184.667 34.0416 186.078 32.9368C187.488 31.8321 188.94 30.9566 190.433 30.3104C191.927 29.6643 193.378 29.3412 194.789 29.3412C197.278 29.3412 199.072 29.7685 200.171 30.6231C201.27 31.4777 201.83 32.5721 201.851 33.9061C201.872 35.2402 201.446 36.7201 200.575 38.346C199.704 39.9719 198.584 41.5769 197.215 43.1611C195.846 44.7452 194.291 46.1939 192.549 47.5071C190.807 48.8203 189.085 49.8313 187.384 50.54C187.426 51.6656 187.633 52.4994 188.007 53.0413C188.38 53.5833 188.867 53.9168 189.469 54.0419C190.07 54.1669 190.755 54.1148 191.522 53.8855C192.29 53.6562 193.047 53.2915 193.793 52.7912C194.54 52.3743 195.318 51.7177 196.126 50.8214C196.935 49.9251 197.755 48.9454 198.584 47.8823C198.699 47.7351 198.813 47.5871 198.927 47.4383C199.114 45.627 199.581 43.8574 200.326 42.1293C201.073 40.3992 202.058 38.7629 203.282 37.2204C204.506 35.6779 205.864 34.323 207.357 33.1557C208.851 31.9884 210.437 31.0609 212.117 30.373C213.797 29.6851 215.467 29.3412 217.126 29.3412C217.873 29.3412 218.651 29.435 219.46 29.6226C220.268 29.8102 221.025 30.102 221.731 30.498C222.436 30.8941 223.027 31.3944 223.504 31.9988C223.981 32.6033 224.261 33.3225 224.344 34.1562C224.385 34.99 224.261 35.8968 223.971 36.8765C223.68 37.8561 223.317 38.8046 222.882 39.7217C222.446 40.6389 222 41.4727 221.544 42.2231C221.088 42.9735 220.735 43.5571 220.486 43.974C220.113 44.3492 219.532 44.7348 218.744 45.1309C217.956 45.5269 217.023 45.7249 215.944 45.7249C215.28 45.7249 214.596 45.5894 213.891 45.3185C213.186 45.0475 212.594 44.6514 212.117 44.1303C211.64 43.6092 211.35 42.9735 211.246 42.2231C211.143 41.4727 211.402 40.6389 212.024 39.7217C212.729 38.8046 213.497 38.2105 214.326 37.9395C215.156 37.6685 215.965 37.4288 216.753 37.2204C216.753 37.0536 216.815 36.8452 216.94 36.5951C217.064 36.3449 217.157 36.0739 217.22 35.7821C217.282 35.4903 217.292 35.2297 217.251 35.0005C217.209 34.7712 217.043 34.594 216.753 34.4689H216.815C216.11 34.0937 215.322 34.1875 214.451 34.7503C213.58 35.3131 212.74 36.1573 211.931 37.2829C211.122 38.4085 210.396 39.7321 209.753 41.2538C209.11 42.7754 208.674 44.3075 208.446 45.85C208.218 47.3925 208.26 48.8516 208.571 50.2273C208.882 51.6031 209.597 52.7287 210.717 53.6041H210.655C211.734 54.2712 212.626 54.5526 213.331 54.4483C214.036 54.3441 214.886 54.0002 215.882 53.4165C216.545 52.9996 217.251 52.3743 217.997 51.5405C218.744 50.7067 219.522 49.7583 220.331 48.6953C221.139 47.6322 221.959 46.4753 222.788 45.2247C222.808 45.1955 222.827 45.1664 222.846 45.1372C223.402 43.0241 224.109 40.8438 224.966 38.5961C225.92 36.0948 226.957 33.6247 228.077 31.1859C229.197 28.7471 230.359 26.4021 231.562 24.1509C232.765 21.8997 233.905 19.8465 234.984 17.9914C236.062 16.1362 237.027 14.5312 237.877 13.1763C238.727 11.8214 239.381 10.8521 239.837 10.2685C240.335 9.8516 240.988 9.59105 241.797 9.48683C242.606 9.3826 243.436 9.40345 244.286 9.54936C245.136 9.69527 245.924 9.96625 246.65 10.3623C247.376 10.7583 247.905 11.2065 248.237 11.7068C248.071 12.3321 247.729 13.2388 247.21 14.427C246.692 15.6151 246.059 16.9387 245.312 18.3978C244.566 19.857 243.778 21.3682 242.948 22.9315C242.118 24.4948 241.341 25.9644 240.615 27.3401C239.889 28.7159 239.267 29.904 238.748 30.9045C238.23 31.9051 237.908 32.5721 237.784 32.9056C238.987 31.9884 240.283 31.1963 241.673 30.5293C243.062 29.8623 244.524 29.5288 246.059 29.5288C248.133 29.5288 249.824 30.0603 251.13 31.1234C252.437 32.1865 253.194 33.6977 253.401 35.6571C253.526 37.408 253.184 39.1068 252.375 40.7535C251.566 42.4002 250.425 43.8802 248.952 45.1934C247.48 46.5066 245.758 47.5801 243.788 48.4139C241.818 49.2477 239.713 49.7479 237.473 49.9147L241.206 52.2597C242.367 52.9892 243.612 53.2498 244.939 53.0413C246.433 52.8329 247.77 52.3639 248.952 51.6343C250.135 50.9048 251.224 50.0189 252.219 48.9767C253.215 47.9344 254.138 46.7776 254.988 45.5061C255.087 45.3585 255.185 45.2108 255.284 45.063C255.544 43.7433 255.87 42.5048 256.263 41.3476C257.632 37.9291 258.96 34.6878 260.246 31.6236C261.532 28.5595 262.776 25.7559 263.979 23.2129C265.182 20.6699 266.302 18.4083 267.339 16.428C268.376 14.4478 269.33 12.7907 270.201 11.4566C270.45 11.1648 271.114 10.9251 272.192 10.7375C273.271 10.5499 274.422 10.4561 275.645 10.4561C276.869 10.4561 277.999 10.5499 279.036 10.7375C280.074 10.9251 280.675 11.2482 280.841 11.7068C280.716 12.207 280.468 12.874 280.094 13.7078C279.721 14.5416 279.265 15.5004 278.725 16.5844C278.186 17.6683 277.585 18.846 276.921 20.1175C276.257 21.389 275.552 22.7126 274.805 24.0884C271.155 31.0921 267.857 38.4502 264.912 46.1627C264.58 46.9131 264.332 47.7364 264.166 48.6327C264 49.529 263.979 50.2482 264.103 50.7901C264.228 51.3321 264.518 51.5822 264.974 51.5405C265.431 51.4988 266.136 50.9152 267.09 49.7896C267.588 49.1643 268.137 48.4451 268.739 47.6322C269.34 46.8193 269.911 45.9855 270.45 45.1309C270.989 44.2762 271.497 43.4633 271.974 42.6921C272.164 42.385 272.336 42.0994 272.49 41.8353ZM187.073 44.4743C187.654 44.1407 188.318 43.7134 189.064 43.1923C189.811 42.6712 190.599 41.9938 191.429 41.16C192.258 40.4096 192.943 39.555 193.482 38.5961C194.021 37.6373 194.374 36.8243 194.54 36.1573C194.706 35.4903 194.633 35.0838 194.322 34.9379C194.011 34.792 193.441 35.1359 192.611 35.9697C192.072 36.5117 191.522 37.1683 190.962 37.9395C190.402 38.7108 189.873 39.482 189.375 40.2533C188.878 41.0245 188.421 41.7541 188.007 42.4419C187.592 43.1298 187.281 43.6613 187.073 44.0365V44.4743ZM240.77 37.9083C240.273 38.3668 239.733 38.9401 239.153 39.6279C238.572 40.3158 237.991 41.0662 237.41 41.8791C236.83 42.6921 236.27 43.5467 235.73 44.443C235.191 45.3393 234.714 46.2252 234.299 47.1007C236.042 46.8505 237.504 46.4336 238.686 45.85C239.868 45.2663 240.822 44.5889 241.548 43.8177C242.274 43.0464 242.782 42.2543 243.073 41.4414C243.363 40.6285 243.487 39.8885 243.446 39.2215C243.321 37.8874 243.052 37.137 242.637 36.9703C242.222 36.8035 241.6 37.1162 240.77 37.9083Z" fill="#45C8F1"/>
<path fill-rule="evenodd" clip-rule="evenodd" d="M74.5673 15.6287C74.3403 15.1604 74.0095 14.7326 73.5163 14.4595C72.9734 14.1607 72.3801 14.1101 71.8245 14.2096L71.785 14.1883C63.4321 15.639 55.0043 22.0355 49.9205 31.8396C44.4434 42.4042 44.3643 54.0045 48.8258 61.9429C57.7887 61.2098 67.1466 54.5975 72.6236 44.0329C77.7281 34.1971 78.1383 23.4716 74.5673 15.6287Z" fill="#828D8C"/>
<path fill-rule="evenodd" clip-rule="evenodd" d="M71.7682 15.2918C63.5382 16.8021 55.5432 23.319 50.863 32.3459C45.9082 41.9025 45.3672 52.9752 49.4209 60.7948C58.0507 59.7867 66.7283 53.0832 71.681 43.5269C76.4171 34.4005 77.152 23.8866 73.5996 16.0839C73.4496 15.7768 73.2521 15.5481 73.0065 15.4125C72.7234 15.2537 72.3571 15.2112 72.0096 15.2771C71.9265 15.2897 71.8432 15.3003 71.7682 15.2918ZM48.8258 63.0272C48.4451 63.0272 48.0912 62.8198 47.9018 62.4808C43.0658 53.8774 43.4776 41.9426 48.9778 31.3336C54.074 21.5039 62.5329 14.6946 71.606 13.1189C71.6914 13.1018 71.7808 13.0997 71.8683 13.1082C72.6194 13.017 73.3749 13.1505 74.022 13.5063C74.6629 13.8599 75.1665 14.4127 75.5224 15.1498C79.3596 23.5753 78.6064 34.8283 73.5661 44.5394C68.0664 55.1461 58.6189 62.2306 48.9112 63.023C48.882 63.0251 48.8548 63.0272 48.8258 63.0272Z" fill="#121716"/>
<path fill-rule="evenodd" clip-rule="evenodd" d="M70.6572 20.2311C72.9838 21.5082 75.05 23.0522 76.7876 24.7423C76.5423 21.4638 75.8137 18.365 74.5673 15.6287C74.3403 15.1604 74.0095 14.7326 73.5163 14.4595C72.9734 14.1607 72.3801 14.1101 71.8244 14.2096L71.785 14.1883C68.905 14.6903 66.025 15.8172 63.2655 17.4267C65.7107 17.9733 68.2245 18.8966 70.6572 20.2311Z" fill="#121716"/>
<path fill-rule="evenodd" clip-rule="evenodd" d="M57.5951 22.6201C55.3726 24.8441 53.2521 27.36 51.3022 30.1644C55.4184 29.8762 59.9653 30.8909 64.0855 33.3497C68.1829 35.7898 71.2606 39.3142 73.0251 43.0884C74.4633 39.9452 75.5558 36.7938 76.3466 33.7057C74.2051 30.8739 71.4373 28.3598 68.1017 26.369C64.7055 24.34 61.1305 23.1198 57.5951 22.6201Z" fill="#121716"/>
<path fill-rule="evenodd" clip-rule="evenodd" d="M46.9799 35.9381C45.5733 38.7083 44.3891 41.4789 43.4259 44.2238C47.261 44.1304 51.3043 45.1364 54.9356 47.3962C58.6064 49.667 60.2462 53.1215 61.9193 56.6755C65.2259 55.0508 66.8427 51.9417 68.603 49.3745C66.4869 45.6237 63.4384 42.3048 59.4596 39.8394C55.491 37.374 51.2107 36.1437 46.9799 35.9381Z" fill="#121716"/>
<path fill-rule="evenodd" clip-rule="evenodd" d="M16.7875 5.59768C20.2731 9.14315 21.2073 13.9447 18.8725 16.3189C16.5399 18.6931 11.8223 17.7444 8.33879 14.1968C4.85532 10.6513 3.92086 5.84974 6.25354 3.47554C8.58645 1.10133 13.3038 2.0522 16.7875 5.59768Z" fill="#828D8C"/>
<path fill-rule="evenodd" clip-rule="evenodd" d="M14.4776 7.95086C16.2277 9.72572 16.7852 12.0449 15.7303 13.1167C14.6691 14.1947 12.3944 13.627 10.6466 11.8479C8.90073 10.0687 8.34298 7.75596 9.39999 6.67989C10.4593 5.60193 12.7296 6.17174 14.4776 7.95086Z" fill="#121716"/>
<path fill-rule="evenodd" clip-rule="evenodd" d="M9.66229 3.25354C8.89425 3.25354 7.81007 3.42505 7.00698 4.24243C5.12575 6.15715 6.08087 10.3658 9.092 13.4305C11.0064 15.379 13.3872 16.5418 15.462 16.5418C16.2298 16.5418 17.316 16.3702 18.1194 15.5526C18.9891 14.6674 19.2908 13.2672 18.9684 11.6088C18.6145 9.79169 17.5721 7.92989 16.0341 6.36457C14.1197 4.41607 11.739 3.25354 9.66229 3.25354ZM15.462 18.7104C12.8336 18.7104 9.88906 17.3105 7.58539 14.9637C3.6254 10.9332 2.70974 5.54931 5.50037 2.70901C6.54509 1.64569 7.98299 1.08463 9.66229 1.08463C12.2904 1.08463 15.235 2.48458 17.5407 4.83138C19.3741 6.69507 20.6227 8.95304 21.0576 11.1874C21.5237 13.5786 21.014 15.6733 19.626 17.0861C18.5813 18.1494 17.1413 18.7104 15.462 18.7104Z" fill="#121716"/>
<path fill-rule="evenodd" clip-rule="evenodd" d="M48.8258 5.59768C45.3402 9.14315 44.4058 13.9447 46.7408 16.3189C49.0735 18.6931 53.791 17.7444 57.2745 14.1968C60.758 10.6513 61.6922 5.84974 59.3595 3.47554C57.0269 1.10133 52.3093 2.0522 48.8258 5.59768Z" fill="#828D8C"/>
<path fill-rule="evenodd" clip-rule="evenodd" d="M51.1358 7.95086C49.3857 9.72572 48.8279 12.0449 49.8828 13.1167C50.944 14.1947 53.2187 13.627 54.9667 11.8479C56.7126 10.0687 57.2704 7.75596 56.2134 6.67989C55.154 5.60193 52.8838 6.17174 51.1358 7.95086Z" fill="#121716"/>
<path fill-rule="evenodd" clip-rule="evenodd" d="M49.5793 6.36457C48.0413 7.92989 46.9987 9.79169 46.645 11.6088C46.3223 13.2672 46.6241 14.6674 47.494 15.5526C48.2973 16.3702 49.3836 16.5418 50.1514 16.5418C52.2262 16.5418 54.6067 15.379 56.5214 13.4305C59.5323 10.3658 60.4876 6.15715 58.6064 4.24243C57.8031 3.42505 56.7189 3.25354 55.9511 3.25354C53.8742 3.25354 51.4937 4.41607 49.5793 6.36457ZM45.9874 17.0861C44.5994 15.6733 44.0895 13.5786 44.5558 11.1874C44.9907 8.95304 46.2392 6.69507 48.0724 4.83138C50.3782 2.48458 53.3227 1.08463 55.9511 1.08463C57.6304 1.08463 59.0683 1.64569 60.1128 2.70901C62.9036 5.54931 61.9877 10.9332 58.0278 14.9637C55.7241 17.3105 52.7798 18.7104 50.1514 18.7104C48.4721 18.7104 47.0321 18.1494 45.9874 17.0861Z" fill="#121716"/>
<path fill-rule="evenodd" clip-rule="evenodd" d="M56.3338 14.4154C50.84 6.70357 42.379 1.08463 32.8066 1.08463C23.2343 1.08463 14.773 6.70357 9.27927 14.4154C2.59526 23.7936 -1.27722 37.0884 2.69925 48.3348C6.06643 57.8616 14.1508 65.101 23.6565 67.8586C26.6282 68.7227 29.7164 69.1527 32.8066 69.1527C35.8967 69.1527 38.9849 68.7227 41.9566 67.8586C51.4623 65.101 59.5469 57.8616 62.914 48.3348C66.8907 37.0884 63.018 23.7936 56.3338 14.4154Z" fill="#828D8C"/>
<path fill-rule="evenodd" clip-rule="evenodd" d="M58.604 18.6828C58.2234 17.1429 57.2557 15.6816 56.3547 14.4151C55.206 12.8011 53.9201 11.2887 52.5279 9.89087C47.5606 7.46375 41.8837 7.468 37.5554 10.4394C35.2995 11.9899 33.7181 14.1545 32.8067 16.6218C31.8952 14.1545 30.3136 11.9899 28.058 10.4394C23.7294 7.468 18.0525 7.46375 13.0854 9.89087C11.6932 11.2887 10.4071 12.8011 9.25863 14.4151C8.35736 15.6816 7.3897 17.1429 7.00904 18.6828C6.61144 20.2861 6.03929 22.438 6.11427 24.0603C6.23705 26.6993 7.84138 28.6438 9.95983 30.0395C10.4779 30.3825 16.0197 34.6991 15.5035 35.0062C15.8948 34.773 16.3881 34.4893 16.9372 34.1949V34.6884C18.9475 33.4959 21.869 32.0345 23.8252 32.2632L23.8501 32.2675C23.9065 32.2738 23.9522 32.2993 24.0063 32.31C24.5452 32.4538 25.0176 32.7208 25.3797 33.1699C26.2162 34.2056 26.2912 35.4021 25.9999 36.5649C26.2162 36.404 26.4098 36.2006 26.6201 36.0291C26.5971 36.8297 26.4181 37.4376 26.4181 37.4376L26.0539 37.9585C28.1993 38.3716 30.4531 38.5982 32.7858 38.5982H32.7983C32.8148 38.5982 32.8192 38.5982 32.8192 38.5982C35.16 38.5982 37.4138 38.3716 39.5594 37.9585L39.1952 37.4376C39.1952 37.4376 39.0162 36.8297 38.9933 36.0291C39.2033 36.2006 39.3969 36.404 39.6134 36.5649C39.3222 35.4021 39.3969 34.2056 40.2336 33.1699C40.5955 32.7208 41.0681 32.4538 41.607 32.31C41.6611 32.2993 41.7071 32.2738 41.7632 32.2675L41.7881 32.2632C43.744 32.0345 46.6658 33.4959 48.6761 34.6884V34.1949C49.2253 34.4893 49.7185 34.773 50.1098 35.0062C49.5936 34.6991 55.1352 30.3825 55.6533 30.0395C57.7717 28.6438 59.3763 26.6993 59.4991 24.0603C59.574 22.438 59.0016 20.2861 58.604 18.6828Z" fill="#EDEDEA"/>
<path fill-rule="evenodd" clip-rule="evenodd" d="M32.8067 43.0184C24.7388 43.0184 18.2025 51.211 18.2025 61.318C18.2025 63.3364 18.4731 65.2703 18.9538 67.0853C19.836 67.3541 20.7101 67.6442 21.6154 67.8583C25.2506 68.7224 29.0277 69.1524 32.8067 69.1524C36.5856 69.1524 40.3627 68.7224 43.9982 67.8583C44.9032 67.6442 45.7773 67.3541 46.6596 67.0853C47.1403 65.2703 47.4109 63.3364 47.4109 61.318C47.4109 51.211 40.8745 43.0184 32.8067 43.0184Z" fill="#EDEDEA"/>
<path fill-rule="evenodd" clip-rule="evenodd" d="M34.4547 26.4323C34.0949 26.5511 33.7182 26.6104 33.3415 26.6421C33.3707 26.5764 33.4246 26.5256 33.4246 26.4515V24.9816C33.4914 24.9287 33.5643 24.8927 33.6223 24.8207L34.7543 23.4271C35.2018 22.8764 34.9917 22.4252 34.2882 22.4252H31.3251C30.6216 22.4252 30.4116 22.8764 30.8588 23.4271L31.9908 24.8207C32.0909 24.9457 32.2116 25.0324 32.3343 25.1002V26.4515C32.3343 26.5256 32.3863 26.5764 32.4135 26.6421C32.0366 26.6081 31.6622 26.5488 31.3043 26.4323C30.8421 26.2821 29.887 25.7186 29.7559 26.5934C29.7559 26.6464 29.7559 26.6993 29.7559 26.7522C29.7559 28.5039 31.1462 29.923 32.8754 29.9272H32.8835C34.6129 29.923 36.0028 28.5039 36.0028 26.7522C36.0028 26.6993 36.0028 26.6464 36.0028 26.5934C35.8719 25.7186 34.9168 26.2821 34.4547 26.4323Z" fill="#121716"/>
<path fill-rule="evenodd" clip-rule="evenodd" d="M32.8067 2.16868C24.2352 2.16868 15.9737 6.8644 10.143 15.0525C2.8014 25.3522 0.273053 38.2719 3.70244 47.9681C6.85284 56.885 14.6108 64.1075 23.948 66.8165C29.6665 68.4768 35.9489 68.4768 41.6632 66.8165C51.0025 64.1075 58.7603 56.885 61.9106 47.9681C65.3403 38.2719 62.8119 25.3522 55.4725 15.0525C49.6394 6.8644 41.3782 2.16868 32.8067 2.16868ZM32.8067 70.2367C29.5894 70.2367 26.4119 69.7879 23.3631 68.9003C13.227 65.9606 5.12782 58.4101 1.69634 48.7012C-2.74644 36.137 2.25618 22.4231 8.41794 13.7775C14.6544 5.0215 23.5444 0 32.8067 0C42.0689 0 50.9589 5.0215 57.1975 13.7775C63.3572 22.4231 68.3598 36.137 63.917 48.7012C60.4855 58.4101 52.3863 65.9606 42.2481 68.9003C39.2015 69.7879 36.0237 70.2367 32.8067 70.2367Z" fill="#121716"/>
<path fill-rule="evenodd" clip-rule="evenodd" d="M24.2456 13.8727C23.3467 13.3792 22.3437 13.1292 21.2635 13.1292C18.2503 13.1292 15.2496 15.705 13.7783 17.4373C11.3042 20.3497 9.01518 26.2079 13.7472 28.2178C15.4578 28.9445 17.343 29.1647 19.1827 29.1985C21.5321 29.245 24.0437 29.1902 25.898 27.5042C27.779 25.7928 28.0828 22.9972 27.9081 20.5698C27.6813 17.4182 26.3806 15.0376 24.2456 13.8727Z" fill="#121716"/>
<path fill-rule="evenodd" clip-rule="evenodd" d="M24.358 18.9348C24.3246 18.5197 23.8773 18.0622 23.615 17.825C23.0303 17.306 22.2832 17.018 21.507 17.018C21.2617 17.018 21.0098 17.0454 20.7538 17.1007C19.7634 17.3123 18.9308 17.9202 18.471 18.7695C18.2963 19.0914 17.9987 19.7333 18.0755 20.0997C18.14 20.4047 18.4232 20.6142 18.7124 20.6672C19.0973 20.7392 19.2472 20.555 19.4303 20.2374C19.4656 20.1758 19.503 20.1122 19.5448 20.0447C20.1023 19.1656 20.8891 18.6828 21.7609 18.6828C22.25 18.6828 22.5475 18.8266 22.9909 19.1255C23.2822 19.3225 23.6006 19.7184 23.9959 19.5065C24.2809 19.352 24.3747 19.1507 24.358 18.9348Z" fill="#FFFFFE"/>
<path fill-rule="evenodd" clip-rule="evenodd" d="M41.3677 13.8727C42.2666 13.3792 43.2696 13.1292 44.3496 13.1292C47.363 13.1292 50.3635 15.705 51.8348 17.4373C54.3091 20.3497 56.5981 26.2079 51.8662 28.2178C50.1555 28.9445 48.2701 29.1647 46.4307 29.1985C44.0813 29.245 41.5696 29.1902 39.7153 27.5042C37.8341 25.7928 37.5303 22.9972 37.705 20.5698C37.932 17.4182 39.2325 15.0376 41.3677 13.8727Z" fill="#121716"/>
<path fill-rule="evenodd" clip-rule="evenodd" d="M41.2552 18.9348C41.2886 18.5197 41.7361 18.0622 41.9982 17.825C42.5831 17.306 43.33 17.018 44.1062 17.018C44.3517 17.018 44.6036 17.0454 44.8596 17.1007C45.85 17.3123 46.6826 17.9202 47.1424 18.7695C47.3171 19.0914 47.6147 19.7333 47.5379 20.0997C47.4731 20.4047 47.1904 20.6142 46.9007 20.6672C46.5159 20.7392 46.3662 20.555 46.1831 20.2374C46.1475 20.1758 46.1102 20.1122 46.0686 20.0447C45.5109 19.1656 44.7245 18.6828 43.8525 18.6828C43.3632 18.6828 43.0658 18.8266 42.6225 19.1255C42.3312 19.3225 42.0128 19.7184 41.6175 19.5065C41.3322 19.352 41.2387 19.1507 41.2552 18.9348Z" fill="#FFFFFE"/>
<path fill-rule="evenodd" clip-rule="evenodd" d="M11.66 38.6809C11.3771 38.6809 11.0939 38.5665 10.8838 38.34C10.48 37.9037 10.5009 37.2174 10.9296 36.8063C11.1731 36.5734 13.3581 34.502 14.9084 33.7416C15.4348 33.4855 16.0738 33.7078 16.3296 34.2478C16.5856 34.7858 16.363 35.434 15.8322 35.6943C14.771 36.2155 12.9877 37.8146 12.3905 38.3865C12.1843 38.5835 11.9221 38.6809 11.66 38.6809Z" fill="#121716"/>
<path fill-rule="evenodd" clip-rule="evenodd" d="M24.3893 31.7973C21.4487 29.9972 16.8686 32.5046 15.283 33.4895C13.976 32.8373 12.8234 31.884 11.7682 30.8739C10.4967 29.6582 9.69758 28.8935 8.84876 27.2965C8.64892 27 8.33673 26.7798 7.95585 26.7798C6.70943 26.7798 6.73032 28.1226 7.2254 28.9147C8.7529 31.3546 10.4967 32.9348 12.8545 34.5486C13.5183 35.0019 14.2195 35.4212 14.9667 35.722C15.2911 35.8533 15.6679 35.8195 15.9612 35.6204C17.2599 34.7413 21.3782 32.4921 23.2947 33.657C24.2268 34.2266 24.7242 35.0104 24.7721 35.9868C24.8575 37.7468 23.4716 39.8859 21.0639 41.7116C18.5917 43.5861 14.2279 44.1134 10.4552 42.9972C7.76853 42.203 4.19152 40.2502 2.40174 35.4699C2.19377 34.9065 1.57149 34.627 1.02836 34.8429C0.476868 35.0548 0.202285 35.6818 0.412342 36.241C2.05218 40.6232 5.40684 43.7619 9.86006 45.0794C11.3873 45.5325 12.9835 45.7527 14.5442 45.7527C17.5157 45.7527 20.3562 44.9544 22.3372 43.4527C25.3609 41.1588 27.0237 38.3993 26.8989 35.8788C26.8155 34.1843 25.9249 32.7357 24.3893 31.7973Z" fill="#121716"/>
<path fill-rule="evenodd" clip-rule="evenodd" d="M53.9533 38.6809C54.2363 38.6809 54.5194 38.5665 54.7295 38.34C55.1331 37.9037 55.1122 37.2174 54.6838 36.8063C54.4403 36.5734 52.2552 34.502 50.705 33.7416C50.1786 33.4855 49.5398 33.7078 49.2835 34.2478C49.0278 34.7858 49.2504 35.434 49.781 35.6943C50.8424 36.2155 52.6257 37.8146 53.2229 38.3865C53.4288 38.5835 53.691 38.6809 53.9533 38.6809Z" fill="#121716"/>
<path fill-rule="evenodd" clip-rule="evenodd" d="M41.224 31.7973C44.1644 29.9972 48.7448 32.5046 50.3303 33.4895C51.6373 32.8373 52.7902 31.884 53.8449 30.8739C55.1166 29.6582 55.9155 28.8935 56.7648 27.2965C56.9644 27 57.2766 26.7798 57.6573 26.7798C58.9037 26.7798 58.8832 28.1226 58.3879 28.9147C56.8604 31.3546 55.1166 32.9348 52.7589 34.5486C52.0948 35.0019 51.3938 35.4212 50.6467 35.722C50.3219 35.8533 49.9455 35.8195 49.6519 35.6204C48.3534 34.7413 44.2352 32.4921 42.3186 33.657C41.3865 34.2266 40.8891 35.0104 40.841 35.9868C40.7559 37.7468 42.1418 39.8859 44.5494 41.7116C47.0216 43.5861 51.3855 44.1134 55.1581 42.9972C57.8448 42.203 61.4218 40.2502 63.2114 35.4699C63.4193 34.9065 64.0416 34.627 64.585 34.8429C65.1362 35.0548 65.411 35.6818 65.2008 36.241C63.5611 40.6232 60.2067 43.7619 55.7533 45.0794C54.2258 45.5325 52.6298 45.7527 51.0691 45.7527C48.0974 45.7527 45.2569 44.9544 43.2759 43.4527C40.2522 41.1588 38.5896 38.3993 38.7145 35.8788C38.7976 34.1843 39.6882 32.7357 41.224 31.7973Z" fill="#121716"/>
<path fill-rule="evenodd" clip-rule="evenodd" d="M16.8476 53.8838C20.3397 57.4378 21.1138 62.4194 18.5708 65.0055C16.0278 67.5937 11.1334 66.812 7.64153 63.2559C4.1497 59.6977 3.37562 54.7203 5.92277 52.1321C8.46157 49.542 13.356 50.3277 16.8476 53.8838Z" fill="#828D8C"/>
<path fill-rule="evenodd" clip-rule="evenodd" d="M15.672 58.0055C17.5906 59.9625 17.907 62.8132 16.3734 64.3761C14.8376 65.9396 12.0323 65.6218 10.1116 63.6648C8.18884 61.7057 7.8727 58.8526 9.40833 57.2894C10.944 55.7265 13.7492 56.0482 15.672 58.0055Z" fill="#EDEDEA"/>
<path fill-rule="evenodd" clip-rule="evenodd" d="M9.83494 51.6894C8.54256 51.6894 7.45212 52.1068 6.67595 52.8989C5.69181 53.8987 5.29839 55.413 5.57112 57.1623C5.86032 59.0369 6.86326 60.9282 8.39494 62.4893C11.3332 65.4841 15.7801 66.3164 17.8176 64.2386C18.7996 63.2389 19.191 61.7267 18.9203 59.9771C18.629 58.1007 17.6261 56.2093 16.0944 54.6506C14.2735 52.7973 11.9346 51.6894 9.83494 51.6894ZM14.6544 67.6169C11.9617 67.6169 9.13165 66.3057 6.88833 64.0225C5.04029 62.1418 3.8252 59.8226 3.4652 57.4992C3.08431 55.0466 3.68988 52.8673 5.16957 51.3655C6.35146 50.1583 7.96415 49.5207 9.83494 49.5207C12.5255 49.5207 15.3579 50.8316 17.601 53.117C19.4491 54.9979 20.6642 57.3128 21.0242 59.6383C21.405 62.0912 20.8016 64.2703 19.324 65.7723C18.1379 66.9792 16.5231 67.6169 14.6544 67.6169Z" fill="#121716"/>
<path fill-rule="evenodd" clip-rule="evenodd" d="M48.7654 53.8838C45.2736 57.4378 44.4995 62.4194 47.0425 65.0055C49.5855 67.5937 54.4797 66.812 57.9718 63.2559C61.4636 59.6977 62.2377 54.7203 59.6905 52.1321C57.1517 49.542 52.2573 50.3277 48.7654 53.8838Z" fill="#828D8C"/>
<path fill-rule="evenodd" clip-rule="evenodd" d="M49.9411 58.0055C48.0227 59.9625 47.7061 62.8132 49.2401 64.3761C50.7758 65.9396 53.5808 65.6218 55.5015 63.6648C57.4243 61.7057 57.7406 58.8526 56.2048 57.2894C54.6691 55.7265 51.8639 56.0482 49.9411 58.0055Z" fill="#EDEDEA"/>
<path fill-rule="evenodd" clip-rule="evenodd" d="M49.5189 54.6506C47.9872 56.2093 46.9843 58.1007 46.6928 59.9771C46.4224 61.7267 46.8137 63.2389 47.7957 64.2386C49.8329 66.3164 54.2799 65.4841 57.2184 62.4893C58.7498 60.9282 59.753 59.0369 60.0422 57.1623C60.3147 55.413 59.9215 53.8987 58.9371 52.8989C58.161 52.1068 57.0705 51.6894 55.7784 51.6894C53.6787 51.6894 51.3398 52.7973 49.5189 54.6506ZM46.2891 65.7723C44.8118 64.2703 44.2083 62.0912 44.5892 59.6383C44.9489 57.3128 46.1645 54.9979 48.0123 53.117C50.2556 50.8316 53.0878 49.5207 55.7784 49.5207C57.6489 49.5207 59.2619 50.1583 60.4438 51.3655C61.9234 52.8673 62.529 55.0466 62.1481 57.4992C61.7881 59.8226 60.5728 62.1418 58.725 64.0225C56.4817 66.3057 53.6513 67.6169 50.9589 67.6169C49.0902 67.6169 47.4752 66.9792 46.2891 65.7723Z" fill="#121716"/>
<path fill-rule="evenodd" clip-rule="evenodd" d="M39.4928 2.33409C39.5427 2.17322 39.5947 2.01659 39.6404 1.84697C37.4263 1.3537 35.1435 1.08463 32.8067 1.08463C30.4696 1.08463 28.187 1.3537 25.9727 1.84697C26.0187 2.01659 26.0707 2.17322 26.1206 2.33409L24.9572 2.54175L25.1195 3.04588L25.1715 3.43969C25.5108 3.31898 25.8708 3.24054 26.2559 3.24054C26.8738 3.24054 27.5271 3.49923 28.0371 3.84225C29.9557 5.15526 31.3604 6.92588 32.3093 8.93178C32.4153 9.08628 32.5695 9.20913 32.7879 9.20913C33.0293 9.20913 33.2019 9.06526 33.3062 8.88737H33.3226C34.2738 6.9006 35.6702 5.147 37.5763 3.84225C38.086 3.49923 38.7393 3.24054 39.3574 3.24054C39.7425 3.24054 40.1023 3.31898 40.4416 3.43969L40.4936 3.04588L40.6559 2.54175L39.4928 2.33409Z" fill="#121716"/>
</svg>
