<svg xmlns="http://www.w3.org/2000/svg" width="149.639" height="26.314" viewBox="0 0 149.639 26.314">
  <g id="Group_638" data-name="Group 638" transform="translate(-80.711 -59.463)">
    <g id="Group_628" data-name="Group 628" transform="translate(133.966 61.488)">
      <path id="Path_1313" data-name="Path 1313" d="M129.028,82.657l2.7-.006a17.455,17.455,0,0,0,3.177-.2,3.667,3.667,0,0,0,1.475-.654,3.957,3.957,0,0,0,1.19-1.584,5.267,5.267,0,0,0,.441-2.155,5.774,5.774,0,0,0-.5-2.453,3.529,3.529,0,0,0-1.371-1.577,4.4,4.4,0,0,0-1.424-.5,15.2,15.2,0,0,0-2.55-.148l-3.161.007ZM129,71.565l2.636,0a6.741,6.741,0,0,0,4.107-.962,3.826,3.826,0,0,0,1.192-3.179,4.219,4.219,0,0,0-1.173-3.382q-1.17-.985-4.143-.978l-2.636,0Zm-2.087,12.924-.048-23.263,4.038-.008a20.331,20.331,0,0,1,3.829.246,5.063,5.063,0,0,1,2,.87,5.761,5.761,0,0,1,1.769,2.133,6.365,6.365,0,0,1,.608,2.789,5.133,5.133,0,0,1-.962,3.164,4.539,4.539,0,0,1-2.665,1.721A5.559,5.559,0,0,1,139,73.929a5.44,5.44,0,0,1,1.277,3.7,8,8,0,0,1-.486,2.909,5.783,5.783,0,0,1-1.49,2.2,5.7,5.7,0,0,1-2.444,1.346,21.036,21.036,0,0,1-4.877.4Z" transform="translate(-126.869 -61.218)" fill="#18436d" fill-rule="evenodd"/>
    </g>
    <g id="Group_629" data-name="Group 629" transform="translate(150.995 60.091)">
      <rect id="Rectangle_491" data-name="Rectangle 491" width="2.019" height="24.629" transform="translate(0 0.004) rotate(-0.117)" fill="#18436d"/>
    </g>
    <g id="Group_630" data-name="Group 630" transform="translate(157.559 70.591)">
      <path id="Path_1314" data-name="Path 1314" d="M149.272,69.129l.014,7.039a8.276,8.276,0,0,0,.925,4.526,4.269,4.269,0,0,0,6.188-.029,8.121,8.121,0,0,0,.928-4.513l-.015-7.039,1.938,0,.017,8.042a7.264,7.264,0,0,1-1.5,4.985,5.641,5.641,0,0,1-4.429,1.7,5.715,5.715,0,0,1-4.468-1.683,7.217,7.217,0,0,1-1.537-4.978l-.016-8.041Z" transform="translate(-147.318 -69.108)" fill="#18436d" fill-rule="evenodd"/>
    </g>
    <g id="Group_631" data-name="Group 631" transform="translate(172.698 70.048)">
      <path id="Path_1315" data-name="Path 1315" d="M171.432,74.585a4.031,4.031,0,0,0-4.395-4.057,4.211,4.211,0,0,0-2.978,1.118,4.518,4.518,0,0,0-1.385,2.957Zm2.321,1.665-11.2.023a6.869,6.869,0,0,0,1.375,4.289,4.246,4.246,0,0,0,3.449,1.549,4.566,4.566,0,0,0,2.734-.848,6.224,6.224,0,0,0,1.95-2.546l1.8.981a7.807,7.807,0,0,1-2.639,3.16,6.944,6.944,0,0,1-3.839,1.018,6.5,6.5,0,0,1-5.014-2.064,7.7,7.7,0,0,1-1.927-5.439,8.1,8.1,0,0,1,1.888-5.6,6.34,6.34,0,0,1,4.962-2.138,5.99,5.99,0,0,1,4.69,1.952,7.536,7.536,0,0,1,1.773,5.232Z" transform="translate(-160.439 -68.637)" fill="#18436d" fill-rule="evenodd"/>
    </g>
    <g id="Group_632" data-name="Group 632" transform="translate(196.344 60.799)">
      <path id="Path_1316" data-name="Path 1316" d="M180.934,80.543l1.808-.974a5.006,5.006,0,0,0,1.761,2.659,4.818,4.818,0,0,0,3,.939,4.525,4.525,0,0,0,3.445-1.311,5.023,5.023,0,0,0,1.232-3.61,4.534,4.534,0,0,0-.84-2.793,11.342,11.342,0,0,0-3.589-2.567,16.033,16.033,0,0,1-4.678-3.264,5.2,5.2,0,0,1-1.165-3.4,5.257,5.257,0,0,1,1.667-4.038,6.124,6.124,0,0,1,4.342-1.566,6.041,6.041,0,0,1,3.046.731,5.527,5.527,0,0,1,2.11,2.213l-1.633.988a3.546,3.546,0,0,0-1.443-1.521,4.415,4.415,0,0,0-2.2-.521,3.493,3.493,0,0,0-3.743,3.742q.005,2.445,4.047,4.553.73.377,1.113.585a11.671,11.671,0,0,1,3.977,3.082,6.518,6.518,0,0,1,1.01,3.772,6.918,6.918,0,0,1-10.706,5.688A7.4,7.4,0,0,1,180.934,80.543Z" transform="translate(-180.934 -60.621)" fill="#18436d" fill-rule="evenodd"/>
    </g>
    <g id="Group_633" data-name="Group 633" transform="translate(210.346 60.399)">
      <path id="Path_1317" data-name="Path 1317" d="M198.991,74.772l8.1-.016L203.1,64.642Zm-5.921,9.705,10.163-24.2,9.84,24.162-2.3,0-2.988-7.873-9.5.018-3.067,7.887Z" transform="translate(-193.07 -60.274)" fill="#18436d" fill-rule="evenodd"/>
    </g>
    <g id="Group_634" data-name="Group 634" transform="translate(80.711 62.091)">
      <path id="Path_1318" data-name="Path 1318" d="M94.249,64.232,92.2,67.278a4.085,4.085,0,0,0-3.375-1.841,2.807,2.807,0,0,0-1.9.736,2.294,2.294,0,0,0-.834,1.806,1.993,1.993,0,0,0,.495,1.326,3.72,3.72,0,0,0,1.283.953q.793.37,1.747.758a16.545,16.545,0,0,1,1.9.907,9.672,9.672,0,0,1,1.731,1.215,5.064,5.064,0,0,1,1.285,1.878,6.874,6.874,0,0,1,.5,2.7,7.814,7.814,0,0,1-1.988,5.569,7.044,7.044,0,0,1-5.395,2.145q-4.3.009-6.929-4.373l2.828-2.779a5.266,5.266,0,0,0,1.6,2.323,3.691,3.691,0,0,0,2.462.95,2.588,2.588,0,0,0,2.1-.959,3.486,3.486,0,0,0,.785-2.3,3.238,3.238,0,0,0-2.184-2.949c-.237-.119-.817-.355-1.731-.713a10.519,10.519,0,0,1-3.75-2.362,5.325,5.325,0,0,1-1.274-3.77,6.645,6.645,0,0,1,1.87-4.793A6.227,6.227,0,0,1,88.1,61.741a9.309,9.309,0,0,1,3.356.693A7.1,7.1,0,0,1,94.249,64.232Z" transform="translate(-80.711 -61.741)" fill="#18436d" fill-rule="evenodd"/>
    </g>
    <g id="Group_635" data-name="Group 635" transform="translate(95.889 70.022)">
      <path id="Path_1319" data-name="Path 1319" d="M104.059,73.561a3.134,3.134,0,0,0-5.011.01,4.6,4.6,0,0,0-.95,2.866,4.519,4.519,0,0,0,.975,2.832,3.1,3.1,0,0,0,4.982-.01,4.516,4.516,0,0,0,.965-2.836A4.608,4.608,0,0,0,104.059,73.561ZM96,70.82a8.113,8.113,0,0,1,11.1-.023,8.434,8.434,0,0,1,.036,11.23,8.192,8.192,0,0,1-11.126.023A8.44,8.44,0,0,1,96,70.82Z" transform="translate(-93.866 -68.615)" fill="#18436d" fill-rule="evenodd"/>
    </g>
    <g id="Group_636" data-name="Group 636" transform="translate(111.68 59.463)">
      <path id="Path_1320" data-name="Path 1320" d="M113.139,73.991l.023,11.128-4.177.008L108.964,74l-1.4,0-.008-3.519,1.4,0-.008-4.3a8.109,8.109,0,0,1,1.33-4.834,4.785,4.785,0,0,1,4.173-1.888,4.282,4.282,0,0,1,2,.473l.008,3.728a3.99,3.99,0,0,0-1.7-.5,1.809,1.809,0,0,0-.536.076,1,1,0,0,0-.419.253,2.979,2.979,0,0,0-.3.345,1.333,1.333,0,0,0-.194.447c-.05.19-.088.348-.118.479a3.2,3.2,0,0,0-.059.551c-.008.238-.014.415-.013.523v.94l.008,3.7,3.341-.007.007,3.519Z" transform="translate(-107.553 -59.463)" fill="#18436d" fill-rule="evenodd"/>
    </g>
    <g id="Group_637" data-name="Group 637" transform="translate(120.75 65.5)">
      <path id="Path_1321" data-name="Path 1321" d="M121.027,73.168,121.05,84.3l-4.175.009-.023-11.127-1.431,0-.007-3.52,1.431,0-.01-4.953,4.175-.009.01,4.953,2.566-.005.007,3.52Z" transform="translate(-115.414 -64.696)" fill="#18436d" fill-rule="evenodd"/>
    </g>
  </g>
</svg>
