<svg width="600" height="400" xmlns="http://www.w3.org/2000/svg"><g fill="none" fill-rule="evenodd"><path fill="#FFF" d="M0 0h600v400H0z"/><g fill-rule="nonzero"><path d="M67.749 273.312V236.33a.214.214 0 01.111-.19l47.526-27.442a.214.214 0 00.112-.191v-10.516a.219.219 0 00-.33-.191l-47.089 27.186a.219.219 0 01-.33-.19v-10.522c0-.079.043-.152.111-.19l47.526-27.442a.228.228 0 00.112-.19v-10.517a.223.223 0 00-.33-.19l-47.09 27.185a.219.219 0 01-.33-.19v-10.517a.214.214 0 01.111-.19l47.526-27.428a.219.219 0 00.112-.191v-10.66a.465.465 0 00-.219-.382L67.967 126.06a.433.433 0 00-.437 0l-9 5.196a.219.219 0 000 .381l47.089 27.186a.223.223 0 010 .382l-9 5.195a.465.465 0 01-.442 0L48.87 137.088a.465.465 0 00-.465 0l-8.972 5.191a.219.219 0 000 .381l47.079 27.191a.219.219 0 010 .382l-8.996 5.195a.465.465 0 01-.465 0l-47.284-27.316a.465.465 0 00-.465 0L20 153.498V246a.214.214 0 00.112.19l9.107 5.261a.219.219 0 00.33-.19v-91.866a.219.219 0 01.33-.19l9.112 5.26a.22.22 0 01.107.19v92.373c0 .079.042.152.111.19l9.107 5.261a.223.223 0 00.335-.195v-91.86a.219.219 0 01.33-.191l9.107 5.255a.219.219 0 01.112.191v92.377c0 .077.041.15.107.19l9.135 5.256a.219.219 0 00.307-.19z" fill="#00DE72"/><path d="M163.256 244.19v-89.027a1.656 1.656 0 011.702-1.666h26.465c16.782 0 27.205 9.768 27.205 26.13 0 16.364-11.828 26.782-27.354 26.782h-14.13a.888.888 0 00-.888.865v37.06a1.656 1.656 0 01-1.698 1.667h-9.61a1.894 1.894 0 01-1.692-1.81zm28.167-48.785c8.87 0 13.898-7.382 13.898-15.777 0-8.688-4.581-15.275-13.898-15.275h-14.279a.893.893 0 00-.865.87v29.303c.01.483.405.87.888.87l14.256.009zm81.977-42.052h9.61a1.66 1.66 0 011.702 1.666v67.26c0 15.274-12.493 24.61-27.13 24.61-14.345 0-26.838-9.41-26.838-24.61v-67.26a1.656 1.656 0 011.698-1.666h9.465a1.66 1.66 0 011.702 1.666v67.023c0 8.32 6.354 13.605 13.898 13.605s14.046-5.284 14.046-13.605v-66.977a1.955 1.955 0 011.847-1.712zm44.358 45.745c-9.167-6.154-15.302-13.024-15.302-23.382 0-14.837 12.493-23.376 26.688-23.376 13.377 0 25.116 7.441 25.8 26.274a1.781 1.781 0 01-1.702 1.81h-8.795a1.693 1.693 0 01-1.703-1.591c-.59-10.233-6.725-15.13-14.418-15.13-7.396 0-12.94 4.344-12.94 11.292 0 6.005 3.623 9.265 13.088 15.921l13.233 9.554c9.167 6.66 14.34 12.67 14.34 22.149 0 15.348-12.642 24.465-27.503 24.465-14.046 0-25.116-7.67-26.316-26.489a1.693 1.693 0 011.702-1.814h8.944c.89.02 1.622.709 1.698 1.596.814 10.493 7.098 15.349 14.493 15.349 7.098 0 13.749-3.838 13.749-12.814 0-5.582-2.512-8.321-9.767-13.172l-15.289-10.642zM417.93 244.19v-38.939a.888.888 0 00-.888-.87H388.73a.888.888 0 00-.888.87v38.94a1.656 1.656 0 01-1.702 1.66h-9.61a1.656 1.656 0 01-1.702-1.66v-89.028a1.656 1.656 0 011.702-1.666h9.61a1.66 1.66 0 011.702 1.666v37.21a.888.888 0 00.888.864h28.312a.888.888 0 00.888-.865v-37.21a1.656 1.656 0 011.703-1.665h9.609a1.66 1.66 0 011.702 1.666v89.097a1.656 1.656 0 01-1.702 1.666h-9.61a1.72 1.72 0 01-1.702-1.735zm37.335 0v-89.027a1.656 1.656 0 011.698-1.666h47.018a1.66 1.66 0 011.703 1.666v7.744a1.656 1.656 0 01-1.703 1.665h-34.818a.893.893 0 00-.889.87v27.284c.01.483.405.87.889.87h23.953a1.656 1.656 0 011.698 1.664v7.745a1.656 1.656 0 01-1.698 1.665h-23.953a.893.893 0 00-.889.87v28.372a.893.893 0 00.889.87h34.818c.926 0 1.682.739 1.703 1.665v7.744a1.702 1.702 0 01-1.703 1.66h-47.018a1.61 1.61 0 01-1.698-1.66zm110.447 0l-14.191-38.725a.865.865 0 00-.814-.577h-13.158a.888.888 0 00-.889.865v38.438a1.656 1.656 0 01-1.702 1.66h-9.61a1.651 1.651 0 01-1.697-1.66v-89.028a1.656 1.656 0 011.698-1.666h26.32c16.117 0 27.205 10.205 27.205 25.336 0 10.06-5.325 18.455-15.083 23.376a.372.372 0 00-.219.507l16.042 41.037a1.702 1.702 0 01-1.628 2.327h-9.981a3.128 3.128 0 01-2.293-1.89zm-15.08-49.87c7.763 0 14.712-5.427 14.712-14.98 0-8.545-5.544-14.987-14.711-14.987h-13.084a.81.81 0 00-.814.796v28.228c.01.483.405.87.888.87l13.01.074z" fill="#300D4F"/></g></g></svg>