<svg width="284" height="66" fill="none" xmlns="http://www.w3.org/2000/svg"><path d="M1.9 44.61c1.597-.722 3.093-.05 3.868.88 1.29 1.396 2.837 2.123 4.539 2.123 1.597 0 3.093-.258 3.093-1.5 0-1.037-.62-1.396-2.372-1.967l-2.735-.986c-7.22-2.431-7.169-5.848-7.169-8.073 0-3.57 4.282-6.885 9.335-6.885 3.455 0 7.012 1.087 8.664 3.984.876 1.552.463 3.053-.62 3.675-1.597.93-3.093.57-4.589-.571-1.032-.778-1.96-1.087-2.886-1.087-1.547 0-2.63.516-2.63 1.45 0 .779.62 1.244 2.065 1.71l3.662 1.243c5.828 1.915 6.549 5.692 6.549 7.244 0 5.125-5.365 7.557-10.418 7.557-3.868 0-8.407-1.603-9.646-5.176-.514-1.497.106-3.1 1.29-3.62zm24.55-29.036c2.424 0 4.384 1.81 4.384 4.191s-1.96 4.246-4.383 4.246-4.488-1.86-4.488-4.242c0-2.38 2.065-4.195 4.488-4.195zm3.608 34.37c0 1.81-1.652 3.21-3.611 3.21-1.91 0-3.557-1.451-3.612-3.21v-18.27c.05-1.76 1.703-3.21 3.612-3.21 1.96 0 3.611 1.396 3.611 3.21v18.27zm22.71 1.196c-2.423 1.603-5.465 2.174-8.301 2.174-6.911 0-12.584-5.02-12.584-12.628 0-7.608 5.673-12.475 12.584-12.475 6.86 0 12.326 5.07 12.326 12.678 0 1.294-1.083 2.225-2.217 2.225H39.051c.363 2.795 3.405 3.984 5.93 3.984 1.445 0 2.68-.106 4.176-1.138 1.652-1.138 3.506-.829 4.538.364 1.345 1.556.826 3.785-.927 4.817zm-3.194-12.522c-.362-2.952-2.372-4.398-5.053-4.398-2.68 0-4.745 1.345-5.364 4.398h10.417z" fill="#7EAE2A"/><path d="M85.364 40.686c0-7.608 5.622-12.475 12.634-12.475 7.012 0 12.689 4.863 12.689 12.475 0 7.608-5.672 12.628-12.689 12.628-7.016 0-12.634-5.02-12.634-12.628zm18.104 0c0-3.26-2.474-5.485-5.466-5.485-2.941 0-5.415 2.225-5.415 5.485 0 3.312 2.474 5.642 5.415 5.642 2.988 0 5.466-2.33 5.466-5.642zM71.45 28.215c-6.798 0-12.289 4.567-12.622 11.778a2.787 2.787 0 00-.093.647v20.82c.05 1.759 1.703 3.21 3.612 3.21 1.96 0 3.611-1.397 3.611-3.21v-9.28c1.656.74 3.52 1.138 5.491 1.138 7.013 0 12.689-5.02 12.689-12.627 0-7.613-5.672-12.476-12.689-12.476zm0 18.113c-2.942 0-5.416-2.33-5.416-5.642 0-3.26 2.474-5.485 5.415-5.485 2.992 0 5.466 2.225 5.466 5.485.004 3.312-2.474 5.642-5.466 5.642zm106.881-7.084c-.67-6.775-6.056-11.03-12.617-11.03-7.012 0-12.634 4.864-12.634 12.477 0 7.607 5.622 12.627 12.634 12.627 2.271 0 4.395-.528 6.241-1.497a3.768 3.768 0 002.836 1.29c1.96 0 3.612-1.395 3.612-3.21V39.883c0-.22-.026-.432-.072-.639zm-12.613 7.084c-2.941 0-5.415-2.33-5.415-5.642 0-3.26 2.474-5.485 5.415-5.485 2.992 0 5.466 2.225 5.466 5.485 0 3.312-2.474 5.642-5.466 5.642zm67.493-7.084c-.67-6.775-6.055-11.03-12.617-11.03-7.012 0-12.634 4.864-12.634 12.477 0 7.607 5.622 12.627 12.634 12.627 2.272 0 4.396-.528 6.241-1.497a3.768 3.768 0 002.836 1.29c1.96 0 3.612-1.395 3.612-3.21V39.883c0-.22-.025-.432-.072-.639zm-12.617 7.084c-2.941 0-5.415-2.33-5.415-5.642 0-3.26 2.474-5.485 5.415-5.485 2.992 0 5.466 2.225 5.466 5.485 0 3.312-2.474 5.642-5.466 5.642zm-14.698-5.642c0-7.608-5.672-12.475-12.689-12.475-7.016 0-12.634 4.863-12.634 12.475 0 7.608 5.622 12.628 12.634 12.628 2.069 0 4.02-.44 5.744-1.252-.287 3.62-2.061 6.213-6.561 6.213-1.935 0-3.97-1.176-5.298-2.605-.969-1.074-3.105-1.328-4.378-.152-1.273 1.124-1.374 3.167-.409 4.394 2.343 2.913 5.959 4.753 10.08 4.753 8.454 0 13.515-4.88 13.515-15.153v-7.375c.046-.448-.004-.981-.004-1.45zm-12.689 5.642c-2.941 0-5.415-2.33-5.415-5.642 0-3.26 2.474-5.485 5.415-5.485 2.992 0 5.466 2.225 5.466 5.485 0 3.312-2.474 5.642-5.466 5.642z" fill="#1F98D5"/><path d="M150.973 36.06c-.324-1.785-.897-3.312-1.748-4.665a10.698 10.698 0 00-1.762-2.144 9.742 9.742 0 00-2.44-1.675 9.557 9.557 0 00-2.878-.846 10.218 10.218 0 00-2.849.047c-1.74.287-3.047.922-4.479 1.789a17.596 17.596 0 00-2.735 2.06 13.1 13.1 0 00-1.062-1.05c-.443-.397-.902-.77-1.374-1.103a14.238 14.238 0 00-1.585-.952c-1.099-.575-2.566-1.002-4.02-1.175a9.687 9.687 0 00-4.34.477 9.562 9.562 0 00-1.998.956 9.987 9.987 0 00-1.698 1.332c-.94.91-1.724 2.026-2.331 3.32a13.2 13.2 0 00-1.04 3.612 15.114 15.114 0 00-.047 3.523 15.88 15.88 0 00.704 3.281c.632 1.941 1.593 3.828 2.861 5.6a24.76 24.76 0 001.884 2.347c.649.714 2.33 2.283 3.3 3.036 1.272.986 3.287 1.882 4.69 1.688.539-.077.952-.3 1.23-.673 1.029-1.387-.943-3.776-3.034-6.305-4.403-5.337-4.698-7.951-4.875-9.516l-.005-.046c-.269-2.398.852-4.614 2.672-5.261 2.191-.783 4.105-.042 5.681 2.203.206.292.392.588.569.871.758 1.206 1.47 2.343 3.405 2.635 1.921.288 2.962-1.062 4.167-2.626l.278-.36c1.012-1.23 3.119-3.095 5.892-1.801 2.756 1.285 2.983 6.242 1.466 9.883-1.69 4.047-4.475 7.604-6.523 9.583-1.951 1.886-4.336 3.84-7.101 5.815-2.216 1.666-3.316 2.77-3.177 4.174.033.326.202.778.83 1.095.4.2.957.313 1.643.313 1.598 0 3.886-.617 6.444-2.178 1.234-.752 3.919-2.647 5.878-4.516 1.88-1.798 3.978-4.327 5.479-6.606a29.264 29.264 0 001.976-3.523 25.86 25.86 0 001.467-3.874 21.89 21.89 0 00.779-4.216 17.488 17.488 0 00-.194-4.53z" fill="#CD141A"/><path d="M118.976 5.078l.109.13c.068.09.177.212.3.381.248.33.594.808.965 1.396.189.296.383.613.581.96.202.343.405.71.607 1.091.207.38.405.778.603 1.184.193.41.392.825.573 1.244.189.418.362.845.535 1.264.169.419.32.837.463 1.248.283.816.51 1.594.679 2.27.169.677.274 1.257.333 1.671.063.41.076.656.076.656a2.91 2.91 0 01-2.735 3.07 2.911 2.911 0 01-2.259-.897s-.169-.177-.426-.503c-.261-.326-.611-.8-.99-1.387a26.36 26.36 0 01-1.188-2.051 32.014 32.014 0 01-1.138-2.449c-.181-.423-.346-.85-.51-1.273-.156-.423-.312-.841-.447-1.252a34.9 34.9 0 01-.379-1.188 23.67 23.67 0 01-.299-1.082 19.68 19.68 0 01-.354-1.662c-.038-.204-.055-.368-.072-.478a6.272 6.272 0 00-.021-.174 2.851 2.851 0 012.495-3.163c.973-.114 1.9.296 2.499.994zm30.493 2.097s-.009.064-.021.178c-.017.114-.034.283-.072.495a21.022 21.022 0 01-.35 1.725c-.084.351-.181.732-.295 1.13a27.73 27.73 0 01-.375 1.238c-.135.427-.291.863-.446 1.307-.165.44-.329.888-.51 1.328a34.353 34.353 0 01-1.138 2.559c-.4.803-.809 1.535-1.184 2.152-.38.618-.725 1.117-.986 1.463a7.575 7.575 0 01-.426.533 2.883 2.883 0 01-4.079.216 2.917 2.917 0 01-.953-2.296s.013-.254.072-.677c.055-.427.16-1.032.324-1.734.165-.706.388-1.514.671-2.368.143-.423.295-.863.463-1.298.169-.44.341-.884.531-1.32.181-.44.379-.875.573-1.302.202-.423.396-.842.603-1.244.202-.402.404-.782.607-1.146.198-.36.396-.698.581-1.006a21.22 21.22 0 01.965-1.472c.122-.178.228-.309.299-.402l.11-.14a2.826 2.826 0 013.982-.448 2.876 2.876 0 011.054 2.53zm-15.504-4.719l.059.177c.034.119.093.288.148.504.118.435.274 1.057.413 1.805a35.662 35.662 0 01.396 2.563c.059.47.105.956.151 1.447.038.494.081.993.102 1.497.029.503.046 1.006.059 1.5.008.496.008.982 0 1.456-.021.943-.08 1.827-.161 2.588a19.52 19.52 0 01-.273 1.835c-.085.444-.156.698-.156.698a2.87 2.87 0 01-3.553 1.975 2.902 2.902 0 01-1.883-1.725s-.097-.246-.22-.681a21.39 21.39 0 01-.442-1.806 29.613 29.613 0 01-.396-2.563 37.01 37.01 0 01-.131-1.45 42.99 42.99 0 01-.08-1.498c-.021-.503-.025-1.006-.034-1.5a43.278 43.278 0 01.085-2.817c.025-.436.063-.846.101-1.223.076-.757.173-1.39.248-1.835.034-.22.076-.397.102-.516.025-.118.042-.182.042-.182A2.82 2.82 0 01131.917.57a2.84 2.84 0 012.048 1.886zm26.726 16.125s-.025.047-.076.131c-.05.08-.122.207-.219.351-.194.3-.484.715-.855 1.18a23.383 23.383 0 01-2.133 2.326c-.282.262-.564.533-.859.79-.291.263-.59.513-.889.754-.3.24-.603.47-.898.689-.594.431-1.18.803-1.698 1.095-.519.296-.974.516-1.307.656-.328.144-.531.207-.531.207a2.959 2.959 0 01-3.712-1.954 3 3 0 01.164-2.186s.093-.19.282-.495c.186-.309.472-.727.839-1.197a19.85 19.85 0 012.145-2.313c.282-.258.573-.52.877-.77.295-.253.602-.495.906-.736.307-.232.606-.46.91-.672a21.107 21.107 0 011.698-1.095c.514-.3.965-.525 1.29-.673.16-.076.295-.127.379-.165l.139-.055a2.883 2.883 0 013.738 1.65 2.92 2.92 0 01-.19 2.482zm-54.564-3.992s.051.017.139.05c.089.039.223.085.384.157.324.14.783.355 1.306.643a21.667 21.667 0 011.723 1.057c.308.203.616.427.928.651.307.233.619.466.922.715.308.241.603.5.894.749.291.253.565.516.83.77.527.515.99 1.027 1.37 1.488.379.461.674.875.868 1.18.198.3.295.49.295.49a2.98 2.98 0 01-1.281 4.01 2.96 2.96 0 01-2.171.215s-.206-.059-.535-.194a11.975 11.975 0 01-1.319-.622 18.374 18.374 0 01-1.723-1.057 20.862 20.862 0 01-.915-.668 24.875 24.875 0 01-.906-.732 28.591 28.591 0 01-1.694-1.552 20.26 20.26 0 01-.737-.77c-.232-.25-.443-.495-.633-.723a13.852 13.852 0 01-.88-1.159c-.106-.143-.177-.266-.228-.346a9.586 9.586 0 00-.076-.127 2.903 2.903 0 01.978-3.98 2.881 2.881 0 012.461-.245z" fill="#FFCC07"/><path d="M260.662 28.257c-6.987 0-12.588 4.834-12.621 12.395v20.816c.05 1.759 1.698 3.205 3.607 3.205 1.959 0 3.607-1.395 3.607-3.205V52.23c1.635.72 3.468 1.104 5.411 1.104 7.008 0 12.676-5.015 12.676-12.615-.004-7.604-5.672-12.463-12.68-12.463zm0 18.096c-2.938 0-5.411-2.326-5.411-5.637 0-3.257 2.473-5.481 5.411-5.481 2.987 0 5.461 2.224 5.461 5.48 0 3.312-2.474 5.638-5.461 5.638zm22.81 3.447c0 1.81-1.647 3.205-3.607 3.205-1.905 0-3.557-1.446-3.607-3.205V20.67c.05-1.76 1.698-3.205 3.607-3.205 1.96 0 3.607 1.395 3.607 3.205V49.8zm-39.359 0c0 1.81-1.648 3.205-3.607 3.205-1.905 0-3.557-1.446-3.608-3.205v-.245c.051-1.76 1.699-3.206 3.608-3.206 1.959 0 3.607 1.396 3.607 3.206v.245z" fill="#1F98D5"/></svg>