<svg version="1.1" id="Warstwa_1" xmlns="http://www.w3.org/2000/svg" xmlns:xlink="http://www.w3.org/1999/xlink" x="0" y="0" viewBox="0 0 806.67 181.46" xml:space="preserve"><style>.st0{enable-background:new}.st4{fill-rule:evenodd;clip-rule:evenodd}.st13,.st4{fill:#2b185c}</style><path d="M89.96 31.31S42.95 4.11 42.39 3.79C28.88-4.02 11.59.62 3.78 14.14A28.115 28.115 0 000 28.27v121.79c0-10.52 5.74-19.69 14.27-24.56L91.35 81c13.52-7.8 18.15-25.09 10.34-38.61a28.242 28.242 0 00-11.73-11.08" fill-rule="evenodd" clip-rule="evenodd" fill="#4919aa"/><path d="M91.34 100.46l-77.08-44.5C5.74 51.09 0 41.92 0 31.4v121.79c0 4.8 1.21 9.67 3.78 14.13 7.8 13.52 25.1 18.16 38.61 10.34.56-.32 47.57-27.52 47.57-27.52 4.74-2.39 8.87-6.14 11.73-11.09 7.8-13.5 3.17-30.78-10.35-38.59" fill-rule="evenodd" clip-rule="evenodd" fill="#24befc"/><path d="M14.26 55.96C5.74 51.09-.01 41.92-.01 31.4v118.66c0-10.52 5.74-19.69 14.27-24.56 0 0 37.54-21.68 60.23-34.77-22.68-13.09-60.23-34.77-60.23-34.77" fill-rule="evenodd" clip-rule="evenodd" fill="#2697f7"/><path id="SVGID_1_" class="st4" d="M191.39 80.64V44.43c0-.92-.74-1.66-1.66-1.66h-13.65c-.92 0-1.66.74-1.66 1.66v93.81c0 .92.74 1.66 1.66 1.66h12.68c.84 0 1.54-.62 1.65-1.46l.98-8c5.29 8.21 13.77 10.99 22.12 10.99 20.17 0 35.33-13.36 35.33-35.89 0-23.64-14.88-35.88-34.91-35.88-7.24-.01-18.51 3.89-22.54 10.98zm1.11 24.9c0-11.96 9.18-20.03 19.89-20.03 10.85 0 19.47 7.65 19.47 20.03 0 11.96-8.62 20.17-19.47 20.17-10.71 0-19.89-7.79-19.89-20.17z"/><defs><path id="SVGID_2_" d="M191.39 80.64V44.43c0-.92-.74-1.66-1.66-1.66h-13.65c-.92 0-1.66.74-1.66 1.66v93.81c0 .92.74 1.66 1.66 1.66h12.68c.84 0 1.54-.62 1.65-1.46l.98-8c5.29 8.21 13.77 10.99 22.12 10.99 20.17 0 35.33-13.36 35.33-35.89 0-23.64-14.88-35.88-34.91-35.88-7.24-.01-18.51 3.89-22.54 10.98zm1.11 24.9c0-11.96 9.18-20.03 19.89-20.03 10.85 0 19.47 7.65 19.47 20.03 0 11.96-8.62 20.17-19.47 20.17-10.71 0-19.89-7.79-19.89-20.17z"/></defs><clipPath id="SVGID_4_"><use xlink:href="#SVGID_2_" overflow="visible"/></clipPath><path clip-path="url(#SVGID_4_)" fill="#2b185c" d="M174.15 42.49h74.97v99.21h-74.97z"/><path id="SVGID_3_" class="st4" d="M256.11 51.99c0 13.21 20.03 13.21 20.03 0 0-13.22-20.03-13.22-20.03 0"/><defs><path id="SVGID_6_" d="M256.11 51.99c0 13.21 20.03 13.21 20.03 0 0-13.22-20.03-13.22-20.03 0"/></defs><clipPath id="SVGID_8_"><use xlink:href="#SVGID_6_" overflow="visible"/></clipPath><path clip-path="url(#SVGID_8_)" fill="#2b185c" d="M255.84 41.8h20.58v20.37h-20.58z"/><path id="SVGID_5_" class="st4" d="M259.3 139.9h13.65c.92 0 1.66-.74 1.66-1.66V72.71c0-.92-.74-1.66-1.66-1.66H259.3c-.92 0-1.66.74-1.66 1.66v65.53c0 .91.75 1.66 1.66 1.66z"/><defs><path id="SVGID_10_" d="M259.3 139.9h13.65c.92 0 1.66-.74 1.66-1.66V72.71c0-.92-.74-1.66-1.66-1.66H259.3c-.92 0-1.66.74-1.66 1.66v65.53c0 .91.75 1.66 1.66 1.66z"/></defs><clipPath id="SVGID_12_"><use xlink:href="#SVGID_10_" overflow="visible"/></clipPath><path clip-path="url(#SVGID_12_)" fill="#2b185c" d="M257.37 70.77h17.52v69.4h-17.52z"/><path id="SVGID_7_" class="st4" d="M302.06 80.5l-.94-7.86c-.1-.83-.81-1.46-1.65-1.46h-12.03c-.92 0-1.66.74-1.66 1.66v65.39c0 .92.74 1.66 1.66 1.66h13.51c.92 0 1.66-.74 1.66-1.66v-33.39c0-10.43 7.09-19.2 17.53-19.2 10.85 0 16.55 7.93 16.55 18.36v34.23c0 .92.74 1.66 1.66 1.66H352c.92 0 1.66-.74 1.66-1.66v-34.37c0-21.56-12.94-33.66-29.07-33.66-8.62.01-15.58 3.48-22.53 10.3z"/><defs><path id="SVGID_14_" d="M302.06 80.5l-.94-7.86c-.1-.83-.81-1.46-1.65-1.46h-12.03c-.92 0-1.66.74-1.66 1.66v65.39c0 .92.74 1.66 1.66 1.66h13.51c.92 0 1.66-.74 1.66-1.66v-33.39c0-10.43 7.09-19.2 17.53-19.2 10.85 0 16.55 7.93 16.55 18.36v34.23c0 .92.74 1.66 1.66 1.66H352c.92 0 1.66-.74 1.66-1.66v-34.37c0-21.56-12.94-33.66-29.07-33.66-8.62.01-15.58 3.48-22.53 10.3z"/></defs><clipPath id="SVGID_16_"><use xlink:href="#SVGID_14_" overflow="visible"/></clipPath><path clip-path="url(#SVGID_16_)" fill="#2b185c" d="M285.51 69.93h68.43v70.24h-68.43z"/><path id="SVGID_9_" class="st4" d="M419.62 80.78c-3.89-6.82-12.66-11.13-21.84-11.13-20.03-.14-35.75 12.24-35.75 35.89 0 24.06 15.02 36.58 35.33 36.44 7.65-.14 18.36-4.03 22.25-12.1l.71 8.49c.07.86.79 1.52 1.65 1.52h12.81c.92 0 1.66-.74 1.66-1.66V72.98c0-.91-.74-1.66-1.66-1.66h-13.05c-.88 0-1.6.69-1.66 1.56l-.45 7.9zm-40.61 24.76c0-13.08 9.04-20.72 20.31-20.72 26.71 0 26.71 41.59 0 41.59-11.27-.01-20.31-7.8-20.31-20.87z"/><defs><path id="SVGID_18_" d="M419.62 80.78c-3.89-6.82-12.66-11.13-21.84-11.13-20.03-.14-35.75 12.24-35.75 35.89 0 24.06 15.02 36.58 35.33 36.44 7.65-.14 18.36-4.03 22.25-12.1l.71 8.49c.07.86.79 1.52 1.65 1.52h12.81c.92 0 1.66-.74 1.66-1.66V72.98c0-.91-.74-1.66-1.66-1.66h-13.05c-.88 0-1.6.69-1.66 1.56l-.45 7.9zm-40.61 24.76c0-13.08 9.04-20.72 20.31-20.72 26.71 0 26.71 41.59 0 41.59-11.27-.01-20.31-7.8-20.31-20.87z"/></defs><clipPath id="SVGID_20_"><use xlink:href="#SVGID_18_" overflow="visible"/></clipPath><path clip-path="url(#SVGID_20_)" fill="#2b185c" d="M361.76 69.38h74.97v72.88h-74.97z"/><path id="SVGID_11_" class="st4" d="M461.37 71.32h-12.64c-.92 0-1.66.74-1.66 1.66v65.26c0 .92.74 1.66 1.66 1.66h13.65c.92 0 1.66-.74 1.66-1.66v-34.51c0-12.66 8.21-17.39 17.11-17.39 5.56 0 8.76 1.53 12.24 4.45l7.65-14.75c-3.75-3.75-10.57-6.54-17.66-6.54-6.96 0-14.05 1.25-19.34 9.74l-1.03-6.53c-.13-.79-.83-1.39-1.64-1.39z"/><defs><path id="SVGID_22_" d="M461.37 71.32h-12.64c-.92 0-1.66.74-1.66 1.66v65.26c0 .92.74 1.66 1.66 1.66h13.65c.92 0 1.66-.74 1.66-1.66v-34.51c0-12.66 8.21-17.39 17.11-17.39 5.56 0 8.76 1.53 12.24 4.45l7.65-14.75c-3.75-3.75-10.57-6.54-17.66-6.54-6.96 0-14.05 1.25-19.34 9.74l-1.03-6.53c-.13-.79-.83-1.39-1.64-1.39z"/></defs><clipPath id="SVGID_24_"><use xlink:href="#SVGID_22_" overflow="visible"/></clipPath><path clip-path="url(#SVGID_24_)" fill="#2b185c" d="M446.79 69.24h54.52v70.93h-54.52z"/><path id="SVGID_13_" class="st4" d="M565.52 86.2c-5.7-10.71-16.97-15.86-28.1-15.86-19.19 0-34.91 14.19-34.91 35.19S518.23 141 537.42 141c11.13 0 21.42-5.01 28.1-15.72v12.95c0 .92.74 1.66 1.66 1.66h3.5c.92 0 1.66-.74 1.66-1.66V72.84c0-.92-.74-1.66-1.66-1.66h-3.5c-.92 0-1.66.74-1.66 1.66V86.2zm-56.2 19.34c0-17.25 12.52-28.65 28.1-28.65 38.25 0 38.25 57.45 0 57.45-15.58-.01-28.1-11.55-28.1-28.8z"/><defs><path id="SVGID_26_" d="M565.52 86.2c-5.7-10.71-16.97-15.86-28.1-15.86-19.19 0-34.91 14.19-34.91 35.19S518.23 141 537.42 141c11.13 0 21.42-5.01 28.1-15.72v12.95c0 .92.74 1.66 1.66 1.66h3.5c.92 0 1.66-.74 1.66-1.66V72.84c0-.92-.74-1.66-1.66-1.66h-3.5c-.92 0-1.66.74-1.66 1.66V86.2zm-56.2 19.34c0-17.25 12.52-28.65 28.1-28.65 38.25 0 38.25 57.45 0 57.45-15.58-.01-28.1-11.55-28.1-28.8z"/></defs><clipPath id="SVGID_27_"><use xlink:href="#SVGID_26_" overflow="visible"/></clipPath><path clip-path="url(#SVGID_27_)" fill="#2b185c" d="M502.23 70.07h70.38v71.21h-70.38z"/><g class="st0"><path id="SVGID_15_" class="st4" d="M594.41 87.46V72.84c0-.92-.74-1.66-1.66-1.66h-3.36c-.92 0-1.66.74-1.66 1.66v94.05c0 .92.74 1.66 1.66 1.66h3.22c.92 0 1.66-.74 1.66-1.66v-42.85c5.84 11.41 16.69 17.11 28.38 17.11 19.33 0 34.91-12.52 34.91-35.61 0-22.12-14.74-34.63-33.38-35.33-13.35 0-24.34 6.81-29.77 17.25zm.42 18.22c0-16.83 11.82-28.93 27.82-28.93 15.58 0 28.1 9.46 28.1 28.79s-12.52 29.07-28.1 29.07c-15.72 0-27.82-12.1-27.82-28.93z"/><defs><path id="SVGID_28_" d="M594.41 87.46V72.84c0-.92-.74-1.66-1.66-1.66h-3.36c-.92 0-1.66.74-1.66 1.66v94.05c0 .92.74 1.66 1.66 1.66h3.22c.92 0 1.66-.74 1.66-1.66v-42.85c5.84 11.41 16.69 17.11 28.38 17.11 19.33 0 34.91-12.52 34.91-35.61 0-22.12-14.74-34.63-33.38-35.33-13.35 0-24.34 6.81-29.77 17.25zm.42 18.22c0-16.83 11.82-28.93 27.82-28.93 15.58 0 28.1 9.46 28.1 28.79s-12.52 29.07-28.1 29.07c-15.72 0-27.82-12.1-27.82-28.93z"/></defs><clipPath id="SVGID_29_"><use xlink:href="#SVGID_28_" overflow="visible"/></clipPath><g clip-path="url(#SVGID_29_)"><path id="SVGID_17_" class="st13" d="M587.7 70.2h69.88v98.4H587.7z"/><defs><path id="SVGID_30_" d="M587.7 70.2h69.88v98.4H587.7z"/></defs><clipPath id="SVGID_31_"><use xlink:href="#SVGID_30_" overflow="visible"/></clipPath><path clip-path="url(#SVGID_31_)" fill="#2b185c" d="M587.46 69.93h70.38v98.89h-70.38z"/></g></g><g class="st0"><path id="SVGID_19_" class="st4" d="M677.22 87.46V72.84c0-.92-.74-1.66-1.66-1.66h-3.36c-.92 0-1.66.74-1.66 1.66v94.05c0 .92.74 1.66 1.66 1.66h3.22c.92 0 1.66-.74 1.66-1.66v-42.85c5.84 11.41 16.69 17.11 28.38 17.11 19.33 0 34.91-12.52 34.91-35.61 0-22.12-14.74-34.63-33.38-35.33-13.36 0-24.34 6.81-29.77 17.25zm.42 18.22c0-16.83 11.83-28.93 27.82-28.93 15.58 0 28.1 9.46 28.1 28.79s-12.52 29.07-28.1 29.07c-15.72 0-27.82-12.1-27.82-28.93z"/><defs><path id="SVGID_32_" d="M677.22 87.46V72.84c0-.92-.74-1.66-1.66-1.66h-3.36c-.92 0-1.66.74-1.66 1.66v94.05c0 .92.74 1.66 1.66 1.66h3.22c.92 0 1.66-.74 1.66-1.66v-42.85c5.84 11.41 16.69 17.11 28.38 17.11 19.33 0 34.91-12.52 34.91-35.61 0-22.12-14.74-34.63-33.38-35.33-13.36 0-24.34 6.81-29.77 17.25zm.42 18.22c0-16.83 11.83-28.93 27.82-28.93 15.58 0 28.1 9.46 28.1 28.79s-12.52 29.07-28.1 29.07c-15.72 0-27.82-12.1-27.82-28.93z"/></defs><clipPath id="SVGID_33_"><use xlink:href="#SVGID_32_" overflow="visible"/></clipPath><g clip-path="url(#SVGID_33_)"><path id="SVGID_21_" class="st13" d="M670.51 70.2h69.88v98.4h-69.88z"/><defs><path id="SVGID_34_" d="M670.51 70.2h69.88v98.4h-69.88z"/></defs><clipPath id="SVGID_35_"><use xlink:href="#SVGID_34_" overflow="visible"/></clipPath><path clip-path="url(#SVGID_35_)" fill="#2b185c" d="M670.27 69.93h70.38v98.89h-70.38z"/></g></g><g class="st0"><path id="SVGID_23_" class="st4" d="M757.41 89.13c-.28-8.76 10.01-12.8 20.72-12.66 6.52 0 12.43.81 18.34 4.83.47.32 1.1.8 1.9 1.43.68.54 1.65.47 2.25-.16l1.93-2.05a1.66 1.66 0 00-.15-2.41c-1.03-.86-1.86-1.51-2.5-1.94-6.15-4.22-13.54-6.1-21.77-6.1-13.91-.14-27.4 5.7-27.26 19.2.14 13.77 13.35 16.27 26.71 18.5 11.27 1.81 22.67 3.76 22.39 13.63-.42 10.85-13.08 13.08-21.42 13.08-8.04 0-16.94-2.67-22.86-8.85-.34-.35-.75-.84-1.25-1.45-.57-.71-1.62-.83-2.33-.26-.02.02-.04.04-.06.05l-2.55 2.27c-.65.57-.74 1.55-.22 2.24.79 1.05 1.45 1.85 1.98 2.4 6.49 6.76 16.77 10.14 27.15 10.14 12.1 0 27.82-4.03 28.24-19.2.7-15.99-16.13-18.08-28.38-20.17-8.62-1.54-20.58-3.35-20.86-12.52z"/><defs><path id="SVGID_36_" d="M757.41 89.13c-.28-8.76 10.01-12.8 20.72-12.66 6.52 0 12.43.81 18.34 4.83.47.32 1.1.8 1.9 1.43.68.54 1.65.47 2.25-.16l1.93-2.05a1.66 1.66 0 00-.15-2.41c-1.03-.86-1.86-1.51-2.5-1.94-6.15-4.22-13.54-6.1-21.77-6.1-13.91-.14-27.4 5.7-27.26 19.2.14 13.77 13.35 16.27 26.71 18.5 11.27 1.81 22.67 3.76 22.39 13.63-.42 10.85-13.08 13.08-21.42 13.08-8.04 0-16.94-2.67-22.86-8.85-.34-.35-.75-.84-1.25-1.45-.57-.71-1.62-.83-2.33-.26-.02.02-.04.04-.06.05l-2.55 2.27c-.65.57-.74 1.55-.22 2.24.79 1.05 1.45 1.85 1.98 2.4 6.49 6.76 16.77 10.14 27.15 10.14 12.1 0 27.82-4.03 28.24-19.2.7-15.99-16.13-18.08-28.38-20.17-8.62-1.54-20.58-3.35-20.86-12.52z"/></defs><clipPath id="SVGID_37_"><use xlink:href="#SVGID_36_" overflow="visible"/></clipPath><g clip-path="url(#SVGID_37_)"><path id="SVGID_25_" class="st13" d="M748.35 70.04h58.38v70.98h-58.38z"/><defs><path id="SVGID_38_" d="M748.35 70.04h58.38v70.98h-58.38z"/></defs><clipPath id="SVGID_39_"><use xlink:href="#SVGID_38_" overflow="visible"/></clipPath><path clip-path="url(#SVGID_39_)" fill="#2b185c" d="M748.67 69.79h58.28v71.5h-58.28z"/></g></g></svg>