<svg width="300" height="66" fill="none" xmlns="http://www.w3.org/2000/svg"><g clip-path="url(#clip0)" fill="#4B2CFF"><path d="M89.654 49.49h-7.02V26.003h7.02V49.49zm.725-29.922a3.689 3.689 0 01-.34 1.57c-.224.487-.54.925-.929 1.293a4.52 4.52 0 01-1.367.881 4.264 4.264 0 01-1.667.334 3.954 3.954 0 01-1.609-.334 4.527 4.527 0 01-1.322-.881 4.136 4.136 0 01-.906-1.292 3.83 3.83 0 01-.33-1.57 3.993 3.993 0 01.33-1.61 4.25 4.25 0 01.906-1.314 4.3 4.3 0 011.322-.881 4.056 4.056 0 011.609-.318 4.377 4.377 0 011.667.318 4.3 4.3 0 011.367.881c.39.376.705.822.93 1.315.228.505.343 1.054.34 1.608zm28.466 2.99h-9.283v26.928h-7.657V22.558h-9.286V16.49h26.226v6.07zm12.303 12.367a6.144 6.144 0 00-.211-1.63 3.983 3.983 0 00-.702-1.42 3.586 3.586 0 00-1.286-1.004 4.35 4.35 0 00-1.924-.386 4.193 4.193 0 00-3.127 1.14 5.959 5.959 0 00-1.495 3.3h8.745zm-8.835 4.077c.227 1.965.824 3.382 1.79 4.266a5.324 5.324 0 003.736 1.326 6.672 6.672 0 002.106-.293 10.495 10.495 0 001.578-.657c.459-.241.882-.458 1.268-.657a2.624 2.624 0 011.208-.294 1.452 1.452 0 011.268.612l2.036 2.514a10.392 10.392 0 01-2.34 2.023 12.22 12.22 0 01-2.582 1.223 13.91 13.91 0 01-2.649.612c-.838.111-1.682.169-2.527.174a13.197 13.197 0 01-4.628-.807 10.632 10.632 0 01-3.782-2.388 11.203 11.203 0 01-2.56-3.94c-.66-1.75-.98-3.61-.943-5.48a12.417 12.417 0 01.808-4.463 10.952 10.952 0 012.31-3.69 10.977 10.977 0 013.651-2.515 12.005 12.005 0 014.828-.929 12.162 12.162 0 014.273.723 9.258 9.258 0 013.327 2.106 9.566 9.566 0 012.177 3.381 12.45 12.45 0 01.778 4.545 9.93 9.93 0 01-.07 1.29 2.04 2.04 0 01-.249.797.935.935 0 01-.483.41 2.292 2.292 0 01-.784.112l-13.545-.001zm35.899-7.425c-.18.225-.384.43-.61.61a1.356 1.356 0 01-.839.228 1.785 1.785 0 01-.937-.25c-.281-.168-.597-.355-.943-.558a7.022 7.022 0 00-1.224-.555 5.225 5.225 0 00-1.744-.248 4.866 4.866 0 00-2.226.476c-.624.314-1.16.78-1.556 1.356a6.23 6.23 0 00-.906 2.16 12.988 12.988 0 00-.295 2.889c0 2.246.439 3.979 1.306 5.186a4.169 4.169 0 003.588 1.813 5.005 5.005 0 001.937-.306 5.86 5.86 0 001.208-.68c.333-.25.642-.475.921-.687.305-.22.674-.331 1.049-.318a1.457 1.457 0 011.269.613l2.036 2.514a11.11 11.11 0 01-2.289 2.023c-.767.505-1.592.915-2.457 1.222-.82.29-1.667.496-2.528.613-.818.111-1.644.169-2.47.171a10.56 10.56 0 01-4.105-.813 10.094 10.094 0 01-3.441-2.37 11.304 11.304 0 01-2.356-3.813 14.298 14.298 0 01-.87-5.168 14.55 14.55 0 01.764-4.745 10.803 10.803 0 012.247-3.828 10.428 10.428 0 013.664-2.546 12.877 12.877 0 015.055-.927c1.66-.035 3.31.265 4.851.883a11.628 11.628 0 013.759 2.583l-1.858 2.472zm11.804-3.515a11.36 11.36 0 012.752-1.759 8.575 8.575 0 013.543-.664 8.239 8.239 0 013.412.664 7.03 7.03 0 012.498 1.857 7.993 7.993 0 011.541 2.832c.357 1.156.533 2.36.521 3.571v14.925h-7.02V34.563a4.12 4.12 0 00-.793-2.688 2.844 2.844 0 00-2.334-.96 4.888 4.888 0 00-2.161.485 8.787 8.787 0 00-1.959 1.327v16.76h-7.021V15.584h7.021v12.479zm20.132 21.427V26.952h1.2a.607.607 0 01.597.334.59.59 0 01.061.233l.204 3.261a11.733 11.733 0 013.012-3.035 6.65 6.65 0 013.827-1.157 5.46 5.46 0 013.957 1.428 7.394 7.394 0 012.003 3.964c.242-.86.63-1.672 1.147-2.402a7.182 7.182 0 011.685-1.69 6.894 6.894 0 012.078-.984 8.325 8.325 0 012.295-.318 7.797 7.797 0 013.012.551 5.94 5.94 0 012.265 1.647 7.491 7.491 0 011.427 2.673c.349 1.175.518 2.397.5 3.623v14.409h-2.158V35.083c0-2.204-.475-3.885-1.426-5.043a4.987 4.987 0 00-4.079-1.73 6.027 6.027 0 00-2.247.43 5.476 5.476 0 00-1.902 1.278 6.178 6.178 0 00-1.314 2.122 8.226 8.226 0 00-.492 2.943V49.49h-2.172V35.083c0-2.19-.432-3.866-1.298-5.028a4.476 4.476 0 00-3.827-1.744 5.828 5.828 0 00-3.398 1.087 10.37 10.37 0 00-2.78 3.012v17.079h-2.177zm52.276-13.545a9.704 9.704 0 00-.507-3.255 6.861 6.861 0 00-1.442-2.429 6.31 6.31 0 00-2.204-1.535 7.3 7.3 0 00-2.823-.527 8.5 8.5 0 00-3.126.543c-.897.347-1.71.88-2.387 1.563a7.82 7.82 0 00-1.623 2.447 11.445 11.445 0 00-.815 3.193h14.927zm-15.039 1.381v.43a15.24 15.24 0 00.589 4.464 9.126 9.126 0 001.676 3.222 6.909 6.909 0 002.627 1.966 8.7 8.7 0 003.44.656 10.14 10.14 0 002.95-.382 10.804 10.804 0 002.099-.836c.466-.247.914-.528 1.342-.838.202-.187.452-.315.722-.37a.519.519 0 01.452.228l.588.725a6.12 6.12 0 01-1.43 1.268 10.28 10.28 0 01-1.996 1.004c-.765.29-1.552.514-2.354.671-.833.167-1.679.25-2.528.25a10.728 10.728 0 01-4.212-.808 8.897 8.897 0 01-3.261-2.34 10.643 10.643 0 01-2.092-3.776 16.232 16.232 0 01-.739-5.104c-.013-1.52.221-3.033.695-4.477a10.213 10.213 0 011.992-3.532 9.068 9.068 0 013.195-2.317 10.482 10.482 0 014.285-.84 9.352 9.352 0 013.534.657 8.017 8.017 0 012.832 1.91 9.09 9.09 0 011.893 3.095c.481 1.351.714 2.779.687 4.213.022.234-.025.47-.137.678a.52.52 0 01-.451.182l-16.398.001zm38.232-5.525a7.717 7.717 0 00-2.861-2.742 7.898 7.898 0 00-3.595-.792 7.92 7.92 0 00-3.488.724 6.885 6.885 0 00-2.498 2.046 9.285 9.285 0 00-1.517 3.172 15.25 15.25 0 00-.514 4.072c0 3.353.617 5.816 1.85 7.391a6.354 6.354 0 005.331 2.37 7.463 7.463 0 004.054-1.157 11.035 11.035 0 003.238-3.239V31.8zm2.151-15.269V49.49h-1.176a.624.624 0 01-.681-.589l-.225-3.556a12.005 12.005 0 01-3.491 3.239 8.514 8.514 0 01-4.483 1.2 7.836 7.836 0 01-6.48-2.879c-1.54-1.919-2.31-4.795-2.311-8.628-.01-1.562.21-3.117.652-4.614a11.098 11.098 0 011.887-3.714 8.986 8.986 0 013.075-2.475 9.315 9.315 0 014.196-.906 8.762 8.762 0 013.963.837 8.305 8.305 0 012.923 2.492V16.53h2.151zm9.831 32.959h-2.151V26.952h2.151v22.536zm.93-30.306c.003.261-.054.52-.167.754a2.282 2.282 0 01-.448.627 2.009 2.009 0 01-.632.43 1.873 1.873 0 01-.768.16 1.888 1.888 0 01-.772-.16 2.063 2.063 0 01-1.062-1.057 1.813 1.813 0 01-.158-.754 2.003 2.003 0 01.588-1.426c.181-.183.396-.33.632-.432a1.92 1.92 0 01.772-.159 1.961 1.961 0 011.4.59c.188.184.34.401.448.64.112.248.169.516.167.787zm19.365 19.408a42.08 42.08 0 00-5.536.508 15.958 15.958 0 00-3.826 1.078 5.757 5.757 0 00-2.237 1.615 3.427 3.427 0 00-.724 2.143 4.76 4.76 0 00.376 1.956c.229.521.569.985.997 1.36.42.357.908.624 1.436.784a5.76 5.76 0 001.7.25 9.728 9.728 0 002.416-.287 9.081 9.081 0 002.036-.793A10.002 10.002 0 00296.285 46a25.92 25.92 0 001.609-1.519v-5.889zm-13.252-8.448a13.12 13.12 0 013.714-2.671 10.363 10.363 0 014.418-.908 8.043 8.043 0 013.171.576c.875.36 1.649.928 2.258 1.653a7.214 7.214 0 011.343 2.603c.314 1.11.467 2.26.453 3.413v14.677h-.862a.78.78 0 01-.842-.632l-.316-2.899a24.22 24.22 0 01-1.842 1.63c-.594.473-1.236.882-1.914 1.222-.685.34-1.407.6-2.152.773-.833.187-1.685.278-2.538.27a7.468 7.468 0 01-2.241-.34 5.612 5.612 0 01-1.932-1.042 5.022 5.022 0 01-1.358-1.803 6.17 6.17 0 01-.514-2.636 4.678 4.678 0 01.816-2.651 6.684 6.684 0 012.559-2.128 17.005 17.005 0 014.475-1.45 38.668 38.668 0 016.556-.631v-2.36c0-2.08-.446-3.694-1.344-4.817a4.81 4.81 0 00-4.002-1.685 7.523 7.523 0 00-2.77.452 9.888 9.888 0 00-1.944 1 12.2 12.2 0 00-1.29.997 1.399 1.399 0 01-.838.452.688.688 0 01-.408-.113 1.02 1.02 0 01-.273-.294l-.383-.658zM26.602 18.61V47.4H17.74V27.972l8.863-9.362zm5.718-.001h8.863v28.79H32.32V18.61z"/><path d="M57.132 0v.014H0v65.981h65.995V0h-8.863zM8.86 9.29h48.272v47.43H8.86V9.29z"/><path d="M17.74 27.886l8.941-9.276h21.785v9.276H17.74z"/><path d="M32.32 18.609h8.863v28.79H32.32V18.61z"/><path d="M57.132 0v.014H0v65.981h65.995V0h-8.863zM8.86 9.29h48.272v47.43H8.86V9.29z"/><path d="M17.74 27.886l8.941-9.276h21.785v9.276H17.74z"/></g><defs><clipPath id="clip0"><path fill="#fff" d="M0 0h300v65.995H0z"/></clipPath></defs></svg>