<svg width="309" height="82" fill="none" xmlns="http://www.w3.org/2000/svg"><path fill-rule="evenodd" clip-rule="evenodd" d="M272.49 41.835a141.056 141.056 0 013.684-8.367c.249-.75.529-1.417.84-2 .311-.584.633-1.23.965-1.94.083-.083.373-.166.871-.25a23.703 23.703 0 011.835-.218 21.085 21.085 0 012.334-.063c.829.021 1.617.094 2.364.22a9.2 9.2 0 011.96.53c.56.23.923.532 1.089.907-.332.626-.85 1.564-1.556 2.814a90.128 90.128 0 00-2.177 4.128 63.179 63.179 0 00-2.085 4.658c-.643 1.605-1.047 3.054-1.213 4.346-.29 1.835-.322 3.106-.093 3.815.228.709.611 1.021 1.151.938.539-.083 1.182-.5 1.929-1.25.746-.751 1.493-1.668 2.24-2.752 1.368-2.793 2.509-5.117 3.422-6.973a305.09 305.09 0 012.364-4.72c.664-1.293 1.213-2.367 1.649-3.221a54.54 54.54 0 011.338-2.47c.622-.209 1.379-.376 2.271-.5a13.028 13.028 0 012.706-.095c.913.063 1.774.209 2.583.438.809.23 1.4.594 1.773 1.095l-1.431 3.314c-.581 1.375-1.213 2.876-1.898 4.502a432.848 432.848 0 01-2.115 4.94 290.872 290.872 0 00-2.085 4.91 576.36 576.36 0 00-1.804 4.408c.415-.334.84-.75 1.275-1.25.436-.501.944-1.189 1.525-2.065a200.21 200.21 0 002.177-3.376c.872-1.376 1.95-3.127 3.236-5.253.664-1.126 1.379-1.793 2.147-2.001.767-.209 1.431-.157 1.991.156s.943.792 1.151 1.439c.207.646.083 1.281-.374 1.907a158.767 158.767 0 01-3.111 5.409 51.812 51.812 0 01-3.764 5.471c-1.348 1.71-2.758 3.19-4.231 4.44-1.473 1.251-2.956 2.022-4.449 2.314-.373 1.543-.902 3.19-1.587 4.94a71.149 71.149 0 01-2.271 5.19 91.074 91.074 0 01-2.582 4.94 76.149 76.149 0 01-2.52 4.19c-.581.918-1.348 1.585-2.302 2.001-.954.417-1.918.605-2.893.563a6.222 6.222 0 01-2.769-.781c-.871-.48-1.514-1.199-1.929-2.158a6.57 6.57 0 01-.28-3.283c.187-1.105.57-2.21 1.151-3.314a22.958 22.958 0 012.147-3.314 96.48 96.48 0 012.644-3.283c.664-.792 1.296-1.553 1.898-2.283.601-.73 1.161-1.47 1.68-2.22a19.32 19.32 0 001.4-2.376c.415-.834.747-1.73.995-2.689a21.888 21.888 0 01-2.177 1.813 12.12 12.12 0 01-2.365 1.345 8.641 8.641 0 01-2.644.657c-.933.083-1.919-.021-2.956-.313-2.198-.584-3.754-1.678-4.666-3.283a7.975 7.975 0 01-.64-1.445 16.58 16.58 0 01-2.129 2.414 12.104 12.104 0 01-2.831 1.97c-1.037.521-2.199.782-3.485.782-2.157-.292-3.764-1.126-4.822-2.502a10.339 10.339 0 01-1.713-3.374c-.31.387-.62.762-.931 1.123-1.328 1.543-2.686 2.752-4.076 3.627-1.389.876-2.81 1.313-4.262 1.313-.705 0-1.638-.26-2.8-.781-1.161-.522-2.416-1.199-3.764-2.033a40.79 40.79 0 01-3.982-2.814c-1.307-1.042-2.437-2.084-3.391-3.126-.457 1.334-.809 2.939-1.058 4.815-.249 1.876-.083 4.273.498 7.191-1.618-.333-2.977-.76-4.076-1.282-1.099-.521-2.012-1.063-2.738-1.626s-1.286-1.105-1.68-1.626c-.394-.52-.653-.948-.777-1.282a11.907 11.907 0 01-.567-2.502 40.214 40.214 0 01-1.673 1.752c-1.037.959-2.344 1.72-3.92 2.282-1.577.563-3.277.845-5.102.845-1.245 0-2.469-.177-3.672-.532a13.601 13.601 0 01-3.36-1.5 11.84 11.84 0 01-2.737-2.346 8.898 8.898 0 01-1.131-1.66c-.243.267-.488.529-.736.785-1.535 1.584-3.204 2.856-5.009 3.814-1.804.96-3.806 1.439-6.004 1.439-.996 0-2.053-.136-3.173-.407a13.838 13.838 0 01-3.174-1.188 10.853 10.853 0 01-2.675-1.97 6.82 6.82 0 01-1.376-1.965c-.427.54-.86 1.049-1.3 1.527-1.493 1.626-3.1 2.835-4.822 3.628-1.721.792-3.681 1-5.88.625-.912-.167-1.669-.427-2.271-.782-.601-.354-1.089-.75-1.462-1.188a4.6 4.6 0 01-.84-1.438 6.053 6.053 0 01-.342-1.595c-.083-1.042-.011-2.178.217-3.408.229-1.23.529-2.47.903-3.72a50.54 50.54 0 011.244-3.659 639.15 639.15 0 011.245-3.22c.331-.96.58-1.72.746-2.283.166-.563.187-.948.062-1.157-.124-.208-.425-.26-.902-.156-.477.104-1.172.344-2.084.72-1.037.458-1.971 1.166-2.8 2.125-.83.96-1.556 2.095-2.178 3.408a28.751 28.751 0 00-1.587 4.19 35.106 35.106 0 00-1.4 8.692c-.041 1.355 0 2.512.125 3.47-1.701-.5-3.101-.916-4.2-1.25-1.099-.333-1.991-.677-2.676-1.032-.684-.354-1.182-.74-1.493-1.157-.311-.416-.549-.958-.715-1.625.074-.97.202-2.006.385-3.106a35.855 35.855 0 01-1.816 1.918 33.323 33.323 0 01-5.725 4.502 29.67 29.67 0 01-6.595 3.064 22.75 22.75 0 01-7.031 1.126c-2.489 0-4.999-.459-7.529-1.376a21.381 21.381 0 01-6.813-4.002c-2.012-1.751-3.64-3.888-4.885-6.41-1.244-2.522-1.825-5.41-1.742-8.66.083-1.96.508-3.992 1.276-6.098.767-2.105 1.804-4.19 3.111-6.253a46.66 46.66 0 014.604-6.066 59.603 59.603 0 015.662-5.565 54.467 54.467 0 016.316-4.69 46.65 46.65 0 016.657-3.534c2.448-.958 4.885-1.605 7.311-1.938 2.427-.334 4.594-.208 6.502.375 1.909.584 3.443 1.74 4.605 3.47 1.161 1.73 1.721 4.18 1.68 7.348-.042 2.085-.612 4.086-1.711 6.004a21.434 21.434 0 01-4.045 5.096c-1.597 1.48-3.318 2.658-5.164 3.533-1.846.876-3.516 1.313-5.009 1.313-.664 0-1.441-.208-2.333-.625-.892-.417-1.794-.98-2.707-1.688a23.82 23.82 0 005.6-4.565c1.618-1.793 2.8-3.523 3.547-5.19.954-2.585 1.192-4.347.715-5.285-.477-.938-1.369-1.334-2.675-1.188-1.307.146-2.883.72-4.729 1.72s-3.64 2.157-5.382 3.47a41.507 41.507 0 00-4.667 4.065c-1.369 1.397-2.24 2.554-2.613 3.47a22.711 22.711 0 00-3.08 5.035c-.809 1.813-1.359 3.627-1.649 5.44-.29 1.814-.311 3.575-.062 5.284.249 1.71.829 3.231 1.742 4.565.913 1.334 2.178 2.408 3.796 3.22 1.617.814 3.629 1.262 6.035 1.345 1.784.084 3.733-.406 5.849-1.47 2.115-1.063 4.293-2.438 6.533-4.127a81.257 81.257 0 006.72-5.69c.924-.868 1.826-1.727 2.707-2.578a163.25 163.25 0 013.857-10.648 140.094 140.094 0 013.734-8.505c1.265-2.626 2.499-4.93 3.702-6.91 1.203-1.98 2.261-3.408 3.173-4.283.415-.375 1.203-.584 2.365-.625a14.776 14.776 0 013.453.281c1.141.23 2.115.563 2.924 1 .809.438 1.068.928.778 1.47a81.07 81.07 0 01-1.649 2.814 253.603 253.603 0 00-2.178 3.658 618.592 618.592 0 01-2.395 4.065 133.92 133.92 0 00-4.169 7.567c-.539 1.063-.913 1.928-1.12 2.595 2.116-2.168 4.159-3.554 6.129-4.159 1.97-.604 3.598-.48 4.884.375 1.286.855 2.105 2.398 2.458 4.628.353 2.23-.01 5.055-1.089 8.473-.622 1.918-1.058 3.356-1.307 4.315-.248.959-.435 1.73-.56 2.314-.165.875-.186 1.438-.062 1.688.125.25.353.282.685.094.332-.188.736-.532 1.213-1.032.477-.5.964-1.105 1.462-1.813.498-.626.996-1.282 1.494-1.97l1.03-1.426.058-.169c.353-1 .757-1.96 1.214-2.876a26.99 26.99 0 013.111-4.784 24.608 24.608 0 013.92-3.877c1.41-1.105 2.862-1.98 4.355-2.627 1.494-.646 2.945-.969 4.356-.969 2.489 0 4.283.427 5.382 1.282 1.099.855 1.659 1.95 1.68 3.283.021 1.334-.405 2.814-1.276 4.44-.871 1.626-1.991 3.23-3.36 4.815a30.036 30.036 0 01-4.666 4.346c-1.742 1.313-3.464 2.324-5.165 3.033.042 1.126.249 1.96.623 2.501.373.542.86.876 1.462 1 .601.126 1.286.074 2.053-.155a8.39 8.39 0 002.271-1.095c.747-.417 1.525-1.073 2.333-1.97a53.36 53.36 0 002.801-3.383 18.03 18.03 0 011.399-5.309 21.748 21.748 0 012.956-4.909 24.32 24.32 0 014.075-4.064 20.051 20.051 0 014.76-2.783c1.68-.688 3.35-1.032 5.009-1.032.747 0 1.525.094 2.334.282a8.564 8.564 0 012.271.875 5.929 5.929 0 011.773 1.5c.477.605.757 1.324.84 2.158.041.834-.083 1.74-.373 2.72-.291.98-.654 1.929-1.089 2.846a27.833 27.833 0 01-1.338 2.501c-.456.75-.809 1.334-1.058 1.751-.373.375-.954.76-1.742 1.157-.788.396-1.721.594-2.8.594-.664 0-1.348-.136-2.053-.407a4.602 4.602 0 01-1.774-1.188c-.477-.52-.767-1.157-.871-1.907-.103-.75.156-1.584.778-2.501.705-.917 1.473-1.511 2.302-1.782a44.41 44.41 0 012.427-.72c0-.166.062-.375.187-.625.124-.25.217-.521.28-.813.062-.292.072-.552.031-.781-.042-.23-.208-.407-.498-.532h.062c-.705-.375-1.493-.282-2.364.281-.871.563-1.711 1.407-2.52 2.533-.809 1.125-1.535 2.45-2.178 3.97a18.87 18.87 0 00-1.307 4.597c-.228 1.542-.186 3.002.125 4.377.311 1.376 1.026 2.502 2.146 3.377h-.062c1.079.667 1.971.949 2.676.844.705-.104 1.555-.448 2.551-1.032.663-.416 1.369-1.042 2.115-1.875a46.26 46.26 0 002.334-2.846 66.05 66.05 0 002.515-3.558 64.378 64.378 0 012.12-6.54 121.497 121.497 0 013.111-7.411 130.333 130.333 0 013.485-7.035 196.738 196.738 0 013.422-6.16 168.155 168.155 0 012.893-4.815c.85-1.355 1.504-2.324 1.96-2.908.498-.416 1.151-.677 1.96-.781a8.343 8.343 0 012.489.062c.85.146 1.638.417 2.364.813.726.396 1.255.845 1.587 1.345-.166.625-.508 1.532-1.027 2.72a71.718 71.718 0 01-1.898 3.97 330.57 330.57 0 01-2.364 4.535 1863.98 1863.98 0 00-2.333 4.408 580.882 580.882 0 00-1.867 3.564c-.518 1.001-.84 1.668-.964 2.002a22.32 22.32 0 013.889-2.377c1.389-.667 2.851-1 4.386-1 2.074 0 3.765.531 5.071 1.594 1.307 1.064 2.064 2.575 2.271 4.534.125 1.751-.217 3.45-1.026 5.097-.809 1.646-1.95 3.126-3.423 4.44-1.472 1.313-3.194 2.386-5.164 3.22-1.97.834-4.075 1.334-6.315 1.5l3.733 2.346c1.161.73 2.406.99 3.733.781 1.494-.208 2.831-.677 4.013-1.407a16.434 16.434 0 003.267-2.657 25.603 25.603 0 002.769-3.47l.296-.444c.26-1.32.586-2.558.979-3.715a639.848 639.848 0 013.983-9.724 207.915 207.915 0 013.733-8.411 188.668 188.668 0 013.36-6.785c1.037-1.98 1.991-3.637 2.862-4.971.249-.292.913-.532 1.991-.72a20.159 20.159 0 013.453-.28c1.224 0 2.354.093 3.391.28 1.038.188 1.639.511 1.805.97-.125.5-.373 1.167-.747 2a77.796 77.796 0 01-1.369 2.877 201.276 201.276 0 01-1.804 3.534 278.74 278.74 0 01-2.116 3.97c-3.65 7.004-6.948 14.362-9.893 22.075-.332.75-.58 1.573-.746 2.47-.166.896-.187 1.615-.063 2.157.125.542.415.792.871.75.457-.041 1.162-.625 2.116-1.75a78.271 78.271 0 001.649-2.158 40.987 40.987 0 001.711-2.501 330.76 330.76 0 001.524-2.439c.19-.307.362-.593.516-.857zm-85.417 2.64a27.43 27.43 0 001.991-1.283c.747-.52 1.535-1.198 2.365-2.032a10.149 10.149 0 002.053-2.564c.539-.959.892-1.772 1.058-2.439.166-.667.093-1.073-.218-1.22-.311-.145-.881.199-1.711 1.033a16.763 16.763 0 00-1.649 1.97 51.328 51.328 0 00-1.587 2.313 85.767 85.767 0 00-1.368 2.189c-.415.688-.726 1.22-.934 1.594v.438zm53.697-6.567a19.144 19.144 0 00-1.617 1.72 35.299 35.299 0 00-1.743 2.251c-.58.813-1.14 1.668-1.68 2.564a30.586 30.586 0 00-1.431 2.658c1.743-.25 3.205-.667 4.387-1.251 1.182-.584 2.136-1.261 2.862-2.032.726-.772 1.234-1.564 1.525-2.377.29-.813.414-1.553.373-2.22-.125-1.334-.394-2.084-.809-2.25-.415-.167-1.037.145-1.867.937z" fill="#45C8F1"/><path fill-rule="evenodd" clip-rule="evenodd" d="M74.567 15.629c-.227-.469-.557-.896-1.05-1.17-.544-.298-1.137-.349-1.692-.25l-.04-.02c-8.353 1.45-16.78 7.846-21.864 17.65-5.478 10.565-5.557 22.166-1.095 30.104 8.963-.733 18.32-7.346 23.798-17.91 5.104-9.836 5.514-20.561 1.943-28.404z" fill="#828D8C"/><path fill-rule="evenodd" clip-rule="evenodd" d="M71.768 15.292c-8.23 1.51-16.225 8.027-20.905 17.054-4.955 9.557-5.496 20.63-1.442 28.449 8.63-1.008 17.307-7.712 22.26-17.268 4.736-9.127 5.471-19.64 1.919-27.443-.15-.307-.348-.536-.593-.671-.284-.16-.65-.202-.997-.136a.95.95 0 01-.242.015zM48.826 63.027a1.06 1.06 0 01-.924-.546c-4.836-8.604-4.424-20.538 1.076-31.147 5.096-9.83 13.555-16.64 22.628-18.215a.9.9 0 01.262-.01 3.574 3.574 0 012.154.397c.64.354 1.144.907 1.5 1.644 3.838 8.425 3.084 19.678-1.956 29.39-5.5 10.606-14.947 17.69-24.655 18.483-.029.002-.056.004-.085.004z" fill="#121716"/><path fill-rule="evenodd" clip-rule="evenodd" d="M70.657 20.231a28.44 28.44 0 016.13 4.511c-.245-3.278-.973-6.377-2.22-9.113-.227-.469-.557-.896-1.05-1.17-.544-.298-1.137-.349-1.693-.25l-.039-.02c-2.88.501-5.76 1.628-8.52 3.238a28.233 28.233 0 017.392 2.804zM57.595 22.62a55.45 55.45 0 00-6.293 7.544c4.116-.288 8.663.727 12.783 3.186 4.098 2.44 7.176 5.964 8.94 9.738a55.879 55.879 0 003.322-9.382c-2.142-2.832-4.91-5.346-8.245-7.337-3.397-2.029-6.972-3.25-10.507-3.749zM46.98 35.938a68.215 68.215 0 00-3.554 8.286c3.835-.094 7.878.912 11.51 3.172 3.67 2.271 5.31 5.725 6.983 9.28 3.307-1.625 4.924-4.734 6.684-7.302a26.447 26.447 0 00-9.143-9.535 25.901 25.901 0 00-12.48-3.9z" fill="#121716"/><path fill-rule="evenodd" clip-rule="evenodd" d="M16.788 5.598c3.485 3.545 4.42 8.347 2.084 10.72-2.332 2.375-7.05 1.426-10.533-2.121C4.855 10.65 3.92 5.85 6.254 3.476c2.332-2.375 7.05-1.424 10.534 2.122z" fill="#828D8C"/><path fill-rule="evenodd" clip-rule="evenodd" d="M14.478 7.95c1.75 1.776 2.307 4.095 1.252 5.167-1.06 1.078-3.336.51-5.083-1.27C8.9 10.07 8.343 7.757 9.4 6.68c1.06-1.078 3.33-.508 5.078 1.27z" fill="#121716"/><path fill-rule="evenodd" clip-rule="evenodd" d="M9.662 3.254c-.768 0-1.852.171-2.655.988-1.881 1.915-.926 6.124 2.085 9.188 1.914 1.949 4.295 3.112 6.37 3.112.768 0 1.854-.172 2.657-.99.87-.885 1.172-2.285.85-3.943-.355-1.817-1.397-3.68-2.935-5.244-1.914-1.949-4.295-3.111-6.372-3.111zm5.8 15.456c-2.628 0-5.573-1.4-7.877-3.746C3.625 10.934 2.71 5.549 5.5 2.709c1.045-1.063 2.483-1.624 4.162-1.624 2.628 0 5.573 1.4 7.879 3.746 1.833 1.864 3.082 4.122 3.517 6.356.466 2.392-.044 4.486-1.432 5.9-1.045 1.062-2.485 1.623-4.164 1.623z" fill="#121716"/><path fill-rule="evenodd" clip-rule="evenodd" d="M48.826 5.598c-3.486 3.545-4.42 8.347-2.085 10.72 2.333 2.375 7.05 1.426 10.534-2.121 3.483-3.546 4.417-8.347 2.084-10.721-2.332-2.375-7.05-1.424-10.533 2.122z" fill="#828D8C"/><path fill-rule="evenodd" clip-rule="evenodd" d="M51.136 7.95c-1.75 1.776-2.308 4.095-1.253 5.167 1.061 1.078 3.336.51 5.084-1.27 1.746-1.778 2.303-4.091 1.246-5.167-1.059-1.078-3.33-.508-5.077 1.27z" fill="#121716"/><path fill-rule="evenodd" clip-rule="evenodd" d="M49.58 6.365c-1.539 1.565-2.581 3.427-2.935 5.244-.323 1.658-.02 3.058.849 3.944.803.817 1.89.989 2.657.989 2.075 0 4.456-1.163 6.37-3.112 3.011-3.064 3.967-7.273 2.085-9.188-.803-.817-1.887-.988-2.655-.988-2.077 0-4.457 1.162-6.372 3.11zm-3.593 10.721c-1.388-1.413-1.898-3.507-1.431-5.899.435-2.234 1.683-4.492 3.516-6.356 2.306-2.346 5.25-3.746 7.88-3.746 1.678 0 3.116.56 4.16 1.624 2.792 2.84 1.876 8.224-2.084 12.255-2.304 2.347-5.248 3.746-7.877 3.746-1.679 0-3.119-.56-4.164-1.624z" fill="#121716"/><path fill-rule="evenodd" clip-rule="evenodd" d="M56.334 14.415C50.84 6.704 42.379 1.085 32.807 1.085c-9.573 0-18.034 5.619-23.528 13.33-6.684 9.379-10.556 22.673-6.58 33.92C6.066 57.862 14.151 65.1 23.657 67.859a32.802 32.802 0 009.15 1.294c3.09 0 6.178-.43 9.15-1.294 9.505-2.758 17.59-9.997 20.957-19.524 3.977-11.247.104-24.541-6.58-33.92z" fill="#828D8C"/><path fill-rule="evenodd" clip-rule="evenodd" d="M58.604 18.683c-.38-1.54-1.348-3.001-2.25-4.268a36.017 36.017 0 00-3.826-4.524c-4.967-2.427-10.644-2.423-14.973.548-2.255 1.55-3.837 3.716-4.748 6.183-.912-2.467-2.493-4.632-4.749-6.183-4.329-2.971-10.006-2.975-14.973-.548a35.998 35.998 0 00-3.826 4.524c-.902 1.267-1.87 2.728-2.25 4.268-.398 1.603-.97 3.755-.895 5.377.123 2.64 1.727 4.584 3.846 5.98.518.343 6.06 4.66 5.543 4.966.392-.233.885-.517 1.434-.811v.493c2.01-1.192 4.932-2.654 6.888-2.425l.025.005c.056.006.102.031.156.042.54.144 1.012.41 1.374.86.836 1.036.911 2.232.62 3.395.216-.161.41-.364.62-.536-.023.8-.202 1.409-.202 1.409l-.364.52c2.145.414 4.4.64 6.732.64h.033c2.341 0 4.595-.226 6.74-.64l-.364-.52s-.179-.608-.202-1.409c.21.172.404.375.62.536-.29-1.163-.216-2.36.62-3.395.363-.45.835-.716 1.374-.86.054-.01.1-.036.156-.043l.025-.004c1.956-.228 4.878 1.233 6.888 2.425v-.493c.55.294 1.042.578 1.434.811-.516-.307 5.025-4.623 5.543-4.966 2.119-1.396 3.723-3.34 3.846-5.98.075-1.622-.497-3.774-.895-5.377zM32.807 43.018c-8.068 0-14.605 8.193-14.605 18.3 0 2.018.271 3.952.752 5.767.882.27 1.756.56 2.661.773a48.52 48.52 0 0011.192 1.294c3.779 0 7.556-.43 11.191-1.294.905-.214 1.78-.504 2.662-.773.48-1.815.75-3.749.75-5.767 0-10.107-6.535-18.3-14.603-18.3z" fill="#EDEDEA"/><path fill-rule="evenodd" clip-rule="evenodd" d="M34.455 26.432c-.36.12-.737.178-1.113.21.029-.066.083-.116.083-.19v-1.47c.066-.053.14-.09.197-.161l1.132-1.394c.448-.55.238-1.002-.466-1.002h-2.963c-.703 0-.913.451-.466 1.002l1.132 1.394c.1.125.22.211.343.28v1.35c0 .075.052.125.08.191a5.037 5.037 0 01-1.11-.21c-.462-.15-1.417-.713-1.548.161v.16c0 1.75 1.39 3.17 3.12 3.174h.008c1.729-.004 3.119-1.423 3.119-3.175v-.159c-.131-.874-1.086-.31-1.548-.16z" fill="#121716"/><path fill-rule="evenodd" clip-rule="evenodd" d="M32.807 2.169c-8.572 0-16.833 4.695-22.664 12.883-7.342 10.3-9.87 23.22-6.44 32.916 3.15 8.917 10.908 16.14 20.245 18.849 5.718 1.66 12 1.66 17.715 0 9.34-2.71 17.097-9.932 20.248-18.849 3.43-9.696.9-22.616-6.439-32.916C49.64 6.865 41.378 2.17 32.807 2.17zm0 68.068c-3.218 0-6.395-.45-9.444-1.337C13.227 65.96 5.128 58.41 1.696 48.701c-4.442-12.564.56-26.278 6.722-34.923C14.654 5.02 23.544 0 32.807 0c9.262 0 18.152 5.021 24.39 13.777 6.16 8.646 11.163 22.36 6.72 34.924-3.431 9.71-11.53 17.26-21.669 20.2a33.744 33.744 0 01-9.441 1.336z" fill="#121716"/><path fill-rule="evenodd" clip-rule="evenodd" d="M24.246 13.873a6.12 6.12 0 00-2.982-.744c-3.014 0-6.014 2.576-7.486 4.308-2.474 2.913-4.763 8.77-.03 10.78 1.71.728 3.595.948 5.435.982 2.35.046 4.86-.009 6.715-1.695 1.881-1.711 2.185-4.507 2.01-6.934-.227-3.152-1.527-5.532-3.662-6.697z" fill="#121716"/><path fill-rule="evenodd" clip-rule="evenodd" d="M24.358 18.935c-.033-.415-.48-.873-.743-1.11a3.174 3.174 0 00-2.108-.807c-.245 0-.497.027-.753.083-.99.211-1.823.82-2.283 1.669-.175.321-.472.963-.395 1.33.064.305.347.514.636.567.385.072.535-.112.718-.43.036-.061.073-.125.115-.192.557-.88 1.344-1.362 2.216-1.362.489 0 .787.144 1.23.442.291.198.61.593 1.005.381.285-.154.379-.355.362-.571z" fill="#FFFFFE"/><path fill-rule="evenodd" clip-rule="evenodd" d="M41.368 13.873a6.12 6.12 0 012.982-.744c3.013 0 6.014 2.576 7.485 4.308 2.474 2.913 4.763 8.77.031 10.78-1.71.728-3.596.948-5.435.982-2.35.046-4.861-.009-6.716-1.695-1.88-1.711-2.185-4.507-2.01-6.934.227-3.152 1.528-5.532 3.663-6.697z" fill="#121716"/><path fill-rule="evenodd" clip-rule="evenodd" d="M41.255 18.935c.034-.415.481-.873.743-1.11a3.174 3.174 0 012.108-.807c.246 0 .498.027.754.083.99.211 1.823.82 2.282 1.669.175.321.473.963.396 1.33-.065.305-.348.514-.637.567-.385.072-.535-.112-.718-.43a7.805 7.805 0 00-.114-.192c-.558-.88-1.345-1.362-2.217-1.362-.489 0-.786.144-1.23.442-.29.198-.61.593-1.005.381-.285-.154-.378-.355-.362-.571z" fill="#FFFFFE"/><path fill-rule="evenodd" clip-rule="evenodd" d="M11.66 38.68c-.283 0-.566-.114-.776-.34a1.098 1.098 0 01.046-1.534c.243-.233 2.428-2.304 3.978-3.064a1.06 1.06 0 011.422.506 1.091 1.091 0 01-.498 1.446c-1.061.521-2.844 2.12-3.442 2.692a1.053 1.053 0 01-.73.295z" fill="#121716"/><path fill-rule="evenodd" clip-rule="evenodd" d="M24.39 31.797c-2.941-1.8-7.521.708-9.107 1.692-1.307-.652-2.46-1.605-3.515-2.615-1.271-1.216-2.07-1.98-2.92-3.577-.2-.297-.511-.517-.892-.517-1.247 0-1.226 1.343-.73 2.135 1.527 2.44 3.27 4.02 5.628 5.634.664.453 1.366.872 2.113 1.173.324.131.7.097.994-.102 1.299-.879 5.417-3.128 7.334-1.963.932.57 1.43 1.353 1.477 2.33.086 1.76-1.3 3.899-3.708 5.725-2.472 1.874-6.836 2.401-10.609 1.285-2.686-.794-6.263-2.747-8.053-7.527a1.055 1.055 0 00-1.374-.627 1.087 1.087 0 00-.616 1.398c1.64 4.382 4.995 7.52 9.448 8.838 1.527.453 3.123.674 4.684.674 2.972 0 5.812-.799 7.793-2.3 3.024-2.294 4.687-5.054 4.562-7.574-.084-1.695-.974-3.143-2.51-4.082zm29.563 6.883c.283 0 .566-.114.776-.34a1.099 1.099 0 00-.045-1.534c-.244-.233-2.429-2.304-3.979-3.064a1.06 1.06 0 00-1.422.506 1.092 1.092 0 00.498 1.446c1.061.521 2.845 2.12 3.442 2.692.206.197.468.295.73.295z" fill="#121716"/><path fill-rule="evenodd" clip-rule="evenodd" d="M41.224 31.797c2.94-1.8 7.52.708 9.106 1.692 1.307-.652 2.46-1.605 3.515-2.615 1.272-1.216 2.07-1.98 2.92-3.577.2-.297.512-.517.892-.517 1.247 0 1.226 1.343.73 2.135-1.527 2.44-3.27 4.02-5.628 5.634-.664.453-1.365.872-2.112 1.173a1.067 1.067 0 01-.995-.102c-1.299-.879-5.417-3.128-7.333-1.963-.933.57-1.43 1.353-1.478 2.33-.085 1.76 1.3 3.899 3.708 5.725 2.473 1.874 6.837 2.401 10.61 1.285 2.686-.794 6.263-2.747 8.052-7.527.208-.563.83-.843 1.374-.627.551.212.826.839.616 1.398-1.64 4.382-4.994 7.52-9.448 8.838a16.556 16.556 0 01-4.684.674c-2.972 0-5.812-.799-7.793-2.3-3.024-2.294-4.686-5.054-4.562-7.574.084-1.695.974-3.143 2.51-4.082z" fill="#121716"/><path fill-rule="evenodd" clip-rule="evenodd" d="M16.848 53.884c3.492 3.554 4.266 8.535 1.723 11.121-2.543 2.589-7.438 1.807-10.93-1.75-3.491-3.557-4.265-8.535-1.718-11.123 2.539-2.59 7.433-1.804 10.925 1.752z" fill="#828D8C"/><path fill-rule="evenodd" clip-rule="evenodd" d="M15.672 58.005c1.919 1.957 2.235 4.808.701 6.371-1.535 1.564-4.34 1.246-6.261-.711-1.923-1.96-2.24-4.812-.704-6.376 1.536-1.563 4.341-1.24 6.264.716z" fill="#EDEDEA"/><path fill-rule="evenodd" clip-rule="evenodd" d="M9.835 51.69c-1.292 0-2.383.417-3.16 1.209-.983 1-1.377 2.514-1.104 4.263.29 1.875 1.292 3.766 2.824 5.327 2.938 2.995 7.385 3.827 9.423 1.75.982-1 1.373-2.512 1.102-4.262-.291-1.876-1.294-3.768-2.826-5.326-1.82-1.854-4.16-2.962-6.26-2.962zm4.82 15.927c-2.693 0-5.523-1.311-7.767-3.595-1.848-1.88-3.063-4.2-3.423-6.523-.38-2.452.225-4.632 1.705-6.134 1.181-1.207 2.794-1.844 4.665-1.844 2.69 0 5.523 1.31 7.766 3.596 1.848 1.88 3.063 4.196 3.423 6.521.381 2.453-.222 4.632-1.7 6.134-1.186 1.207-2.8 1.845-4.67 1.845z" fill="#121716"/><path fill-rule="evenodd" clip-rule="evenodd" d="M48.765 53.884c-3.491 3.554-4.266 8.535-1.723 11.121 2.544 2.589 7.438 1.807 10.93-1.75s4.266-8.535 1.718-11.123c-2.538-2.59-7.433-1.804-10.925 1.752z" fill="#828D8C"/><path fill-rule="evenodd" clip-rule="evenodd" d="M49.941 58.005c-1.918 1.957-2.235 4.808-.7 6.371 1.535 1.564 4.34 1.246 6.26-.711 1.923-1.96 2.24-4.812.704-6.376-1.536-1.563-4.341-1.24-6.264.716z" fill="#EDEDEA"/><path fill-rule="evenodd" clip-rule="evenodd" d="M49.519 54.65c-1.532 1.56-2.535 3.45-2.826 5.327-.27 1.75.12 3.262 1.103 4.262 2.037 2.077 6.484 1.245 9.422-1.75 1.532-1.56 2.535-3.452 2.824-5.327.273-1.749-.12-3.263-1.105-4.263-.776-.792-1.866-1.21-3.159-1.21-2.1 0-4.438 1.108-6.26 2.962zm-3.23 11.122c-1.477-1.502-2.08-3.68-1.7-6.134.36-2.325 1.575-4.64 3.423-6.521 2.244-2.285 5.076-3.596 7.766-3.596 1.87 0 3.484.637 4.666 1.844 1.48 1.502 2.085 3.682 1.704 6.134-.36 2.324-1.575 4.643-3.423 6.523-2.243 2.284-5.074 3.595-7.766 3.595-1.869 0-3.484-.638-4.67-1.845zM39.493 2.334c.05-.16.102-.317.147-.487a31.373 31.373 0 00-6.833-.762c-2.337 0-4.62.269-6.834.762.046.17.098.326.148.487l-1.164.208.162.504.053.394c.339-.121.699-.2 1.084-.2.618 0 1.271.26 1.781.602 1.919 1.313 3.323 3.084 4.272 5.09.106.154.26.277.479.277.241 0 .414-.144.518-.322h.017c.95-1.986 2.347-3.74 4.253-5.045.51-.343 1.163-.601 1.781-.601.386 0 .745.078 1.085.199l.052-.394.162-.504-1.163-.208z" fill="#121716"/></svg>