<?xml version="1.0" encoding="UTF-8" standalone="no"?>
<svg
   xmlns:dc="http://purl.org/dc/elements/1.1/"
   xmlns:cc="http://creativecommons.org/ns#"
   xmlns:rdf="http://www.w3.org/1999/02/22-rdf-syntax-ns#"
   xmlns:svg="http://www.w3.org/2000/svg"
   xmlns="http://www.w3.org/2000/svg"
   xmlns:sodipodi="http://sodipodi.sourceforge.net/DTD/sodipodi-0.dtd"
   xmlns:inkscape="http://www.inkscape.org/namespaces/inkscape"
   width="175"
   height="26"
   viewBox="0 0 175 26"
   version="1.1"
   id="svg6"
   sodipodi:docname="cksource.svg"
   inkscape:version="0.92.5 (2060ec1f9f, 2020-04-08)">
  <metadata
     id="metadata12">
    <rdf:RDF>
      <cc:Work
         rdf:about="">
        <dc:format>image/svg+xml</dc:format>
        <dc:type
           rdf:resource="http://purl.org/dc/dcmitype/StillImage" />
      </cc:Work>
    </rdf:RDF>
  </metadata>
  <defs
     id="defs10" />
  <sodipodi:namedview
     pagecolor="#ffffff"
     bordercolor="#666666"
     borderopacity="1"
     objecttolerance="10"
     gridtolerance="10"
     guidetolerance="10"
     inkscape:pageopacity="0"
     inkscape:pageshadow="2"
     inkscape:window-width="1920"
     inkscape:window-height="1040"
     id="namedview8"
     showgrid="false"
     inkscape:zoom="1.6228571"
     inkscape:cx="88.732394"
     inkscape:cy="13"
     inkscape:window-x="0"
     inkscape:window-y="25"
     inkscape:window-maximized="1"
     inkscape:current-layer="svg6" />
  <title
     id="title2">logotype</title>
  <path
     d="M86.623 15.03c0 1.538-.266 2.944-.797 4.217-.531 1.272-1.268 2.362-2.211 3.268-.943.907-2.065 1.607-3.365 2.102-1.3.494-2.71.741-4.23.741-1.52 0-2.926-.247-4.217-.741-1.29-.495-2.408-1.195-3.35-2.102-.944-.906-1.68-1.996-2.212-3.268-.531-1.273-.797-2.679-.797-4.217 0-1.556.266-2.962.797-4.216.531-1.255 1.268-2.321 2.211-3.2.943-.88 2.06-1.557 3.351-2.033s2.697-.714 4.217-.714c1.52 0 2.93.238 4.23.714 1.3.476 2.422 1.154 3.365 2.033.943.879 1.68 1.945 2.211 3.2.531 1.254.797 2.66.797 4.216zm-4.87 0c0-.842-.138-1.63-.412-2.362a5.629 5.629 0 0 0-1.14-1.882 5.262 5.262 0 0 0-1.758-1.236 5.565 5.565 0 0 0-2.266-.453c-.824 0-1.575.151-2.253.453a5.453 5.453 0 0 0-1.758 1.236 5.346 5.346 0 0 0-1.14 1.882 6.88 6.88 0 0 0-.398 2.362c0 .88.137 1.69.412 2.431a5.758 5.758 0 0 0 1.14 1.91 5.205 5.205 0 0 0 1.744 1.249c.678.302 1.429.453 2.253.453.824 0 1.575-.15 2.252-.453a5.354 5.354 0 0 0 1.758-1.25 5.637 5.637 0 0 0 1.154-1.909 6.948 6.948 0 0 0 .412-2.43zm24.611 2.472c0 1.172-.196 2.239-.59 3.2a6.956 6.956 0 0 1-1.69 2.473c-.732.686-1.615 1.222-2.65 1.606-1.035.385-2.184.577-3.447.577-1.282 0-2.436-.192-3.461-.577-1.026-.384-1.896-.92-2.61-1.606a6.976 6.976 0 0 1-1.648-2.473c-.385-.961-.577-2.028-.577-3.2V6.017c0-.347.281-.628.628-.628h3.414c.347 0 .628.28.628.628v11.1c0 .532.068 1.035.206 1.512.137.476.348.901.632 1.277.283.375.659.673 1.126.893.467.22 1.03.33 1.69.33.658 0 1.221-.11 1.688-.33.467-.22.847-.518 1.14-.893.293-.376.504-.801.632-1.277.128-.477.192-.98.192-1.511V6.017c0-.347.281-.628.628-.628h3.442c.346 0 .627.28.627.628v11.485zm14.023 7.007l-4.024-7.391h-1.593v7.09a.628.628 0 0 1-.628.628h-3.36a.628.628 0 0 1-.627-.627V5.389h7.417c.933 0 1.844.096 2.733.288a7.105 7.105 0 0 1 2.39.975 5.1 5.1 0 0 1 1.689 1.813c.42.751.631 1.685.631 2.802 0 1.319-.357 2.426-1.07 3.324-.715.897-1.704 1.538-2.967 1.923l4.498 7.367a.628.628 0 0 1-.536.955h-4.001a.628.628 0 0 1-.552-.327zm-.014-13.16c0-.457-.096-.828-.288-1.112a1.976 1.976 0 0 0-.742-.66 3.222 3.222 0 0 0-1.016-.315 7.496 7.496 0 0 0-1.085-.083h-2.5v4.533h2.225c.385 0 .779-.032 1.181-.096.403-.064.77-.179 1.1-.344.329-.165.599-.403.81-.714.21-.311.315-.714.315-1.209zm24.594 11.257c-1.055.926-1.947 1.555-2.674 1.887-1.263.577-2.72.865-4.367.865-1.502 0-2.89-.247-4.162-.741a9.776 9.776 0 0 1-3.31-2.102 9.732 9.732 0 0 1-2.197-3.255c-.531-1.263-.797-2.655-.797-4.175 0-1.556.27-2.966.81-4.23.54-1.264 1.287-2.34 2.24-3.228a9.915 9.915 0 0 1 3.35-2.046c1.282-.476 2.665-.714 4.148-.714 1.373 0 2.724.243 4.052.728.758.277 1.656.838 2.695 1.682a.628.628 0 0 1 .048.931l-2.261 2.261a.628.628 0 0 1-.873.015c-.494-.46-.927-.768-1.299-.92a5.74 5.74 0 0 0-2.197-.44c-.824 0-1.58.152-2.266.454a5.316 5.316 0 0 0-1.772 1.25 5.694 5.694 0 0 0-1.154 1.881 6.64 6.64 0 0 0-.412 2.376c0 .88.138 1.685.412 2.417.275.733.655 1.36 1.14 1.882.486.522 1.067.93 1.744 1.222.678.293 1.42.44 2.225.44.934 0 1.75-.183 2.445-.55.361-.19.78-.52 1.256-.991a.628.628 0 0 1 .872-.012l2.32 2.184a.628.628 0 0 1-.016.93zm-124.06-.317c-1.297 1.148-2.39 1.925-3.277 2.33-1.502.686-3.232 1.029-5.191 1.029-1.785 0-3.434-.294-4.946-.882-1.513-.588-2.824-1.42-3.934-2.497-1.11-1.078-1.981-2.367-2.612-3.87C.316 16.899 0 15.245 0 13.438c0-1.85.321-3.526.963-5.028.642-1.501 1.53-2.78 2.66-3.836 1.133-1.055 2.46-1.866 3.984-2.432 1.524-.566 3.167-.849 4.93-.849 1.632 0 3.237.289 4.815.865.927.339 2.03 1.034 3.308 2.085a.628.628 0 0 1 .046.929l-2.862 2.861a.628.628 0 0 1-.876.011c-.621-.59-1.162-.979-1.623-1.168a6.822 6.822 0 0 0-2.612-.522c-.98 0-1.877.18-2.694.538a6.318 6.318 0 0 0-2.106 1.486 6.767 6.767 0 0 0-1.37 2.236c-.327.86-.49 1.801-.49 2.824 0 1.045.163 2.003.49 2.873.326.87.777 1.616 1.354 2.237a6.101 6.101 0 0 0 2.073 1.452c.806.349 1.687.523 2.645.523 1.11 0 2.078-.218 2.906-.653.448-.236.971-.655 1.569-1.256a.628.628 0 0 1 .876-.015l2.935 2.763a.628.628 0 0 1-.014.928zM37.56 24.56l-8.21-10.176h-.065v10.015a.628.628 0 0 1-.627.628h-4.23a.628.628 0 0 1-.628-.628V2.54c0-.346.282-.628.628-.628h4.23c.346 0 .627.282.627.628v8.775h.098l7.885-8.976c.239-.271.582-.427.944-.427h4.97a.628.628 0 0 1 .46 1.057l-8.779 9.383a.314.314 0 0 0-.01.417l9.491 11.225a.628.628 0 0 1-.48 1.033h-5.327c-.38 0-.738-.171-.977-.467zM58.935 7.496c-.546-.496-1.024-.84-1.432-1.03-.772-.358-1.518-.538-2.236-.538-.37 0-.745.033-1.126.098-.381.065-.724.19-1.029.376-.304.185-.56.424-.767.718-.207.294-.31.67-.31 1.126 0 .392.081.718.245.98.163.26.402.49.718.685.316.196.691.376 1.126.539.436.163.925.332 1.47.506.783.261 1.6.55 2.448.865a9.157 9.157 0 0 1 2.318 1.257 6.598 6.598 0 0 1 1.73 1.943c.458.772.686 1.735.686 2.889 0 1.328-.245 2.476-.735 3.444a6.869 6.869 0 0 1-1.975 2.4 8.464 8.464 0 0 1-2.84 1.404 11.944 11.944 0 0 1-3.298.457c-1.654 0-3.254-.288-4.799-.865-.905-.338-2.006-1.013-3.304-2.026a.628.628 0 0 1-.061-.935l2.738-2.787a.628.628 0 0 1 .871-.023c.687.629 1.286 1.072 1.797 1.33.925.469 1.844.703 2.758.703.414 0 .817-.044 1.208-.131a3.013 3.013 0 0 0 1.029-.424c.294-.196.528-.458.702-.784.174-.326.26-.718.26-1.175 0-.436-.108-.806-.326-1.11-.217-.305-.527-.583-.93-.833s-.903-.479-1.502-.686a77.17 77.17 0 0 0-2.04-.669 19.5 19.5 0 0 1-2.171-.849 7.267 7.267 0 0 1-1.894-1.257 5.821 5.821 0 0 1-1.339-1.86c-.337-.73-.506-1.617-.506-2.661 0-1.285.262-2.384.784-3.298a6.811 6.811 0 0 1 2.057-2.253 8.836 8.836 0 0 1 2.873-1.29 13.027 13.027 0 0 1 3.232-.407c1.306 0 2.639.24 4 .718.783.276 1.78.842 2.989 1.697a.628.628 0 0 1 .093.945l-2.634 2.778a.628.628 0 0 1-.878.033zm109.829-6.442v2.219c0 .173-.14.313-.314.313h-.239a.314.314 0 0 1-.314-.313v-2.22a.314.314 0 0 0-.313-.313h-.386a.314.314 0 0 1-.314-.314V.314c0-.173.14-.314.314-.314h2.265c.173 0 .314.14.314.314v.112c0 .173-.14.314-.314.314h-.385a.314.314 0 0 0-.314.314zm4.663 2.216l.017-2.214a.008.008 0 0 0-.007-.007.01.01 0 0 0-.01.007l-.854 2.325a.314.314 0 0 1-.295.205h-.168a.314.314 0 0 1-.295-.208l-.83-2.322a.01.01 0 0 0-.01-.007.008.008 0 0 0-.008.007l.018 2.214a.314.314 0 0 1-.314.316h-.185a.314.314 0 0 1-.314-.313V.313c0-.172.14-.313.314-.313h.695c.133 0 .252.084.296.209l.738 2.081c.002.006.007.01.014.01a.014.014 0 0 0 .013-.01l.705-2.077a.314.314 0 0 1 .297-.213h.712c.173 0 .314.14.314.314v2.959c0 .173-.14.313-.314.313h-.216a.314.314 0 0 1-.313-.316zm-25.264 6.027V5.373h16.231v3.924h-16.23zm0 7.691v-3.924h10.365v3.924h-10.365zm0 7.848v-3.924h16.231v3.924h-16.23z"
     fill="#FFF"
     fill-rule="evenodd"
     id="path4"
     style="fill:#e52183;fill-opacity:1" />
</svg>
