<?xml version="1.0" encoding="UTF-8"?>
<svg width="600px" height="400px" viewBox="0 0 600 400" version="1.1" xmlns="http://www.w3.org/2000/svg" xmlns:xlink="http://www.w3.org/1999/xlink">
    <!-- Generator: Sketch 55.2 (78181) - https://sketchapp.com -->
    <title>dazn</title>
    <desc>Created with Sketch.</desc>
    <defs>
        <polygon id="path-1" points="0.00035 0 350 0 350 349.903925 0.00035 349.903925"></polygon>
    </defs>
    <g id="Page-1" stroke="none" stroke-width="1" fill="none" fill-rule="evenodd">
        <g id="dazn">
            <rect id="Rectangle" fill="#FFFFFF" fill-rule="nonzero" x="0" y="0" width="600" height="400"></rect>
            <g id="DAZN_StandardLogo_01_CMYK" transform="translate(125.000000, 25.000000)">
                <g id="Fill-1-Clipped">
                    <mask id="mask-2" fill="white">
                        <use xlink:href="#path-1"></use>
                    </mask>
                    <g id="path-1"></g>
                    <path d="M215.4551,120.81405 L226.70585,82.950175 L238.2366,120.81405 L215.4551,120.81405 Z M271.5706,153.889925 L242.03585,64.522675 C241.37785,62.55305 240.62885,61.258925 239.787975,60.651675 C238.940975,60.044425 237.5786,59.73555 235.70785,59.73555 L219.3926,59.73555 C217.51485,59.73555 216.13585,60.067175 215.24335,60.719925 C214.35085,61.372675 213.623725,62.64405 213.06285,64.522675 L183.2481,153.889925 C182.870975,154.3598 182.6881,155.2873 182.6881,156.69605 C182.6881,158.8608 183.999725,159.93705 186.6256,159.93705 L198.85985,159.93705 C199.98685,159.93705 200.89685,159.89155 201.60035,159.799675 C202.304725,159.708675 202.8656,159.467175 203.289975,159.09005 C203.7126,158.723425 204.084475,158.1503 204.416975,157.405675 C204.74335,156.65055 205.0916,155.6653 205.4696,154.4508 L210.1106,138.829425 L243.725475,138.829425 L248.50385,154.164675 C248.880975,155.482425 249.25285,156.513175 249.63085,157.269175 C250.00185,158.012925 250.426225,158.597425 250.895225,159.020925 C251.364225,159.444425 251.9251,159.708675 252.5831,159.799675 C253.234975,159.89155 254.08285,159.93705 255.11185,159.93705 L268.193975,159.93705 C270.815475,159.93705 272.1306,158.8608 272.1306,156.69605 C272.1306,156.0433 272.108725,155.596175 272.061475,155.3678 C272.010725,155.127175 271.8506,154.63455 271.5706,153.889925 L271.5706,153.889925 Z M257.069225,189.869925 L247.643725,189.869925 C245.205975,189.869925 243.585475,190.2243 242.790975,190.923425 C241.9956,191.633925 241.600975,193.06455 241.600975,195.217925 L241.600975,248.2683 L213.75585,195.08055 C212.62885,192.8248 211.523725,191.392425 210.447475,190.78605 C209.36685,190.1788 207.472475,189.869925 204.75385,189.869925 L196.032725,189.869925 C193.594975,189.869925 191.97535,190.2243 191.179975,190.923425 C190.3846,191.633925 189.98385,193.06455 189.98385,195.217925 L189.98385,284.72255 C189.98385,286.888175 190.355725,288.3083 191.11085,289.017925 C191.860725,289.716175 193.45235,290.071425 195.8901,290.071425 L205.45735,290.071425 C207.88985,290.071425 209.5086,289.716175 210.303975,289.017925 C211.09935,288.3083 211.499225,286.888175 211.499225,284.72255 L211.499225,231.523425 L239.3461,284.859925 C240.4731,287.117425 241.5721,288.54805 242.6536,289.156175 C243.72985,289.773925 245.6286,290.071425 248.347225,290.071425 L257.069225,290.071425 C259.506975,290.071425 261.1196,289.716175 261.9211,289.017925 C262.716475,288.3083 263.1181,286.888175 263.1181,284.72255 L263.1181,195.217925 C263.1181,193.06455 262.716475,191.633925 261.9211,190.923425 C261.1196,190.2243 259.506975,189.869925 257.069225,189.869925 L257.069225,189.869925 Z M303.77935,181.394675 L328.061475,205.675925 L328.061475,327.96505 L21.939225,327.96505 L21.939225,205.6558 L46.19685,181.3973 C49.783475,177.81155 49.783475,171.997175 46.19685,168.41055 L21.939225,144.15205 L21.939225,21.8428 L328.061475,21.8428 L328.061475,144.124925 L303.77935,168.40705 C300.1936,171.993675 300.1936,177.80805 303.77935,181.394675 L303.77935,181.394675 Z M350.00035,-0.096075 L0.00035,-0.096075 L0.00035,154.682675 L20.2216,174.903925 L0.00035,195.12605 L0.00035,349.903925 L350.00035,349.903925 L350.00035,195.12605 L329.778225,174.903925 L350.00035,154.682675 L350.00035,-0.096075 Z M155.6086,269.23855 L116.073475,269.23855 L157.7051,210.701925 C158.360475,209.76305 158.78485,209.007925 158.974725,208.446175 C159.163725,207.8853 159.2556,207.23255 159.2556,206.47655 L159.2556,195.217925 C159.2556,193.06455 158.8531,191.633925 158.055975,190.923425 C157.2571,190.2243 155.632225,189.869925 153.1866,189.869925 L93.074975,189.869925 C90.910225,189.869925 89.503225,190.270675 88.843475,191.0608 C88.18285,191.8623 87.854725,193.52305 87.854725,196.0658 L87.854725,204.50605 C87.854725,207.037425 88.18285,208.70955 88.843475,209.499675 C89.503225,210.301175 90.910225,210.701925 93.074975,210.701925 L130.18285,210.701925 L89.119975,269.23855 C88.0796,270.5563 87.56335,271.873175 87.56335,273.178675 L87.56335,284.72255 C87.56335,286.888175 87.96585,288.3083 88.762975,289.017925 C89.56185,289.716175 91.186725,290.071425 93.63235,290.071425 L155.6086,290.071425 C157.77335,290.071425 159.186475,289.670675 159.846225,288.88055 C160.5016,288.07905 160.8341,286.4183 160.8341,283.87555 L160.8341,275.4353 C160.8341,272.90305 160.5016,271.243175 159.846225,270.441675 C159.186475,269.640175 157.77335,269.23855 155.6086,269.23855 L155.6086,269.23855 Z M137.206475,119.966175 C137.206475,123.814425 136.94835,127.032675 136.43385,129.60955 C135.918475,132.1873 135.0776,134.282925 133.90335,135.87455 C132.73085,137.466175 131.1856,138.5888 129.263225,139.252925 C127.34085,139.905675 124.97135,140.238175 122.161725,140.238175 L110.630975,140.238175 L110.630975,79.434425 L122.161725,79.434425 C127.5071,79.434425 131.345725,81.014675 133.692475,84.1533 C136.0331,87.29105 137.206475,92.4798 137.206475,99.70555 L137.206475,119.966175 Z M157.320975,79.29705 C154.036225,72.6313 149.5606,67.7068 143.8906,64.522675 C138.2136,61.327175 131.0666,59.73555 122.441725,59.73555 L93.61135,59.73555 C91.174475,59.73555 89.55485,60.089925 88.7586,60.78905 C87.9641,61.498675 87.56335,62.93105 87.56335,65.084425 L87.56335,154.58905 C87.56335,156.752925 87.9641,158.17305 88.7586,158.88355 C89.55485,159.5818 91.174475,159.93705 93.61135,159.93705 L125.955725,159.93705 C141.240225,159.93705 151.6956,153.420925 157.320975,140.37555 C158.63085,137.375175 159.546975,134.351175 160.061475,131.29305 C160.57685,128.247175 160.8341,124.3753 160.8341,119.691425 L160.8341,100.6908 C160.8341,95.3428 160.57685,91.11655 160.061475,88.0243 C159.546975,84.920675 158.63085,82.022675 157.320975,79.29705 L157.320975,79.29705 Z" id="Fill-1" fill="#041319" fill-rule="nonzero" mask="url(#mask-2)"></path>
                </g>
            </g>
        </g>
    </g>
</svg>