<?xml version="1.0" encoding="UTF-8"?>
<svg width="600px" height="400px" viewBox="0 0 600 400" version="1.1" xmlns="http://www.w3.org/2000/svg" xmlns:xlink="http://www.w3.org/1999/xlink">
    <!-- Generator: Sketch 55.2 (78181) - https://sketchapp.com -->
    <title>Artboard</title>
    <desc>Created with Sketch.</desc>
    <g id="Artboard" stroke="none" stroke-width="1" fill="none" fill-rule="evenodd">
        <rect fill="#FFFFFF" x="0" y="0" width="600" height="400"></rect>
        <g id="Egnyte_logo_a" transform="translate(20.000000, 128.000000)">
            <rect id="Rectangle" x="1.23176847" y="1.23111408" width="553.504373" height="140.568686"></rect>
            <g id="Egnyte" transform="translate(8.020979, 42.906836)" fill="#43B9B3">
                <path d="M65.9187214,65.7228214 L23.0407494,65.7228214 L23.0407494,52.5536419 L61.1134314,52.5536419 C62.0991319,52.5536419 62.8384073,51.8151832 62.8384073,50.8305716 L62.8384073,36.1844747 C62.8384073,35.1998632 62.0991319,34.4614045 61.1134314,34.4614045 L23.0407494,34.4614045 L23.0407494,21.9076071 L65.3026586,21.9076071 C66.2883591,21.9076071 67.0276345,21.1691485 67.0276345,20.1845369 L67.0276345,4.06152267 C67.0276345,3.07691112 66.2883591,2.33845245 65.3026586,2.33845245 L1.97140101,2.33845245 C0.985700507,2.33845245 0.246425127,3.07691112 0.246425127,4.06152267 L0.246425127,83.5689059 C0.246425127,84.5535175 0.985700507,85.2919761 1.97140101,85.2919761 L65.9187214,85.2919761 C66.9044219,85.2919761 67.6436973,84.5535175 67.6436973,83.5689059 L67.6436973,67.4458917 C67.6436973,66.4612801 66.7812094,65.7228214 65.9187214,65.7228214 Z M155.494255,36.7998569 L119.023336,36.7998569 L119.023336,53.6613299 L135.410607,53.6613299 L135.410607,63.6305219 C135.410607,63.7535983 135.410607,63.8766748 135.287395,63.8766748 C131.837443,66.0920508 127.648216,67.1997388 122.10365,67.1997388 C108.919906,67.1997388 99.5557512,57.5997761 99.5557512,44.1844436 L99.5557512,43.9382907 C99.5557512,31.2614169 108.796693,21.1691485 120.748312,21.1691485 C128.387491,21.1691485 133.932056,23.6306774 139.476622,27.9383529 C140.215897,28.5537352 141.32481,28.4306587 141.81766,27.6922 L153.153216,14.0307147 C153.769279,13.292256 153.646067,12.184568 152.906791,11.5691858 C144.405124,4.6769049 134.424907,0.615382223 120.501887,0.615382223 C94.7504612,0.615382223 75.7757265,19.5691547 75.7757265,43.8152143 L75.7757265,44.0613672 C75.7757265,69.1689619 95.1200989,87.0150463 120.994737,87.0150463 C135.657032,87.0150463 147.731864,81.7227592 156.479956,74.7074019 C156.849593,74.3381726 157.096018,73.8458668 157.096018,73.353561 L157.096018,38.5229272 C157.219231,37.5383156 156.479956,36.7998569 155.494255,36.7998569 Z M246.794764,2.215376 L227.450392,2.215376 C226.464692,2.215376 225.725416,2.95383467 225.725416,3.93844623 L225.725416,46.0305903 L192.088386,2.83075823 C191.718749,2.46152889 191.225898,2.215376 190.733048,2.215376 L171.881526,2.215376 C170.895825,2.215376 170.15655,2.95383467 170.15655,3.93844623 L170.15655,83.4458295 C170.15655,84.430441 170.895825,85.1688997 171.881526,85.1688997 L191.225898,85.1688997 C192.211599,85.1688997 192.950874,84.430441 192.950874,83.4458295 L192.950874,39.6306152 L227.943242,84.5535175 C228.31288,84.9227468 228.80573,85.1688997 229.29858,85.1688997 L246.917977,85.1688997 C247.903678,85.1688997 248.642953,84.430441 248.642953,83.4458295 L248.642953,3.93844623 C248.51974,3.07691112 247.657252,2.215376 246.794764,2.215376 Z M462.909601,2.215376 L393.540927,2.215376 C392.555227,2.215376 391.815952,2.95383467 391.815952,3.93844623 L391.815952,20.6768427 C391.815952,21.6614543 392.555227,22.3999129 393.540927,22.3999129 L416.704889,22.3999129 L416.704889,83.5689059 C416.704889,84.5535175 417.444165,85.2919761 418.429865,85.2919761 L438.020663,85.2919761 C439.006363,85.2919761 439.745639,84.5535175 439.745639,83.5689059 L439.745639,22.6460658 C439.745639,22.5229894 439.868851,22.3999129 439.992064,22.3999129 L462.909601,22.3999129 C463.895301,22.3999129 464.634577,21.6614543 464.634577,20.6768427 L464.634577,3.93844623 C464.634577,3.07691112 463.895301,2.215376 462.909601,2.215376 Z M540.410303,65.7228214 L497.532331,65.7228214 L497.532331,52.5536419 L535.728226,52.5536419 C536.713926,52.5536419 537.453202,51.8151832 537.453202,50.8305716 L537.453202,36.1844747 C537.453202,35.1998632 536.713926,34.4614045 535.728226,34.4614045 L497.532331,34.4614045 L497.532331,21.9076071 L539.79424,21.9076071 C540.779941,21.9076071 541.519216,21.1691485 541.519216,20.1845369 L541.519216,4.06152267 C541.519216,3.07691112 540.779941,2.33845245 539.79424,2.33845245 L476.462983,2.33845245 C475.477282,2.33845245 474.738007,3.07691112 474.738007,4.06152267 L474.738007,83.5689059 C474.738007,84.5535175 475.477282,85.2919761 476.462983,85.2919761 L540.410303,85.2919761 C541.396004,85.2919761 542.135279,84.5535175 542.135279,83.5689059 L542.135279,67.4458917 C542.135279,66.4612801 541.396004,65.7228214 540.410303,65.7228214 Z" id="Shape"></path>
            </g>
            <g id="Group" transform="translate(270.463739, 36.753014)">
                <path d="M115.81981,18.4614667 L105.716379,0.861535112 C105.346742,0.246152889 104.484254,0 103.868191,0.369229334 L58.402755,26.584512 L13.553382,0.246152889 C12.9373192,-0.123076445 12.0748312,0.123076445 11.7051935,0.738458668 L1.3553382,18.3383902 C0.985700507,18.9537725 1.23212563,19.8153076 1.84818845,20.1845369 L47.1904118,46.769049 L47.1904118,100.061149 C47.1904118,100.799608 47.8064746,101.41499 48.54575,101.41499 L68.6293978,101.41499 C69.3686732,101.41499 69.984736,100.799608 69.984736,100.061149 L69.984736,46.5228961 L115.326959,20.3076134 C116.066235,19.938384 116.189447,19.0768489 115.81981,18.4614667 Z" id="Path"></path>
            </g>
            <g id="Group" transform="translate(265.535236, 7.214667)" fill="#9D2335">
                <path d="M33.5138172,83.1996766 C33.1441796,82.5842943 32.2816916,82.3381415 31.5424162,82.7073708 L1.23212563,100.676532 C0.616062817,101.045761 0.36963769,101.907296 0.73927538,102.645755 L5.0517151,110.030341 C5.42135279,110.645724 6.28384073,110.891877 7.02311611,110.522647 L37.3334067,92.5534864 C37.9494695,92.184257 38.1958947,91.3227219 37.826257,90.5842632 L33.5138172,83.1996766 Z M68.1365476,0 L58.1563299,0.123076445 C57.7866922,0.123076445 57.5402671,0.369229334 57.5402671,0.861535112 L57.6634797,37.4152392 C57.6634797,37.7844685 57.9099048,38.0306214 58.402755,38.0306214 L68.3829727,38.0306214 C68.7526104,38.0306214 68.9990355,37.7844685 68.9990355,37.2921627 L68.8758229,0.738458668 C68.8758229,0.369229334 68.5061852,0 68.1365476,0 Z M125.800027,98.7073086 L93.8879733,80.8612241 C93.5183356,80.7381477 93.1486979,80.7381477 93.0254854,81.107377 L88.0969828,89.8458046 C87.9737703,90.2150339 87.9737703,90.5842632 88.343408,90.7073397 L120.255462,108.553424 C120.6251,108.676501 120.994737,108.676501 121.11795,108.307271 L126.046452,99.5688437 C126.292877,99.3226908 126.169665,98.830385 125.800027,98.7073086 Z" id="Shape"></path>
            </g>
            <g id="Group" transform="translate(270.463739, 35.522249)" fill="#43B9B3">
                <path d="M115.81981,19.1999254 L105.716379,1.59999378 C105.346742,0.984611557 104.484254,0.738458668 103.868191,1.107688 L58.402755,27.3229707 L13.553382,0.984611557 C12.9373192,0.615382223 12.0748312,0.861535112 11.7051935,1.47691734 L1.3553382,19.0768489 C0.985700507,19.6922311 1.23212563,20.5537663 1.84818845,20.9229956 L47.1904118,47.5075076 L47.1904118,100.799608 C47.1904118,101.538067 47.8064746,102.153449 48.54575,102.153449 L68.6293978,102.153449 C69.3686732,102.153449 69.984736,101.538067 69.984736,100.799608 L69.984736,47.2613547 L115.326959,21.046072 C115.943022,20.6768427 116.189447,19.8153076 115.81981,19.1999254 Z" id="Path"></path>
            </g>
        </g>
    </g>
</svg>