<?xml version="1.0" encoding="UTF-8" standalone="no"?>
<!DOCTYPE svg PUBLIC "-//W3C//DTD SVG 1.1//EN" "http://www.w3.org/Graphics/SVG/1.1/DTD/svg11.dtd">
<svg width="100%" height="100%" viewBox="0 0 964 249" version="1.1" xmlns="http://www.w3.org/2000/svg" xmlns:xlink="http://www.w3.org/1999/xlink" xml:space="preserve" xmlns:serif="http://www.serif.com/" style="fill-rule:evenodd;clip-rule:evenodd;stroke-linejoin:round;stroke-miterlimit:1.41421;">
    <g id="Artboard1" transform="matrix(1,0,0,0.874071,0,0)">
        <rect x="0" y="0" width="963.551" height="283.861" style="fill:none;"/>
        <g id="Layer-1" serif:id="Layer 1" transform="matrix(1.23811,0,0,1.41649,-114.6,-83.7679)">
            <g transform="matrix(1,0,0,1,126.177,165.723)">
                <path d="M0,25.119L57.045,25.119L57.045,-0.862L0,-0.862L0,-18.851L62.99,-18.851L62.99,-46.868L-32.603,-46.868L-32.603,71.987L63.834,71.987L63.834,43.96L0,43.96L0,25.119Z" style="fill:rgb(70,153,151);fill-rule:nonzero;"/>
            </g>
            <g transform="matrix(1,0,0,1,263.545,164.194)">
                <path d="M0,28.168L23.436,28.168L23.436,42.606C18.509,45.839 12.394,47.538 4.421,47.538C-14.43,47.538 -27.847,33.781 -27.847,14.593L-27.847,14.26C-27.847,-3.911 -14.591,-18.346 2.553,-18.346C14.259,-18.346 22.748,-14.273 31.25,-7.139L50.606,-30.4C38.03,-41.263 23.269,-47.717 2.375,-47.717C-34.472,-47.717 -61.639,-20.55 -61.639,14.086L-61.639,14.419C-61.639,50.421 -33.954,75.885 3.058,75.885C24.628,75.885 42.104,67.914 54.676,57.559L54.676,4.063L0,4.063L0,28.168Z" style="fill:rgb(70,153,151);fill-rule:nonzero;"/>
            </g>
            <g transform="matrix(1,0,0,1,416.183,174.888)">
                <path d="M0,6.789L-48.892,-56.033L-79.632,-56.033L-79.632,62.822L-47.03,62.822L-47.03,-2.382L3.74,62.822L32.606,62.822L32.606,-56.033L0,-56.033L0,6.789Z" style="fill:rgb(70,153,151);fill-rule:nonzero;"/>
            </g>
            <g transform="matrix(1,0,0,1,653.877,208.848)">
                <path d="M0,-61.131L35.658,-61.131L35.658,28.862L68.603,28.862L68.603,-61.131L104.251,-61.131L104.251,-89.993L0,-89.993L0,-61.131Z" style="fill:rgb(70,153,151);fill-rule:nonzero;"/>
            </g>
            <g transform="matrix(1,0,0,1,805.157,146.882)">
                <path d="M0,62.801L0,43.96L57.055,43.96L57.055,17.979L0,17.979L0,-0.01L62.996,-0.01L62.996,-28.027L-32.597,-28.027L-32.597,90.828L63.85,90.828L63.85,62.801L0,62.801Z" style="fill:rgb(70,153,151);fill-rule:nonzero;"/>
            </g>
            <g transform="matrix(1,0,0,1,551.708,209.056)">
                <path d="M0,-67.122L-59.306,-110.824L-87.216,-90.261L-16.636,-38.251L-16.46,-38.019L-16.46,43.739L16.642,43.739L16.642,-38.263L87.202,-90.261L59.341,-110.861L0,-67.122Z" style="fill:rgb(70,153,151);fill-rule:nonzero;"/>
            </g>
            <g transform="matrix(-0.593333,0.804957,0.804957,0.593333,639.225,205.364)">
                <rect x="9.073" y="-50.747" width="16.562" height="55.337" style="fill:rgb(193,42,58);"/>
            </g>
            <g transform="matrix(1,0,0,1,0,-143.751)">
                <rect x="543.531" y="205.708" width="16.562" height="55.335" style="fill:rgb(193,42,58);"/>
            </g>
            <g transform="matrix(0.593477,0.804851,0.804851,-0.593477,469.066,189.55)">
                <rect x="18.902" y="-17.913" width="16.568" height="55.336" style="fill:rgb(193,42,58);"/>
            </g>
        </g>
    </g>
</svg>
