<?xml version="1.0" encoding="utf-8"?>
<!-- Generator: Adobe Illustrator 27.6.1, SVG Export Plug-In . SVG Version: 6.00 Build 0)  -->
<svg version="1.1" id="Layer_1" xmlns="http://www.w3.org/2000/svg" xmlns:xlink="http://www.w3.org/1999/xlink" x="0px" y="0px"
	 viewBox="0 0 512 128" style="enable-background:new 0 0 512 128;" xml:space="preserve">
<style type="text/css">
	.st0{fill:#FFFFFF;}
	.st1{fill-rule:evenodd;clip-rule:evenodd;fill:#14264A;}
	.st2{fill-rule:evenodd;clip-rule:evenodd;fill:#32BDB5;}
</style>
<rect class="st0" width="512" height="128"/>
<path class="st1" d="M114.5,87.2h-29v-9h25.8c0.7,0,1.2-0.5,1.2-1.2V67c0-0.7-0.5-1.2-1.2-1.2H85.4v-8.6h28.6c0.7,0,1.2-0.5,1.2-1.2
	v-11c0-0.7-0.5-1.2-1.2-1.2H71.2c-0.7,0-1.2,0.5-1.2,1.2v54.3c0,0.7,0.5,1.2,1.2,1.2h43.3c0.7,0,1.2-0.5,1.2-1.2v-11
	C115.6,87.7,115.1,87.2,114.5,87.2z M175.9,67.5h-23.4c-0.7,0-1.3,0.6-1.3,1.3v9c0,0.7,0.6,1.3,1.3,1.3h9.8v6.8c0,0.1,0,0.1-0.1,0.2
	c-2.3,1.5-5.2,2.3-8.9,2.3c-8.9,0-15.3-6.6-15.3-15.7v-0.2c0-8.7,6.3-15.5,14.4-15.5c5.1,0,9,1.7,12.7,4.6c0.5,0.4,1.2,0.3,1.6-0.2
	l7.7-9.3c0.4-0.5,0.4-1.3-0.2-1.7c-5.8-4.7-12.5-7.5-21.9-7.5c-17.4,0-30.3,13-30.3,29.5v0.2c0,17.2,13.1,29.3,30.6,29.3
	c10,0,18.1-3.6,24-8.4c0.3-0.2,0.4-0.6,0.4-0.9V68.6C177.1,68,176.6,67.5,175.9,67.5z M237.7,43.9h-13.1c-0.7,0-1.2,0.5-1.2,1.2
	v28.8l-22.8-29.5c-0.2-0.3-0.6-0.5-0.9-0.5H187c-0.7,0-1.2,0.5-1.2,1.2v54.3c0,0.7,0.5,1.2,1.2,1.2H200c0.7,0,1.2-0.5,1.2-1.2V69.5
	l23.7,30.6c0.2,0.3,0.6,0.5,0.9,0.5h11.9c0.7,0,1.2-0.5,1.2-1.2V45.1C238.9,44.4,238.4,43.9,237.7,43.9z M386.6,43.9h-47
	c-0.7,0-1.2,0.5-1.2,1.2v11.4c0,0.7,0.5,1.2,1.2,1.2h15.7v41.7c0,0.7,0.5,1.2,1.2,1.2h13.2c0.7,0,1.2-0.5,1.2-1.2V57.8
	c0-0.1,0.1-0.2,0.2-0.2h15.5c0.7,0,1.2-0.5,1.2-1.2V45.1C387.8,44.4,387.2,43.9,386.6,43.9z M441.6,87.2h-29v-9h25.8
	c0.7,0,1.2-0.5,1.2-1.2V67c0-0.7-0.5-1.2-1.2-1.2h-25.8v-8.6h28.6c0.7,0,1.2-0.5,1.2-1.2v-11c0-0.7-0.5-1.2-1.2-1.2h-42.9
	c-0.7,0-1.2,0.5-1.2,1.2v54.3c0,0.7,0.5,1.2,1.2,1.2h43.3c0.7,0,1.2-0.5,1.2-1.2v-11C442.7,87.7,442.2,87.2,441.6,87.2z"/>
<path class="st2" d="M291.9,44.6h-6.5c-0.4,0-0.8-0.4-0.8-0.8V18.8c0-0.4,0.4-0.8,0.8-0.8h6.5c0.4,0,0.8,0.4,0.8,0.8v25.1
	C292.7,44.3,292.3,44.6,291.9,44.6z"/>
<path class="st2" d="M305.5,79.7l3.2-5.6c0.2-0.4,0.7-0.5,1.1-0.3l21.5,12.5c0.4,0.2,0.5,0.7,0.3,1.1l-3.2,5.6
	c-0.2,0.4-0.7,0.5-1.1,0.3l-21.5-12.5C305.4,80.5,305.3,80,305.5,79.7z"/>
<path class="st2" d="M268.6,74l3.2,5.6c0.2,0.4,0.1,0.9-0.3,1.1L250,93.3c-0.4,0.2-0.9,0.1-1.1-0.3l-3.2-5.6
	c-0.2-0.4-0.1-0.9,0.3-1.1l21.5-12.5C267.9,73.5,268.4,73.6,268.6,74z"/>
<path class="st1" d="M329.4,50.2l-6.7-11.7c-0.4-0.7-1.3-0.9-2-0.5l-32.1,18.7L256.5,38c-0.7-0.4-1.6-0.2-2,0.5l-6.7,11.7
	c-0.4,0.7-0.2,1.6,0.5,2l32.1,18.7v37.4c0,0.8,0.6,1.5,1.4,1.5h13.4c0.8,0,1.4-0.6,1.4-1.5V70.8l32.1-18.7
	C329.6,51.8,329.8,50.9,329.4,50.2z"/>
</svg>
