<svg width="301" height="131" viewBox="0 0 301 131" fill="none" xmlns="http://www.w3.org/2000/svg">
<g clip-path="url(#clip0_1321_3906)">
<path d="M66.5098 112.932C67.0066 112.76 67.499 112.581 67.9886 112.394V130.464C67.497 130.486 67.0046 130.504 66.5098 130.515C66.0182 130.526 65.5254 130.534 65.031 130.534C64.5366 130.534 64.0442 130.526 63.5522 130.515C63.0579 130.504 62.5651 130.486 62.0735 130.464V114.232C62.5691 114.112 63.0622 113.984 63.5522 113.849V100.75C64.043 100.771 64.535 100.788 65.031 100.788C65.527 100.788 66.0186 100.771 66.5098 100.75V112.932V112.932ZM75.5836 99.1806C75.1143 99.3276 74.6394 99.4603 74.1618 99.5878C73.6869 99.7149 73.2073 99.8288 72.7244 99.9364L75.1521 108.998C74.7127 109.251 74.2673 109.496 73.8196 109.736L78.9885 129.028C79.4713 128.922 79.9518 128.811 80.4302 128.695C80.9099 128.578 81.3879 128.457 81.8632 128.33C82.34 128.202 82.8149 128.07 83.2874 127.932C83.7614 127.794 84.2335 127.651 84.7032 127.502L79.0729 106.489C78.6467 106.79 78.2144 107.084 77.7786 107.372L75.584 99.181L75.5836 99.1806ZM83.9315 95.2905C83.5156 95.555 83.0941 95.8104 82.6671 96.0578C82.2408 96.3044 81.8098 96.5434 81.3724 96.7725L84.4486 102.101C84.0805 102.446 83.7076 102.785 83.3292 103.119L94.9526 123.252C95.3904 123.024 95.8258 122.793 96.2581 122.556C96.6907 122.318 97.1205 122.077 97.5468 121.83C97.9734 121.583 98.3977 121.332 98.8188 121.076C99.2399 120.819 99.6586 120.559 100.074 120.293L87.6635 98.7974C87.3201 99.1838 86.9719 99.5663 86.617 99.9419L83.9315 95.2901V95.2905ZM90.9955 89.385C90.6617 89.7479 90.3235 90.1069 89.9749 90.4554C89.6263 90.804 89.2674 91.1422 88.9044 91.4761L91.4297 94.0014C91.1453 94.4125 90.8553 94.8196 90.5589 95.222L108.869 113.532C109.233 113.199 109.594 112.863 109.951 112.523C110.307 112.182 110.66 111.838 111.009 111.49C111.357 111.141 111.701 110.788 112.042 110.432C112.382 110.075 112.719 109.714 113.051 109.35L93.8467 90.1451C93.5957 90.5893 93.3404 91.0303 93.0762 91.4661L90.9955 89.3854V89.385ZM96.2919 81.8529C96.0628 82.2903 95.8238 82.7214 95.5772 83.1476C95.3302 83.5747 95.0745 83.9962 94.81 84.4121L96.2688 85.2543C96.0732 85.7104 95.8704 86.1621 95.6617 86.6111L119.812 100.554C120.078 100.139 120.339 99.7204 120.595 99.2994C120.852 98.8787 121.103 98.4544 121.35 98.0274C121.596 97.6011 121.838 97.1712 122.075 96.7386C122.312 96.3064 122.544 95.8713 122.771 95.4331L97.8507 81.0454C97.695 81.5239 97.5332 81.9995 97.3635 82.4716L96.2919 81.8529V81.8529ZM99.4554 73.205C99.3478 73.6874 99.2339 74.1675 99.1068 74.6423C98.9794 75.1196 98.8467 75.5948 98.6997 76.0641L99.1638 76.1884C99.059 76.6713 98.9479 77.1517 98.8296 77.6293L127.021 85.1833C127.17 84.7141 127.313 84.242 127.451 83.7679C127.589 83.2954 127.721 82.8206 127.849 82.3437C127.976 81.8681 128.097 81.3904 128.214 80.9108C128.33 80.4323 128.441 79.9519 128.547 79.469L99.9159 71.7971C99.8542 72.2911 99.7849 72.7831 99.7092 73.2723L99.4562 73.2046L99.4554 73.205ZM130.034 64.0332C130.024 63.5388 130.005 63.046 129.983 62.5544H100.217C100.246 63.0456 100.269 63.538 100.283 64.0332H100.269C100.279 64.2686 100.288 64.5045 100.294 64.7407C100.302 64.9969 100.307 65.2538 100.307 65.512C100.307 65.7701 100.302 66.0271 100.294 66.2832C100.288 66.5195 100.279 66.7549 100.269 66.9907H100.283C100.269 67.4855 100.246 67.9783 100.217 68.4695H129.983C130.005 67.9779 130.024 67.4851 130.034 66.9907C130.045 66.4991 130.053 66.0064 130.053 65.5124C130.053 65.0184 130.045 64.5256 130.034 64.0336V64.0332ZM98.6997 54.9594C98.8467 55.4287 98.9794 55.904 99.1068 56.3812C99.2339 56.8561 99.3478 57.3361 99.4554 57.8186L99.7084 57.7508C99.7845 58.2404 99.8538 58.732 99.9151 59.226L128.546 51.5545C128.44 51.0721 128.33 50.5912 128.213 50.1128C128.097 49.6331 127.975 49.1551 127.848 48.6798C127.721 48.203 127.588 47.7281 127.45 47.2556C127.312 46.7816 127.169 46.3095 127.02 45.8402L98.8288 53.3942C98.9475 53.8718 99.0586 54.3523 99.1634 54.8351L98.6993 54.9594H98.6997ZM94.8096 46.6115C95.0741 47.0274 95.3298 47.4485 95.5768 47.8759C95.8234 48.3022 96.0624 48.7332 96.2915 49.1706L97.3631 48.5519C97.5328 49.024 97.6946 49.4997 97.8503 49.9781L122.771 35.5904C122.543 35.1526 122.311 34.7172 122.074 34.2849C121.837 33.8523 121.596 33.4225 121.349 32.9962C121.102 32.5691 120.851 32.1449 120.595 31.7242C120.338 31.3027 120.077 30.8844 119.811 30.4693L95.6609 44.4124C95.8692 44.8614 96.0724 45.3132 96.268 45.7693L94.8092 46.6115H94.8096ZM88.9044 39.5475C89.2674 39.8813 89.6263 40.2195 89.9749 40.5681C90.3235 40.9167 90.6617 41.2756 90.9955 41.6386L93.0762 39.5578C93.3404 39.9933 93.5957 40.4347 93.8467 40.8788L113.052 21.674C112.719 21.3099 112.383 20.9489 112.042 20.5924C111.701 20.2362 111.357 19.8829 111.009 19.5343C110.66 19.1857 110.307 18.8419 109.951 18.5013C109.594 18.1607 109.233 17.8245 108.869 17.4918L90.5589 35.802C90.8553 36.2043 91.1453 36.6111 91.4297 37.0226L88.9044 39.5479V39.5475ZM81.372 34.2511C81.8094 34.4801 82.2404 34.7192 82.6667 34.9658C83.0937 35.2132 83.5156 35.4685 83.9311 35.733L86.6166 31.0816C86.9715 31.4573 87.3197 31.8397 87.6631 32.2261L100.073 10.731C99.6582 10.4649 99.2399 10.2044 98.8184 9.94742C98.3977 9.69126 97.9734 9.44028 97.5464 9.19329C97.1201 8.9467 96.6903 8.70528 96.2576 8.46825C95.8254 8.23121 95.39 7.99936 94.9522 7.77189L83.3288 27.9046C83.7072 28.2384 84.0801 28.5778 84.4482 28.9228L81.372 34.2511V34.2511ZM72.724 31.0876C73.2069 31.1951 73.6865 31.3091 74.1614 31.4362C74.639 31.5636 75.1139 31.6963 75.5832 31.8433L77.7778 23.6523C78.2136 23.9403 78.6459 24.2335 79.0721 24.5351L84.7024 3.52242C84.2327 3.37343 83.7606 3.23081 83.2866 3.09218C82.8141 2.95434 82.3392 2.82208 81.8624 2.6946C81.3867 2.56751 80.9091 2.44601 80.4294 2.32929C79.951 2.21296 79.4705 2.10221 78.9877 1.99664L73.8188 21.288C74.2669 21.5282 74.7119 21.7732 75.1513 22.0265L72.7236 31.088L72.724 31.0876ZM63.5522 30.2737C64.043 30.2534 64.535 30.2363 65.031 30.2363C65.527 30.2363 66.0186 30.2534 66.5098 30.2737V18.0922C67.0066 18.2635 67.499 18.4432 67.9886 18.6292V0.559706C67.497 0.537795 67.0046 0.519469 66.5098 0.508713C66.0182 0.497957 65.5254 0.48999 65.031 0.48999C64.5366 0.48999 64.0442 0.497558 63.5522 0.508713C63.0579 0.519867 62.5651 0.537795 62.0735 0.559706V16.7911C62.5691 16.9118 63.0622 17.0393 63.5522 17.1747V30.2733V30.2737ZM54.4785 31.8433C54.9474 31.6963 55.4226 31.5636 55.9003 31.4362C56.3751 31.3091 56.8552 31.1951 57.338 31.0876L53.1491 15.4542C53.6721 15.4848 54.1928 15.5243 54.7111 15.5709L51.0739 1.99664C50.5911 2.10221 50.1107 2.21296 49.6322 2.32929C49.1526 2.44601 48.6745 2.56751 48.1989 2.6946C47.722 2.82208 47.2472 2.95434 46.7747 3.09218C46.3006 3.23041 45.8285 3.37343 45.3593 3.52242L48.5395 15.392C49.0458 15.3761 49.553 15.3653 50.0629 15.3645L54.4781 31.8437L54.4785 31.8433ZM46.1305 35.7334C46.546 35.4689 46.9675 35.2136 47.395 34.9662C47.8212 34.7196 48.2523 34.4805 48.6901 34.2515L38.5642 16.713C39.0661 16.5943 39.5701 16.4808 40.0776 16.3772L35.1095 7.77229C34.6716 7.99976 34.2362 8.23121 33.804 8.46825C33.3718 8.70568 32.9419 8.9467 32.5152 9.19369C32.0882 9.44068 31.6639 9.69166 31.2432 9.94781C30.8218 10.2048 30.4031 10.4653 29.9884 10.7314L34.1661 17.9679C34.6438 17.8074 35.125 17.656 35.6086 17.5094L46.1301 35.7334H46.1305ZM39.0665 41.6389C39.4004 41.276 39.7382 40.9171 40.0872 40.5685C40.4357 40.2199 40.7951 39.8817 41.1576 39.5479L24.2035 22.5938C24.639 22.3297 25.0804 22.0744 25.5242 21.8234L21.1926 17.4918C20.8285 17.8245 20.4676 18.1607 20.111 18.5013C19.7549 18.8419 19.4015 19.1857 19.0534 19.5343C18.7048 19.8829 18.361 20.2358 18.0204 20.5924C17.6798 20.9489 17.3435 21.3099 17.0105 21.674L20.4473 25.1108C20.8496 24.8144 21.2568 24.5244 21.6679 24.2399L39.0665 41.6386V41.6389ZM33.7701 49.171C33.9992 48.7336 34.2382 48.3026 34.4848 47.8763C34.7318 47.4488 34.9876 47.0278 35.2521 46.6119L11.879 33.1173C12.2037 32.7341 12.5332 32.3548 12.869 31.9815L10.2501 30.4693C9.98435 30.8844 9.72341 31.3031 9.46646 31.7242C9.20991 32.1449 8.95933 32.5691 8.71194 32.9962C8.46534 33.4225 8.22393 33.8523 7.98689 34.2849C7.74986 34.7172 7.5184 35.1522 7.29053 35.5904L9.1386 36.6573C9.42423 36.2521 9.71465 35.8506 10.0118 35.4542L33.7697 49.171H33.7701ZM30.6066 57.819C30.7142 57.3365 30.8281 56.8565 30.9552 56.3816C31.0831 55.9044 31.2153 55.4291 31.3623 54.9598L3.36096 47.4568C3.53983 46.9931 3.72388 46.5318 3.9163 46.0749L3.04146 45.8406C2.89287 46.3103 2.74985 46.782 2.61122 47.256C2.47338 47.7285 2.34112 48.2034 2.21364 48.6802C2.08656 49.1559 1.96505 49.6335 1.84833 50.1132C1.73201 50.5916 1.62126 51.0721 1.51569 51.5549L1.94514 51.67C2.08138 51.1952 2.22599 50.7235 2.37578 50.2546L30.607 57.819H30.6066ZM29.7928 66.9907C29.7724 66.4999 29.7553 66.008 29.7553 65.5124C29.7553 65.0168 29.7724 64.5248 29.7928 64.0336H0.0277568C0.0277568 64.0336 0.0265619 64.1563 0.0253667 64.2173C0.0170009 64.6483 0.0090332 65.0793 0.0090332 65.512C0.0090332 65.9446 0.0170009 66.376 0.0253667 66.8067C0.0265619 66.8676 0.0277568 66.9903 0.0277568 66.9903H29.7928V66.9907ZM31.3623 76.0645C31.2153 75.5952 31.0827 75.12 30.9552 74.6427C30.8285 74.1679 30.7142 73.6878 30.6066 73.2054L2.37538 80.7701C2.22559 80.3009 2.08098 79.8296 1.94474 79.3547L1.51529 79.4698C1.62086 79.9523 1.73161 80.4331 1.84793 80.9116C1.96466 81.3912 2.08616 81.8689 2.21324 82.3445C2.34072 82.8214 2.47298 83.2962 2.61082 83.7687C2.74906 84.2428 2.89207 84.7148 3.04107 85.1841L3.9159 84.9499C3.72348 84.493 3.53983 84.0316 3.36056 83.5679L31.3619 76.0649L31.3623 76.0645ZM35.2525 84.4125C34.988 83.997 34.7326 83.5755 34.4852 83.148C34.2386 82.7218 33.9996 82.2907 33.7705 81.8533L10.0126 95.5702C9.71544 95.1738 9.42503 94.7722 9.13939 94.3671L7.29133 95.4339C7.5188 95.8717 7.75066 96.3072 7.98769 96.7394C8.22472 97.172 8.46614 97.6015 8.71273 98.0281C8.95972 98.4552 9.2107 98.8795 9.46725 99.3002C9.72421 99.7216 9.98474 100.14 10.2509 100.555L12.8698 99.0428C12.5339 98.6695 12.2045 98.2907 11.8798 97.907L35.2529 84.4125H35.2525ZM41.158 91.4765C40.7951 91.1426 40.4361 90.8044 40.0876 90.4558C39.739 90.1073 39.4008 89.7483 39.0669 89.3854L21.6683 106.784C21.2572 106.5 20.85 106.21 20.4477 105.914L17.0105 109.35C17.3431 109.714 17.6794 110.075 18.0204 110.432C18.361 110.788 18.7048 111.141 19.0534 111.49C19.4019 111.839 19.7549 112.182 20.1114 112.523C20.468 112.864 20.8289 113.2 21.193 113.533L25.5246 109.201C25.0804 108.95 24.6394 108.695 24.2039 108.431L41.158 91.4765V91.4765ZM48.6905 96.7729C48.2531 96.5438 47.822 96.3048 47.3953 96.0582C46.9683 95.8108 46.5468 95.5554 46.1309 95.2909L35.6094 113.515C35.1258 113.368 34.6442 113.217 34.1669 113.056L29.9891 120.293C30.4039 120.559 30.8225 120.82 31.244 121.077C31.6647 121.333 32.089 121.584 32.516 121.831C32.9423 122.078 33.3722 122.319 33.8048 122.557C34.237 122.794 34.6724 123.025 35.1103 123.252L40.0784 114.648C39.5709 114.544 39.0669 114.43 38.565 114.312L48.6909 96.7733L48.6905 96.7729ZM57.3384 99.9364C56.8556 99.8288 56.3759 99.7149 55.9007 99.5878C55.4234 99.4603 54.9481 99.3276 54.4789 99.1806L50.0637 115.66C49.5537 115.659 49.0462 115.648 48.5403 115.632L45.3601 127.502C45.8297 127.651 46.3018 127.794 46.7759 127.932C47.2484 128.07 47.7232 128.202 48.1997 128.33C48.6753 128.457 49.153 128.578 49.633 128.695C50.1115 128.811 50.5919 128.922 51.0747 129.028L54.7119 115.453C54.1936 115.5 53.6729 115.54 53.1499 115.57L57.3388 99.9368L57.3384 99.9364ZM65.48 67.1859L65.4732 67.1612ZM64.2661 68.3683L64.4155 67.811ZM64.5828 67.1863L64.5896 67.1616Z" fill="url(#paint0_linear_1321_3906)"/>
<path d="M273.273 27.2651H245.366V60.0506H229.607V70.9729H245.366V95.9589H258.637V38.9746H274.737C282.25 38.9746 286.738 42.8775 286.738 49.5128C286.738 55.4653 282.25 60.051 274.737 60.051H267.369V70.9796H274.835C291.032 70.9796 300.009 60.8314 300.009 49.1228C300.009 37.4141 292.593 27.2655 273.273 27.2655V27.2651Z" fill="#0000FF"/>
<path d="M194.448 26.4848C213.866 26.4848 223.331 38.6818 225.477 50.6837H212.304C210.158 43.9507 205.181 38.1938 194.643 38.1938C180.592 38.1938 173.176 48.6344 173.176 61.6123C173.176 74.395 180.202 85.0308 194.156 85.0308C204.108 85.0308 209.67 78.5906 211.719 70.9797H195.034V60.0511H225.477V95.959H211.817V91.4705C211.817 89.2261 212.207 87.1772 213.573 83.8596L214.256 82.2007H211.914L211.329 83.3715C208.499 89.0309 203.035 96.7394 191.521 96.7394C171.713 96.7394 159.906 81.0299 159.906 61.6119C159.906 42.1939 172.006 26.4844 194.448 26.4844L194.448 26.4848Z" fill="#0000FF"/>
</g>
<defs>
<linearGradient id="paint0_linear_1321_3906" x1="65.031" y1="0.48999" x2="65.031" y2="130.534" gradientUnits="userSpaceOnUse">
<stop stop-color="#0000FF"/>
<stop offset="0.5" stop-color="#00EDFF"/>
<stop offset="1" stop-color="#56C900"/>
</linearGradient>
<clipPath id="clip0_1321_3906">
<rect width="301" height="131" fill="white"/>
</clipPath>
</defs>
</svg>
