<?xml version="1.0" encoding="UTF-8" standalone="no"?>
<svg
   xmlns:dc="http://purl.org/dc/elements/1.1/"
   xmlns:cc="http://creativecommons.org/ns#"
   xmlns:rdf="http://www.w3.org/1999/02/22-rdf-syntax-ns#"
   xmlns:svg="http://www.w3.org/2000/svg"
   xmlns="http://www.w3.org/2000/svg"
   xmlns:sodipodi="http://sodipodi.sourceforge.net/DTD/sodipodi-0.dtd"
   xmlns:inkscape="http://www.inkscape.org/namespaces/inkscape"
   width="600"
   height="300"
   version="1.1"
   id="svg24"
   sodipodi:docname="merixstudio.svg"
   inkscape:version="0.92.5 (2060ec1f9f, 2020-04-08)">
  <metadata
     id="metadata28">
    <rdf:RDF>
      <cc:Work
         rdf:about="">
        <dc:format>image/svg+xml</dc:format>
        <dc:type
           rdf:resource="http://purl.org/dc/dcmitype/StillImage" />
        <dc:title></dc:title>
      </cc:Work>
    </rdf:RDF>
  </metadata>
  <sodipodi:namedview
     pagecolor="#ffffff"
     bordercolor="#666666"
     borderopacity="1"
     objecttolerance="10"
     gridtolerance="10"
     guidetolerance="10"
     inkscape:pageopacity="0"
     inkscape:pageshadow="2"
     inkscape:window-width="1920"
     inkscape:window-height="1040"
     id="namedview26"
     showgrid="false"
     inkscape:zoom="0.47333333"
     inkscape:cx="304.22535"
     inkscape:cy="200"
     inkscape:window-x="0"
     inkscape:window-y="25"
     inkscape:window-maximized="1"
     inkscape:current-layer="svg24" />
  <defs
     id="defs12">
    <linearGradient
       x1="83.262181"
       y1="164.83279"
       x2="83.262181"
       y2="2.4304382"
       id="a"
       gradientTransform="scale(0.94549529,1.0576467)"
       gradientUnits="userSpaceOnUse">
      <stop
         stop-color="#D46032"
         offset="0%"
         id="stop2" />
      <stop
         stop-color="#E1972E"
         offset="100%"
         id="stop4" />
    </linearGradient>
    <linearGradient
       x1="49.780998"
       y1="251.56117"
       x2="49.780998"
       y2="14.528149"
       id="b"
       gradientTransform="scale(1.5813928,0.63235397)"
       gradientUnits="userSpaceOnUse">
      <stop
         stop-color="#D46032"
         offset="0%"
         id="stop7" />
      <stop
         stop-color="#E1972E"
         offset="100%"
         id="stop9" />
    </linearGradient>
  </defs>
  <g
     id="g22"
     style="fill:none"
     transform="translate(0,-50)">
    <path
       d="M 0,0 H 600 V 400 H 0 Z"
       id="path14"
       inkscape:connector-curvature="0"
       style="fill:#ffffff" />
    <path
       d="m 78.724,176.558 c -2.887,0 -5.623,-0.657 -7.75,-1.87 L 8.016,138.404 a 16.669,16.669 0 0 1 -7.8,-13.442 V 52.446 a 16.669,16.669 0 0 1 7.8,-13.442 L 70.974,2.772 a 17.257,17.257 0 0 1 15.55,0 l 62.958,36.232 a 16.669,16.669 0 0 1 7.75,13.442 v 72.516 a 16.669,16.669 0 0 1 -7.75,13.442 l -62.958,36.284 a 15.73,15.73 0 0 1 -7.8,1.87 z m 0,-167.722 c -1.419,0 -2.837,0.303 -3.749,0.859 L 12.017,45.927 c -1.925,1.112 -3.748,4.296 -3.748,6.57 v 72.465 c 0,2.274 1.823,5.408 3.748,6.57 l 62.958,36.233 c 1.824,1.06 5.724,1.06 7.547,0 l 62.959,-36.233 c 1.924,-1.162 3.748,-4.296 3.748,-6.57 V 52.446 c 0,-2.223 -1.824,-5.407 -3.748,-6.519 L 82.522,9.695 c -0.911,-0.506 -2.33,-0.86 -3.798,-0.86 z"
       transform="translate(11.232,111.14)"
       id="path16"
       inkscape:connector-curvature="0"
       style="fill:url(#a)" />
    <path
       d="M 55.982,104.294 51.474,82.666 H 69.1 c 2.026,0 3.748,1.263 4.407,3.133 l 3.798,18.495 H 87.03 L 82.826,83.878 v -0.1 C 82.725,83.373 82.472,83.07 82.32,82.666 h 17.423 c 2.026,0 3.8,1.263 4.407,3.133 l 3.799,18.495 h 9.725 L 113.47,83.878 v -0.1 C 111.853,77.532 106.208,73.168 99.743,73.165 H 39.824 l 6.382,31.13 h 9.775 z"
       transform="translate(11.232,111.14)"
       id="path18"
       inkscape:connector-curvature="0"
       style="fill:url(#b)" />
    <path
       d="m 252.73,188.106 c -3.548,0 -9.374,2.454 -10.228,2.842 -0.104,0.051 -1.269,0.464 -2.641,1.446 a 8.548,8.548 0 0 0 -7.198,-4.288 c -3.548,0 -9.348,2.454 -10.228,2.841 a 8.242,8.242 0 0 0 -1.036,0.491 v -3.358 h -6.68 v 31.982 h 6.654 v -16.895 c 0,-4.547 2.926,-5.813 3.47,-6.02 2.227,-0.955 6.214,-2.402 7.82,-2.402 1.01,0 2.123,1.37 2.123,3.358 v 21.933 h 6.654 v -16.87 c 0,-4.546 2.926,-5.812 3.47,-6.018 2.2,-0.956 6.214,-2.403 7.82,-2.403 0.983,0 2.097,1.42 2.097,3.358 v 21.933 h 6.68 v -21.959 c 0,-5.502 -3.936,-9.971 -8.803,-9.971 h 0.025 z m 326.042,0 h -11.418 c -5.593,0 -10.15,4.03 -10.15,8.964 v 15.19 c 0,4.934 4.557,8.964 10.15,8.964 h 11.418 c 5.593,0 10.15,-4.03 10.15,-8.964 v -15.164 c 0,-4.96 -4.557,-8.99 -10.15,-8.99 z m 3.47,24.128 c 0,1.111 -1.398,2.325 -3.47,2.325 h -11.418 c -2.072,0 -3.496,-1.214 -3.496,-2.325 V 197.07 c 0,-1.085 1.424,-2.325 3.496,-2.325 h 11.418 c 2.072,0 3.47,1.24 3.47,2.325 z m -285.158,0.181 c -0.622,0.62 -1.45,0.956 -2.33,0.956 h -14.449 c -1.812,0 -3.34,-1.499 -3.34,-3.307 v -1.033 h 14.5 c 5.541,0 10.02,-4.004 10.02,-8.939 v -3.022 c 0,-4.934 -4.479,-8.964 -9.994,-8.964 h -11.186 c -5.515,0 -9.994,4.03 -9.994,8.964 v 12.994 c 0.014,5.501 4.48,9.958 9.994,9.972 h 14.449 a 9.942,9.942 0 0 0 7.068,-2.92 z M 276.965,199.86 v -2.79 c 0,-1.24 1.554,-2.325 3.366,-2.325 h 11.134 c 1.813,0 3.366,1.085 3.366,2.325 v 3.023 c 0,1.24 -1.553,2.325 -3.366,2.325 h -14.5 v -2.584 z m 137.155,0.982 h -12.43 c -1.812,-0.104 -3.081,-1.163 -3.081,-2.144 v -1.55 c 0,-1.034 1.372,-2.17 3.34,-2.17 h 13.542 c 0.984,0 1.942,0.31 2.59,0.852 l 4.246,-5.115 a 10.761,10.761 0 0 0 -6.836,-2.377 H 401.95 c -5.515,0 -9.995,3.953 -9.995,8.81 v 1.575 c 0,4.857 4.48,8.784 9.995,8.784 h 12.429 c 1.812,0.129 3.08,1.188 3.08,2.144 v 1.576 c 0,1.033 -1.372,2.144 -3.34,2.144 h -15.328 a 4.15,4.15 0 0 1 -2.59,-0.827 l -4.246,5.115 c 1.839,1.55 4.273,2.377 6.836,2.377 h 15.329 c 5.515,0 9.994,-3.953 9.994,-8.81 v -1.601 c 0,-4.857 -4.48,-8.81 -9.994,-8.81 z m -93.991,-12.736 c -5.516,0 -9.995,4.03 -9.995,8.964 v 22.966 h 6.654 V 197.07 c 0,-1.24 1.554,-2.325 3.34,-2.325 h 10.461 v -6.64 h -10.46 z m 18.617,0.077 h 6.68 v 31.827 h -6.68 z m 102.975,25.369 c -1.786,0 -3.34,-1.085 -3.34,-2.325 v -16.25 h 6.862 v -6.639 h -6.862 v -8.835 h -6.654 v 31.75 c 0,4.934 4.48,8.964 9.994,8.964 h 10.202 v -6.665 z m 42.62,-25.446 v 16.017 c 0,6.277 -2.978,7.026 -3.625,7.155 -2.382,0.569 -9.244,2.093 -12.118,2.093 -1.294,0 -2.408,-1.55 -2.408,-3.333 V 188.08 h -6.654 v 21.958 c 0,5.503 4.065,9.972 9.062,9.972 4.195,0 12.74,-2.04 13.257,-2.196 0.725,-0.077 1.554,-0.31 2.46,-0.749 v 2.945 h 6.68 v -31.904 z m 40.005,-9.481 v 11.522 a 6.485,6.485 0 0 0 -1.994,-0.517 c -0.389,-0.026 -9.658,-1.162 -13.723,-1.162 -4.998,0 -9.063,4.469 -9.063,9.971 v 11.6 c 0,5.502 4.065,9.971 9.063,9.971 4.065,0 13.334,-1.11 13.542,-1.137 a 7.735,7.735 0 0 0 2.175,-0.516 v 1.679 h 6.68 v -41.411 z m -2.797,33.635 c -0.078,0 -9.244,1.11 -12.946,1.11 -1.295,0 -2.382,-1.523 -2.382,-3.306 v -11.599 c 0,-1.808 1.087,-3.358 2.408,-3.358 3.676,0 12.842,1.136 12.946,1.162 1.036,0.155 2.77,1.809 2.77,6.743 v 2.48 c 0,4.96 -1.734,6.587 -2.796,6.768 z M 369.48,198.775 360.729,188.132 h -8.545 l 12.998,15.965 -13.024,15.913 h 8.545 l 8.803,-10.67 8.7,10.67 h 8.597 l -13.05,-15.913 13.05,-15.965 h -8.597 z m 171.411,-10.643 h 7.095 v 31.878 h -7.095 z"
       id="path20"
       inkscape:connector-curvature="0"
       style="fill:#000000" />
  </g>
</svg>
