<?xml version="1.0" encoding="UTF-8"?>
<svg width="600px" height="400px" viewBox="0 0 600 400" version="1.1" xmlns="http://www.w3.org/2000/svg" xmlns:xlink="http://www.w3.org/1999/xlink">
    <!-- Generator: Sketch 54.1 (76490) - https://sketchapp.com -->
    <title>Artboard</title>
    <desc>Created with Sketch.</desc>
    <defs>
        <radialGradient cx="45.4307669%" cy="11.9045602%" fx="45.4307669%" fy="11.9045602%" r="139.427831%" gradientTransform="translate(0.454308,0.119046),scale(1.000000,0.737040),translate(-0.454308,-0.119046)" id="radialGradient-1">
            <stop stop-color="#00D0FE" offset="0%"></stop>
            <stop stop-color="#0093E9" offset="69.1%"></stop>
            <stop stop-color="#0077B2" offset="100%"></stop>
        </radialGradient>
        <radialGradient cx="26.5146796%" cy="5.02096329%" fx="26.5146796%" fy="5.02096329%" r="145.793146%" gradientTransform="translate(0.265147,0.050210),scale(1.000000,0.736897),translate(-0.265147,-0.050210)" id="radialGradient-2">
            <stop stop-color="#F79606" offset="0%"></stop>
            <stop stop-color="#F96603" offset="100%"></stop>
        </radialGradient>
    </defs>
    <g id="Artboard" stroke="none" stroke-width="1" fill="none" fill-rule="evenodd">
        <rect fill="#FFFFFF" x="0" y="0" width="600" height="400"></rect>
        <g id="selleo-logo" transform="translate(10.000000, 100.000000)" fill-rule="nonzero">
            <g id="Group" transform="translate(4.602803, 3.513097)">
                <path d="M53.9817895,2.88247132 C43.449822,5.54704524 37.5696294,15.651259 38.3802604,26.2410726 C39.8892812,45.9763514 34.6077084,57.5560418 12.3091201,67.8096709 L12.3153557,67.8096709 C11.7603852,68.0649221 11.217886,68.3450759 10.6940937,68.6501323 C10.6878581,68.6563579 10.6753868,68.6625836 10.6691512,68.6688092 C8.57398182,69.8765834 6.72823737,71.4205421 5.2005097,73.2135264 C5.18180283,73.238429 5.16309596,73.2633315 5.14438909,73.2820084 C4.77648733,73.7115776 4.42105681,74.1660493 4.0968044,74.6267467 C4.08433316,74.6516492 4.06562629,74.6641005 4.05315504,74.6890031 C3.37970774,75.6353004 2.78732354,76.6376284 2.27600245,77.6897616 C2.26976682,77.7022128 2.2635312,77.7084385 2.25729558,77.7208898 C2.01410627,78.218941 1.79585946,78.7294434 1.60255515,79.2461716 C1.57761265,79.308428 1.55890579,79.3644587 1.53396329,79.4267151 C1.34065898,79.9247663 1.17853277,80.4352688 1.02887782,80.9519969 C1.00393533,81.0267046 0.985228456,81.0951866 0.97275721,81.1698943 C0.823102255,81.6866224 0.692154169,82.2158018 0.586148575,82.7512069 C0.573677329,82.801012 0.567441706,82.8383658 0.561206083,82.8757197 C0.461436112,83.423576 0.374137388,83.9652067 0.311781157,84.5192886 C0.311781157,84.5379656 0.305545534,84.5690938 0.305545534,84.5877707 C0.249424926,85.135627 0.21824681,85.6772577 0.19953994,86.2313396 C0.19953994,86.3184986 0.193304317,86.3932063 0.193304317,86.4865909 C0.180833071,87.0157703 0.19953994,87.5511753 0.236953679,88.0865804 C0.236953679,88.1861906 0.249424926,88.2858008 0.255660549,88.3791854 C0.293074288,88.9270418 0.355430519,89.4686724 0.442729243,89.9978518 C0.455200489,90.0787852 0.467671736,90.1597185 0.480142982,90.2344262 C0.573677329,90.807185 0.685918545,91.3737183 0.835573501,91.9464772 C0.978992833,92.519236 1.15359028,93.0670924 1.33442335,93.6211743 C1.35936584,93.695882 1.38430834,93.764364 1.40925083,93.8390717 C1.5900839,94.3557998 1.79585946,94.8600767 2.0203419,95.3519022 C2.05775564,95.4452868 2.101405,95.5324458 2.13881874,95.6258304 C2.36330117,96.1052047 2.60649047,96.5908046 2.86838664,97.0577276 C2.90580038,97.1262096 2.94944975,97.2009173 2.99309911,97.2693994 C3.26746653,97.7487736 3.55430519,98.2156966 3.87232197,98.6639427 C3.88479322,98.6826196 3.89726446,98.7012966 3.91597133,98.7199735 C4.22775249,99.1806708 4.56447614,99.6226913 4.91990666,100.05226 C4.94484915,100.083389 4.96979164,100.114517 4.99473414,100.158096 C5.35016465,100.575214 5.7118308,100.979881 6.09220381,101.36587 C6.14208879,101.415676 6.18573816,101.465481 6.23562314,101.521511 C6.61599615,101.907501 7.00260479,102.274814 7.41415591,102.62345 C7.4640409,102.660804 7.50769026,102.698157 7.55757525,102.747963 C7.98159762,103.102824 8.41809124,103.45146 8.86082048,103.775193 C8.87329173,103.781419 8.88576298,103.787644 8.89823422,103.800096 C9.83981332,104.47869 10.8437486,105.063901 11.8850977,105.586854 C11.9038046,105.599306 11.9287471,105.611757 11.9536896,105.624208 C12.4650107,105.879459 12.988803,106.103583 13.518831,106.309029 C13.5437735,106.327706 13.5749516,106.333931 13.5998941,106.340157 C15.801069,107.19307 18.1581346,107.678669 20.5775564,107.753377 L20.6149701,107.753377 C21.2198255,107.765828 21.8309166,107.759603 22.4420077,107.722249 C40.1137637,106.987623 52.2857,111.258412 59.6624422,121.001539 C61.5206579,123.634985 63.1793337,126.623292 64.5885845,130.01004 C64.6197626,130.084748 64.6571763,130.15323 64.6821188,130.227938 C68.2551309,139.367177 76.2242573,145.798263 85.4467439,145.630171 C86.9432934,145.605268 88.4710211,145.424725 90.0299269,145.038735 C97.755864,143.077658 103.386632,137.082367 105.219905,129.885527 C105.26979,129.673856 105.300968,129.455958 105.350853,129.238061 C105.450623,128.789815 105.550393,128.347794 105.62522,127.899548 C105.72499,127.252082 105.793582,126.598389 105.830996,125.932246 C105.830996,125.907343 105.837232,125.882441 105.837232,125.863764 C105.943237,123.977395 105.762404,122.053672 105.332146,120.136175 C105.288497,119.955632 105.26979,119.781314 105.219905,119.60077 C102.557294,109.073213 92.3869924,102.766639 81.8238468,104.011767 C81.7365481,104.024219 81.655485,104.024219 81.5681863,104.030444 C76.3676766,104.416434 71.7844936,104.111378 67.575448,103.513716 C53.9880252,101.589994 44.9089579,92.7122309 41.9657437,81.8484891 C37.7068131,66.1661019 45.9066576,51.1685352 64.4202227,43.4798698 C75.0581957,39.0596654 82.3039898,29.2356054 79.4667813,18.0668073 C77.0660664,8.57893192 68.5232627,2.25990732 59.1448855,2.25368168 C57.4425604,2.23500476 55.7090571,2.44667652 53.9817895,2.88247132" id="Path" fill="url(#radialGradient-1)"></path>
                <path d="M88.0469987,49.3008432 C86.5566848,49.3195201 85.0227215,49.5000636 83.4638157,49.892279 C75.7378787,51.8471299 70.1133466,57.8424212 68.2738378,65.0454867 C68.2177172,65.2571585 68.186539,65.4750559 68.1428897,65.6929533 C68.0431197,66.1411994 67.9371141,66.5832198 67.8685223,67.0314659 C67.7687523,67.6789324 67.7001604,68.3388503 67.6689823,68.9987681 C67.6627467,69.0298963 67.6565111,69.0485732 67.6565111,69.0672502 C67.5567411,70.9536191 67.7313386,72.8773418 68.1678322,74.8010646 C68.2114815,74.9816082 68.2301884,75.1621517 68.2800734,75.3364696 L68.2800734,75.3426953 C70.9426845,85.8578012 81.1067502,92.1706002 91.6761314,90.9254722 C91.7634301,90.9130209 91.8444932,90.9130209 91.931792,90.9005696 C97.1323017,90.51458 101.715485,90.825862 105.930766,91.4172978 C119.518189,93.3410205 128.59102,102.225009 131.534235,113.088751 C135.793165,128.771138 127.593321,143.768705 109.079756,151.451144 C98.4417825,155.871349 91.2022241,165.695409 94.033197,176.857981 C96.8766411,188.076584 108.287831,194.868758 119.524424,192.029866 C130.056392,189.365292 135.936584,179.261078 135.125953,168.665039 C133.616933,148.935986 138.898505,137.35007 161.190858,127.096441 C161.745829,126.841189 162.288328,126.561036 162.81212,126.255979 C162.824591,126.249754 162.830827,126.243528 162.837063,126.243528 C164.932232,125.035754 166.771741,123.485569 168.299469,121.692585 C168.318175,121.673908 168.336882,121.649006 168.355589,121.624103 C168.723491,121.182083 169.072686,120.740062 169.403174,120.279365 C169.415645,120.248237 169.434352,120.235785 169.440588,120.210883 C170.114035,119.264585 170.712655,118.268483 171.21774,117.210124 C171.223976,117.203899 171.230211,117.191447 171.230211,117.185222 C171.473401,116.680945 171.691648,116.164217 171.891187,115.653714 C171.909894,115.591458 171.934837,115.535427 171.953544,115.479396 C172.146848,114.981345 172.31521,114.470843 172.464865,113.954115 C172.489807,113.885633 172.502279,113.810925 172.520985,113.748668 C172.67064,113.219489 172.801588,112.696535 172.907594,112.16113 C172.91383,112.117551 172.920065,112.073971 172.932537,112.030392 C173.038542,111.494987 173.119605,110.94713 173.181961,110.393048 C173.181961,110.374372 173.188197,110.343243 173.188197,110.324566 C173.250553,109.77671 173.275496,109.228854 173.294203,108.674772 C173.294203,108.587613 173.300438,108.512905 173.300438,108.419521 C173.31291,107.890341 173.294203,107.354936 173.263025,106.819531 C173.263025,106.719921 173.250553,106.626536 173.244318,106.533152 C173.206904,105.985295 173.138312,105.443665 173.057249,104.90826 C173.044778,104.827326 173.026071,104.746393 173.019835,104.671685 C172.926301,104.098926 172.81406,103.532393 172.664405,102.959634 C172.51475,102.386875 172.346388,101.839019 172.159319,101.284937 C172.134377,101.216455 172.109434,101.135522 172.084492,101.06704 C171.903659,100.550312 171.691648,100.039809 171.473401,99.5479836 C171.435987,99.4608246 171.398573,99.36744 171.354924,99.2802811 C171.130441,98.7946812 170.887252,98.3153069 170.625356,97.8483839 C170.587942,97.7799018 170.544293,97.7051942 170.500644,97.6304865 C170.22004,97.1573378 169.939437,96.6841892 169.621421,96.2359431 C169.608949,96.2110406 169.596478,96.1923636 169.577771,96.1736867 C169.26599,95.7129894 168.929266,95.2709689 168.573836,94.8413998 C168.542658,94.8102716 168.523951,94.7729177 168.499009,94.7417895 C168.143578,94.3246716 167.775676,93.9137794 167.401539,93.5277897 C167.351654,93.4779846 167.301769,93.4219538 167.251884,93.3783744 C166.871511,92.9923847 166.484902,92.6250719 166.073351,92.2764361 C166.023466,92.2328566 165.979817,92.1955028 165.929932,92.1519233 C165.505909,91.7908362 165.069416,91.448426 164.620451,91.1246927 C164.60798,91.1122414 164.595508,91.1060158 164.589273,91.0997901 C163.641458,90.4211954 162.643758,89.8235339 161.602409,89.3068058 C161.583702,89.2943545 161.55876,89.2819032 161.533817,89.269452 C161.022496,89.0204264 160.498704,88.7900777 159.968676,88.5846316 C159.937498,88.5659546 159.912555,88.559729 159.881377,88.5535034 C157.686438,87.7005907 155.329372,87.2149908 152.909951,87.1465087 L152.872537,87.1465087 C152.267681,87.1278318 151.662826,87.1402831 151.051735,87.1776369 L151.051735,87.1714113 C133.373743,87.9184881 121.208043,83.6414734 113.825065,73.9045724 C111.973085,71.2711267 110.314409,68.2765939 108.898923,64.8898457 C108.867744,64.8213637 108.830331,64.746656 108.799153,64.6719483 C105.276025,55.6447703 97.4565541,49.269715 88.3774868,49.269715 C88.2777168,49.3008432 88.15924,49.3008432 88.0469987,49.3008432" id="Path" fill="url(#radialGradient-2)"></path>
            </g>
            <g id="Group" transform="translate(220.495868, 38.285714)" fill="#2F3033">
                <path d="M31.1090909,94.7092857 C37.1152066,94.7092857 39.2961983,92.8045714 39.2961983,89.2583571 C39.2961983,84.8985714 35.2026446,83.1278571 28.3768595,81.0843571 C15.9571901,77.3993571 2.4446281,72.3647857 2.4446281,56.5575714 C2.4446281,44.9713571 9.95107438,37.4769286 27.0107438,37.4769286 C39.291405,37.4769286 48.8494215,40.2 48.8494215,40.2 C49.534876,40.4775714 50.0765289,41.0183571 50.2155372,41.5639286 C50.2155372,41.5639286 51.5816529,51.9202143 51.5816529,52.461 C51.5816529,53.2841429 51.04,53.8249286 50.2155372,53.8249286 C49.534876,53.8249286 38.6155372,51.1018571 27.0155372,51.1018571 C21.5558678,51.1018571 18.8284298,53.0065714 18.8284298,56.5575714 C18.8284298,60.9125714 22.9219835,62.6832857 29.7477686,64.7315714 C42.167438,68.4117857 55.68,73.3123571 55.68,89.2583571 C55.68,100.160214 46.807438,108.334214 31.1138843,108.334214 C16.1009917,108.334214 5.18165289,104.247214 5.18165289,104.247214 C4.49619835,103.969643 3.95454545,103.424071 3.82033058,102.883286 C3.82033058,102.883286 2.45421488,92.527 2.45421488,91.9814286 C2.45421488,91.1630714 3.00066116,90.6222857 3.82033058,90.6222857 C4.49140496,90.6222857 18.8284298,94.7092857 31.1090909,94.7092857" id="Path"></path>
                <path d="M83.9322314,66.0907143 L114.504463,66.0907143 C113.96281,58.4622857 110.549917,51.1018571 100.991901,51.1018571 C88.0305785,51.1018571 84.8861157,57.5051429 83.9322314,66.0907143 L83.9322314,66.0907143 Z M83.9322314,79.7204286 C85.025124,88.44 88.7112397,94.7092857 102.358017,94.7092857 C113.277355,94.7092857 124.877355,91.9862143 125.56281,91.9862143 C126.382479,91.9862143 126.924132,92.5317857 126.924132,93.3501429 C126.924132,93.7569286 125.56281,104.247214 125.56281,104.247214 C125.423802,104.931571 125.016364,105.477143 124.201488,105.611143 C124.201488,105.611143 114.643471,108.334214 102.358017,108.334214 C73.0128926,108.334214 66.872562,92.3882143 66.872562,72.9055714 C66.872562,53.4181429 73.1566942,37.6109286 100.991901,37.6109286 C120.35719,37.6109286 131.161488,48.3787857 131.161488,72.9055714 L131.161488,78.3565 C131.161488,79.0408571 130.47124,79.7204286 129.661157,79.7204286 L83.9322314,79.7204286 Z" id="Shape"></path>
                <path d="M146.581818,7.37 C146.581818,6.55164286 147.128264,6.00607143 147.947934,6.00607143 L161.599504,4.64214286 C162.41438,4.64214286 162.96562,5.18771429 162.96562,6.00607143 L162.96562,96.0827857 C162.96562,101.533714 164.326942,105.075143 164.326942,105.620714 C164.326942,106.439071 163.780496,106.984643 162.96562,106.984643 L149.31405,106.984643 C148.767603,106.984643 148.216364,106.439071 147.947934,105.620714 C147.947934,105.620714 146.581818,101.533714 146.581818,96.0827857 L146.581818,7.37" id="Path"></path>
                <path d="M183.059504,7.37 C183.059504,6.55164286 183.60595,6.00607143 184.42562,6.00607143 L198.07719,4.64214286 C198.892066,4.64214286 199.438512,5.18771429 199.438512,6.00607143 L199.438512,96.0827857 C199.438512,101.533714 200.799835,105.075143 200.799835,105.620714 C200.799835,106.439071 200.253388,106.984643 199.438512,106.984643 L185.786942,106.984643 C185.240496,106.984643 184.69405,106.439071 184.42562,105.620714 C184.42562,105.620714 183.059504,101.533714 183.059504,96.0827857 L183.059504,7.37" id="Path"></path>
                <path d="M232.719008,66.0907143 L263.29124,66.0907143 C262.749587,58.4622857 259.336694,51.1018571 249.778678,51.1018571 C236.807769,51.1018571 233.672893,57.5051429 232.719008,66.0907143 L232.719008,66.0907143 Z M232.719008,79.7204286 C233.811901,88.44 237.498017,94.7092857 251.144793,94.7092857 C262.064132,94.7092857 273.664132,91.9862143 274.349587,91.9862143 C275.169256,91.9862143 275.710909,92.5317857 275.710909,93.3501429 C275.710909,93.7569286 274.349587,104.247214 274.349587,104.247214 C274.215372,104.931571 273.80314,105.477143 272.988264,105.611143 C272.988264,105.611143 263.430248,108.334214 251.144793,108.334214 C221.799669,108.334214 215.659339,92.3882143 215.659339,72.9055714 C215.659339,53.4181429 221.943471,37.6109286 249.778678,37.6109286 C269.143967,37.6109286 279.948264,48.3787857 279.948264,72.9055714 L279.948264,78.3565 C279.948264,79.0408571 279.258017,79.7204286 278.447934,79.7204286 L232.719008,79.7204286 L232.719008,79.7204286 Z" id="Shape"></path>
                <path d="M325.375207,94.7092857 C339.021983,94.7092857 343.115537,86.5352857 343.115537,72.9055714 C343.115537,59.2758571 339.021983,51.1018571 325.375207,51.1018571 C311.723636,51.1018571 307.630083,59.2758571 307.630083,72.9055714 C307.625289,86.5352857 311.723636,94.7092857 325.375207,94.7092857 M325.375207,37.4721429 C345.847769,37.4721429 359.494545,48.374 359.494545,72.9055714 C359.494545,97.4323571 345.842975,108.334214 325.375207,108.334214 C304.902645,108.334214 291.251074,97.4323571 291.251074,72.9055714 C291.251074,48.374 304.897851,37.4721429 325.375207,37.4721429" id="Shape"></path>
            </g>
        </g>
    </g>
</svg>