<?xml version="1.0" encoding="UTF-8"?>
<svg width="1100px" height="531px" viewBox="0 0 1100 531" version="1.1" xmlns="http://www.w3.org/2000/svg" xmlns:xlink="http://www.w3.org/1999/xlink">
    <!-- Generator: Sketch 58 (84663) - https://sketch.com -->
    <title>stxnext_web_color</title>
    <desc>Created with Sketch.</desc>
    <g id="stxnext_web_color" stroke="none" stroke-width="1" fill="none" fill-rule="evenodd" transform="translate(0.000000, 0.000000)">
        <g id="stxnext_logo_web" transform="translate(160.000000, 188.000000)" fill-rule="nonzero">
            <path d="M249.405262,154.558464 L296.947149,76.6493772 L252.369569,2.54622369 L295.010396,2.54622369 L337.645844,76.6225743 L292.234385,154.531662 L249.405262,154.558464 Z M166.135678,154.558464 L166.135678,35.8508315 L128.638004,35.8508315 L128.638004,2.54086291 L241.120267,2.54086291 L241.120267,35.8454708 L203.606454,35.8454708 L203.606454,154.531662 L166.135678,154.558464 Z M0,134.47278 L23.9673079,110.548996 C31.8918529,118.44497 45.8310883,121.216334 58.0272476,121.216334 C72.7734637,121.216334 79.8802681,116.322224 79.8802681,107.557853 C80.0703327,104.30795 79.0168208,101.10709 76.9321007,98.6005068 C74.1165226,96.1774789 70.5754865,94.7507164 66.8609897,94.5426293 L48.4188043,91.9749645 C37.0044663,90.990796 26.2393832,86.2648268 17.8073607,78.5362632 C10.3638792,70.1503255 6.58249208,59.1538103 7.30048015,47.9815769 C7.3058596,20.2518602 28.298101,0 63.0090047,0 C84.8512653,0 101.351317,5.12461011 114.429775,18.145195 L90.8282976,41.6508608 C81.1929551,32.0556176 68.5502674,32.698874 61.9007513,32.698874 C48.833054,32.698874 43.4800866,40.1713706 43.4800866,46.796913 C43.5025219,49.4493032 44.5802344,51.9844605 46.4766729,53.8459326 C49.3581886,56.4949011 53.0656368,58.0769976 56.978173,58.3272863 L75.4095986,60.9003129 C86.5119817,61.7527056 97.0376844,66.168998 105.407737,73.4866991 C113.547477,81.3826729 116.764637,92.6986277 116.764637,106.791306 C116.764637,137.67298 89.962139,154.537023 57.8550915,154.537023 C34.4957082,154.531662 15.418699,150.259366 0,134.47278 Z M600.393177,154.467337 L637.826292,91.937441 L602.760319,32.5648623 L617.877745,32.5648623 L645.035315,80.6750911 L672.182125,32.5648623 L687.310312,32.5648623 L652.039902,91.9320802 L689.844229,154.424453 L674.716042,154.456615 L645.046075,103.269477 L615.144773,154.461976 L600.393177,154.467337 Z M731.53282,154.467337 L731.53282,44.1970845 L696.138673,44.1970845 L696.138673,32.5595015 L780.000043,32.5595015 L780.000043,44.1970845 L744.573618,44.1970845 L744.573618,154.456615 L731.53282,154.467337 Z M515.810905,32.5595015 L591.731591,32.5595015 L591.731591,44.207806 L528.787145,44.207806 L528.787145,87.1880629 L582.402901,87.1880629 L582.402901,98.7934832 L528.840944,98.7934832 L528.840944,142.802951 L591.78539,142.802951 L591.78539,154.451256 L515.805526,154.451256 L515.810905,32.5595015 Z M485.220981,154.456615 L420.275224,56.6655404 L420.275224,154.424453 L407.212906,154.424453 L407.212906,32.5595015 L419.586601,32.5595015 L484.559257,129.975344 L484.559257,32.5595015 L497.637714,32.5595015 L497.637714,154.456615 L485.220981,154.456615 Z" id="Shape" fill="#00B2A9"></path>
            <polygon id="Shape-path" fill="#A2AAAD" points="341.772202 154.381569 327.338019 127.42376 347.243527 93.4169311 382.809829 154.413732"></polygon>
            <polygon id="Shape-path" fill="#A2AAAD" points="327.246561 24.1703643 338.512003 2.48189825 381.115171 2.48189825 347.90525 59.6352412"></polygon>
        </g>
    </g>
</svg>