<?xml version="1.0" encoding="UTF-8"?>
<svg width="600px" height="400px" viewBox="0 0 600 400" version="1.1" xmlns="http://www.w3.org/2000/svg" xmlns:xlink="http://www.w3.org/1999/xlink">
    <!-- Generator: Sketch 55.1 (78136) - https://sketchapp.com -->
    <title>Artboard</title>
    <desc>Created with Sketch.</desc>
    <g id="Artboard" stroke="none" stroke-width="1" fill="none" fill-rule="evenodd">
        <rect fill="#FFFFFF" x="0" y="0" width="600" height="400"></rect>
        <g id="tpx-black" transform="translate(20.000000, 128.000000)" fill="#1D1D1B" fill-rule="nonzero">
            <path d="M256.172296,30.4371184 L241.266112,30.4371184 C236.013872,30.4442926 231.757883,34.6909278 231.750693,39.9316239 L231.750693,101.281237 C231.757883,106.521933 236.013872,110.768569 241.266112,110.775743 L256.172296,110.775743 C261.424535,110.768569 265.680524,106.521933 265.687714,101.281237 L265.687714,39.9316239 C265.680524,34.6909278 261.424535,30.4442926 256.172296,30.4371184 Z M256.824931,101.281237 C256.824931,101.640885 256.532736,101.932438 256.172296,101.932438 L241.266112,101.932438 C240.905672,101.932438 240.613477,101.640885 240.613477,101.281237 L240.613477,39.9316239 C240.613477,39.5719757 240.905672,39.2804233 241.266112,39.2804233 L256.172296,39.2804233 C256.532736,39.2804233 256.824931,39.5719757 256.824931,39.9316239 L256.824931,101.281237 Z" id="Shape"></path>
            <path d="M307.926252,30.4370983 L293.0527,30.4370983 C287.800461,30.4442926 283.544472,34.6909278 283.537282,39.9316239 L283.537282,101.281237 C283.544472,106.521933 287.800461,110.768569 293.0527,110.775743 L307.958884,110.775743 C313.211123,110.768569 317.467113,106.521933 317.474302,101.281237 L317.474302,39.9316239 C317.470844,37.4089394 316.462739,34.9910444 314.671944,33.2102914 C312.881148,31.4295384 310.45449,30.4319325 307.926252,30.4370983 Z M308.578887,101.281237 C308.578887,101.640885 308.286693,101.932438 307.926252,101.932438 L293.0527,101.932438 C292.69226,101.932438 292.400065,101.640885 292.400065,101.281237 L292.400065,39.9316239 C292.400065,39.5719757 292.69226,39.2804233 293.0527,39.2804233 L307.958884,39.2804233 C308.319324,39.2804233 308.611519,39.5719757 308.611519,39.9316239 L308.578887,101.281237 Z" id="Shape"></path>
            <path d="M443.472018,30.4371184 L428.572361,30.4371184 C423.317573,30.4407048 419.057613,34.6883886 419.050416,39.9316239 L419.050416,101.281237 C419.057613,106.524473 423.317573,110.772156 428.572361,110.775743 L443.472018,110.775743 C448.724258,110.768569 452.980247,106.521933 452.987437,101.281237 L452.987437,39.9316239 C452.980247,34.6909278 448.724258,30.4442926 443.472018,30.4371184 Z M444.124653,101.281237 C444.124653,101.640885 443.832459,101.932438 443.472018,101.932438 L428.572361,101.932438 C428.211921,101.932438 427.919726,101.640885 427.919726,101.281237 L427.919726,39.9316239 C427.919726,39.5719757 428.211921,39.2804233 428.572361,39.2804233 L443.472018,39.2804233 C443.832459,39.2804233 444.124653,39.5719757 444.124653,39.9316239 L444.124653,101.281237 Z" id="Shape"></path>
            <path d="M495.239028,30.4371184 L480.358949,30.4371184 C475.10671,30.4442926 470.850721,34.6909278 470.843531,39.9316239 L470.843531,101.281237 C470.850721,106.521933 475.10671,110.768569 480.358949,110.775743 L495.239028,110.775743 C500.491267,110.768569 504.747256,106.521933 504.754446,101.281237 L504.754446,39.9316239 C504.747256,34.6909278 500.491267,30.4442926 495.239028,30.4371184 Z M495.891663,101.281237 C495.891663,101.640885 495.599468,101.932438 495.239028,101.932438 L480.358949,101.932438 C479.998509,101.932438 479.706314,101.640885 479.706314,101.281237 L479.706314,39.9316239 C479.706314,39.5719757 479.998509,39.2804233 480.358949,39.2804233 L495.239028,39.2804233 C495.599468,39.2804233 495.891663,39.5719757 495.891663,39.9316239 L495.891663,101.281237 Z" id="Shape"></path>
            <polygon id="Path" points="392.494697 30.8538869 383.644967 30.8538869 383.644967 110.358974 410.135422 110.358974 410.135422 101.528694 392.494697 101.528694"></polygon>
            <path d="M357.898515,30.8473391 L333.476913,30.8473391 L333.476913,110.358974 L342.326644,110.358974 L342.326644,85.8542939 L357.924621,85.8542939 C363.181957,85.8542988 367.44589,81.605565 367.453092,76.3597884 L367.453092,40.3418803 C367.449636,37.8180647 366.440635,35.3991802 364.648427,33.6182397 C362.856219,31.8372991 360.427883,30.8404579 357.898515,30.8473391 L357.898515,30.8473391 Z M358.590308,76.3597884 C358.590308,76.7194365 358.298114,77.010989 357.937673,77.010989 L342.352749,77.010989 L342.352749,39.3715914 L357.924621,39.3715914 C358.285061,39.3715914 358.577256,39.6631438 358.577256,40.022792 L358.590308,76.3597884 Z" id="Shape"></path>
            <polygon id="Path" points="544.069179 67.6923077 557.030511 30.8538869 547.443302 30.8538869 539.069995 54.7269027 530.696688 30.8538869 521.10948 30.8538869 534.292707 68.3369963 519.549682 110.358974 528.928047 110.358974 539.331049 80.7228327 549.864578 110.358974 559.24947 110.358974"></polygon>
            <path d="M147.515092,32.6121286 L108.507097,0.98982499 C108.45955,0.950368968 108.399231,0.929535509 108.337412,0.931122551 L42.3103279,0.931122551 C42.2518963,0.931122551 42.1949766,0.949788301 42.1471692,0.983312983 L0.763582966,32.5665446 C0.653193285,32.6522615 0.627595149,32.8083507 0.704845815,32.9247049 L74.4199706,143.133903 C74.4711942,143.207519 74.5553129,143.251425 74.6451297,143.251425 C74.7349466,143.251425 74.8190652,143.207519 74.8702888,143.133903 L147.586882,32.963777 C147.660599,32.8461844 147.629036,32.691578 147.515092,32.6121286 Z M115.013868,12.5356125 L136.994616,30.3524624 C137.083639,30.4236038 137.117683,30.5432308 137.079416,30.6504384 C137.041148,30.7576459 136.938981,30.828866 136.824931,30.8278498 L122.53875,30.8278498 C122.430727,30.8284974 122.332903,30.7642806 122.290749,30.6650387 L114.622287,12.8481888 C114.57635,12.7363955 114.611381,12.6077535 114.707701,12.5345283 C114.80402,12.461303 114.937619,12.4617477 115.033448,12.5356125 L115.013868,12.5356125 Z M106.790667,6.02360602 L111.209006,16.6772487 C111.244148,16.7599733 111.235234,16.8547872 111.185284,16.9295465 C111.135335,17.0043057 111.051051,17.0489834 110.961005,17.0484381 L56.0744004,17.0484381 C55.9392129,17.0453039 55.827612,16.9420279 55.8143212,16.8077545 C55.8010304,16.6734811 55.8902275,16.5504168 56.0221896,16.5209605 L106.503508,5.86731787 C106.625267,5.83519313 106.752995,5.89213794 106.810246,6.00407 L106.790667,6.02360602 Z M39.869473,15.4790395 L44.5031816,5.95197395 C44.5450209,5.85630858 44.6400527,5.7948018 44.7446566,5.7956858 L87.7337249,5.7956858 C87.8293222,5.78521647 87.9232553,5.82643086 87.9801406,5.9038039 C88.0370259,5.98117693 88.0482211,6.08295381 88.0095092,6.17079616 C87.9707972,6.25863852 87.8880593,6.31920101 87.7924621,6.32967033 L40.1501061,15.8632479 C40.052188,15.8742807 39.9558702,15.8320207 39.8978313,15.752561 C39.8397924,15.6731013 39.8289653,15.5686715 39.869473,15.4790395 Z M36.9195627,21.8998729 L113.219122,21.8998729 C113.327145,21.8992193 113.424969,21.9634361 113.467124,22.0626781 L116.952194,30.4566545 C116.987337,30.5393791 116.978422,30.634193 116.928473,30.7089522 C116.878523,30.7837114 116.794239,30.8283892 116.704193,30.8278388 L86.3109806,30.8278388 C86.1632,30.8278388 86.0434002,30.9473753 86.0434002,31.0948311 L86.0434002,65.0549451 C86.0434002,65.2024008 85.9236004,65.3219373 85.7758199,65.3219373 L63.5274922,65.3219373 C63.3797117,65.3219373 63.2599119,65.2024008 63.2599119,65.0549451 L63.2599119,31.0948311 C63.2599119,30.9473753 63.1401121,30.8278388 62.9923315,30.8278388 L32.8405939,30.8278388 C32.7481028,30.828205 32.6619805,30.7808847 32.6128406,30.7026987 C32.5637008,30.6245128 32.5585121,30.526549 32.5991189,30.4436304 L36.6780878,22.049654 C36.723138,21.9576581 36.8169473,21.8998729 36.9195627,21.8998729 L36.9195627,21.8998729 Z M114.628814,36.1481481 L91.388481,60.5030525 C91.313491,60.5833764 91.19687,60.6097147 91.0945235,60.5694414 C90.9921771,60.5291682 90.9251099,60.4304921 90.9251099,60.3207163 L90.9251099,35.965812 C90.9251099,35.8938584 90.9541742,35.824942 91.0057758,35.7746798 C91.0573773,35.7244175 91.1271262,35.6970647 91.1992168,35.6987402 L114.43955,35.6987402 C114.545017,35.7012327 114.639219,35.7652525 114.680094,35.8622931 C114.720969,35.9593336 114.701002,36.0712808 114.628814,36.1481481 L114.628814,36.1481481 Z M58.3782022,35.965812 L58.3782022,60.3207163 C58.3782022,60.4304921 58.3111351,60.5291682 58.2087886,60.5694414 C58.1064421,60.6097147 57.9898212,60.5833764 57.9148311,60.5030525 L34.6744983,36.1481481 C34.6016644,36.0704134 34.5820481,35.9569451 34.6245721,35.859355 C34.667096,35.7617649 34.7636394,35.6987402 34.8702888,35.6987402 L58.1040953,35.6987402 C58.1761859,35.6970647 58.2459348,35.7244175 58.2975364,35.7746798 C58.3491379,35.824942 58.3782022,35.8938584 58.3782022,35.965812 L58.3782022,35.965812 Z M17.5493555,49.3414733 L7.30298581,34.018722 C7.2624633,33.9636976 7.24585391,33.8947094 7.2569051,33.8273227 C7.2679563,33.7599361 7.30573698,33.6998285 7.36172296,33.6605617 L35.470713,12.1709402 C35.5710329,12.0987627 35.7073678,12.1025591 35.8034972,12.1802071 C35.8996266,12.2578551 35.9317356,12.3901183 35.8818731,12.5030525 L18.0127264,49.2763533 C17.9778702,49.366915 17.8965265,49.431486 17.8002526,49.4450159 C17.7039786,49.4585458 17.6079249,49.4189055 17.5493555,49.3414733 L17.5493555,49.3414733 Z M46.2196117,92.1904762 L21.0344265,54.5510786 C20.9852395,54.4688474 20.9852395,54.3663174 21.0344265,54.2840863 L27.8805678,40.1921042 C27.9214896,40.0913162 28.0195846,40.025363 28.1285691,40.025363 C28.2375536,40.025363 28.3356486,40.0913162 28.3765704,40.1921042 L46.7090879,91.9234839 C46.7568866,92.0107283 46.7544075,92.1167896 46.7025846,92.2017156 C46.6507616,92.2866416 46.557468,92.3375301 46.4578464,92.3352877 C46.3582249,92.3328934 46.2674103,92.2777205 46.2196117,92.1904762 L46.2196117,92.1904762 Z M72.2075379,130.148962 C72.2077886,130.266475 72.1310067,130.370336 72.0184101,130.404789 C71.9058134,130.439243 71.7838784,130.396189 71.7180617,130.298738 L56.7074564,107.884412 L56.7074564,107.819292 L34.8768151,44.1448921 C34.8357842,44.0253251 34.8843914,43.8934319 34.9932793,43.8288725 C35.1021673,43.7643132 35.2415038,43.7847751 35.3271333,43.8778999 L72.1553271,82.4615385 C72.2015468,82.5110454 72.2271172,82.5762151 72.2271172,82.6438746 L72.2075379,130.148962 Z M74.818078,77.8315018 C74.7665215,77.8840058 74.6959549,77.913593 74.6222875,77.913593 C74.5486201,77.913593 74.4780534,77.8840058 74.426497,77.8315018 L67.567303,70.6682947 C67.4944691,70.5905599 67.4748528,70.4770916 67.5173768,70.3795015 C67.5599007,70.2819114 67.6564441,70.2188363 67.7630935,70.218966 L81.4684288,70.218966 C81.5750782,70.2188363 81.6716215,70.2819114 81.7141455,70.3795015 C81.7566694,70.4770916 81.7370532,70.5905599 81.6642193,70.6682947 L74.818078,77.8315018 Z M94.2535487,104.895401 L77.559145,130.194546 C77.4957482,130.298615 77.3698069,130.346689 77.2529848,130.311413 C77.1361628,130.276137 77.0580697,130.166451 77.0631424,130.04477 L77.0631424,88.0879121 C77.0630969,87.9798889 77.1282913,87.8824822 77.228309,87.8411374 C77.3283267,87.7997925 77.4434575,87.8226572 77.5199869,87.8990639 L94.220917,104.556777 C94.3179947,104.641753 94.3424627,104.782813 94.2796541,104.895401 L94.2535487,104.895401 Z M96.2701909,99.7183557 L78.2183064,81.7061457 C78.1180144,81.6026521 78.1180144,81.4384549 78.2183064,81.3349613 L114.315549,43.5132275 C114.403831,43.4263494 114.539569,43.4094245 114.646562,43.4719541 C114.753555,43.5344837 114.805155,43.660894 114.772394,43.7802198 L96.7400881,99.6402116 C96.7049916,99.7242105 96.6294321,99.7845867 96.5396131,99.8004022 C96.4497942,99.8162178 96.3580875,99.7852943 96.2962963,99.7183557 L96.2701909,99.7183557 Z M139.683472,36.1155881 L106.033611,87.0980871 C105.95871,87.20576 105.816557,87.2432622 105.69811,87.1865975 C105.579663,87.1299328 105.519954,86.9958597 105.557187,86.8701669 L122.480013,35.8811559 C122.518247,35.7732132 122.619814,35.7004538 122.734541,35.6987286 L139.45505,35.6987286 C139.555334,35.6962115 139.648655,35.7497924 139.696789,35.8376151 C139.744923,35.9254379 139.739782,36.0327471 139.683472,36.1155881 L139.683472,36.1155881 Z" id="Shape"></path>
            <polygon id="Path" points="183.292544 30.8538869 183.292544 38.4208384 196.606298 38.4208384 196.606298 110.358974 205.456029 110.358974 205.456029 38.4273504 218.952521 38.4273504 218.952521 30.8538869"></polygon>
        </g>
    </g>
</svg>