<?xml version="1.0" encoding="UTF-8"?>
<svg width="600px" height="400px" viewBox="0 0 600 400" version="1.1" xmlns="http://www.w3.org/2000/svg" xmlns:xlink="http://www.w3.org/1999/xlink">
    <!-- Generator: Sketch 54.1 (76490) - https://sketchapp.com -->
    <title>Artboard</title>
    <desc>Created with Sketch.</desc>
    <g id="Artboard" stroke="none" stroke-width="1" fill="none" fill-rule="evenodd">
        <rect fill="#FFFFFF" x="0" y="0" width="600" height="400"></rect>
        <g id="voucherify_logo_svg-03" transform="translate(10.000000, 151.000000)" fill="#231F20" fill-rule="nonzero">
            <g id="Group" transform="translate(125.631769, 10.421053)">
                <path d="M28.3718412,64.4021053 C28.1624549,65.0273684 27.7436823,65.5484211 27.3249097,66.0694737 C26.3826715,67.0073684 25.2310469,67.5284211 23.9747292,67.5284211 C22.7184116,67.5284211 21.566787,67.0073684 20.6245487,66.0694737 C20.101083,65.5484211 19.7870036,65.0273684 19.5776173,64.4021053 L0.942238267,27.3031579 C0.418772563,26.4694737 0.104693141,25.6357895 0.104693141,24.5936842 C0.104693141,23.3431579 0.523465704,22.1968421 1.46570397,21.2589474 C2.40794224,20.3210526 3.55956679,19.9042105 4.81588448,19.9042105 C6.17689531,19.9042105 7.32851986,20.3210526 8.16606498,21.2589474 C8.4801444,21.5715789 8.68953069,21.8842105 8.89891697,22.3010526 L8.89891697,22.3010526 L23.765343,52.0010526 L38.7364621,22.3010526 L38.7364621,22.3010526 C38.9458484,21.8842105 39.2599278,21.5715789 39.5740072,21.2589474 C40.5162455,20.3210526 41.5631769,19.9042105 42.9241877,19.9042105 C44.2851986,19.9042105 45.4368231,20.3210526 46.2743682,21.2589474 C47.2166065,22.1968421 47.6353791,23.3431579 47.6353791,24.5936842 C47.6353791,25.6357895 47.3212996,26.5736842 46.6931408,27.3031579 L28.3718412,64.4021053 Z" id="Path"></path>
                <path d="M89.9314079,26.9905263 C94.5379061,31.5757895 96.9458484,37.2031579 96.9458484,43.7684211 C96.9458484,50.3336842 94.6425993,55.9610526 89.9314079,60.5463158 C85.3249097,65.1315789 79.6714801,67.5284211 73.0758123,67.5284211 C66.4801444,67.5284211 60.8267148,65.2357895 56.2202166,60.5463158 C51.6137184,55.9610526 49.2057762,50.3336842 49.2057762,43.7684211 C49.2057762,37.2031579 51.5090253,31.5757895 56.2202166,26.9905263 C60.8267148,22.4052632 66.4801444,20.0084211 73.0758123,20.0084211 C79.6714801,20.0084211 85.3249097,22.3010526 89.9314079,26.9905263 Z M73.0758123,29.5957895 C69.2021661,29.5957895 65.8519856,30.9505263 63.0252708,33.66 C60.3032491,36.3694737 58.8375451,39.7042105 58.8375451,43.6642105 C58.8375451,47.6242105 60.198556,50.8547368 63.0252708,53.6684211 C65.7472924,56.3778947 69.0974729,57.8368421 73.0758123,57.8368421 C76.9494585,57.8368421 80.299639,56.4821053 83.1263538,53.6684211 C85.8483755,50.9589474 87.2093863,47.6242105 87.2093863,43.6642105 C87.2093863,39.7042105 85.8483755,36.4736842 83.1263538,33.66 C80.299639,30.9505263 76.9494585,29.5957895 73.0758123,29.5957895 Z" id="Shape"></path>
                <path d="M201.534296,26.9905263 C201.534296,26.9905263 201.534296,26.9905263 201.534296,26.9905263 C202.476534,27.9284211 203,29.0747368 203,30.4294737 C203,31.68 202.581227,32.8263158 201.638989,33.7642105 C200.696751,34.7021053 199.545126,35.1189474 198.288809,35.1189474 C196.927798,35.1189474 195.776173,34.5978947 194.938628,33.66 L194.938628,33.66 C192.216606,30.9505263 188.866426,29.5957895 184.99278,29.5957895 C181.119134,29.5957895 177.768953,30.9505263 174.942238,33.66 C172.220217,36.3694737 170.754513,39.7042105 170.754513,43.6642105 C170.754513,47.6242105 172.115523,50.8547368 174.942238,53.6684211 C177.66426,56.3778947 181.01444,57.8368421 184.99278,57.8368421 C188.866426,57.8368421 192.216606,56.4821053 194.938628,53.7726316 C194.938628,53.7726316 195.043321,53.6684211 195.043321,53.6684211 C195.98556,52.7305263 197.137184,52.3136842 198.393502,52.3136842 C199.754513,52.3136842 200.906137,52.7305263 201.848375,53.6684211 C202.790614,54.6063158 203.314079,55.7526316 203.314079,57.1073684 C203.314079,58.4621053 202.790614,59.6084211 201.848375,60.5463158 C201.848375,60.5463158 201.743682,60.6505263 201.743682,60.6505263 C197.137184,65.2357895 191.483755,67.5284211 184.888087,67.5284211 C178.292419,67.5284211 172.638989,65.2357895 168.032491,60.5463158 C163.425993,55.9610526 161.018051,50.3336842 161.018051,43.7684211 C161.018051,37.2031579 163.3213,31.5757895 168.032491,26.9905263 C172.638989,22.4052632 178.292419,20.0084211 184.888087,20.0084211 C191.274368,20.0084211 196.927798,22.3010526 201.534296,26.9905263 L201.534296,26.9905263 Z" id="Path"></path>
                <path d="M210.851986,10.7336842 C210.851986,9.37894737 211.375451,8.23263158 212.31769,7.29473684 C213.259928,6.35684211 214.411552,5.83578947 215.772563,5.83578947 C217.133574,5.83578947 218.285199,6.35684211 219.227437,7.29473684 C220.169675,8.23263158 220.693141,9.37894737 220.693141,10.7336842 L220.693141,24.4894737 C224.566787,21.6757895 229.173285,20.1126316 234.512635,19.8 L235.245487,19.8 C241.945848,20.2168421 247.494585,22.5094737 251.787004,26.8863158 C256.393502,31.4715789 258.696751,36.9947368 258.801444,43.4557895 L258.801444,62.7347368 C258.801444,64.2978947 258.277978,65.4442105 257.33574,66.1736842 C256.393502,67.0073684 255.241877,67.32 253.880866,67.32 C252.519856,67.32 251.368231,66.9031579 250.425993,66.1736842 C249.483755,65.34 248.960289,64.2978947 248.960289,62.8389474 L248.960289,43.56 C248.960289,43.2473684 248.960289,43.0389474 248.960289,42.7263158 C248.750903,39.2873684 247.389892,36.2652632 244.877256,33.7642105 C242.155235,31.0547368 238.805054,29.5957895 234.826715,29.5957895 L234.617329,29.5957895 C230.743682,29.5957895 227.393502,30.9505263 224.566787,33.7642105 C222.158845,36.1610526 220.797834,38.8705263 220.483755,42.1010526 L220.483755,62.8389474 C220.483755,64.2978947 219.960289,65.4442105 219.018051,66.1736842 C218.075812,67.0073684 216.924188,67.32 215.563177,67.32 C214.202166,67.32 213.050542,66.9031579 212.108303,66.1736842 C211.166065,65.34 210.642599,64.1936842 210.642599,62.7347368 L210.642599,10.7336842 L210.851986,10.7336842 Z" id="Path"></path>
                <path d="M295.444043,30.8463158 C293.66426,30.0126316 291.779783,29.7 289.685921,29.7 C285.812274,29.7 282.462094,31.0547368 279.635379,33.7642105 C276.913357,36.4736842 275.447653,39.8084211 275.447653,43.7684211 C275.447653,47.7284211 276.808664,50.9589474 279.635379,53.7726316 C282.357401,56.4821053 285.707581,57.9410526 289.685921,57.9410526 C293.559567,57.9410526 296.909747,56.5863158 299.631769,53.8768421 C299.631769,53.8768421 299.736462,53.7726316 299.736462,53.7726316 C300.6787,52.8347368 301.830325,52.4178947 303.086643,52.4178947 C304.34296,52.4178947 305.599278,52.8347368 306.541516,53.7726316 C307.483755,54.7105263 308.00722,55.8568421 308.00722,57.2115789 C308.00722,58.5663158 307.483755,59.7126316 306.541516,60.6505263 C306.541516,60.6505263 306.436823,60.7547368 306.436823,60.7547368 C301.830325,65.34 296.176895,67.6326316 289.581227,67.6326316 C282.98556,67.6326316 277.33213,65.34 272.725632,60.6505263 C268.119134,56.0652632 265.711191,50.4378947 265.711191,43.8726316 C265.711191,37.3073684 268.01444,31.68 272.725632,27.0947368 C277.33213,22.5094737 282.98556,20.1126316 289.581227,20.1126316 C296.176895,20.1126316 301.830325,22.4052632 306.436823,26.9905263 L306.436823,26.9905263 C306.436823,26.9905263 306.436823,26.9905263 306.436823,26.9905263 C307.379061,27.9284211 307.797834,29.0747368 307.797834,30.3252632 C307.797834,31.5757895 307.379061,32.7221053 306.436823,33.66 L292.722022,47.2073684 C291.779783,48.1452632 290.628159,48.5621053 289.267148,48.5621053 C287.906137,48.5621053 286.754513,48.1452632 285.812274,47.2073684 C284.870036,46.2694737 284.451264,45.1231579 284.451264,43.7684211 C284.451264,42.4136842 284.870036,41.2673684 285.812274,40.3294737 L295.444043,30.8463158 Z" id="Path"></path>
                <path d="M339.729242,19.9042105 C341.090253,19.9042105 342.241877,20.4252632 343.184116,21.3631579 C344.126354,22.3010526 344.649819,23.4473684 344.649819,24.8021053 C344.649819,26.1568421 344.126354,27.3031579 343.184116,28.2410526 C342.241877,29.1789474 341.090253,29.7 339.729242,29.7 L339.729242,29.7 C335.855596,29.7 332.505415,31.0547368 329.6787,33.8684211 C327.166065,36.3694737 325.805054,39.3915789 325.595668,42.8305263 C325.595668,43.1431579 325.595668,43.3515789 325.595668,43.6642105 L325.595668,62.0052632 C325.595668,63.7768421 325.072202,65.1315789 324.129964,66.0694737 C323.187726,67.0073684 322.036101,67.5284211 320.67509,67.5284211 C319.314079,67.5284211 318.162455,67.0073684 317.220217,66.0694737 C316.277978,65.1315789 315.754513,63.6726316 315.754513,61.9010526 L315.754513,43.4557895 C315.859206,36.9947368 318.162455,31.4715789 322.768953,26.8863158 C327.166065,22.6136842 332.819495,20.2168421 339.729242,19.9042105 Z" id="Path"></path>
                <path d="M356.480144,15.2147368 C355.119134,15.2147368 353.967509,14.6936842 353.025271,13.7557895 C352.083032,12.8178947 351.559567,11.6715789 351.559567,10.3168421 C351.559567,8.96210526 352.083032,7.81578947 353.025271,6.87789474 C353.967509,5.94 355.119134,5.41894737 356.480144,5.41894737 C357.841155,5.41894737 358.99278,5.94 359.935018,6.87789474 C360.877256,7.81578947 361.400722,8.96210526 361.400722,10.3168421 C361.400722,11.6715789 360.877256,12.8178947 359.935018,13.7557895 C358.99278,14.7978947 357.841155,15.2147368 356.480144,15.2147368 Z M356.480144,67.4242105 C355.119134,67.4242105 353.967509,66.9031579 353.025271,65.9652632 C352.083032,65.0273684 351.559567,63.8810526 351.559567,62.5263158 L351.559567,24.5936842 C351.559567,23.2389474 352.083032,22.0926316 353.025271,21.1547368 C353.967509,20.2168421 355.119134,19.6957895 356.480144,19.6957895 C357.841155,19.6957895 358.99278,20.2168421 359.935018,21.1547368 C360.877256,22.0926316 361.400722,23.2389474 361.400722,24.5936842 L361.400722,62.6305263 C361.400722,63.9852632 360.877256,65.1315789 359.935018,66.0694737 C358.99278,67.0073684 357.841155,67.4242105 356.480144,67.4242105 Z" id="Shape"></path>
                <path d="M379.722022,19.8 L379.722022,12.7136842 C379.722022,9.48315789 380.873646,6.66947368 383.176895,4.27263158 C385.480144,1.98 388.306859,0.729473684 391.65704,0.729473684 C392.913357,0.729473684 394.064982,1.14631579 395.00722,2.08421053 C395.949458,3.02210526 396.368231,4.16842105 396.368231,5.41894737 C396.368231,6.66947368 395.949458,7.81578947 395.00722,8.75368421 C394.064982,9.69157895 392.913357,10.1084211 391.65704,10.1084211 C391.028881,10.1084211 390.400722,10.3168421 389.981949,10.8378947 C389.563177,11.3589474 389.249097,11.88 389.249097,12.5052632 L389.249097,19.8 L394.693141,19.8 C396.054152,19.8 397.205776,20.3210526 398.148014,21.2589474 C399.090253,22.1968421 399.613718,23.3431579 399.613718,24.6978947 C399.613718,26.0526316 399.090253,27.1989474 398.148014,28.1368421 C397.205776,29.0747368 396.054152,29.5957895 394.693141,29.5957895 L389.458484,29.5957895 L389.458484,62.7347368 C389.458484,64.0894737 388.935018,65.2357895 387.99278,66.1736842 C387.050542,67.1115789 385.898917,67.6326316 384.537906,67.6326316 C383.176895,67.6326316 382.025271,67.1115789 381.083032,66.1736842 C380.140794,65.2357895 379.617329,64.0894737 379.617329,62.7347368 L379.617329,29.4915789 L374.173285,29.4915789 C372.812274,29.4915789 371.66065,28.9705263 370.718412,28.0326316 C369.776173,27.0947368 369.252708,25.9484211 369.252708,24.5936842 C369.252708,23.2389474 369.776173,22.0926316 370.718412,21.1547368 C371.66065,20.2168421 372.812274,19.6957895 374.173285,19.6957895 L379.722022,19.6957895 L379.722022,19.8 Z" id="Path"></path>
                <path d="M406.523466,26.9905263 C406.104693,26.2610526 406,25.5315789 406,24.6978947 C406,23.3431579 406.418773,22.1968421 407.361011,21.3631579 C408.303249,20.4252632 409.454874,20.0084211 410.711191,20.0084211 C411.967509,20.0084211 413.119134,20.4252632 414.061372,21.3631579 C414.584838,21.8842105 414.898917,22.4052632 415.108303,23.1347368 L429.765343,52.2094737 L444.31769,23.1347368 C444.527076,22.5094737 444.945848,21.8842105 445.469314,21.3631579 C446.411552,20.4252632 447.563177,20.0084211 448.819495,20.0084211 C450.075812,20.0084211 451.227437,20.4252632 452.169675,21.3631579 C453.111913,22.3010526 453.530686,23.4473684 453.530686,24.6978947 C453.530686,25.4273684 453.3213,26.1568421 453.00722,26.7821053 L424.740072,83.3684211 C424.425993,83.9936842 424.00722,84.6189474 423.483755,85.14 C422.541516,86.0778947 421.389892,86.5989474 420.133574,86.5989474 C418.772563,86.5989474 417.620939,86.1821053 416.783394,85.2442105 C415.841155,84.3063158 415.422383,83.16 415.422383,81.9094737 C415.422383,80.8673684 415.631769,79.9294737 416.050542,79.2 L424.425993,62.9431579 L406.523466,26.9905263 Z" id="Path"></path>
                <path d="M127.935018,67.4242105 C121.129964,67.0073684 115.581227,64.7147368 111.184116,60.3378947 C106.577617,55.7526316 104.169675,48.8747368 104.169675,42.3094737 L104.169675,41.0589474 C104.169675,39.1831579 104.693141,37.8284211 105.635379,36.7863158 C106.577617,35.8484211 107.729242,35.3273684 109.090253,35.3273684 C110.451264,35.3273684 111.602888,35.8484211 112.545126,36.7863158 C113.487365,37.7242105 114.01083,39.0789474 114.01083,40.9547368 L114.01083,42.2052632 C114.01083,42.5178947 114.01083,42.8305263 114.01083,43.0389474 C114.220217,46.5821053 115.581227,50.8547368 118.198556,53.3557895 C121.025271,56.1694737 124.375451,57.5242105 128.353791,57.5242105 L128.563177,57.5242105 C132.541516,57.5242105 135.891697,56.1694737 138.718412,53.3557895 C141.33574,50.8547368 142.696751,46.5821053 142.906137,43.0389474 C142.906137,42.7263158 142.906137,42.4136842 142.906137,42.2052632 L142.906137,40.9547368 C142.906137,39.1831579 143.429603,37.8284211 144.371841,36.7863158 C145.314079,35.8484211 146.465704,35.3273684 147.826715,35.3273684 C149.187726,35.3273684 150.33935,35.8484211 151.281588,36.7863158 C152.223827,37.7242105 152.747292,39.1831579 152.747292,41.0589474 L152.747292,42.3094737 C152.642599,48.8747368 150.33935,55.6484211 145.732852,60.3378947 C141.33574,64.7147368 135.787004,67.1115789 128.981949,67.4242105 L127.935018,67.4242105 Z" id="Path"></path>
            </g>
            <g id="Group">
                <path d="M41.2490975,6.98210526 C45.9602888,11.6715789 48.2635379,17.2989474 48.2635379,23.9684211 C48.2635379,30.6378947 45.9602888,36.2652632 41.2490975,40.9547368 C36.5379061,45.6442105 30.8844765,47.9368421 24.1841155,47.9368421 C17.4837545,47.9368421 11.8303249,45.6442105 7.11913357,40.9547368 C2.3032491,36.3694737 0,30.6378947 0,24.0726316 C0,17.5073684 2.3032491,11.6715789 7.01444043,6.98210526 C11.7256318,2.29263158 17.4837545,0 24.1841155,0 C30.7797834,0 36.5379061,2.29263158 41.2490975,6.98210526 Z M24.1841155,9.69157895 C20.2057762,9.69157895 16.8555957,11.0463158 14.0288809,13.86 C11.2021661,16.6736842 9.84115523,20.0084211 9.84115523,23.9684211 C9.84115523,27.9284211 11.2021661,31.2631579 14.0288809,34.0768421 C16.8555957,36.8905263 20.2057762,38.2452632 24.1841155,38.2452632 C28.1624549,38.2452632 31.5126354,36.8905263 34.3393502,34.0768421 C37.166065,31.2631579 38.5270758,27.9284211 38.5270758,23.9684211 C38.5270758,20.0084211 37.166065,16.6736842 34.3393502,13.86 C31.5126354,11.1505263 28.1624549,9.69157895 24.1841155,9.69157895 Z" id="Shape"></path>
                <path d="M77.5776173,98.0621053 C70.7725632,97.6452632 65.2238267,95.3526316 60.8267148,90.9757895 C56.2202166,86.3905263 53.8122744,79.5126316 53.8122744,72.9473684 L53.8122744,71.6968421 C53.8122744,69.8210526 54.3357401,68.4663158 55.2779783,67.4242105 C56.2202166,66.4863158 57.3718412,65.9652632 58.732852,65.9652632 C60.0938628,65.9652632 61.2454874,66.4863158 62.1877256,67.4242105 C63.1299639,68.3621053 63.6534296,69.7168421 63.6534296,71.5926316 L63.6534296,72.8431579 C63.6534296,73.1557895 63.6534296,73.4684211 63.6534296,73.6768421 C63.8628159,77.22 65.2238267,81.4926316 67.8411552,83.9936842 C70.66787,86.8073684 74.0180505,88.1621053 77.9963899,88.1621053 L78.2057762,88.1621053 C82.1841155,88.1621053 85.534296,86.8073684 88.3610108,83.9936842 C90.9783394,81.4926316 92.3393502,77.22 92.5487365,73.6768421 C92.5487365,73.3642105 92.5487365,73.0515789 92.5487365,72.8431579 L92.5487365,71.5926316 C92.5487365,69.8210526 93.0722022,68.4663158 94.0144404,67.4242105 C94.9566787,66.4863158 96.1083032,65.9652632 97.4693141,65.9652632 C98.8303249,65.9652632 99.9819495,66.4863158 100.924188,67.4242105 C101.866426,68.3621053 102.389892,69.8210526 102.389892,71.6968421 L102.389892,72.9473684 C102.285199,79.5126316 99.9819495,86.2863158 95.3754513,90.9757895 C90.9783394,95.3526316 85.4296029,97.7494737 78.6245487,98.0621053 L77.5776173,98.0621053 Z" id="Path"></path>
                <path d="M13.6101083,94.4147368 C12.3537906,94.4147368 11.0974729,93.8936842 10.0505415,92.9557895 C8.06137184,90.9757895 8.06137184,87.8494737 10.0505415,85.9736842 L90.0361011,6.46105263 C92.0252708,4.48105263 95.166065,4.48105263 97.0505415,6.46105263 C99.0397112,8.44105263 99.0397112,11.5673684 97.0505415,13.4431579 L17.1696751,92.9557895 C16.2274368,93.8936842 14.866426,94.4147368 13.6101083,94.4147368 Z" id="Path"></path>
            </g>
        </g>
    </g>
</svg>