<svg width="600" height="400" xmlns="http://www.w3.org/2000/svg" xmlns:xlink="http://www.w3.org/1999/xlink"><defs><path id="a" d="M0 379.95h379.95V0H0z"/></defs><g fill="none" fill-rule="evenodd"><path fill="#FFF" d="M0 0h600v400H0z"/><g transform="translate(110 10)"><path d="M45.093 258.949v36.949c0 1.052.5 1.553 1.551 1.553h4.441c1 0 1.499-.501 1.499-1.553v-12.87c0-.5.222-.72.718-.72.279 0 .446.109.613.33L65.01 296.95c.223.334.609.501 1.109.501h5.437c.835 0 1.443-.61 1.443-1.443 0-.276-.11-.61-.332-.886l-14.092-17.698 14.092-17.699c.222-.277.332-.61.332-.887 0-.834-.608-1.443-1.443-1.443H66.12c-.5 0-.886.164-1.109.497l-11.096 14.315c-.167.224-.334.33-.613.33-.496 0-.718-.217-.718-.718v-12.87c0-1.057-.499-1.554-1.499-1.554h-4.44c-1.053 0-1.552.497-1.552 1.554m46.285 24.91h10.986c.554 0 .83.277.83.833v11.205c0 1.055.499 1.555 1.498 1.555h4.438c1.055 0 1.553-.5 1.553-1.555v-30.07c0-5.159-3.272-8.432-8.43-8.432H91.488c-5.16 0-8.435 3.273-8.435 8.432v30.07c0 1.055.5 1.555 1.553 1.555h4.44c1 0 1.498-.5 1.498-1.555v-11.205c0-.556.279-.833.834-.833m10.986-6.823H91.378c-.555 0-.834-.278-.834-.833v-9.71c0-1.498.834-2.33 2.33-2.33h7.99c1.5 0 2.33.832 2.33 2.33v9.71c0 .555-.276.833-.83.833m33.916 20.895c1 0 1.496-.5 1.496-1.554v-30.903c0-.553.279-.831.834-.831h7.6c1.055 0 1.553-.5 1.553-1.555v-3.717c0-1-.498-1.498-1.553-1.498h-24.356c-1.056 0-1.555.498-1.555 1.498v3.717c0 1.055.499 1.555 1.555 1.555h7.6c.554 0 .832.278.832.831v30.903c0 1.055.501 1.554 1.497 1.554h4.497zm32.29 0h7.212c7.047 0 11.042-3.994 11.042-11.04v-17.976c0-7.046-3.995-11.042-11.042-11.042h-7.211c-7.045 0-11.043 3.996-11.043 11.042v17.977c0 7.045 3.998 11.04 11.043 11.04m6.046-6.769h-4.879c-3.165 0-4.717-1.553-4.717-4.662v-17.2c0-3.107 1.552-4.658 4.717-4.658h4.879c3.165 0 4.716 1.551 4.716 4.658v17.2c0 3.109-1.551 4.662-4.716 4.662m45.796-22.581l5.217 28.628c.108.498.386.721.832.721h7.712c.442 0 .719-.223.83-.72l8.38-37.895c.167-.722-.335-1.442-1-1.442h-5.325c-.834 0-1.335.443-1.501 1.109l-5.38 31.07-5.382-31.07c-.166-.666-.666-1.109-1.5-1.109h-5.77c-.83 0-1.33.443-1.496 1.109l-5.383 31.07-5.38-31.07c-.166-.666-.667-1.109-1.5-1.109h-5.326c-.665 0-1.163.72-.995 1.442l8.376 37.894c.11.498.387.721.832.721h7.711c.445 0 .72-.223.834-.72l5.214-28.629zm35.9-10.709c-1.056 0-1.553.499-1.553 1.555v36.949c0 1.054.497 1.554 1.553 1.554h4.437c.998 0 1.498-.5 1.498-1.554v-36.949c0-1.056-.5-1.555-1.498-1.555h-4.437zm32.034 40.058h8.156c5.16 0 8.433-3.274 8.433-8.432v-1.997c0-1.053-.5-1.554-1.554-1.554h-4.439c-1 0-1.5.5-1.5 1.554v1.332c0 1.497-.83 2.33-2.328 2.33h-5.604c-3.162 0-4.717-1.554-4.717-4.663v-17.2c0-3.107 1.555-4.658 4.717-4.658h5.604c1.498 0 2.328.831 2.328 2.33v1.332c0 1.053.5 1.554 1.5 1.554h4.44c1.053 0 1.553-.5 1.553-1.554v-1.998c0-5.16-3.274-8.434-8.433-8.434h-8.156c-7.045 0-11.042 3.996-11.042 11.042v17.977c0 7.045 3.997 11.04 11.042 11.04m53.133-6.769h-15.09c-.555 0-.834-.278-.834-.832v-8.266c0-.556.28-.835.833-.835h11.374c1.166 0 1.72-.496 1.72-1.443v-3.714c0-1-.554-1.497-1.72-1.497H326.39c-.554 0-.833-.278-.833-.833v-8.269c0-.552.28-.831.833-.831h15.092c1.055 0 1.553-.5 1.553-1.555v-3.717c0-1-.498-1.498-1.553-1.498h-21.86c-1.054 0-1.555.498-1.555 1.555v36.95c0 1.054.501 1.553 1.554 1.553h21.86c1.056 0 1.554-.5 1.554-1.554v-3.718c0-.996-.498-1.496-1.553-1.496" fill="#524F54"/><mask id="b" fill="#fff"><use xlink:href="#a"/></mask><path fill="#A60082" mask="url(#b)" d="M99.604 110.264h26.965V56.333H99.604z"/><path fill="#524F54" mask="url(#b)" d="M99.603 114.907h188.762v26.966h-26.966v26.966h-26.966v26.967h-26.964v26.965h-26.968v-26.965h-26.966V168.84h-26.966v-26.966H99.603z"/><path fill="#E60008" mask="url(#b)" d="M126.568 110.265h26.966V29.368h-26.966z"/><path fill="#FFC900" mask="url(#b)" d="M153.535 110.265H180.5V29.368h-26.966z"/><path fill="#73C9E8" mask="url(#b)" d="M180.5 110.264h26.97V56.333H180.5z"/><path fill="#E60085" mask="url(#b)" d="M207.47 110.265h26.963V29.368h-26.964z"/><path fill="#B3C900" mask="url(#b)" d="M234.433 110.265h26.966V29.368h-26.966z"/><path fill="#D9B363" mask="url(#b)" d="M261.399 110.264h26.966V56.333h-26.966z"/><path d="M120.164 325.582c-.878-.237-2.397-.405-3.308-.405-2.938 0-3.781.81-4.355 4.05l-1.046 5.976a6.302 6.302 0 00-.101 1.046c0 .81.303 1.25 1.315 1.25 1.959 0 4.018-1.217 5.875-2.735l1.62-9.182zm.303 13.975h-2.43l.17-1.991c-1.891 1.62-4.12 2.33-6.213 2.33-2.531 0-3.442-1.385-3.442-3.277 0-.301.033-.876.1-1.28l1.149-6.482c.708-4.052 2.16-6.077 7.358-6.077 1.114 0 2.296.169 3.41.44l1.215-6.819 2.836-.406-4.153 23.562zm9.481-23.156l2.835-.406-4.151 23.562h-2.769zm15.694 9.181a12.643 12.643 0 00-3.173-.405c-2.532 0-3.78.776-4.355 4.017l-1.046 5.94c-.067.406-.135.844-.135 1.148 0 .777.338 1.218 1.35 1.218 2.06 0 3.883-1.149 5.773-2.871l1.586-9.047zm.304 13.975h-2.296l.102-1.991a9.227 9.227 0 01-6.144 2.33c-2.532 0-3.478-1.385-3.478-3.277 0-.403.069-.842.136-1.28l1.148-6.517c.709-3.983 2.194-6.042 7.393-6.042 2.025 0 4.286.506 5.907 1.114l-2.768 15.663zm24.297-10.735c.068-.371.103-.709.103-.977 0-1.79-1.047-2.668-3.377-2.668-2.7 0-4.118 1.282-4.557 3.85l-.844 4.757c-.371 2.262.169 3.716 3.24 3.716 2.836 0 4.12-1.218 4.558-3.682l.877-4.996zm-11.442 4.827l.843-4.792c.708-4.018 3.005-6.077 7.73-6.077 3.78 0 5.74 2.094 5.74 4.896 0 .236 0 .606-.102 1.146l-.912 5.164c-.641 3.715-2.6 5.91-7.696 5.91-4.692 0-6.245-2.702-5.603-6.247zm28.619-8.067c-.877-.237-2.396-.405-3.308-.405-2.937 0-3.78.81-4.355 4.05l-1.046 5.976a6.4 6.4 0 00-.1 1.046c0 .81.303 1.25 1.315 1.25 1.958 0 4.018-1.217 5.874-2.735l1.62-9.182zm.304 13.975h-2.43l.168-1.991c-1.89 1.62-4.118 2.33-6.211 2.33-2.531 0-3.443-1.385-3.443-3.277 0-.301.034-.876.101-1.28l1.148-6.482c.709-4.052 2.16-6.077 7.359-6.077 1.114 0 2.295.169 3.41.44l1.215-6.819 2.835-.406-4.152 23.562zm27.372-12.659c.034-.201.068-.44.068-.573 0-.676-.338-.912-1.148-.912-1.654 0-4.389 1.284-6.178 2.465l-2.058 11.68h-2.77l2.229-12.66a4.45 4.45 0 00.068-.573c0-.676-.337-.912-1.148-.912-1.654 0-4.186 1.215-6.212 2.465l-2.059 11.68h-2.767l2.868-16.238 2.432-.405-.203 2.33c1.62-1.148 4.996-2.465 6.953-2.465 1.858 0 2.77.946 2.904 2.465 1.789-1.251 4.996-2.465 6.954-2.465 2.059 0 2.936 1.114 2.936 2.904 0 .371-.034.878-.134 1.417l-2.195 12.456h-2.768l2.228-12.659zm9.848-10.497l2.837-.406-.743 4.22-2.837.371.743-4.185zm-1.214 6.919l2.835-.405-2.936 16.642h-2.77l2.871-16.237zm16.909 2.262a12.636 12.636 0 00-3.173-.405c-2.533 0-3.781.776-4.355 4.017l-1.046 5.94c-.068.406-.136.844-.136 1.148 0 .777.338 1.218 1.35 1.218 2.06 0 3.883-1.149 5.773-2.871l1.587-9.047zm.304 13.975h-2.296l.101-1.991a9.227 9.227 0 01-6.144 2.33c-2.53 0-3.477-1.385-3.477-3.277 0-.403.068-.842.136-1.28l1.147-6.517c.709-3.983 2.194-6.042 7.393-6.042 2.025 0 4.287.506 5.908 1.114l-2.768 15.663zm20.383-13.873c0 .37-.034.878-.135 1.417l-2.194 12.456h-2.768l2.228-12.659a4.45 4.45 0 00.068-.573c0-.675-.338-.912-1.148-.912-1.655 0-4.186 1.215-6.211 2.465l-2.06 11.679h-2.768l2.87-16.237 2.43-.405-.203 2.33c1.62-1.148 4.997-2.465 6.955-2.465 2.059 0 2.936 1.113 2.936 2.904m2.122 20.895l-.743-2.128c2.633-.943 4.186-2.226 5.705-4.894h-.979l-2.565-16.202 2.667-.373 2.092 14.381 4.658-9.722c.507-1.046.608-1.619.608-2.5 0-.472-.1-1.248-.27-1.821l2.666-.405a9.6 9.6 0 01.271 2.16c0 .878-.034 1.79-.574 2.87l-5.705 11.612c-1.823 3.342-3.41 5.57-7.831 7.022" fill="#524F54" mask="url(#b)"/></g></g></svg>