<svg xmlns="http://www.w3.org/2000/svg" width="130" height="31"><path d="M118.718 7.637h8.576v1.248l-6.686 13.643h7.23v1.504h-9.37v-1.27l6.777-13.62h-6.527V7.637zm-4.48 0V9.14h-6.776v5.728h4.873v1.504h-4.873v6.158h6.935v1.504h-8.71V7.64h8.55zm-12.964 0V9.14h-4.646v14.893h-1.776V9.143h-4.556V7.638h10.978zM78.306 24.032V7.637h4.277c.337.002.652.027.944.073.295.046.567.115.814.205.248.092.474.197.68.316.204.12.39.255.554.404a4.09 4.09 0 0 1 .793.976c.1.178.188.357.264.535.076.175.138.35.187.522.05.175.093.34.126.5.034.16.06.31.076.455.016.142.03.27.036.382a5.183 5.183 0 0 1-.048 1.125 4.927 4.927 0 0 1-.195.808c-.085.264-.204.523-.354.777s-.333.502-.546.746c-.212.244-.466.48-.76.71-.287.223-.613.44-.976.65l4.412 7.21h-2.153l-3.966-6.8c-.194.007-.39.01-.59.016-.2.004-.406.007-.61.008l-.612.008-.574.013v6.755h-1.776zm1.776-14.89v6.61h1.57a5.42 5.42 0 0 0 1.07-.1c.325-.064.624-.16.894-.29a2.75 2.75 0 0 0 1.238-1.178c.143-.26.25-.556.323-.885.072-.33.108-.696.11-1.093a4.91 4.91 0 0 0-.078-.977 2.911 2.911 0 0 0-.256-.776 1.879 1.879 0 0 0-.445-.587 2.3 2.3 0 0 0-.67-.408c-.26-.11-.57-.19-.926-.243a7.713 7.713 0 0 0-1.193-.077h-1.64zm-11.484-2.95l5.832 17.84h-1.916a1039.18 1039.18 0 0 0-3.915-12.74c-1.327 4.238-2.614 8.49-3.895 12.74H62.79l5.808-17.84zm-17.422 17.84V7.637h3.96c.495 0 .954.05 1.377.146.423.097.81.243 1.16.437.35.192.66.43.93.715.268.284.496.613.68.986.185.375.324.79.417 1.247.093.456.14.955.142 1.495 0 .433-.037.835-.104 1.207-.068.373-.17.717-.303 1.03-.133.313-.295.6-.485.856-.19.258-.41.487-.655.688-.244.2-.51.373-.8.522-.29.15-.605.272-.94.37a7.294 7.294 0 0 1-1.055.212 9 9 0 0 1-1.158.072h-1.39v6.414h-1.776zm1.776-14.89v6.972h1.843c.327 0 .633-.033.918-.097a3.28 3.28 0 0 0 .8-.288c.242-.13.46-.29.65-.48.19-.193.352-.416.49-.67.135-.253.238-.538.307-.854a4.96 4.96 0 0 0 .107-1.043c0-.422-.032-.805-.095-1.147a3.615 3.615 0 0 0-.283-.903 2.653 2.653 0 0 0-.455-.676 2.212 2.212 0 0 0-.618-.462 3.04 3.04 0 0 0-.78-.268 4.31 4.31 0 0 0-.93-.087H52.95zm-7.607-.314c.23.18.45.367.663.567l-1.068 1.28c-.135-.12-.27-.24-.41-.358-.128-.11-.26-.22-.392-.327a7.17 7.17 0 0 0-.41-.307 5.026 5.026 0 0 0-.87-.516c-.15-.07-.305-.13-.465-.183a3.318 3.318 0 0 0-.993-.16c-.24.002-.47.028-.688.08-.218.05-.425.127-.62.23a2.388 2.388 0 0 0-.93.852 2.172 2.172 0 0 0-.26.597 2.7 2.7 0 0 0-.093.694 2.455 2.455 0 0 0 .06.63c.02.103.053.21.1.318a2.527 2.527 0 0 0 .477.697c.114.124.25.254.41.387.157.136.345.28.56.43.214.15.46.307.73.474l1.292.793c.37.225.712.44 1.023.645.312.206.59.4.837.58h.002c.245.183.467.362.664.538.196.176.366.348.51.518.143.17.265.342.367.52.104.18.186.366.247.555.062.19.107.39.136.603.03.212.042.437.04.675-.002.37-.03.718-.09 1.047-.057.328-.144.64-.26.93-.116.29-.258.56-.423.806a3.99 3.99 0 0 1-.57.674h.002c-.216.203-.45.383-.707.538-.255.155-.53.285-.825.392-.297.104-.61.184-.937.238-.328.054-.673.08-1.033.08-.353 0-.692-.028-1.016-.082a5.12 5.12 0 0 1-.93-.244 5.982 5.982 0 0 1-.856-.393 6.1 6.1 0 0 1-.786-.528 8.124 8.124 0 0 1-.718-.654 9.473 9.473 0 0 1-.686-.797l1.376-1.093c.14.225.286.435.453.64.155.19.325.372.506.54a4.418 4.418 0 0 0 1.213.804c.22.098.453.173.693.224.24.05.49.077.75.078.21 0 .415-.018.613-.056.197-.038.39-.094.573-.17a3.001 3.001 0 0 0 1.352-1.051 3.03 3.03 0 0 0 .285-.508c.08-.18.14-.37.18-.57.04-.198.06-.407.062-.623 0-.128 0-.25-.006-.363a4.716 4.716 0 0 0-.025-.336 1.72 1.72 0 0 0-.369-.869 2.875 2.875 0 0 0-.27-.3 4.773 4.773 0 0 0-.375-.327 8.34 8.34 0 0 0-.497-.364 19.847 19.847 0 0 0-.66-.44 35.796 35.796 0 0 0-.75-.46l-1.474-.883a16.1 16.1 0 0 1-.592-.367c-.193-.126-.38-.256-.56-.39a6.367 6.367 0 0 1-.515-.426 5.279 5.279 0 0 1-.455-.468 4.161 4.161 0 0 1-.377-.52 4.039 4.039 0 0 1-.286-.583 3.261 3.261 0 0 1-.186-.653 4.441 4.441 0 0 1 .026-1.645 3.79 3.79 0 0 1 .663-1.508c.158-.214.34-.408.54-.58.203-.176.422-.33.657-.463.235-.133.486-.245.754-.336.268-.09.546-.157.836-.203a6.06 6.06 0 0 1 .895-.066c.287.002.57.026.848.072.276.046.547.115.812.206.268.092.532.2.79.324.25.122.492.26.73.412.24.155.473.32.697.494zM27.052 27.835c-5.273 0-7.786-1.427-9.578-4.073-.112-.165-.32-.147-.48-.044-1.727 1.112-3.407 1.86-6.648 1.952.062-.07-.045-.236.02-.305.625-.14 1.636-.65 1.25-1.744l-.895-2.356c-.136-.363-.93-1.33-1.057-1.666-.68-1.788-.753-3.387-.17-4.878l.042-.068C2.64 13.657 1.49 21.87 5.3 27.617l-.48.476C-1.955 19.206 1.843 8.64 7.9 4.2 15.132-1.1 24.906.13 30.113 5.99v.465c-2.415.298-4.542 1.35-6.1 2.936-6.33-2.93-11.58.21-13.702 3.71l.21.24c4.107-4.554 12.554-5.023 14.44 1.164l2.426 7.952-.224-.04-.95-.182-1.4-4.25c-.052-.173-.51-.25-.646-.133-1.13.89-1.814 1.583-3.574 2.117l-.024.314c1.37.596 2.542.7 4.145.713l2.34 6.843z" stroke="#2b2a29" stroke-width=".076"/></svg>