<svg xmlns="http://www.w3.org/2000/svg" width="200" height="52.352" viewBox="0 0 200 52.352">
  <g>
    <path d="M82.452,22.814,82.561,0l9.386.045A8.069,8.069,0,0,1,95.74.926,6.378,6.378,0,0,1,98.3,3.367a7.138,7.138,0,0,1,.911,3.72l0,.456a6.974,6.974,0,0,1-.979,3.694,6.555,6.555,0,0,1-2.619,2.432,7.9,7.9,0,0,1-3.736.846l-5.084-.024-.04,8.343ZM86.813,10.58l4.66.023a3.575,3.575,0,0,0,2.481-.836,2.952,2.952,0,0,0,.956-2.31l0-.325a2.955,2.955,0,0,0-.934-2.319,3.572,3.572,0,0,0-2.473-.859l-4.661-.022ZM101.205,22.9l.077-16.165,4.041.019-.008,1.826.586,0a2.581,2.581,0,0,1,1.2-1.428,3.97,3.97,0,0,1,1.942-.447l1.955.009-.017,3.651-2.021-.01a3.916,3.916,0,0,0-2.578.819,3.119,3.119,0,0,0-1.023,2.553l-.044,9.191Zm19.487.55a9.431,9.431,0,0,1-4.33-1,7.334,7.334,0,0,1-3.018-2.85,8.553,8.553,0,0,1-1.086-4.47l0-.522a8.554,8.554,0,0,1,1.13-4.459,7.329,7.329,0,0,1,3.044-2.821,10.1,10.1,0,0,1,8.669.041,7.334,7.334,0,0,1,3.018,2.85,8.562,8.562,0,0,1,1.086,4.47l0,.522a8.563,8.563,0,0,1-1.129,4.459,7.331,7.331,0,0,1-3.045,2.821A9.433,9.433,0,0,1,120.692,23.453Zm.017-3.651a4.272,4.272,0,0,0,3.135-1.207,4.707,4.707,0,0,0,1.255-3.5v-.326a4.739,4.739,0,0,0-1.2-3.509,4.638,4.638,0,0,0-6.274-.03,4.707,4.707,0,0,0-1.255,3.5v.326a4.7,4.7,0,0,0,1.221,3.509A4.271,4.271,0,0,0,120.709,19.8Zm17.716,3.735a7.14,7.14,0,0,1-3.6-.978,7.013,7.013,0,0,1-2.675-2.833,9.292,9.292,0,0,1-.989-4.5l0-.522A9.3,9.3,0,0,1,132.2,10.21a6.992,6.992,0,0,1,6.308-3.751,6.258,6.258,0,0,1,3.353.749A5.211,5.211,0,0,1,143.514,8.8l.587,0,.04-8.506,4.107.019-.109,22.814-4.041-.019.009-1.956-.587,0A5.349,5.349,0,0,1,141.8,22.8,6.247,6.247,0,0,1,138.425,23.537Zm1.256-3.579a4.38,4.38,0,0,0,3.166-1.207,4.722,4.722,0,0,0,1.288-3.563l0-.326a4.766,4.766,0,0,0-1.237-3.575,4.722,4.722,0,0,0-6.339-.03,4.72,4.72,0,0,0-1.288,3.563l0,.326a4.726,4.726,0,0,0,1.254,3.575A4.382,4.382,0,0,0,139.681,19.958Zm18.061,3.476a6.228,6.228,0,0,1-3.3-.88,5.857,5.857,0,0,1-2.188-2.406,7.629,7.629,0,0,1-.766-3.523l.046-9.647L155.637,7l-.044,9.321a3.757,3.757,0,0,0,.883,2.742,3.42,3.42,0,0,0,2.554.925,3.6,3.6,0,0,0,2.939-1.241,5.328,5.328,0,0,0,1.059-3.5l.039-8.212,4.107.019L167.1,23.217l-4.041-.019.01-2.118-.587,0a4.489,4.489,0,0,1-1.474,1.59A5.543,5.543,0,0,1,157.742,23.434Zm20.415.293a9.189,9.189,0,0,1-4.249-1,7.343,7.343,0,0,1-3-2.849,8.631,8.631,0,0,1-1.087-4.5l0-.457a8.63,8.63,0,0,1,1.13-4.492,7.355,7.355,0,0,1,3.028-2.821,9.187,9.187,0,0,1,4.258-.957,8.943,8.943,0,0,1,3.972.834,7.122,7.122,0,0,1,2.678,2.245,7.758,7.758,0,0,1,1.337,3.216l-3.98.829a4.294,4.294,0,0,0-1.129-2.466,3.686,3.686,0,0,0-2.8-1.007,4.316,4.316,0,0,0-3.118,1.191A4.654,4.654,0,0,0,173.929,15l0,.326a4.67,4.67,0,0,0,1.238,3.51,4.284,4.284,0,0,0,3.107,1.237,3.819,3.819,0,0,0,2.823-.948,4.513,4.513,0,0,0,1.234-2.52l3.972.964a8.942,8.942,0,0,1-1.465,3.138,7.128,7.128,0,0,1-2.7,2.22A8.965,8.965,0,0,1,178.157,23.727Zm16.812-.377a3.5,3.5,0,0,1-2.586-1.006,3.584,3.584,0,0,1-.981-2.661l.043-9.125-4.041-.02.016-3.389,4.041.019.024-5.019,4.107.02-.024,5.019L200,7.209l-.016,3.389-4.432-.021-.04,8.409q0,.976.908.982l3.128.015-.016,3.389ZM80.972,51.7l.018-3.781,3,.015.073-15.253-3-.014.018-3.781,11.733.056a7.679,7.679,0,0,1,5.012,1.572,5.167,5.167,0,0,1,1.87,4.23l0,.326a4.983,4.983,0,0,1-.6,2.555A4.66,4.66,0,0,1,97.7,39.152a6.008,6.008,0,0,1-1.519.759l0,.587a5.847,5.847,0,0,1,1.561.74,4.558,4.558,0,0,1,1.443,1.555,5.1,5.1,0,0,1,.59,2.643v.326a5.437,5.437,0,0,1-1.944,4.44,7.6,7.6,0,0,1-4.994,1.556Zm7.364-13.393,3.976.019a3.431,3.431,0,0,0,2.2-.674,2.278,2.278,0,0,0,.873-1.886v-.326a2.288,2.288,0,0,0-.838-1.911,3.473,3.473,0,0,0-2.213-.678l-3.976-.019Zm-.045,9.517,4.041.019a3.54,3.54,0,0,0,2.268-.674,2.348,2.348,0,0,0,.873-1.951l0-.326a2.372,2.372,0,0,0-.838-1.96,3.53,3.53,0,0,0-2.278-.7l-4.041-.019ZM102.315,51.8l.077-16.165,4.041.019-.008,1.825.586,0a2.577,2.577,0,0,1,1.2-1.429,3.975,3.975,0,0,1,1.941-.447l1.955.01-.017,3.65-2.02-.01a3.919,3.919,0,0,0-2.579.819,3.123,3.123,0,0,0-1.023,2.553l-.043,9.191Zm19.178.547a8.6,8.6,0,0,1-4.249-1.046,7.235,7.235,0,0,1-2.854-2.915,9.057,9.057,0,0,1-1-4.421l0-.391a9.163,9.163,0,0,1,1.031-4.411,7.141,7.141,0,0,1,2.849-2.887,8.5,8.5,0,0,1,4.242-1.007,7.884,7.884,0,0,1,4.134,1.079,7.283,7.283,0,0,1,2.724,2.946,9.3,9.3,0,0,1,.957,4.356l-.007,1.4L117.552,45a3.652,3.652,0,0,0,1.225,2.711,4.157,4.157,0,0,0,2.863,1.057,3.665,3.665,0,0,0,2.546-.738,5.275,5.275,0,0,0,1.246-1.656l3.349,1.776a10.417,10.417,0,0,1-1.329,1.835,7.129,7.129,0,0,1-2.306,1.684A8.319,8.319,0,0,1,121.493,52.351ZM117.6,41.936l7.561.036a3.227,3.227,0,0,0-1.114-2.254,4.457,4.457,0,0,0-5.23-.025A3.64,3.64,0,0,0,117.6,41.936Zm15.44,10.014-2.2-16.176,4.074.02,1.37,13.4.587,0,2.15-13.385,6.583.032,2.022,13.4.587,0,1.5-13.388,4.074.02L151.42,52.038l-6.812-.033-2.022-13.4-.586,0-2.15,13.385Z" fill="#00311d"/>
    <path d="M67.4.046c0,19.991-14.107,36.2-33.7,36.2C13.245,36.244,0,20.037,0,.046ZM16.312,14.012a3.5,3.5,0,1,0-3.5-3.5A3.5,3.5,0,0,0,16.312,14.012Zm13.892-3.5a3.5,3.5,0,1,1-3.5-3.5A3.5,3.5,0,0,1,30.2,10.514Zm6.895,3.5a3.5,3.5,0,1,0-3.5-3.5A3.5,3.5,0,0,0,37.1,14.012Z" fill="#00311d" fill-rule="evenodd"/>
  </g>
</svg>
