<svg viewBox="0 0 120 41" preserveAspectRatio="xMinYMin meet" xmlns="http://www.w3.org/2000/svg" class="menu__logo__svg menu__logo__svg__white">
  <path d="M116.559 13.75v-1.017h.894c.428 0 .691.184.691.493 0 .347-.315.523-.728.523h-.857zm1.923-.538c0-.479-.428-.78-1.014-.78h-1.232v2.694h.323v-1.082h.796l.872 1.082h.42l-.916-1.134c.444-.08.751-.338.751-.78zm-1.21 3.1c-1.42 0-2.486-1.097-2.486-2.452s1.074-2.467 2.502-2.467c1.42 0 2.487 1.097 2.487 2.452s-1.075 2.467-2.502 2.467zm.016-5.125c-1.525 0-2.727 1.215-2.727 2.673s1.187 2.658 2.712 2.658c1.525 0 2.727-1.215 2.727-2.673s-1.187-2.658-2.712-2.658zm-40.912 3.12l-9.693-.024-.696 2.359 3.56.008-2.744 9.269 2.574.006 2.744-9.268 3.56.008.695-2.358zm2.076 6.902l5.431.013.676-2.242-5.432-.014.697-2.375 6.183.015.676-2.275-8.74-.021-3.44 11.627 8.138-.022.677-2.276-5.598.028.732-2.458zM61.24 14.99l-1.768-1.647-4.77 4.653-2.084-4.57-2.387 1.286 2.57 5.141-5.257 5.022 1.865 1.498 4.39-4.39 1.85 4.308 2.473-1.054-2.404-5.094 5.522-5.153zm-1.305 6.212l5.148.01.73-2.194-5.147-.011-.73 2.195zm49.885-7.786l-5.015 8.937-4.148-8.82-3.646 12.459h2.585l1.69-5.908 3.376 6.636 3.875-6.59 1.13 5.753 2.662-.034-2.374-11.56-.135-.873zm-20.087 8.326l2.195-2.92.684 2.92h-2.879zm3.198-8.185v-.004L83.79 25.96h2.775L88.037 24h5.105l.455 1.945h2.617l-3.27-12.405-.011.017M31.155 19.139L11.475 0 2.228 9.063l10.358 10.15L0 32.33 8.986 41l22.17-21.861M23.165 29.58l9.025 8.847 9.247-9.063-9.026-8.846-9.246 9.063M23.24 8.771l9.247 9.063 8.95-8.771L32.19 0l-8.95 8.771"/>
</svg>
