<?xml version="1.0" encoding="UTF-8"?>
<svg width="600px" height="400px" viewBox="0 0 600 400" version="1.1" xmlns="http://www.w3.org/2000/svg" xmlns:xlink="http://www.w3.org/1999/xlink">
    <!-- Generator: Sketch 55.2 (78181) - https://sketchapp.com -->
    <title>Artboard</title>
    <desc>Created with Sketch.</desc>
    <g id="Artboard" stroke="none" stroke-width="1" fill="none" fill-rule="evenodd">
        <rect fill="#FFFFFF" x="0" y="0" width="600" height="400"></rect>
        <g id="Logo_BOLDARE_black_RGB" transform="translate(20.000000, 165.000000)" fill="#242424">
            <path d="M32.9411765,66.6307692 L1.64705882,66.6307692 C1.09803922,66.6307692 0.549019608,66.0846154 0.549019608,65.5384615 L0.549019608,2.73076923 C0.549019608,2.18461538 1.09803922,1.63846154 1.64705882,1.63846154 L32.3921569,1.63846154 C47.2156863,1.63846154 54.9019608,9.28461538 54.9019608,19.1153846 C54.9019608,24.5769231 52.7058824,28.9461538 48.8627451,31.6769231 L48.8627451,31.6769231 C54.3529412,34.9538462 57.6470588,40.4153846 57.6470588,47.5153846 C57.0980392,60.0769231 48.3137255,66.6307692 32.9411765,66.6307692 Z M9.88235294,58.4384615 L32.9411765,58.4384615 C43.372549,58.4384615 48.3137255,54.6153846 48.3137255,47.5153846 C48.3137255,40.4153846 43.372549,36.5923077 32.9411765,36.5923077 L9.88235294,36.5923077 L9.88235294,58.4384615 Z M31.8431373,9.28461538 L9.33333333,9.28461538 L9.33333333,27.8538462 L34.0392157,27.8538462 C42.8235294,27.8538462 45.0196078,24.0307692 45.0196078,18.5692308 C45.0196078,13.6538462 41.7254902,9.28461538 31.8431373,9.28461538 Z M112.54902,0 C132.313725,0 148.235294,12.5615385 148.235294,33.8615385 C148.235294,55.1615385 132.313725,67.7230769 112.54902,67.7230769 C92.7843137,67.7230769 76.8627451,55.1615385 76.8627451,33.8615385 C76.8627451,12.5615385 93.3333333,0 112.54902,0 Z M112.54902,8.19230769 C98.2745098,8.19230769 86.745098,17.4769231 86.745098,33.8615385 C86.745098,49.7 98.2745098,59.5307692 112.54902,59.5307692 C126.823529,59.5307692 138.352941,49.7 138.352941,33.8615385 C138.352941,17.4769231 127.372549,8.19230769 112.54902,8.19230769 Z M183.921569,2.18461538 L183.921569,57.8923077 L220.156863,57.8923077 C220.705882,57.8923077 221.803922,58.9846154 221.803922,59.5307692 L221.803922,64.9923077 C221.803922,65.5384615 220.705882,66.6307692 220.156863,66.6307692 L175.686275,66.6307692 C175.137255,66.6307692 174.588235,66.0846154 174.588235,65.5384615 L174.588235,2.73076923 C174.588235,2.18461538 175.137255,1.63846154 175.686275,1.63846154 L182.823529,1.63846154 C183.372549,1.09230769 183.921569,1.63846154 183.921569,2.18461538 Z M271.215686,66.6307692 L242.666667,66.6307692 C242.117647,66.6307692 241.568627,66.0846154 241.568627,65.5384615 L241.568627,2.73076923 C241.568627,2.18461538 242.117647,1.63846154 242.666667,1.63846154 L271.215686,1.63846154 C292.627451,1.63846154 308,14.2 308,34.4076923 C308,53.5230769 294.823529,66.6307692 271.215686,66.6307692 Z M270.666667,17.4769231 L260.784314,17.4769231 L260.784314,49.7 L271.215686,49.7 C282.745098,49.7 288.235294,43.6923077 288.235294,33.3153846 C288.235294,23.4846154 281.098039,17.4769231 270.666667,17.4769231 Z M376.627451,64.9923077 L373.333333,57.8923077 L344.784314,57.8923077 L341.490196,64.9923077 C340.941176,66.0846154 340.392157,66.6307692 339.294118,66.6307692 L320.627451,66.6307692 C320.078431,66.6307692 319.529412,66.0846154 319.529412,66.0846154 C319.529412,66.0846154 319.529412,65.5384615 320.078431,64.9923077 L349.72549,1.63846154 L368.392157,1.63846154 L398.039216,64.9923077 C398.039216,65.5384615 398.588235,66.0846154 398.588235,66.0846154 C398.588235,66.0846154 398.588235,66.6307692 397.490196,66.6307692 L378.823529,66.6307692 C377.72549,66.6307692 377.176471,66.6307692 376.627451,64.9923077 Z M354.666667,35.5 L351.921569,42.0538462 L367.294118,42.0538462 L364.54902,35.5 C362.901961,31.6769231 360.156863,22.9384615 360.156863,22.9384615 L359.607843,22.9384615 C359.058824,23.4846154 356.313725,31.6769231 354.666667,35.5 Z M416.705882,65.5384615 L416.705882,2.73076923 C416.705882,2.18461538 417.254902,1.63846154 417.803922,1.63846154 L450.745098,1.63846154 C467.215686,1.63846154 478.745098,11.4692308 478.745098,25.6692308 C478.745098,34.9538462 473.803922,41.5076923 466.117647,45.3307692 L466.117647,45.3307692 C466.117647,45.3307692 467.764706,47.5153846 468.862745,49.1538462 L478.745098,64.4461538 C479.294118,65.5384615 479.294118,65.5384615 479.294118,66.0846154 C479.294118,66.6307692 478.745098,66.6307692 478.196078,66.6307692 L457.882353,66.6307692 C457.333333,66.6307692 456.784314,66.6307692 456.235294,66.0846154 L445.254902,48.6076923 L436.470588,48.6076923 L436.470588,65.5384615 C436.470588,66.0846154 435.921569,66.6307692 435.372549,66.6307692 L418.352941,66.6307692 C417.254902,66.6307692 416.705882,66.0846154 416.705882,65.5384615 Z M449.098039,17.4769231 L436.470588,17.4769231 L436.470588,32.7692308 L449.098039,32.7692308 C455.137255,32.7692308 458.980392,29.4923077 458.980392,25.1230769 C458.980392,20.7538462 455.686275,17.4769231 449.098039,17.4769231 Z M551.764706,41.5076923 L519.372549,41.5076923 L519.372549,50.2461538 L555.607843,50.2461538 C556.156863,50.2461538 557.254902,51.3384615 557.254902,51.8846154 L557.254902,65.5384615 C557.254902,66.0846154 556.156863,67.1769231 555.607843,67.1769231 L501.254902,67.1769231 C500.705882,67.1769231 500.156863,66.6307692 500.156863,66.0846154 L500.156863,3.27692308 C500.156863,2.73076923 500.705882,2.18461538 501.254902,2.18461538 L555.058824,2.18461538 C555.607843,2.18461538 556.705882,3.27692308 556.705882,3.82307692 L556.705882,17.4769231 C556.705882,18.0230769 555.607843,19.1153846 555.058824,19.1153846 L519.372549,19.1153846 L519.372549,27.3076923 L551.764706,27.3076923 C552.313725,27.3076923 553.411765,28.4 553.411765,28.9461538 L553.411765,41.5076923 C553.411765,40.4153846 552.313725,41.5076923 551.764706,41.5076923 Z" id="BOLDARE-Copy-10"></path>
        </g>
    </g>
</svg>