<?xml version="1.0" encoding="UTF-8"?>
<svg width="600px" height="400px" viewBox="0 0 600 400" version="1.1" xmlns="http://www.w3.org/2000/svg" xmlns:xlink="http://www.w3.org/1999/xlink">
    <!-- Generator: Sketch 54.1 (76490) - https://sketchapp.com -->
    <title>Artboard</title>
    <desc>Created with Sketch.</desc>
    <g id="Artboard" stroke="none" stroke-width="1" fill="none" fill-rule="evenodd">
        <rect fill="#FFFFFF" x="0" y="0" width="600" height="400"></rect>
        <g id="normal" transform="translate(11.000000, 161.000000)" fill-rule="nonzero">
            <polygon id="Fill-3" fill="#F76ED6" points="0.973994169 14.8851064 17.89207 14.8851064 17.89207 1.70553191 0.973994169 1.70553191"></polygon>
            <polygon id="Fill-4" fill="#F76ED6" points="35.6826822 77.1982979 48.7758017 77.1982979 48.7758017 64.0187234 35.6826822 64.0187234"></polygon>
            <polygon id="Fill-5" fill="#F76ED6" points="323.472595 14.8851064 336.565714 14.8851064 336.565714 1.70553191 323.472595 1.70553191"></polygon>
            <polyline id="Fill-6" fill="#5331D5" points="72.4661808 1.70553191 31.5127697 1.70553191 31.5127697 14.8851064 107.164723 14.8851064 107.164723 1.70553191 72.4661808 1.70553191"></polyline>
            <polygon id="Fill-7" fill="#5331D5" points="0.973994169 77.1982979 22.7569679 77.1982979 22.7569679 64.0187234 0.973994169 64.0187234"></polygon>
            <polygon id="Fill-8" fill="#55D7FF" points="17.5369679 46.0391489 72.4661808 46.0391489 72.4661808 32.8595745 17.5369679 32.8595745"></polygon>
            <path d="M440.585248,24.2348936 C440.529446,24.2297872 438.657551,24.2655319 438.231429,24.3012766 C433.792653,24.4953191 429.998134,25.2204255 426.771778,26.1651064 L426.771778,5.22893617 L413.303265,5.22893617 L413.303265,77.2034043 L426.771778,77.2034043 L426.771778,41.213617 C430.27207,37.7157447 434.568805,36.9038298 438.236501,36.9038298 C440.757726,36.9038298 442.563673,37.6340426 443.654344,39.0944681 C444.739942,40.56 445.287813,43.0008511 445.287813,46.4221277 L445.287813,77.2034043 L458.928805,77.2034043 L458.928805,46.0187234 C458.928805,32.4 452.775394,24.6893617 440.585248,24.2348936" id="Fill-9" fill="#131740"></path>
            <path d="M565.95656,56.1089362 C565.95656,59.5302128 565.413761,61.9710638 564.32309,63.4365957 C563.237493,64.8970213 561.431545,65.627234 558.910321,65.627234 C555.237551,65.627234 550.945889,64.8102128 547.445598,61.3174468 L547.445598,41.213617 C550.945889,37.7157447 555.237551,36.9038298 558.910321,36.9038298 C561.431545,36.9038298 563.237493,37.6340426 564.32309,39.0944681 C565.413761,40.56 565.95656,43.0008511 565.95656,46.4221277 L565.95656,56.1089362 Z M561.253994,24.2348936 C561.198192,24.2297872 559.326297,24.2655319 558.905248,24.3012766 C554.461399,24.4953191 550.671953,25.2204255 547.445598,26.1651064 L547.445598,5.22893617 L533.972012,5.22893617 L533.972012,77.2034043 L547.445598,77.2034043 L547.445598,75.3497872 C550.66688,76.9021277 554.471545,78.0357447 558.905248,78.2246809 C559.326297,78.2655319 561.198192,78.3012766 561.253994,78.2961702 C573.449213,77.8417021 579.602624,70.1310638 579.602624,56.5123404 L579.602624,46.0187234 C579.602624,32.4 573.449213,24.6893617 561.253994,24.2348936 L561.253994,24.2348936 Z" id="Fill-10" fill="#131740"></path>
            <path d="M293.846939,61.3174468 C290.341574,64.8102128 286.049913,65.627234 282.382216,65.627234 C279.860991,65.627234 278.055044,64.8970213 276.964373,63.4314894 C275.873703,61.9710638 275.330904,59.5302128 275.330904,56.1038298 L275.330904,46.4221277 C275.330904,43.0008511 275.873703,40.56 276.964373,39.0944681 C278.055044,37.6340426 279.860991,36.9038298 282.382216,36.9038298 C286.049913,36.9038298 290.341574,37.7157447 293.846939,41.213617 L293.846939,61.3174468 Z M280.033469,24.2348936 C267.843324,24.6893617 261.689913,32.4 261.689913,46.0187234 L261.689913,56.5123404 C261.689913,70.1310638 267.843324,77.8417021 280.033469,78.2961702 C280.089271,78.3012766 281.961166,78.2655319 282.382216,78.2246809 C286.826064,78.0357447 290.61551,77.1165957 293.846939,75.8859574 L293.846939,77.933617 L307.315452,77.933617 L307.315452,33.3702128 C307.315452,33.3702128 299.345948,25.0314894 282.382216,24.3012766 C281.961166,24.2655319 280.089271,24.2297872 280.033469,24.2348936 L280.033469,24.2348936 Z" id="Fill-11" fill="#131740"></path>
            <polygon id="Fill-12" fill="#131740" points="323.310262 77.2034043 336.722974 77.2034043 336.722974 26.2876596 323.310262 26.2876596"></polygon>
            <path d="M189.984665,64.0187234 L171.524431,64.0187234 L171.524431,46.0391489 L189.984665,46.0391489 C194.91551,46.0391489 198.92309,50.0731915 198.92309,55.0365957 C198.92309,59.9897872 194.91551,64.0187234 189.984665,64.0187234 Z M187.935219,14.8851064 C192.850845,14.8851064 196.858426,18.9191489 196.858426,23.8723404 C196.858426,28.8255319 192.850845,32.8595745 187.935219,32.8595745 L171.524431,32.8595745 L171.524431,14.8851064 L187.935219,14.8851064 Z M204.422099,38.4102128 C207.820933,34.5089362 209.956618,29.4587234 209.956618,23.8723404 C209.956618,11.6476596 200.074636,1.70553191 187.935219,1.70553191 L158.431312,1.70042553 L158.431312,77.2034043 L189.984665,77.2034043 C202.1393,77.2034043 212.01621,67.2561702 212.01621,55.0365957 C212.01621,48.3829787 209.038426,42.48 204.422099,38.4102128 L204.422099,38.4102128 Z" id="Fill-13" fill="#131740"></path>
            <path d="M379.482332,24.2348936 C379.426531,24.2297872 377.554636,24.2655319 377.133586,24.3012766 C360.169854,25.0314894 352.20035,33.3702128 352.20035,33.3702128 L352.20035,77.2034043 L365.668863,77.2034043 L365.668863,41.213617 C369.174227,37.7157447 373.465889,36.9038298 377.133586,36.9038298 C379.65481,36.9038298 381.460758,37.6340426 382.551429,39.0944681 C383.642099,40.56 384.184898,43.0008511 384.184898,46.4221277 L384.184898,77.2034043 L397.825889,77.2034043 L397.825889,46.0187234 C397.825889,32.4 391.677551,24.6893617 379.482332,24.2348936" id="Fill-14" fill="#131740"></path>
            <path d="M503.884723,61.9097872 C500.384431,65.4076596 496.087697,66.2246809 492.42,66.2246809 C489.898776,66.2246809 488.092828,65.4893617 487.00723,64.0289362 C485.91656,62.5685106 485.373761,60.1276596 485.373761,56.7012766 L485.373761,25.9251064 L471.727697,25.9251064 L471.727697,57.1046809 C471.727697,70.7285106 477.881108,78.4391489 490.076327,78.8885106 C490.132128,78.8987234 492.004023,78.8629787 492.425073,78.8221277 C509.388805,78.0970213 517.353236,69.7531915 517.353236,69.7531915 L517.353236,25.9251064 L503.884723,25.9251064 L503.884723,61.9097872" id="Fill-15" fill="#131740"></path>
            <path d="M248.429388,25.6697872 C231.465656,26.3948936 223.501224,34.7387234 223.501224,34.7387234 L223.501224,77.2034043 L236.969738,77.2034043 L236.969738,42.5770213 C240.470029,39.0842553 244.822566,38.0374468 248.495335,38.0374468 C250.346939,38.0374468 252.03621,38.093617 254.253061,38.4765957 L254.253061,25.6391489 C253.700117,25.5829787 253.674752,25.6238298 253.096443,25.6034043 C253.040641,25.5931915 248.85551,25.6289362 248.429388,25.6697872" id="Fill-16" fill="#131740"></path>
            <polygon id="Fill-17" fill="#F76ED6" points="85.5593003 46.0391489 107.164723 46.0391489 107.164723 32.8595745 85.5593003 32.8595745"></polygon>
            <polygon id="Fill-18" fill="#55D7FF" points="62.0515452 77.1982979 107.164723 77.1982979 107.164723 64.0187234 62.0515452 64.0187234"></polygon>
        </g>
    </g>
</svg>