<?xml version="1.0" encoding="UTF-8"?>
<svg width="600px" height="400px" viewBox="0 0 600 400" version="1.1" xmlns="http://www.w3.org/2000/svg" xmlns:xlink="http://www.w3.org/1999/xlink">
    <!-- Generator: Sketch 55.1 (78136) - https://sketchapp.com -->
    <title>Artboard</title>
    <desc>Created with Sketch.</desc>
    <g id="Artboard" stroke="none" stroke-width="1" fill="none" fill-rule="evenodd">
        <rect fill="#FFFFFF" x="0" y="0" width="600" height="400"></rect>
        <g id="FP" transform="translate(10.000000, 165.000000)" fill="#000000" fill-rule="nonzero">
            <path d="M509.24,13.7083333 L504.31,13.7083333 C503.73,13.7083333 503.44,14 503.44,14.5833333 L503.44,53.6666667 C503.44,54.25 503.73,54.5416667 504.31,54.5416667 L509.24,54.5416667 C509.82,54.5416667 510.11,54.25 510.11,53.6666667 L510.11,14.5833333 C510.4,14 509.82,13.7083333 509.24,13.7083333 Z M509.24,0 L504.31,0 C503.73,0 503.44,0.291666667 503.44,0.875 L503.44,5.83333333 C503.44,6.41666667 503.73,6.70833333 504.31,6.70833333 L509.24,6.70833333 C509.82,6.70833333 510.11,6.41666667 510.11,5.83333333 L510.11,0.875 C510.4,0.291666667 509.82,0 509.24,0 Z M129.34,0 L107.01,0 C106.43,0 106.14,0.291666667 106.14,0.875 L106.14,53.6666667 C106.14,54.25 106.43,54.5416667 107.01,54.5416667 L111.94,54.5416667 C112.52,54.5416667 112.81,54.25 112.81,53.6666667 L112.81,30.625 L125.57,30.625 C126.15,30.625 126.44,30.3333333 126.44,29.75 L126.44,24.7916667 C126.44,24.2083333 126.15,23.9166667 125.57,23.9166667 L112.81,23.9166667 L112.81,6.70833333 L129.05,6.70833333 C129.63,6.70833333 129.92,6.41666667 129.92,5.83333333 L129.92,0.875 C130.21,0.291666667 129.92,0 129.34,0 L129.34,0 Z M184.44,13.7083333 L174.58,13.7083333 L174.58,0.875 C174.58,0.291666667 174,0 173.71,0 L168.78,0 C168.2,0 167.91,0.291666667 167.91,0.875 L167.91,44.3333333 C167.91,49.875 172.55,54.5416667 178.06,54.5416667 L184.73,54.5416667 C185.31,54.5416667 185.6,54.25 185.6,53.6666667 L185.6,48.7083333 C185.6,48.125 185.31,47.8333333 184.73,47.8333333 L178.35,47.8333333 C176.32,47.8333333 174.87,46.375 174.87,44.3333333 L174.87,20.4166667 L184.73,20.4166667 C185.31,20.4166667 185.6,20.125 185.6,19.5416667 L185.6,14.5833333 C185.31,14 185.02,13.7083333 184.44,13.7083333 L184.44,13.7083333 Z M160.08,13.7083333 L155.15,13.7083333 C154.57,13.7083333 154.28,14 154.28,14.5833333 L154.28,46.9583333 C154.28,47.5416667 153.99,47.8333333 153.41,47.8333333 L144.13,47.8333333 C142.39,47.8333333 140.65,46.375 140.65,44.3333333 L140.65,14.5833333 C140.65,14 140.36,13.7083333 139.78,13.7083333 L134.85,13.7083333 C134.27,13.7083333 133.98,14 133.98,14.5833333 L133.98,44.3333333 C133.98,49.875 138.62,54.5416667 144.13,54.5416667 L158.63,54.5416667 C160.08,54.5416667 161.24,53.375 161.24,51.9166667 L161.24,14.5833333 C160.95,14 160.66,13.7083333 160.08,13.7083333 Z M218.37,13.7083333 L213.44,13.7083333 C212.86,13.7083333 212.57,14 212.57,14.5833333 L212.57,46.9583333 C212.57,47.5416667 212.28,47.8333333 211.7,47.8333333 L202.42,47.8333333 C200.68,47.8333333 198.94,46.375 198.94,44.3333333 L198.94,14.5833333 C198.94,14 198.65,13.7083333 198.07,13.7083333 L193.14,13.7083333 C192.56,13.7083333 192.27,14 192.27,14.5833333 L192.27,44.3333333 C192.27,49.875 196.91,54.5416667 202.42,54.5416667 L216.92,54.5416667 C218.37,54.5416667 219.53,53.375 219.53,51.9166667 L219.53,14.5833333 C219.24,14 218.95,13.7083333 218.37,13.7083333 Z M534.76,13.7083333 L520.26,13.7083333 C518.81,13.7083333 517.65,14.875 517.65,16.3333333 L517.65,53.9583333 C517.65,54.5416667 517.94,54.8333333 518.52,54.8333333 L523.45,54.8333333 C524.03,54.8333333 524.32,54.5416667 524.32,53.9583333 L524.32,21.5833333 C524.32,21 524.61,20.7083333 525.19,20.7083333 L534.47,20.7083333 C536.21,20.7083333 537.95,22.1666667 537.95,24.2083333 L537.95,53.9583333 C537.95,54.5416667 538.24,54.8333333 538.82,54.8333333 L543.75,54.8333333 C544.33,54.8333333 544.62,54.5416667 544.62,53.9583333 L544.62,24.2083333 C544.91,18.375 540.27,13.7083333 534.76,13.7083333 Z M313.49,0 L297.54,0 C296.96,0 296.67,0.291666667 296.67,0.875 L296.67,53.6666667 C296.67,54.25 296.96,54.5416667 297.54,54.5416667 L302.47,54.5416667 C303.05,54.5416667 303.34,54.25 303.34,53.6666667 L303.34,34.125 L313.49,34.125 C319,34.125 323.64,29.4583333 323.64,23.9166667 L323.64,10.2083333 C323.64,4.66666667 319.29,0 313.49,0 Z M316.97,23.9166667 C316.97,25.9583333 315.52,27.4166667 313.49,27.4166667 L303.34,27.4166667 L303.34,7 L313.49,7 C315.52,7 316.97,8.45833333 316.97,10.5 L316.97,23.9166667 Z M368.01,13.7083333 L361.34,13.7083333 C355.83,13.7083333 351.19,18.375 351.19,23.9166667 L351.19,44.3333333 C351.19,49.875 355.83,54.5416667 361.34,54.5416667 L368.01,54.5416667 C373.52,54.5416667 378.16,49.875 378.16,44.3333333 L378.16,23.9166667 C378.45,18.375 373.81,13.7083333 368.01,13.7083333 Z M371.49,44.3333333 C371.49,46.375 370.04,47.8333333 368.01,47.8333333 L361.34,47.8333333 C359.31,47.8333333 357.86,46.375 357.86,44.3333333 L357.86,23.9166667 C357.86,21.875 359.31,20.4166667 361.34,20.4166667 L367.72,20.4166667 C369.75,20.4166667 371.2,21.875 371.2,23.9166667 L371.2,44.3333333 L371.49,44.3333333 Z M243.02,13.7083333 L236.35,13.7083333 C230.84,13.7083333 226.2,18.375 226.2,23.9166667 L226.2,53.6666667 C226.2,54.25 226.49,54.5416667 227.07,54.5416667 L232,54.5416667 C232.58,54.5416667 232.87,54.25 232.87,53.6666667 L232.87,23.9166667 C232.87,21.875 234.32,20.4166667 236.35,20.4166667 L243.02,20.4166667 C243.6,20.4166667 243.89,20.125 243.89,19.5416667 L243.89,14.5833333 C243.89,14 243.31,13.7083333 243.02,13.7083333 Z M346.26,13.7083333 L339.59,13.7083333 C334.08,13.7083333 329.44,18.375 329.44,23.9166667 L329.44,53.6666667 C329.44,54.25 329.73,54.5416667 330.31,54.5416667 L335.24,54.5416667 C335.82,54.5416667 336.11,54.25 336.11,53.6666667 L336.11,23.9166667 C336.11,21.875 337.56,20.4166667 339.59,20.4166667 L346.26,20.4166667 C346.84,20.4166667 347.13,20.125 347.13,19.5416667 L347.13,14.5833333 C347.13,14 346.55,13.7083333 346.26,13.7083333 Z M577.97,13.7083333 L562.02,13.7083333 C556.51,13.7083333 551.87,18.375 551.87,23.9166667 L551.87,44.3333333 C551.87,49.875 556.51,54.5416667 562.02,54.5416667 L572.17,54.5416667 L572.17,58.0416667 C572.17,60.0833333 570.72,61.5416667 568.69,61.5416667 L562.02,61.5416667 C561.44,61.5416667 561.15,61.8333333 561.15,62.4166667 L561.15,67.375 C561.15,67.9583333 561.44,68.25 562.02,68.25 L568.69,68.25 C574.2,68.25 578.84,63.5833333 578.84,58.0416667 L578.84,14.5833333 C578.84,14 578.26,13.7083333 577.97,13.7083333 Z M571.88,47.8333333 L561.73,47.8333333 C559.7,47.8333333 558.25,46.375 558.25,44.3333333 L558.25,23.9166667 C558.25,21.875 559.7,20.4166667 561.73,20.4166667 L571.88,20.4166667 L571.88,47.8333333 Z M404.84,13.7083333 L394.69,13.7083333 L394.11,13.7083333 C388.6,13.7083333 383.96,18.375 383.96,23.9166667 L383.96,44.3333333 C383.96,49.875 388.6,54.5416667 394.11,54.5416667 L404.55,54.5416667 C405.13,54.5416667 405.42,54.25 405.42,53.6666667 L405.42,48.7083333 C405.42,48.125 405.13,47.8333333 404.55,47.8333333 L394.4,47.8333333 C392.37,47.8333333 390.92,46.375 390.92,44.3333333 L390.92,23.9166667 C390.92,21.875 392.37,20.4166667 394.4,20.4166667 L404.84,20.4166667 C405.42,20.4166667 405.71,20.125 405.71,19.5416667 L405.71,14.5833333 C405.71,14 405.42,13.7083333 404.84,13.7083333 Z M264.77,13.7083333 L258.1,13.7083333 C252.59,13.7083333 247.95,18.375 247.95,23.9166667 L247.95,44.3333333 C247.95,49.875 252.59,54.5416667 258.1,54.5416667 L271.44,54.5416667 C272.02,54.5416667 272.31,54.25 272.31,53.6666667 L272.31,48.7083333 C272.31,48.125 272.02,47.8333333 271.44,47.8333333 L258.39,47.8333333 C256.36,47.8333333 254.91,46.375 254.91,44.3333333 L254.91,37.625 L274.34,37.625 C274.92,37.625 275.21,37.3333333 275.21,36.75 L275.21,23.9166667 C274.92,18.375 270.57,13.7083333 264.77,13.7083333 Z M268.25,30.625 L254.62,30.625 L254.62,24.2083333 C254.62,22.1666667 256.07,20.7083333 258.1,20.7083333 L264.48,20.7083333 C266.51,20.7083333 267.96,22.1666667 267.96,24.2083333 L267.96,30.625 L268.25,30.625 Z M428.62,13.7083333 L421.95,13.7083333 C416.44,13.7083333 411.8,18.375 411.8,23.9166667 L411.8,44.3333333 C411.8,49.875 416.44,54.5416667 421.95,54.5416667 L435.29,54.5416667 C435.87,54.5416667 436.16,54.25 436.16,53.6666667 L436.16,48.7083333 C436.16,48.125 435.87,47.8333333 435.29,47.8333333 L421.95,47.8333333 C419.92,47.8333333 418.47,46.375 418.47,44.3333333 L418.47,37.625 L437.9,37.625 C438.48,37.625 438.77,37.3333333 438.77,36.75 L438.77,23.9166667 C438.77,18.375 434.13,13.7083333 428.62,13.7083333 Z M432.1,30.625 L418.47,30.625 L418.47,23.9166667 C418.47,22.1666667 419.92,20.4166667 421.95,20.4166667 L428.62,20.4166667 C430.36,20.4166667 432.1,21.875 432.1,23.9166667 L432.1,30.625 Z M464.29,33.8333333 L453.56,28.875 C452.4,28.2916667 451.53,27.125 451.53,25.6666667 L451.53,23.9166667 C451.53,21.875 452.98,20.4166667 455.01,20.4166667 L466.03,20.4166667 C466.61,20.4166667 466.9,20.125 466.9,19.5416667 L466.9,14.5833333 C466.9,14 466.61,13.7083333 466.03,13.7083333 L455.01,13.7083333 C449.5,13.7083333 444.86,18.375 444.86,23.9166667 L444.86,25.9583333 C444.86,29.4583333 446.89,32.6666667 450.08,33.8333333 L460.81,38.7916667 C461.97,39.375 462.84,40.5416667 462.84,42 L462.84,44.625 C462.84,46.375 461.39,48.125 459.36,48.125 L445.73,48.125 C445.15,48.125 444.86,48.4166667 444.86,49 L444.86,53.9583333 C444.86,54.5416667 445.15,54.8333333 445.73,54.8333333 L459.36,54.8333333 C464.87,54.8333333 469.51,50.1666667 469.51,44.625 L469.51,42 C469.51,38.2083333 467.19,35.2916667 464.29,33.8333333 Z M492.42,33.8333333 L481.69,28.875 C480.53,28.2916667 479.66,27.125 479.66,25.6666667 L479.66,23.9166667 C479.66,21.875 481.11,20.4166667 483.14,20.4166667 L494.16,20.4166667 C494.74,20.4166667 495.03,20.125 495.03,19.5416667 L495.03,14.5833333 C495.03,14 494.74,13.7083333 494.16,13.7083333 L483.14,13.7083333 C477.63,13.7083333 472.99,18.375 472.99,23.9166667 L472.99,25.9583333 C472.99,29.4583333 475.02,32.6666667 478.21,33.8333333 L488.94,38.7916667 C490.1,39.375 490.97,40.5416667 490.97,42 L490.97,44.625 C490.97,46.375 489.52,48.125 487.49,48.125 L473.86,48.125 C473.28,48.125 472.99,48.4166667 472.99,49 L472.99,53.9583333 C472.99,54.5416667 473.28,54.8333333 473.86,54.8333333 L487.49,54.8333333 C493,54.8333333 497.64,50.1666667 497.64,44.625 L497.64,42 C497.64,38.2083333 495.61,35.2916667 492.42,33.8333333 Z M54.23,0 L0.87,0 C0.29,0 0,0.291666667 0,0.875 L0,53.6666667 C0,54.25 0.29,54.5416667 0.87,54.5416667 L54.23,54.5416667 C69.31,54.5416667 81.49,42.2916667 81.49,27.125 C81.49,12.25 69.31,0 54.23,0 Z M54.23,51.3333333 C41.18,51.3333333 30.45,40.8333333 30.45,27.4166667 C30.45,14.2916667 41.18,3.5 54.23,3.5 L54.23,51.3333333 Z" id="Shape"></path>
        </g>
    </g>
</svg>