<?xml version="1.0" encoding="UTF-8"?>
<svg width="600px" height="400px" viewBox="0 0 600 400" version="1.1" xmlns="http://www.w3.org/2000/svg" xmlns:xlink="http://www.w3.org/1999/xlink">
    <!-- Generator: Sketch 55.2 (78181) - https://sketchapp.com -->
    <title>merixstudio</title>
    <desc>Created with Sketch.</desc>
    <defs>
        <linearGradient x1="50%" y1="98.7318048%" x2="50%" y2="0.93859499%" id="linearGradient-1">
            <stop stop-color="#D46032" offset="0%"></stop>
            <stop stop-color="#E1972E" offset="100%"></stop>
        </linearGradient>
        <linearGradient x1="49.9674691%" y1="275.974026%" x2="49.9674691%" y2="-205.519481%" id="linearGradient-2">
            <stop stop-color="#D46032" offset="0%"></stop>
            <stop stop-color="#E1972E" offset="100%"></stop>
        </linearGradient>
    </defs>
    <g id="Page-1" stroke="none" stroke-width="1" fill="none" fill-rule="evenodd">
        <g id="merixstudio" fill-rule="nonzero">
            <rect id="Rectangle" fill="#FFFFFF" x="0" y="0" width="600" height="400"></rect>
            <g transform="translate(11.000000, 111.000000)">
                <g id="Group" transform="translate(0.232500, 0.140162)">
                    <path d="M78.7235919,176.557535 C75.8365241,176.557535 73.1014072,175.900595 70.9740941,174.687782 L8.01575563,138.40446 C3.35528799,135.479097 0.43782109,130.45142 0.2156075,124.962449 L0.2156075,52.4463384 C0.43782109,46.957367 3.35528799,41.9296905 8.01575563,39.0043276 L70.9740941,2.77153925 C75.8622668,0.30395264 81.6355672,0.30395264 86.52374,2.77153925 L149.482078,39.0043276 C154.123196,41.9413571 157.02056,46.9670258 157.231576,52.4463384 L157.231576,124.962449 C157.02056,130.441762 154.123196,135.46743 149.482078,138.40446 L86.52374,174.687782 C84.1298239,175.974368 81.4420517,176.618647 78.7235919,176.557535 L78.7235919,176.557535 Z M78.7235919,8.8356042 C77.3053831,8.8356042 75.8871744,9.1388075 74.9754688,9.6946801 L12.0171303,45.9274685 C10.0924184,47.0392138 8.26900719,50.2228479 8.26900719,52.4968723 L8.26900719,124.962449 C8.26900719,127.236473 10.0924184,130.369574 12.0171303,131.531853 L74.9754688,167.764641 C76.79888,168.825853 80.6989541,168.825853 82.5223653,167.764641 L145.480704,131.531853 C147.405416,130.369574 149.228827,127.236473 149.228827,124.962449 L149.228827,52.4463384 C149.228827,50.2228479 147.405416,47.0392138 145.480704,45.9274685 L82.5223653,9.6946801 C81.6106597,9.1893414 80.1924509,8.8356042 78.7235919,8.8356042 L78.7235919,8.8356042 Z" id="Shape" fill="url(#linearGradient-1)"></path>
                    <path d="M55.9816016,104.294094 L51.4737238,82.6655956 L69.1000325,82.6655956 C71.126045,82.6655956 72.8481556,83.9289425 73.5066097,85.7986959 L77.3053831,104.294094 L87.0302431,104.294094 L82.8262672,83.8784086 L82.8262672,83.7773409 C82.7249666,83.3730699 82.471715,83.0698666 82.3197641,82.6655956 L99.743472,82.6655956 C101.769484,82.6655956 103.542245,83.9289425 104.150049,85.7986959 L107.948822,104.294094 L117.673682,104.294094 L113.469706,83.8784086 L113.469706,83.7773409 C111.853468,77.5320645 106.208427,73.1677344 99.743472,73.1652271 L39.8241519,73.1652271 L46.2060913,104.294094 L55.9309513,104.294094 L55.9816016,104.294094 Z" id="Path" fill="url(#linearGradient-2)"></path>
                </g>
                <path d="M241.729464,77.1058333 C238.182143,77.1058333 232.35625,79.56 231.501786,79.9475 C231.398214,79.9991667 230.233036,80.4125 228.860714,81.3941667 C227.377401,78.8078283 224.648201,77.1819086 221.6625,77.1058333 C218.115179,77.1058333 212.315179,79.56 211.434821,79.9475 C211.357143,79.9733333 210.96875,80.1283333 210.399107,80.4383333 L210.399107,77.08 L203.71875,77.08 L203.71875,109.061667 L210.373214,109.061667 L210.373214,92.1666667 C210.373214,87.62 213.299107,86.3541667 213.842857,86.1475 C216.069643,85.1916667 220.057143,83.745 221.6625,83.745 C222.672321,83.745 223.785714,85.1141667 223.785714,87.1033333 L223.785714,109.035833 L230.440179,109.035833 L230.440179,92.1666667 C230.440179,87.62 233.366071,86.3541667 233.909821,86.1475 C236.110714,85.1916667 240.124107,83.745 241.729464,83.745 C242.713393,83.745 243.826786,85.1658333 243.826786,87.1033333 L243.826786,109.035833 L250.507143,109.035833 L250.507143,87.0775 C250.507143,81.575 246.571429,77.1058333 241.703571,77.1058333 L241.729464,77.1058333 Z M567.772321,77.1058333 L556.353571,77.1058333 C550.760714,77.1058333 546.203571,81.1358333 546.203571,86.07 L546.203571,101.26 C546.203571,106.194167 550.760714,110.224167 556.353571,110.224167 L567.772321,110.224167 C573.365179,110.224167 577.922321,106.194167 577.922321,101.26 L577.922321,86.0958333 C577.922321,81.1358333 573.365179,77.1058333 567.772321,77.1058333 L567.772321,77.1058333 Z M571.241964,101.234167 C571.241964,102.345 569.84375,103.559167 567.772321,103.559167 L556.353571,103.559167 C554.282143,103.559167 552.858036,102.345 552.858036,101.234167 L552.858036,86.07 C552.858036,84.985 554.282143,83.745 556.353571,83.745 L567.772321,83.745 C569.84375,83.745 571.241964,84.985 571.241964,86.07 L571.241964,101.234167 Z M286.083929,101.415 C285.4625,102.035 284.633929,102.370833 283.753571,102.370833 L269.305357,102.370833 C267.492857,102.370833 265.965179,100.8725 265.965179,99.064167 L265.965179,98.030833 L280.465179,98.030833 C286.00625,98.030833 290.485714,94.026667 290.485714,89.0925 L290.485714,86.07 C290.485714,81.1358333 286.00625,77.1058333 280.491071,77.1058333 L269.305357,77.1058333 C263.790179,77.1058333 259.310714,81.1358333 259.310714,86.07 L259.310714,99.064167 C259.324944,104.565475 263.791373,109.021636 269.305357,109.035833 L283.753571,109.035833 C286.420536,109.035833 288.932143,108.0025 290.822321,106.116667 L286.083929,101.415 L286.083929,101.415 Z M265.965179,88.86 L265.965179,86.07 C265.965179,84.83 267.51875,83.745 269.33125,83.745 L280.465179,83.745 C282.277679,83.745 283.83125,84.83 283.83125,86.07 L283.83125,89.0925 C283.83125,90.3325 282.277679,91.4175 280.465179,91.4175 L265.965179,91.4175 L265.965179,88.8341667 L265.965179,88.86 Z M403.119643,89.8416667 L390.691071,89.8416667 C388.878571,89.7383333 387.609821,88.6791667 387.609821,87.6975 L387.609821,86.1475 C387.609821,85.1141667 388.982143,83.9775 390.95,83.9775 L404.491964,83.9775 C405.475893,83.9775 406.433929,84.2875 407.08125,84.83 L411.327679,79.715 C409.393197,78.1578421 406.977468,77.3179327 404.491964,77.3383333 L390.95,77.3383333 C385.434821,77.3383333 380.955357,81.2908333 380.955357,86.1475 L380.955357,87.7233333 C380.955357,92.58 385.434821,96.506667 390.95,96.506667 L403.378571,96.506667 C405.191071,96.635833 406.459821,97.695 406.459821,98.650833 L406.459821,100.226667 C406.459821,101.26 405.0875,102.370833 403.119643,102.370833 L387.791071,102.370833 C386.859346,102.393705 385.947109,102.10246 385.201786,101.544167 L380.955357,106.659167 C382.79375,108.209167 385.227679,109.035833 387.791071,109.035833 L403.119643,109.035833 C408.634821,109.035833 413.114286,105.083333 413.114286,100.226667 L413.114286,98.625 C413.114286,93.7683333 408.634821,89.8158333 403.119643,89.8158333 L403.119643,89.8416667 Z M309.128571,77.1058333 C303.613393,77.1058333 299.133929,81.1358333 299.133929,86.07 L299.133929,109.035833 L305.788393,109.035833 L305.788393,86.07 C305.788393,84.83 307.341964,83.745 309.128571,83.745 L319.589286,83.745 L319.589286,77.1058333 L309.128571,77.1058333 Z M327.745536,77.1833333 L334.425893,77.1833333 L334.425893,109.01 L327.745536,109.01 L327.745536,77.1833333 Z M430.721429,102.551667 C428.934821,102.551667 427.38125,101.466667 427.38125,100.226667 L427.38125,83.9775 L434.242857,83.9775 L434.242857,77.3383333 L427.38125,77.3383333 L427.38125,68.5033333 L420.726786,68.5033333 L420.726786,100.2525 C420.726786,105.186667 425.20625,109.216667 430.721429,109.216667 L440.923214,109.216667 L440.923214,102.551667 L430.721429,102.551667 L430.721429,102.551667 Z M473.341071,77.1058333 L473.341071,93.1225 C473.341071,99.4 470.363393,100.149167 469.716071,100.278333 C467.333929,100.846667 460.472321,102.370833 457.598214,102.370833 C456.303571,102.370833 455.190179,100.820833 455.190179,99.038333 L455.190179,77.08 L448.535714,77.08 L448.535714,99.038333 C448.535714,104.540833 452.600893,109.01 457.598214,109.01 C461.792857,109.01 470.3375,106.969167 470.855357,106.814167 C471.580357,106.736667 472.408929,106.504167 473.315179,106.065 L473.315179,109.01 L479.995536,109.01 L479.995536,77.1058333 L473.341071,77.1058333 Z M513.345536,67.625 L513.345536,79.1466667 C512.712854,78.8693734 512.03975,78.6949431 511.351786,78.63 C510.963393,78.6041667 501.69375,77.4675 497.628571,77.4675 C492.63125,77.4675 488.566071,81.9366667 488.566071,87.4391667 L488.566071,99.038333 C488.566071,104.540833 492.63125,109.01 497.628571,109.01 C501.69375,109.01 510.963393,107.899167 511.170536,107.873333 C511.791964,107.821667 512.56875,107.666667 513.345536,107.356667 L513.345536,109.035833 L520.025893,109.035833 L520.025893,67.625 L513.345536,67.625 L513.345536,67.625 Z M510.549107,101.26 C510.471429,101.26 501.305357,102.370833 497.602679,102.370833 C496.308036,102.370833 495.220536,100.846667 495.220536,99.064167 L495.220536,87.465 C495.220536,85.6566667 496.308036,84.1066667 497.628571,84.1066667 C501.305357,84.1066667 510.471429,85.2433333 510.575,85.2691667 C511.610714,85.4241667 513.345536,87.0775 513.345536,92.0116667 L513.345536,94.491667 C513.345536,99.451667 511.610714,101.079167 510.549107,101.26 Z M358.480357,87.775 L349.728571,77.1316667 L341.183929,77.1316667 L354.182143,93.0966667 L341.158036,109.01 L349.702679,109.01 L358.50625,98.340833 L367.20625,109.01 L375.802679,109.01 L362.752679,93.0966667 L375.802679,77.1316667 L367.20625,77.1316667 L358.480357,87.775 Z M529.891071,77.1316667 L536.985714,77.1316667 L536.985714,109.01 L529.891071,109.01 L529.891071,77.1316667 Z" id="Shape" fill="#000000"></path>
            </g>
        </g>
    </g>
</svg>