<?xml version="1.0" encoding="UTF-8"?>
<svg width="600px" height="400px" viewBox="0 0 600 400" version="1.1" xmlns="http://www.w3.org/2000/svg" xmlns:xlink="http://www.w3.org/1999/xlink">
    <!-- Generator: Sketch 54.1 (76490) - https://sketchapp.com -->
    <title>Group</title>
    <desc>Created with Sketch.</desc>
    <g id="Page-1" stroke="none" stroke-width="1" fill="none" fill-rule="evenodd">
        <g id="Group">
            <rect id="Rectangle" fill="#FFFFFF" x="0" y="0" width="600" height="400"></rect>
            <g id="SoftServe" transform="translate(0.000000, 149.000000)" fill="#000000" fill-rule="nonzero">
                <g id="_519255888">
                    <path d="M29.3758317,59.6795466 C20.929089,56.383294 13.6339201,53.5379896 13.6339201,46.9704523 C13.6339201,39.377199 20.5479487,36.6699815 27.0176532,36.6699815 C38.2113579,36.6699815 44.1572493,42.8563785 44.214828,42.9190527 L44.7865385,43.5264314 L49.7989417,35.1245288 L49.4906664,34.7810948 C49.2017539,34.4575332 42.2627575,26.8637704 27.2989226,26.8637704 C15.3877772,26.8637704 2.56607324,33.1556433 2.56607324,46.9704523 C2.56607324,60.033681 14.3666472,64.7067266 24.7776894,68.8284435 C33.2366611,72.1776889 40.542021,75.0698715 40.542021,81.5823779 C40.542021,88.8923236 33.7487548,92.1636084 27.0176532,92.1636084 C14.2968394,92.1636084 6.54002186,83.90285 6.46155179,83.8203035 L5.95047723,83.2633698 L0,91.1434975 L0.33833849,91.526676 C0.433623576,91.6346997 2.69906473,94.1910916 7.11682784,96.7724512 C11.1784184,99.1433684 17.9064627,101.972877 26.8770185,101.972877 C41.2095261,101.972877 51.6124156,93.3982382 51.6124156,81.5823779 C51.6124156,68.3540563 39.7996126,63.7462325 29.3758317,59.6795466 Z" id="Path"></path>
                    <path d="M100.941046,26.8627513 C79.6848289,26.8627513 63.0379637,43.2043984 63.0379637,64.0682656 C63.0379637,85.3214258 79.6848289,101.971348 100.941046,101.971348 C122.196754,101.971348 138.846677,85.3214258 138.846677,64.0682656 C138.846677,43.2043984 122.196754,26.8627513 100.941046,26.8627513 Z M127.776282,64.0682656 C127.776282,79.8229158 115.989976,92.1630989 100.941046,92.1630989 C85.8916077,92.1630989 74.1058106,79.8229158 74.1058106,64.0682656 C74.1058106,48.7829071 85.8916077,36.8121449 100.941046,36.8121449 C115.989976,36.8121449 127.776282,48.7829071 127.776282,64.0682656 Z" id="Shape"></path>
                    <path d="M185.731016,0.28840299 C185.661208,0.275664342 183.967477,0 181.288794,0 C173.778088,0 156.307287,2.61193238 156.307287,26.7995676 L156.307287,29.5297146 L146.706932,29.5297146 L146.706932,38.7662535 L156.307287,38.7662535 L156.307287,100.343859 L167.085202,100.343859 L167.085202,38.7662535 L185.136885,38.7662535 L185.136885,29.5297146 L167.085202,29.5297146 L167.085202,26.7995676 C167.085202,20.4506254 169.056126,9.79602028 182.26967,9.79602028 C184.13308,9.79602028 185.49102,10.0620032 185.505797,10.0650605 L186.257886,10.2128288 L186.257886,0.376044888 L185.731016,0.28840299 Z" id="Path"></path>
                    <path d="M236.607647,91.6020888 L235.827532,91.7727867 C235.814794,91.7753344 234.576088,92.0433556 232.684653,92.0433556 C226.899778,92.0433556 217.193438,89.6607189 217.193438,73.7002121 L217.193438,38.9680336 L235.180409,38.9680336 L235.180409,29.5460201 L217.193438,29.5460201 L217.193438,8.84673623 L206.346225,8.84673623 L206.346225,29.5460201 L196.780519,29.5460201 L196.780519,38.9680336 L206.203552,38.9680336 L206.203552,74.6989221 C206.203552,98.4835064 222.256286,102.035551 231.826068,102.035551 C234.423224,102.035551 236.016064,101.752243 236.080777,101.739505 L236.607647,101.64422 L236.607647,91.6020888 Z" id="Path"></path>
                </g>
                <g id="_519260016" transform="translate(250.371501, 26.921859)">
                    <path d="M8.15783015,52.0429819 C8.15783015,52.0429819 16.03541,59.9200522 27.7106357,59.9200522 C32.7729744,59.9200522 37.1326492,57.6693879 37.1326492,53.4503477 C37.1326492,42.7580362 2.24964523,44.1648925 2.24964523,21.0987678 C2.24964523,7.73745477 14.2066497,0.000509545918 29.6774829,0.000509545918 C45.8530181,0.000509545918 53.7300884,8.15884924 53.7300884,8.15884924 L47.1197492,21.3795276 C47.1197492,21.3795276 40.5068623,15.1905829 29.5368482,15.1905829 C24.895904,15.1905829 20.3950849,17.1599779 20.3950849,21.6602874 C20.3950849,31.7875126 55.2780889,30.5233291 55.2780889,53.5904729 C55.2780889,65.5439105 44.8695945,75.1101256 27.8507608,75.1101256 C9.98659045,75.1101256 0,64.5604869 0,64.5604869 L8.15783015,52.0429819 Z" id="Path"></path>
                    <path d="M103.41642,0 C124.092775,0 135.202914,15.0494387 135.202914,34.0402151 C135.202914,36.1471874 134.782029,40.9308045 134.782029,40.9308045 L85.2709808,40.9308045 C86.3970772,53.4493286 96.1034174,59.9190332 106.792672,59.9190332 C118.324715,59.9190332 127.469026,52.0419628 127.469026,52.0419628 L134.360125,64.8412467 C134.360125,64.8412467 123.390111,75.1091065 105.525941,75.1091065 C81.7535853,75.1091065 66.9854159,57.9501477 66.9854159,37.5545533 C66.9854159,15.4738904 82.0374024,0 103.41642,0 Z M117.201166,28.6940593 C116.917349,18.9882286 110.869549,13.7847457 102.994516,13.7847457 C93.8532627,13.7847457 87.5216451,19.4096231 85.8355576,28.6940593 L117.201166,28.6940593 Z" id="Shape"></path>
                    <path d="M153.184789,1.68914472 L170.344258,1.68914472 L170.344258,14.0665246 C170.344258,16.7380739 170.062988,19.1288633 170.062988,19.1288633 L170.344258,19.1288633 C173.580384,8.86100352 182.160118,0.702663821 193.130132,0.702663821 C194.818258,0.702663821 196.366768,0.986480898 196.366768,0.986480898 L196.366768,18.5673437 C196.366768,18.5673437 194.537498,18.2860744 192.146708,18.2860744 C184.550907,18.2860744 175.971173,22.6462588 172.594922,33.3355131 C171.470354,36.8529085 171.049469,40.7906794 171.049469,45.0107387 L171.049469,73.4209809 L153.184789,73.4209809 L153.184789,1.68914472 Z" id="Path"></path>
                    <path d="M204.145496,1.68914472 L222.99258,1.68914472 L237.901894,46.1342874 C239.30926,50.3538372 240.292683,55.1226774 240.435866,55.1226774 L240.716625,55.1226774 C240.85726,55.1226774 241.840684,50.3538372 243.24805,46.1342874 L258.156344,1.68914472 L277.004447,1.68914472 L251.265755,73.4209809 L230.164949,73.4209809 L204.145496,1.68914472 Z" id="Path"></path>
                    <path d="M317.838948,0 C338.515302,0 349.628499,15.0494387 349.628499,34.0402151 C349.628499,36.1471874 349.204556,40.9308045 349.204556,40.9308045 L299.694018,40.9308045 C300.819605,53.4493286 310.525945,59.9190332 321.215199,59.9190332 C332.748261,59.9190332 341.891553,52.0419628 341.891553,52.0419628 L348.783162,64.8412467 C348.783162,64.8412467 337.8106,75.1091065 319.948977,75.1091065 C296.17917,75.1091065 281.408453,57.9501477 281.408453,37.5545533 C281.408453,15.4738904 296.45993,0 317.838948,0 Z M331.623694,28.6940593 C331.342934,18.9882286 325.292076,13.7847457 317.417044,13.7847457 C308.27579,13.7847457 301.944172,19.4096231 300.258085,28.6940593 L331.623694,28.6940593 Z" id="Shape"></path>
                </g>
            </g>
        </g>
    </g>
</svg>