<?xml version="1.0" encoding="UTF-8"?>
<svg width="600px" height="400px" viewBox="0 0 600 400" version="1.1" xmlns="http://www.w3.org/2000/svg" xmlns:xlink="http://www.w3.org/1999/xlink">
    <!-- Generator: Sketch 54.1 (76490) - https://sketchapp.com -->
    <title>Artboard</title>
    <desc>Created with Sketch.</desc>
    <g id="Artboard" stroke="none" stroke-width="1" fill="none" fill-rule="evenodd">
        <rect fill="#FFFFFF" x="0" y="0" width="600" height="400"></rect>
        <g id="logo_kwadrat" transform="translate(101.000000, 31.000000)" fill-rule="nonzero">
            <path d="M0.115835821,5.14008734 L23.1463731,1.43126638 L23.1463731,25.3827074 L50.8103433,25.3827074 L50.8103433,44.5444541 L23.1463731,44.5444541 L23.1463731,73.131179 C23.1463731,77.9743231 23.9943507,81.8390393 25.6947612,84.7193886 C27.3966567,87.6056769 30.8227239,89.0458515 35.9744478,89.0458515 C38.447097,89.0458515 40.9999403,88.8157205 43.6240672,88.3524891 C46.2526493,87.8877729 48.6495597,87.2463755 50.8103433,86.4208734 L54.0596866,104.344367 C51.2751716,105.47869 48.1862164,106.458603 44.7839104,107.281135 C41.3830896,108.103668 37.2100299,108.516419 32.2647313,108.516419 C25.9784104,108.516419 20.776194,107.667162 16.6536269,105.967162 C12.5310597,104.267162 9.2356791,101.900524 6.76154478,98.8583406 C4.28889552,95.8235808 2.56323881,92.1385153 1.58457463,87.8105677 C0.602940299,83.4841048 0.115835821,78.6944105 0.115835821,73.44 L0.115835821,5.14008734" id="Fill-4" fill="#1F133A"></path>
            <path d="M143.391381,25.3827074 C138.744582,41.0434934 133.888388,55.7228821 128.827254,69.4223581 C123.766119,83.1248035 118.237187,96.4130131 112.243425,109.286987 C110.075216,113.92821 107.911463,117.868646 105.743254,121.112751 C103.575045,124.356856 101.20041,127.035284 98.6223209,129.14952 C96.0412612,131.259301 93.1260597,132.803406 89.8767164,133.784803 C86.624403,134.760262 82.8359776,135.253188 78.5040149,135.253188 C74.8878582,135.253188 71.559806,134.916157 68.5139179,134.245066 C65.4724851,133.575459 62.9716194,132.828646 61.0098358,132.006114 L65.0299328,113.616419 C67.401597,114.440437 69.5118881,115.009083 71.3682313,115.316419 C73.2245746,115.62821 75.181903,115.781135 77.2446716,115.781135 C81.3672388,115.781135 84.5363881,114.672052 86.7550896,112.46131 C88.9708209,110.240175 90.8524104,107.177205 92.3998582,103.263493 C87.1397239,92.9625328 81.8825597,81.3980786 76.6253955,68.5731004 C71.3682313,55.7466376 66.4184776,41.3537991 61.7820746,25.3827074 L86.2041269,25.3827074 C87.2377388,29.4003493 88.4555,33.7535371 89.8514701,38.440786 C91.2474403,43.1295197 92.7236045,47.8672489 94.2784776,52.6569432 C95.8274104,57.4466376 97.4075299,62.1086463 99.0099254,66.6414847 C100.612321,71.1758079 102.143433,75.2944105 103.592866,79.0032314 C104.933888,75.2944105 106.334313,71.1758079 107.780776,66.6414847 C109.230209,62.1086463 110.65291,57.4466376 112.047396,52.6569432 C113.443366,47.8672489 114.788843,43.1295197 116.083828,38.440786 C117.377328,33.7535371 118.541627,29.4003493 119.575239,25.3827074 L143.391381,25.3827074" id="Fill-5" fill="#1F133A"></path>
            <path d="M207.686201,66.6414847 C207.686201,59.5326638 206.086776,53.8417467 202.896836,49.5672489 C199.70244,45.2927511 194.960597,43.1532751 188.677246,43.1532751 C186.612993,43.1532751 184.706157,43.2304803 182.958224,43.3848908 C181.204351,43.5393013 179.760858,43.7204367 178.629231,43.9268122 L178.629231,85.4929258 C180.072724,86.4208734 181.951343,87.1929258 184.27103,87.8105677 C186.587746,88.4282096 188.929709,88.7385153 191.305828,88.7385153 C202.225582,88.7385153 207.686201,81.3743231 207.686201,66.6414847 Z M231.180082,66.0238428 C231.180082,72.3071616 230.407843,78.0248035 228.863366,83.1752838 C227.315918,88.3272489 225.049694,92.7561572 222.061724,96.4649782 C219.070784,100.172314 215.361067,103.058603 210.93406,105.116419 C206.501112,107.177205 201.398396,108.209083 195.630366,108.209083 C192.43597,108.209083 189.449485,107.898777 186.66794,107.281135 C183.883425,106.663493 181.204351,105.788996 178.629231,104.654672 L178.629231,135.253188 L155.600179,135.253188 L155.600179,28.1635808 C157.658493,27.5459389 160.030157,26.9550218 162.709231,26.3878603 C165.388306,25.8221834 168.195097,25.3337118 171.132575,24.919476 C174.068567,24.5082096 177.056537,24.1726638 180.09797,23.9158079 C183.136433,23.658952 186.048664,23.5282969 188.828724,23.5282969 C195.529381,23.5282969 201.503836,24.5334498 206.761,26.5422707 C212.015194,28.549607 216.445172,31.3854148 220.053903,35.040786 C223.656694,38.6976419 226.412993,43.1532751 228.319828,48.4062009 C230.226664,53.6606114 231.180082,59.5326638 231.180082,66.0238428 L231.180082,66.0238428 Z" id="Fill-6" fill="#1F133A"></path>
            <path d="M295.471933,57.8326638 C295.366493,55.8772926 295.033836,53.9694323 294.468022,52.1150218 C293.897754,50.2606114 293.02156,48.6155459 291.83944,47.170917 C290.652866,45.7307424 289.160366,44.5444541 287.357485,43.6165066 C285.551634,42.6900437 283.312142,42.2268122 280.631582,42.2268122 C278.057948,42.2268122 275.842216,42.6648035 273.985873,43.5393013 C272.133985,44.4152838 270.585052,45.5763319 269.34947,47.0165066 C268.112403,48.4596507 267.158985,50.1344105 266.492187,52.0393013 C265.820933,53.9456769 265.332343,55.8772926 265.023448,57.8326638 L295.471933,57.8326638 Z M241.373634,66.6414847 C241.373634,59.4317031 242.47853,53.1216594 244.698716,47.7113537 C246.912963,42.3025328 249.820739,37.7993886 253.42947,34.1900437 C257.036716,30.5851528 261.18453,27.8562445 265.871425,26.0018341 C270.559806,24.1459389 275.378873,23.219476 280.324172,23.219476 C291.864687,23.219476 300.983045,26.750131 307.683701,33.8040175 C314.379903,40.8623581 317.725776,51.2420087 317.725776,64.9414847 C317.725776,66.2806987 317.675284,67.749083 317.574299,69.3451528 C317.468858,70.9441921 317.367873,72.3576419 317.265403,73.5944105 L265.023448,73.5944105 C265.538769,78.3351092 267.750045,82.0944105 271.669157,84.8737991 C275.585299,87.6561572 280.839493,89.0458515 287.433224,89.0458515 C291.658261,89.0458515 295.806075,88.6598253 299.876664,87.8877729 C303.945769,87.1157205 307.269366,86.1640175 309.844485,85.0296943 L312.93641,103.726725 C311.700828,104.344367 310.05091,104.963493 307.991112,105.581135 C305.928343,106.198777 303.636873,106.740699 301.113731,107.202445 C298.586134,107.667162 295.881813,108.053188 292.999284,108.363493 C290.113784,108.67083 287.226799,108.826725 284.341299,108.826725 C277.024336,108.826725 270.665246,107.744367 265.255119,105.581135 C259.846478,103.417904 255.361552,100.45738 251.807769,96.6965939 C248.251015,92.9372926 245.626888,88.4831441 243.926478,83.3296943 C242.226067,78.179214 241.373634,72.6174672 241.373634,66.6414847 L241.373634,66.6414847 Z" id="Fill-7" fill="#1F133A"></path>
            <polyline id="Fill-8" fill="#2AE095" points="98.3757985 233.721048 58.8089552 202.662271 58.8089552 194.935808 98.3757985 164.031441 101.932552 173.303493 70.3999627 198.797555 101.932552 224.294585 98.3757985 233.721048"></polyline>
            <path d="M178.130246,196.481397 C178.130246,187.41869 176.095694,180.232664 172.023619,174.924803 C167.95303,169.619913 162.415187,166.966725 155.411575,166.966725 C148.402022,166.966725 142.862694,169.619913 138.795075,174.924803 C134.723,180.232664 132.688448,187.41869 132.688448,196.481397 C132.688448,205.547074 134.723,212.731616 138.795075,218.036507 C142.862694,223.342882 148.402022,225.994585 155.411575,225.994585 C162.415187,225.994585 167.95303,223.342882 172.023619,218.036507 C176.095694,212.731616 178.130246,205.547074 178.130246,196.481397 Z M193.122075,196.481397 C193.122075,202.868646 192.196873,208.638253 190.34053,213.788734 C188.488642,218.939214 185.885306,223.368122 182.534978,227.076943 C179.184649,230.785764 175.192769,233.643843 170.554881,235.652664 C165.921448,237.661485 160.870709,238.665153 155.411575,238.665153 C149.9465,238.665153 144.900216,237.661485 140.262328,235.652664 C135.625925,233.643843 131.62959,230.785764 128.283716,227.076943 C124.933388,223.368122 122.334507,218.939214 120.478164,213.788734 C118.624791,208.638253 117.696619,202.868646 117.696619,196.481397 C117.696619,190.198079 118.624791,184.455197 120.478164,179.251266 C122.334507,174.05179 124.933388,169.593188 128.283716,165.884367 C131.62959,162.177031 135.625925,159.318952 140.262328,157.308646 C144.900216,155.30131 149.9465,154.296157 155.411575,154.296157 C160.870709,154.296157 165.921448,155.30131 170.554881,157.308646 C175.192769,159.318952 179.184649,162.177031 182.534978,165.884367 C185.885306,169.593188 188.488642,174.05179 190.34053,179.251266 C192.196873,184.455197 193.122075,190.198079 193.122075,196.481397 L193.122075,196.481397 Z" id="Fill-9" fill="#2AE095"></path>
            <path d="M236.691194,116.747686 C240.914746,116.747686 244.548724,117.055022 247.590157,117.672664 C250.628619,118.29179 252.767127,118.858952 254.004194,119.374148 L251.375612,131.735895 C250.138545,131.118253 248.384672,130.525852 246.121418,129.957205 C243.852224,129.394498 241.070679,129.107948 237.775299,129.107948 C231.076127,129.107948 226.387746,130.938603 223.708672,134.593974 C221.028112,138.25083 219.69006,143.169694 219.69006,149.350568 L219.69006,156.304978 L250.603373,156.304978 L250.603373,168.356419 L219.69006,168.356419 L219.69006,236.657817 L205.314537,236.657817 L205.314537,149.041747 C205.314537,138.742271 207.839164,130.784192 212.888418,125.167511 C217.936187,119.555284 225.872425,116.747686 236.691194,116.747686" id="Fill-10" fill="#2AE095"></path>
            <path d="M307.328769,202.816681 L267.761925,233.721048 L264.209627,224.448996 L295.737761,198.797555 C290.485052,194.680437 285.227888,190.45345 279.973694,186.126987 C274.71653,181.802009 269.462336,177.527511 264.209627,173.303493 L267.761925,164.031441 L307.328769,194.935808 L307.328769,202.816681" id="Fill-11" fill="#2AE095"></path>
            <path d="M163.389396,290.272402 C161.325142,298.102795 159.139112,305.879738 156.819425,313.606201 C154.502709,321.332664 152.050851,329.111092 149.477216,336.938515 L131.54791,336.938515 C129.688597,332.612052 127.671866,327.461572 125.503657,321.48559 C123.332478,315.512576 121.084075,308.997642 118.759933,301.939301 C116.435791,294.88393 114.058187,287.412838 111.628604,279.53345 C109.199022,271.652576 106.849634,263.694498 104.575985,255.657729 L128.84359,255.657729 C129.673746,259.368035 130.576672,263.410917 131.562761,267.78786 C132.548851,272.169258 133.585433,276.675371 134.673993,281.310655 C135.764037,285.944454 136.90309,290.607948 138.095604,295.295197 C139.285149,299.98393 140.50291,304.487074 141.750373,308.815022 C143.088425,304.283668 144.401231,299.6469 145.691761,294.907686 C146.979321,290.171441 148.214903,285.507948 149.401478,280.923144 C150.582112,276.34131 151.718194,271.909432 152.802299,267.634934 C153.881948,263.360437 154.835366,259.368035 155.658097,255.657729 L172.351821,255.657729 C173.177522,259.368035 174.102724,263.360437 175.136336,267.634934 C176.165493,271.909432 177.246627,276.34131 178.381224,280.923144 C179.511366,285.507948 180.69794,290.171441 181.933522,294.907686 C183.17356,299.6469 184.461119,304.283668 185.799172,308.815022 C187.042179,304.487074 188.286672,299.98393 189.529679,295.295197 C190.772687,290.607948 191.94144,285.944454 193.031485,281.310655 C194.11559,276.675371 195.153657,272.169258 196.139746,267.78786 C197.125836,263.410917 198.028761,259.368035 198.858918,255.657729 L222.817627,255.657729 C220.543978,263.694498 218.19459,271.652576 215.762037,279.53345 C213.332455,287.412838 210.957821,294.88393 208.633679,301.939301 C206.309537,308.997642 204.035888,315.512576 201.814216,321.48559 C199.59106,327.461572 197.549082,332.612052 195.692739,336.938515 L177.760463,336.938515 C175.186828,329.111092 172.663687,321.332664 170.191037,313.606201 C167.718388,305.879738 165.447709,298.102795 163.389396,290.272402" id="Fill-12" fill="#1F133A"></path>
            <path d="M283.405701,288.10917 C283.300261,286.153799 282.967604,284.244454 282.401791,282.391528 C281.831522,280.537118 280.955328,278.890568 279.773209,277.447424 C278.586634,276.005764 277.092649,274.820961 275.291254,273.893013 C273.485403,272.96655 271.244425,272.501834 268.565351,272.501834 C265.991716,272.501834 263.775985,272.94131 261.919642,273.814323 C260.067754,274.69179 258.518821,275.851354 257.283239,277.293013 C256.046172,278.734672 255.092754,280.409432 254.425955,282.314323 C253.754701,284.222183 253.266112,286.153799 252.957216,288.10917 L283.405701,288.10917 Z M229.307403,296.917991 C229.307403,289.70821 230.412299,283.396681 232.631,277.986376 C234.846731,272.579039 237.754507,268.07441 241.361754,264.46655 C244.970485,260.861659 249.118299,258.132751 253.805194,256.278341 C258.493575,254.422445 263.312642,253.495983 268.25794,253.495983 C279.798455,253.495983 288.916813,257.026638 295.61747,264.080524 C302.313672,271.13738 305.659545,281.517031 305.659545,295.217991 C305.659545,296.557205 305.609052,298.024105 305.508067,299.621659 C305.402627,301.220699 305.301642,302.634148 305.199172,303.869432 L252.957216,303.869432 C253.472537,308.611616 255.683813,312.369432 259.602925,315.150306 C263.519067,317.932664 268.771776,319.322358 275.366993,319.322358 C279.59203,319.322358 283.739843,318.936332 287.810433,318.164279 C291.879537,317.392227 295.203134,316.440524 297.778254,315.306201 L300.870179,334.003231 C299.634597,334.620873 297.984679,335.238515 295.924881,335.856157 C293.862112,336.475284 291.570642,337.017205 289.0475,337.478952 C286.519903,337.942183 283.815582,338.32821 280.933052,338.638515 C278.047552,338.947336 275.160567,339.103231 272.275067,339.103231 C264.958104,339.103231 258.599015,338.020873 253.188888,335.856157 C247.780246,333.69441 243.295321,330.732402 239.741537,326.971616 C236.184784,323.213799 233.559172,318.758166 231.858761,313.606201 C230.158351,308.455721 229.307403,302.892489 229.307403,296.917991 L229.307403,296.917991 Z" id="Fill-13" fill="#1F133A"></path>
            <path d="M371.807739,295.681223 C371.807739,280.847424 366.347119,273.428297 355.427366,273.428297 C353.052731,273.428297 350.710769,273.738603 348.394052,274.356245 C346.072881,274.975371 344.194261,275.747424 342.752254,276.675371 L342.752254,318.550306 C343.882396,318.758166 345.325888,318.936332 347.081246,319.092227 C348.829179,319.246638 350.736015,319.322358 352.798784,319.322358 C359.082134,319.322358 363.823978,317.160611 367.018373,312.834148 C370.208313,308.506201 371.807739,302.790044 371.807739,295.681223 Z M395.301619,296.298865 C395.301619,302.790044 394.348201,308.662096 392.441366,313.913537 C390.53453,319.167948 387.779716,323.650306 384.17544,327.359127 C380.568194,331.066463 376.136731,333.924541 370.884022,335.934847 C365.626858,337.942183 359.650918,338.947336 352.950261,338.947336 C350.170201,338.947336 347.25797,338.816681 344.219507,338.56131 C341.178075,338.302969 338.190104,337.967424 335.254112,337.556157 C332.316634,337.143406 329.511328,336.656419 326.832254,336.089258 C324.151694,335.523581 321.781515,334.931179 319.721716,334.312052 L319.721716,220.737205 L342.752254,217.028384 L342.752254,257.513624 C345.325888,256.380786 348.004963,255.504803 350.789478,254.885677 C353.571022,254.268035 356.558993,253.959214 359.751903,253.959214 C365.521418,253.959214 370.622649,254.964367 375.057082,256.971703 C379.48409,258.982009 383.192321,261.840087 386.183261,265.548908 C389.171231,269.256245 391.437455,273.714847 392.984903,278.914323 C394.529381,284.118253 395.301619,289.9131 395.301619,296.298865 L395.301619,296.298865 Z" id="Fill-14" fill="#1F133A"></path>
        </g>
    </g>
</svg>