<?xml version="1.0" encoding="UTF-8"?>
<svg width="600px" height="400px" viewBox="0 0 600 400" version="1.1" xmlns="http://www.w3.org/2000/svg" xmlns:xlink="http://www.w3.org/1999/xlink">
    <!-- Generator: Sketch 55.2 (78181) - https://sketchapp.com -->
    <title>vistex</title>
    <desc>Created with Sketch.</desc>
    <g id="Page-1" stroke="none" stroke-width="1" fill="none" fill-rule="evenodd">
        <g id="vistex" fill-rule="nonzero">
            <rect id="Rectangle" fill="#FFFFFF" x="0" y="0" width="600" height="400"></rect>
            <g id="vistex-logo-svg-(1)" transform="translate(50.000000, 45.000000)" fill="#003056">
                <polygon id="Path" points="288.927336 0.778991597 246.626297 116.848739 205.190312 0.692436975 133.737024 0.692436975 133.737024 58.9436975 186.591696 58.9436975 221.799308 153.028571 272.318339 153.028571 308.044983 58.9436975 366.522491 0.865546218"></polygon>
                <path d="M446.712803,238.02521 L439.186851,224.176471 L407.871972,224.176471 L435.207612,261.914285 L403.287197,305.364706 L435.034602,305.364706 L447.058823,284.937815 C448.875432,281.994958 450,278.878992 451.038062,275.243698 C451.816609,278.705882 453.200692,281.821849 455.017301,284.937815 L467.214533,305.364706 L499.480969,305.364706 L467.041522,261.914285 L494.809688,224.176471 L462.370242,224.176471 L454.584775,238.02521 C453.633218,239.669748 451.98962,242.612605 450.605537,247.719328 C449.567474,243.305042 448.096886,240.362185 446.712803,238.02521 Z M376.730104,254.297479 L343.771626,254.297479 C345.415225,244.084033 351.211072,238.977311 360.380623,238.977311 C368.944637,238.977311 375.692042,244.94958 376.730104,254.297479 Z M404.844291,270.483193 C404.844291,269.963866 404.844291,269.617647 404.844291,269.184874 C404.844291,239.323529 387.716263,221.579832 361.33218,221.579832 C334.342561,221.579832 316.089965,241.227731 316.089965,265.722689 C316.089965,290.304201 333.391004,308.567227 362.975779,308.567227 C382.266436,308.567227 395.588236,301.296639 400.692042,289.092437 L379.152249,280.35042 C376.038062,286.755462 370.069204,290.044538 361.33218,290.044538 C349.826989,290.044538 343.252596,283.120168 343.079585,270.483193 L404.844291,270.483193 L404.844291,270.483193 Z M267.041522,305.364706 L295.155709,305.364706 L295.155709,244.430252 L307.352941,244.430252 L307.352941,224.176471 L295.155709,224.176471 L295.155709,199.941177 L267.041522,199.941177 L267.041522,224.176471 L254.844291,224.176471 L254.844291,244.430252 L267.041522,244.430252 L267.041522,305.364706 Z M175.346021,298.613445 C186.418685,305.364706 198.356402,308.480672 212.370242,308.480672 C233.910035,308.480672 247.318339,296.968907 247.318339,280.610084 C247.318339,267.626891 239.705882,260.702521 224.307958,256.028571 C212.975779,252.566387 205.709343,252.220168 205.709343,246.680672 C205.709343,242.872269 208.99654,240.708403 215.570934,240.708403 C223.183391,240.708403 231.055363,243.218488 238.927336,248.584874 L244.896194,228.85042 C233.737024,223.916807 223.183391,221.406722 212.456747,221.406722 C191.176471,221.406722 179.49827,232.572269 179.49827,247.459664 C179.49827,259.836975 187.197232,267.194117 204.065744,271.694958 C214.792387,274.464706 221.366782,274.464706 221.366782,281.215967 C221.366782,285.457143 217.560554,287.967226 210.380623,287.967226 C200.519031,287.967226 189.792387,283.985714 181.401384,276.628571 L175.346021,298.613445 Z M130.882353,198.815966 C130.882353,207.211764 137.802768,214.828571 146.712803,214.828571 C155.276817,214.828571 162.543253,207.731092 162.543253,198.815966 C162.543253,189.90084 155.449827,182.976471 146.712803,182.976471 C137.975779,182.976471 130.882353,190.247059 130.882353,198.815966 Z M132.352941,305.364706 L160.986159,305.364706 L160.986159,224.176471 L132.352941,224.176471 L132.352941,305.364706 Z M50.1730104,305.364706 L74.567474,305.364706 L123.961938,187.563865 L89.8788929,187.563865 L66.5224913,253.431933 C66.0034602,254.730252 64.532872,260.010084 62.3702422,269.271429 C60.2076125,260.010084 58.9100346,254.816807 58.3910035,253.431933 L34.8615917,187.563865 L0.778546712,187.563865 L50.1730104,305.364706 Z" id="Shape"></path>
                <path d="M378.287197,11.0789916 C378.287197,5.36638656 382.958478,0.692436975 388.66782,0.692436975 C394.377162,0.692436975 399.048443,5.45294117 399.048443,11.1655462 C398.961937,16.8781513 394.290657,21.5521008 388.581315,21.4655462 C382.871972,21.3789916 378.200692,16.705042 378.287197,11.0789916 Z M396.885813,11.0789916 C396.885813,6.49159664 393.252596,2.85630252 388.66782,2.85630252 C384.083045,2.85630252 380.449827,6.49159664 380.449827,11.0789916 C380.449827,15.6663865 384.083045,19.3016807 388.66782,19.3016807 C393.252596,19.3016807 396.885813,15.6663865 396.885813,11.0789916 Z M390.743945,11.0789916 C391.176471,11.5983193 391.695502,12.0310925 392.041522,12.5504202 C392.733564,13.7621848 393.252596,14.9739496 393.944637,16.2722689 C392.906574,16.2722689 392.041522,16.2722689 391.176471,16.2722689 C391.00346,16.2722689 390.83045,16.0991597 390.743945,15.9260504 C390.311419,15.0605042 389.878893,14.194958 389.446367,13.3294118 C388.927336,12.2907563 388.148789,11.9445378 386.937716,12.2042017 C386.937716,13.502521 386.937716,14.8008403 386.937716,16.1857143 C385.986159,16.1857143 385.121107,16.1857143 384.16955,16.1857143 C384.16955,12.6369748 384.16955,9.00168065 384.16955,5.45294117 C384.16955,5.45294117 384.16955,5.36638656 384.256055,5.36638656 C386.245675,5.45294117 388.235294,5.36638656 390.138408,5.5394958 C391.695502,5.71260505 392.387543,6.57815126 392.560554,7.96302521 C392.733564,9.34789917 392.128028,10.3 390.83045,10.992437 C390.743945,11.0789916 390.657439,11.1655462 390.743945,11.0789916 Z M386.937716,10.2134454 C387.370242,10.2134454 387.802768,10.2134454 388.235294,10.2134454 C388.408304,10.2134454 388.581315,10.2134454 388.754325,10.1268908 C389.359862,9.95378155 389.705882,9.60756303 389.705882,8.91512605 C389.705882,8.13613446 389.446367,7.70336135 388.84083,7.61680672 C388.235294,7.5302521 387.629758,7.61680672 386.937716,7.61680672 C386.937716,8.39579832 386.937716,9.26134452 386.937716,10.2134454 Z" id="Shape"></path>
            </g>
        </g>
    </g>
</svg>