<?xml version="1.0" encoding="UTF-8"?>
<svg width="600px" height="400px" viewBox="0 0 600 400" version="1.1" xmlns="http://www.w3.org/2000/svg" xmlns:xlink="http://www.w3.org/1999/xlink">
    <!-- Generator: Sketch 55.1 (78136) - https://sketchapp.com -->
    <title>Artboard</title>
    <desc>Created with Sketch.</desc>
    <g id="Artboard" stroke="none" stroke-width="1" fill="none" fill-rule="evenodd">
        <rect fill="#FFFFFF" x="0" y="0" width="600" height="400"></rect>
        <g id="vistex-logo-svg-(1)" transform="translate(20.000000, 27.000000)" fill="#003056" fill-rule="nonzero">
            <polygon id="Path" points="323.598616 0.872268908 276.221453 130.840336 229.813149 0.77535014 149.785467 0.77535014 149.785467 66.0016807 208.982699 66.0016807 248.415225 171.352381 304.99654 171.352381 345.010381 66.0016807 410.50519 0.969187675"></polygon>
            <path d="M500.318339,266.526611 L491.889273,251.019608 L456.816609,251.019608 L487.432526,293.27619 L451.681661,341.929412 L487.238754,341.929412 L500.705882,319.056583 C502.740484,315.761345 504,312.272269 505.16263,308.201681 C506.034602,312.078431 507.584775,315.567507 509.619377,319.056583 L523.280277,341.929412 L559.418685,341.929412 L523.086505,293.27619 L554.186851,251.019608 L517.854671,251.019608 L509.134948,266.526611 C508.069204,268.368067 506.228374,271.663305 504.678201,277.381513 C503.515571,272.438655 501.868512,269.143417 500.318339,266.526611 Z M421.937716,284.747339 L385.024221,284.747339 C386.865052,273.310924 393.356401,267.592717 403.626298,267.592717 C413.217993,267.592717 420.775087,274.280112 421.937716,284.747339 Z M453.425606,302.871148 C453.425606,302.289636 453.425606,301.901961 453.425606,301.417367 C453.425606,267.980392 434.242215,248.112045 404.692042,248.112045 C374.463668,248.112045 354.020761,270.112605 354.020761,297.540616 C354.020761,325.065546 373.397924,345.515406 406.532872,345.515406 C428.138408,345.515406 443.058824,337.37423 448.775087,323.708683 L424.650519,313.919888 C421.16263,321.091877 414.477509,324.77479 404.692042,324.77479 C391.806228,324.77479 384.442907,317.021289 384.249135,302.871148 L453.425606,302.871148 L453.425606,302.871148 Z M299.086505,341.929412 L330.574394,341.929412 L330.574394,273.698599 L344.235294,273.698599 L344.235294,251.019608 L330.574394,251.019608 L330.574394,223.882353 L299.086505,223.882353 L299.086505,251.019608 L285.425606,251.019608 L285.425606,273.698599 L299.086505,273.698599 L299.086505,341.929412 Z M196.387543,334.369748 C208.788927,341.929412 222.15917,345.418487 237.854671,345.418487 C261.979239,345.418487 276.99654,332.528291 276.99654,314.210644 C276.99654,299.672829 268.470588,291.919328 251.224913,286.685714 C238.532872,282.808964 230.394464,282.421289 230.394464,276.218487 C230.394464,271.954062 234.076125,269.531092 241.439446,269.531092 C249.965398,269.531092 258.782007,272.341737 267.598616,278.3507 L274.283737,256.253221 C261.785467,250.728852 249.965398,247.918207 237.951557,247.918207 C214.117647,247.918207 201.038062,260.420728 201.038062,277.090756 C201.038062,290.95014 209.6609,299.188235 228.553633,304.228011 C240.567474,307.329412 247.930796,307.329412 247.930796,314.889076 C247.930796,319.638095 243.66782,322.448739 235.626298,322.448739 C224.581315,322.448739 212.567474,317.990476 203.16955,309.752381 L196.387543,334.369748 Z M146.588235,222.622409 C146.588235,232.023529 154.3391,240.552381 164.318339,240.552381 C173.910035,240.552381 182.048443,232.605042 182.048443,222.622409 C182.048443,212.639776 174.103806,204.886275 164.318339,204.886275 C154.532872,204.886275 146.588235,213.027451 146.588235,222.622409 Z M148.235294,341.929412 L180.304498,341.929412 L180.304498,251.019608 L148.235294,251.019608 L148.235294,341.929412 Z M56.1937716,341.929412 L83.5155709,341.929412 L138.83737,210.022969 L100.66436,210.022969 L74.5051903,283.778151 C73.9238754,285.231933 72.2768166,291.143978 69.8546713,301.514286 C67.432526,291.143978 65.9792388,285.328852 65.3979239,283.778151 L39.0449827,210.022969 L0.871972318,210.022969 L56.1937716,341.929412 Z" id="Shape"></path>
            <path d="M423.681661,12.4056022 C423.681661,6.00896359 428.913495,0.77535014 435.307958,0.77535014 C441.702422,0.77535014 446.934256,6.10588235 446.934256,12.502521 C446.83737,18.8991597 441.605536,24.1327731 435.211073,24.0358543 C428.816609,23.9389356 423.584775,18.7053221 423.681661,12.4056022 Z M444.512111,12.4056022 C444.512111,7.26890756 440.442907,3.19831933 435.307958,3.19831933 C430.17301,3.19831933 426.103806,7.26890756 426.103806,12.4056022 C426.103806,17.5422969 430.17301,21.6128852 435.307958,21.6128852 C440.442907,21.6128852 444.512111,17.5422969 444.512111,12.4056022 Z M437.633218,12.4056022 C438.117647,12.9871148 438.698962,13.4717087 439.086505,14.0532213 C439.861592,15.410084 440.442907,16.7669468 441.217993,18.2207283 C440.055363,18.2207283 439.086505,18.2207283 438.117647,18.2207283 C437.923875,18.2207283 437.730104,18.0268908 437.633218,17.8330532 C437.148789,16.8638655 436.66436,15.8946779 436.179931,14.9254902 C435.598616,13.762465 434.726644,13.3747899 433.370242,13.6655462 C433.370242,15.1193277 433.370242,16.5731092 433.370242,18.1238095 C432.304498,18.1238095 431.33564,18.1238095 430.269896,18.1238095 C430.269896,14.1501401 430.269896,10.0795518 430.269896,6.10588235 C430.269896,6.10588235 430.269896,6.00896359 430.366782,6.00896359 C432.595156,6.10588235 434.823529,6.00896359 436.955017,6.20280112 C438.698962,6.39663866 439.474048,7.36582633 439.66782,8.91652661 C439.861592,10.4672269 439.183391,11.5333333 437.730104,12.3086835 C437.633218,12.4056022 437.536332,12.502521 437.633218,12.4056022 Z M433.370242,11.4364146 C433.854671,11.4364146 434.3391,11.4364146 434.823529,11.4364146 C435.017301,11.4364146 435.211073,11.4364146 435.404844,11.3394958 C436.083045,11.1456583 436.470588,10.7579832 436.470588,9.98263305 C436.470588,9.11036415 436.179931,8.62577031 435.50173,8.52885154 C434.823529,8.43193277 434.145329,8.52885154 433.370242,8.52885154 C433.370242,9.40112045 433.370242,10.3703081 433.370242,11.4364146 Z" id="Shape"></path>
        </g>
    </g>
</svg>