<?xml version="1.0" encoding="UTF-8"?>
<svg width="600px" height="400px" viewBox="0 0 600 400" version="1.1" xmlns="http://www.w3.org/2000/svg" xmlns:xlink="http://www.w3.org/1999/xlink">
    <!-- Generator: Sketch 54.1 (76490) - https://sketchapp.com -->
    <title>Artboard</title>
    <desc>Created with Sketch.</desc>
    <g id="Artboard" stroke="none" stroke-width="1" fill="none" fill-rule="evenodd">
        <rect fill="#FFFFFF" x="0" y="0" width="600" height="400"></rect>
        <g id="YouGovSignal_logo" transform="translate(10.000000, 153.000000)">
            <rect id="Artboard11" x="0.0458649094" y="0" width="579.044481" height="93.3285714"></rect>
            <g id="Group" transform="translate(337.298188, 0.959184)" fill="#000000">
                <path d="M45.2591104,13.5043469 C40.8513015,8.56646939 34.623229,6.09753061 26.5739374,6.09753061 C19.9302142,6.09753061 15.0905107,7.36461224 12.0567381,9.89685714 C9.02200988,12.4300612 7.5046458,15.8447551 7.5046458,20.141898 C7.5046458,22.3221224 7.8878089,24.1330612 8.65509061,25.5766327 C9.4214168,27.0192449 10.618682,28.2537143 12.2478418,29.2800408 C13.8770016,30.3054082 15.9371005,31.171551 18.4290939,31.876551 C20.9201318,32.5825102 23.9223723,33.3191633 27.4358155,34.0893878 C31.0772982,34.8586531 34.3833937,35.7084898 37.3541021,36.6379388 C40.323855,37.5683469 42.8473806,38.738551 44.9237232,40.1495102 C47.0000659,41.5595102 48.5967381,43.2917959 49.7146952,45.3434898 C50.8326524,47.3951837 51.391631,49.9283878 51.391631,52.9421429 C51.391631,55.9568571 50.8011203,58.5859796 49.6191433,60.8304694 C48.4371664,63.0749592 46.7764745,64.9501633 44.636112,66.4570408 C42.4967051,67.9639184 39.9406919,69.1024694 36.9699835,69.8717347 C34.0002306,70.6419592 30.6941351,71.0265918 27.0526524,71.0265918 C16.4483031,71.0265918 7.47311367,67.6272449 0.126128501,60.8304694 L2.71367381,56.8863061 C5.58883031,59.9000612 9.10227348,62.2893878 13.2540033,64.0523673 C17.4066886,65.8163061 22.0696211,66.6977959 27.2447117,66.6977959 C33.185173,66.6977959 37.8328171,65.6072041 41.1866886,63.4269796 C44.5405601,61.2467551 46.2174959,57.9442857 46.2174959,53.5195714 C46.2174959,51.2750816 45.770313,49.3672653 44.8759473,47.7961224 C43.9815815,46.2249796 42.6562768,44.8629388 40.8990774,43.7080816 C39.1428336,42.5541837 36.9222076,41.5595102 34.2391104,40.7259796 C31.5560132,39.892449 28.4266886,39.0915306 24.8492257,38.3213061 C21.207743,37.5520408 17.9971993,36.7348163 15.2185502,35.8686735 C12.4399012,35.0025306 10.1084349,33.912898 8.22319605,32.5978571 C6.33891269,31.2837755 4.91805601,29.6963265 3.95967051,27.8364694 C3.00128501,25.9775714 2.52257002,23.6362041 2.52257002,20.8152449 C2.52257002,17.7372245 3.11308072,15.0112245 4.29505766,12.6391633 C5.4770346,10.2661429 7.1214827,8.26240816 9.2293575,6.627 C11.3381878,4.99159184 13.8607578,3.75712245 16.7999341,2.92359184 C19.7381549,2.09006122 22.9964745,1.67281633 26.5739374,1.67281633 C30.9817463,1.67281633 34.9098847,2.32985714 38.3602636,3.64489796 C41.809687,4.95993878 44.9399671,6.96367347 47.7501483,9.65706122 L45.2591104,13.5043469 L45.2591104,13.5043469 Z" id="Path"></path>
                <path d="M58.3869852,70.4491633 L58.3869852,20.4296531 L63.1779572,20.4296531 L63.1779572,70.4491633 L58.3869852,70.4491633 Z M58.3869852,9.07963265 L58.3869852,0.230204082 L63.1779572,0.230204082 L63.1779572,9.07963265 L58.3869852,9.07963265 Z" id="Shape"></path>
                <path d="M94.51229,71.2184286 C91.0628666,71.2184286 87.9000988,70.4971224 85.0258979,69.0545102 C82.1507414,67.611898 79.6759473,65.6877755 77.5996046,63.283102 C75.5232619,60.8784286 73.8941021,58.1370816 72.7121252,55.0590612 C71.5301483,51.9810408 70.9396376,48.8061429 70.9396376,45.5362857 C70.9396376,42.1369388 71.4986161,38.8670816 72.6165733,35.7247959 C73.7345305,32.5825102 75.3159143,29.808551 77.3597694,27.4038776 C79.4036244,24.9992041 81.8478418,23.0913878 84.6905107,21.6804286 C87.5331796,20.2694694 90.6787479,19.5644694 94.1291269,19.5644694 C98.472916,19.5644694 102.257727,20.7030204 105.483558,22.9791633 C108.70939,25.2553061 111.441219,28.0292653 113.677133,31.3000816 L113.677133,20.4296531 L118.084942,20.4296531 L118.084942,71.4112245 C118.084942,74.8096122 117.4457,77.7917143 116.168171,80.3565714 C114.890643,82.9214286 113.181219,85.0536939 111.041812,86.7533673 C108.90145,88.4530408 106.410412,89.7354694 103.567743,90.6006531 C100.725074,91.4667959 97.7381219,91.8993878 94.6078418,91.8993878 C91.7336409,91.8993878 89.1460956,91.6269796 86.8461614,91.0821633 C84.5462273,90.5373469 82.5186161,89.7671224 80.7614168,88.7734082 C79.005173,87.7796939 77.4400329,86.5605714 76.0659967,85.1179592 C74.692916,83.6753469 73.4946952,82.087898 72.4732455,80.3565714 L75.7306096,78.1446939 C77.7114003,81.5430816 80.3944975,84.0283265 83.7799012,85.5994694 C87.1653048,87.1706122 90.7752554,87.9561837 94.6078418,87.9561837 C97.1628995,87.9561837 99.5746293,87.6032041 101.842076,86.8972449 C104.110478,86.1922449 106.090313,85.1505714 107.783493,83.7712653 C109.476672,82.3929184 110.818221,80.6769388 111.808138,78.6252449 C112.798056,76.573551 113.293015,74.1688776 113.293015,71.4112245 L113.293015,60.4448776 C111.24916,63.7156939 108.53453,66.3285102 105.148171,68.2852449 C101.762768,70.2410204 98.2168369,71.2184286 94.51229,71.2184286 L94.51229,71.2184286 Z M95.6617792,67.0824286 C97.769654,67.0824286 99.8307084,66.6814898 101.842076,65.8796122 C103.854399,65.0786939 105.675618,64.0360612 107.304778,62.7536327 C108.932982,61.4712041 110.27453,60.0285918 111.329423,58.4257959 C112.383361,56.8220408 113.037891,55.2192449 113.293015,53.6154898 L113.293015,37.1674082 C112.526689,35.2432857 111.504283,33.464 110.226755,31.8285918 C108.949226,30.1931837 107.495881,28.7985306 105.866722,27.6446327 C104.238517,26.4897755 102.481318,25.5766327 100.597035,24.9032857 C98.7127512,24.2299388 96.8122241,23.8932653 94.895453,23.8932653 C91.8932125,23.8932653 89.2101153,24.534 86.8461614,25.8164286 C84.4822076,27.0988571 82.4861285,28.7668776 80.8569687,30.8185714 C79.2287644,32.8702653 77.9827677,35.1953265 77.1199341,37.7927959 C76.258056,40.3893061 75.8261614,43.0030816 75.8261614,45.6322041 C75.8261614,48.5174286 76.3373641,51.2434286 77.3597694,53.8082857 C78.3821746,56.3731429 79.787743,58.6502449 81.5755189,60.6376735 C83.3642504,62.6260612 85.4730807,64.1972041 87.9000988,65.351102 C90.3280725,66.505 92.9146623,67.0824286 95.6617792,67.0824286 L95.6617792,67.0824286 Z" id="Shape"></path>
                <path d="M167.049555,70.4491633 L162.258583,70.4491633 L162.258583,42.5541837 C162.258583,36.0768163 161.348929,31.3633878 159.52771,28.413898 C157.707446,25.4644082 154.817002,23.9891837 150.856376,23.9891837 C148.747545,23.9891837 146.655914,24.3738163 144.579572,25.1430816 C142.503229,25.9133061 140.57117,27.0029388 138.782438,28.413898 C136.993707,29.8248571 135.428567,31.4756122 134.087018,33.3680816 C132.74547,35.2595918 131.755552,37.2959388 131.11631,39.4761633 L131.11631,70.4491633 L126.325338,70.4491633 L126.325338,20.4296531 L130.828699,20.4296531 L130.828699,32.3580612 C131.851104,30.4339388 133.112389,28.6863061 134.613509,27.1151633 C136.115585,25.5440204 137.807809,24.1973265 139.692092,23.0750816 C141.577331,21.9528367 143.57341,21.0876531 145.681285,20.4785714 C147.78916,19.8685306 149.96201,19.5644694 152.197924,19.5644694 C157.627183,19.5644694 161.460725,21.4722857 163.696639,25.2879184 C165.931598,29.103551 167.049555,34.5699388 167.049555,41.6880408 L167.049555,70.4491633 L167.049555,70.4491633 Z" id="Path"></path>
                <path d="M189.951433,71.4112245 C187.651499,71.4112245 185.512092,71.0102857 183.531301,70.2084082 C181.551466,69.4074898 179.810511,68.316898 178.30939,66.938551 C176.80827,65.5592449 175.642537,63.9238367 174.811236,62.0323265 C173.98089,60.1408163 173.566194,58.1044694 173.566194,55.9242449 C173.566194,53.7440204 174.077397,51.7565918 175.098847,49.961 C176.121252,48.1654082 177.543064,46.6096122 179.363328,45.2955306 C181.183591,43.9804898 183.37173,42.9551224 185.926787,42.2175102 C188.482801,41.479898 191.292982,41.1106122 194.359242,41.1106122 C197.042339,41.1106122 199.74168,41.3513673 202.45631,41.8328776 C205.171895,42.3134286 207.615157,42.9704694 209.787051,43.804 L209.787051,38.8987347 C209.787051,34.1536531 208.445502,30.3859796 205.762405,27.5966735 C203.079308,24.8064082 199.437825,23.4117551 194.838913,23.4117551 C192.410939,23.4117551 189.839638,23.9249184 187.125008,24.9512449 C184.410379,25.9775714 181.647018,27.4518367 178.835881,29.3759592 L177.015618,26.1051429 C183.404217,21.7446939 189.472718,19.5644694 195.222076,19.5644694 C201.226557,19.5644694 205.954465,21.312102 209.403888,24.8064082 C212.853311,28.3016735 214.578023,33.1273265 214.578023,39.2833673 L214.578023,63.7156939 C214.578023,65.3184898 215.281285,66.1203673 216.685898,66.1203673 L216.685898,70.4491633 C216.366755,70.5134286 216.031367,70.5613878 215.679736,70.5930408 C215.329061,70.6256531 215.025206,70.6419592 214.770082,70.6419592 C213.492554,70.6419592 212.470148,70.2084082 211.703822,69.3432245 C210.93654,68.4770816 210.489357,67.4354082 210.362273,66.2162857 L210.362273,62.0802857 C208.062339,65.095 205.123163,67.4027959 201.546656,69.006551 C197.969193,70.6093469 194.104119,71.4112245 189.951433,71.4112245 L189.951433,71.4112245 Z M190.909819,67.5629796 C194.615321,67.5629796 198.016969,66.8579796 201.114761,65.4470204 C204.213509,64.0360612 206.592751,62.1771633 208.253443,59.8684082 C209.275848,58.5217143 209.787051,57.2392857 209.787051,56.0201633 L209.787051,47.1707347 C207.487117,46.2729388 205.091631,45.5995918 202.600593,45.1506939 C200.1086,44.7017959 197.52201,44.4773469 194.838913,44.4773469 C192.346919,44.4773469 190.079473,44.7507143 188.035618,45.2955306 C185.990807,45.8403469 184.234563,46.5942653 182.764975,47.5553673 C181.295387,48.5174286 180.162142,49.6876327 179.363328,51.0669388 C178.564514,52.4452857 178.165107,53.9684694 178.165107,55.6355306 C178.165107,57.303551 178.485206,58.8737347 179.123493,60.3489592 C179.762735,61.8241837 180.6571,63.0903061 181.80659,64.1482857 C182.957035,65.2062653 184.313871,66.0407551 185.879012,66.6498367 C187.444152,67.2589184 189.121087,67.5629796 190.909819,67.5629796 Z" id="Shape"></path>
                <path d="M224.735189,0.230204082 L229.622669,0.230204082 L229.622669,60.5417551 C229.622669,62.4016122 230.14916,63.8758776 231.203097,64.9664694 C232.257035,66.056102 233.710379,66.6018776 235.56313,66.6018776 C236.266392,66.6018776 237.112026,66.5213061 238.1029,66.3611224 C239.092817,66.2009388 240.003427,65.9601837 240.833773,65.6398163 L241.792158,69.487102 C240.705733,69.936 239.364185,70.3052857 237.767512,70.5930408 C236.169885,70.8817551 234.796804,71.0265918 233.647315,71.0265918 C230.964217,71.0265918 228.807611,70.2084082 227.178451,68.573 C225.550247,66.938551 224.735189,64.7420204 224.735189,61.9843673 L224.735189,0.230204082 L224.735189,0.230204082 Z" id="Path"></path>
            </g>
            <path d="M25.543888,71.0697551 L25.543888,41.6611837 L0.0458649094,1.18938776 L16.5209226,1.18938776 L32.9032949,28.836898 L48.9521911,1.18938776 L65.1434596,1.18938776 L39.5508402,41.7532653 L39.5508402,71.0697551 L25.543888,71.0697551 L25.543888,71.0697551 Z M65.6976606,45.7578571 C65.6976606,50.7791837 66.8863262,54.6226327 69.2598353,57.2949184 C71.6352554,59.9624082 74.5620099,61.298551 78.0439209,61.298551 C81.525832,61.298551 84.4468534,59.9624082 86.8050741,57.2949184 C89.1632949,54.6226327 90.3414498,50.7475306 90.3414498,45.6619388 C90.3414498,40.7029592 89.1632949,36.8921224 86.8050741,34.2227143 C84.4468534,31.5523469 81.525832,30.2200408 78.0439209,30.2200408 C74.5620099,30.2200408 71.6352554,31.5523469 69.2598353,34.2227143 C66.8863262,36.8921224 65.6976606,40.7365306 65.6976606,45.7578571 Z M52.021318,45.0432653 C52.021318,40.5955306 53.1153871,36.2916735 55.2997035,32.1249796 C57.4840198,27.965 60.5760791,24.7862653 64.58257,22.5916531 C68.5852389,20.3999184 73.0570675,19.3026122 77.9951895,19.3026122 C85.6240527,19.3026122 91.8769687,21.7888163 96.7529819,26.7612245 C101.62804,31.7365102 104.066524,38.0172449 104.066524,45.6168571 C104.066524,53.2730612 101.603196,59.6190204 96.6803624,64.6576122 C91.7584843,69.6962041 85.561944,72.2140612 78.0907414,72.2140612 C73.4688962,72.2140612 69.0610873,71.1656735 64.8673147,69.0669796 C60.671631,66.9692449 57.4840198,63.8950612 55.2997035,59.8434694 C53.1153871,55.7909184 52.021318,50.8607143 52.021318,45.0432653 Z M141.867809,71.0697551 L141.867809,63.4912449 C140.032257,66.1932653 137.617661,68.3216939 134.626886,69.8765306 C131.704909,71.4160204 128.454234,72.217898 125.154827,72.2140612 C121.765601,72.2140612 118.726096,71.4668571 116.03631,69.972449 C113.345568,68.4818776 111.399176,66.3812653 110.196178,63.6792449 C108.992224,60.9781837 108.392158,57.246 108.392158,52.4807755 L108.392158,20.4469184 L121.734069,20.4469184 L121.734069,43.7090408 C121.734069,50.828102 121.977727,55.1875918 122.470774,56.7961429 C122.961911,58.3960612 123.854366,59.6679388 125.154827,60.6079388 C126.450511,61.5431429 128.09687,62.0131429 130.091993,62.0131429 C132.371862,62.0131429 134.41285,61.3848776 136.21687,60.1312245 C138.02089,58.8737347 139.256376,57.3179388 139.921417,55.4580816 C140.585502,53.5972653 140.918979,49.0478571 140.918979,41.8021837 L140.918979,20.4469184 L154.26089,20.4469184 L154.26089,71.0697551 L141.867809,71.0697551 L141.867809,71.0697551 Z" id="Shape" fill="#E8342D"></path>
            <path d="M194.723295,45.3780204 L194.723295,33.6059592 L225.018023,33.6059592 L225.018023,61.439551 C222.074069,64.3017551 217.808633,66.8186531 212.221713,68.9940816 C206.634794,71.1714286 200.9743,72.2610612 195.245008,72.2610612 C187.96682,72.2610612 181.618353,70.7273265 176.205338,67.6598571 C170.791367,64.5933469 166.722768,60.2108367 164.002405,54.5075306 C161.278221,48.8032653 159.918517,42.5944694 159.918517,35.8907347 C159.918517,28.6143673 161.437792,22.1494694 164.476343,16.4922041 C167.513937,10.8349388 171.962834,6.49846939 177.820165,3.47991837 C182.284349,1.15965306 187.838781,1.24344979e-14 194.485371,1.24344979e-14 C203.127084,1.24344979e-14 209.877825,1.81765306 214.737595,5.45583673 C219.597364,9.09402041 222.722867,14.1249388 224.116013,20.5428367 L210.155881,23.1662041 C209.173608,19.7332857 207.330412,17.024551 204.624382,15.0409592 C201.917397,13.0496939 198.538682,12.057898 194.485371,12.057898 C188.345206,12.057898 183.461549,14.0136735 179.837265,17.9242653 C176.211071,21.8300612 174.402273,27.6302449 174.402273,35.3200204 C174.402273,43.616 176.235914,49.8343878 179.907018,53.9790204 C183.5829,58.1255714 188.392026,60.1993265 194.342998,60.1993265 C197.286952,60.1993265 200.237595,59.6190204 203.199703,58.4603265 C206.159901,57.3025918 208.698715,55.8964286 210.820923,54.2427959 L210.820923,45.3780204 L194.723295,45.3780204 L194.723295,45.3780204 Z M242.639703,45.7578571 C242.639703,50.7791837 243.828369,54.6226327 246.201878,57.2949184 C248.575387,59.9624082 251.504053,61.298551 254.986919,61.298551 C258.466919,61.298551 261.387941,59.9624082 263.748072,57.2949184 C266.103427,54.6226327 267.286359,50.7475306 267.286359,45.6619388 C267.286359,40.7029592 266.103427,36.8921224 263.748072,34.2227143 C261.387941,31.5523469 258.466919,30.2200408 254.986919,30.2200408 C251.504053,30.2200408 248.575387,31.5523469 246.201878,34.2227143 C243.828369,36.8921224 242.639703,40.7365306 242.639703,45.7578571 L242.639703,45.7578571 Z M228.966227,45.0432653 C228.966227,40.5955306 230.055519,36.2916735 232.239835,32.1249796 C234.424152,27.965 237.519077,24.7862653 241.525568,22.5916531 C245.530148,20.3999184 250.000066,19.3026122 254.938188,19.3026122 C262.567051,19.3026122 268.819967,21.7888163 273.69598,26.7612245 C278.569127,31.7365102 281.006656,38.0172449 281.006656,45.6168571 C281.006656,53.2730612 278.546194,59.6190204 273.625272,64.6576122 C268.701483,69.6962041 262.504942,72.2140612 255.03374,72.2140612 C250.410939,72.2140612 246.00313,71.1656735 241.810313,69.0669796 C237.614629,66.9692449 234.424152,63.8950612 232.239835,59.8434694 C230.055519,55.7909184 228.966227,50.8607143 228.966227,45.0432653 Z M299.483526,71.0697551 L279.159638,20.4469184 L293.168501,20.4469184 L302.666359,46.2834898 L305.419209,54.9084694 C306.146359,52.7176939 306.605964,51.2741224 306.795157,50.572 C307.243295,49.1332245 307.719143,47.7040408 308.221746,46.2834898 L317.813245,20.4469184 L331.537364,20.4469184 L311.497265,71.0697551 L299.483526,71.0697551 L299.483526,71.0697551 Z" id="Shape" fill="#A7A9AC"></path>
        </g>
    </g>
</svg>