<?xml version="1.0" encoding="UTF-8"?>
<svg width="100px" height="100px" viewBox="0 0 100 100" version="1.1" xmlns="http://www.w3.org/2000/svg" xmlns:xlink="http://www.w3.org/1999/xlink">
    <!-- Generator: Sketch 56.3 (81716) - https://sketch.com -->
    <title>Artboard</title>
    <desc>Created with Sketch.</desc>
    <g id="Artboard" stroke="none" stroke-width="1" fill="none" fill-rule="evenodd">
        <g id="next-js" transform="translate(10.000000, 26.000000)" fill="#000000" fill-rule="nonzero">
            <path d="M18.9145946,12.7 L33.9713514,12.7 L33.9713514,13.8994595 L20.2951351,13.8994595 L20.2951351,22.9259459 L33.1556757,22.9259459 L33.1556757,24.1254054 L20.2951351,24.1254054 L20.2951351,34.0356757 L34.1281081,34.0356757 L34.1281081,35.2351351 L18.9145946,35.2351351 L18.9145946,12.7 Z M35.32,12.7 L36.92,12.7 L44.0091892,22.6102703 L51.2551351,12.7 L61.1108108,0.111891892 L44.9189189,23.6518919 L53.2627027,35.2351351 L51.6,35.2351351 L44.0091892,24.6935135 L36.387027,35.2351351 L34.7556757,35.2351351 L43.1621622,23.6518919 L35.3205405,12.7 L35.32,12.7 Z M53.8589189,13.8994595 L53.8589189,12.7 L71.0167568,12.7 L71.0167568,13.8994595 L63.1124324,13.8994595 L63.1124324,35.2345946 L61.7318919,35.2345946 L61.7318919,13.8994595 L53.8594595,13.8994595 L53.8589189,13.8994595 Z M0.0783783784,12.7 L1.80378378,12.7 L25.5935135,48.3772973 L15.7621622,35.2351351 L1.52108108,14.4043243 L1.45837838,35.2351351 L0.0783783784,35.2351351 L0.0783783784,12.7 Z M70.8783784,33.6735135 C70.5956757,33.6735135 70.3843243,33.4545946 70.3843243,33.1718919 C70.3843243,32.8886486 70.5956757,32.6697297 70.8778378,32.6697297 C71.1632432,32.6697297 71.3713514,32.8886486 71.3713514,33.1718919 C71.3713514,33.4545946 71.1632432,33.6735135 70.8778378,33.6735135 L70.8783784,33.6735135 Z M72.2340541,32.352973 L72.972973,32.352973 C72.9832432,32.7540541 73.2756757,33.0232432 73.7048649,33.0232432 C74.1848649,33.0232432 74.4567568,32.7340541 74.4567568,32.1913514 L74.4567568,28.7556757 L75.2086486,28.7556757 L75.2086486,32.1945946 C75.2086486,33.1718919 74.6448649,33.7345946 73.7113514,33.7345946 C72.8356757,33.7345946 72.2345946,33.1886486 72.2345946,32.352973 L72.2340541,32.352973 Z M76.1918919,32.3097297 L76.9372973,32.3097297 C77.0010811,32.7708108 77.4508108,33.0637838 78.0989189,33.0637838 C78.7027027,33.0637838 79.1459459,32.7502703 79.1459459,32.3194595 C79.1459459,31.9491892 78.8643243,31.7264865 78.2227027,31.5751351 L77.5983784,31.4237838 C76.7227027,31.2183784 76.3227027,30.7935135 76.3227027,30.0794595 C76.3227027,29.2135135 77.0275676,28.6372973 78.0848649,28.6372973 C79.0686486,28.6372973 79.7875676,29.2135135 79.8308108,30.0318919 L79.0989189,30.0318919 C79.0286486,29.5843243 78.6394595,29.3043243 78.0751351,29.3043243 C77.4805405,29.3043243 77.0848649,29.5908108 77.0848649,30.0286486 C77.0848649,30.3756757 77.34,30.5745946 77.9713514,30.7227027 L78.5048649,30.8540541 C79.4983784,31.0864865 79.9081081,31.4908108 79.9081081,32.2216216 C79.9081081,33.1513514 79.1891892,33.7345946 78.0416216,33.7345946 C76.9675676,33.7345946 76.2454054,33.1783784 76.1918919,32.3091892 L76.1918919,32.3097297 Z" id="Shape"></path>
        </g>
    </g>
</svg>