<?xml version="1.0" encoding="UTF-8"?>
<svg width="100px" height="100px" viewBox="0 0 100 100" version="1.1" xmlns="http://www.w3.org/2000/svg" xmlns:xlink="http://www.w3.org/1999/xlink">
    <!-- Generator: Sketch 56.3 (81716) - https://sketch.com -->
    <title>Artboard</title>
    <desc>Created with Sketch.</desc>
    <g id="Artboard" stroke="none" stroke-width="1" fill="none" fill-rule="evenodd">
        <g id="pusher_full-logo_2colours_white_padding" transform="translate(24.000000, 10.000000)" fill="#000000" fill-rule="nonzero">
            <path d="M25.8128759,79.5462614 L25.8128759,59.6202249 C25.8123183,59.577471 25.8354699,59.5379203 25.8730224,59.5174746 L51.4803977,44.7314584 C51.5179501,44.7110127 51.5411017,44.671462 51.540554,44.6287081 L51.540554,38.9624059 C51.5410807,38.9198014 51.5185665,38.8802285 51.4816688,38.8589214 C51.4447711,38.8376142 51.3992429,38.837895 51.3626108,38.8596556 L25.9857971,53.5078362 C25.949165,53.5295968 25.9036367,53.5298776 25.866739,53.5085704 C25.8298413,53.4872633 25.8073271,53.4476904 25.8078637,53.4050859 L25.8078637,47.7362776 C25.8078526,47.6936699 25.8308528,47.6543779 25.8680102,47.6335273 L51.4753855,32.8475111 C51.5129379,32.8270654 51.5360895,32.7875147 51.535532,32.7447608 L51.535532,27.0784586 C51.5345496,27.0365017 51.5117712,26.9980901 51.4754274,26.9771027 C51.4390835,26.9561154 51.3944289,26.955587 51.3575986,26.9757083 L25.9857971,41.6238889 C25.949165,41.6456495 25.9036367,41.6459303 25.866739,41.6246231 C25.8298413,41.603316 25.8073271,41.5637431 25.8078637,41.5211386 L25.8078637,35.8548364 C25.8079896,35.8116103 25.8308332,35.771634 25.8680102,35.74958 L51.4753855,20.9635637 C51.5125428,20.9427132 51.535543,20.9034212 51.535532,20.8608135 L51.535532,15.1268465 C51.533161,15.0429435 51.4889439,14.9657987 51.4177451,14.9213459 L25.9256506,0.205500565 C25.852905,0.162895488 25.7628223,0.162895488 25.6900767,0.205500565 L20.8407646,3.00732534 C20.8035862,3.02816179 20.7805636,3.06745651 20.7805636,3.11007563 C20.7805636,3.15269474 20.8035862,3.19198947 20.8407646,3.21282591 L46.2125661,17.8585003 C46.248423,17.8803293 46.2703068,17.9192718 46.2703068,17.9612506 C46.2703068,18.0032294 46.248423,18.0421719 46.2125661,18.0640009 L41.363254,20.8633196 C41.2889602,20.903422 41.1994679,20.903422 41.1251741,20.8633196 L15.6355857,6.14496812 C15.5612919,6.1048657 15.4717996,6.1048657 15.3975058,6.14496812 L10.5481936,8.94428679 C10.5124081,8.96675218 10.4906856,9.00603737 10.4906856,9.04829013 C10.4906856,9.09054289 10.5124081,9.12982807 10.5481936,9.15229346 L35.9199951,23.8079923 C35.9570451,23.8295254 35.9798422,23.8691427 35.9798422,23.9119956 C35.9798422,23.9548486 35.9570451,23.9944658 35.9199951,24.015999 L31.0756952,26.8153176 C31.0014014,26.8554201 30.9119091,26.8554201 30.8376153,26.8153176 L5.3455208,12.0869418 C5.26798166,12.0421745 5.17244949,12.0421745 5.09491035,12.0869418 L0.0676648162,14.9890107 L0.0676648162,64.8304161 C0.0676648162,64.8730238 0.0906539697,64.9123158 0.127811327,64.9331664 L5.03476385,67.7675705 C5.07198384,67.7878898 5.11715285,67.7871112 5.1536504,67.7655211 C5.19014795,67.743931 5.21258184,67.7047192 5.21269726,67.6623141 L5.21269726,18.1667512 C5.21216075,18.1241466 5.23467489,18.0845738 5.27157262,18.0632666 C5.30847034,18.0419595 5.35399857,18.0422403 5.39063068,18.0640009 L10.3000893,20.8958989 C10.3352099,20.9184178 10.3568195,20.9569392 10.3577297,20.9986492 L10.3577297,70.7723897 C10.3577186,70.8149974 10.3807189,70.8542895 10.4178762,70.87514 L15.3248287,73.7070381 C15.3618274,73.7284033 15.4073824,73.7285406 15.4445093,73.7073989 C15.4816361,73.6862572 15.5047633,73.6470092 15.5052682,73.6042878 L15.5052682,24.1087248 C15.5047317,24.0661203 15.5272459,24.0265474 15.5641436,24.0052403 C15.6010413,23.9839331 15.6465696,23.9842139 15.6832017,24.0059746 L20.5901542,26.8378726 C20.6273115,26.8587232 20.6503117,26.8980152 20.6503007,26.9406229 L20.6503007,76.7118573 C20.6503717,76.7544601 20.6720837,76.7941082 20.7079411,76.8171137 L25.6173997,79.6490117 C25.6540478,79.6818913 25.70728,79.6885072 25.7508616,79.6655989 C25.7944432,79.6426906 25.819178,79.5950921 25.8128759,79.5462614 Z" id="Path"></path>
        </g>
    </g>
</svg>