<?xml version="1.0" encoding="UTF-8"?>
<svg width="100px" height="100px" viewBox="0 0 100 100" version="1.1" xmlns="http://www.w3.org/2000/svg" xmlns:xlink="http://www.w3.org/1999/xlink">
    <!-- Generator: Sketch 56.3 (81716) - https://sketch.com -->
    <title>Artboard</title>
    <desc>Created with Sketch.</desc>
    <g id="Artboard" stroke="none" stroke-width="1" fill="none" fill-rule="evenodd">
        <g id="Slack_Mark_Monochrome_Black" transform="translate(10.000000, 10.000000)" fill="#000000" fill-rule="nonzero">
            <g id="Group" transform="translate(0.000000, 41.935484)">
                <path d="M17.0322581,8.51612903 C17.0322581,13.0967742 13.2903226,16.8387097 8.70967742,16.8387097 C4.12903226,16.8387097 0.387096774,13.0967742 0.387096774,8.51612903 C0.387096774,3.93548387 4.12903226,0.193548387 8.70967742,0.193548387 L17.0322581,0.193548387 L17.0322581,8.51612903 Z" id="Path"></path>
                <path d="M21.2258065,8.51612903 C21.2258065,3.93548387 24.9677419,0.193548387 29.5483871,0.193548387 C34.1290323,0.193548387 37.8709677,3.93548387 37.8709677,8.51612903 L37.8709677,29.3548387 C37.8709677,33.9354839 34.1290323,37.6774194 29.5483871,37.6774194 C24.9677419,37.6774194 21.2258065,33.9354839 21.2258065,29.3548387 C21.2258065,29.3548387 21.2258065,8.51612903 21.2258065,8.51612903 Z" id="Path"></path>
            </g>
            <g id="Group">
                <path d="M29.5483871,17.0322581 C24.9677419,17.0322581 21.2258065,13.2903226 21.2258065,8.70967742 C21.2258065,4.12903226 24.9677419,0.387096774 29.5483871,0.387096774 C34.1290323,0.387096774 37.8709677,4.12903226 37.8709677,8.70967742 L37.8709677,17.0322581 L29.5483871,17.0322581 Z" id="Path"></path>
                <path d="M29.5483871,21.2258065 C34.1290323,21.2258065 37.8709677,24.9677419 37.8709677,29.5483871 C37.8709677,34.1290323 34.1290323,37.8709677 29.5483871,37.8709677 L8.70967742,37.8709677 C4.12903226,37.8709677 0.387096774,34.1290323 0.387096774,29.5483871 C0.387096774,24.9677419 4.12903226,21.2258065 8.70967742,21.2258065 C8.70967742,21.2258065 29.5483871,21.2258065 29.5483871,21.2258065 Z" id="Path"></path>
            </g>
            <g id="Group" transform="translate(41.935484, 0.000000)">
                <path d="M21.0322581,29.5483871 C21.0322581,24.9677419 24.7741935,21.2258065 29.3548387,21.2258065 C33.9354839,21.2258065 37.6774194,24.9677419 37.6774194,29.5483871 C37.6774194,34.1290323 33.9354839,37.8709677 29.3548387,37.8709677 L21.0322581,37.8709677 L21.0322581,29.5483871 Z" id="Path"></path>
                <path d="M16.8387097,29.5483871 C16.8387097,34.1290323 13.0967742,37.8709677 8.51612903,37.8709677 C3.93548387,37.8709677 0.193548387,34.1290323 0.193548387,29.5483871 L0.193548387,8.70967742 C0.193548387,4.12903226 3.93548387,0.387096774 8.51612903,0.387096774 C13.0967742,0.387096774 16.8387097,4.12903226 16.8387097,8.70967742 L16.8387097,29.5483871 Z" id="Path"></path>
            </g>
            <g id="Group" transform="translate(41.935484, 41.935484)">
                <path d="M8.51612903,21.0322581 C13.0967742,21.0322581 16.8387097,24.7741935 16.8387097,29.3548387 C16.8387097,33.9354839 13.0967742,37.6774194 8.51612903,37.6774194 C3.93548387,37.6774194 0.193548387,33.9354839 0.193548387,29.3548387 L0.193548387,21.0322581 L8.51612903,21.0322581 Z" id="Path"></path>
                <path d="M8.51612903,16.8387097 C3.93548387,16.8387097 0.193548387,13.0967742 0.193548387,8.51612903 C0.193548387,3.93548387 3.93548387,0.193548387 8.51612903,0.193548387 L29.3548387,0.193548387 C33.9354839,0.193548387 37.6774194,3.93548387 37.6774194,8.51612903 C37.6774194,13.0967742 33.9354839,16.8387097 29.3548387,16.8387097 L8.51612903,16.8387097 Z" id="Path"></path>
            </g>
        </g>
    </g>
</svg>