<?xml version="1.0" encoding="UTF-8"?>
<svg width="600px" height="400px" viewBox="0 0 600 400" version="1.1" xmlns="http://www.w3.org/2000/svg" xmlns:xlink="http://www.w3.org/1999/xlink">
    <!-- Generator: Sketch 54.1 (76490) - https://sketchapp.com -->
    <title>Artboard</title>
    <desc>Created with Sketch.</desc>
    <g id="Artboard" stroke="none" stroke-width="1" fill="none" fill-rule="evenodd">
        <rect fill="#FFFFFF" x="0" y="0" width="600" height="400"></rect>
        <g id="thesoftwarehouse-logo" transform="translate(20.000000, 73.000000)" fill-rule="nonzero">
            <g id="Group" transform="translate(184.742268, 28.863636)">
                <g id="a-link" fill="#FFFFFF">
                    <polygon id="a" points="40.0704357 10.5709777 26.589517 10.5709777 26.589517 62.039399 14.1870718 62.039399 14.1870718 10.5709777 0.706153072 10.5709777 0.706153072 0.375328526 40.0704357 0.375328526"></polygon>
                </g>
                <g id="a-link" fill="#2B2B2B">
                    <polygon id="a" points="40.0704357 10.5709777 26.589517 10.5709777 26.589517 62.039399 14.1870718 62.039399 14.1870718 10.5709777 0.706153072 10.5709777 0.706153072 0.375328526 40.0704357 0.375328526"></polygon>
                </g>
            </g>
            <g id="Group" transform="translate(225.154639, 28.863636)">
                <g id="b-link" fill="#FFFFFF">
                    <polygon id="b" points="17.5018988 0.375328526 17.5018988 23.9282584 31.9877588 23.9282584 31.9877588 0.375328526 44.4637367 0.375328526 44.4637367 61.990381 32.0367808 61.990381 32.0367808 34.6385919 17.5018988 34.6385919 17.5018988 61.990381 5.0014108 61.990381 5.0014108 0.375328526"></polygon>
                </g>
                <g id="b-link" fill="#2B2B2B">
                    <polygon id="b" points="17.5018988 0.375328526 17.5018988 23.9282584 31.9877588 23.9282584 31.9877588 0.375328526 44.4637367 0.375328526 44.4637367 61.990381 32.0367808 61.990381 32.0367808 34.6385919 17.5018988 34.6385919 17.5018988 61.990381 5.0014108 61.990381 5.0014108 0.375328526"></polygon>
                </g>
            </g>
            <g id="Group" transform="translate(277.113402, 28.863636)">
                <g id="c-link" fill="#FFFFFF">
                    <polygon id="c" points="35.447828 10.5709777 13.3881423 10.5709777 13.3881423 25.0556619 34.173268 25.0556619 34.173268 35.2513109 13.4616749 35.2513109 13.4616749 51.7947321 36.3302153 51.7947321 36.3302153 61.990381 1.03471893 61.990381 1.03471893 0.375328526 35.3497847 0.375328526"></polygon>
                </g>
                <g id="c-link" fill="#2B2B2B">
                    <polygon id="c" points="35.447828 10.5709777 13.3881423 10.5709777 13.3881423 25.0556619 34.173268 25.0556619 34.173268 35.2513109 13.4616749 35.2513109 13.4616749 51.7947321 36.3302153 51.7947321 36.3302153 61.990381 1.03471893 61.990381 1.03471893 0.375328526 35.3497847 0.375328526"></polygon>
                </g>
            </g>
            <g id="Group" transform="translate(184.742268, 103.909091)">
                <g id="d-link" fill="#FFFFFF">
                    <path d="M13.9909857,49.1481895 C13.9788857,50.464466 14.1020863,51.7785021 14.3586471,53.0695933 C14.5406529,54.1531591 14.9774996,55.1779867 15.6332065,56.0596634 C16.2799205,56.8834039 17.1225525,57.5321782 18.0842826,57.946839 C19.3637758,58.4458786 20.7314436,58.679364 22.1040475,58.6330846 C23.9744966,58.640745 25.7879936,57.9900213 27.226797,56.7949265 C28.8512289,55.3499418 29.7041164,53.2269688 29.5308085,51.0598738 C29.5548746,49.8432403 29.3640324,48.6319051 28.9670611,47.4815933 C28.5600837,46.4454575 27.9231322,45.5152483 27.1042431,44.7611194 C26.0931873,43.849275 24.9430535,43.1046446 23.6972475,42.5553303 C22.0718394,41.7798238 20.4022248,41.1005753 18.697052,40.521102 C16.1566102,39.7497306 13.6946233,38.7403981 11.3438236,37.5065232 C9.51507489,36.4934107 7.86012652,35.194382 6.44167134,33.6586461 C5.09455151,32.2042963 4.0822447,30.4726398 3.4758692,28.5853303 C2.80472421,26.4197592 2.48205913,24.1612893 2.5199492,21.8944352 C2.5199492,15.7999211 4.21119192,11.2576287 7.59367678,8.26755799 C11.5426415,5.0914248 16.5296643,3.493262 21.5893215,3.78245312 C24.1586517,3.7565382 26.7206373,4.06131568 29.2121685,4.68927757 C31.4138911,5.22211185 33.4774212,6.21620088 35.2663268,7.6058216 C36.9799574,8.99167216 38.3407239,10.7638844 39.2370703,12.7771721 C40.2309981,15.1671078 40.7151937,17.7381466 40.6586944,20.3258737 L40.6586944,22.0659966 L28.6729318,22.0659966 C28.8206702,19.7095249 28.2844471,17.360549 27.1287537,15.3015759 C25.9602219,13.6135145 23.9784241,12.67878 21.9324722,12.8506988 C20.7606878,12.8136136 19.5934919,13.0136877 18.5009659,13.4389091 C17.6551148,13.7971663 16.9010517,14.3417232 16.2949972,15.0319792 C15.7376644,15.6969887 15.3506825,16.4877132 15.1675024,17.3358036 C14.9689813,18.2123421 14.8703099,19.1085308 14.8733731,20.0072602 C14.8143595,21.6817702 15.2307657,23.3387611 16.0744005,24.7864705 C17.3638126,26.4822126 19.1306675,27.7539034 21.1481281,28.4382776 L30.9524326,32.5802602 C32.945274,33.4527057 34.8426694,34.5286307 36.6144188,35.7909091 C37.991968,36.8027533 39.1998984,38.0271309 40.1929897,39.4182075 C41.0699231,40.7136225 41.7013456,42.1591313 42.0558078,43.6827335 C42.4139791,45.3911029 42.5865555,47.1331602 42.5705338,48.8785933 C42.5705338,55.4142656 40.683205,60.1444585 36.9085475,63.0691721 C32.3248402,66.3356248 26.76884,67.9513131 21.1481281,67.6523123 C14.1135397,67.6523123 9.11334416,66.1327689 6.07400998,63.0691721 C2.82125287,59.4602322 1.18333542,54.6796716 1.53951909,49.8344352 L1.53951909,47.383558 L13.9419644,47.383558 L13.9909857,49.1481895 Z" id="d"></path>
                </g>
                <g id="d-link" fill="#2B2B2B">
                    <path d="M13.9909857,49.1481895 C13.9788857,50.464466 14.1020863,51.7785021 14.3586471,53.0695933 C14.5406529,54.1531591 14.9774996,55.1779867 15.6332065,56.0596634 C16.2799205,56.8834039 17.1225525,57.5321782 18.0842826,57.946839 C19.3637758,58.4458786 20.7314436,58.679364 22.1040475,58.6330846 C23.9744966,58.640745 25.7879936,57.9900213 27.226797,56.7949265 C28.8512289,55.3499418 29.7041164,53.2269688 29.5308085,51.0598738 C29.5548746,49.8432403 29.3640324,48.6319051 28.9670611,47.4815933 C28.5600837,46.4454575 27.9231322,45.5152483 27.1042431,44.7611194 C26.0931873,43.849275 24.9430535,43.1046446 23.6972475,42.5553303 C22.0718394,41.7798238 20.4022248,41.1005753 18.697052,40.521102 C16.1566102,39.7497306 13.6946233,38.7403981 11.3438236,37.5065232 C9.51507489,36.4934107 7.86012652,35.194382 6.44167134,33.6586461 C5.09455151,32.2042963 4.0822447,30.4726398 3.4758692,28.5853303 C2.80472421,26.4197592 2.48205913,24.1612893 2.5199492,21.8944352 C2.5199492,15.7999211 4.21119192,11.2576287 7.59367678,8.26755799 C11.5426415,5.0914248 16.5296643,3.493262 21.5893215,3.78245312 C24.1586517,3.7565382 26.7206373,4.06131568 29.2121685,4.68927757 C31.4138911,5.22211185 33.4774212,6.21620088 35.2663268,7.6058216 C36.9799574,8.99167216 38.3407239,10.7638844 39.2370703,12.7771721 C40.2309981,15.1671078 40.7151937,17.7381466 40.6586944,20.3258737 L40.6586944,22.0659966 L28.6729318,22.0659966 C28.8206702,19.7095249 28.2844471,17.360549 27.1287537,15.3015759 C25.9602219,13.6135145 23.9784241,12.67878 21.9324722,12.8506988 C20.7606878,12.8136136 19.5934919,13.0136877 18.5009659,13.4389091 C17.6551148,13.7971663 16.9010517,14.3417232 16.2949972,15.0319792 C15.7376644,15.6969887 15.3506825,16.4877132 15.1675024,17.3358036 C14.9689813,18.2123421 14.8703099,19.1085308 14.8733731,20.0072602 C14.8143595,21.6817702 15.2307657,23.3387611 16.0744005,24.7864705 C17.3638126,26.4822126 19.1306675,27.7539034 21.1481281,28.4382776 L30.9524326,32.5802602 C32.945274,33.4527057 34.8426694,34.5286307 36.6144188,35.7909091 C37.991968,36.8027533 39.1998984,38.0271309 40.1929897,39.4182075 C41.0699231,40.7136225 41.7013456,42.1591313 42.0558078,43.6827335 C42.4139791,45.3911029 42.5865555,47.1331602 42.5705338,48.8785933 C42.5705338,55.4142656 40.683205,60.1444585 36.9085475,63.0691721 C32.3248402,66.3356248 26.76884,67.9513131 21.1481281,67.6523123 C14.1135397,67.6523123 9.11334416,66.1327689 6.07400998,63.0691721 C2.82125287,59.4602322 1.18333542,54.6796716 1.53951909,49.8344352 L1.53951909,47.383558 L13.9419644,47.383558 L13.9909857,49.1481895 Z" id="d"></path>
                </g>
            </g>
            <g id="Group" transform="translate(230.927835, 103.909091)">
                <g id="e-link" fill="#FFFFFF">
                    <path d="M1.92439843,22.8747863 C2.22998408,19.3525019 3.19445245,15.9189414 4.76764718,12.7526634 C6.19413287,9.97578592 8.40053056,7.67586672 11.1159342,6.13529495 C18.2031291,2.99963725 26.2845104,2.99963725 33.3717053,6.13529495 C36.0871089,7.67586672 38.2935066,9.97578592 39.7199929,12.7526634 C41.2711046,15.927399 42.2343981,19.3567777 42.5632411,22.8747863 C43.4129602,31.4727648 43.4129602,40.1335621 42.5632411,48.7315406 C42.235002,52.234009 41.2715301,55.6474116 39.7199929,58.8046461 C38.3135552,61.5316905 36.1070409,63.7636803 33.3962166,65.2014352 C26.2756809,68.1751812 18.26098,68.1751812 11.1404449,65.2014352 C8.40593196,63.7418692 6.1888452,61.4736059 4.79215786,58.7066107 C3.22211357,55.5896532 2.24944437,52.206368 1.92439843,48.7315406 C1.04194351,40.1352068 1.04194351,31.4711201 1.92439843,22.8747863 L1.92439843,22.8747863 Z M14.0082043,46.3541895 C14.1099863,48.7481845 14.5135171,51.1197641 15.2092311,53.4127162 C15.6059345,54.9535748 16.4605546,56.3379476 17.6603072,57.3831374 C18.9737589,58.2695269 20.5384318,58.7079431 22.1212661,58.6330846 C23.6958342,58.7026218 25.251083,58.2644383 26.5577136,57.3831374 C27.8105687,56.3574877 28.7176227,54.9713473 29.1558544,53.4127162 C29.8398246,51.117011 30.243106,48.746899 30.3568818,46.3541895 C30.5529678,43.4376461 30.6510111,39.9328917 30.6510111,35.7909091 C30.6510111,31.6489265 30.6510111,28.1196634 30.3568818,25.2521374 C30.233937,22.852395 29.8308594,20.47525 29.1558544,18.169102 C28.7236643,16.6009054 27.8159661,15.2052187 26.5577136,14.1741721 C25.251083,13.2928712 23.6958342,12.8546877 22.1212661,12.9242248 C20.5384318,12.8493659 18.9737589,13.2877826 17.6603072,14.1741721 C16.4539431,15.2238508 15.5984692,16.6181595 15.2092311,18.169102 C14.5223593,20.4725016 14.1190387,22.8510782 14.0082043,25.2521374 C13.787607,28.1196634 13.6895643,31.6489265 13.6895643,35.7909091 C13.6895643,39.9328917 13.8121177,43.4376461 14.032715,46.3541895 L14.0082043,46.3541895 Z" id="e"></path>
                </g>
                <g id="e-link" fill="#2B2B2B">
                    <path d="M1.92439843,22.8747863 C2.22998408,19.3525019 3.19445245,15.9189414 4.76764718,12.7526634 C6.19413287,9.97578592 8.40053056,7.67586672 11.1159342,6.13529495 C18.2031291,2.99963725 26.2845104,2.99963725 33.3717053,6.13529495 C36.0871089,7.67586672 38.2935066,9.97578592 39.7199929,12.7526634 C41.2711046,15.927399 42.2343981,19.3567777 42.5632411,22.8747863 C43.4129602,31.4727648 43.4129602,40.1335621 42.5632411,48.7315406 C42.235002,52.234009 41.2715301,55.6474116 39.7199929,58.8046461 C38.3135552,61.5316905 36.1070409,63.7636803 33.3962166,65.2014352 C26.2756809,68.1751812 18.26098,68.1751812 11.1404449,65.2014352 C8.40593196,63.7418692 6.1888452,61.4736059 4.79215786,58.7066107 C3.22211357,55.5896532 2.24944437,52.206368 1.92439843,48.7315406 C1.04194351,40.1352068 1.04194351,31.4711201 1.92439843,22.8747863 L1.92439843,22.8747863 Z M14.0082043,46.3541895 C14.1099863,48.7481845 14.5135171,51.1197641 15.2092311,53.4127162 C15.6059345,54.9535748 16.4605546,56.3379476 17.6603072,57.3831374 C18.9737589,58.2695269 20.5384318,58.7079431 22.1212661,58.6330846 C23.6958342,58.7026218 25.251083,58.2644383 26.5577136,57.3831374 C27.8105687,56.3574877 28.7176227,54.9713473 29.1558544,53.4127162 C29.8398246,51.117011 30.243106,48.746899 30.3568818,46.3541895 C30.5529678,43.4376461 30.6510111,39.9328917 30.6510111,35.7909091 C30.6510111,31.6489265 30.6510111,28.1196634 30.3568818,25.2521374 C30.233937,22.852395 29.8308594,20.47525 29.1558544,18.169102 C28.7236643,16.6009054 27.8159661,15.2052187 26.5577136,14.1741721 C25.251083,13.2928712 23.6958342,12.8546877 22.1212661,12.9242248 C20.5384318,12.8493659 18.9737589,13.2877826 17.6603072,14.1741721 C16.4539431,15.2238508 15.5984692,16.6181595 15.2092311,18.169102 C14.5223593,20.4725016 14.1190387,22.8510782 14.0082043,25.2521374 C13.787607,28.1196634 13.6895643,31.6489265 13.6895643,35.7909091 C13.6895643,39.9328917 13.8121177,43.4376461 14.032715,46.3541895 L14.0082043,46.3541895 Z" id="e"></path>
                </g>
            </g>
            <g id="Group" transform="translate(277.113402, 103.909091)">
                <g id="f-link" fill="#FFFFFF">
                    <polygon id="f" points="38.8058021 4.98338302 38.8058021 15.1545232 16.746117 15.1545232 16.746117 29.6637162 37.4577101 29.6637162 37.4577101 39.8348564 16.746117 39.8348564 16.746117 66.5739265 4.31916107 66.5739265 4.31916107 4.98338302"></polygon>
                </g>
                <g id="f-link" fill="#2B2B2B">
                    <polygon id="f" points="38.8058021 4.98338302 38.8058021 15.1545232 16.746117 15.1545232 16.746117 29.6637162 37.4577101 29.6637162 37.4577101 39.8348564 16.746117 39.8348564 16.746117 66.5739265 4.31916107 66.5739265 4.31916107 4.98338302"></polygon>
                </g>
            </g>
            <g id="Group" transform="translate(317.525773, 103.909091)">
                <g id="g-link" fill="#FFFFFF">
                    <polygon id="g" points="39.9881931 15.1545232 26.5317851 15.1545232 26.5317851 66.6229444 14.1048291 66.6229444 14.1048291 15.1545232 0.623910433 15.1545232 0.623910433 4.98338302 39.9881931 4.98338302"></polygon>
                </g>
                <g id="g-link" fill="#2B2B2B">
                    <polygon id="g" points="39.9881931 15.1545232 26.5317851 15.1545232 26.5317851 66.6229444 14.1048291 66.6229444 14.1048291 15.1545232 0.623910433 15.1545232 0.623910433 4.98338302 39.9881931 4.98338302"></polygon>
                </g>
            </g>
            <g id="Group" transform="translate(357.938144, 103.909091)">
                <g id="h-link" fill="#FFFFFF">
                    <polygon id="h" points="13.2038053 4.98338302 20.0177969 50.4961721 20.1893723 50.4961721 27.5426007 4.93436506 39.4303199 4.93436506 46.4894195 50.4961721 46.6609949 50.4961721 53.4749866 4.93436506 65.3872165 4.93436506 54.1612879 66.5249091 40.2881966 66.5249091 33.3761622 21.8454178 33.2045869 21.8454178 26.3905952 66.5739265 12.5175039 66.5739265 1.29157534 4.98338302"></polygon>
                </g>
                <g id="h-link" fill="#2B2B2B">
                    <polygon id="h" points="13.2038053 4.98338302 20.0177969 50.4961721 20.1893723 50.4961721 27.5426007 4.93436506 39.4303199 4.93436506 46.4894195 50.4961721 46.6609949 50.4961721 53.4749866 4.93436506 65.3872165 4.93436506 54.1612879 66.5249091 40.2881966 66.5249091 33.3761622 21.8454178 33.2045869 21.8454178 26.3905952 66.5739265 12.5175039 66.5739265 1.29157534 4.98338302"></polygon>
                </g>
            </g>
            <g id="Group" transform="translate(421.443299, 103.909091)">
                <g id="i-link" fill="#FFFFFF">
                    <path d="M32.790132,4.98338302 L49.1633208,66.5739265 L36.2216388,66.5739265 L33.3783901,53.5597689 L16.9806906,53.5597689 L14.1374425,66.5739265 L1.12222845,66.5739265 L17.4218846,4.98338302 L32.790132,4.98338302 Z M31.1479113,43.3641194 L25.1917957,15.6692075 L25.0202204,15.6692075 L19.0641054,43.3641194 L31.1479113,43.3641194 Z" id="i"></path>
                </g>
                <g id="i-link" fill="#2B2B2B">
                    <path d="M32.790132,4.98338302 L49.1633208,66.5739265 L36.2216388,66.5739265 L33.3783901,53.5597689 L16.9806906,53.5597689 L14.1374425,66.5739265 L1.12222845,66.5739265 L17.4218846,4.98338302 L32.790132,4.98338302 Z M31.1479113,43.3641194 L25.1917957,15.6692075 L25.0202204,15.6692075 L19.0641054,43.3641194 L31.1479113,43.3641194 Z" id="i"></path>
                </g>
            </g>
            <g id="Group" transform="translate(473.402062, 103.909091)">
                <g id="j-link" fill="#FFFFFF">
                    <path d="M24.4115033,4.98338302 C28.7582862,4.69489963 33.0520591,6.07054747 36.4217759,8.83126019 C39.5246718,12.0048516 41.0984433,16.368137 40.7356701,20.7915406 C40.9018948,24.3303789 40.0513547,27.8428231 38.284594,30.9136634 C36.5177201,33.6120769 33.6983424,35.4440796 30.5146823,35.9624705 L30.5146823,36.1340319 C33.068239,36.3417947 35.4773174,37.403775 37.3531852,39.1486107 C39.0116553,41.3140109 39.9463842,43.9464733 40.0248581,46.6728036 C40.0248581,47.8247162 40.2209441,49.1236808 40.2699654,50.4226461 C40.3189874,51.7216107 40.3925194,53.2901721 40.4415408,54.9567689 C40.572265,58.2246047 40.7438403,60.7244999 40.9562668,62.4564531 C41.1421903,63.9109068 41.9695216,65.2057543 43.2112569,65.9857162 L43.2112569,66.5004004 L29.7548489,66.5004004 C29.1134567,65.6274896 28.7005871,64.6080369 28.5538215,63.534839 C28.3656402,62.3744054 28.2428928,61.2043053 28.1861602,60.0300846 L27.8430095,48.2168564 C27.8678175,46.1754688 27.2315438,44.1808264 26.0292134,42.5308216 C24.6255093,41.0009167 22.579017,40.2278602 20.5142918,40.447576 L13.8718755,40.447576 L13.8718755,66.5739265 L1.44491951,66.5739265 L1.44491951,4.98338302 L24.4115033,4.98338302 Z M19.0436464,31.9430319 C21.5269409,32.1009345 23.9831136,31.3519491 25.9556807,29.8352776 C27.7723167,27.9282132 28.6672954,25.3240367 28.4067569,22.7032248 C28.4067569,17.0171895 25.5308278,14.1741721 19.7789691,14.1741721 L13.8718755,14.1741721 L13.8718755,31.9430319 L19.0436464,31.9430319 Z" id="j"></path>
                </g>
                <g id="j-link" fill="#2B2B2B">
                    <path d="M24.4115033,4.98338302 C28.7582862,4.69489963 33.0520591,6.07054747 36.4217759,8.83126019 C39.5246718,12.0048516 41.0984433,16.368137 40.7356701,20.7915406 C40.9018948,24.3303789 40.0513547,27.8428231 38.284594,30.9136634 C36.5177201,33.6120769 33.6983424,35.4440796 30.5146823,35.9624705 L30.5146823,36.1340319 C33.068239,36.3417947 35.4773174,37.403775 37.3531852,39.1486107 C39.0116553,41.3140109 39.9463842,43.9464733 40.0248581,46.6728036 C40.0248581,47.8247162 40.2209441,49.1236808 40.2699654,50.4226461 C40.3189874,51.7216107 40.3925194,53.2901721 40.4415408,54.9567689 C40.572265,58.2246047 40.7438403,60.7244999 40.9562668,62.4564531 C41.1421903,63.9109068 41.9695216,65.2057543 43.2112569,65.9857162 L43.2112569,66.5004004 L29.7548489,66.5004004 C29.1134567,65.6274896 28.7005871,64.6080369 28.5538215,63.534839 C28.3656402,62.3744054 28.2428928,61.2043053 28.1861602,60.0300846 L27.8430095,48.2168564 C27.8678175,46.1754688 27.2315438,44.1808264 26.0292134,42.5308216 C24.6255093,41.0009167 22.579017,40.2278602 20.5142918,40.447576 L13.8718755,40.447576 L13.8718755,66.5739265 L1.44491951,66.5739265 L1.44491951,4.98338302 L24.4115033,4.98338302 Z M19.0436464,31.9430319 C21.5269409,32.1009345 23.9831136,31.3519491 25.9556807,29.8352776 C27.7723167,27.9282132 28.6672954,25.3240367 28.4067569,22.7032248 C28.4067569,17.0171895 25.5308278,14.1741721 19.7789691,14.1741721 L13.8718755,14.1741721 L13.8718755,31.9430319 L19.0436464,31.9430319 Z" id="j"></path>
                </g>
            </g>
            <g id="Group" transform="translate(519.587629, 103.909091)">
                <g id="k-link" fill="#FFFFFF">
                    <polygon id="k" points="37.6645325 15.1545232 15.6048474 15.1545232 15.6048474 29.6637162 36.3164405 29.6637162 36.3164405 39.8348564 15.6048474 39.8348564 15.6048474 56.4027863 38.4733879 56.4027863 38.4733879 66.5739265 3.22691282 66.5739265 3.22691282 4.98338302 37.5419786 4.98338302"></polygon>
                </g>
                <g id="k-link" fill="#2B2B2B">
                    <polygon id="k" points="37.6645325 15.1545232 15.6048474 15.1545232 15.6048474 29.6637162 36.3164405 29.6637162 36.3164405 39.8348564 15.6048474 39.8348564 15.6048474 56.4027863 38.4733879 56.4027863 38.4733879 66.5739265 3.22691282 66.5739265 3.22691282 4.98338302 37.5419786 4.98338302"></polygon>
                </g>
            </g>
            <g id="Group" transform="translate(184.742268, 184.727273)">
                <g id="l-link" fill="#FFFFFF">
                    <polygon id="l" points="16.4175512 3.7942012 16.4175512 27.3471305 30.9524326 27.3471305 30.9524326 3.7942012 43.3793885 3.7942012 43.3793885 65.4092533 30.9524326 65.4092533 30.9524326 38.0574642 16.4175512 38.0574642 16.4175512 65.4092533 3.99059522 65.4092533 3.99059522 3.7942012"></polygon>
                </g>
                <g id="l-link" fill="#2B2B2B">
                    <polygon id="l" points="16.4175512 3.7942012 16.4175512 27.3471305 30.9524326 27.3471305 30.9524326 3.7942012 43.3793885 3.7942012 43.3793885 65.4092533 30.9524326 65.4092533 30.9524326 38.0574642 16.4175512 38.0574642 16.4175512 65.4092533 3.99059522 65.4092533 3.99059522 3.7942012"></polygon>
                </g>
            </g>
            <g id="Group" transform="translate(230.927835, 184.727273)">
                <g id="m-link" fill="#FFFFFF">
                    <path d="M5.13530854,21.7101131 C5.44921452,18.1815272 6.4131812,14.741443 7.9785567,11.5634816 C9.3994447,8.78889184 11.6078209,6.49543636 14.3268437,4.97062183 C21.406814,1.80096564 29.5026457,1.80096564 36.5826154,4.97062183 C39.3016383,6.49543636 41.5100144,8.78889184 42.9309024,11.5634816 C44.4962779,14.741443 45.4602446,18.1815272 45.7741506,21.7101131 C46.6238478,30.2999036 46.6238478,38.9525689 45.7741506,47.5423588 C45.4570832,51.0547199 44.4931235,54.4781601 42.9309024,57.6399729 C41.5262377,60.3950751 39.3105821,62.653321 36.5826154,64.1102887 C29.4620803,67.0840347 21.4473788,67.0840347 14.3268437,64.1102887 C11.598877,62.653321 9.38322144,60.3950751 7.9785567,57.6399729 C6.41633567,54.4781601 5.45237592,51.0547199 5.13530854,47.5423588 C4.2856113,38.9525689 4.2856113,30.2999036 5.13530854,21.7101131 Z M17.2191138,45.1650077 C17.3211816,47.5670008 17.7246841,49.9466512 18.4201412,52.248043 C18.8583729,53.8066742 19.7654275,55.1928145 21.018282,56.2184642 C23.7415955,57.8832945 27.1678637,57.8832945 29.8911772,56.2184642 C31.1440322,55.1928145 32.0510862,53.8066742 32.4893179,52.248043 C33.218028,49.9509323 33.6544863,47.5711924 33.7883886,45.1650077 C33.9844746,42.2729729 34.0825174,38.7437099 34.0825174,34.6017273 C34.0825174,30.4597447 34.0825174,26.9549903 33.7883886,24.0874642 C33.6819973,21.68593 33.2785848,19.3068131 32.5873612,17.0044289 C32.1553155,15.4293276 31.2480514,14.0257501 29.9892205,12.9849903 C27.265907,11.32016 23.8396382,11.32016 21.1163247,12.9849903 C19.8574938,14.0257501 18.9502297,15.4293276 18.5181839,17.0044289 C17.8269609,19.3068131 17.4235485,21.68593 17.3171565,24.0874642 C17.1210705,26.9549903 16.9985171,30.4597447 16.9985171,34.6017273 C16.9985171,38.7437099 17.0230278,42.2729729 17.2191138,45.1650077 L17.2191138,45.1650077 Z" id="m"></path>
                </g>
                <g id="m-link" fill="#2B2B2B">
                    <path d="M5.13530854,21.7101131 C5.44921452,18.1815272 6.4131812,14.741443 7.9785567,11.5634816 C9.3994447,8.78889184 11.6078209,6.49543636 14.3268437,4.97062183 C21.406814,1.80096564 29.5026457,1.80096564 36.5826154,4.97062183 C39.3016383,6.49543636 41.5100144,8.78889184 42.9309024,11.5634816 C44.4962779,14.741443 45.4602446,18.1815272 45.7741506,21.7101131 C46.6238478,30.2999036 46.6238478,38.9525689 45.7741506,47.5423588 C45.4570832,51.0547199 44.4931235,54.4781601 42.9309024,57.6399729 C41.5262377,60.3950751 39.3105821,62.653321 36.5826154,64.1102887 C29.4620803,67.0840347 21.4473788,67.0840347 14.3268437,64.1102887 C11.598877,62.653321 9.38322144,60.3950751 7.9785567,57.6399729 C6.41633567,54.4781601 5.45237592,51.0547199 5.13530854,47.5423588 C4.2856113,38.9525689 4.2856113,30.2999036 5.13530854,21.7101131 Z M17.2191138,45.1650077 C17.3211816,47.5670008 17.7246841,49.9466512 18.4201412,52.248043 C18.8583729,53.8066742 19.7654275,55.1928145 21.018282,56.2184642 C23.7415955,57.8832945 27.1678637,57.8832945 29.8911772,56.2184642 C31.1440322,55.1928145 32.0510862,53.8066742 32.4893179,52.248043 C33.218028,49.9509323 33.6544863,47.5711924 33.7883886,45.1650077 C33.9844746,42.2729729 34.0825174,38.7437099 34.0825174,34.6017273 C34.0825174,30.4597447 34.0825174,26.9549903 33.7883886,24.0874642 C33.6819973,21.68593 33.2785848,19.3068131 32.5873612,17.0044289 C32.1553155,15.4293276 31.2480514,14.0257501 29.9892205,12.9849903 C27.265907,11.32016 23.8396382,11.32016 21.1163247,12.9849903 C19.8574938,14.0257501 18.9502297,15.4293276 18.5181839,17.0044289 C17.8269609,19.3068131 17.4235485,21.68593 17.3171565,24.0874642 C17.1210705,26.9549903 16.9985171,30.4597447 16.9985171,34.6017273 C16.9985171,38.7437099 17.0230278,42.2729729 17.2191138,45.1650077 L17.2191138,45.1650077 Z" id="m"></path>
                </g>
            </g>
            <g id="Group" transform="translate(282.886598, 184.727273)">
                <g id="n-link" fill="#FFFFFF">
                    <path d="M13.448508,46.7580784 C13.4232087,48.1918662 13.5051395,49.6255398 13.6936153,51.0471131 C13.8624519,52.2255138 14.2445179,53.3633137 14.8211107,54.4048148 C15.3486769,55.3366692 16.11966,56.1075898 17.0515895,56.6351131 C18.1563702,57.230361 19.4007006,57.5181418 20.6546717,57.4684115 C21.9097899,57.530664 23.1574416,57.2421148 24.2577538,56.6351131 C25.1829454,56.107035 25.9458559,55.3357103 26.463722,54.4048148 C27.0403147,53.3633137 27.4223808,52.2255138 27.5912173,51.0471131 C27.7960873,49.6267694 27.8944048,48.1930901 27.8853466,46.7580784 L27.8853466,3.7942012 L40.3123026,3.7942012 L40.3123026,46.7580784 C40.4403249,50.1037727 39.8814247,53.4402174 38.6700812,56.5615871 C37.737142,58.9285767 36.2292797,61.0259361 34.282655,62.6642713 C32.4513268,64.1538387 30.2922948,65.1870657 27.9833894,65.6788501 C25.5668254,66.1961309 23.1014473,66.4508658 20.630161,66.4386218 C18.1626134,66.449194 15.6999048,66.2193598 13.2769326,65.7523762 C10.9855108,65.3330441 8.82648734,64.3754225 6.97766697,62.9583762 C5.01164668,61.3783132 3.49808388,59.306845 2.59024074,56.9537273 C1.38018928,53.729625 0.822002639,50.2974714 0.948019381,46.8561131 L0.948019381,3.7942012 L13.3749753,3.7942012 L13.448508,46.7580784 Z" id="n"></path>
                </g>
                <g id="n-link" fill="#2B2B2B">
                    <path d="M13.448508,46.7580784 C13.4232087,48.1918662 13.5051395,49.6255398 13.6936153,51.0471131 C13.8624519,52.2255138 14.2445179,53.3633137 14.8211107,54.4048148 C15.3486769,55.3366692 16.11966,56.1075898 17.0515895,56.6351131 C18.1563702,57.230361 19.4007006,57.5181418 20.6546717,57.4684115 C21.9097899,57.530664 23.1574416,57.2421148 24.2577538,56.6351131 C25.1829454,56.107035 25.9458559,55.3357103 26.463722,54.4048148 C27.0403147,53.3633137 27.4223808,52.2255138 27.5912173,51.0471131 C27.7960873,49.6267694 27.8944048,48.1930901 27.8853466,46.7580784 L27.8853466,3.7942012 L40.3123026,3.7942012 L40.3123026,46.7580784 C40.4403249,50.1037727 39.8814247,53.4402174 38.6700812,56.5615871 C37.737142,58.9285767 36.2292797,61.0259361 34.282655,62.6642713 C32.4513268,64.1538387 30.2922948,65.1870657 27.9833894,65.6788501 C25.5668254,66.1961309 23.1014473,66.4508658 20.630161,66.4386218 C18.1626134,66.449194 15.6999048,66.2193598 13.2769326,65.7523762 C10.9855108,65.3330441 8.82648734,64.3754225 6.97766697,62.9583762 C5.01164668,61.3783132 3.49808388,59.306845 2.59024074,56.9537273 C1.38018928,53.729625 0.822002639,50.2974714 0.948019381,46.8561131 L0.948019381,3.7942012 L13.3749753,3.7942012 L13.448508,46.7580784 Z" id="n"></path>
                </g>
            </g>
            <g id="Group" transform="translate(323.298969, 184.727273)">
                <g id="o-link" fill="#FFFFFF">
                    <path d="M17.8172977,48.1060604 C17.8110713,49.4209561 17.92594,50.7336315 18.1604484,52.0274642 C18.3441555,53.1074157 18.7902377,54.1257461 19.4595191,54.9930256 C20.1062106,55.8227871 20.948286,56.4795526 21.9105952,56.9047099 C23.1815285,57.4037881 24.5412102,57.6373342 25.9058494,57.5909555 C27.788518,57.6017904 29.6134281,56.9414008 31.053109,55.7282887 C32.6684827,54.2785294 33.5120217,52.1562497 33.3326098,49.993236 C33.3546409,48.7767422 33.1638541,47.5657591 32.7688624,46.4149555 C32.3782445,45.3702368 31.7388527,44.4364635 30.9060444,43.6944816 C29.8949886,42.7826372 28.7448548,42.0380068 27.4990488,41.4886919 C25.8008633,40.7142315 24.057421,40.0431017 22.2782566,39.4789729 C19.8096207,38.6735199 17.4150376,37.6567244 15.1211142,36.4398854 C13.2349199,35.4585328 11.5278777,34.1659262 10.0718973,32.616517 C8.7280532,31.1503632 7.71643052,29.4115161 7.10609518,27.5186919 C6.43125245,25.3539544 6.10850194,23.0948865 6.15017518,20.8277974 C6.15017518,14.7496218 7.8414179,10.1909903 11.248414,7.2009202 C15.1864645,4.02221238 20.1669734,2.42333722 25.219548,2.71581476 C27.7970271,2.68861078 30.3672811,2.99339231 32.8669052,3.62263979 C35.0607375,4.16954104 37.1150582,5.171567 38.8965527,6.56369193 C40.6156309,7.94422292 41.9774967,9.71786682 42.8672962,11.735043 C43.8754746,14.1207022 44.3602499,16.6948179 44.2889203,19.2837447 L44.2889203,20.9993588 L32.3766904,20.9993588 C32.5133887,18.6437951 31.9778653,16.2978834 30.8325123,14.2349376 C29.675326,12.5468443 27.7001489,11.6108174 25.6607414,11.7840604 C24.4782454,11.7399014 23.2999552,11.9488013 22.204724,12.39678 C21.3493644,12.7379505 20.5915781,13.2851958 19.9987558,13.9898501 C19.4605392,14.6579001 19.0756391,15.4360049 18.8712605,16.2691659 C18.6739684,17.1459098 18.5753132,18.0419594 18.5771317,18.9406218 C18.4959005,20.6562077 18.9130278,22.3586306 19.7781585,23.8423762 C21.1218929,25.518805 22.9289258,26.7631695 24.9744401,27.4206572 L34.5336372,31.5626398 C36.5793311,32.4160163 38.5202299,33.5015159 40.3181768,34.7977974 C41.7268274,35.7575381 42.9687983,36.9414546 43.994791,38.3025517 C44.8958454,39.5845446 45.5293867,41.034903 45.8576091,42.5670784 C46.2159219,44.2671437 46.3885093,46.0010954 46.3723351,47.7384289 C46.3723351,54.2741017 44.4850064,59.0042947 40.7103489,61.9290077 C36.117973,65.1451511 30.5705894,66.7090066 24.9744401,66.3650958 C17.9643624,66.3650958 12.9478264,64.8455517 9.92483266,61.8064642 C6.70864008,58.2249378 5.0737247,53.4973241 5.39034177,48.6942713 L5.39034177,46.2433941 L17.8172977,46.2433941 L17.8172977,48.1060604 Z" id="o"></path>
                </g>
                <g id="o-link" fill="#2B2B2B">
                    <path d="M17.8172977,48.1060604 C17.8110713,49.4209561 17.92594,50.7336315 18.1604484,52.0274642 C18.3441555,53.1074157 18.7902377,54.1257461 19.4595191,54.9930256 C20.1062106,55.8227871 20.948286,56.4795526 21.9105952,56.9047099 C23.1815285,57.4037881 24.5412102,57.6373342 25.9058494,57.5909555 C27.788518,57.6017904 29.6134281,56.9414008 31.053109,55.7282887 C32.6684827,54.2785294 33.5120217,52.1562497 33.3326098,49.993236 C33.3546409,48.7767422 33.1638541,47.5657591 32.7688624,46.4149555 C32.3782445,45.3702368 31.7388527,44.4364635 30.9060444,43.6944816 C29.8949886,42.7826372 28.7448548,42.0380068 27.4990488,41.4886919 C25.8008633,40.7142315 24.057421,40.0431017 22.2782566,39.4789729 C19.8096207,38.6735199 17.4150376,37.6567244 15.1211142,36.4398854 C13.2349199,35.4585328 11.5278777,34.1659262 10.0718973,32.616517 C8.7280532,31.1503632 7.71643052,29.4115161 7.10609518,27.5186919 C6.43125245,25.3539544 6.10850194,23.0948865 6.15017518,20.8277974 C6.15017518,14.7496218 7.8414179,10.1909903 11.248414,7.2009202 C15.1864645,4.02221238 20.1669734,2.42333722 25.219548,2.71581476 C27.7970271,2.68861078 30.3672811,2.99339231 32.8669052,3.62263979 C35.0607375,4.16954104 37.1150582,5.171567 38.8965527,6.56369193 C40.6156309,7.94422292 41.9774967,9.71786682 42.8672962,11.735043 C43.8754746,14.1207022 44.3602499,16.6948179 44.2889203,19.2837447 L44.2889203,20.9993588 L32.3766904,20.9993588 C32.5133887,18.6437951 31.9778653,16.2978834 30.8325123,14.2349376 C29.675326,12.5468443 27.7001489,11.6108174 25.6607414,11.7840604 C24.4782454,11.7399014 23.2999552,11.9488013 22.204724,12.39678 C21.3493644,12.7379505 20.5915781,13.2851958 19.9987558,13.9898501 C19.4605392,14.6579001 19.0756391,15.4360049 18.8712605,16.2691659 C18.6739684,17.1459098 18.5753132,18.0419594 18.5771317,18.9406218 C18.4959005,20.6562077 18.9130278,22.3586306 19.7781585,23.8423762 C21.1218929,25.518805 22.9289258,26.7631695 24.9744401,27.4206572 L34.5336372,31.5626398 C36.5793311,32.4160163 38.5202299,33.5015159 40.3181768,34.7977974 C41.7268274,35.7575381 42.9687983,36.9414546 43.994791,38.3025517 C44.8958454,39.5845446 45.5293867,41.034903 45.8576091,42.5670784 C46.2159219,44.2671437 46.3885093,46.0010954 46.3723351,47.7384289 C46.3723351,54.2741017 44.4850064,59.0042947 40.7103489,61.9290077 C36.117973,65.1451511 30.5705894,66.7090066 24.9744401,66.3650958 C17.9643624,66.3650958 12.9478264,64.8455517 9.92483266,61.8064642 C6.70864008,58.2249378 5.0737247,53.4973241 5.39034177,48.6942713 L5.39034177,46.2433941 L17.8172977,46.2433941 L17.8172977,48.1060604 Z" id="o"></path>
                </g>
            </g>
            <g id="Group" transform="translate(375.257732, 184.727273)">
                <g id="p-link" fill="#FFFFFF">
                    <polygon id="p" points="35.0524143 13.9898501 12.9927292 13.9898501 12.9927292 28.499043 33.7043228 28.499043 33.7043228 38.6701832 12.9927292 38.6701832 12.9927292 55.2136044 35.8612696 55.2136044 35.8612696 65.4092533 0.565773196 65.4092533 0.565773196 3.7942012 35.0524143 3.7942012"></polygon>
                </g>
                <g id="p-link" fill="#2B2B2B">
                    <polygon id="p" points="35.0524143 13.9898501 12.9927292 13.9898501 12.9927292 28.499043 33.7043228 28.499043 33.7043228 38.6701832 12.9927292 38.6701832 12.9927292 55.2136044 35.8612696 55.2136044 35.8612696 65.4092533 0.565773196 65.4092533 0.565773196 3.7942012 35.0524143 3.7942012"></polygon>
                </g>
            </g>
            <g id="Group">
                <g id="q-link" fill="#FFFFFF">
                    <polygon id="q" points="173.413637 252.538386 172.580271 26.5184913 0 -6.21724894e-15 0 199.869035 58.8258275 217.34379 58.8258275 123.818316 107.847351 134.969807 107.847351 198.643597 57.4042033 217.441824 107.847351 232.735298"></polygon>
                </g>
                <g id="q-link" fill="#2B2B2B">
                    <polygon id="q" points="173.413637 252.538386 172.580271 26.5184913 0 -6.21724894e-15 0 199.869035 58.8258275 217.34379 58.8258275 123.818316 107.847351 134.969807 107.847351 198.643597 57.4042033 217.441824 107.847351 232.735298"></polygon>
                </g>
            </g>
        </g>
    </g>
</svg>
