<svg enable-background="new 0 0 103.43 120" height="120" viewBox="0 0 103.43 120" width="103.43" xmlns="http://www.w3.org/2000/svg" xmlns:xlink="http://www.w3.org/1999/xlink"><clipPath id="a"><path d="m34.41 77.68c-20.9 3.04-34.41 11.11-34.41 20.56 0 12.2 22.72 21.76 51.72 21.76s51.72-9.56 51.72-21.76c0-9.38-13.37-17.43-34.06-20.5-1.03-.14-1.99.56-2.15 1.59-.15 1.03.56 1.99 1.59 2.15 18.15 2.7 30.83 9.59 30.83 16.76 0 8.69-19.26 17.99-47.94 17.99s-47.94-9.3-47.94-17.99c0-7.23 12.82-14.14 31.17-16.81 1.03-.15 1.75-1.11 1.6-2.14-.14-.94-.94-1.62-1.86-1.62-.08-.01-.18 0-.27.01"/></clipPath><linearGradient id="b"><stop offset="0" stop-color="#259ca7"/><stop offset=".009313881" stop-color="#259ca7"/><stop offset=".28" stop-color="#259ca7"/><stop offset=".771" stop-color="#a32b78"/><stop offset="1" stop-color="#89338b"/></linearGradient><linearGradient id="c" gradientTransform="matrix(104.1001 0 0 -104.1001 1875.2526 13631.2344)" gradientUnits="userSpaceOnUse" x1="-18.0139" x2="-17.0203" xlink:href="#b" y1="129.9944" y2="129.9944"/><clipPath id="d"><path d="m26.74 47.78c-1.12-2.24-3.76-7.49-3.98-14.3-.12-3.73.49-6.8 1.02-8.71.92-3.31 2.42-6.4 4.45-9.19 2.28-3.13 5.13-5.73 8.45-7.71 3.09-1.85 6.65-3.13 10.3-3.72 1.67-.27 3.24-.37 4.67-.37 3.54 0 6.24.63 7.47.97 1.29.36 4.67 1.48 8.32 3.99 2.77 1.91 5.24 4.3 7.13 6.92 1.93 2.67 3.38 5.65 4.31 8.84.56 1.92 1.2 5.01 1.13 8.86-.11 5.91-1.87 10.57-3.39 13.98-3.31 7.44-11.86 23.85-25.24 46.15-11.22-19.88-20.03-36.53-24.64-45.71m19.64-47.36c-4.12.66-8.15 2.12-11.64 4.2-3.76 2.25-6.98 5.18-9.56 8.73-2.3 3.15-4 6.65-5.04 10.4-.61 2.17-1.3 5.64-1.16 9.85.25 7.64 3.14 13.41 4.38 15.87 4.84 9.65 14.31 27.51 26.33 48.7l1.59 2.81 1.67-2.76c14.43-23.87 23.63-41.5 27.13-49.34 1.66-3.73 3.59-8.86 3.71-15.45.06-3.42-.38-6.87-1.28-9.98-1.05-3.61-2.69-6.98-4.88-10-2.15-2.97-4.93-5.67-8.05-7.82-3.96-2.72-7.61-3.99-9.43-4.51-1.71-.48-4.68-1.12-8.46-1.12-1.63 0-3.41.12-5.31.42"/></clipPath><linearGradient id="e" gradientTransform="matrix(65.2546 0 0 -65.2546 1195.1173 8532.667)" gradientUnits="userSpaceOnUse" x1="-18.0241" x2="-17.0305" xlink:href="#b" y1="129.9858" y2="129.9858"/><clipPath id="f"><path d="m35.2 31.5c0-8.92 7.26-16.18 16.18-16.18s16.18 7.26 16.18 16.18-7.26 16.18-16.18 16.18-16.18-7.26-16.18-16.18m-3.78 0c0 11.01 8.95 19.96 19.96 19.96s19.96-8.96 19.96-19.96c0-11.01-8.95-19.96-19.96-19.96s-19.96 8.95-19.96 19.96"/></clipPath><linearGradient id="g" gradientTransform="matrix(40.1768 0 0 -40.1768 756.2545 5253.4302)" gradientUnits="userSpaceOnUse" x1="-18.0411" x2="-17.0475" xlink:href="#b" y1="129.9739" y2="129.9739"/><clipPath id="h"><path d="m62.82 86.2c-.14 1.03.58 1.99 1.61 2.13 13.07 1.81 19.9 5.86 19.9 8.92 0 4.08-12.54 9.78-32.96 9.78s-32.96-5.7-32.96-9.78c0-3.03 6.75-7.06 19.66-8.88 1.03-.15 1.75-1.1 1.61-2.14-.15-1.03-1.11-1.75-2.14-1.61-14.34 2.03-22.91 6.75-22.91 12.63 0 8.81 18.93 13.56 36.74 13.56s36.74-4.75 36.74-13.56c0-5.92-8.66-10.65-23.17-12.66-.08-.01-.17-.02-.25-.02-.9 0-1.74.68-1.87 1.63"/></clipPath><linearGradient id="i" gradientTransform="matrix(73.954 0 0 -73.954 1347.356 9711.0811)" gradientUnits="userSpaceOnUse" x1="-18.0209" x2="-17.0273" xlink:href="#b" y1="129.9922" y2="129.9922"/><path clip-path="url(#a)" d="m0 77.6h103.43v42.4h-103.43z" fill="url(#c)"/><path clip-path="url(#d)" d="m18.84 0h65.01v100.99h-65.01z" fill="url(#e)"/><path clip-path="url(#f)" d="m31.42 11.54h39.92v39.92h-39.92z" fill="url(#g)"/><path clip-path="url(#h)" d="m14.64 84.48h73.48v26.33h-73.48z" fill="url(#i)"/></svg>