<svg enable-background="new 0 0 92.58 120" height="120" viewBox="0 0 92.58 120" width="92.58" xmlns="http://www.w3.org/2000/svg" xmlns:xlink="http://www.w3.org/1999/xlink"><clipPath id="a"><path d="m16.52 57.56v-22.69c0-3.27 2.66-5.93 5.93-5.93h47.68c3.27 0 5.93 2.66 5.93 5.93v22.69c0 3.27-2.66 5.93-5.93 5.93h-47.68c-3.27 0-5.93-2.66-5.93-5.93m5.93-31.76c-5 0-9.06 4.07-9.06 9.06v22.69c0 5 4.07 9.06 9.06 9.06h47.68c5 0 9.06-4.06 9.06-9.06v-22.68c0-5-4.06-9.06-9.06-9.06h-47.68z"/></clipPath><linearGradient id="b"><stop offset="0" stop-color="#259ca7"/><stop offset=".009313881" stop-color="#259ca7"/><stop offset=".28" stop-color="#259ca7"/><stop offset=".771" stop-color="#a32b78"/><stop offset="1" stop-color="#89338b"/></linearGradient><linearGradient id="c" gradientTransform="matrix(66.2262 0 0 -66.2262 37.7727 -84.7409)" gradientUnits="userSpaceOnUse" x1="-.3682" x2=".6254" xlink:href="#b" y1="-1.9774" y2="-1.9774"/><clipPath id="d"><path d="m27.18 102.06h38.59l2.09 6.35h-42.77zm-16.17 14.72 12-24.14h3.97l-7.95 24.21zm19.27-24.13h32.41l2.06 6.28h-36.54zm35.7 0h3.97l12 24.14-8.01.07zm-55.91-14.83v-48.9c-.04-.88.06-1.73.29-2.53 2.76-9.56 24.13-12.02 35.88-12.02h.97c11.68.14 32.15 2.83 34.81 12.02.23.8.33 1.65.29 2.6v48.84c0 6.45-5.25 11.7-11.7 11.7h-6.79-34.68-7.1-.27c-6.46-.01-11.7-5.26-11.7-11.71m10.83-77.82c-3.73 0-6.77 3.04-6.77 6.77h3.13c0-2.01 1.63-3.64 3.64-3.64h23.72v8.11c-8.68.17-33.67 1.77-37.27 14.27-.32 1.12-.46 2.31-.41 3.46v48.84c0 7.44 5.51 13.6 12.66 14.66l-12.51 25.16c-.24.48-.21 1.06.07 1.52s.78.74 1.32.75l11.66.1h.01c.68 0 1.28-.43 1.49-1.08l2.42-7.38h44.83l2.42 7.38c.21.64.81 1.08 1.49 1.08h.01l11.66-.11c.54 0 1.04-.29 1.32-.75s.31-1.03.07-1.52l-12.54-25.23c6.88-1.28 12.12-7.32 12.12-14.57v-48.77c.05-1.22-.09-2.41-.41-3.53-3.71-12.85-30.64-14.15-37.27-14.27v-8.12h23.72c2.01 0 3.64 1.63 3.64 3.64h3.13c0-3.73-3.04-6.77-6.77-6.77z"/></clipPath><linearGradient id="e" gradientTransform="matrix(79.6167 0 0 -79.6167 31.2674 -70.8662)" gradientUnits="userSpaceOnUse" x1="-.3067" x2=".6869" xlink:href="#b" y1="-1.6437" y2="-1.6437"/><path clip-path="url(#a)" d="m13.39 25.8h65.8v40.82h-65.8z" fill="url(#c)"/><path d="m27.49 79.84c0-3.27-2.66-5.94-5.94-5.94-3.27 0-5.94 2.66-5.94 5.94 0 3.27 2.66 5.94 5.94 5.94s5.94-2.67 5.94-5.94m-5.94 2.8c-1.55 0-2.81-1.26-2.81-2.8 0-1.55 1.26-2.81 2.81-2.81s2.8 1.26 2.8 2.81c.01 1.54-1.25 2.8-2.8 2.8" fill="#259ca7"/><path d="m71.38 73.9c-3.27 0-5.94 2.66-5.94 5.94 0 3.27 2.66 5.94 5.94 5.94 3.27 0 5.94-2.66 5.94-5.94s-2.67-5.94-5.94-5.94m0 8.74c-1.55 0-2.81-1.26-2.81-2.8 0-1.55 1.26-2.81 2.81-2.81s2.8 1.26 2.8 2.81c0 1.54-1.26 2.8-2.8 2.8" fill="#a32b78"/><path clip-path="url(#d)" d="m6.85 0h79.26v120h-79.26z" fill="url(#e)"/><path d="m1.57 35.8c-.87 0-1.57.7-1.57 1.56v17.71c0 .87.7 1.57 1.57 1.57s1.57-.7 1.57-1.57v-17.71c-.01-.86-.71-1.56-1.57-1.56" fill="#259ca7"/><path d="m91.01 35.8c-.87 0-1.57.7-1.57 1.57v17.71c0 .87.7 1.57 1.57 1.57s1.57-.7 1.57-1.57v-17.72c0-.86-.7-1.56-1.57-1.56" fill="#a32b78"/></svg>