
<svg width="93px" height="120px" viewBox="0 0 93 120" version="1.1" xmlns="http://www.w3.org/2000/svg" xmlns:xlink="http://www.w3.org/1999/xlink">
    <defs>
        <path d="M3.52,32.56 L3.52,9.87 C3.52,6.6 6.18,3.94 9.45,3.94 L57.13,3.94 C60.4,3.94 63.06,6.6 63.06,9.87 L63.06,32.56 C63.06,35.83 60.4,38.49 57.13,38.49 L9.45,38.49 C6.18,38.49 3.52,35.83 3.52,32.56 L3.52,32.56 Z M9.45,0.8 C4.45,0.8 0.39,4.87 0.39,9.86 L0.39,32.55 C0.39,37.55 4.46,41.61 9.45,41.61 L57.13,41.61 C62.13,41.61 66.19,37.55 66.19,32.55 L66.19,9.87 C66.19,4.87 62.13,0.81 57.13,0.81 L9.45,0.81 L9.45,0.8 Z" id="path-1"></path>
        <linearGradient x1="-0.00271556231%" y1="50.0117293%" x2="100.000859%" y2="50.0117293%" id="linearGradient-3">
            <stop stop-color="#BDDB59" offset="0%"></stop>
            <stop stop-color="#279EAC" offset="100%"></stop>
        </linearGradient>
        <path d="M21.18,102.06 L59.77,102.06 L61.86,108.41 L19.09,108.41 L21.18,102.06 Z M5.01,116.78 L17.01,92.64 L20.98,92.64 L13.03,116.85 L5.01,116.78 Z M24.28,92.65 L56.69,92.65 L58.75,98.93 L22.21,98.93 L24.28,92.65 Z M59.98,92.65 L63.95,92.65 L75.95,116.79 L67.94,116.86 L59.98,92.65 Z M4.07,77.82 L4.07,28.92 C4.03,28.04 4.13,27.19 4.36,26.39 C7.12,16.83 28.49,14.37 40.24,14.37 L41.21,14.37 C52.89,14.51 73.36,17.2 76.02,26.39 C76.25,27.19 76.35,28.04 76.31,28.99 L76.31,77.83 C76.31,84.28 71.06,89.53 64.61,89.53 L57.82,89.53 L23.14,89.53 L16.04,89.53 L15.77,89.53 C9.31,89.52 4.07,84.27 4.07,77.82 L4.07,77.82 Z M14.9,2.84217094e-14 C11.17,2.84217094e-14 8.13,3.04 8.13,6.77 L11.26,6.77 C11.26,4.76 12.89,3.13 14.9,3.13 L38.62,3.13 L38.62,11.24 C29.94,11.41 4.95,13.01 1.35,25.51 C1.03,26.63 0.89,27.82 0.94,28.97 L0.94,77.81 C0.94,85.25 6.45,91.41 13.6,92.47 L1.09,117.63 C0.85,118.11 0.88,118.69 1.16,119.15 C1.44,119.61 1.94,119.89 2.48,119.9 L14.14,120 L14.15,120 C14.83,120 15.43,119.57 15.64,118.92 L18.06,111.54 L62.89,111.54 L65.31,118.92 C65.52,119.56 66.12,120 66.8,120 L66.81,120 L78.47,119.89 C79.01,119.89 79.51,119.6 79.79,119.14 C80.07,118.68 80.1,118.11 79.86,117.62 L67.32,92.39 C74.2,91.11 79.44,85.07 79.44,77.82 L79.44,29.05 C79.49,27.83 79.35,26.64 79.03,25.52 C75.32,12.67 48.39,11.37 41.76,11.25 L41.76,3.13 L65.48,3.13 C67.49,3.13 69.12,4.76 69.12,6.77 L72.25,6.77 C72.25,3.04 69.21,1.95399252e-14 65.48,1.95399252e-14 L14.9,2.84217094e-14 Z" id="path-4"></path>
        <linearGradient x1="-0.00131452183%" y1="49.9998082%" x2="99.8058431%" y2="49.9998082%" id="linearGradient-6">
            <stop stop-color="#BDDB59" offset="0%"></stop>
            <stop stop-color="#279EAC" offset="100%"></stop>
        </linearGradient>
    </defs>
    <g id="Page-1" stroke="none" stroke-width="1" fill="none" fill-rule="evenodd">
        <g id="bus">
            <g id="Clipped" transform="translate(13.000000, 25.000000)">
                <mask id="mask-2" fill="white">
                    <use xlink:href="#path-1"></use>
                </mask>
                <g id="Shape"></g>
                <polygon id="Path" fill="url(#linearGradient-3)" fill-rule="nonzero" mask="url(#mask-2)" points="0.39 0.8 66.19 0.8 66.19 41.62 0.39 41.62"></polygon>
            </g>
            <path d="M27.49,79.84 C27.49,76.57 24.83,73.9 21.55,73.9 C18.28,73.9 15.61,76.56 15.61,79.84 C15.61,83.11 18.27,85.78 21.55,85.78 C24.83,85.78 27.49,83.11 27.49,79.84 M21.55,82.64 C20,82.64 18.74,81.38 18.74,79.84 C18.74,78.29 20,77.03 21.55,77.03 C23.1,77.03 24.35,78.29 24.35,79.84 C24.36,81.38 23.1,82.64 21.55,82.64" id="Shape" fill="#BDDB59" fill-rule="nonzero"></path>
            <path d="M71.38,73.9 C68.11,73.9 65.44,76.56 65.44,79.84 C65.44,83.11 68.1,85.78 71.38,85.78 C74.65,85.78 77.32,83.12 77.32,79.84 C77.32,76.56 74.65,73.9 71.38,73.9 M71.38,82.64 C69.83,82.64 68.57,81.38 68.57,79.84 C68.57,78.29 69.83,77.03 71.38,77.03 C72.93,77.03 74.18,78.29 74.18,79.84 C74.18,81.38 72.92,82.64 71.38,82.64" id="Shape" fill="#279EAC" fill-rule="nonzero"></path>
            <g id="Clipped" transform="translate(6.000000, 0.000000)">
                <mask id="mask-5" fill="white">
                    <use xlink:href="#path-4"></use>
                </mask>
                <g id="Shape"></g>
                <polygon id="Path" fill="url(#linearGradient-6)" fill-rule="nonzero" mask="url(#mask-5)" points="0.85 0 80.11 0 80.11 120 0.85 120"></polygon>
            </g>
            <path d="M1.57,35.8 C0.7,35.8 0,36.5 0,37.36 L0,55.07 C0,55.94 0.7,56.64 1.57,56.64 C2.44,56.64 3.14,55.94 3.14,55.07 L3.14,37.36 C3.13,36.5 2.43,35.8 1.57,35.8" id="Path" fill="#BDDB59" fill-rule="nonzero"></path>
            <path d="M91.01,35.8 C90.14,35.8 89.44,36.5 89.44,37.37 L89.44,55.08 C89.44,55.95 90.14,56.65 91.01,56.65 C91.88,56.65 92.58,55.95 92.58,55.08 L92.58,37.36 C92.58,36.5 91.88,35.8 91.01,35.8" id="Path" fill="#279EAC" fill-rule="nonzero"></path>
        </g>
    </g>
</svg>
