<svg enable-background="new 0 0 57.57 120" height="120" viewBox="0 0 57.57 120" width="57.57" xmlns="http://www.w3.org/2000/svg" xmlns:xlink="http://www.w3.org/1999/xlink"><clipPath id="a"><path d="m12.17 116.8v-3.24c0-.13.11-.24.24-.24h32.75c.13 0 .25.11.25.24v3.24c0 .13-.12.24-.25.24h-32.75c-.13 0-.24-.11-.24-.24m.24-6.45c-1.69 0-3.07 1.31-3.19 2.96-.02.08-.02.17-.02.25v3.24c0 1.77 1.44 3.2 3.21 3.2h32.75c1.77 0 3.21-1.43 3.21-3.2v-3.24c0-.08 0-.17-.02-.25-.12-1.65-1.5-2.96-3.19-2.96z"/></clipPath><linearGradient id="b"><stop offset="0" stop-color="#abcd50"/><stop offset="0" stop-color="#bcd469"/><stop offset=".009313881" stop-color="#bcd469"/><stop offset=".28" stop-color="#bcd469"/><stop offset=".5583" stop-color="#d98f88"/><stop offset=".8174" stop-color="#ed2c43"/><stop offset="1" stop-color="#ee3f42"/></linearGradient><linearGradient id="c" gradientTransform="matrix(39.42 0 0 -39.42 704.9307 5279.6885)" gradientUnits="userSpaceOnUse" x1="-17.6492" x2="-16.6555" xlink:href="#b" y1="131.0123" y2="131.0123"/><clipPath id="d"><path d="m3.29 57.9h2.94l-.13-1.56-.13-1.58-1.4-16.59h48.43l-1.4 16.59-.13 1.58-.13 1.56h2.94l-2.95 32.72h-2.75l-.13 1.57-.13 1.57-1.4 16.59h-36.27l-1.4-16.59-.13-1.57-.13-1.57h-2.6zm-.33-22.7c-.42 0-.81.17-1.09.48s-.43.72-.39 1.13l1.51 17.94.14 1.58 3.01 35.85.14 1.57 1.53 18.2c.07.75.67 1.32 1.41 1.35.02.01.05.01.07.01h38.99c.02 0 .05 0 .07-.01.74-.03 1.34-.61 1.41-1.35l1.53-18.2.14-1.57 3.01-35.85.14-1.58 1.51-17.94c.03-.42-.11-.82-.39-1.13s-.68-.48-1.09-.48z"/></clipPath><linearGradient id="e" gradientTransform="matrix(54.9704 0 0 -54.9704 961.5096 7275.6045)" gradientUnits="userSpaceOnUse" x1="-17.4652" x2="-16.4716" xlink:href="#b" y1="131.0041" y2="131.0041"/><clipPath id="f"><path d="m3.29 57.9h50.99l-2.95 32.72h-44.94zm-1.72-3.14c-.45 0-.86.19-1.16.52s-.45.77-.4 1.2l3.39 35.86c.08.8.76 1.42 1.57 1.42h47.8c.82 0 1.49-.62 1.56-1.43l3.24-35.85c.03-.45-.11-.87-.41-1.2s-.72-.52-1.16-.52z"/></clipPath><linearGradient id="g" gradientTransform="matrix(57.9434 0 0 -57.9434 1010.5691 7665.0742)" gradientUnits="userSpaceOnUse" x1="-17.4413" x2="-16.4477" xlink:href="#b" y1="131.0039" y2="131.0039"/><clipPath id="h"><path d="m34.17.43c-3.54 3.52-5.26 7.04-5.12 10.47.1 2.43 1.09 4.18 1.96 5.72.83 1.47 1.54 2.73 1.55 4.49.01 2.3-1.21 4.67-3.61 7.04-.58.58-.59 1.52-.01 2.1.29.3.67.44 1.06.44.38 0 .75-.14 1.04-.43 2.99-2.95 4.51-6.03 4.49-9.17-.01-2.53-1.03-4.34-1.93-5.94-.81-1.43-1.51-2.67-1.58-4.38-.11-2.56 1.32-5.33 4.25-8.24.58-.58.58-1.52.01-2.1-.3-.28-.68-.43-1.06-.43s-.76.14-1.05.43"/></clipPath><linearGradient id="i" gradientTransform="matrix(8.2449 0 0 -8.2449 194.3849 1095.2693)" gradientUnits="userSpaceOnUse" x1="-20.1187" x2="-19.1251" xlink:href="#b" y1="130.9812" y2="130.9812"/><clipPath id="j"><path d="m25.27.43c-3.54 3.52-5.26 7.04-5.12 10.47.1 2.43 1.09 4.18 1.96 5.72.83 1.47 1.54 2.73 1.55 4.49.01 2.3-1.21 4.67-3.61 7.04-.58.58-.59 1.51-.01 2.1.29.3.67.44 1.06.44.38 0 .75-.14 1.04-.43 2.99-2.95 4.51-6.03 4.49-9.16-.01-2.53-1.03-4.34-1.93-5.94-.81-1.43-1.51-2.67-1.58-4.38-.11-2.56 1.32-5.34 4.25-8.24.58-.58.58-1.52.01-2.1-.3-.29-.68-.44-1.06-.44s-.76.14-1.05.43"/></clipPath><linearGradient id="k" gradientTransform="matrix(8.2448 0 0 -8.2448 185.4276 1095.2617)" gradientUnits="userSpaceOnUse" x1="-20.1118" x2="-19.1182" xlink:href="#b" y1="130.9812" y2="130.9812"/><clipPath id="l"><path d="m30.18 68.54c-.12.01-.55.08-1.09.24-.64.18-1.09.39-1.39.52-.38.18-.94.46-1.57.87-.14.09-.68.47-1.34 1.05-.21.18-.54.47-.91.9-.61.68-.97 1.25-1.06 1.41-.19.3-.48.78-.73 1.45-.35.92-.41 1.64-.42 1.79-.04.45-.01.75 0 .81.05.48.18.86.28 1.12.21-.26.49-.58.83-.93.25-.27.57-.59 1.03-.97.25-.21.61-.49 1.07-.78.44-.29.81-.48 1.05-.6.39-.2.69-.32.95-.43.45-.19.62-.23.99-.37.3-.12.93-.36 1.67-.75.61-.33 1.04-.63 1.3-.8.16-.12.67-.47 1.27-.99.09-.08.36-.32.7-.65.4-.4.69-.72.83-.88.08-.09.06-.07.47-.54.04-.05.11-.13.21-.26.05-.05.08-.1.11-.14-.1-.1-.24-.22-.41-.35-.05-.04-.21-.15-.43-.27-.1-.06-.46-.25-1-.39-.53-.14-.93-.16-1.17-.16-.08 0-.16 0-.24 0-.42.02-.74.06-1 .1"/></clipPath><linearGradient id="m" gradientTransform="matrix(12.8802 0 0 -12.8802 266.2631 1761.1108)" gradientUnits="userSpaceOnUse" x1="-18.9929" x2="-17.9993" xlink:href="#b" y1="131.017" y2="131.017"/><clipPath id="n"><path d="m34.63 71.87c-.15.16-.32.35-.56.59-.2.19-.45.44-.74.71-.19.17-.46.41-.85.71-.06.05-.36.28-.76.55-.41.29-.75.48-.9.58-.17.1-.45.26-.79.44-.39.19-.66.3-1.31.55-1.4.55-1.28.49-1.44.56-.86.38-1.46.78-1.63.88-.14.1-.76.52-1.31 1.06-.24.23-.52.54-.53.55-.06.06-.21.23-.4.45-.11.13-.26.31-.43.52-.02.03-.04.06-.05.08.27.33.55.56.76.69.41.29.78.41 1.04.49.31.1.57.14.71.17.14.02.4.06.74.08.09 0 .41.01.81-.03.33-.03.57-.08.78-.12.44-.09.78-.19.93-.24.11-.04.52-.17 1.03-.4.11-.05.53-.23 1.04-.53.13-.07.5-.29.94-.6.38-.27.66-.5.74-.57.13-.1.46-.38.84-.76.17-.17.4-.4.67-.73.26-.31.43-.55.56-.74.16-.23.3-.44.47-.74.15-.26.25-.47.32-.63.07-.15.16-.36.27-.64.07-.19.14-.4.21-.67.05-.24.08-.43.1-.55.01-.1.04-.27.05-.49 0-.05.01-.19.01-.38 0-.14-.01-.26-.02-.42-.01-.06-.03-.22-.07-.43-.03-.13-.06-.21-.12-.39-.04-.14-.06-.21-.1-.3-.05-.13-.11-.22-.15-.29-.35.41-.63.74-.86.99"/></clipPath><linearGradient id="o" gradientTransform="matrix(13.1 0 0 -13.1 271.3006 1792.5281)" gradientUnits="userSpaceOnUse" x1="-18.9601" x2="-17.9664" xlink:href="#b" y1="131.0177" y2="131.0177"/><path clip-path="url(#a)" d="m9.2 110.35h39.17v9.65h-39.17z" fill="url(#c)"/><path clip-path="url(#d)" d="m1.44 35.2h54.68v78.12h-54.68z" fill="url(#e)"/><path clip-path="url(#f)" d="m-.04 54.76h57.64v39h-57.64z" fill="url(#g)"/><path clip-path="url(#h)" d="m28.36 0h8.49v30.69h-8.49z" fill="url(#i)"/><path clip-path="url(#j)" d="m19.46 0h8.49v30.69h-8.49z" fill="url(#k)"/><path clip-path="url(#l)" d="m21.61 68.46h12.82v10.26h-12.82z" fill="url(#m)"/><path clip-path="url(#n)" d="m22.92 70.89h13.02v10.61h-13.02z" fill="url(#o)"/></svg>