<svg id="Layer_1" xmlns="http://www.w3.org/2000/svg" xmlns:xlink="http://www.w3.org/1999/xlink" width="120" height="105.78"><style>.st0{clip-path:url(#SVGID_2_);fill:url(#SVGID_3_)}</style><defs><path id="SVGID_1_" d="M45.41 78.19h28.37L59.6 88.78 45.41 78.19zM60.77 92.8l19.57-14.61h23.99c6.48 0 11.75 5.27 11.75 11.75v.17c0 6.48-5.27 11.75-11.75 11.75H15.85c-6.48 0-11.75-5.27-11.75-11.75v-.17c0-6.48 5.27-11.75 11.75-11.75h23L58.42 92.8a1.965 1.965 0 0 0 2.35 0m5.15-31.31c2.3-.04 4.16-.02 5.23 0 2 .01 2.98.01 3.61 0 .29-.01.91-.02 1.82 0 2.89.04 5.71 2.61 8.43 5.1 2.95 2.7 5.99 5.47 9.59 5.47.46 0 .94-.05 1.42-.15 3.3-.67 5.38-3.25 7.4-5.75 1.63-2.02 3.19-3.93 5.17-4.53.68.32 1.48.83 2.18 1.64 1.44 1.66 1.62 3.62 1.64 4.35 0 3.66-2.98 6.63-6.63 6.63H15.05c-2.82 0-5.23-1.78-6.19-4.27 2.49-1.96 4.71-2.9 6.62-2.77 1.54.11 2.56.92 3.73 1.85 1.42 1.13 3.03 2.4 5.57 2.4 2.62 0 4.34-1.4 5.72-2.53 1.31-1.07 2.17-1.72 3.45-1.72 1.27 0 2.14.65 3.45 1.72 1.38 1.13 3.1 2.53 5.72 2.53 2.54 0 4.15-1.28 5.57-2.4 1.18-.93 2.19-1.74 3.73-1.85 2.22-.15 4.85 1.12 7.85 3.8.74.66 1.88.6 2.54-.14.66-.74.6-1.88-.15-2.54-3.75-3.34-7.28-4.94-10.5-4.7-2.65.19-4.35 1.54-5.72 2.62-1.31 1.04-2.1 1.62-3.33 1.62-1.28 0-2.14-.65-3.45-1.72-1.38-1.13-3.1-2.53-5.72-2.53-2.62 0-4.34 1.4-5.72 2.53-1.31 1.06-2.17 1.72-3.45 1.72-1.22 0-2.02-.59-3.33-1.62-1.37-1.08-3.06-2.43-5.72-2.62-2.3-.16-4.7.58-7.25 2.21.17-1.11.63-2.54 1.86-3.5.53-.42 1.16-.7 1.86-.86 3.95 0 7.7.04 11.77.08 4.94.05 10.52.11 17.66.11 6.56.01 14.41-.03 24.3-.18m-41.9-3.92c-4.22-.04-8.08-.08-12.2-.08-1.85 0-3.35-1.61-3.35-3.58s1.51-3.58 3.35-3.58h97.21c1.82 0 3.31 1.56 3.35 3.5-.12 1.17-.46 2.06-1.01 2.64-.77.8-1.88.95-2.47 1.02 0 0-.12.01-.14.02-3.9.53-6.31 3.51-8.44 6.15-1.64 2.04-3.2 3.96-5.08 4.34-2.25.47-4.8-1.88-7.51-4.36-3.13-2.86-6.67-6.09-11.06-6.15-.39-.01-.73-.01-1.03-.01-.44 0-.79.01-1.03.01-.5.01-1.46.01-3.4 0-1.08-.02-2.97-.03-5.33 0-9.84.14-17.66.19-24.17.19-7.17 0-12.75-.06-17.69-.11M3.94 37.66c.04-4.74 1.03-9.09 2.95-12.91C11.64 15.27 24.75 3.98 60.2 3.94v-.01c5.84.01 23.52.03 37.61 6.78 7.2 3.45 12.33 8.17 15.25 14.03 1.91 3.83 2.89 8.18 2.93 12.91 0 4.53-3.48 8.26-7.9 8.67H12.06c-4.54-.35-8.12-4.1-8.12-8.66m-.57-14.68C1.17 27.35.04 32.28 0 37.65c0 4.73 2.63 8.85 6.51 11.02a7.66 7.66 0 0 0-2.05 5.24c0 2.41 1.1 4.56 2.8 5.95-2.95 2.86-2.82 7.04-2.76 7.86 0 .59.07 1.16.17 1.72-.06.43.03.88.29 1.27.65 2.14 1.97 4 3.71 5.33C3.63 78.65.18 83.9.18 89.95v.17c0 8.64 7.03 15.67 15.67 15.67h88.48c8.64 0 15.67-7.03 15.67-15.67v-.17c0-5.9-3.28-11.04-8.1-13.71 2.69-1.92 4.45-5.06 4.45-8.62-.02-1.48-.39-4.35-2.6-6.89-.18-.2-.38-.39-.57-.58.37-.25.73-.54 1.08-.9 1.22-1.27 1.93-3 2.12-5.15.01-.06.01-.12.01-.18 0-2.21-.92-4.19-2.39-5.58 3.55-2.24 5.91-6.19 5.91-10.7-.04-5.35-1.17-10.27-3.34-14.64-3.32-6.68-9.06-12-17.07-15.83C84.61.04 66.25.01 60.2.01V0C22.74.04 8.62 12.52 3.37 22.98"/></defs><clipPath id="SVGID_2_"><use xlink:href="#SVGID_1_" overflow="visible"/></clipPath><linearGradient id="SVGID_3_" gradientUnits="userSpaceOnUse" x1="-9.011" y1="123.997" x2="-8.017" y2="123.997" gradientTransform="matrix(120.6836 0 0 -120.6836 1087.468 15017.297)"><stop offset="0" stop-color="#ABCD50"/><stop offset="0" stop-color="#BCD469"/><stop offset=".009" stop-color="#BCD469"/><stop offset=".28" stop-color="#BCD469"/><stop offset=".558" stop-color="#D98F88"/><stop offset=".817" stop-color="#ED2C43"/><stop offset="1" stop-color="#EE3F42"/></linearGradient><path class="st0" d="M0 0H120V105.78H0z"/></svg>