
<svg width="120px" height="61px" viewBox="0 0 120 61" version="1.1" xmlns="http://www.w3.org/2000/svg" xmlns:xlink="http://www.w3.org/1999/xlink">
    <defs>
        <linearGradient x1="0.00431209814%" y1="50.0243901%" x2="100.010717%" y2="50.0243901%" id="linearGradient-1">
            <stop stop-color="#BDDB59" offset="0%"></stop>
            <stop stop-color="#279EAC" offset="100%"></stop>
        </linearGradient>
        <path d="M10.08,44.74 C11.14,42.62 11.29,40.16 10.54,37.42 L10.41,36.95 L10.05,36.63 C8.43,35.21 7.09,33.59 6.08,31.8 C4.2,28.49 3.89,25.45 3.88,23.93 C3.82,18.13 7.22,13.99 8.34,12.62 C12.91,7.05 19.23,5.21 21.61,4.51 C23.89,3.84 27.01,3.21 30.67,3.21 C32.72,3.21 34.94,3.41 37.28,3.91 C43.09,5.15 47.8,7.6 51.29,11.18 C52.29,12.2 54.62,14.6 55.92,18.44 C57.06,21.8 56.89,24.82 56.55,26.75 C55.94,30.24 54.37,32.74 53.72,33.66 C50.98,37.52 47.25,39.32 45.03,40.39 C39.42,43.09 34.28,43.34 31.51,43.47 C27.1,43.69 22.69,43.18 18.4,41.98 L17.42,41.71 L16.75,42.48 C15.43,44 13.86,45.22 12.07,46.11 C10.64,46.83 9.16,47.29 7.88,47.58 C8.68,46.86 9.48,45.93 10.08,44.74 M20.69,1.43 C18.05,2.2 11.04,4.25 5.84,10.59 C4.54,12.18 0.57,17.01 0.65,23.98 C0.67,25.81 1.04,29.46 3.27,33.4 C4.38,35.36 5.82,37.15 7.54,38.73 C7.95,40.49 7.83,42.03 7.19,43.31 C6.38,44.94 4.88,45.91 3.78,46.62 C2.8,47.26 1.32,48.22 2,49.78 C2.16,50.14 2.51,50.64 3.29,50.92 C3.75,51.09 4.39,51.17 5.16,51.17 C7.37,51.17 10.61,50.46 13.49,49.02 C15.35,48.09 17.02,46.86 18.46,45.37 C22.78,46.47 27.21,46.93 31.63,46.71 C34.41,46.57 40.19,46.3 46.39,43.31 C48.73,42.18 53.1,40.08 56.32,35.54 C57.28,34.18 59,31.31 59.69,27.32 C60.27,24.01 60.01,20.59 58.94,17.42 C57.41,12.88 54.62,10.02 53.57,8.94 C49.63,4.9 44.37,2.15 37.93,0.77 C35.36,0.22 32.92,8.43769499e-15 30.66,8.43769499e-15 C26.63,8.43769499e-15 23.2,0.69 20.69,1.43" id="path-2"></path>
        <linearGradient x1="0.00431209814%" y1="50.0243901%" x2="100.010717%" y2="50.0243901%" id="linearGradient-4">
            <stop stop-color="#BDDB59" offset="0%"></stop>
            <stop stop-color="#279EAC" offset="100%"></stop>
        </linearGradient>
        <path d="M28.51,44.22 C25.75,44.09 20.6,43.84 15,41.14 C12.77,40.07 9.04,38.27 6.31,34.4 C5.66,33.49 4.09,30.99 3.48,27.49 C3.14,25.55 2.97,22.54 4.11,19.18 C5.41,15.33 7.74,12.94 8.74,11.92 C12.22,8.34 16.94,5.9 22.75,4.65 C29.25,3.25 34.86,4.21 38.42,5.25 C40.8,5.94 47.11,7.79 51.69,13.36 C52.81,14.72 56.21,18.87 56.15,24.67 C56.13,26.19 55.82,29.23 53.95,32.54 C52.93,34.33 51.6,35.95 49.98,37.37 L49.62,37.69 L49.49,38.16 C48.74,40.9 48.89,43.36 49.95,45.48 C50.54,46.67 51.35,47.6 52.17,48.34 C50.89,48.06 49.41,47.59 47.98,46.87 C46.19,45.98 44.62,44.76 43.3,43.24 L42.63,42.47 L41.65,42.74 C38.01,43.76 34.28,44.27 30.54,44.27 C29.84,44.27 29.18,44.25 28.51,44.22 M22.06,1.5 C15.62,2.88 10.35,5.63 6.42,9.67 C5.37,10.75 2.58,13.61 1.05,18.15 C-0.3,22.15 -0.1,25.74 0.3,28.05 C1,32.04 2.71,34.91 3.68,36.27 C6.9,40.81 11.26,42.91 13.6,44.04 C19.8,47.03 25.58,47.31 28.36,47.44 C32.79,47.65 37.21,47.2 41.53,46.09 C42.98,47.58 44.65,48.81 46.51,49.74 C49.39,51.18 52.63,51.89 54.84,51.89 C55.6,51.89 56.25,51.81 56.71,51.64 C57.49,51.36 57.84,50.87 58,50.51 C58.68,48.95 57.2,47.99 56.23,47.35 C55.13,46.64 53.63,45.66 52.82,44.04 C52.17,42.74 52.06,41.24 52.47,39.46 C54.19,37.89 55.63,36.1 56.74,34.13 C58.97,30.19 59.34,26.54 59.36,24.71 C59.44,17.74 55.47,12.91 54.17,11.32 C48.97,4.99 41.96,2.94 39.32,2.16 C36.81,1.43 33.38,0.73 29.35,0.73 C27.08,0.73 24.64,0.95 22.06,1.5" id="path-5"></path>
        <linearGradient x1="0.00431209814%" y1="50.0243901%" x2="100.010717%" y2="50.0243901%" id="linearGradient-7">
            <stop stop-color="#BDDB59" offset="0%"></stop>
            <stop stop-color="#279EAC" offset="100%"></stop>
        </linearGradient>
        <linearGradient x1="0.00431209814%" y1="50.0243901%" x2="100.010717%" y2="50.0243901%" id="linearGradient-8">
            <stop stop-color="#BDDB59" offset="0%"></stop>
            <stop stop-color="#279EAC" offset="100%"></stop>
        </linearGradient>
        <path d="M2.39,0.51 C1.5,0.51 0.78,1.23 0.78,2.12 C0.78,3.01 1.5,3.73 2.39,3.73 L28.56,3.73 C29.45,3.73 30.17,3.01 30.17,2.12 C30.17,1.23 29.45,0.51 28.56,0.51 L2.39,0.51 Z" id="path-9"></path>
        <linearGradient x1="0.00431209814%" y1="50.0243901%" x2="100.010717%" y2="50.0243901%" id="linearGradient-11">
            <stop stop-color="#BDDB59" offset="0%"></stop>
            <stop stop-color="#279EAC" offset="100%"></stop>
        </linearGradient>
        <linearGradient x1="0.00431209814%" y1="50.0243901%" x2="100.010717%" y2="50.0243901%" id="linearGradient-12">
            <stop stop-color="#BDDB59" offset="0%"></stop>
            <stop stop-color="#279EAC" offset="100%"></stop>
        </linearGradient>
        <path d="M2.39,0.24 C1.5,0.24 0.78,0.96 0.78,1.85 C0.78,2.74 1.5,3.46 2.39,3.46 L22.81,3.46 C23.7,3.46 24.42,2.74 24.42,1.85 C24.42,0.96 23.7,0.24 22.81,0.24 L2.39,0.24 Z" id="path-13"></path>
        <linearGradient x1="0.00431209814%" y1="50.0243901%" x2="100.010717%" y2="50.0243901%" id="linearGradient-15">
            <stop stop-color="#BDDB59" offset="0%"></stop>
            <stop stop-color="#279EAC" offset="100%"></stop>
        </linearGradient>
        <linearGradient x1="0.00431209814%" y1="50.0243901%" x2="100.010717%" y2="50.0243901%" id="linearGradient-16">
            <stop stop-color="#BDDB59" offset="0%"></stop>
            <stop stop-color="#279EAC" offset="100%"></stop>
        </linearGradient>
        <path d="M2.24,0.84 C1.35,0.84 0.63,1.56 0.63,2.45 C0.63,3.34 1.35,4.06 2.24,4.06 L28.41,4.06 C29.3,4.06 30.02,3.34 30.02,2.45 C30.02,1.56 29.3,0.84 28.41,0.84 L2.24,0.84 Z" id="path-17"></path>
        <path d="M1.99,0.57 C1.1,0.57 0.38,1.29 0.38,2.18 C0.38,3.07 1.1,3.79 1.99,3.79 L22.41,3.79 C23.3,3.79 24.02,3.07 24.02,2.18 C24.02,1.29 23.3,0.57 22.41,0.57 L1.99,0.57 Z" id="path-19"></path>
    </defs>
    <g id="Page-1" stroke="none" stroke-width="1" fill="none" fill-rule="evenodd">
        <g id="friendly-community" transform="translate(0.000000, 0.000000)">
            <g id="Clipped" transform="translate(60.000000, 0.000000)">
                <mask id="mask-3" fill="white">
                    <use xlink:href="#path-2"></use>
                </mask>
                <g id="Shape"></g>
                <polygon id="Path" fill="url(#linearGradient-4)" fill-rule="nonzero" mask="url(#mask-3)" points="0.57 0 60.28 0 60.28 51.16 0.57 51.16"></polygon>
            </g>
            <g id="Clipped" transform="translate(0.000000, 9.000000)">
                <mask id="mask-6" fill="white">
                    <use xlink:href="#path-5"></use>
                </mask>
                <g id="Shape"></g>
                <polygon id="Path" fill="url(#linearGradient-7)" fill-rule="nonzero" mask="url(#mask-6)" points="-0.3 0.73 59.43 0.73 59.43 51.88 -0.3 51.88"></polygon>
            </g>
            <g id="Clipped" transform="translate(13.000000, 26.000000)">
                <mask id="mask-10" fill="white">
                    <use xlink:href="#path-9"></use>
                </mask>
                <g id="Path"></g>
                <polygon id="Path" fill="url(#linearGradient-11)" fill-rule="nonzero" mask="url(#mask-10)" points="0.78 0.51 30.18 0.51 30.18 3.73 0.78 3.73"></polygon>
            </g>
            <g id="Clipped" transform="translate(13.000000, 38.000000)">
                <mask id="mask-14" fill="white">
                    <use xlink:href="#path-13"></use>
                </mask>
                <g id="Path"></g>
                <polygon id="Path" fill="url(#linearGradient-15)" fill-rule="nonzero" mask="url(#mask-14)" points="0.78 0.24 24.42 0.24 24.42 3.46 0.78 3.46"></polygon>
            </g>
            <g id="Clipped" transform="translate(75.000000, 15.000000)">
                <mask id="mask-18" fill="white">
                    <use xlink:href="#path-17"></use>
                </mask>
                <g id="Path"></g>
                <polygon id="Path" fill="url(#linearGradient-11)" fill-rule="nonzero" mask="url(#mask-18)" points="0.63 0.84 30.03 0.84 30.03 4.06 0.63 4.06"></polygon>
            </g>
            <g id="Clipped" transform="translate(81.000000, 27.000000)">
                <mask id="mask-20" fill="white">
                    <use xlink:href="#path-19"></use>
                </mask>
                <g id="Path"></g>
                <polygon id="Path" fill="url(#linearGradient-15)" fill-rule="nonzero" mask="url(#mask-20)" points="0.38 0.57 24.02 0.57 24.02 3.79 0.38 3.79"></polygon>
            </g>
        </g>
    </g>
</svg>
