<svg enable-background="new 0 0 120 60.88" height="60.88" viewBox="0 0 120 60.88" width="120" xmlns="http://www.w3.org/2000/svg" xmlns:xlink="http://www.w3.org/1999/xlink"><clipPath id="a"><path d="m70.08 44.74c1.06-2.12 1.21-4.58.46-7.32l-.13-.47-.36-.32c-1.62-1.42-2.96-3.04-3.97-4.83-1.88-3.31-2.19-6.35-2.2-7.87-.06-5.8 3.34-9.94 4.46-11.31 4.57-5.57 10.89-7.41 13.27-8.11 2.28-.67 5.4-1.3 9.06-1.3 2.05 0 4.27.2 6.61.7 5.81 1.24 10.52 3.69 14.01 7.27 1 1.02 3.33 3.42 4.63 7.26 1.14 3.36.97 6.38.63 8.31-.61 3.49-2.18 5.99-2.83 6.91-2.74 3.86-6.47 5.66-8.69 6.73-5.61 2.7-10.75 2.95-13.52 3.08-4.41.22-8.82-.29-13.11-1.49l-.98-.27-.67.77c-1.32 1.52-2.89 2.74-4.68 3.63-1.43.72-2.91 1.18-4.19 1.47.8-.72 1.6-1.65 2.2-2.84m10.61-43.31c-2.64.77-9.65 2.82-14.85 9.16-1.3 1.59-5.27 6.42-5.19 13.39.02 1.83.39 5.48 2.62 9.42 1.11 1.96 2.55 3.75 4.27 5.33.41 1.76.29 3.3-.35 4.58-.81 1.63-2.31 2.6-3.41 3.31-.98.64-2.46 1.6-1.78 3.16.16.36.51.86 1.29 1.14.46.17 1.1.25 1.87.25 2.21 0 5.45-.71 8.33-2.15 1.86-.93 3.53-2.16 4.97-3.65 4.32 1.1 8.75 1.56 13.17 1.34 2.78-.14 8.56-.41 14.76-3.4 2.34-1.13 6.71-3.23 9.93-7.77.96-1.36 2.68-4.23 3.37-8.22.58-3.31.32-6.73-.75-9.9-1.53-4.54-4.32-7.4-5.37-8.48-3.94-4.04-9.2-6.79-15.64-8.17-2.57-.55-5.01-.77-7.27-.77-4.03 0-7.46.69-9.97 1.43"/></clipPath><linearGradient id="b"><stop offset="0" stop-color="#259ca7"/><stop offset=".009313881" stop-color="#259ca7"/><stop offset=".28" stop-color="#259ca7"/><stop offset=".771" stop-color="#a32b78"/><stop offset="1" stop-color="#89338b"/></linearGradient><linearGradient id="c" gradientTransform="matrix(59.7374 0 0 -59.7374 600.2477 7456.9609)" gradientUnits="userSpaceOnUse" x1="-9.0329" x2="-8.0393" xlink:href="#b" y1="124.4009" y2="124.4009"/><clipPath id="d"><path d="m28.51 53.22c-2.76-.13-7.91-.38-13.51-3.08-2.23-1.07-5.96-2.87-8.69-6.74-.65-.91-2.22-3.41-2.83-6.91-.34-1.94-.51-4.95.63-8.31 1.3-3.85 3.63-6.24 4.63-7.26 3.48-3.58 8.2-6.02 14.01-7.27 6.5-1.4 12.11-.44 15.67.6 2.38.69 8.69 2.54 13.27 8.11 1.12 1.36 4.52 5.51 4.46 11.31-.02 1.52-.33 4.56-2.2 7.87-1.02 1.79-2.35 3.41-3.97 4.83l-.36.32-.13.47c-.75 2.74-.6 5.2.46 7.32.59 1.19 1.4 2.12 2.22 2.86-1.28-.28-2.76-.75-4.19-1.47-1.79-.89-3.36-2.11-4.68-3.63l-.67-.77-.98.27c-3.64 1.02-7.37 1.53-11.11 1.53-.7 0-1.36-.02-2.03-.05m-6.45-42.72c-6.44 1.38-11.71 4.13-15.64 8.17-1.05 1.08-3.84 3.94-5.37 8.48-1.35 4-1.15 7.59-.75 9.9.7 3.99 2.41 6.86 3.38 8.22 3.22 4.54 7.58 6.64 9.92 7.77 6.2 2.99 11.98 3.27 14.76 3.4 4.43.21 8.85-.24 13.17-1.35 1.45 1.49 3.12 2.72 4.98 3.65 2.88 1.44 6.12 2.15 8.33 2.15.76 0 1.41-.08 1.87-.25.78-.28 1.13-.77 1.29-1.13.68-1.56-.8-2.52-1.77-3.16-1.1-.71-2.6-1.69-3.41-3.31-.65-1.3-.76-2.8-.35-4.58 1.72-1.57 3.16-3.36 4.27-5.33 2.23-3.94 2.6-7.59 2.62-9.42.08-6.97-3.89-11.8-5.19-13.39-5.2-6.33-12.21-8.38-14.85-9.16-2.51-.73-5.94-1.43-9.97-1.43-2.27 0-4.71.22-7.29.77"/></clipPath><linearGradient id="e" gradientTransform="matrix(59.7367 0 0 -59.7367 539.2048 7466.6704)" gradientUnits="userSpaceOnUse" x1="-9.0264" x2="-8.0328" xlink:href="#b" y1="124.402" y2="124.402"/><clipPath id="f"><path d="m15.39 26.51c-.89 0-1.61.72-1.61 1.61s.72 1.61 1.61 1.61h26.17c.89 0 1.61-.72 1.61-1.61s-.72-1.61-1.61-1.61z"/></clipPath><linearGradient id="g" gradientTransform="matrix(29.5862 0 0 -29.5862 281.7202 3720.7798)" gradientUnits="userSpaceOnUse" x1="-9.0562" x2="-8.0626" xlink:href="#b" y1="124.81" y2="124.81"/><clipPath id="h"><path d="m15.39 38.24c-.89 0-1.61.72-1.61 1.61s.72 1.61 1.61 1.61h20.42c.89 0 1.61-.72 1.61-1.61s-.72-1.61-1.61-1.61z"/></clipPath><linearGradient id="i" gradientTransform="matrix(23.7925 0 0 -23.7925 229.5769 3014.1672)" gradientUnits="userSpaceOnUse" x1="-9.0699" x2="-8.0764" xlink:href="#b" y1="125.0105" y2="125.0105"/><clipPath id="j"><path d="m77.24 15.84c-.89 0-1.61.72-1.61 1.61s.72 1.61 1.61 1.61h26.17c.89 0 1.61-.72 1.61-1.61s-.72-1.61-1.61-1.61z"/></clipPath><linearGradient id="k" gradientTransform="matrix(29.5851 0 0 -29.5851 343.9545 3709.9067)" gradientUnits="userSpaceOnUse" x1="-9.0697" x2="-8.0761" xlink:href="#b" y1="124.8077" y2="124.8077"/><clipPath id="l"><path d="m82.99 27.57c-.89 0-1.61.72-1.61 1.61s.72 1.61 1.61 1.61h20.42c.89 0 1.61-.72 1.61-1.61s-.72-1.61-1.61-1.61z"/></clipPath><linearGradient id="m" gradientTransform="matrix(23.7914 0 0 -23.7914 297.6044 3003.2866)" gradientUnits="userSpaceOnUse" x1="-9.0883" x2="-8.0946" xlink:href="#b" y1="125.0076" y2="125.0076"/><path clip-path="url(#a)" d="m60.57 0h59.71v51.16h-59.71z" fill="url(#c)"/><path clip-path="url(#d)" d="m-.3 9.73h59.73v51.15h-59.73z" fill="url(#e)"/><path clip-path="url(#f)" d="m13.78 26.51h29.4v3.22h-29.4z" fill="url(#g)"/><path clip-path="url(#h)" d="m13.78 38.24h23.64v3.22h-23.64z" fill="url(#i)"/><path clip-path="url(#j)" d="m75.63 15.84h29.4v3.22h-29.4z" fill="url(#k)"/><path clip-path="url(#l)" d="m81.38 27.57h23.64v3.22h-23.64z" fill="url(#m)"/></svg>