<svg enable-background="new 0 0 120 115.54" height="115.54" viewBox="0 0 120 115.54" width="120" xmlns="http://www.w3.org/2000/svg" xmlns:xlink="http://www.w3.org/1999/xlink"><clipPath id="a"><path d="m97.87 89.54c-8.54 10.86-21.34 17.09-35.13 17.09-12.37 0-23.87-4.94-32.39-13.92-.94-.99-2.51-1.03-3.5-.09s-1.03 2.51-.09 3.5c9.47 9.97 22.24 15.46 35.98 15.46 15.32 0 29.55-6.92 39.03-18.98.85-1.08.66-2.63-.42-3.48-.45-.36-.99-.53-1.53-.53-.74 0-1.46.33-1.95.95"/></clipPath><linearGradient id="b"><stop offset="0" stop-color="#abcd50"/><stop offset="0" stop-color="#bcd469"/><stop offset=".009313881" stop-color="#bcd469"/><stop offset=".28" stop-color="#bcd469"/><stop offset=".5583" stop-color="#d98f88"/><stop offset=".8174" stop-color="#ed2c43"/><stop offset="1" stop-color="#ee3f42"/></linearGradient><linearGradient id="c" gradientTransform="matrix(76.3082 0 0 -76.3082 714.6729 9946.8477)" gradientUnits="userSpaceOnUse" x1="-9.0239" x2="-8.0251" xlink:href="#b" y1="129.0393" y2="129.0393"/><clipPath id="d"><path d="m34.85 20.94c-1.13.77-1.42 2.31-.66 3.44.77 1.13 2.31 1.43 3.44.65 7.42-5.05 16.09-7.72 25.1-7.72 11.44 0 22.32 4.32 30.64 12.17.48.45 1.09.68 1.7.68.66 0 1.32-.26 1.8-.78.94-.99.89-2.56-.1-3.5-9.24-8.72-21.33-13.52-34.03-13.52-10.01.01-19.65 2.97-27.89 8.58"/></clipPath><linearGradient id="e" gradientTransform="matrix(63.8563 0 0 -63.8563 610.3079 8261.6309)" gradientUnits="userSpaceOnUse" x1="-9.0288" x2="-8.0299" xlink:href="#b" y1="129.0456" y2="129.0456"/><clipPath id="f"><path d="m36.12 61.97c0-14.68 11.94-26.61 26.61-26.61s26.61 11.94 26.61 26.61-11.93 26.62-26.6 26.62c-14.68 0-26.62-11.94-26.62-26.62m-4.95 0c0 17.41 14.16 31.57 31.57 31.57s31.57-14.16 31.57-31.57-14.17-31.56-31.57-31.56c-17.41 0-31.57 14.16-31.57 31.56"/></clipPath><linearGradient id="g" gradientTransform="matrix(63.2081 0 0 -63.2081 601.8743 8218.7783)" gradientUnits="userSpaceOnUse" x1="-9.029" x2="-8.0302" xlink:href="#b" y1="129.0468" y2="129.0468"/><path clip-path="url(#a)" d="m25.81 88.59h76.8v22.99h-76.8z" fill="url(#c)"/><path clip-path="url(#d)" d="m33.43 12.37h64.39v17.8h-64.39z" fill="url(#e)"/><path clip-path="url(#f)" d="m31.17 30.41h63.14v63.13h-63.14z" fill="url(#g)"/><path d="m119.48 80.44c-.13-9.48-.27-19.28-.58-28.93-.01-.45 0-7.12 0-18.01.01-10.42.02-20.85.04-31.27 0-.95-.59-1.79-1.49-2.11-.89-.32-1.88-.04-2.48.7-2.88 3.55-5.42 7.52-7.55 11.79-1.36 2.72-5.5 11.01-6.97 22.46-.42 3.26-.51 6.98-.66 15.08-.08 4.26-.09 8.6-.02 12.88.01.59.25 1.16.68 1.57s1.01.65 1.59.63l5.63-.11c-.37 21.01-.48 37.25-.44 41.8.03 3.6 1.02 6.11 2.95 7.46 1.55 1.08 3.23 1.15 3.57 1.15 1.82 0 3.1-.77 3.58-1.09 1.87-1.3 2.76-3.76 2.66-7.3-.26-8.89-.38-17.94-.51-26.7m-4.7 30.35c-.14.1-.54.29-.99.29 0 0-.61-.05-1.04-.35-.3-.21-1.02-1.01-1.04-3.83-.04-4.69.08-21.92.48-44 .01-.61-.22-1.19-.65-1.62-.42-.42-.99-.65-1.58-.65h-.04l-5.69.11c-.03-3.5-.02-7.02.05-10.49.15-7.93.23-11.57.62-14.59 1.38-10.7 5.13-18.21 6.54-21.03.93-1.87 1.95-3.68 3.04-5.41-.01 8.1-.02 16.2-.03 24.3-.01 13.8-.01 17.86 0 18.14.3 9.61.44 19.4.58 28.86.12 8.77.25 17.84.51 26.78.07 2.69-.57 3.35-.76 3.49" fill="#ee3f42"/><g fill="#bcd469"><path d="m30.81 42.79v-30.31c0-1.25-1.01-2.26-2.26-2.26s-2.26 1.01-2.26 2.26v30.31c0 2.33-1.9 4.23-4.23 4.23h-13.31c-2.33 0-4.23-1.9-4.23-4.23v-30.31c0-1.25-1.01-2.26-2.26-2.26s-2.26 1.02-2.26 2.26v30.31c0 4.83 3.93 8.75 8.75 8.75h.85c-.25 21.08-.43 38.19-.53 48.04-.05 4.63-.08 7.65-.1 8.75-.01.77-.04 3.12 1.62 5.02 1.83 2.1 4.46 2.19 4.9 2.19h.04c.48 0 2.97-.12 4.71-2.07 1.65-1.86 1.61-4.19 1.6-4.96-.02-1.11-.06-4.45-.13-9.6-.13-9.99-.36-26.8-.66-47.36h1.02c4.82 0 8.74-3.93 8.74-8.76m-13.57 56.18c.07 5.16.11 8.51.13 9.62.01.37.02 1.35-.47 1.91-.49.55-1.4.58-1.39.58-.01 0-1.01-.04-1.56-.66-.53-.61-.52-1.64-.52-2.04.01-1.09.05-4.12.1-8.75.1-9.86.28-26.98.54-48.08h2.51c.3 20.6.53 37.42.66 47.42"/><path d="m19.1 45.72c1.25 0 2.26-1.01 2.26-2.26v-28.98c0-1.25-1.01-2.26-2.26-2.26s-2.26 1.01-2.26 2.26v28.97c0 1.25 1.01 2.27 2.26 2.27"/><path d="m10.68 45.72c1.25 0 2.26-1.01 2.26-2.26v-28.98c0-1.25-1.01-2.26-2.26-2.26s-2.26 1.01-2.26 2.26v28.97c0 1.25 1.01 2.27 2.26 2.27"/></g></svg>