
<svg width="120px" height="116px" viewBox="0 0 120 116" version="1.1" xmlns="http://www.w3.org/2000/svg" xmlns:xlink="http://www.w3.org/1999/xlink">
    <defs>
        <path d="M71.87,1.54 C63.33,12.4 50.53,18.63 36.74,18.63 C24.37,18.63 12.87,13.69 4.35,4.71 C3.41,3.72 1.84,3.68 0.85,4.62 C-0.14,5.56 -0.18,7.13 0.76,8.12 C10.23,18.09 23,23.58 36.74,23.58 C52.06,23.58 66.29,16.66 75.77,4.6 C76.62,3.52 76.43,1.97 75.35,1.12 C74.9,0.76 74.36,0.59 73.82,0.59 C73.08,0.59 72.36,0.92 71.87,1.54" id="path-1"></path>
        <linearGradient x1="0.345487005%" y1="50.026045%" x2="99.5858909%" y2="50.026045%" id="linearGradient-3">
            <stop stop-color="#ABCD50" offset="0%"></stop>
            <stop stop-color="#BCD469" offset="0%"></stop>
            <stop stop-color="#BCD469" offset="0.9313881%"></stop>
            <stop stop-color="#279EAC" offset="100%"></stop>
        </linearGradient>
        <path d="M1.85,8.94 C0.72,9.71 0.43,11.25 1.19,12.38 C1.96,13.51 3.5,13.81 4.63,13.03 C12.05,7.98 20.72,5.31 29.73,5.31 C41.17,5.31 52.05,9.63 60.37,17.48 C60.85,17.93 61.46,18.16 62.07,18.16 C62.73,18.16 63.39,17.9 63.87,17.38 C64.81,16.39 64.76,14.82 63.77,13.88 C54.53,5.16 42.44,0.36 29.74,0.36 C19.73,0.37 10.09,3.33 1.85,8.94" id="path-4"></path>
        <linearGradient x1="0.515823202%" y1="49.9233299%" x2="99.5778795%" y2="49.9233299%" id="linearGradient-6">
            <stop stop-color="#ABCD50" offset="0%"></stop>
            <stop stop-color="#BCD469" offset="0%"></stop>
            <stop stop-color="#BCD469" offset="0.9313881%"></stop>
            <stop stop-color="#279EAC" offset="100%"></stop>
        </linearGradient>
        <path d="M5.12,31.97 C5.12,17.29 17.06,5.36 31.73,5.36 C46.4,5.36 58.34,17.3 58.34,31.97 C58.34,46.64 46.41,58.59 31.74,58.59 C17.06,58.59 5.12,46.65 5.12,31.97 M0.17,31.97 C0.17,49.38 14.33,63.54 31.74,63.54 C49.15,63.54 63.31,49.38 63.31,31.97 C63.31,14.56 49.14,0.41 31.74,0.41 C14.33,0.41 0.17,14.57 0.17,31.97" id="path-7"></path>
        <linearGradient x1="-0.00258932531%" y1="50.0004133%" x2="99.9851368%" y2="50.0004133%" id="linearGradient-9">
            <stop stop-color="#ABCD50" offset="0%"></stop>
            <stop stop-color="#BCD469" offset="0%"></stop>
            <stop stop-color="#BCD469" offset="0.9313881%"></stop>
            <stop stop-color="#279EAC" offset="100%"></stop>
        </linearGradient>
    </defs>
    <g id="Page-1" stroke="none" stroke-width="1" fill="none" fill-rule="evenodd">
        <g id="tasty-lunch" transform="translate(0.000000, -1.000000)">
            <g id="Clipped" transform="translate(26.000000, 89.000000)">
                <mask id="mask-2" fill="white">
                    <use xlink:href="#path-1"></use>
                </mask>
                <g id="Path"></g>
                <polygon id="Path" fill="url(#linearGradient-3)" fill-rule="nonzero" mask="url(#mask-2)" points="-0.19 0.59 76.61 0.59 76.61 23.58 -0.19 23.58"></polygon>
            </g>
            <g id="Clipped" transform="translate(33.000000, 13.000000)">
                <mask id="mask-5" fill="white">
                    <use xlink:href="#path-4"></use>
                </mask>
                <g id="Path"></g>
                <polygon id="Path" fill="url(#linearGradient-6)" fill-rule="nonzero" mask="url(#mask-5)" points="0.43 0.37 64.82 0.37 64.82 18.17 0.43 18.17"></polygon>
            </g>
            <g id="Clipped" transform="translate(31.000000, 31.000000)">
                <mask id="mask-8" fill="white">
                    <use xlink:href="#path-7"></use>
                </mask>
                <g id="Shape"></g>
                <polygon id="Path" fill="url(#linearGradient-9)" fill-rule="nonzero" mask="url(#mask-8)" points="0.17 0.41 63.31 0.41 63.31 63.54 0.17 63.54"></polygon>
            </g>
            <path d="M119.48,81.44 C119.35,71.96 119.21,62.16 118.9,52.51 C118.89,52.06 118.9,45.39 118.9,34.5 C118.91,24.08 118.92,13.65 118.94,3.23 C118.94,2.28 118.35,1.44 117.45,1.12 C116.56,0.8 115.57,1.08 114.97,1.82 C112.09,5.37 109.55,9.34 107.42,13.61 C106.06,16.33 101.92,24.62 100.45,36.07 C100.03,39.33 99.94,43.05 99.79,51.15 C99.71,55.41 99.7,59.75 99.77,64.03 C99.78,64.62 100.02,65.19 100.45,65.6 C100.88,66.01 101.46,66.25 102.04,66.23 L107.67,66.12 C107.3,87.13 107.19,103.37 107.23,107.92 C107.26,111.52 108.25,114.03 110.18,115.38 C111.73,116.46 113.41,116.53 113.75,116.53 C115.57,116.53 116.85,115.76 117.33,115.44 C119.2,114.14 120.09,111.68 119.99,108.14 C119.73,99.25 119.61,90.2 119.48,81.44 M114.78,111.79 C114.64,111.89 114.24,112.08 113.79,112.08 C113.79,112.08 113.18,112.03 112.75,111.73 C112.45,111.52 111.73,110.72 111.71,107.9 C111.67,103.21 111.79,85.98 112.19,63.9 C112.2,63.29 111.97,62.71 111.54,62.28 C111.12,61.86 110.55,61.63 109.96,61.63 L109.92,61.63 L104.23,61.74 C104.2,58.24 104.21,54.72 104.28,51.25 C104.43,43.32 104.51,39.68 104.9,36.66 C106.28,25.96 110.03,18.45 111.44,15.63 C112.37,13.76 113.39,11.95 114.48,10.22 C114.47,18.32 114.46,26.42 114.45,34.52 C114.44,48.32 114.44,52.38 114.45,52.66 C114.75,62.27 114.89,72.06 115.03,81.52 C115.15,90.29 115.28,99.36 115.54,108.3 C115.61,110.99 114.97,111.65 114.78,111.79" id="Shape" fill="#279EAC" fill-rule="nonzero"></path>
            <g id="Group" transform="translate(0.000000, 11.000000)" fill="#BDDB59" fill-rule="nonzero">
                <path d="M30.81,32.79 L30.81,2.48 C30.81,1.23 29.8,0.22 28.55,0.22 C27.3,0.22 26.29,1.23 26.29,2.48 L26.29,32.79 C26.29,35.12 24.39,37.02 22.06,37.02 L8.75,37.02 C6.42,37.02 4.52,35.12 4.52,32.79 L4.52,2.48 C4.52,1.23 3.51,0.22 2.26,0.22 C1.01,0.22 -1.77635684e-15,1.24 -1.77635684e-15,2.48 L-1.77635684e-15,32.79 C-1.77635684e-15,37.62 3.93,41.54 8.75,41.54 L9.6,41.54 C9.35,62.62 9.17,79.73 9.07,89.58 C9.02,94.21 8.99,97.23 8.97,98.33 C8.96,99.1 8.93,101.45 10.59,103.35 C12.42,105.45 15.05,105.54 15.49,105.54 L15.53,105.54 C16.01,105.54 18.5,105.42 20.24,103.47 C21.89,101.61 21.85,99.28 21.84,98.51 C21.82,97.4 21.78,94.06 21.71,88.91 C21.58,78.92 21.35,62.11 21.05,41.55 L22.07,41.55 C26.89,41.55 30.81,37.62 30.81,32.79 M17.24,88.97 C17.31,94.13 17.35,97.48 17.37,98.59 C17.38,98.96 17.39,99.94 16.9,100.5 C16.41,101.05 15.5,101.08 15.51,101.08 C15.5,101.08 14.5,101.04 13.95,100.42 C13.42,99.81 13.43,98.78 13.43,98.38 C13.44,97.29 13.48,94.26 13.53,89.63 C13.63,79.77 13.81,62.65 14.07,41.55 L16.58,41.55 C16.88,62.15 17.11,78.97 17.24,88.97" id="Shape"></path>
                <path d="M19.1,35.72 C20.35,35.72 21.36,34.71 21.36,33.46 L21.36,4.48 C21.36,3.23 20.35,2.22 19.1,2.22 C17.85,2.22 16.84,3.23 16.84,4.48 L16.84,33.45 C16.84,34.7 17.85,35.72 19.1,35.72" id="Path"></path>
                <path d="M10.68,35.72 C11.93,35.72 12.94,34.71 12.94,33.46 L12.94,4.48 C12.94,3.23 11.93,2.22 10.68,2.22 C9.43,2.22 8.42,3.23 8.42,4.48 L8.42,33.45 C8.42,34.7 9.43,35.72 10.68,35.72" id="Path"></path>
            </g>
        </g>
    </g>
</svg>
